<svg width="157" height="124" viewBox="0 0 157 124" fill="none" xmlns="http://www.w3.org/2000/svg">
<path d="M140.839 68.0826C140.636 68.0808 140.555 68.0396 140.638 67.8781C140.761 67.6359 140.368 66.2135 140.126 66.0898C140.045 66.0486 139.925 65.8854 139.846 65.6415C139.806 65.5195 139.646 65.2344 139.445 65.0299C139.203 64.9062 139.085 64.5403 139.006 64.2964C139.007 64.0937 138.806 63.8893 138.726 63.848C138.564 63.7656 138.525 63.6436 138.566 63.5629C138.607 63.4821 138.487 63.3189 138.286 63.1145C138.085 62.9101 137.845 62.5837 137.685 62.2985C137.484 62.0941 137.324 61.8089 137.243 61.7677C136.881 61.4808 136.479 61.072 136.561 60.9105C136.603 60.8298 136.522 60.7885 136.441 60.7473C136.4 60.828 136.199 60.6236 136.039 60.3385C135.761 59.6874 135.44 59.3198 135.197 59.1961C135.036 59.1136 134.914 59.1531 134.792 59.1926C134.629 59.3129 134.467 59.2304 134.509 59.1497C134.673 58.8267 134.275 58.0125 133.952 57.8476C133.79 57.7651 133.589 57.5607 133.55 57.4387C133.43 57.2755 133.27 56.9903 132.947 56.8254C132.705 56.7017 132.423 56.4561 132.344 56.2121C132.265 55.9682 132.184 55.927 132.021 56.0472C131.777 56.1262 131.777 56.1262 131.818 56.0455C131.901 55.884 131.781 55.7208 131.619 55.6384C131.377 55.5147 131.176 55.3103 131.097 55.0663C130.978 54.7004 130.415 54.2091 129.527 53.7556C129.285 53.6319 129.003 53.3862 129.005 53.1835C128.884 53.0203 128.683 52.8159 128.561 52.8554C128.4 52.773 128.239 52.6905 128.199 52.5685C128.201 52.3658 127.275 51.5876 126.548 51.2166C126.225 51.0517 126.024 50.8472 125.904 50.684C125.865 50.5621 125.703 50.4796 125.662 50.5603C125.581 50.5191 125.219 50.2322 124.775 49.9041C124.05 49.3303 123.729 48.9627 123.487 48.839C123.326 48.7566 123.204 48.7961 123.162 48.8768C123.04 48.9163 123.001 48.7944 122.881 48.6312C122.802 48.3872 122.319 47.9371 121.834 47.6898C121.391 47.3617 120.787 46.9511 120.586 46.7467C120.505 46.7054 120.424 46.6642 120.343 46.623C120.182 46.5405 120.06 46.58 119.938 46.6195C119.775 46.7398 119.694 46.6985 119.534 46.4134C119.455 46.1694 118.931 45.8001 118.327 45.3895C117.681 45.0597 116.834 44.5254 116.43 44.3193C115.987 43.9912 114.736 43.2508 113.687 42.7148C112.679 42.0981 111.225 41.3559 110.701 40.9866C110.055 40.6567 109.53 40.4901 109.489 40.5708C109.489 40.5708 109.408 40.5296 109.288 40.3664C109.248 40.2445 107.997 39.504 106.786 38.8856C105.575 38.2672 104.404 37.7707 104.282 37.8102C104.16 37.8497 103.998 37.7672 103.797 37.5628C103.758 37.4408 103.638 37.2777 103.476 37.1952C103.395 37.154 103.273 37.1935 103.193 37.1522C102.99 37.1505 102.506 36.9031 102.102 36.697C101.617 36.4496 101.294 36.2847 101.212 36.4462C101.171 36.5269 101.009 36.4445 100.85 36.1593C100.81 36.0373 100.649 35.9549 100.487 35.8724C100.326 35.79 100.083 35.6663 99.8 35.6233C99.0716 35.4549 98.345 35.0839 97.6991 34.754C97.3761 34.5891 97.1734 34.5874 97.1322 34.6681C97.0497 34.8296 97.0497 34.8296 96.9295 34.6664C96.8092 34.5032 96.366 34.1751 95.8816 33.9277C95.4779 33.7216 95.1138 33.6374 95.0725 33.7181C95.0725 33.7181 94.911 33.6357 94.5881 33.4708C93.8615 33.0997 93.1348 32.7286 92.3257 32.519C91.9615 32.4349 91.4359 32.2682 91.1937 32.1445C90.9515 32.0209 90.7092 31.8972 90.5873 31.9367C90.4653 31.9762 90.2231 31.8525 89.9809 31.7288C89.7799 31.5244 89.4965 31.4814 89.4552 31.5622C89.3333 31.6017 89.1306 31.6 88.9708 31.3148C88.9313 31.1928 88.7698 31.1104 88.6083 31.0279C88.5276 30.9867 88.4469 30.9454 88.3249 30.985C88.1222 30.9832 87.5158 30.7754 87.0314 30.528C86.5469 30.2806 85.9406 30.0727 85.7378 30.071C85.5351 30.0693 85.3324 30.0676 85.3737 29.9868C85.4149 29.9061 85.2929 29.9456 85.1297 30.0659C84.8858 30.1449 84.8051 30.1036 84.7656 29.9817C84.726 29.8597 84.5251 29.6553 84.2828 29.5316C84.1214 29.4491 83.9187 29.4474 83.8774 29.5282C83.8362 29.6089 83.594 29.4852 83.3518 29.3615C82.3829 28.8668 81.0482 28.4905 80.7235 28.5283C80.6015 28.5678 80.3988 28.5661 80.4401 28.4854C80.4401 28.4854 80.1978 28.3617 79.7529 28.2363C79.3887 28.1521 78.7016 27.903 78.2567 27.7776C77.7723 27.5302 77.3274 27.4048 77.2449 27.5663C77.1229 27.6058 76.5973 27.4391 76.1128 27.1918C75.022 26.7365 74.2129 26.5269 74.1305 26.6884C74.0892 26.7691 73.9673 26.8086 73.847 26.6455C73.646 26.441 69.1556 25.2677 68.8705 25.4274C68.8705 25.4274 68.587 25.3845 68.3448 25.2608C68.1421 25.2591 67.8587 25.2161 67.8174 25.2969C67.7762 25.3776 67.6147 25.2951 67.5357 25.0512C67.455 25.01 67.4155 24.888 67.3347 24.8468C67.1733 24.7643 66.9705 24.7626 66.6459 24.8004C66.3624 24.7574 65.7148 24.6303 65.2699 24.5049C64.7047 24.2163 64.3801 24.2541 64.3388 24.3348C64.2564 24.4963 64.0537 24.4946 63.7307 24.3296C63.0041 23.9586 61.1419 23.6184 61.0183 23.8606C60.977 23.9414 60.7743 23.9396 60.5321 23.816C60.2899 23.6923 58.9964 23.2353 58.8314 23.5583C58.7902 23.639 58.5875 23.6373 58.3865 23.4328C58.2663 23.2696 58.0636 23.2679 58.0224 23.3487C57.9811 23.4294 57.7784 23.4277 57.6977 23.3864C57.0518 23.0566 55.6346 22.8419 55.1467 22.9999C54.7808 23.1184 54.4166 23.0342 54.2964 22.871C54.1349 22.7886 53.9734 22.7061 53.891 22.8676C53.8497 22.9483 53.647 22.9466 53.4048 22.8229C53.2433 22.7405 53.0406 22.7387 53.0406 22.7387C52.9994 22.8195 52.594 22.816 52.1491 22.6906C51.7454 22.4845 51.34 22.481 51.2987 22.5618C51.2575 22.6425 51.1768 22.6013 51.0153 22.5188C50.9346 22.4776 50.6906 22.5566 50.4879 22.5549C50.3247 22.6751 50.0413 22.6322 49.8798 22.5497C49.7183 22.4673 49.5964 22.5068 49.5551 22.5875C49.5139 22.6683 49.3919 22.7078 49.3112 22.6665C49.2305 22.6253 49.1497 22.5841 49.069 22.5428C48.746 22.3779 48.4626 22.335 48.3801 22.4965C48.2977 22.6579 48.095 22.6562 47.8528 22.5325C47.6105 22.4088 47.4886 22.4483 47.4061 22.6098C47.3649 22.6905 47.121 22.7696 47.0007 22.6064C46.4355 22.3178 46.1521 22.2748 45.9872 22.5978C45.824 22.718 45.6213 22.7163 45.4598 22.6338C45.0561 22.4277 38.6898 22.5358 38.5661 22.778C38.5249 22.8588 38.3222 22.857 38.08 22.7333C37.757 22.5684 37.4736 22.5255 37.3104 22.6457C37.2692 22.7265 36.9445 22.7642 36.661 22.7213C36.0529 22.7161 35.4448 22.711 35.1596 22.8707C35.1184 22.9515 34.5103 22.9463 33.9022 22.9411C32.8079 22.8913 32.2788 23.1301 32.1534 23.575C32.1122 23.6557 31.87 23.532 31.669 23.3276C31.2258 22.9995 30.4133 23.1953 30.1659 23.6797C30.0422 23.922 29.9202 23.9615 29.7192 23.757C29.5183 23.5526 28.2213 23.5011 28.0976 23.7433C28.0564 23.824 27.8124 23.903 27.4878 23.9408C27.0824 23.9374 26.7972 24.0971 26.7147 24.2586C26.591 24.5008 26.3883 24.4991 26.2269 24.4166C25.7424 24.1693 22.4476 25.4387 20.9805 26.3182C20.8586 26.3577 20.5734 26.5174 20.4102 26.6377C20.1663 26.7167 20.0031 26.837 19.9206 26.9984C19.8382 27.1599 19.553 27.3197 19.3091 27.3987C19.0651 27.4777 18.8607 27.6787 18.8195 27.7594C18.7783 27.8402 18.5738 28.0411 18.3711 28.0394C17.964 28.2387 16.7374 29.4446 16.7769 29.5666C16.8165 29.6885 16.5296 30.051 16.1619 30.3722C15.6294 31.0164 15.5882 31.0971 15.7479 31.3823C15.9867 31.9114 15.9042 32.0729 15.5813 31.9079C15.1776 31.7018 14.7687 32.1038 14.8873 32.4697C14.8856 32.6724 14.8443 32.7531 14.7224 32.7926C14.3169 32.7892 12.7811 36.9927 13.1041 37.1576C13.1848 37.1988 13.1024 37.3603 13.0199 37.5218C12.8138 37.9255 12.7639 39.0197 12.9271 38.8995C13.0079 38.9407 12.9254 39.1022 12.7192 39.5059C11.9806 40.5538 10.742 43.1786 10.6973 43.6647C10.6956 43.8675 10.5272 44.5958 10.4396 45.3654C10.2712 46.0938 10.2661 46.7019 10.4275 46.7843C10.5083 46.8256 10.5478 46.9475 10.3846 47.0678C10.1801 47.2688 10.0083 48.4025 10.1698 48.485C10.2506 48.5262 10.3296 48.7702 10.2866 49.0536C10.2437 49.337 10.2815 49.6617 10.3622 49.7029C10.4429 49.7442 10.4824 49.8661 10.4 50.0276C10.3175 50.1891 10.357 50.3111 10.4378 50.3523C10.68 50.476 10.8775 51.0858 10.7143 51.2061C10.4292 51.3658 10.6971 53.2331 10.9393 53.3568C11.1008 53.4393 11.0991 53.642 11.0166 53.8034C10.8517 54.1264 10.9702 54.4923 11.4134 54.8204C11.7364 54.9853 11.7347 55.188 11.611 55.4302C11.4856 55.8752 11.9614 57.1361 12.3634 57.5449C12.5248 57.6274 12.6434 57.9933 12.5609 58.1547C12.5592 58.3575 12.6382 58.6014 12.7584 58.7646C12.9199 58.847 13.0402 59.0102 12.9989 59.091C12.9577 59.1717 13.0779 59.3349 13.1587 59.3761C13.3202 59.4586 13.3597 59.5806 13.3184 59.6613C13.2772 59.742 13.3167 59.864 13.4782 59.9465C13.5589 59.9877 13.6379 60.2316 13.6362 60.4343C13.5933 60.7178 13.6328 60.8397 13.9162 60.8827C14.1189 60.8844 14.2392 61.0476 14.1155 61.2898C14.1533 61.6145 14.3543 61.8189 14.9194 62.1075C15.0809 62.19 15.1204 62.312 15.1204 62.312C14.9967 62.5542 15.9552 64.2652 16.3572 64.674C16.6802 64.8389 16.9207 65.1653 16.9189 65.368C16.9584 65.49 17.0787 65.6532 17.2007 65.6137C17.2814 65.6549 17.4429 65.7374 17.4824 65.8593C17.5614 66.1033 18.4461 66.9622 18.8893 67.2903C18.97 67.3315 19.2912 67.6992 19.6537 67.9861C19.9354 68.2317 20.4181 68.6818 20.8218 68.8879C21.1448 69.0529 21.466 69.4205 21.5055 69.5425C21.545 69.6644 21.6652 69.8276 21.8267 69.9101C21.9882 69.9925 22.1102 69.953 22.2716 70.0355C22.5946 70.2004 23.079 70.4478 23.2388 70.7329C23.4398 70.9374 24.2866 71.4716 24.9325 71.8015C25.6179 72.2533 26.2639 72.5831 26.3034 72.7051C26.3429 72.827 26.5043 72.9095 26.7088 72.7085C26.872 72.5883 26.9527 72.6295 27.0317 72.8734C27.1107 73.1174 27.353 73.2411 27.5144 73.3235C27.6759 73.406 27.8374 73.4884 27.8786 73.4077C27.9611 73.2462 28.0418 73.2874 28.2428 73.4919C28.363 73.6551 29.2099 74.1893 30.1788 74.6841C31.3898 75.3025 32.7229 75.8815 33.0063 75.9244C33.2502 75.8454 33.8961 76.1752 34.7843 76.6288C35.0265 76.7524 35.2687 76.8761 35.5109 76.9998C36.0761 77.2884 36.4402 77.3726 36.5622 77.3331C36.6842 77.2936 37.2906 77.5015 38.3007 77.9155C39.9962 78.7813 40.764 79.0716 41.0887 79.0338C41.1694 79.0751 41.4116 79.1987 41.5731 79.2812C41.8153 79.4049 42.0575 79.5286 42.262 79.3276C42.6279 79.2091 42.7086 79.2503 42.8289 79.4135C42.8684 79.5355 43.1501 79.7811 43.5538 79.9873C44.1997 80.3171 45.1702 80.6092 45.9793 80.8187C46.383 81.0249 47.3948 81.2362 48.1627 81.5265C49.0525 81.7774 50.0231 82.0694 50.2653 82.1931C50.6295 82.2773 51.3166 82.5264 51.7616 82.6518C52.1653 82.8579 52.6909 83.0246 52.8129 82.9851C52.9761 82.8648 53.2183 82.9885 53.2578 83.1105C53.4193 83.1929 53.5 83.2342 53.622 83.1946L54.4311 83.4042C54.5925 83.4867 54.8365 83.4077 54.9189 83.2462C55.0839 82.9233 55.0839 82.9233 55.1216 83.2479C55.1199 83.4506 55.4429 83.6155 55.7658 83.7805C56.5732 84.1928 57.8272 84.5278 59.083 84.6601C59.2049 84.6205 59.6086 84.8267 59.9728 84.9109C60.9416 85.4056 62.2352 85.8626 62.5598 85.8248C62.7625 85.8265 63.2882 85.9932 63.7331 86.1186C64.7037 86.4106 65.1091 86.4141 65.1126 86.0087C65.1555 85.7252 65.2362 85.7664 65.4355 86.1736C65.5953 86.4587 65.676 86.5 65.8375 86.5824C65.9989 86.6649 66.1604 86.7473 66.4439 86.7903C66.8888 86.9157 67.2942 86.9191 67.3749 86.9604C68.3043 87.3332 69.2353 87.5032 69.3573 87.4637C69.3985 87.383 69.6407 87.5067 69.8417 87.7111C70.0839 87.8348 70.2454 87.9173 70.3674 87.8778C70.5306 87.7575 70.9755 87.8829 71.5012 88.0496C71.9856 88.2969 72.4717 88.3416 72.5937 88.3021C73.1589 88.5907 74.0487 88.8415 74.6156 88.9274C75.3439 89.0958 76.153 89.3054 76.5567 89.5115C76.9209 89.5957 77.3263 89.5991 77.4483 89.5596C77.6922 89.4806 78.0564 89.5648 78.4206 89.649C79.7536 90.2279 80.9664 90.6436 81.0489 90.4822C81.0901 90.4014 81.1708 90.4427 81.3323 90.5251C81.3718 90.6471 81.5333 90.7296 81.5745 90.6488C81.6965 90.6093 81.8992 90.611 82.1414 90.7347C82.3029 90.8172 83.0312 90.9855 83.7596 91.1539C84.4072 91.281 85.4998 91.5336 86.0254 91.7002C86.5511 91.8668 87.4014 91.9957 87.8068 91.9991C88.2517 92.1245 88.5352 92.1675 88.9389 92.3736C89.1811 92.4973 89.626 92.6227 89.9902 92.7069C90.3148 92.6691 90.8817 92.755 91.2047 92.92C91.4881 92.9629 91.933 93.0883 92.0945 93.1708C92.2972 93.1725 92.8229 93.3391 93.2283 93.3426C93.5925 93.4268 94.1989 93.6346 94.4823 93.6776C94.8053 93.8425 95.2914 93.8872 95.4941 93.8889C95.6968 93.8906 95.9803 93.9336 96.1417 94.016C96.262 94.1792 96.4235 94.2617 96.4647 94.1809C96.5059 94.1002 96.7086 94.1019 97.0316 94.2668C97.315 94.3098 97.6792 94.394 97.8012 94.3545C97.9231 94.3149 98.0846 94.3974 98.0846 94.3974C98.1241 94.5194 98.4076 94.5623 98.7717 94.6465C99.1771 94.65 99.744 94.7358 100.108 94.82C100.431 94.9849 100.756 94.9472 100.756 94.9472C100.797 94.8664 101.122 94.8286 101.364 94.9523C101.728 95.0365 102.051 95.2014 102.254 95.2031C102.415 95.2856 102.699 95.3286 102.943 95.2495C103.065 95.21 103.551 95.2547 103.954 95.4608C104.399 95.5863 104.805 95.5897 104.927 95.5502C104.968 95.4695 105.332 95.5536 105.616 95.5966C105.939 95.7615 106.303 95.8457 106.425 95.8062C106.547 95.7667 106.669 95.7272 106.708 95.8491C106.828 96.0123 107.962 96.1841 108.045 96.0227C108.086 95.9419 108.289 95.9436 108.45 96.0261C108.692 96.1498 108.934 96.2735 109.056 96.234C109.178 96.1945 109.584 96.1979 110.029 96.3233C110.231 96.325 112.459 96.5467 112.54 96.5879C112.702 96.6704 112.985 96.7133 113.31 96.6755C113.593 96.7185 114.282 96.7649 114.687 96.7683C115.174 96.813 115.701 96.7769 115.904 96.7786C116.026 96.7391 116.309 96.7821 116.551 96.9058C116.794 97.0294 116.996 97.0312 117.079 96.8697C117.161 96.7082 117.364 96.7099 117.606 96.8336C117.848 96.9573 118.212 97.0415 118.254 96.9608C118.376 96.9212 118.578 96.923 118.74 97.0054C118.901 97.0879 119.104 97.0896 119.104 97.0896C119.267 96.9694 121.983 97.033 123.077 97.0828C123.361 97.1258 123.605 97.0467 123.687 96.8853C123.77 96.7238 123.892 96.6843 123.972 96.7255C124.417 96.8509 124.781 96.9351 124.903 96.8956C124.945 96.8149 125.472 96.7788 125.999 96.7427C126.486 96.7874 127.054 96.6706 127.217 96.5503C127.3 96.3889 127.503 96.3906 127.664 96.4731C127.987 96.638 128.879 96.6861 128.961 96.5246C129.002 96.4439 129.205 96.4456 129.408 96.4473C129.691 96.4903 130.138 96.413 130.504 96.2944C130.87 96.1759 131.194 96.1381 131.275 96.1794C131.356 96.2206 131.844 96.0626 132.412 95.9457C132.981 95.8289 133.549 95.7121 133.63 95.7534C133.711 95.7946 133.793 95.6331 133.877 95.2689C134.003 94.824 134.084 94.8653 134.326 94.9889C134.972 95.3188 135.499 95.2827 135.623 95.0405C135.705 94.879 135.868 94.7588 136.03 94.8412C136.111 94.8825 136.435 94.8447 136.679 94.7657C137.616 94.3276 138.593 93.8089 138.634 93.7281C138.675 93.6474 138.961 93.4876 139.326 93.3691C140.1 93.0513 140.589 92.6906 140.469 92.5274C140.309 92.2422 140.678 91.7183 140.962 91.7612C141.814 91.6874 144.15 88.707 143.791 88.0147C143.752 87.8927 143.836 87.5285 144.083 87.0441C144.702 85.833 144.722 83.4006 144.125 82.1792C144.003 82.2187 144.044 82.138 144.126 81.9765C144.209 81.815 144.015 80.7998 143.659 79.7021C143.384 78.6456 143.149 77.7111 143.19 77.6303C143.273 77.4689 143.235 77.1442 143.158 76.6975C143.161 76.2921 143.085 75.6428 143.089 75.2374C143.092 74.832 142.933 74.5468 142.771 74.4644C142.61 74.3819 142.529 74.3407 142.611 74.1792C142.776 73.8562 142.749 72.3153 142.507 72.1916C142.426 72.1504 142.266 71.8653 142.228 71.5406C141.957 70.0787 141.083 68.0035 140.839 68.0826ZM137.935 90.1138C138.26 90.076 138.586 89.8355 138.751 89.5126C138.997 89.2308 139.284 88.8684 139.449 88.5454C139.694 88.2637 140.022 87.8205 140.187 87.4976C140.392 87.2966 140.639 86.8121 140.843 86.6112C140.967 86.3689 141.173 85.9653 141.336 85.845C141.46 85.6028 141.46 85.6028 141.457 86.0082C141.495 86.3329 141.574 86.5768 141.735 86.6593C141.977 86.783 141.608 87.3069 141.283 87.3447C141.081 87.343 140.833 87.8274 140.38 88.7155C139.761 89.9266 139.72 90.0073 139.273 90.0846C138.949 90.1224 138.705 90.2014 138.744 90.3234C138.703 90.4041 138.418 90.5639 138.011 90.7631C137.645 90.8816 137.523 90.9212 137.442 90.8799C137.442 90.8799 137.442 90.8799 137.525 90.7185C137.729 90.5175 137.77 90.4367 137.609 90.3543C137.528 90.313 137.61 90.1516 137.935 90.1138ZM136.831 91.2802C137.074 91.2012 137.196 91.1616 137.155 91.2424C137.114 91.3231 136.951 91.4434 136.707 91.5224C136.382 91.5602 136.26 91.5997 136.301 91.5189C136.301 91.5189 136.506 91.318 136.831 91.2802ZM115.759 47.03C116.001 47.1537 116.284 47.1967 116.365 47.2379C116.568 47.2396 116.607 47.3616 116.605 47.5643C116.523 47.7258 117.693 48.4249 117.854 48.5074C118.055 48.7118 118.498 49.0399 118.821 49.2049C119.103 49.4505 119.426 49.6154 119.546 49.7786C119.667 49.9418 119.828 50.0243 119.991 49.904C120.113 49.8645 120.194 49.9058 120.233 50.0277C120.273 50.1497 120.393 50.3129 120.555 50.3953C121.201 50.7252 121.725 51.0945 121.884 51.3797C122.449 51.6683 122.934 51.9157 123.417 52.3658C124.382 53.2659 124.945 53.7572 125.349 53.9634C125.591 54.0871 125.753 54.1695 125.916 54.0493C126.201 53.8895 126.201 53.8895 126.119 54.051C125.954 54.374 126.275 54.7416 126.718 55.0697C126.88 55.1521 127.122 55.2758 127.161 55.3978C127.201 55.5198 127.563 55.8067 127.886 55.9716C128.29 56.1777 128.652 56.4646 128.651 56.6673C128.771 56.8305 129.133 57.1174 129.456 57.2823C129.618 57.3648 129.699 57.406 129.86 57.4885C129.941 57.5297 130.142 57.7341 130.14 57.9368C130.138 58.1395 130.42 58.3852 130.621 58.5896C130.863 58.7133 131.145 58.9589 131.224 59.2029C131.264 59.3249 131.425 59.4073 131.667 59.531C131.748 59.5722 131.829 59.6135 131.909 59.6547C132.071 59.7371 132.193 59.6976 132.274 59.7389C132.354 59.7801 132.394 59.9021 132.353 59.9828C132.27 60.1443 133.392 61.735 133.636 61.656C133.717 61.6972 133.797 61.7385 133.756 61.8192C133.715 61.8999 133.955 62.2263 134.237 62.472C134.56 62.6369 134.72 62.9221 134.679 63.0028C134.679 63.0028 134.799 63.166 134.96 63.2485C135.122 63.3309 135.402 63.7793 135.601 64.1864C135.8 64.5935 136.24 65.3271 136.601 65.8166C137.042 66.3475 137.281 66.8766 137.279 67.0793C137.278 67.282 137.357 67.5259 137.599 67.6496C138.081 68.0997 138.241 68.3848 138.399 68.8727C138.396 69.2781 138.355 69.3589 138.032 69.1939C137.709 69.029 137.63 68.7851 137.631 68.5824C137.716 68.2182 137.436 67.7698 137.193 67.6462C137.113 67.6049 137.032 67.5637 136.991 67.6444C136.827 67.7647 136.747 67.7235 136.668 67.4795C136.632 66.9521 136.111 66.1774 135.788 66.0125C135.627 65.93 135.426 65.7256 135.347 65.4817C135.226 65.3185 135.106 65.1553 135.025 65.114C134.904 65.1535 134.864 65.0316 134.825 64.9096C134.785 64.7876 134.424 64.298 134.103 63.9304C133.701 63.5216 133.179 62.9495 133.019 62.6644C132.859 62.3792 132.497 62.0923 132.416 62.0511C132.213 62.0494 132.133 62.0081 132.215 61.8467C132.256 61.7659 132.136 61.6027 132.055 61.5615C131.894 61.479 131.693 61.2746 131.533 60.9894C131.093 60.2559 128.881 58.2099 128.637 58.289C128.474 58.4092 128.474 58.4092 128.515 58.3285C128.597 58.167 128.396 57.9626 128.115 57.7169C127.873 57.5932 127.39 57.1431 127.149 56.8167C126.909 56.4903 126.507 56.0815 126.345 55.999C126.103 55.8753 125.741 55.5885 125.5 55.2621C125.34 54.9769 125.139 54.7725 124.817 54.6076C124.736 54.5663 124.655 54.5251 124.494 54.4426C124.332 54.3602 124.049 54.3172 123.968 54.276C123.806 54.1935 123.767 54.0716 123.767 54.0716C123.891 53.8294 122.966 52.8485 122.2 52.3554C121.838 52.0685 121.475 51.7817 121.395 51.7404C121.316 51.4965 120.912 51.2903 120.589 51.1254C120.347 51.0017 120.105 50.8781 120.063 50.9588C120.022 51.0395 119.941 50.9983 119.861 50.9571C119.78 50.9158 119.699 50.8746 119.62 50.6307C119.462 50.1428 119.139 49.9779 118.735 49.7717C118.493 49.6481 118.373 49.4849 118.334 49.3629C118.254 49.119 118.054 48.9145 117.932 48.954C117.932 48.954 117.851 48.9128 117.77 48.8716C117.528 48.7479 117.165 48.461 116.803 48.1741C116.279 47.8048 115.997 47.5591 115.836 47.4767C115.674 47.3942 115.594 47.353 115.552 47.4337C115.389 47.554 115.308 47.5127 115.31 47.31C115.272 46.9854 115.314 46.9046 115.759 47.03ZM114.829 46.6572C114.91 46.6985 114.949 46.8204 114.908 46.9012C114.867 46.9819 114.745 47.0214 114.745 47.0214C114.664 46.9802 114.625 46.8582 114.666 46.7775C114.626 46.6555 114.668 46.5748 114.829 46.6572ZM114.103 46.2862C114.264 46.3686 114.304 46.4906 114.262 46.5713C114.221 46.6521 113.939 46.4064 113.9 46.2844C113.902 46.0817 113.982 46.123 114.103 46.2862ZM112.529 45.3808C112.61 45.4221 112.69 45.4633 112.771 45.5045C112.811 45.6265 112.73 45.5853 112.649 45.544C112.488 45.4616 112.488 45.4616 112.529 45.3808ZM109.382 43.5702C109.463 43.6114 109.463 43.6114 109.421 43.6922C109.421 43.6922 109.38 43.7729 109.299 43.7317L109.26 43.6097C109.301 43.529 109.382 43.5702 109.382 43.5702ZM68.5492 29.844C68.7519 29.8457 68.8326 29.8869 68.8721 30.0089C68.9528 30.0501 68.7501 30.0484 68.5887 29.9659C68.4272 29.8835 68.4684 29.8028 68.5492 29.844ZM67.2951 29.509C67.3759 29.5502 67.3759 29.5502 67.3346 29.631C67.3346 29.631 67.2934 29.7117 67.2127 29.6705L67.1732 29.5485C67.2144 29.4678 67.2951 29.509 67.2951 29.509ZM66.608 29.2599C66.8073 29.667 66.8073 29.667 66.4826 29.7048C66.2799 29.7031 66.1992 29.6619 66.1184 29.6206C66.0377 29.5794 66.0377 29.5794 66.0394 29.3767C66.0428 28.9713 66.1665 28.7291 66.328 28.8115C66.4087 28.8528 66.529 29.0159 66.608 29.2599ZM65.5172 28.8046C65.5172 28.8046 65.5979 28.8459 65.5567 28.9266L65.4347 28.9661C65.354 28.9249 65.3952 28.8441 65.3952 28.8441C65.4365 28.7634 65.4365 28.7634 65.5172 28.8046ZM64.2219 28.5504C64.3027 28.5916 64.3027 28.5916 64.2615 28.6723C64.2615 28.6723 64.2202 28.7531 64.1395 28.7119L64.1 28.5899C64.1412 28.5091 64.2219 28.5504 64.2219 28.5504ZM63.7358 28.5057C63.7753 28.6277 63.7341 28.7084 63.6121 28.7479C63.4901 28.7874 63.5314 28.7067 63.5726 28.626C63.6551 28.4645 63.6551 28.4645 63.7358 28.5057ZM62.8855 28.3769C63.0882 28.3786 63.1277 28.5005 62.9645 28.6208C62.7601 28.8218 62.8408 28.863 62.6003 28.5366C62.5213 28.2927 62.602 28.3339 62.8855 28.3769ZM40.4024 26.1587C40.6859 26.2017 40.8491 26.0815 40.8508 25.8787C40.8937 25.5953 41.2596 25.4768 41.7441 25.7242C41.9055 25.8066 42.311 25.8101 42.6769 25.6915C43.0823 25.695 43.7316 25.6194 44.2178 25.6641C45.312 25.7139 46.731 25.726 47.1759 25.8514C47.2978 25.8119 47.5005 25.8136 47.5418 25.7328C47.583 25.6521 47.8665 25.6951 48.2701 25.9012C48.5931 26.0661 48.9573 26.1503 49.16 26.152C49.2819 26.1125 50.335 26.2431 51.4687 26.4149C52.6833 26.6279 53.7363 26.7585 53.8995 26.6383C54.0215 26.5987 54.3049 26.6417 54.4664 26.7242C55.0728 26.932 56.4487 27.2275 56.8954 27.1502C57.0981 27.1519 57.3008 27.1537 57.421 27.3169C57.5825 27.3993 57.6633 27.4405 57.7457 27.2791C57.8282 27.1176 57.9501 27.0781 58.2319 27.3237C58.5548 27.4887 58.8383 27.5316 59.2024 27.6158C59.6886 27.6605 60.7004 27.8718 61.1848 28.1192C61.2655 28.1604 61.4683 28.1621 61.5902 28.1226C61.7122 28.0831 61.7929 28.1243 61.7929 28.1243C61.8737 28.1655 61.7105 28.2858 61.4253 28.4455C61.2621 28.5658 61.2209 28.6465 61.0594 28.5641C60.9787 28.5228 60.8979 28.4816 60.8584 28.3596C60.7777 28.3184 60.7382 28.1964 60.6574 28.1552C60.496 28.0728 60.2933 28.071 60.0906 28.0693C59.8878 28.0676 59.199 28.0212 58.7541 27.8958C57.1754 27.5986 56.8112 27.5144 56.77 27.5951C56.7287 27.6759 56.526 27.6742 56.3646 27.5917C56.2031 27.5092 55.7169 27.4646 55.2308 27.4199C54.7842 27.4972 54.3392 27.3718 54.1778 27.2893C54.0163 27.2069 53.4082 27.2017 52.8001 27.1965C52.1919 27.1914 51.5838 27.1862 51.3416 27.0625C51.1801 26.9801 50.9774 26.9783 50.9362 27.0591C50.8555 27.0178 50.4501 27.0144 49.9639 26.9697C49.519 26.8443 49.0328 26.7996 48.9504 26.9611C48.8284 27.0006 48.6257 26.9989 48.3835 26.8752C48.222 26.7928 48.0193 26.791 47.9781 26.8718C47.9369 26.9525 47.7342 26.9508 47.6534 26.9096C47.4919 26.8271 47.37 26.8666 47.248 26.9061C47.1655 27.0676 46.8821 27.0246 46.6399 26.901C46.0335 26.6931 43.9257 26.6347 43.802 26.8769C43.7196 27.0383 43.6388 26.9971 43.5581 26.9559C43.5581 26.9559 43.5186 26.8339 43.4378 26.7927C43.2764 26.7102 42.871 26.7068 42.8692 26.9095C42.8675 27.1122 42.706 27.0297 42.4638 26.906C42.3831 26.8648 42.3024 26.8236 42.3024 26.8236C42.1409 26.7411 41.9382 26.7394 41.8162 26.7789C41.6942 26.8184 41.3696 26.8562 41.0861 26.8133C40.4385 26.6861 39.1398 26.8373 39.0161 27.0795C38.9749 27.1602 38.7722 27.1585 38.6107 27.076C38.1263 26.8287 39.3477 26.2309 40.4024 26.1587ZM38.0455 26.7874C38.1263 26.8287 38.1263 26.8287 38.0851 26.9094C38.0043 26.8682 37.9236 26.8269 37.9236 26.8269C37.9648 26.7462 38.0455 26.7874 38.0455 26.7874ZM37.6436 26.3786C37.7243 26.4198 37.8051 26.461 37.8858 26.5023C37.8446 26.583 37.8033 26.6638 37.6419 26.5813C37.5611 26.5401 37.5216 26.4181 37.6436 26.3786ZM18.5274 33.5142C18.3247 33.5125 18.1615 33.6327 18.1202 33.7134C18.0378 33.8749 17.8746 33.9952 17.6719 33.9934C17.5499 34.0329 17.2647 34.1927 17.1823 34.3542C17.0998 34.5156 16.9366 34.6359 16.8559 34.5947C16.7751 34.5534 16.9401 34.2305 17.2269 33.868C18.1306 32.4972 18.2955 32.1743 18.1752 32.0111C18.1357 31.8891 18.2989 31.7688 18.5841 31.6091C19.0719 31.4511 20.7056 30.0459 20.5854 29.8827C20.6266 29.802 20.9118 29.6422 21.3996 29.4842C21.8463 29.4069 22.1727 29.1664 22.2139 29.0856C22.2551 29.0049 22.6623 28.8056 22.9474 28.6459C23.2721 28.6081 23.5985 28.3676 23.6397 28.2869C23.681 28.2061 23.8442 28.0859 24.0056 28.1684C24.2083 28.1701 24.3303 28.1306 24.2908 28.0086C24.2925 27.8059 24.3733 27.8471 24.3733 27.8471C24.6155 27.9708 27.218 27.0604 27.2197 26.8577C27.2197 26.8577 27.3829 26.7374 27.6251 26.8611C27.9086 26.9041 28.1113 26.9058 28.1525 26.8251C28.1937 26.7443 28.3157 26.7048 28.3965 26.7461C28.4772 26.7873 29.0458 26.6705 29.5337 26.5124C30.0628 26.2737 30.7121 26.1981 30.9148 26.1998C31.279 26.284 31.401 26.2445 31.4044 25.8391C31.3666 25.5144 31.4078 25.4337 31.6896 25.6793C31.9713 25.925 32.8216 26.0538 32.9041 25.8924C32.9453 25.8116 33.0673 25.7721 33.2287 25.8546C33.3902 25.937 33.4315 25.8563 33.5139 25.6948C33.5156 25.4921 33.6376 25.4526 33.7991 25.5351C33.8798 25.5763 34.0825 25.578 34.1237 25.4973C34.1237 25.4973 34.4484 25.4595 34.6906 25.5832C34.8521 25.6656 34.9741 25.6261 35.0548 25.6674C35.1355 25.7086 35.1751 25.8306 34.9706 26.0315C34.7662 26.2325 34.6837 26.394 34.7233 26.516C35.0033 26.9643 34.5137 27.3251 33.4984 27.5192C32.8491 27.5947 32.32 27.8335 32.1568 27.9538C31.9524 28.1547 31.7892 28.275 31.7496 28.153C31.5074 28.0293 30.8993 28.0242 30.6537 28.3059C30.4905 28.4261 30.0026 28.5842 29.7192 28.5412C29.0303 28.4948 27.2008 29.0874 27.0771 29.3297C27.0359 29.4104 26.67 29.5289 26.3865 29.486C26.0619 29.5238 25.7372 29.5615 25.696 29.6423C25.6547 29.723 25.2476 29.9223 24.801 29.9996C24.3938 30.1988 24.0279 30.3174 23.9867 30.3981C23.9455 30.4788 23.5383 30.6781 23.1312 30.8774C22.4406 31.0337 22.3994 31.1144 22.4372 31.4391C22.5162 31.683 22.475 31.7638 22.152 31.5988C21.8291 31.4339 20.8946 31.6693 20.9324 31.9939C20.8499 32.1554 20.484 32.2739 20.0769 32.4732C19.589 32.6312 19.1406 32.9112 19.0582 33.0727C18.9757 33.2342 18.7713 33.4352 18.5274 33.5142ZM13.0352 45.2658C13.0352 45.2658 13.0765 45.1851 13.1572 45.2263L13.1967 45.3483C13.1555 45.429 13.0747 45.3878 13.0747 45.3878C12.994 45.3466 12.994 45.3466 13.0352 45.2658ZM51.5847 79.6095C51.4627 79.649 50.9371 79.4824 50.5334 79.2762C50.1297 79.0701 49.8067 78.9051 49.7655 78.9859C49.7243 79.0666 49.2793 78.9412 48.7142 78.6526C48.2298 78.4052 47.4207 78.1956 47.1372 78.1527C46.773 78.0685 46.0859 77.8194 45.6822 77.6133C45.1978 77.3659 44.7529 77.2405 44.7116 77.3212C44.6704 77.4019 44.5897 77.3607 44.3887 77.1563C44.2272 77.0738 43.985 76.9501 43.863 76.9897C43.7411 77.0292 43.0127 76.8608 42.4475 76.5722C41.8016 76.2424 41.276 76.0757 41.154 76.1152C41.0733 76.074 40.9118 75.9915 40.8311 75.9503C40.7108 75.7871 40.5889 75.8266 40.5064 75.9881C40.4239 76.1496 40.302 76.1891 40.2212 76.1479C40.1405 76.1066 40.101 75.9847 40.0615 75.8627C40.1027 75.7819 39.8605 75.6583 39.699 75.5758C39.5375 75.4933 39.2953 75.3697 39.1734 75.4092C39.0926 75.3679 38.4862 75.1601 37.8403 74.8302C36.1431 74.1671 34.4459 73.504 32.8311 72.6794C32.5082 72.5145 32.3055 72.5128 32.1835 72.5523C31.9396 72.6313 31.8176 72.6708 31.8193 72.4681C31.7798 72.3461 31.5393 72.0197 31.2971 71.8961C31.1357 71.8136 31.0549 71.7724 31.0137 71.8531C31.0137 71.8531 30.4073 71.6452 29.6807 71.2742C28.6311 70.7382 27.2998 69.9565 26.5336 69.4635C26.0904 69.1354 25.3243 68.6424 24.9206 68.4362C24.5169 68.2301 24.0737 67.902 23.792 67.6563C23.6717 67.4931 23.5515 67.3299 23.4707 67.2887C23.39 67.2474 23.268 67.287 23.268 67.287C23.2268 67.3677 23.1461 67.3265 22.9846 67.244C22.7424 67.1203 22.4211 66.7527 22.0604 66.2631C21.8199 65.9367 21.4575 65.6498 21.3355 65.6893C21.174 65.6069 21.0125 65.5244 20.9335 65.2805C20.894 65.1585 20.7325 65.0761 20.6518 65.0348C20.5298 65.0743 20.4096 64.9111 20.2893 64.7479C20.2103 64.504 19.9286 64.2584 19.7671 64.1759C19.6057 64.0934 19.2449 63.6038 18.8842 63.1143C18.5234 62.6247 18.2434 62.1763 18.1215 62.2158C17.9995 62.2553 17.8793 62.0921 17.881 61.8894C17.8415 61.7675 17.7212 61.6043 17.5597 61.5218C17.479 61.4806 17.4378 61.5613 17.357 61.5201C17.1148 61.3964 16.9963 61.0305 16.8005 60.2179C16.682 59.852 16.3212 59.3625 16.0807 59.0361C15.7595 58.6684 15.5602 58.2613 15.6427 58.0998C15.6856 57.8164 15.6461 57.6944 15.5242 57.7339C15.5242 57.7339 15.4039 57.5707 15.3249 57.3268C15.2459 57.0829 15.2064 56.9609 15.1256 56.9197C15.0449 56.8784 15.0449 56.8784 14.9229 56.9179C14.7202 56.9162 14.5983 56.9557 14.5175 56.9145C14.4368 56.8733 14.478 56.7925 14.6824 56.5916C14.8061 56.3493 14.7288 55.9027 14.2152 54.3171C13.8597 53.2194 13.5436 52.2437 13.5848 52.1629C13.6673 52.0015 13.547 51.8383 13.3856 51.7558C13.3048 51.7146 13.2241 51.6734 13.1021 51.7129C12.7362 51.8314 12.7774 51.7507 13.0231 51.4689C13.3907 51.1477 13.3924 50.945 13.1159 50.0912C12.8771 49.5621 12.8411 49.0347 12.8823 48.954C13.0867 48.753 13.219 47.4973 13.1383 47.4561C13.0575 47.4148 13.0197 47.0902 13.1022 46.9287C13.1451 46.6452 13.1056 46.5233 12.9442 46.4408C12.9442 46.4408 12.8634 46.3996 12.7827 46.3584C12.4185 46.2742 12.4185 46.2742 12.7432 46.2364C12.9871 46.1574 13.2311 46.0784 13.3135 45.9169C13.4767 45.7966 13.5162 45.9186 13.4715 46.4047C13.5488 46.8514 13.6691 47.0146 13.8306 47.097C14.114 47.14 14.1535 47.262 14.1106 47.5454C13.901 48.3545 15.0124 51.1615 15.4985 51.2061C15.7407 51.3298 15.8215 51.3711 15.739 51.5325C15.6565 51.694 15.6961 51.816 15.9383 51.9397C16.0997 52.0221 16.098 52.2248 16.0568 52.3056C15.9331 52.5478 16.4897 53.8499 16.7319 53.9736C16.8126 54.0148 16.9724 54.3 17.1321 54.5852C17.2111 54.8291 17.4929 55.0747 17.7351 55.1984C17.8965 55.2809 18.0168 55.4441 17.9756 55.5248C17.8931 55.6863 18.5734 56.7462 18.977 56.9524C19.1385 57.0348 19.379 57.3612 19.5783 57.7684C19.738 58.0535 20.0988 58.5431 20.4217 58.708C20.7034 58.9537 21.0247 59.3213 21.1449 59.4845C21.1432 59.6872 21.4249 59.9329 21.6671 60.0565C21.9093 60.1802 22.3508 60.7111 22.5913 61.0374C22.9125 61.4051 23.2338 61.7727 23.3557 61.7332C23.4365 61.7744 23.5979 61.8569 23.6375 61.9788C23.7165 62.2228 24.4002 62.8773 25.2866 63.5335C25.5683 63.7792 25.85 64.0248 26.0115 64.1073C26.051 64.2293 26.2932 64.3529 26.3327 64.4749C26.4942 64.5574 26.6952 64.7618 26.9374 64.8855C27.0576 65.0487 27.2191 65.1311 27.3411 65.0916C27.5043 64.9714 27.6245 65.1346 27.7843 65.4197C27.8633 65.6637 28.2652 66.0725 28.6689 66.2787C29.0726 66.4848 29.4746 66.8937 29.5948 67.0569C29.7958 67.2613 30.1583 67.5482 30.44 67.7938C31.6906 68.5342 32.2952 68.9448 32.4155 69.108C32.577 69.1905 32.7779 69.3949 32.8587 69.4361C33.0202 69.5186 33.3826 69.8055 33.867 70.0529C35.1571 70.9152 36.4884 71.6969 37.861 72.3978C37.9022 72.317 38.0242 72.2775 38.1857 72.36C38.2664 72.4012 38.3866 72.5644 38.3454 72.6451C38.3042 72.7259 38.3437 72.8479 38.5052 72.9303C38.7474 73.054 38.8693 73.0145 38.9106 72.9338C38.993 72.7723 39.1133 72.9355 39.1923 73.1794C39.2713 73.4233 39.4723 73.6278 39.6338 73.7102C39.7952 73.7927 39.9172 73.7532 39.9584 73.6724C40.0409 73.511 40.1216 73.5522 40.2419 73.7154C40.5236 73.961 41.4512 74.5365 42.1779 74.9076C42.6623 75.155 42.9852 75.3199 43.1072 75.2804C43.1897 75.1189 43.3511 75.2014 43.4714 75.3646C43.5109 75.4865 45.2459 76.4743 46.5377 77.134C47.3451 77.5463 47.991 77.8761 48.0322 77.7954C48.0734 77.7146 48.9616 78.1682 50.0524 78.6234C51.2634 79.2419 51.7874 79.6112 51.5847 79.6095ZM134.427 92.5977C134.386 92.6785 134.388 92.4758 134.47 92.3143C134.553 92.1528 134.633 92.194 134.592 92.2748C134.59 92.4775 134.549 92.5582 134.427 92.5977ZM139.109 76.055C139.109 76.055 139.188 76.2989 139.306 76.6648C139.425 77.0308 139.543 77.3966 139.705 77.4791C139.785 77.5203 139.825 77.6423 139.784 77.723C139.742 77.8038 139.823 77.845 139.985 77.9275C140.187 77.9292 140.227 78.0512 140.144 78.2126C140.103 78.2934 140.101 78.4961 140.141 78.618C140.301 78.9032 140.247 80.4029 140.043 80.6039C139.921 80.6434 139.713 81.2498 139.586 81.8974C139.418 82.6258 139.169 83.3129 139.169 83.3129C139.047 83.3524 139.045 83.5551 139.084 83.6771C139.205 83.8403 139.163 83.921 139 84.0412C138.878 84.0807 138.426 84.7662 138.055 85.4928C137.602 86.3809 137.233 86.9048 137.069 87.0251C136.867 87.0234 136.621 87.3051 136.497 87.5473C136.332 87.8703 136.128 88.0712 136.006 88.1107C135.925 88.0695 135.843 88.231 135.802 88.3117C135.8 88.5144 135.637 88.6347 135.515 88.6742C135.271 88.7532 135.23 88.8339 135.35 88.9971C135.43 89.0384 135.145 89.1981 134.657 89.3562C134.25 89.5554 133.517 89.9952 133.149 90.3164C132.701 90.5964 132.374 90.8369 132.294 90.7957C132.213 90.7544 132.091 90.7939 132.05 90.8747C131.967 91.0362 131.519 91.3162 130.909 91.5137C130.299 91.7112 129.851 91.9912 129.81 92.072C129.849 92.194 129.646 92.1922 129.485 92.1098C129.324 92.0273 128.877 92.1046 128.592 92.2644C128.224 92.5856 127.331 92.7402 126.884 92.8175C126.396 92.9755 126.03 93.094 125.95 93.0528C125.707 92.9291 124.283 93.5252 124.201 93.6867C124.239 94.0113 123.914 94.0491 123.835 93.8052C123.796 93.6832 123.715 93.642 123.634 93.6008C123.311 93.4358 122.864 93.5131 122.904 93.6351C122.943 93.7571 122.741 93.7553 122.579 93.6729C122.337 93.5492 121.729 93.544 121.282 93.6213C120.836 93.6986 120.308 93.7347 120.228 93.6935C120.147 93.6522 120.025 93.6917 119.822 93.69C119.659 93.8103 118.929 93.8446 118.118 93.8377C116.739 93.9476 115.686 93.8171 114.349 93.6435C114.024 93.6813 113.538 93.6367 113.174 93.5525C112.769 93.549 112.485 93.5061 112.444 93.5868C112.403 93.6676 112.039 93.5834 111.674 93.4992C111.31 93.415 110.946 93.3308 110.905 93.4116C110.822 93.5731 110.822 93.5731 110.783 93.4511C110.743 93.3291 108.395 92.9443 107.746 93.0199C107.543 93.0181 107.34 93.0164 107.179 92.934C107.098 92.8927 106.815 92.8498 106.531 92.8068C106.329 92.8051 105.559 92.7175 104.953 92.5096C104.305 92.3825 103.738 92.2966 103.697 92.3773C103.534 92.4976 103.25 92.4546 103.008 92.3309C102.766 92.2072 102.24 92.0406 101.915 92.0784C101.551 91.9942 101.065 91.9495 100.904 91.8671C100.661 91.7434 100.378 91.7004 100.175 91.6987C99.9313 91.7777 99.6479 91.7348 99.6084 91.6128C99.5276 91.5716 99.1635 91.4874 98.7993 91.4032C98.3939 91.3998 97.9489 91.2744 97.7067 91.1507C97.4645 91.027 97.1399 91.0648 97.0179 91.1043C96.7739 91.1833 96.5712 91.1816 96.451 91.0184C96.3703 90.9772 96.3703 90.9772 96.2895 90.9359C96.128 90.8535 95.8858 90.7298 95.7639 90.7693C95.4804 90.7263 94.3466 90.5545 93.1734 90.2608C90.7461 89.632 89.0866 89.2936 88.762 89.3313C88.64 89.3709 88.0748 89.0822 87.3877 88.8332C86.7418 88.5033 86.0135 88.335 85.8107 88.3332C85.5668 88.4123 85.1219 88.2868 84.8797 88.1632C84.5567 87.9982 84.2733 87.9553 84.1513 87.9948C84.1101 88.0755 83.8679 87.9518 83.6257 87.8282C83.5449 87.7869 83.4642 87.7457 83.4642 87.7457C83.222 87.622 83.0193 87.6203 82.8166 87.6186C82.6139 87.6168 82.4919 87.6564 82.3304 87.5739C82.2497 87.5327 82.2102 87.4107 82.1294 87.3695C82.0504 87.1255 81.9697 87.0843 81.8872 87.2458C81.846 87.3265 81.6433 87.3248 81.523 87.1616C81.3616 87.0791 81.2001 86.9967 81.0781 87.0362C81.0369 87.1169 80.8754 87.0345 80.7552 86.8713C80.5937 86.7888 80.068 86.6222 79.5407 86.6582C79.1353 86.6548 78.9738 86.5723 78.8123 86.4899C78.6508 86.4074 78.5701 86.3662 78.5306 86.2442C78.4103 86.081 78.3296 86.0398 78.1269 86.0381C78.0049 86.0776 77.3573 85.9505 76.8729 85.7031C75.7013 85.2066 74.973 85.0382 74.8905 85.1997C74.8493 85.2805 74.5263 85.1155 74.1226 84.9094C73.8804 84.7857 73.8409 84.6637 73.6794 84.5813C73.518 84.4988 73.4767 84.5796 73.3943 84.741C73.2706 84.9832 73.1898 84.942 72.9889 84.7376C72.7071 84.4919 72.5869 84.3287 72.4254 84.2463C72.1832 84.1226 72.0612 84.1621 71.8173 84.2411C71.6129 84.4421 71.4102 84.4404 71.4119 84.2377C71.2916 84.0745 70.8484 83.7464 70.4448 83.5402C70.1218 83.3753 69.7576 83.2911 69.7164 83.3719C69.6752 83.4526 69.3917 83.4096 69.0688 83.2447C68.5036 82.9561 67.4935 82.5421 67.3716 82.5816C67.2908 82.5404 66.9679 82.3755 66.6037 82.2913C64.9477 81.5474 63.8157 81.1729 63.0478 80.8826C62.2387 80.673 61.713 80.5064 60.502 79.8879C60.2598 79.7642 59.8148 79.6388 59.6929 79.6783C59.5709 79.7178 59.0057 79.4292 58.4406 79.1406C57.7947 78.8108 57.3498 78.6854 57.2278 78.7249C57.1866 78.8056 57.1058 78.7644 57.0251 78.7232C56.9443 78.6819 56.7829 78.5995 56.6626 78.4363C56.4204 78.3126 56.0975 78.1477 55.8552 78.024C55.6921 78.1442 55.3691 77.9793 55.0461 77.8144C54.8039 77.6907 54.481 77.5258 54.359 77.5653C54.2783 77.5241 53.6324 77.1942 52.9865 76.8644C52.0984 76.4109 51.7342 76.3267 51.571 76.4469C51.5298 76.5277 51.3271 76.526 51.2875 76.404C51.1673 76.2408 50.3204 75.7065 49.513 75.2942C49.0286 75.0469 48.503 74.8802 48.4222 74.839C48.381 74.9197 48.2195 74.8373 48.1388 74.796C48.0185 74.6328 47.8966 74.6724 47.7746 74.7119C47.7334 74.7926 47.6526 74.7514 47.4911 74.6689C47.4104 74.6277 47.2489 74.5452 47.0479 74.3408C46.8057 74.2171 46.4828 74.0522 46.2406 73.9285C46.0379 73.9268 45.9571 73.8856 45.8764 73.8443C45.8369 73.7224 45.0707 73.2293 44.5056 72.9407C44.0211 72.6933 43.657 72.6092 43.657 72.6092L43.6157 72.6899C43.5333 72.8514 43.2516 72.6057 43.0111 72.2793C42.9716 72.1574 42.2449 71.7863 41.4788 71.2933C40.0255 70.5511 39.0979 69.9756 37.8078 69.1133C36.7187 68.4553 35.7103 67.8386 34.58 67.2614C34.257 67.0965 34.0561 66.892 33.6936 66.6051C32.8897 65.7874 31.6803 64.9663 30.9949 64.5145C30.672 64.3496 30.27 63.9407 30.069 63.7363C29.868 63.5319 29.3441 63.1625 29.0211 62.9976C28.7394 62.752 28.3357 62.5458 28.2962 62.4238C28.176 62.2606 27.9355 61.9342 27.6125 61.7693C27.2896 61.6044 26.8876 61.1956 26.6866 60.9911C26.5269 60.706 26.3259 60.5015 26.2452 60.4603C26.1232 60.4998 25.9222 60.2954 25.7212 60.091C25.6422 59.847 25.4807 59.7646 25.4 59.7233C25.3193 59.6821 25.2385 59.6409 25.1165 59.6804C24.9946 59.7199 24.9946 59.7199 24.9138 59.6787C24.8331 59.6374 24.7936 59.5155 24.6338 59.2303C24.5548 58.9864 24.3143 58.66 24.1529 58.5775C23.9914 58.4951 23.8316 58.2099 23.7526 57.966C23.6324 57.8028 23.5929 57.6808 23.5121 57.6396C23.4314 57.5984 23.3094 57.6379 23.2287 57.5966C23.1067 57.6361 23.1067 57.6361 23.026 57.5949C22.9452 57.5537 22.825 57.3905 22.8267 57.1878C22.7889 56.8631 22.6292 56.5779 22.6292 56.5779C22.4265 56.5762 22.186 56.2498 21.6243 55.5558C21.2223 55.147 20.7808 54.6161 20.5008 54.1678C20.2208 53.7194 19.7793 53.1886 19.6591 53.0254C19.4581 52.821 19.3379 52.6578 19.2983 52.5358C19.2193 52.2919 18.5013 50.9073 18.3398 50.8248C18.2591 50.7836 18.0203 50.2545 17.7815 49.7254C17.584 49.1156 17.3452 48.5865 17.2645 48.5452C17.2645 48.5452 17.0652 48.1381 16.9467 47.7722C16.8694 47.3256 16.5911 46.6745 16.4314 46.3893C16.2321 45.9822 16.1548 45.5356 16.1565 45.3329C16.2802 45.0906 16.1617 44.7247 16.0827 44.4808C15.9229 44.1956 15.8439 43.9517 15.8851 43.871C15.9264 43.7902 15.9298 43.3848 15.8113 43.0189C15.7735 42.6943 15.7804 41.8834 15.7443 41.3561C15.7495 40.7479 15.6327 40.1793 15.5124 40.0161C15.3922 39.8529 15.4334 39.7722 15.9213 39.6142C16.2065 39.4544 16.4916 39.2947 16.6153 39.0525C16.6978 38.891 16.9434 38.6093 17.1874 38.5302C17.4725 38.3705 17.5138 38.2897 17.4347 38.0458C17.2767 37.5579 17.3179 37.4772 17.9278 37.2797C18.6183 37.1234 19.7195 36.3624 19.9256 35.9587C20.0081 35.7972 20.1713 35.677 20.374 35.6787C20.5767 35.6804 21.0663 35.3197 21.3119 35.0379C21.3532 34.9572 21.4751 34.9177 21.6383 34.7974C21.7603 34.7579 22.0042 34.6789 22.0455 34.5982C22.1279 34.4367 22.3719 34.3577 22.6158 34.2787C22.9405 34.2409 23.1844 34.1619 23.1037 34.1206C23.1449 34.0399 23.4301 33.8802 23.7565 33.6397C24.4075 33.3614 24.4487 33.2806 24.3302 32.9147C24.2512 32.6708 24.2942 32.3874 24.3749 32.4286C24.4969 32.3891 24.5776 32.4303 24.5759 32.633C24.6154 32.755 24.6549 32.877 24.8164 32.9594C25.0586 33.0831 25.464 33.0865 25.6289 32.7636C25.7114 32.6021 25.9158 32.4011 26.1185 32.4029C26.8486 32.3685 31.0762 31.0665 31.1587 30.905C31.1999 30.8242 31.4026 30.826 31.5641 30.9084C31.7256 30.9909 31.9283 30.9926 32.0107 30.8311C32.0932 30.6697 32.2151 30.6301 32.4178 30.6319C33.1067 30.6783 35.0547 30.4515 35.1784 30.2093C35.3416 30.0891 35.3416 30.0891 35.4206 30.333C35.4584 30.6577 35.8209 30.9446 36.1438 31.1095C36.2246 31.1507 36.386 31.2332 36.4273 31.1524C36.5905 31.0322 36.6712 31.0734 36.8327 31.1559C36.9134 31.1971 36.9529 31.3191 37.0337 31.3603C37.3566 31.5252 37.561 31.3242 37.5233 30.9996C37.4442 30.7556 37.446 30.5529 37.5267 30.5942C37.6074 30.6354 37.9733 30.5169 38.2997 30.2764C38.8718 29.7542 39.3596 29.5961 39.6019 29.7198C40.167 30.0084 41.385 29.816 41.3884 29.4106C41.4726 29.0465 41.4726 29.0465 41.6324 29.3316C41.6719 29.4536 41.8333 29.536 41.9948 29.6185C42.237 29.7422 42.5205 29.7851 42.6442 29.5429C42.7678 29.3007 42.8486 29.3419 43.2523 29.5481C43.333 29.5893 43.4137 29.6306 43.4945 29.6718C43.656 29.7542 43.7779 29.7147 43.8999 29.6752C43.9824 29.5137 44.2658 29.5567 44.4273 29.6392C44.831 29.8453 46.2499 29.8574 46.3736 29.6151C46.4148 29.5344 46.4955 29.5756 46.5763 29.6169C46.6158 29.7388 46.8992 29.7818 47.1827 29.8247C48.7236 29.7973 50.6287 29.854 50.7901 29.9364C50.9516 30.0189 51.4378 30.0636 52.0459 30.0687C53.2621 30.0791 54.5986 30.2526 55.0023 30.4587C55.083 30.5 55.3665 30.5429 55.4884 30.5034C55.6516 30.3832 56.1378 30.4278 56.4607 30.5928C56.9056 30.7182 57.5533 30.8453 57.9587 30.8487C58.3641 30.8522 58.931 30.9381 59.1732 31.0618C59.4154 31.1855 59.6988 31.2284 59.7813 31.0669C59.9033 31.0274 60.3087 31.0309 60.8343 31.1975C61.2792 31.3229 61.7242 31.4483 61.7654 31.3676C61.8066 31.2869 61.8874 31.3281 61.9681 31.3693C62.0076 31.4913 62.1691 31.5737 62.413 31.4947C62.535 31.4552 62.8992 31.5394 63.1019 31.5411C63.667 31.8297 65.3677 32.0874 65.8951 32.0514C66.139 31.9723 66.4224 32.0153 66.4619 32.1373C66.5015 32.2592 66.7042 32.261 66.9069 32.2627C67.0288 32.2232 67.3123 32.2661 67.4325 32.4293C67.5133 32.4705 67.594 32.5118 67.6352 32.431C67.6765 32.3503 67.8792 32.352 67.9599 32.3932C67.9994 32.5152 68.3636 32.5994 68.647 32.6423C70.5487 33.1045 70.6294 33.1457 70.7943 32.8228C70.918 32.5805 70.9987 32.6218 71.1585 32.9069C71.2787 33.0701 71.3595 33.1114 71.4402 33.1526C71.521 33.1938 71.6824 33.2763 71.8044 33.2368C72.0878 33.2797 72.3713 33.3227 72.5328 33.4051C72.7338 33.6096 72.9365 33.6113 72.9777 33.5305C73.0584 33.5718 73.5446 33.6164 74.029 33.8638C74.5547 34.0305 74.9996 34.1559 75.1628 34.0356C75.2847 33.9961 75.7297 34.1215 76.1333 34.3277C76.6178 34.575 76.9012 34.618 77.1056 34.417C77.2276 34.3775 77.4715 34.2985 77.5918 34.4617C77.7533 34.5441 77.9542 34.7486 78.1552 34.953C78.3562 35.1574 78.4369 35.1986 78.5606 34.9564C78.6431 34.795 78.7651 34.7555 78.966 34.9599C79.4505 35.2073 80.8247 35.7054 81.3126 35.5474C81.4346 35.5079 81.596 35.5904 81.7575 35.6728C81.9997 35.7965 82.242 35.9202 82.4842 36.0439C82.8483 36.1281 83.374 36.2947 83.6969 36.4596C84.0611 36.5438 84.6675 36.7517 84.9905 36.9166C85.4354 37.042 85.9215 37.0867 86.0435 37.0472C86.2067 36.9269 86.3682 37.0094 86.4884 37.1726C86.7306 37.2963 86.9728 37.42 87.2151 37.5436C87.3765 37.6261 87.538 37.7086 87.6995 37.791C87.861 37.8735 88.1032 37.9972 88.3471 37.9182C88.4691 37.8786 88.7525 37.9216 88.8728 38.0848C89.0738 38.2892 89.2765 38.2909 89.3177 38.2102C89.4397 38.1707 89.9653 38.3373 90.5305 38.6259C91.0956 38.9145 91.5801 39.1619 91.702 39.1224C91.824 39.0829 92.2689 39.2083 92.7533 39.4557C93.2378 39.7031 93.6827 39.8285 93.7651 39.667C93.8871 39.6275 94.0091 39.588 94.0898 39.6292C94.2513 39.7117 94.3715 39.8749 94.5725 40.0793C94.6928 40.2425 94.813 40.4057 94.8542 40.3249C94.9367 40.1635 97.2386 41.2372 99.1763 42.2267C100.549 42.9276 101.719 43.6268 101.839 43.7899C101.92 43.8312 101.92 43.8312 101.841 43.5872C101.842 43.3845 101.641 43.1801 101.561 43.1389C101.439 43.1784 101.318 43.0152 101.198 42.852C101.2 42.6493 101.04 42.3641 100.717 42.1992C100.516 41.9948 100.396 41.8316 100.518 41.7921C100.64 41.7526 100.843 41.7543 100.963 41.9175C101.245 42.1631 102.657 42.986 103.948 43.6457C104.837 44.0992 105.766 44.472 105.927 44.5545C106.13 44.5562 106.211 44.5974 106.292 44.6386C106.453 44.7211 106.493 44.8431 106.532 44.965C106.611 45.209 106.731 45.3722 106.893 45.4546C106.893 45.4546 107.015 45.4151 107.056 45.3344C107.138 45.1729 107.219 45.2141 107.339 45.3773C107.499 45.6625 108.951 46.6073 110.887 47.7995C111.814 48.375 112.541 48.7461 113.347 49.3611C113.548 49.5655 114.233 50.0173 114.838 50.4279C115.442 50.8385 116.248 51.4535 116.691 51.7816C117.134 52.1097 117.538 52.3158 117.619 52.3571C117.741 52.3176 117.861 52.4808 117.901 52.6027C118.021 52.7659 118.303 53.0116 118.665 53.2985C118.947 53.5441 119.632 53.9959 120.034 54.4048C120.477 54.7329 120.84 55.0198 120.92 55.061C120.92 55.061 120.96 55.183 121.041 55.2242C121.041 55.2242 121.242 55.4286 121.484 55.5523C122.169 56.0041 122.733 56.4954 123.013 56.9438C123.214 57.1482 123.415 57.3526 123.537 57.3131C123.617 57.3544 123.779 57.4368 123.818 57.5588C123.939 57.722 124.179 58.0484 124.583 58.2545C124.987 58.4607 125.349 58.7476 125.389 58.8695C125.469 58.9108 126.031 59.6048 126.754 60.3812C127.438 61.0358 128.362 62.0167 128.764 62.4255C129.125 62.9151 129.487 63.202 129.649 63.2844C129.729 63.3257 129.97 63.6521 130.21 63.9785C130.492 64.2241 130.733 64.5505 130.813 64.5917C130.813 64.5917 131.095 64.8374 131.296 65.0418C131.578 65.2875 131.899 65.6551 131.978 65.899C132.057 66.143 132.177 66.3062 132.258 66.3474C132.38 66.3079 132.62 66.6343 132.9 67.0826C133.222 67.4503 133.624 67.8591 133.785 67.9416C133.866 67.9828 134.146 68.4312 134.386 68.7576C134.586 69.1647 134.946 69.6543 135.189 69.778C135.431 69.9017 135.711 70.35 135.829 70.7159C136.029 71.123 136.228 71.5302 136.389 71.6126C136.47 71.6539 136.711 71.9803 136.748 72.3049C136.827 72.5489 136.908 72.5901 136.989 72.6313C137.07 72.6726 137.15 72.7138 137.192 72.633C137.314 72.5935 137.353 72.7155 137.391 73.0402C137.429 73.3648 137.427 73.5676 137.549 73.528C137.63 73.5693 137.75 73.7325 137.789 73.8544C137.868 74.0984 137.989 74.2616 138.069 74.3028C138.15 74.344 138.19 74.466 138.31 74.6292C138.827 75.8094 139.026 76.2165 139.109 76.055Z" fill="black"/>
</svg>
