<svg width="64" height="23" viewBox="0 0 64 23" fill="none" xmlns="http://www.w3.org/2000/svg">
<g clip-path="url(#clip0_1016_162)">
<path d="M38.1589 21.7646C38.2586 22.1301 38.4579 22.2298 38.757 22.0637C39.0892 21.8975 39.2553 21.4656 39.2553 20.7679C39.3882 20.2695 39.1889 19.8542 38.6573 19.5219C38.1257 19.1565 37.0625 18.7411 35.4677 18.276C33.8064 17.8108 32.6269 17.5284 31.9292 17.4287C31.2314 17.3291 30.866 17.4287 30.8327 17.7278C30.7663 17.9603 30.5171 17.977 30.0852 17.7776C29.6865 17.6115 29.4539 17.6945 29.3874 18.0268C29.3542 18.2594 29.321 18.3757 29.2878 18.3757C29.2878 18.3757 29.2213 18.2428 29.0884 17.977C29.022 17.8108 28.9721 17.6779 28.9389 17.5782C28.9057 17.4453 28.9389 17.3457 29.0386 17.2792C29.2047 17.0799 28.9057 16.8307 28.1415 16.5317C27.4105 16.2326 26.148 15.8173 24.3538 15.2857C22.028 14.6544 20.8485 14.4551 20.8153 14.6876C20.8153 14.7541 20.7821 14.7873 20.7156 14.7873C20.6824 14.7873 20.6326 14.7043 20.5661 14.5381C20.4332 14.3388 20.3335 14.2391 20.2671 14.2391C20.2339 14.2391 20.1342 14.3222 19.9681 14.4883C19.8019 14.8538 19.669 14.8372 19.5694 14.4385C19.5029 14.3056 19.2039 14.1228 18.6723 13.8902C18.1407 13.6244 17.4928 13.342 16.7286 13.043C15.9976 12.8436 15.3664 12.6277 14.8347 12.3951C14.3364 12.1625 14.0872 12.013 14.0872 11.9466C14.0872 11.8801 14.2865 11.7804 14.6852 11.6475C15.0839 11.4814 15.7318 11.2488 16.6289 10.9498C17.526 10.6508 18.7221 10.2853 20.2172 9.85337C21.7124 9.38821 23.573 8.82338 25.7991 8.15888C27.0617 7.76017 27.8923 7.46115 28.291 7.26179C28.7229 7.02922 28.9555 6.81325 28.9887 6.6139C28.9887 6.44778 28.9887 6.3481 28.9887 6.31487C29.022 6.24842 29.0718 6.29826 29.1382 6.46439C29.2711 6.69696 29.5203 6.84648 29.8858 6.91293C30.2513 6.97938 30.5503 6.91293 30.7829 6.71358C30.949 6.64713 31.3477 6.51423 31.979 6.31487C32.6103 6.0823 33.3412 5.84972 34.1719 5.61714C34.9693 5.35134 35.7002 5.11876 36.3647 4.91941C37.0625 4.68683 37.4446 4.53732 37.511 4.47087C37.7768 4.37119 38.0426 4.28813 38.3084 4.22168C38.6074 4.122 38.8899 4.03894 39.1557 3.97249C39.8202 3.80636 40.3186 3.60701 40.6508 3.37444C41.0163 3.14186 41.199 2.84283 41.199 2.47735C41.199 2.24478 41.1492 2.0122 41.0495 1.77962C40.9498 1.51382 40.8335 1.33108 40.7006 1.2314C40.5677 1.0985 40.3518 1.03205 40.0527 1.03205C39.7537 1.03205 39.3384 1.11511 38.8068 1.28124C38.3084 1.44737 37.6273 1.67994 36.7634 1.97897C35.9993 2.24477 35.2185 2.49396 34.4211 2.72654C33.6237 2.95912 32.8429 3.20831 32.0787 3.47411C31.5471 3.64024 30.866 3.8562 30.0353 4.122C29.2379 4.38781 28.507 4.60377 27.8425 4.7699C26.2809 5.20183 24.8023 5.63375 23.4069 6.06568C22.0114 6.46439 20.7821 6.84648 19.7189 7.21196C18.6557 7.54421 17.7752 7.82662 17.0775 8.0592C16.4129 8.29178 15.9976 8.4579 15.8315 8.55758C15.6654 8.72371 15.466 8.80677 15.2335 8.80677L13.4891 9.35499C11.6617 10.0527 10.748 10.9166 10.748 11.9466C10.748 12.4782 11.0138 12.9932 11.5454 13.4915C11.7448 13.6577 11.9441 13.8072 12.1435 13.9401C12.3429 14.073 12.6087 14.2225 12.9409 14.3886C13.3064 14.5215 13.7715 14.6876 14.3364 14.887C14.9012 15.0531 15.6155 15.2857 16.4794 15.5847C16.8117 15.7841 17.1771 15.9502 17.5758 16.0831C17.9745 16.1828 18.257 16.2825 18.4231 16.3821C18.6889 16.5483 18.9879 16.3821 19.3202 15.8838C19.5527 15.2193 19.6358 15.1196 19.5694 15.5847C19.5694 15.8505 19.6358 16.0831 19.7687 16.2825C19.9348 16.4486 20.2006 16.6147 20.5661 16.7808C20.9648 16.947 21.4964 17.1297 22.1609 17.3291C22.8254 17.5284 23.7059 17.7776 24.8023 18.0766C25.9652 18.4089 27.045 18.7079 28.0418 18.9737C29.0386 19.2063 29.62 19.3724 29.7861 19.4721C30.0852 19.6382 30.6168 19.8376 31.3809 20.0701C32.1451 20.3027 32.9259 20.5353 33.7233 20.7679C34.554 20.9672 35.3181 21.1334 36.0159 21.2663C36.7136 21.3992 37.1455 21.4656 37.3117 21.4656C37.5442 21.3992 37.727 21.3825 37.8599 21.4158C37.9928 21.449 38.0925 21.5653 38.1589 21.7646ZM39.1557 20.6184C39.1224 20.8177 38.9065 20.9506 38.5078 21.0171C38.1091 21.0835 37.7768 21.0005 37.511 20.7679C37.3781 20.5021 37.4113 20.2861 37.6107 20.12C37.81 19.9539 38.0925 19.904 38.4579 19.9705C38.6573 19.9705 38.8068 20.0369 38.9065 20.1698C39.0726 20.2695 39.1557 20.419 39.1557 20.6184ZM34.2715 19.0236C34.4377 19.1232 34.4875 19.1897 34.4211 19.2229C34.3546 19.2229 34.2051 19.2063 33.9725 19.1731C33.8064 19.1398 33.6735 19.1232 33.5738 19.1232C33.5074 19.09 33.5074 19.0402 33.5738 18.9737C33.7732 18.8076 34.0057 18.8242 34.2715 19.0236Z" fill="#780000"/>
<path d="M65.7777 13.8558C65.7777 15.3177 65.7777 16.4308 65.7777 17.195C65.7777 17.9591 65.8109 18.5074 65.8774 18.8396C65.9438 19.1719 66.0601 19.3546 66.2262 19.3878C66.3923 19.4543 66.6249 19.5041 66.9239 19.5373L68.0702 19.5373L68.2197 16.8461C68.253 14.6532 68.2696 12.8092 68.2696 11.3141C68.3028 9.78572 68.3028 8.55638 68.2696 7.62607C68.2363 6.66254 68.1865 5.9482 68.1201 5.48304C68.0536 5.01789 67.9373 4.73547 67.7712 4.6358C67.5386 4.33677 67.4223 4.15403 67.4223 4.08758C67.4223 3.9879 67.4556 3.87161 67.522 3.73871C67.5885 3.60581 67.6715 3.43969 67.7712 3.24033C68.037 2.77518 68.1699 2.4097 68.1699 2.1439C68.1699 1.61229 67.7047 1.34649 66.7744 1.34649L65.678 1.34649L65.678 3.09082C65.678 3.55597 65.6946 3.97129 65.7278 4.33677C65.7943 4.66902 65.9106 4.86837 66.0767 4.93482C66.2428 5.00127 66.3259 5.05111 66.3259 5.08434C66.3259 5.08434 66.2428 5.08434 66.0767 5.08434C65.8109 5.08434 65.678 5.59933 65.678 6.62931C65.678 7.06124 65.6448 7.44333 65.5783 7.77559C65.5119 8.07461 65.4454 8.22413 65.379 8.22413C65.1796 8.22413 65.0799 8.39025 65.0799 8.72251C65.0799 9.02154 64.9637 9.20427 64.7311 9.27072C64.5317 9.30395 64.3822 9.17105 64.2825 8.87202C64.2161 8.77235 64.05 8.70589 63.7842 8.67267C63.5516 8.60622 63.1197 8.60622 62.4884 8.67267C61.8571 8.70589 60.96 8.78896 59.7971 8.92186C58.6675 9.05476 57.1723 9.2375 55.3117 9.47008C53.9495 9.60298 52.7201 9.71927 51.6237 9.81894C50.5273 9.91862 49.381 10.0017 48.1849 10.0681C47.022 10.1346 45.7262 10.201 44.2975 10.2675C42.9021 10.3339 41.2076 10.4004 39.2141 10.4668C36.988 10.5333 35.3101 10.5831 34.1804 10.6163C33.0508 10.6496 32.2534 10.6994 31.7882 10.7659C31.2898 10.8323 31.024 10.932 30.9908 11.0649C30.9576 11.1646 30.9243 11.3307 30.8911 11.5633C30.8911 12.0284 30.9908 12.4604 31.1901 12.8591C31.2898 13.0252 31.6553 13.1415 32.2866 13.2079C32.9511 13.2411 33.6488 13.2245 34.3798 13.1581C35.144 13.0916 35.8583 12.992 36.5228 12.8591C37.2205 12.6929 37.6525 12.5102 37.8186 12.3108C38.0512 12.0118 38.1675 11.8623 38.1675 11.8623C38.2007 11.8623 38.1841 12.0118 38.1176 12.3108C38.0512 12.4437 38.0346 12.56 38.0678 12.6597C38.101 12.7262 38.2837 12.776 38.616 12.8092C38.9815 12.8424 39.5131 12.8591 40.2108 12.8591C40.9418 12.8258 41.9551 12.776 43.2509 12.7095C44.0151 12.6763 44.7959 12.6431 45.5933 12.6099C46.4239 12.5434 47.2213 12.4936 47.9855 12.4604C48.7497 12.3939 49.4641 12.3441 50.1286 12.3108C50.8263 12.2444 51.4077 12.1946 51.8729 12.1613C52.3048 12.1281 52.7866 12.0949 53.3182 12.0616C53.883 11.9952 54.4479 11.9287 55.0127 11.8623C55.5775 11.7958 56.1091 11.746 56.6075 11.7128C57.1391 11.6463 57.6043 11.5965 58.003 11.5633C58.6342 11.4968 59.2489 11.4304 59.847 11.3639C60.445 11.2975 61.0597 11.1812 61.691 11.0151C62.5548 10.8157 63.3688 10.7326 64.133 10.7659L65.7777 10.7659L65.7777 13.8558Z" fill="#780000"/>
</g>
<defs>
<clipPath id="clip0_1016_162">
<rect width="22.4271" height="62.2974" fill="white" transform="matrix(4.37114e-08 -1 -1 -4.37114e-08 63.1646 22.5122)"/>
</clipPath>
</defs>
</svg>
