<svg fill="none" height="23" viewBox="0 0 64 23" width="64" xmlns="http://www.w3.org/2000/svg">
  <g clip-path="url(#clip0_1016_159)">
    <path
      d="M25.8343 21.758C25.7346 22.1235 25.5353 22.2232 25.2362 22.0571C24.904 21.8909 24.7378 21.459 24.7378 20.7613C24.6049 20.2629 24.8043 19.8476 25.3359 19.5153C25.8675 19.1499 26.9307 18.7345 28.5255 18.2694C30.1868 17.8042 31.3663 17.5218 32.064 17.4221C32.7618 17.3225 33.1272 17.4221 33.1605 17.7212C33.2269 17.9537 33.4761 17.9704 33.908 17.771C34.3067 17.6049 34.5393 17.6879 34.6058 18.0202C34.639 18.2528 34.6722 18.3691 34.7054 18.3691C34.7054 18.3691 34.7719 18.2362 34.9048 17.9704C34.9712 17.8042 35.0211 17.6713 35.0543 17.5717C35.0875 17.4388 35.0543 17.3391 34.9546 17.2726C34.7885 17.0733 35.0875 16.8241 35.8517 16.5251C36.5827 16.226 37.8452 15.8107 39.6394 15.2791C41.9652 14.6478 43.1447 14.4485 43.1779 14.6811C43.1779 14.7475 43.2111 14.7807 43.2776 14.7807C43.3108 14.7807 43.3606 14.6977 43.4271 14.5315C43.56 14.3322 43.6597 14.2325 43.7261 14.2325C43.7593 14.2325 43.859 14.3156 44.0251 14.4817C44.1913 14.8472 44.3242 14.8306 44.4238 14.4319C44.4903 14.299 44.7893 14.1162 45.3209 13.8836C45.8525 13.6178 46.5004 13.3354 47.2646 13.0364C47.9956 12.8371 48.6268 12.6211 49.1584 12.3885C49.6568 12.1559 49.906 12.0064 49.906 11.94C49.906 11.8735 49.7067 11.7738 49.308 11.6409C48.9092 11.4748 48.2614 11.2422 47.3643 10.9432C46.4672 10.6442 45.2711 10.2787 43.7759 9.84678C42.2808 9.38162 40.4202 8.81679 38.1941 8.15229C36.9315 7.75358 36.1009 7.45455 35.7022 7.2552C35.2703 7.02263 35.0377 6.80666 35.0045 6.60731C35.0045 6.44118 35.0045 6.34151 35.0045 6.30828C34.9712 6.24183 34.9214 6.29167 34.8549 6.45779C34.722 6.69037 34.4729 6.83989 34.1074 6.90634C33.7419 6.97279 33.4429 6.90634 33.2103 6.70699C33.0442 6.64054 32.6455 6.50763 32.0142 6.30828C31.3829 6.0757 30.6519 5.84313 29.8213 5.61055C29.0239 5.34475 28.293 5.11217 27.6284 4.91282C26.9307 4.68024 26.5486 4.53073 26.4822 4.46428C26.2164 4.3646 25.9506 4.28154 25.6848 4.21509C25.3857 4.11541 25.1033 4.03235 24.8375 3.9659C24.173 3.79977 23.6746 3.60042 23.3424 3.36784C22.9769 3.13527 22.7942 2.83624 22.7942 2.47076C22.7942 2.23818 22.844 2.00561 22.9437 1.77303C23.0434 1.50723 23.1596 1.32449 23.2925 1.22481C23.4254 1.09191 23.6414 1.02546 23.9404 1.02546C24.2395 1.02546 24.6548 1.10852 25.1864 1.27465C25.6848 1.44078 26.3659 1.67335 27.2297 1.97238C27.9939 2.23818 28.7747 2.48737 29.5721 2.71995C30.3695 2.95253 31.1503 3.20172 31.9145 3.46752C32.4461 3.63365 33.1272 3.84961 33.9579 4.11541C34.7553 4.38121 35.4862 4.59718 36.1507 4.76331C37.7123 5.19523 39.1909 5.62716 40.5863 6.05909C41.9818 6.4578 43.2111 6.83989 44.2743 7.20536C45.3375 7.53762 46.218 7.82003 46.9157 8.05261C47.5802 8.28519 47.9956 8.45131 48.1617 8.55099C48.3278 8.71712 48.5272 8.80018 48.7597 8.80018L50.5041 9.3484C52.3315 10.0461 53.2452 10.91 53.2452 11.94C53.2452 12.4716 52.9793 12.9866 52.4477 13.4849C52.2484 13.6511 52.049 13.8006 51.8497 13.9335C51.6503 14.0664 51.3845 14.2159 51.0523 14.382C50.6868 14.5149 50.2216 14.6811 49.6568 14.8804C49.092 15.0465 48.3776 15.2791 47.5138 15.5781C47.1815 15.7775 46.8161 15.9436 46.4174 16.0765C46.0186 16.1762 45.7362 16.2759 45.5701 16.3755C45.3043 16.5417 45.0053 16.3755 44.673 15.8772C44.4404 15.2127 44.3574 15.113 44.4238 15.5781C44.4238 15.8439 44.3574 16.0765 44.2245 16.2759C44.0584 16.442 43.7926 16.6081 43.4271 16.7743C43.0284 16.9404 42.4968 17.1231 41.8323 17.3225C41.1678 17.5218 40.2873 17.771 39.1909 18.07C38.028 18.4023 36.9481 18.7013 35.9514 18.9671C34.9546 19.1997 34.3732 19.3658 34.2071 19.4655C33.908 19.6316 33.3764 19.831 32.6122 20.0636C31.8481 20.2961 31.0673 20.5287 30.2699 20.7613C29.4392 20.9606 28.675 21.1268 27.9773 21.2597C27.2796 21.3926 26.8477 21.459 26.6815 21.459C26.4489 21.3926 26.2662 21.376 26.1333 21.4092C26.0004 21.4424 25.9007 21.5587 25.8343 21.758ZM24.8375 20.6118C24.8707 20.8111 25.0867 20.944 25.4854 21.0105C25.8841 21.0769 26.2164 20.9939 26.4822 20.7613C26.6151 20.4955 26.5819 20.2795 26.3825 20.1134C26.1831 19.9473 25.9007 19.8974 25.5353 19.9639C25.3359 19.9639 25.1864 20.0303 25.0867 20.1632C24.9206 20.2629 24.8375 20.4124 24.8375 20.6118ZM29.7216 19.017C29.5555 19.1166 29.5057 19.1831 29.5721 19.2163C29.6386 19.2163 29.7881 19.1997 30.0207 19.1665C30.1868 19.1332 30.3197 19.1166 30.4194 19.1166C30.4858 19.0834 30.4858 19.0336 30.4194 18.9671C30.22 18.801 29.9874 18.8176 29.7216 19.017Z"
      fill="#780000"></path>
    <path
      d="M-1.7845 13.8492C-1.7845 15.3111 -1.7845 16.4242 -1.7845 17.1884C-1.7845 17.9525 -1.81773 18.5008 -1.88418 18.833C-1.95063 19.1653 -2.06692 19.348 -2.23304 19.3812C-2.39917 19.4477 -2.63175 19.4975 -2.93078 19.5308L-4.07705 19.5308L-4.22656 16.8395C-4.25979 14.6466 -4.2764 12.8026 -4.2764 11.3075C-4.30963 9.77913 -4.30963 8.54979 -4.2764 7.61948C-4.24318 6.65595 -4.19334 5.9416 -4.12689 5.47645C-4.06044 5.0113 -3.94415 4.72888 -3.77802 4.6292C-3.54544 4.33018 -3.42916 4.14744 -3.42916 4.08099C-3.42916 3.98131 -3.46238 3.86502 -3.52883 3.73212C-3.59528 3.59922 -3.67835 3.43309 -3.77802 3.23374C-4.04383 2.76859 -4.17673 2.40311 -4.17673 2.13731C-4.17673 1.6057 -3.71157 1.3399 -2.78126 1.3399L-1.68483 1.3399L-1.68483 3.08423C-1.68483 3.54938 -1.70144 3.9647 -1.73467 4.33018C-1.80112 4.66243 -1.91741 4.86178 -2.08353 4.92823C-2.24966 4.99468 -2.33272 5.04452 -2.33272 5.07775C-2.33272 5.07775 -2.24966 5.07775 -2.08353 5.07775C-1.81773 5.07775 -1.68483 5.59274 -1.68483 6.62272C-1.68483 7.05465 -1.6516 7.43674 -1.58515 7.76899C-1.5187 8.06802 -1.45225 8.21754 -1.3858 8.21754C-1.18645 8.21754 -1.08677 8.38366 -1.08677 8.71592C-1.08677 9.01494 -0.970484 9.19768 -0.737908 9.26413C-0.538555 9.29736 -0.389041 9.16446 -0.289367 8.86543C-0.222915 8.76575 -0.0567887 8.6993 0.209012 8.66608C0.44159 8.59963 0.873519 8.59963 1.5048 8.66608C2.13608 8.6993 3.03316 8.78237 4.19605 8.91527C5.32571 9.04817 6.82085 9.23091 8.68146 9.46348C10.0437 9.59639 11.273 9.71267 12.3695 9.81235C13.4659 9.91203 14.6122 9.99509 15.8083 10.0615C16.9712 10.128 18.267 10.1944 19.6957 10.2609C21.0911 10.3273 22.7856 10.3938 24.7791 10.4602C27.0052 10.5267 28.6831 10.5765 29.8128 10.6098C30.9424 10.643 31.7398 10.6928 32.205 10.7593C32.7034 10.8257 32.9692 10.9254 33.0024 11.0583C33.0356 11.158 33.0688 11.3241 33.1021 11.5567C33.1021 12.0218 33.0024 12.4538 32.803 12.8525C32.7034 13.0186 32.3379 13.1349 31.7066 13.2013C31.0421 13.2346 30.3444 13.2179 29.6134 13.1515C28.8492 13.085 28.1349 12.9854 27.4704 12.8525C26.7726 12.6863 26.3407 12.5036 26.1746 12.3042C25.942 12.0052 25.8257 11.8557 25.8257 11.8557C25.7925 11.8557 25.8091 12.0052 25.8756 12.3042C25.942 12.4371 25.9586 12.5534 25.9254 12.6531C25.8922 12.7196 25.7094 12.7694 25.3772 12.8026C25.0117 12.8359 24.4801 12.8525 23.7824 12.8525C23.0514 12.8192 22.038 12.7694 20.7422 12.703C19.9781 12.6697 19.1973 12.6365 18.3999 12.6033C17.5692 12.5368 16.7718 12.487 16.0076 12.4538C15.2435 12.3873 14.5291 12.3375 13.8646 12.3042C13.1669 12.2378 12.5854 12.188 12.1203 12.1547C11.6884 12.1215 11.2066 12.0883 10.675 12.0551C10.1102 11.9886 9.54532 11.9222 8.98049 11.8557C8.41566 11.7893 7.88406 11.7394 7.38568 11.7062C6.85407 11.6397 6.38892 11.5899 5.99021 11.5567C5.35893 11.4902 4.74427 11.4238 4.14621 11.3573C3.54816 11.2909 2.93349 11.1746 2.30221 11.0085C1.43835 10.8091 0.62433 10.726 -0.139852 10.7593L-1.7845 10.7593L-1.7845 13.8492Z"
      fill="#780000"></path>
  </g>
  <defs>
    <clipPath id="clip0_1016_159">
      <rect fill="white" height="62.2974" transform="translate(0.828552 22.5056) rotate(-90)"
        width="22.4271"></rect>
    </clipPath>
  </defs>
</svg>
