<svg fill="none" height="123" viewBox="0 0 44 123" width="44" xmlns="http://www.w3.org/2000/svg">
  <g clip-path="url(#clip0_800_3247)">
    <path
      d="M1.46647 48.6179C0.749527 48.4224 0.553999 48.0313 0.87988 47.4447C1.20576 46.793 2.05305 46.4671 3.42176 46.4671C4.3994 46.2064 5.2141 46.5974 5.86587 47.6403C6.58281 48.6831 7.39751 50.7687 8.30998 53.8972C9.22245 57.156 9.77644 59.4698 9.97197 60.8385C10.1675 62.2072 9.97197 62.9241 9.38539 62.9893C8.92915 63.1196 8.89656 63.6085 9.28762 64.4557C9.6135 65.2379 9.45056 65.6941 8.7988 65.8245C8.34257 65.8896 8.11445 65.9548 8.11445 66.02C8.11445 66.02 8.37515 66.1503 8.89656 66.411C9.22245 66.5414 9.48315 66.6392 9.67868 66.7043C9.93939 66.7695 10.1349 66.7043 10.2653 66.5088C10.6563 66.1829 11.1451 66.7695 11.7317 68.2686C12.3183 69.7024 13.133 72.1791 14.1758 75.6987C15.4142 80.261 15.8053 82.5748 15.349 82.6399C15.2187 82.6399 15.1535 82.7051 15.1535 82.8355C15.1535 82.9006 15.3164 82.9984 15.6423 83.1288C16.0334 83.3895 16.2289 83.585 16.2289 83.7153C16.2289 83.7805 16.066 83.976 15.7401 84.3019C15.0231 84.6278 15.0557 84.8885 15.8378 85.084C16.0985 85.2144 16.457 85.801 16.9132 86.8438C17.4347 87.8866 17.9887 89.1576 18.5752 90.6566C18.9663 92.0905 19.3899 93.3288 19.8462 94.3717C20.3024 95.3493 20.5957 95.8381 20.7261 95.8381C20.8564 95.8381 21.0519 95.4471 21.3126 94.665C21.6385 93.8828 22.0948 92.6119 22.6814 90.8521C23.2679 89.0924 23.9849 86.746 24.8322 83.8131C25.7446 80.8802 26.8526 77.2303 28.1562 72.8635C28.9383 70.3868 29.5249 68.7574 29.9159 67.9753C30.3722 67.128 30.7958 66.6717 31.1869 66.6066C31.5127 66.6066 31.7083 66.6066 31.7734 66.6066C31.9038 66.5414 31.806 66.4436 31.4802 66.3133C31.0239 66.0526 30.7306 65.5637 30.6003 64.8468C30.4699 64.1299 30.6003 63.5433 30.9913 63.087C31.1217 62.7612 31.3824 61.979 31.7734 60.7407C32.2297 59.5023 32.6859 58.0685 33.1421 56.4391C33.6636 54.8748 34.1198 53.441 34.5108 52.1374C34.9671 50.7687 35.2604 50.0192 35.3907 49.8888C35.5863 49.3674 35.7492 48.846 35.8796 48.3246C36.0751 47.738 36.238 47.184 36.3684 46.6626C36.6943 45.3591 37.0853 44.3814 37.5415 43.7297C37.9978 43.0127 38.5844 42.6543 39.3013 42.6543C39.7575 42.6543 40.2138 42.752 40.67 42.9476C41.1914 43.1431 41.5499 43.3712 41.7454 43.6319C42.0061 43.8926 42.1365 44.3163 42.1365 44.9029C42.1365 45.4894 41.9735 46.3041 41.6477 47.347C41.3218 48.3246 40.8655 49.6607 40.279 51.3553C39.7575 52.8544 39.2687 54.386 38.8125 55.9502C38.3563 57.5145 37.8674 59.0461 37.346 60.5452C37.0201 61.588 36.5965 62.9241 36.0751 64.5535C35.5537 66.1177 35.13 67.5516 34.8041 68.8551C33.9569 71.9184 33.1096 74.8188 32.2623 77.5562C31.4802 80.2936 30.7306 82.7051 30.0137 84.7908C29.3619 86.8764 28.8079 88.6036 28.3517 89.9723C27.8955 91.2758 27.5696 92.0905 27.374 92.4164C27.0482 92.7423 26.8852 93.1333 26.8852 93.5896L25.8098 97.0113C24.4411 100.596 22.7465 102.388 20.7261 102.388C19.6832 102.388 18.673 101.867 17.6954 100.824C17.3695 100.433 17.0762 100.042 16.8155 99.6509C16.5548 99.2599 16.2615 98.7385 15.9356 98.0867C15.6749 97.3698 15.349 96.4573 14.958 95.3493C14.6321 94.2413 14.1758 92.84 13.5893 91.1454C13.1982 90.4937 12.8723 89.7767 12.6116 88.9946C12.4161 88.2125 12.2206 87.6585 12.025 87.3326C11.6991 86.8112 12.025 86.2246 13.0027 85.5729C14.3062 85.1166 14.5017 84.9537 13.5893 85.084C13.0678 85.084 12.6116 84.9537 12.2206 84.693C11.8947 84.3671 11.5688 83.8457 11.2429 83.1288C10.917 82.3466 10.5586 81.3038 10.1675 80.0003C9.77644 78.6968 9.28762 76.9696 8.70104 74.8188C8.04927 72.5376 7.46269 70.4194 6.94128 68.4641C6.48504 66.5088 6.15916 65.3682 5.96363 65.0423C5.63775 64.4557 5.24669 63.4129 4.79046 61.9139C4.33422 60.4148 3.87799 58.8832 3.42176 57.3189C3.0307 55.6895 2.70482 54.1905 2.44411 52.8218C2.18341 51.4531 2.05305 50.6058 2.05305 50.2799C2.18341 49.8237 2.21599 49.4652 2.15082 49.2045C2.08564 48.9438 1.85752 48.7483 1.46647 48.6179ZM3.71505 46.6626C3.32399 46.7278 3.06329 47.1514 2.93293 47.9336C2.80258 48.7157 2.96552 49.3674 3.42176 49.8888C3.94317 50.1496 4.36681 50.0844 4.69269 49.6933C5.01857 49.3023 5.11634 48.7483 4.98599 48.0313C4.98599 47.6403 4.85563 47.347 4.59493 47.1514C4.3994 46.8256 4.10611 46.6626 3.71505 46.6626ZM6.84351 56.2435C6.64798 55.9177 6.51763 55.8199 6.45245 55.9502C6.45245 56.0806 6.48504 56.3739 6.55022 56.8301C6.61539 57.156 6.64798 57.4167 6.64798 57.6122C6.71316 57.7426 6.81092 57.7426 6.94128 57.6122C7.26716 57.2212 7.23457 56.7649 6.84351 56.2435Z"
      fill="#780000"></path>
    <path
      d="M16.9764 -5.54373C14.1087 -5.54373 11.9253 -5.54373 10.4262 -5.54373C8.92715 -5.54373 7.85174 -5.60891 7.19998 -5.73927C6.54821 -5.86962 6.18974 -6.09773 6.12457 -6.42361C5.99421 -6.7495 5.89645 -7.20573 5.83127 -7.79232V-10.0409L11.1106 -10.3342C15.4122 -10.3994 19.0295 -10.432 21.9624 -10.432C24.9605 -10.4971 27.372 -10.4971 29.197 -10.432C31.0871 -10.3668 32.4884 -10.269 33.4008 -10.1387C34.3133 -10.0083 34.8673 -9.7802 35.0628 -9.45431C35.6494 -8.99808 36.0079 -8.76996 36.1383 -8.76996C36.3338 -8.76996 36.5619 -8.83514 36.8226 -8.96549C37.0833 -9.09584 37.4092 -9.25878 37.8002 -9.45431C38.7127 -9.97573 39.4297 -10.2364 39.9511 -10.2364C40.9939 -10.2364 41.5153 -9.32396 41.5153 -7.49903V-5.34821L38.0935 -5.34821C37.1811 -5.34821 36.3664 -5.3808 35.6494 -5.44597C34.9977 -5.57633 34.6066 -5.80444 34.4763 -6.13032C34.3459 -6.45621 34.2481 -6.61915 34.183 -6.61915C34.183 -6.61915 34.183 -6.45621 34.183 -6.13032C34.183 -5.60891 33.1727 -5.34821 31.1523 -5.34821C30.305 -5.34821 29.5554 -5.28303 28.9037 -5.15268C28.3171 -5.02232 28.0238 -4.89197 28.0238 -4.76162C28.0238 -4.37056 27.6979 -4.17503 27.0462 -4.17503C26.4596 -4.17503 26.1011 -3.94692 25.9708 -3.49068C25.9056 -3.09962 26.1663 -2.80633 26.7529 -2.6108C26.9484 -2.48045 27.0787 -2.15457 27.1439 -1.63316C27.2743 -1.17692 27.2743 -0.329632 27.1439 0.908718C27.0787 2.14707 26.9158 3.90683 26.6551 6.188C26.3944 8.40399 26.0359 11.3369 25.5797 14.9868C25.319 17.659 25.0909 20.0705 24.8953 22.2214C24.6998 24.3722 24.5369 26.6208 24.4065 28.9671C24.2762 31.2483 24.1458 33.7902 24.0155 36.5927C23.8851 39.3301 23.7548 42.6541 23.6244 46.5647C23.4941 50.9315 23.3963 54.2229 23.3311 56.4389C23.2659 58.6549 23.1682 60.2191 23.0378 61.1316C22.9075 62.1093 22.7119 62.6307 22.4512 62.6958C22.2557 62.761 21.9298 62.8262 21.4736 62.8914C20.5611 62.8914 19.7138 62.6958 18.9317 62.3048C18.6058 62.1093 18.3777 61.3923 18.2474 60.154C18.1822 58.8504 18.2148 57.4817 18.3451 56.0479C18.4755 54.5488 18.671 53.1475 18.9317 51.844C19.2576 50.4753 19.6161 49.628 20.0071 49.3021C20.5937 48.8459 20.887 48.6178 20.887 48.6178C20.887 48.5526 20.5937 48.5852 20.0071 48.7155C19.7464 48.8459 19.5183 48.8785 19.3228 48.8133C19.1924 48.7481 19.0947 48.3897 19.0295 47.7379C18.9643 47.0209 18.9317 45.9781 18.9317 44.6094C18.9969 43.1755 19.0947 41.1877 19.225 38.6458C19.2902 37.1467 19.3554 35.6151 19.4205 34.0509C19.5509 32.4215 19.6486 30.8572 19.7138 29.3582C19.8442 27.8591 19.9419 26.4578 20.0071 25.1543C20.1375 23.7856 20.2352 22.645 20.3004 21.7325C20.3656 20.8853 20.4308 19.9402 20.4959 18.8974C20.6263 17.7894 20.7566 16.6814 20.887 15.5734C21.0174 14.4654 21.1151 13.4226 21.1803 12.4449C21.3106 11.4021 21.4084 10.4896 21.4736 9.70751C21.6039 8.46917 21.7343 7.2634 21.8646 6.09023C21.995 4.91706 22.2231 3.7113 22.549 2.47295C22.9401 0.778365 23.103 -0.818453 23.0378 -2.31751V-5.54373H16.9764Z"
      fill="#780000"></path>
  </g>
  <defs>
    <clipPath id="clip0_800_3247">
      <rect fill="white" height="122.206" width="43.994"></rect>
    </clipPath>
  </defs>
</svg>
