<svg width="188" height="26" viewBox="0 0 188 26" fill="none" xmlns="http://www.w3.org/2000/svg">
<path d="M0.895631 13.7627C0.518788 13.493 1.1823 12.872 1.69184 13.0175C1.94449 13.1545 1.94449 13.1545 1.95299 12.8976C1.7131 12.3753 3.02311 11.6471 3.78956 11.801C4.30335 11.8181 4.56025 11.8266 5.08255 11.5867C5.34371 11.4667 5.73331 11.351 5.72905 11.4795C5.98595 11.488 6.8936 11.2609 7.0263 11.1367C7.15475 11.1409 7.6728 11.0295 8.05815 11.0422C8.1866 11.0465 8.3193 10.9223 8.44775 10.9265C8.70465 10.935 8.82885 11.0677 9.07299 11.4616C9.44133 11.9881 9.44133 11.9881 9.45834 11.4743C9.47535 10.9606 9.4796 10.8321 10.2503 10.8576C10.3787 10.8619 10.6399 10.7419 10.7726 10.6177C10.9096 10.3651 11.813 10.2664 12.7121 10.2962C13.3543 10.3174 13.8639 10.4629 13.9881 10.5956C14.3692 10.7368 14.3692 10.7368 14.5104 10.3557C14.6516 9.9746 14.7843 9.8504 15.0412 9.85891C15.2981 9.86741 15.5507 10.0044 15.9276 10.274C16.3002 10.6721 16.4286 10.6764 16.4414 10.291C16.4584 9.77723 16.7195 9.65728 18.1367 9.57561C18.9117 9.47267 24.1994 9.00477 24.5932 8.76063C24.9786 8.77339 25.2397 8.65344 25.3682 8.65769C25.3724 8.52924 25.6293 8.53775 25.882 8.6747C26.1304 8.94011 26.3873 8.94861 26.5242 8.69596C26.5242 8.69596 26.6569 8.57177 26.7854 8.57602C27.0423 8.58452 27.2949 8.72148 27.676 8.86268C28.0571 9.00389 28.314 9.01239 28.451 8.75975C28.7164 8.51135 29.2387 8.27146 29.624 8.28422C32.9807 7.88098 34.3979 7.79931 35.0402 7.82057C35.1686 7.82482 35.2971 7.82907 35.4255 7.83332C35.8109 7.84608 36.1962 7.85884 36.4616 7.61044C36.8555 7.3663 37.4977 7.38756 38.14 7.40882C38.6538 7.42583 39.0391 7.43859 39.0434 7.31014C39.0476 7.18169 39.4372 7.066 39.8226 7.07875C40.2079 7.09151 40.589 7.23272 40.8416 7.36967C41.2185 7.63933 41.4711 7.77628 41.6081 7.52364C41.745 7.27099 42.2631 7.15955 42.7769 7.17656C43.2949 7.06512 43.6803 7.07787 43.8087 7.08213L44.5794 7.10764C44.9648 7.1204 45.3544 7.0047 45.3544 7.0047C45.3586 6.87625 45.8767 6.76481 46.5189 6.78607C47.1612 6.80734 47.7992 6.95705 47.9234 7.08975C48.176 7.2267 48.3087 7.10251 48.3172 6.84561C48.33 6.46026 48.4584 6.46451 48.968 6.60997C49.2206 6.74692 49.4818 6.62698 49.486 6.49853C49.4903 6.37008 49.6187 6.37433 49.9998 6.51554C50.1283 6.51979 50.2525 6.65249 50.3809 6.65674C50.5094 6.661 50.7705 6.54105 51.0317 6.42111C51.4255 6.17696 52.4574 6.08253 53.2281 6.10805C53.7419 6.12505 54.2514 6.27051 54.3756 6.40322C54.624 6.66862 54.7567 6.54442 55.0221 6.29603C55.4202 5.92344 57.3512 5.85877 58.7642 5.90555C59.5348 5.93106 60.1771 5.95232 60.3013 6.08502C60.4255 6.21772 60.5497 6.35042 60.6781 6.35468C60.8066 6.35893 60.9393 6.23473 61.0762 5.98209C61.3416 5.73369 61.6028 5.61375 61.8554 5.7507C62.1081 5.88765 62.365 5.89616 62.4977 5.77196C62.7588 5.65202 63.0157 5.66052 63.4011 5.67328C63.658 5.68178 64.0433 5.69454 64.0391 5.82299C64.1633 5.95569 64.4244 5.83575 64.814 5.72005C65.0752 5.60011 65.8501 5.49717 66.4966 5.38998C67.0104 5.40699 68.2992 5.32107 69.1983 5.35083C70.1017 5.25215 71.9043 5.18323 73.1888 5.22575C74.4733 5.26828 75.6336 5.1781 75.7663 5.0539C75.899 4.9297 76.1516 5.06666 76.4 5.33206C76.6484 5.59746 76.7768 5.60172 76.9138 5.34907C77.0465 5.22487 77.693 5.11768 79.1059 5.16446C80.262 5.20273 81.4223 5.11255 81.555 4.98835C82.0688 5.00536 82.711 5.02662 83.2248 5.04363C83.9955 5.06915 84.5093 5.08616 84.5136 4.95771C84.5178 4.82926 85.1601 4.85052 85.935 4.74758C86.5773 4.76884 88.1229 4.69142 89.1505 4.72544C90.6962 4.64802 92.4987 4.5791 93.6547 4.61737C94.5539 4.64713 95.1919 4.79685 95.3203 4.8011C95.4445 4.9338 95.7014 4.9423 95.9668 4.69391C96.3522 4.70667 96.7375 4.71942 97.1229 4.73218C97.4997 5.00184 97.7566 5.01034 97.7609 4.88189C97.8978 4.62924 100.214 4.57734 102.012 4.63687C103.04 4.67089 103.939 4.70065 104.063 4.83335C104.316 4.97031 104.573 4.97881 104.838 4.73042C105.104 4.48202 105.493 4.36633 106.007 4.38334C106.264 4.39184 106.645 4.53305 106.898 4.67C107.15 4.80696 107.403 4.94391 107.407 4.81546C107.416 4.55856 107.677 4.43862 108.062 4.45137C108.576 4.46838 109.21 4.74654 109.33 5.00769C109.574 5.40155 109.574 5.40155 109.972 5.02896C110.113 4.64786 110.631 4.53642 111.402 4.56193L114.485 4.66399C114.742 4.67249 115.127 4.68525 115.384 4.69375C116.026 4.71501 116.54 4.73202 116.664 4.86473C116.921 4.87323 117.306 4.88599 117.696 4.77029C118.21 4.7873 118.595 4.80006 119.109 4.81707C119.49 4.95828 119.875 4.97103 119.88 4.84258C120.012 4.71839 120.274 4.59844 120.659 4.6112C121.301 4.63246 122.063 4.91487 122.183 5.17602C122.427 5.56988 122.556 5.57413 122.826 5.19728C123.095 4.82044 126.311 4.7983 128.623 4.87484C129.779 4.91311 130.678 4.94287 130.931 5.07983C131.055 5.21253 131.188 5.08833 131.32 4.96414C131.324 4.83569 131.453 4.83994 131.581 4.84419C131.71 4.84844 131.838 4.8527 132.091 4.98965C132.344 5.1266 132.6 5.13511 132.729 5.13936C132.986 5.14786 133.114 5.15212 133.118 5.02367C133.251 4.89947 133.38 4.90372 133.508 4.90797C133.637 4.91223 133.893 4.92073 134.018 5.05343C134.399 5.19464 134.651 5.33159 134.784 5.2074C134.917 5.0832 135.692 4.98026 136.334 5.00152C137.105 5.02704 137.871 5.181 137.995 5.3137C138.368 5.71181 138.368 5.71181 138.381 5.32646C138.389 5.06956 138.646 5.07806 138.903 5.08657C139.288 5.09933 139.926 5.24904 140.17 5.64289C140.539 6.16944 140.539 6.16944 140.684 5.6599C140.825 5.2788 145.587 5.17924 149.44 5.30681C152.138 5.3961 154.445 5.60109 154.694 5.8665C154.818 5.9992 154.946 6.00345 154.951 5.875C154.959 5.6181 155.22 5.49816 155.477 5.50666C155.734 5.51517 155.987 5.65212 155.982 5.78057C155.974 6.03747 156.355 6.17867 156.612 6.18718C156.997 6.19994 157.387 6.08424 157.395 5.82734C157.537 5.44625 157.665 5.4505 158.046 5.59171C158.556 5.73717 158.813 5.74567 160.739 5.80945C161.382 5.83072 161.895 5.84772 162.281 5.86048C163.308 5.8945 163.561 6.03145 163.814 6.16841C164.062 6.43381 164.19 6.43806 164.327 6.18542C164.464 5.93277 164.726 5.81282 166.395 5.8681C167.423 5.90212 168.832 6.07735 170.887 6.14538C173.323 6.35462 175.635 6.43117 176.021 6.44392C176.534 6.46093 179.36 6.55448 182.31 6.78073C183.466 6.819 183.972 7.09291 183.822 7.73091C183.681 8.112 183.805 8.2447 184.19 8.25746C184.957 8.41142 184.927 9.31057 184.152 9.4135C183.891 9.53345 183.364 9.90179 183.095 10.2786C182.551 11.1608 182.423 11.1565 181.267 11.1182C181.01 11.1097 180.624 11.097 180.111 11.08C178.826 11.0375 176.771 10.9694 174.711 11.0298C171.886 10.9363 169.188 10.847 168.807 10.7058C168.55 10.6973 168.298 10.5603 168.169 10.5561C168.041 10.5518 167.908 10.676 167.908 10.676C167.514 10.9202 166.743 10.8946 163.399 10.9125C161.601 10.853 160.055 10.9304 160.051 11.0589C160.051 11.0589 159.662 11.1746 159.409 11.0376C158.771 10.8879 158.771 10.8879 158.887 11.2775C158.994 11.924 158.202 12.5407 157.299 12.6394C156.785 12.6224 156.524 12.7424 156.515 12.9993C156.507 13.2562 155.727 13.4875 154.567 13.5777C154.177 13.6934 152.889 13.7793 151.6 13.8653C150.44 13.9554 148.766 14.0286 147.991 14.1315C147.22 14.106 145.931 14.192 145.156 14.2949C144.381 14.3978 143.221 14.488 142.707 14.471C141.808 14.4412 141.281 14.8096 141.783 15.2119C142.288 15.4858 141.98 17.0187 141.316 17.6397C140.918 18.0123 140.644 18.5176 140.636 18.7745C140.627 19.0314 140.234 19.2755 139.33 19.3742C138.551 19.6056 137.904 19.7128 137.9 19.8412C137.763 20.0939 134.92 20.5141 133.764 20.4759C133.379 20.4631 132.861 20.5746 132.861 20.5746C132.857 20.703 132.595 20.8229 132.339 20.8144C132.082 20.8059 131.046 21.0288 130.142 21.1275C129.496 21.2347 128.978 21.3461 128.592 21.3334C128.335 21.3249 128.083 21.1879 127.83 21.051C127.706 20.9183 127.577 20.914 127.449 20.9098C127.321 20.9055 127.192 20.9013 126.927 21.1496C126.657 21.5265 126.267 21.6422 126.011 21.6337C125.754 21.6252 125.497 21.6167 125.116 21.4755C124.735 21.3343 124.478 21.3258 124.473 21.4542C124.461 21.8395 122.007 22.1441 121.365 22.1228C120.847 22.2343 120.072 22.3372 119.43 22.316C118.788 22.2947 118.141 22.4019 118.008 22.5261C117.88 22.5218 116.972 22.749 116.073 22.7192C114.266 22.9166 113.11 22.8783 111.055 22.8103C110.798 22.8018 110.537 22.9217 110.28 22.9132C110.152 22.9089 110.028 22.7762 109.903 22.6435C109.436 21.2136 110.776 19.5863 112.707 19.5216C112.964 19.5301 113.354 19.4144 113.491 19.1618C113.76 18.7849 115.571 18.4591 116.47 18.4889C116.727 18.4974 116.851 18.6301 116.98 18.6343C117.104 18.767 117.228 18.8997 117.357 18.904C117.485 18.9082 117.746 18.7883 117.879 18.6641C118.273 18.42 119.052 18.1886 119.566 18.2056C120.987 17.9955 123.946 17.9648 124.849 17.8661C125.235 17.8789 125.624 17.7632 125.629 17.6347C125.766 17.3821 126.155 17.2664 126.54 17.2792C127.953 17.3259 130.539 16.8972 130.419 16.636C130.295 16.5033 130.167 16.4991 129.91 16.4906C129.781 16.4863 129.653 16.4821 129.525 16.4778C129.135 16.5935 128.754 16.4523 128.758 16.3238C128.63 16.3196 128.377 16.1826 127.992 16.1699C127.606 16.1571 126.96 16.2643 126.57 16.38C126.442 16.3758 126.309 16.5 126.181 16.4957C125.924 16.4872 125.671 16.3502 125.547 16.2175C125.162 16.2048 124.905 16.1963 124.519 16.1835C124.258 16.3035 123.74 16.4149 123.098 16.3936C122.584 16.3766 121.946 16.2269 121.693 16.09C121.569 15.9573 121.436 16.0815 121.304 16.2057C121.171 16.3299 121.038 16.4541 120.781 16.4456C120.525 16.4371 120.272 16.3001 119.758 16.2831C119.116 16.2618 118.474 16.2406 117.831 16.2193C117.699 16.3435 117.442 16.335 117.313 16.3307C117.185 16.3265 117.056 16.3222 116.932 16.1895C116.68 16.0526 116.423 16.0441 116.29 16.1683C116.157 16.2925 114.607 16.4983 112.938 16.4431C111.263 16.5162 109.461 16.5852 108.819 16.5639C106.883 16.757 105.599 16.7145 104.7 16.6847C103.544 16.6464 103.163 16.5052 103.047 16.1156C102.931 15.726 102.679 15.5891 102.55 15.5848C102.422 15.5806 102.289 15.7048 102.161 15.7005C101.518 15.6793 101.523 15.5508 101.544 14.9086C101.586 13.6241 102.258 12.7462 103.158 12.776C103.543 12.7887 103.932 12.673 104.065 12.5488C104.198 12.4246 105.615 12.343 107.289 12.2698C108.831 12.3208 110.248 12.2391 110.38 12.1149L110.766 12.1277C110.89 12.2604 111.151 12.1405 111.412 12.0205C111.673 11.9006 111.421 11.7636 110.779 11.7423C109.237 11.6913 108.128 10.2401 109.181 9.50343C109.442 9.38348 109.708 9.13509 109.712 9.00664C109.716 8.87819 109.082 8.60003 108.569 8.58302C108.44 8.57877 108.312 8.57451 108.179 8.69871C108.046 8.82291 107.528 8.93435 107.143 8.92159C106.629 8.90458 106.248 8.76338 105.995 8.62642C105.743 8.48947 105.486 8.48096 105.481 8.60941C105.473 8.86631 105.601 8.87056 102.257 8.88846C100.845 8.84168 99.56 8.79916 99.4359 8.66646C99.1875 8.40105 99.059 8.3968 99.0505 8.6537C99.0462 8.78215 98.6609 8.76939 97.7618 8.73963C97.5049 8.73112 97.1195 8.71836 96.6057 8.70136C95.1928 8.65458 94.0325 8.74476 93.8998 8.86896C93.8998 8.86896 93.6386 8.9889 93.2533 8.97615L89.0144 8.83582C88.1153 8.80605 85.2852 8.84095 85.2809 8.9694L81.0421 8.82908C80.6567 8.81632 80.2671 8.93201 80.1344 9.05621C80.0017 9.18041 79.6121 9.2961 79.2268 9.28335C78.713 9.26634 78.2034 9.12088 77.955 8.85547C77.8351 8.59432 77.5824 8.45737 77.454 8.45312C77.3255 8.44886 77.1928 8.57306 77.1843 8.82996C77.1758 9.08686 76.9147 9.2068 76.6578 9.1983C76.4009 9.1898 76.2767 9.05709 76.1525 8.92439C76.0325 8.66324 75.7714 8.78319 75.506 9.03158C75.2406 9.27997 74.4656 9.38291 72.6673 9.32338C71.3828 9.28086 70.2226 9.37104 70.2183 9.49949C70.2183 9.49949 69.1864 9.59392 67.7735 9.54714C66.3606 9.50037 65.2045 9.4621 65.0718 9.58629C65.0676 9.71474 64.5538 9.69773 63.9115 9.67647C63.6546 9.66797 63.402 9.53101 63.1451 9.52251C63.0166 9.51826 62.8839 9.64245 62.8839 9.64245C62.8797 9.7709 62.6185 9.89085 62.3616 9.88234C61.9763 9.86959 61.5952 9.72838 61.3468 9.46298C61.1026 9.06912 60.9742 9.06487 60.7045 9.44172C60.4306 9.94701 57.3351 10.2303 54.7618 10.2737C53.9911 10.2482 53.3489 10.2269 53.3446 10.3554C53.3404 10.4838 52.6939 10.591 51.9232 10.5655C51.1525 10.54 49.8638 10.6259 49.0931 10.6004C48.7077 10.5876 48.3181 10.7033 48.0612 10.6948C47.6759 10.6821 47.4232 10.5451 47.299 10.4124C47.1748 10.2797 47.0464 10.2755 46.9179 10.2712C46.7895 10.267 46.661 10.2627 46.5241 10.5154C46.3914 10.6396 46.1302 10.7595 45.7449 10.7467C45.488 10.7382 45.3595 10.734 45.1026 10.7255C44.8457 10.717 44.7173 10.7127 44.4604 10.7042C44.075 10.6915 43.9423 10.8157 43.9381 10.9441C43.9338 11.0726 43.8011 11.1968 43.5442 11.1883C43.5442 11.1883 43.4158 11.184 43.2873 11.1798C42.7735 11.1627 41.9986 11.2657 41.0952 11.3644C39.8064 11.4503 38.1281 11.6519 37.2247 11.7506C35.0368 11.8068 34.6472 11.9224 34.6472 11.9224C34.6429 12.0509 34.2576 12.0381 34.0007 12.0296C30.7767 12.3087 29.4879 12.3946 28.3319 12.3563C27.6897 12.3351 27.0432 12.4423 27.0389 12.5707C26.9062 12.6949 26.5166 12.8106 26.1313 12.7978C25.7417 12.9135 24.8383 13.0122 24.0633 13.1152C23.6737 13.2308 23.2884 13.2181 22.903 13.2053C22.6461 13.1968 22.3892 13.1883 22.1366 13.0514C21.7555 12.9102 21.627 12.9059 21.4986 12.9017C21.2417 12.8932 21.2417 12.8932 21.2332 13.1501C21.2247 13.407 21.092 13.5311 20.7066 13.5184C20.5782 13.5141 20.5782 13.5141 20.4497 13.5099C20.1928 13.5014 19.9359 13.4929 19.8075 13.4886C19.5421 13.737 18.6387 13.8357 17.9964 13.8144C17.4826 13.7974 17.1015 13.6562 16.9731 13.652C16.7247 13.3866 16.4678 13.3781 16.4593 13.635C16.3223 13.8876 16.1896 14.0118 15.9327 14.0033C15.8 14.1275 15.2862 14.1105 14.8966 14.2262C14.7682 14.2219 14.6397 14.2177 14.5113 14.2134C14.1259 14.2007 13.869 14.1922 13.7448 14.0595C13.368 13.7898 13.368 13.7898 13.3552 14.1752C13.3425 14.5605 13.0771 14.8089 12.9444 14.9331C12.6875 14.9246 12.5505 15.1772 12.5463 15.3057C12.5207 16.0764 10.3158 16.6463 8.3891 16.5826C7.74686 16.5613 7.10886 16.4116 6.59932 16.2661C6.34242 16.2576 5.95707 16.2449 5.70017 16.2364C5.43902 16.3563 5.31057 16.3521 5.18637 16.2194C5.06217 16.0867 4.93372 16.0824 4.54412 16.1981C4.28297 16.318 3.89337 16.4337 3.63647 16.4252C2.35198 16.3827 1.09725 15.441 1.13127 14.4134C1.13977 14.1565 1.02408 13.7669 0.895631 13.7627ZM113.215 11.9516C113.211 12.08 113.339 12.0843 113.724 12.097C113.981 12.1056 114.11 12.1098 114.504 11.8657C114.636 11.7415 114.379 11.733 114.122 11.7245C113.994 11.7202 113.609 11.7074 113.215 11.9516ZM116.82 11.8138C116.816 11.9422 117.068 12.0792 117.325 12.0877C117.706 12.2289 117.963 12.2374 117.963 12.2374C118.092 12.2416 117.963 12.2374 117.967 12.1089C117.848 11.8478 117.338 11.7023 117.081 11.6938C116.953 11.6896 116.824 11.6853 116.82 11.8138ZM123.525 11.2642C123.396 11.2599 123.264 11.3841 123.259 11.5126C123.255 11.641 123.379 11.7737 123.379 11.7737C123.508 11.778 123.512 11.6495 123.645 11.5253C123.777 11.4011 123.653 11.2684 123.525 11.2642ZM115.279 11.7627C115.017 11.8827 115.146 11.8869 115.66 11.9039C116.302 11.9252 116.559 11.9337 116.306 11.7967L115.279 11.7627ZM132.487 16.3187C132.363 16.186 132.359 16.3145 132.355 16.4429C132.346 16.6998 132.346 16.6998 132.475 16.7041C132.607 16.5799 132.612 16.4514 132.487 16.3187ZM128.153 11.2888C128.025 11.2846 128.021 11.413 128.277 11.4215C128.406 11.4258 128.539 11.3016 128.41 11.2973C128.286 11.1646 128.158 11.1604 128.153 11.2888ZM121.714 11.59C121.59 11.4573 121.59 11.4573 121.581 11.7142C121.577 11.8426 121.573 11.9711 121.705 11.8469C121.838 11.7227 121.842 11.5942 121.718 11.4615L121.714 11.59ZM118.241 11.6036C118.109 11.7278 118.109 11.7278 118.366 11.7363C118.494 11.7406 118.622 11.7448 118.751 11.7491C118.627 11.6164 118.498 11.6121 118.241 11.6036ZM129.185 11.1944C129.057 11.1901 129.057 11.1901 129.052 11.3186C129.052 11.3186 129.048 11.447 129.177 11.4513L129.309 11.3271C129.314 11.1986 129.185 11.1944 129.185 11.1944ZM112.829 11.9388L112.573 11.9303C112.568 12.0588 112.697 12.063 112.697 12.063C112.825 12.0673 112.825 12.0673 112.829 11.9388ZM122.36 11.4828L122.352 11.7397C122.48 11.744 122.484 11.6155 122.484 11.6155C122.489 11.4871 122.489 11.4871 122.36 11.4828ZM118.751 11.7491L118.755 11.6206L118.751 11.7491Z" fill="black"/>
</svg>
