<svg width="204" height="121" viewBox="0 0 204 121" fill="none" xmlns="http://www.w3.org/2000/svg">
<path d="M184.688 42.9843C184.97 42.7827 186.946 45.0991 187.894 46.8719C188.076 47.2748 188.398 47.5769 188.519 47.597C188.882 47.6573 189.548 49.6317 189.468 50.1154C189.428 50.3572 189.549 50.3773 189.79 50.4175C190.032 50.4577 190.355 50.7598 190.516 51.2836C190.678 51.8075 191.041 52.6133 191.202 53.1372C191.485 53.6811 191.666 54.0841 191.626 54.3259C191.606 54.4468 192.292 55.5548 193.078 56.8037C193.986 58.0728 194.651 59.3017 194.611 59.5435C194.571 59.7853 194.551 59.9063 194.692 59.8054C195.962 61.1348 196.931 64.2778 196.629 66.0916C196.509 66.8171 196.549 67.3208 196.65 67.4618C197.396 68.207 195.605 73.0039 194.537 73.4477C194.154 73.5084 193.893 74.3347 194.215 74.6368C194.437 74.7979 193.954 75.4631 193.088 76.189C192.665 76.4915 192.363 76.814 192.343 76.935C192.322 77.0559 191.275 78.1244 190.248 79.072C189.966 79.2736 189.563 79.4552 189.442 79.4351C189.2 79.3949 189.039 79.6167 188.999 79.8585C188.939 80.2213 188.274 80.4836 187.307 80.3228C186.944 80.2626 186.823 80.2425 186.843 80.8671C186.884 81.3709 186.844 81.6127 186.723 81.5926C186.602 81.5725 185.917 81.9558 185.232 82.339C184.547 82.7222 183.983 83.1255 183.862 83.1054C183.741 83.0853 183.338 83.2669 182.915 83.5693C182.492 83.8718 181.948 84.1542 181.565 84.2148C181.303 84.2956 181.042 84.3763 181.021 84.4972C180.981 84.7391 179.813 85.0419 179.329 84.9615C179.087 84.9214 178.825 85.0021 178.785 85.2439C178.624 85.4657 177.939 85.8489 177.294 85.9902C176.629 86.2525 175.965 86.5148 175.944 86.6358C175.803 86.7366 175.3 86.7771 174.675 86.7976C174.554 86.7775 174.413 86.8783 174.373 87.1202C174.333 87.362 174.051 87.5636 173.668 87.6243C172.237 88.0079 168.711 89.0373 168.55 89.2591C168.55 89.2591 168.288 89.3398 168.047 89.2996C167.805 89.2594 167.543 89.3402 167.402 89.441C167.382 89.5619 166.878 89.6025 166.515 89.5422C166.153 89.4819 165.891 89.5627 165.85 89.8045C165.81 90.0463 165.548 90.1271 165.186 90.0668C164.823 90.0065 164.44 90.0672 164.299 90.168C164.037 90.2487 163.372 90.511 162.727 90.6524C162.204 90.8139 161.297 91.036 160.914 91.0966C160.511 91.2782 160.128 91.3388 159.886 91.2986C159.766 91.2785 156.804 91.9047 156.542 91.9854C155.917 92.0059 155.393 92.1674 155.252 92.2682C155.111 92.369 154.748 92.3087 154.386 92.2485C154.144 92.2083 153.882 92.289 153.862 92.4099C153.822 92.6518 152.29 92.8944 152.069 92.7333C151.968 92.5922 151.827 92.6931 151.686 92.7939C151.545 92.8947 151.041 92.9353 150.557 92.8549C150.174 92.9156 149.671 92.9561 149.651 93.077C149.51 93.1779 148.986 93.3393 148.361 93.3598C147.757 93.2593 147.112 93.4007 146.971 93.5015C146.689 93.7032 146.306 93.7638 146.064 93.7236C145.802 93.8044 145.319 93.724 144.815 93.7646C144.452 93.7043 144.049 93.8859 144.029 94.0068C144.029 94.0068 143.626 94.1883 143.142 94.108C142.639 94.1485 141.873 94.2698 141.349 94.4313C140.845 94.4718 140.463 94.5325 140.362 94.3915C140.362 94.3915 140.12 94.3513 139.979 94.4521C139.838 94.5529 139.334 94.5935 138.951 94.6541C138.468 94.5738 138.206 94.6545 138.186 94.7754C138.165 94.8963 137.924 94.8562 137.702 94.6951C137.46 94.6549 137.077 94.7155 136.815 94.7963C136.553 94.877 135.909 95.0184 135.425 94.938C135.042 94.9987 134.176 94.9789 133.672 95.0195C133.148 95.181 132.402 95.1813 132.141 95.2621C131.899 95.2219 131.274 95.2423 130.891 95.303C130.408 95.2226 129.642 95.3439 129.239 95.5255C128.735 95.566 128.11 95.5865 127.748 95.5262C127.143 95.4258 126.76 95.4864 126.136 95.5069C125.612 95.6683 124.463 95.8503 123.718 95.8506C122.972 95.851 121.461 95.9727 120.574 96.0739C119.567 96.155 118.559 96.2361 118.317 96.1959C117.955 96.1356 117.693 96.2164 117.552 96.3172C117.532 96.4381 117.29 96.3979 117.189 96.2569C116.947 96.2167 116.826 96.1966 116.806 96.3176C116.766 96.5594 115.033 96.5199 113.078 96.3194C112.574 96.36 112.071 96.4005 111.789 96.6022C111.648 96.703 111.124 96.8645 110.62 96.905C110.015 96.8046 108.887 96.8656 107.88 96.9467C107.114 97.068 105.865 97.1089 105.018 96.9683C104.877 97.0691 104.232 97.2105 103.507 97.0899C102.761 97.0903 102.137 97.1108 101.976 97.3325C101.835 97.4333 101.593 97.3931 101.23 97.3329C100.887 97.1517 100.525 97.0914 100.504 97.2123C100.363 97.3132 99.094 97.475 97.7438 97.3749C97.6229 97.3548 97.0991 97.5163 96.4744 97.5367C96.0916 97.5974 95.8497 97.5572 95.6079 97.517C95.3661 97.4768 95.2451 97.4568 94.9226 97.1547C94.4992 96.7115 94.3783 96.6915 94.4389 97.0743C94.6004 97.5981 94.0765 97.7596 92.7063 97.7804C92.0816 97.8009 91.336 97.8013 91.0741 97.882C90.6712 98.0636 88.8172 98.004 87.3662 97.763C86.8625 97.8035 86.2579 97.7031 86.1169 97.8039C84.4446 98.1473 82.6915 98.2288 81.4823 98.0278C80.9986 97.9475 80.515 97.8671 80.4342 97.6052C80.2527 97.2023 80.2527 97.2023 80.1723 97.6859C80.1321 97.9278 79.8501 98.1294 79.6083 98.0892L78.4799 98.1502C78.3389 98.2511 78.2179 98.231 77.9761 98.1908C77.8753 98.0498 77.5125 97.9895 77.3514 98.2113C77.2104 98.3121 76.4648 98.3125 75.8603 98.212C75.2356 98.2325 74.2482 98.1927 73.7444 98.2332C73.3817 98.1729 72.0114 98.1938 70.7621 98.2347C69.6537 98.1748 68.2634 98.3165 67.6588 98.2161C66.5304 98.2771 65.1601 98.2979 64.1928 98.1372C63.5882 98.0368 63.1246 97.8355 63.0238 97.6945C62.8021 97.5334 62.6812 97.5133 62.2581 97.8158C62.0769 98.1584 61.7142 98.0982 61.3515 98.0379C61.1096 97.9977 60.7469 97.9374 60.626 97.9173C60.223 98.0989 59.1147 98.039 56.5755 97.6171C55.1044 97.4969 54.2379 97.4772 54.0969 97.578C53.9559 97.6788 53.4521 97.7194 52.6057 97.5788C52.2429 97.5185 51.8802 97.4582 51.5174 97.3979C50.1874 97.177 49.22 97.0162 48.938 97.2179C48.5552 97.2785 46.6004 97.078 44.7867 96.7766C43.3357 96.5355 42.0257 96.1936 41.804 96.0325C41.4613 95.8513 41.3404 95.8312 41.3002 96.0731C41.2801 96.194 41.0383 96.1538 40.7965 96.1136C40.5546 96.0734 40.1919 96.0132 39.9902 95.7312C39.7886 95.4491 39.6677 95.4291 39.5066 95.6508C39.3254 95.9935 39.0836 95.9533 38.9827 95.8123C38.8819 95.6713 37.9146 95.5105 36.8464 95.2088C35.8791 95.0481 34.5691 94.7062 34.2265 94.525C33.9039 94.2229 33.1784 94.1023 32.6947 94.022C32.4529 93.9818 32.3119 94.0826 32.0701 94.0424C31.8282 94.0022 31.6065 93.8411 31.5057 93.7001C31.4048 93.5591 30.8404 93.2168 30.3568 93.1365C29.7522 93.036 28.946 92.6536 28.4824 92.4523C27.8979 92.2309 27.3335 91.8886 27.2126 91.8685C26.5072 91.6271 25.0156 90.8822 24.814 90.6002C24.7132 90.4592 24.4713 90.419 24.3504 90.3989C24.2094 90.4998 23.9877 90.3387 23.8868 90.1977C23.8061 89.9357 23.3626 89.6135 22.879 89.5332C22.1936 89.1708 20.2582 87.3582 20.3185 86.9954C20.3185 86.9954 20.2177 86.8544 19.9759 86.8142C19.1294 86.6736 18.7868 86.4924 18.6052 86.0895C18.6655 85.7267 18.4438 85.5656 18.1818 85.6464C17.799 85.707 17.6982 85.566 17.6375 85.1832C17.5568 84.9213 17.3551 84.6392 17.2342 84.6192C16.9924 84.579 16.8916 84.438 16.9117 84.317C16.9318 84.1961 16.8309 84.0551 16.5891 84.0149C16.4682 83.9949 16.2464 83.8338 16.2665 83.7128C16.2866 83.5919 16.0649 83.4308 15.823 83.3906C15.6013 83.2295 15.3997 82.9475 15.3189 82.6856C15.3591 82.4438 15.0566 82.0208 14.8148 81.9806C14.1295 81.6182 13.0003 80.188 12.9798 79.5634C13.0401 79.2006 12.9594 78.9387 12.4757 78.8583C11.7703 78.6169 11.4678 78.1939 11.5482 77.7102C11.5884 77.4684 11.5077 77.2064 11.2658 77.1663C10.9031 77.106 9.79362 74.8093 10.0957 74.4868C10.2568 74.265 9.7527 73.56 9.38995 73.4997C9.26903 73.4796 9.16821 73.3386 9.20839 73.0968C9.24857 72.855 9.14775 72.7139 9.02683 72.6939C8.90591 72.6738 8.72436 72.2708 8.66371 71.888C8.60307 71.5052 8.40142 71.2231 8.2805 71.2031C8.03867 71.1629 7.79609 69.6315 7.97728 69.2889C8.13838 69.0671 8.03755 68.9261 7.91664 68.906C7.67481 68.8658 7.4326 68.0801 7.3515 67.0726C7.14947 66.045 7.06837 65.0375 6.98763 64.7755C6.84626 64.1308 7.36824 60.2414 7.89134 58.5887C7.9918 57.9841 8.03198 57.7423 7.91106 57.7222C7.74997 57.944 7.36638 56.5134 7.46684 55.9089C7.50702 55.667 7.5472 55.4252 7.42629 55.4051C6.94262 55.3247 7.20157 49.2793 7.72542 49.1178C7.86642 49.017 7.88651 48.8961 7.80578 48.6342C7.5033 48.2112 7.86568 47.5258 8.47026 47.6263C8.95392 47.7067 8.99411 47.4648 8.46989 46.8807C8.14732 46.5786 8.16741 46.4577 8.59006 45.4096C8.93235 44.8452 9.15372 44.2607 9.05289 44.1197C8.95207 43.9787 10.0392 41.9228 10.4823 41.4994C10.7442 41.4187 10.9254 41.076 10.9455 40.9551C10.9656 40.8342 11.1468 40.4915 11.4288 40.2899C11.7108 40.0882 12.0129 39.7656 12.0531 39.5238C12.0933 39.282 12.2544 39.0602 12.5364 38.8586C12.6975 38.6368 12.9996 38.3143 13.1406 38.2134C14.6712 36.4797 18.3977 33.4955 19.1232 33.616C19.365 33.6562 19.6269 33.5755 19.6872 33.2127C19.7274 32.9709 20.0295 32.6483 20.5533 32.4869C20.9562 32.3053 21.2383 32.1037 21.2583 31.9827C21.3186 31.62 23.0111 31.1557 23.3537 31.3369C23.6964 31.5181 23.8374 31.4172 23.8977 31.0545C24.0182 30.329 24.9852 29.7441 25.6906 29.9856C26.0332 30.1668 26.396 30.227 26.4161 30.1061C26.3956 29.4815 26.9797 28.9572 28.4103 28.5737C29.196 28.3315 29.9818 28.0893 30.0019 27.9683C30.304 27.6458 31.0898 27.4036 31.8755 27.1614C32.2584 27.1007 32.6613 26.9192 32.6814 26.7982C32.8425 26.5765 33.2253 26.5159 33.709 26.5962C34.0717 26.6565 34.3336 26.5758 34.3537 26.4548C34.414 26.0921 42.5738 23.3475 43.1784 23.4479C43.4202 23.4881 43.6821 23.4074 43.8432 23.1857C43.9236 22.702 44.3064 22.6413 45.1528 22.782C45.3746 22.9431 45.6566 22.7414 45.6767 22.6205C45.7169 22.3787 45.8579 22.2779 46.2206 22.3381C46.5834 22.3984 46.8453 22.3177 46.8855 22.0758C46.9257 21.834 47.3085 21.7734 47.7922 21.8537C47.9131 21.8738 48.034 21.8939 48.1549 21.914C48.2758 21.9341 48.4168 21.8333 48.4369 21.7123C48.457 21.5914 48.598 21.4906 48.8399 21.5308C49.0817 21.571 49.4645 21.5103 49.6256 21.2886C49.8875 21.2078 50.1696 21.0062 50.2905 21.0263C50.5323 21.0665 50.6532 21.0866 50.6733 20.9656C50.6934 20.8447 51.2172 20.6833 51.8218 20.7837C52.4465 20.7632 52.9703 20.6018 52.9904 20.4809C52.9904 20.4809 53.2524 20.4001 53.4942 20.4403C53.8569 20.5006 54.1189 20.4198 54.1389 20.2989C54.1791 20.0571 54.421 20.0973 54.6628 20.1375C54.8845 20.2986 55.3883 20.258 55.8113 19.9555C56.3753 19.5522 58.2895 19.249 59.2569 19.4097C59.3778 19.4298 59.6397 19.3491 59.6598 19.2282C59.6799 19.1073 59.9418 19.0265 60.1635 19.1876C60.5062 19.3688 60.7681 19.2881 60.7882 19.1672C60.8686 18.6835 62.7225 18.743 63.0852 18.8033C63.448 18.8636 63.7099 18.7828 63.73 18.6619C63.7903 18.2992 66.3291 17.9755 67.4174 18.1563C67.9011 18.2367 68.163 18.1559 68.2032 17.9141C68.2232 17.7932 68.6262 17.6116 69.4726 17.7523C70.0973 17.7318 70.9839 17.6306 71.3667 17.57C71.7696 17.3884 72.0315 17.3077 72.2734 17.3478C72.3943 17.3679 72.4951 17.5089 72.616 17.529C72.8177 17.811 73.0595 17.8512 73.0796 17.7303C73.0997 17.6094 73.4825 17.5487 73.7445 17.468C74.1072 17.5283 74.49 17.4676 74.49 17.4676C74.7921 17.1451 81.0589 16.8195 81.4016 17.0007C81.6233 17.1618 81.7644 17.061 81.7844 16.9401C81.8246 16.6982 82.953 16.6372 84.545 16.7775C85.2705 16.898 86.0161 16.8977 86.1571 16.7968C86.1973 16.555 86.822 16.5345 87.5475 16.6551C88.1722 16.6346 89.1596 16.6744 89.6633 16.6339C90.288 16.6134 90.6508 16.6737 90.6508 16.6737C90.6307 16.7946 90.8926 16.7139 91.0336 16.6131C91.4365 16.4315 93.3105 16.3701 94.7615 16.6112C95.1243 16.6715 95.487 16.7317 95.5071 16.6108C95.5272 16.4899 95.7891 16.4092 96.031 16.4494C96.3937 16.5096 96.7364 16.6908 96.8372 16.8318C96.938 16.9728 97.0589 16.9929 97.3409 16.7913C97.502 16.5695 97.643 16.4687 97.623 16.5896C97.6029 16.7105 97.8648 16.6298 98.1267 16.5491C98.3886 16.4683 99.2551 16.4881 99.9806 16.6086C100.706 16.7291 101.573 16.7489 101.835 16.6681C101.976 16.5673 102.096 16.5874 102.217 16.6075C102.459 16.6477 102.701 16.6878 102.802 16.8288C103.124 17.131 103.386 17.0502 103.527 16.9494C103.547 16.8285 103.93 16.7678 104.273 16.949C104.636 17.0093 104.998 17.0696 105.139 16.9687C105.28 16.8679 105.643 16.9282 106.006 16.9885C106.369 17.0487 107.114 17.0484 107.618 17.0078C108.746 16.9468 109.835 17.1276 110.923 17.3084C111.407 17.3888 111.648 17.429 111.648 17.429C111.669 17.3081 112.172 17.2675 112.777 17.368C113.502 17.4885 114.208 17.73 114.43 17.8911C114.651 18.0522 114.651 18.0522 114.691 17.8103C114.712 17.6894 114.973 17.6087 115.457 17.689C116.424 17.8498 117.513 18.0306 118.52 17.9495C118.903 17.8888 119.266 17.9491 119.508 17.9893C119.749 18.0295 119.991 18.0696 120.092 18.2107C120.415 18.5128 120.657 18.5529 120.677 18.432C120.717 18.1902 121.2 18.2706 121.926 18.3911C122.531 18.4916 123.256 18.6121 123.518 18.5314C123.639 18.5514 123.78 18.4506 123.901 18.4707C124.143 18.5109 124.364 18.672 124.465 18.813C124.808 18.9942 125.05 19.0344 125.191 18.9336C125.332 18.8327 127.045 18.9931 128.858 19.2944C130.672 19.5958 132.587 20.0382 132.687 20.1792C132.909 20.3403 133.03 20.3604 133.03 20.3604C133.05 20.2394 133.796 20.2391 134.763 20.3998C135.589 20.6614 137.766 21.023 139.318 21.4051C140.89 21.6663 142.804 22.1086 143.51 22.3501C144.114 22.4505 145.424 22.7925 146.392 22.9532C147.339 23.2348 148.165 23.4964 148.367 23.7784C148.689 24.0805 148.81 24.1006 148.971 23.8788C149.112 23.778 149.253 23.6772 149.495 23.7174C149.616 23.7375 149.737 23.7576 149.858 23.7776C150.201 23.9588 151.148 24.2405 151.853 24.4819C152.579 24.6025 153.385 24.9849 153.587 25.267C153.808 25.4281 153.909 25.5691 154.05 25.4682C154.07 25.3473 154.211 25.2465 154.453 25.2867C154.816 25.3469 155.38 25.6892 156.549 26.132C157.255 26.3734 157.839 26.5948 157.96 26.6149C157.98 26.494 158.222 26.5342 158.323 26.6752C158.545 26.8363 158.887 27.0175 159.371 27.0978C160.459 27.2786 161.971 27.9026 162.051 28.1645C162.152 28.3055 162.394 28.3457 162.636 28.3859C162.777 28.285 163.12 28.4662 163.341 28.6273C163.422 28.8892 163.886 29.0905 164.248 29.1508C165.578 29.3718 166.506 29.7743 166.808 30.1974C167.01 30.4794 167.352 30.6606 167.715 30.7208C167.957 30.761 168.179 30.9221 168.139 31.1639C168.118 31.2849 168.118 31.2849 168.4 31.0832C168.562 30.8615 168.682 30.8816 168.884 31.1636C169.086 31.4456 169.549 31.6469 169.912 31.7071C170.396 31.7875 170.718 32.0896 170.94 32.2507C171.041 32.3917 171.384 32.5729 171.625 32.6131C172.109 32.6934 172.956 33.5797 172.875 34.0633C172.855 34.1842 173.097 34.2244 173.258 34.0027C173.399 33.9019 173.54 33.801 173.782 33.8412C174.145 33.9015 174.709 34.2438 175.334 34.9689C175.657 35.271 176 35.4522 176.02 35.3313C176.141 35.3514 176.262 35.3715 176.241 35.4924C176.201 35.7342 176.887 36.0966 177.471 36.318C177.592 36.338 177.915 36.6401 178.257 36.8213C178.58 37.1234 179.023 37.4456 179.366 37.6268C179.709 37.808 179.93 37.9691 179.91 38.09C179.89 38.2109 179.991 38.3519 180.233 38.3921C180.354 38.4122 180.696 38.5934 180.777 38.8553C180.979 39.1373 181.281 39.5604 181.644 39.6206C181.987 39.8018 182.309 40.1039 182.41 40.2449C182.612 40.5269 182.833 40.688 182.954 40.7081C183.317 40.7684 184.406 42.4404 184.346 42.8031C184.306 43.045 184.426 43.0651 184.688 42.9843ZM189.963 72.5634C189.56 72.7449 189.519 72.9868 189.64 73.0069C189.882 73.047 189.862 73.168 189.681 73.5106C189.641 73.7524 189.641 73.7524 189.641 73.7524C189.762 73.7725 189.903 73.6717 190.326 73.3692C190.769 72.9458 191.071 72.6233 191.091 72.5024C190.99 72.3613 191.272 72.1597 191.675 71.9781C192.219 71.6958 192.239 71.5748 192.541 69.7611C192.762 68.431 192.882 67.7055 193.144 67.6248C193.547 67.4432 193.808 66.6169 193.446 66.5566C193.204 66.5165 193.002 66.2344 192.821 65.8315C192.659 65.3077 192.659 65.3077 192.599 65.6704C192.438 65.8922 192.337 66.4967 192.277 66.8595C192.096 67.2021 191.975 67.9276 191.794 68.2703C191.714 68.754 191.472 69.4594 191.271 69.9229C191.191 70.4066 190.969 70.9911 190.768 71.4547C190.688 71.9383 190.365 72.3818 189.963 72.5634ZM189.016 74.5185C188.614 74.7 188.432 75.0427 188.432 75.0427C188.412 75.1636 188.553 75.0628 188.956 74.8812C189.238 74.6796 189.399 74.4578 189.419 74.3369C189.439 74.216 189.298 74.3168 189.016 74.5185ZM143.753 26.1182C143.129 26.1387 143.109 26.2596 143.29 26.6625C143.371 26.9244 143.492 26.9445 143.653 26.7228C143.673 26.6019 143.794 26.622 144.036 26.6621C144.278 26.7023 144.741 26.9036 145.567 27.1651C146.152 27.3865 146.736 27.6079 147.099 27.6682C147.22 27.6882 147.341 27.7083 147.341 27.7083C147.482 27.6075 147.825 27.7887 148.026 28.0707C148.127 28.2117 148.349 28.3728 148.712 28.4331C149.316 28.5335 149.8 28.6139 150.203 29.1779C150.405 29.46 150.526 29.48 150.647 29.5001C150.768 29.5202 150.888 29.5403 150.909 29.4194C150.929 29.2985 151.291 29.3588 151.654 29.419C152.138 29.4994 152.742 29.5998 152.944 29.8819C153.065 29.902 153.649 30.1233 154.234 30.3447C155.423 30.6665 157.015 31.5524 156.955 31.9151C156.955 31.9151 157.056 32.0561 157.298 32.0963C157.419 32.1164 157.802 32.0557 158.043 32.0959C158.285 32.1361 158.406 32.1562 158.527 32.1763C159.011 32.2567 159.353 32.4378 159.676 32.7399C160.119 33.0621 160.704 33.2835 161.067 33.3438C161.308 33.384 161.994 33.7463 162.437 34.0685C162.881 34.3907 163.687 34.7732 164.05 34.8335C164.513 35.0347 164.856 35.2159 164.816 35.4578C164.796 35.5787 164.796 35.5787 164.957 35.3569C165.239 35.1553 168.927 36.8864 169.794 37.6517C170.117 37.9538 170.459 38.135 170.701 38.1752C170.822 38.1953 171.044 38.3564 171.024 38.4773C170.984 38.7192 171.105 38.7392 171.366 38.6585C171.487 38.6786 172.072 38.9 172.394 39.2021C172.717 39.5042 173.624 40.0277 174.309 40.39C174.874 40.7323 175.539 41.2156 175.64 41.3566C175.741 41.4976 175.841 41.6386 175.982 41.5378C176.103 41.5579 176.325 41.719 176.547 41.8801C176.749 42.1621 177.091 42.3433 177.333 42.3835C177.817 42.4638 178.804 43.2492 179.067 43.9141C179.268 44.1961 179.389 44.2162 179.55 43.9944C179.571 43.8735 179.691 43.8936 179.812 43.9137C180.175 43.974 180.719 44.4372 180.76 44.9409C180.841 45.2029 181.042 45.4849 181.526 45.5652C182.01 45.6456 182.03 45.5247 181.868 45.0008C181.465 44.4368 181.142 44.1347 180.336 43.7522C179.973 43.692 179.772 43.41 179.691 43.148C179.61 42.8861 179.086 42.302 178.3 41.7986C177.635 41.3153 176.768 40.55 176.344 40.1069C175.921 39.6638 175.377 39.2006 175.135 39.1604C174.893 39.1202 174.671 38.9591 174.671 38.9591C174.691 38.8382 174.369 38.5361 173.885 38.4557C173.422 38.2545 172.978 37.9323 172.998 37.8114C173.018 37.6904 172.897 37.6703 172.777 37.6503C172.495 37.8519 170.398 36.261 170.438 36.0192C170.458 35.8983 170.357 35.7573 170.237 35.7372C170.116 35.7171 169.975 35.8179 169.733 35.7777C169.612 35.7576 169.491 35.7375 169.37 35.7175C169.007 35.6572 168.765 35.617 168.665 35.476C168.463 35.194 167.999 34.9927 167.637 34.9324C167.294 34.7512 166.83 34.55 166.75 34.288C166.669 34.0261 166.326 33.8449 166.205 33.8248C165.964 33.7847 165.843 33.7646 165.601 33.7244C165.117 33.644 164.533 33.4227 164.311 33.2616C164.23 32.9996 163.646 32.7783 163.041 32.6778C162.557 32.5975 161.973 32.3761 161.872 32.2351C161.771 32.0941 161.409 32.0338 161.167 31.9936C160.461 31.7522 159.897 31.4099 159.977 30.9262C160.017 30.6844 160.017 30.6844 159.715 31.0069C159.554 31.2287 159.312 31.1885 158.95 31.1282C158.345 31.0278 157.418 30.6252 155.806 29.8603C154.999 29.4778 154.274 29.3573 153.427 29.2166C153.105 28.9145 152.278 28.653 151.311 28.4923C151.069 28.4521 150.848 28.291 150.747 28.15C150.646 28.009 150.525 27.9889 150.384 28.0897C150.223 28.3114 149.981 28.2713 149.759 28.1102C149.538 27.9491 149.054 27.8687 148.59 27.6674C148.107 27.5871 147.401 27.3456 147.059 27.1644C146.817 27.1242 145.023 26.7019 145.063 26.4601C144.983 26.1982 144.882 26.0572 144.62 26.1379C144.499 26.1178 144.116 26.1785 143.753 26.1182ZM142.403 26.0181C142.161 25.9779 142.141 26.0989 142.242 26.2399C142.222 26.3608 142.323 26.5018 142.444 26.5219C142.444 26.5219 142.585 26.4211 142.605 26.3001C142.625 26.1792 142.524 26.0382 142.403 26.0181ZM141.315 25.8373C141.093 25.6762 140.972 25.6561 141.053 25.918C141.154 26.059 141.617 26.2603 141.637 26.1394C141.658 26.0185 141.557 25.8775 141.315 25.8373ZM138.917 25.3146C138.897 25.4355 138.897 25.4355 139.138 25.4757C139.259 25.4958 139.38 25.5159 139.279 25.3748C139.159 25.3548 139.038 25.3347 138.917 25.3146ZM134.12 24.2691C134.12 24.2691 133.999 24.249 133.979 24.3699L134.08 24.5109C134.201 24.531 134.221 24.4101 134.221 24.4101C134.241 24.2892 134.241 24.2892 134.12 24.2691ZM75.8834 23.2906C75.7625 23.2705 75.7424 23.3914 75.9842 23.4316C76.226 23.4718 76.4879 23.391 76.367 23.371C76.2662 23.2299 76.1453 23.2099 75.8834 23.2906ZM74.1303 23.3721C74.1303 23.3721 74.0094 23.352 73.9893 23.4729L74.0901 23.6139C74.211 23.634 74.2311 23.5131 74.2311 23.5131C74.2512 23.3922 74.2512 23.3922 74.1303 23.3721ZM73.1429 23.3323C72.9412 23.0502 72.7195 22.8891 72.5985 22.8691C72.3567 22.8289 72.2964 23.1916 72.4579 23.7155C72.5386 23.9774 72.5386 23.9774 72.6596 23.9975C72.7805 24.0176 72.9014 24.0377 73.1633 23.9569C73.5662 23.7754 73.5662 23.7754 73.1429 23.3323ZM71.5509 23.192C71.4299 23.1719 71.4299 23.1719 71.4098 23.2928C71.4098 23.2928 71.3898 23.4137 71.5107 23.4338L71.6517 23.333C71.6718 23.2121 71.5509 23.192 71.5509 23.192ZM69.7777 23.3944C69.7777 23.3944 69.6568 23.3743 69.6367 23.4952L69.7375 23.6362C69.8584 23.6563 69.8785 23.5354 69.8785 23.5354C69.8986 23.4145 69.8986 23.4145 69.7777 23.3944ZM69.1329 23.5358C69.012 23.5157 69.012 23.5157 68.9718 23.7575C68.9517 23.8784 68.9316 23.9993 69.0726 23.8985C69.2136 23.7977 69.2337 23.6768 69.1329 23.5358ZM67.9844 23.7177C67.6016 23.7783 67.4806 23.7582 67.6823 24.0403C68.1258 24.3625 68.0049 24.3424 68.186 23.9997C68.3471 23.778 68.2463 23.637 67.9844 23.7177ZM38.1036 30.06C36.7739 30.5846 35.4446 31.8548 36.1701 31.9753C36.4119 32.0155 36.6738 31.9348 36.6939 31.8138C36.7542 31.4511 38.3659 30.7249 39.2525 30.6237C39.6353 30.563 40.0383 30.3815 40.1793 30.2806C40.3203 30.1798 40.5822 30.0991 40.824 30.1393C40.824 30.1393 40.945 30.1593 41.0659 30.1794C41.4286 30.2397 41.6705 30.2799 41.5897 30.018C41.509 29.756 42.0328 29.5946 42.2747 29.6348C42.3956 29.6548 42.4964 29.7959 42.4964 29.7959C42.6173 29.8159 42.7382 29.836 42.7784 29.5942C42.8387 29.2315 45.5788 28.4442 46.4453 28.4639C46.8081 28.5242 47.1909 28.4635 47.2311 28.2217C47.3721 28.1209 47.5131 28.0201 47.755 28.0602C47.8759 28.0803 48.1378 27.9996 48.1579 27.8787C48.178 27.7578 48.4399 27.677 48.6817 27.7172C49.0445 27.7775 49.3064 27.6968 49.4474 27.5959C49.4876 27.3541 50.1323 27.2127 50.757 27.1923C51.4018 27.0509 51.9256 26.8894 52.0465 26.9095C52.0666 26.7886 52.3286 26.7078 52.5704 26.748C52.9331 26.8083 53.7189 26.5661 54.5047 26.3239C55.2904 26.0817 56.0762 25.8395 56.318 25.8797C56.5599 25.9198 57.1845 25.8994 57.7285 25.617C58.3732 25.4756 59.018 25.3342 59.2598 25.3744C59.5017 25.4146 59.7636 25.3339 59.7837 25.213C59.8038 25.092 60.3075 25.0515 62.4636 24.7885C63.0882 24.768 63.9949 24.5459 64.2568 24.4651C64.5188 24.3844 64.7807 24.3037 65.0225 24.3439C65.1434 24.3639 65.2442 24.5049 65.3652 24.525C65.466 24.666 65.5869 24.6861 65.7078 24.7062C65.9497 24.7464 65.9697 24.6255 66.1308 24.4038C66.4329 24.0812 66.594 23.8594 66.4731 23.8394C66.4731 23.8394 66.3522 23.8193 66.2112 23.9201C66.0702 24.0209 65.8083 24.1017 65.6874 24.0816C64.9619 23.961 63.5715 24.1028 62.9268 24.2441C62.423 24.2847 62.0402 24.3453 61.5565 24.265C61.0929 24.0637 60.9519 24.1645 60.9117 24.4064C60.8716 24.6482 60.7506 24.6281 60.5088 24.5879C60.2871 24.4268 60.0251 24.5076 59.7632 24.5883C59.2193 24.8707 57.3252 25.053 56.4587 25.0333C56.2168 24.9931 55.834 25.0537 55.693 25.1545C55.5319 25.3763 54.1215 25.639 52.4692 25.8614C50.9378 26.104 49.5274 26.3667 49.3864 26.4675C49.1245 26.5482 48.6207 26.5888 48.137 26.5084C47.5325 26.408 47.1496 26.4686 47.1295 26.5895C47.1094 26.7104 46.8475 26.7912 46.7065 26.892C46.0818 26.9125 44.2484 27.4776 42.8179 27.8612C42.1731 28.0026 41.3672 28.3657 40.8434 28.5272C40.4204 28.8296 39.8965 28.9911 39.6547 28.9509C38.9292 28.8304 38.5062 29.1329 38.5668 29.5157C38.6476 29.7776 38.4865 29.9994 38.1036 30.06ZM35.3237 31.8347C35.3237 31.8347 35.2028 31.8146 35.1827 31.9355C35.1827 31.9355 35.3036 31.9556 35.4245 31.9757C35.4446 31.8548 35.4446 31.8548 35.3237 31.8347ZM34.6384 31.4723C34.4973 31.5731 34.5982 31.7141 34.7191 31.7342C34.9609 31.7744 34.981 31.6535 35.0011 31.5326C34.8802 31.5125 34.7593 31.4924 34.6384 31.4723ZM12.9241 48.4906C13.2061 48.2889 13.3873 47.9463 13.4274 47.7044C13.4676 47.4626 13.9308 46.9183 14.4949 46.515C14.938 46.0916 15.361 45.7891 15.4012 45.5473C15.2196 45.1444 16.3276 44.4587 16.8112 44.539C17.2949 44.6194 17.315 44.4985 17.1133 44.2165C16.9318 43.8135 16.9519 43.6926 17.7778 43.2086C18.2209 42.7852 18.664 42.3618 18.6841 42.2409C18.7042 42.12 19.1272 41.8175 19.5704 41.3941C20.1143 41.1117 20.5574 40.6883 20.5775 40.5674C20.5976 40.4465 21.0005 40.2649 21.4034 40.0834C21.7863 40.0227 22.2093 39.7203 22.2294 39.5993C22.2897 39.2366 24.4048 37.7242 25.3114 37.5021C25.6943 37.4415 26.2583 37.0382 26.4194 36.8164C26.6207 36.3528 27.4065 36.1106 27.7692 36.1709C27.87 36.3119 28.0311 36.0902 28.2123 35.7475C28.3734 35.5258 28.9575 35.0016 29.7634 34.6384C30.9923 33.9728 31.4756 33.3076 30.9313 32.8444C30.8304 32.7034 30.8706 32.4616 31.0518 32.1189C31.233 31.7763 31.1322 31.6353 31.0112 31.6152C30.8903 31.5951 30.7493 31.6959 30.5075 31.6557C30.1447 31.5954 29.7418 31.777 29.7418 31.777C29.7217 31.8979 29.4598 31.9787 29.3389 31.9586C29.0971 31.9184 28.956 32.0192 29.0368 32.2811C28.9966 32.523 28.9765 32.6439 28.7347 32.6037C28.4928 32.5635 28.3518 32.6643 28.3317 32.7853C28.2916 33.0271 27.143 33.209 26.6795 33.0077C26.2159 32.8065 26.1958 32.9274 26.3774 33.3303C26.5388 33.8542 26.3978 33.955 25.8941 33.9955C25.6322 34.0763 24.8263 34.4394 24.2422 34.9636C23.6782 35.3669 22.9932 35.7501 22.8723 35.73C22.7514 35.7099 22.6104 35.8108 22.5903 35.9317C22.5702 36.0526 22.3083 36.1333 21.9254 36.194C21.5627 36.1337 21.4016 36.3554 21.4016 36.3554C21.4823 36.6174 18.5011 38.8556 18.1383 38.7953C18.1383 38.7953 18.0174 38.7752 18.0982 39.0372C18.199 39.1782 18.058 39.279 17.7961 39.3597C17.5542 39.3196 17.3931 39.5413 17.373 39.6622C17.3529 39.7831 17.0307 40.2266 16.6278 40.4082C16.3257 40.7307 15.8826 41.1541 15.8625 41.275C15.8424 41.396 15.5202 41.8394 14.9763 42.1218C14.4123 42.5251 14.1102 42.8477 14.0901 42.9686C14.3118 43.1297 12.7816 45.609 12.2175 46.0123C11.9154 46.3349 11.7543 46.5567 11.8552 46.6977C12.0769 46.8588 11.9965 47.3424 11.3931 49.4787C11.1717 50.0632 11.0913 50.5469 11.2123 50.567C11.3332 50.5871 11.4943 50.3653 11.5345 50.1235C11.5746 49.8817 11.8767 49.5591 12.0177 49.4583C12.2797 49.3775 12.4408 49.1558 12.481 48.914C12.501 48.793 12.6621 48.5713 12.9241 48.4906ZM10.6557 65.882C10.6356 66.0029 10.6356 66.0029 10.7565 66.023C10.7565 66.023 10.8774 66.0431 10.8975 65.9222L10.7967 65.7812C10.6758 65.7611 10.6557 65.882 10.6557 65.882ZM74.3873 94.3639C74.6492 94.2832 73.8229 94.0216 72.0092 93.7203C70.4172 93.58 69.0871 93.359 69.067 93.4799C69.0469 93.6008 68.0796 93.4401 66.8704 93.2392C64.9358 92.9177 62.2957 92.3548 62.1949 92.2138C61.9731 92.0527 61.7313 92.0125 61.6911 92.2544C61.5501 92.3552 61.0665 92.2748 60.341 92.1543C59.2527 91.9735 57.8218 91.6115 57.3583 91.4102C57.1365 91.2491 57.0156 91.229 56.9754 91.4708C56.9553 91.5918 56.8143 91.6926 56.5725 91.6524C56.3307 91.6122 55.988 91.431 55.7863 91.149C55.5847 90.867 55.363 90.7059 55.3228 90.9477C55.3027 91.0686 55.1617 91.1695 54.7989 91.1092C54.5571 91.069 54.4563 90.928 54.4764 90.8071C54.4964 90.6862 54.2747 90.5251 54.1538 90.505C53.912 90.4648 53.771 90.5656 53.7509 90.6866C51.6953 90.345 49.6598 89.8826 47.6444 89.2992C46.9189 89.1786 46.3344 88.9573 46.0926 88.9171C45.9717 88.897 45.629 88.7158 45.3872 88.6756C45.1655 88.5145 44.2182 88.2329 42.3037 87.7905C41.8401 87.5892 41.2556 87.3679 40.9129 87.1867C40.6912 87.0256 40.0059 86.6632 39.4013 86.5628C38.7967 86.4623 38.1114 86.0999 37.9097 85.8179C37.5872 85.5158 37.3654 85.3547 37.2043 85.5764C37.0633 85.6773 36.8215 85.6371 36.5998 85.476C36.237 85.4157 35.8944 85.2345 35.6525 85.1944C35.5517 85.0533 35.189 84.9931 35.0881 84.8521C34.8463 84.8119 34.3827 84.6106 33.9192 84.4093C32.5083 83.9264 31.3595 83.3628 31.1578 83.0807C31.057 82.9397 30.8151 82.8996 30.6942 82.8795C30.5532 82.9803 29.9888 82.638 29.4244 82.2957C28.9809 81.9735 28.1948 81.4701 27.8321 81.4099C27.4693 81.3496 27.0057 81.1483 26.925 80.8864C26.7033 80.7253 26.1389 80.383 25.6753 80.1817C25.1916 80.1014 24.5264 79.6181 24.2038 79.316C23.7804 78.8729 23.337 78.5507 23.0951 78.5105C22.4905 78.41 21.1802 77.3225 21.2204 77.0807C21.2405 76.9598 21.0187 76.7987 20.7769 76.7585C20.4141 76.6982 19.9506 76.4969 19.7489 76.2149C19.4263 75.9128 19.1038 75.6107 18.9829 75.5906C18.6201 75.5304 17.37 74.0801 17.4303 73.7174C17.4504 73.5965 17.3697 73.3345 17.1278 73.2943C16.7651 73.2341 16.6643 73.0931 16.7044 72.8512C16.7446 72.6094 16.6237 72.5893 16.261 72.529C15.6162 72.6704 13.0353 69.508 12.9743 68.3796C12.9136 67.9967 12.8128 67.8557 12.43 67.9164C12.1881 67.8762 11.9664 67.7151 11.684 67.1712C11.5426 66.5264 11.4418 66.3854 11.2807 66.6071C11.2405 66.849 10.9585 67.0506 10.6765 67.2523C10.2736 67.4338 10.2736 67.4338 10.7773 67.3933C10.8982 67.4134 11.0192 67.4335 11.0192 67.4335C11.261 67.4736 11.3618 67.6146 11.4225 67.9975C11.3823 68.2393 11.5638 68.6422 11.6848 68.6623C11.8057 68.6824 12.1491 70.3548 11.9679 70.6974C11.9478 70.8184 12.2101 71.4832 12.7343 72.0673C13.4401 73.0544 13.5208 73.3163 13.1785 73.8807C12.9772 74.3443 12.9572 74.4652 13.3802 74.1627C13.5212 74.0619 13.6421 74.082 13.763 74.1021C14.0048 74.1422 14.2266 74.3033 14.1864 74.5452C14.1663 74.6661 14.9729 75.7941 15.8803 77.0632C17.1911 78.8963 17.4735 79.4402 17.4132 79.803C17.232 80.1456 17.2119 80.2665 17.3328 80.2866C17.4537 80.3067 17.5947 80.2059 17.8567 80.1252C17.9977 80.0243 17.9977 80.0243 18.1186 80.0444C18.2395 80.0645 18.3403 80.2055 18.542 80.4875C18.7436 80.7696 18.9654 80.9307 18.9654 80.9307C19.1064 80.8298 19.2072 80.9708 19.2679 81.3537C19.2277 81.5955 19.6511 82.0386 20.2155 82.3809C20.6589 82.7031 21.3242 83.1864 21.6266 83.6094C22.2115 84.5764 22.514 84.9994 22.8767 85.0597C22.9976 85.0798 23.0177 84.9588 23.1387 84.9789C23.3805 85.0191 23.6022 85.1802 23.7031 85.3212C23.7838 85.5831 24.0055 85.7442 24.1465 85.6434C24.2875 85.5426 24.8318 86.0058 25.4971 86.4891C26.1623 86.9724 26.8275 87.4557 27.0694 87.4958C27.3112 87.536 27.7748 87.7373 27.9764 88.0193C28.1981 88.1804 28.4199 88.3415 28.5609 88.2407C28.6818 88.2608 28.9236 88.301 29.0245 88.442C29.2261 88.724 29.468 88.7642 29.7098 88.8043C29.8508 88.7035 30.4353 88.9249 30.8788 89.2471C31.544 89.7304 32.1084 90.0727 32.4711 90.1329C32.713 90.1731 32.8339 90.1932 32.854 90.0723C32.854 90.0723 32.995 89.9715 33.1159 89.9916C33.2368 90.0116 33.4585 90.1727 33.6803 90.3338C34.1439 90.5351 34.8493 90.7766 35.4539 90.877C36.0584 90.9775 37.2475 91.2993 37.9529 91.5408C39.142 91.8626 41.1775 92.3251 42.7494 92.5862C43.8376 92.767 44.7041 92.7868 44.7041 92.7868C44.7242 92.6659 44.8451 92.6859 45.087 92.7261C45.4497 92.7864 45.8932 93.1086 45.994 93.2496C46.0747 93.5115 46.2157 93.4107 46.4978 93.209C46.6388 93.1082 46.9007 93.0275 47.3844 93.1078C49.8027 93.5097 52.2612 93.6696 54.7197 93.8296C55.687 93.9904 56.5535 94.0101 56.6744 94.0302C56.8154 93.9293 57.1782 93.9896 57.42 94.0298C57.6618 94.07 58.0246 94.1302 58.0045 94.2512C58.1053 94.3922 58.2061 94.5332 58.3271 94.5533C58.448 94.5734 58.589 94.4725 58.6292 94.2307C58.6694 93.9889 58.8104 93.888 59.0321 94.0491C59.153 94.0692 59.3948 94.1094 59.5158 94.1295C59.6568 94.0287 60.4024 94.0283 61.3697 94.189C62.2161 94.3297 63.2236 94.2486 63.3646 94.1477C63.5056 94.0469 63.8684 94.1072 64.1102 94.1474C64.4529 94.3286 64.5738 94.3486 64.5939 94.2277C64.614 94.1068 65.2386 94.0863 65.9641 94.2069C66.5687 94.3073 67.5561 94.3472 68.0599 94.3066C68.4427 94.246 69.5711 94.1849 70.2966 94.3055C71.143 94.4461 71.7677 94.4257 71.7878 94.3047C71.8079 94.1838 72.2916 94.2642 72.8961 94.3646C73.5007 94.4651 74.2463 94.4647 74.3873 94.3639ZM186.459 77.1998C186.6 77.099 186.62 76.9781 186.539 76.7162C186.559 76.5953 186.438 76.5752 186.398 76.817C186.358 77.0588 186.439 77.3208 186.459 77.1998ZM185.722 53.9661C185.681 54.2079 185.258 53.7648 184.109 52.4556C183.887 52.2945 183.786 52.1535 183.665 52.1334C183.544 52.1133 183.323 51.9522 183.121 51.6702C183.02 51.5292 182.798 51.3681 182.677 51.348C182.536 51.4488 182.456 51.1869 182.274 50.784C182.093 50.381 181.992 50.24 181.851 50.3409C181.831 50.4618 181.71 50.4417 181.589 50.4216C181.468 50.4015 181.347 50.3814 181.145 50.0994C180.964 49.6965 180.52 49.3743 180.399 49.3542C180.158 49.314 179.734 48.8709 179.311 48.4278C179.008 48.0048 178.464 47.5416 178.101 47.4813C177.739 47.421 177.073 46.9377 176.65 46.4946C176.206 46.1724 175.662 45.7092 175.541 45.6891C175.299 45.6489 174.614 45.2866 174.05 44.9443C173.505 44.4811 173.062 44.1589 172.921 44.2597C172.8 44.2396 172.578 44.0785 172.377 43.7965C172.175 43.5145 171.611 43.1722 171.147 42.9709C170.804 42.7897 170.341 42.5885 170.341 42.5885C170.22 42.5684 169.776 42.2462 169.313 42.0449C168.869 41.7227 168.426 41.4005 168.305 41.3804C168.063 41.3402 167.479 41.1189 166.813 40.6356C166.128 40.2732 164.536 39.3874 163.387 38.8237C162.137 38.119 161.129 37.4546 161.008 37.4345C160.907 37.2935 160.323 37.0721 159.718 36.9716C159.114 36.8712 158.67 36.549 158.449 36.3879C158.348 36.2469 158.106 36.2067 157.985 36.1866C157.844 36.2874 157.501 36.1062 157.159 35.9251C156.614 35.4619 155.687 35.0593 154.619 34.7576C154.256 34.6973 153.914 34.5161 153.914 34.5161C153.793 34.496 153.692 34.355 153.692 34.355C153.571 34.3349 152.986 34.1135 152.281 33.8721C151.596 33.5097 150.528 33.208 150.064 33.0067C149.48 32.7853 149.016 32.584 148.794 32.4229C148.693 32.2819 148.472 32.1208 148.331 32.2217C148.21 32.2016 147.605 32.1011 146.9 31.8597C146.194 31.6182 144.904 31.1554 143.957 30.8737C143.01 30.5921 141.942 30.2904 141.599 30.1092C140.309 29.6463 139.221 29.4655 137.79 29.1035C134.807 28.3594 132.55 27.7359 132.228 27.4338C132.006 27.2727 131.885 27.2526 131.845 27.4944C131.825 27.6153 131.684 27.7161 131.684 27.7161C131.442 27.676 131.22 27.5149 131.018 27.2329C130.918 27.0918 130.817 26.9508 130.575 26.9107C130.454 26.8906 130.333 26.8705 130.071 26.9512C129.829 26.911 128.479 26.8109 127.149 26.5899C125.214 26.2685 123.058 25.7859 122.595 25.5847C122.373 25.4236 122.111 25.5043 121.97 25.6051C121.829 25.706 122.051 25.8671 122.393 26.0482C122.877 26.1286 123.199 26.4307 123.28 26.6926C123.502 26.8537 123.724 27.0148 123.865 26.914C123.986 26.9341 124.328 27.1153 124.409 27.3772C124.611 27.6592 124.611 27.6592 124.49 27.6391C124.268 27.478 122.474 27.0557 120.419 26.7142C117.517 26.232 114.111 25.7904 114.071 26.0322C114.051 26.1532 113.829 25.9921 113.607 25.831C113.265 25.6498 113.043 25.4887 112.801 25.4485C112.68 25.4284 112.539 25.5292 112.398 25.6301C112.358 25.8719 111.733 25.8924 111.008 25.7718C110.282 25.6513 109.658 25.6717 109.517 25.7725C109.376 25.8734 108.65 25.7528 107.804 25.6122C106.957 25.4716 106.212 25.4719 106.071 25.5728C106.051 25.6937 105.789 25.7744 105.446 25.5932C105.224 25.4321 104.841 25.4928 104.7 25.5936C104.418 25.7952 104.056 25.735 103.814 25.6948C103.572 25.6546 103.33 25.6144 103.088 25.5742C102.726 25.514 102.363 25.4537 102 25.3934C101.778 25.2323 101.537 25.1921 101.375 25.4139C101.234 25.5147 100.59 25.6561 99.965 25.6766C99.4813 25.5962 98.6148 25.5765 98.1111 25.617C97.6274 25.5367 96.8818 25.537 96.3781 25.5776C96.0153 25.5173 95.6526 25.457 95.2898 25.3968C95.048 25.3566 94.8062 25.3164 94.6652 25.4172C94.1011 25.8205 92.1263 25.7409 91.4008 25.6204C91.0581 25.4392 90.9171 25.54 90.877 25.7818C90.8167 26.1446 90.6958 26.1245 90.3531 25.9433C90.0104 25.7621 89.6678 25.5809 89.426 25.5407C89.2042 25.3797 88.9222 25.5813 88.7812 25.6821C88.6 26.0248 88.2172 26.0854 87.4917 25.9649C86.8871 25.8644 86.2624 25.8849 86.1214 25.9857C85.9603 26.2075 85.3356 26.2279 84.5901 26.2283C83.8646 26.1077 83.2198 26.2491 83.0989 26.229C83.0788 26.35 82.8169 26.4307 82.4742 26.2495C82.2324 26.2093 81.8495 26.27 81.4667 26.3306C81.3257 26.4314 81.0839 26.3913 80.963 26.3712C80.842 26.3511 80.7211 26.331 80.4994 26.1699C80.1768 25.8678 80.0559 25.8477 79.9956 26.2104C79.9153 26.6941 79.7943 26.674 77.1547 26.8567C76.7718 26.9173 76.2681 26.9579 76.1672 26.8169C76.0463 26.7968 75.7844 26.8775 75.7643 26.9984C75.7442 27.1193 75.6233 27.0993 75.5024 27.0792C75.2806 26.9181 74.8978 26.9787 74.7568 27.0795C74.4949 27.1603 74.233 27.241 74.1321 27.1C74.0313 26.959 73.6485 27.0196 73.3665 27.2213C72.7016 27.4836 70.4046 27.8474 69.5582 27.7068C69.2962 27.7875 68.7925 27.8281 68.6515 27.9289C68.3695 28.1306 68.1276 28.0904 68.0268 27.9494C67.9059 27.9293 67.785 27.9092 67.7649 28.0301C67.7448 28.151 67.1201 28.1715 66.4954 28.192C65.7499 28.1923 65.226 28.3538 65.085 28.4546C65.0448 28.6965 64.662 28.7571 64.2992 28.6968C63.9365 28.6366 63.1708 28.7578 62.647 28.9193C62.1231 29.0808 61.2365 29.182 60.6119 29.2024C60.1282 29.1221 59.4834 29.2635 59.3223 29.4852C59.1813 29.586 58.7985 29.6467 58.6776 29.6266C58.073 29.5261 56.2797 29.8494 54.7082 30.3338C53.9224 30.576 53.2776 30.7174 53.0358 30.6772C52.794 30.6371 50.3158 31.3436 48.3413 32.0095C47.9585 32.0702 47.5756 32.1308 47.4748 31.9898C47.3539 31.9697 47.233 31.9496 47.2129 32.0706C47.1526 32.4333 45.3191 32.9985 44.7146 32.898C44.4727 32.8578 44.0899 32.9185 44.0497 33.1603C43.9087 33.2611 43.7677 33.3619 43.5259 33.3218C43.4049 33.3017 43.284 33.2816 43.1631 33.2615C42.5585 33.161 42.4376 33.1409 42.3774 33.5037C42.3171 33.8664 41.9342 33.9271 41.5715 33.8668C41.3297 33.8266 41.0878 33.7865 40.987 33.6454C40.6644 33.3433 40.6644 33.3433 40.705 33.8471C40.8665 34.3709 39.3757 35.1173 38.5292 34.9766C38.1665 34.9164 37.6025 35.3197 37.079 36.2267C36.7568 36.6702 36.3338 36.9727 36.2129 36.9526C36.0919 36.9325 36.1727 37.1944 36.3743 37.4764C36.5559 37.8794 36.3747 38.222 35.891 38.1417C35.7701 38.1216 35.6693 37.9806 35.5484 37.9605C35.3066 37.9203 35.1856 37.9002 35.0245 38.1219C35.0044 38.2429 34.7626 38.2027 34.6417 38.1826C34.158 38.1022 33.5735 37.8808 33.392 37.4779C33.1903 37.1959 33.1903 37.1959 33.0292 37.4176C32.969 37.7804 30.5514 38.8698 29.6447 39.0919C29.3828 39.1726 29.2418 39.2734 29.2016 39.5153C29.1614 39.7571 28.8995 39.8378 28.6577 39.7976C28.4158 39.7575 28.1539 39.8382 28.1338 39.9591C28.0936 40.2009 23.1785 43.6089 22.2517 43.9519C21.9898 44.0327 21.8086 44.3753 21.7684 44.6172C21.6881 45.1008 21.1642 45.2623 20.8015 45.202C20.5596 45.1618 20.4588 45.0208 20.358 44.8798C20.2772 44.6179 20.1563 44.5978 20.0153 44.6986C19.8944 44.6786 19.9551 45.0614 20.1567 45.3434C20.4592 45.7664 20.4391 45.8873 19.714 46.5124C19.3918 46.9559 19.0897 47.2784 19.0696 47.3993C19.1905 47.4194 18.9085 47.6211 18.5055 47.8026C18.2235 48.0043 17.9415 48.2059 17.9013 48.4478C17.8812 48.5687 17.5992 48.7703 17.4582 48.8712C17.2971 49.0929 17.1561 49.1937 17.136 49.3147C16.9348 49.7782 16.4515 50.4435 16.1895 50.5242C15.9276 50.6049 15.7665 50.8267 15.7263 51.0685C15.6259 51.6731 14.5183 53.1043 13.6923 53.5884C12.9873 54.0925 12.9672 54.2134 13.3705 54.7775C13.5722 55.0595 13.5521 55.1804 13.25 55.5029C12.968 55.7046 12.7667 56.1682 12.7265 56.41C12.6662 56.7728 12.3641 57.0953 12.062 57.4179C11.498 57.8212 11.4779 57.9421 11.6996 58.1032C11.9214 58.2643 12.3046 58.9492 12.5468 59.735C12.8091 60.3999 13.132 61.4476 13.3136 61.8505C13.6161 62.2735 13.7775 62.7973 13.7574 62.9183C13.7374 63.0392 13.939 63.3212 14.2616 63.6233C14.4632 63.9053 14.7657 64.3283 14.7054 64.6911C14.7862 64.953 15.0685 65.4969 15.4919 65.94C15.8145 66.2422 16.4395 66.9673 16.7219 67.5112C17.0244 67.9342 17.4478 68.3773 17.4478 68.3773C17.5687 68.3974 18.0929 68.9816 18.5971 69.6866C19.1213 70.2707 19.6455 70.8548 19.7664 70.8749C20.0082 70.9151 21.5002 72.4055 21.7018 72.6875C21.8026 72.8285 22.0244 72.9896 22.367 73.1708C22.5888 73.3319 23.3749 73.8353 23.9192 74.2985C24.4635 74.7617 25.2497 75.2651 25.935 75.6275C26.9429 76.292 27.3863 76.6141 27.6483 76.5334C27.6483 76.5334 27.9708 76.8355 28.1524 77.2384C28.2331 77.5004 28.4549 77.6615 28.5758 77.6816C28.6967 77.7016 28.6967 77.7016 28.8377 77.6008C28.9586 77.6209 29.0996 77.5201 29.2205 77.5402C29.3415 77.5603 29.4423 77.7013 29.664 77.8624C29.8657 78.1444 30.1882 78.4465 30.4301 78.4867C30.6719 78.5269 31.1154 78.849 31.317 79.1311C31.6396 79.4332 31.7404 79.5742 31.8614 79.5943C31.9823 79.6144 31.9823 79.6144 32.1233 79.5135C32.2643 79.4127 32.3852 79.4328 32.5061 79.4529C32.627 79.473 32.8689 79.5132 33.0705 79.7952C33.4132 79.9764 33.7558 80.1575 33.8968 80.0567C34.0177 80.0768 34.3604 80.258 34.683 80.5601C35.0256 80.7413 35.7109 81.1037 36.1946 81.184C36.6783 81.2644 37.1218 81.5866 37.3435 81.7477C37.4443 81.8887 38.0489 81.9891 38.5125 82.1904C38.9961 82.2708 39.8225 82.5323 40.1651 82.7135C40.5078 82.8947 41.1931 83.2571 41.6768 83.3375C42.7449 83.6392 44.6394 84.2025 46.01 84.9272C46.5945 85.1486 46.9372 85.3298 47.4208 85.4101C49.1136 85.6914 50.6655 86.0735 52.3382 86.4757C54.3536 87.0591 55.7845 87.4211 57.961 87.7827C59.15 88.1045 60.2383 88.2854 60.3391 88.4264C60.7826 88.7486 61.2462 88.9498 61.2863 88.708L61.3064 88.5871C61.3064 88.5871 61.8102 88.5465 62.5357 88.6671C63.3821 88.8077 64.5712 89.1295 64.672 89.2705C64.7929 89.2906 64.9138 89.3107 65.1757 89.23C65.5385 89.2903 66.0222 89.3706 66.3849 89.4309C66.7276 89.6121 66.9694 89.6523 67.0903 89.6724C67.3321 89.7125 67.4531 89.7326 67.4732 89.6117C67.6142 89.5109 67.7552 89.4101 67.9769 89.5712C68.0978 89.5913 68.3397 89.6314 68.3597 89.5105C68.4807 89.5306 69.2262 89.5302 69.9517 89.6508C71.1609 89.8517 72.4709 90.1936 72.6926 90.3547C72.7935 90.4957 73.0554 90.415 73.0755 90.2941C73.2366 90.0723 73.7403 90.0318 75.0704 90.2528C76.0377 90.4135 77.0051 90.5742 77.126 90.5943C77.267 90.4935 77.7506 90.5738 78.1134 90.6341C78.5971 90.7145 79.0807 90.7948 79.2418 90.5731C79.6046 90.6334 80.0882 90.7137 80.451 90.774C80.6727 90.9351 80.9145 90.9753 81.0355 90.9954C81.1564 91.0155 81.2773 91.0356 81.2974 90.9146C81.4384 90.8138 82.0631 90.7933 83.0304 90.9541C83.8768 91.0947 84.7232 91.2353 84.8642 91.1345C85.0052 91.0337 85.6299 91.0132 85.9926 91.0735C87.8064 91.3749 88.552 91.3745 89.6804 91.3135C90.7887 91.3734 92.4008 91.3927 94.8392 91.6736C95.343 91.6331 95.8267 91.7134 95.9476 91.7335C96.0886 91.6327 97.5597 91.7529 98.4061 91.8935C98.8897 91.9739 99.2726 91.9132 99.2927 91.7923C99.3128 91.6714 99.8165 91.6308 100.3 91.7112C100.905 91.8117 101.61 92.0531 101.832 92.2142C101.913 92.4761 102.175 92.3954 102.356 92.0527C102.638 91.8511 102.779 91.7503 103.142 91.8105C103.383 91.8507 103.605 92.0118 104.069 92.2131C104.411 92.3943 104.532 92.4144 104.593 92.0516C104.633 91.8098 104.653 91.6889 104.895 91.7291C105.136 91.7692 105.237 91.9103 105.6 91.9705C106.205 92.071 106.688 92.1513 106.708 92.0304C106.749 91.7886 107.756 91.7075 109.469 91.8678C110.194 91.9884 111.081 91.8872 111.222 91.7864C111.484 91.7056 111.605 91.7257 111.827 91.8868C111.927 92.0278 112.048 92.0479 112.29 92.0881C112.532 92.1283 112.774 92.1685 113.298 92.007C113.963 91.7447 114.708 91.7443 114.95 91.7845C115.172 91.9456 115.414 91.9858 115.434 91.8649C115.575 91.764 115.816 91.8042 116.058 91.8444C116.28 92.0055 116.542 91.9248 116.562 91.8039C116.602 91.562 116.723 91.5821 116.925 91.8641C117.046 91.8842 117.147 92.0252 117.267 92.0453C117.509 92.0855 117.65 91.9847 117.912 91.9039C118.174 91.8232 118.436 91.7425 118.799 91.8027C118.799 91.8027 118.92 91.8228 119.041 91.8429C119.403 91.9032 119.766 91.9635 119.786 91.8425C119.927 91.7417 120.31 91.6811 120.794 91.7614C121.157 91.8217 121.781 91.8013 122.063 91.5996C122.325 91.5189 123.333 91.4378 124.3 91.5985C125.287 91.6383 126.134 91.7789 126.275 91.6781C126.678 91.4965 128.955 91.2536 132.34 91.0706C133.972 90.969 135.503 90.7264 135.886 90.6658C136.027 90.5649 136.39 90.6252 136.632 90.6654C136.753 90.6855 136.753 90.6855 136.874 90.7056C137.095 90.8667 137.357 90.7859 137.639 90.5843C137.78 90.4835 138.183 90.3019 138.546 90.3622C138.909 90.4224 139.534 90.402 140.057 90.2405C140.561 90.2 141.065 90.1594 141.186 90.1795C141.287 90.3205 141.669 90.2599 141.951 90.0582C142.213 89.9775 142.596 89.9168 142.959 89.9771C143.201 90.0173 143.846 89.8759 144.349 89.8354C144.752 89.6538 145.498 89.6534 145.861 89.7137C146.223 89.774 146.606 89.7133 146.767 89.4916C146.787 89.3707 147.553 89.2494 148.44 89.1482C149.306 89.1679 150.334 88.9659 150.596 88.8851C150.978 88.8245 151.361 88.7639 151.482 88.7839C151.724 88.8241 151.986 88.7434 152.248 88.6627C153.054 88.2995 156.237 87.8345 156.338 87.9755C156.439 88.1165 156.439 88.1165 156.479 87.8747C156.499 87.7537 157.003 87.7132 157.507 87.6726C158.011 87.6321 158.514 87.5915 158.534 87.4706C158.555 87.3497 158.937 87.2891 159.461 87.1276C159.965 87.087 160.61 86.9457 161.013 86.7641C162.806 86.4408 164.216 86.1781 165.949 85.472C166.997 85.149 167.923 84.806 168.085 84.5843C168.346 84.5035 168.488 84.4027 168.608 84.4228C168.729 84.4429 169.394 84.1806 169.938 83.8982C170.482 83.6158 171.268 83.3736 171.631 83.4339C171.872 83.4741 172.134 83.3933 172.034 83.2523C171.933 83.1113 172.477 82.8289 172.96 82.9093C173.081 82.9294 173.202 82.9495 173.303 83.0905C173.505 83.3725 173.908 83.1909 173.726 82.788C173.766 82.5462 175.357 81.1953 175.72 81.2555C175.841 81.2756 176.264 80.9732 176.828 80.5699C177.372 80.2875 178.46 79.7227 178.802 79.1583C179.104 78.8357 179.648 78.5534 179.89 78.5935C180.132 78.6337 180.394 78.553 180.293 78.412C180.313 78.2911 180.776 77.7468 181.481 77.2426C182.186 76.7385 182.65 76.1942 182.69 75.9524C182.71 75.8314 182.851 75.7306 182.972 75.7507C183.093 75.7708 183.415 75.3273 183.878 74.783C184.22 74.2186 184.986 73.3517 185.429 72.9283C185.993 72.525 186.295 72.2025 186.174 72.1824C185.952 72.0213 185.972 71.9004 186.254 71.6987C186.395 71.5979 186.556 71.3762 186.476 71.1142C186.496 70.9933 186.536 70.7515 186.657 70.7716C186.798 70.6708 186.979 70.3281 187.059 69.8444C187.12 69.4817 187.321 69.0181 187.583 68.9374C187.744 68.7156 188.006 67.8893 188.227 66.5592C188.407 65.471 188.709 64.4028 188.85 64.302C189.011 64.0803 189.031 63.9594 188.81 63.7983C188.709 63.6573 188.628 63.3953 188.769 63.2945C188.769 63.2945 188.809 62.3071 188.728 61.2996C188.627 60.413 188.646 59.5465 188.787 59.4457C188.968 59.103 188.423 57.1486 188.101 56.8465C188 56.7055 187.919 56.4436 187.939 56.3227C187.98 56.0808 187.879 55.9398 187.617 56.0206C187.375 55.9804 187.254 55.9603 187.274 55.8394C187.294 55.7185 187.193 55.5775 187.073 55.5574C186.831 55.5172 186.528 55.0942 186.226 54.6711C185.923 54.2481 185.722 53.9661 185.722 53.9661Z" fill="#780000"/>
</svg>
