<svg fill="none" height="54" viewBox="0 0 186 54" width="186" xmlns="http://www.w3.org/2000/svg">
  <path
    d="M183.763 22.4779C183.738 22.7409 183.463 22.8478 183.332 22.8356C183.069 22.8111 182.662 22.9058 182.519 23.025C182.375 23.1442 181.705 23.2144 181.048 23.1532C180.247 23.2112 179.577 23.2814 179.446 23.2691C179.171 23.3761 178.776 23.3393 178.382 23.3026C178.131 23.1466 177.868 23.1221 177.856 23.2536C177.819 23.648 174.603 24.0113 173.826 23.8064C173.695 23.7941 173.563 23.7819 173.432 23.7696C173.169 23.7451 172.906 23.7206 172.775 23.7084C172.499 23.8154 171.698 23.8733 171.173 23.8243C169.583 23.8088 167.192 23.8512 165.458 23.9549C164.92 24.0374 164.394 23.9884 164.131 23.9639C163.606 23.9149 163.08 23.8659 162.661 24.0921C162.123 24.1746 161.716 24.2693 161.453 24.2448C160.796 24.1835 160.557 23.8961 160.594 23.5017C160.619 23.2388 160.475 23.358 160.031 23.8471C159.732 24.217 159.457 24.324 159.325 24.3117C159.062 24.2872 158.943 24.1435 158.561 23.9753C158.31 23.8193 158.179 23.8071 158.047 23.7948C157.916 23.7826 157.784 23.7703 157.772 23.9018C157.748 24.1647 157.197 24.3787 156.671 24.3297C156.54 24.3174 156.277 24.2929 156.158 24.1492C156.026 24.137 156.026 24.137 155.895 24.1247C155.632 24.1002 155.238 24.0635 154.962 24.1704C154.556 24.2652 152.954 24.3811 151.232 24.3533C149.523 24.1941 148.196 24.203 148.053 24.3223C147.897 24.5729 146.307 24.5574 144.335 24.3737C143.941 24.3369 143.008 24.3827 142.338 24.4529C141.119 24.737 137.795 24.8252 135.56 24.617C134.771 24.5435 134.246 24.4945 134.233 24.6259C134.209 24.8889 133.946 24.8644 133.827 24.7206C133.564 24.6961 133.169 24.6594 132.763 24.7541C132.619 24.8733 132.488 24.8611 132.356 24.8488C132.093 24.8243 131.962 24.8121 131.842 24.6684C131.723 24.5247 131.46 24.5002 131.185 24.6071C131.041 24.7263 130.372 24.7966 129.571 24.8545C127.455 24.79 127.049 24.8847 126.905 25.0039C126.893 25.1354 126.761 25.1232 126.498 25.0987C126.367 25.0864 126.235 25.0742 125.985 24.9182C125.602 24.75 125.208 24.7132 125.077 24.701C124.789 24.9394 123.45 25.0799 121.203 25.0031C120.402 25.0611 119.732 25.1313 119.732 25.1313C119.72 25.2627 119.457 25.2382 119.326 25.226C119.063 25.2015 118.8 25.177 118.549 25.021C117.892 24.9598 117.366 24.9108 117.222 25.03C116.947 25.137 116.146 25.1949 115.094 25.0969C114.042 24.999 113.11 25.0447 112.823 25.2831C112.547 25.3901 112.272 25.497 112.141 25.4848C111.878 25.4603 111.759 25.3166 111.627 25.3043C111.245 25.1361 110.982 25.1116 110.838 25.2308C110.826 25.3623 110.144 25.564 109.355 25.4905C108.554 25.5485 107.61 25.7256 106.64 26.1658C105.803 26.6181 104.965 27.0705 104.558 27.1652C101.268 28.3173 100.18 28.6137 99.2474 28.6594C98.7093 28.7419 98.3026 28.8366 98.2904 28.9681C98.2536 29.3625 98.7427 29.8059 99.4001 29.8671C99.663 29.8916 99.9137 30.0476 100.033 30.1913C100.152 30.335 100.403 30.491 100.546 30.3718C101.503 30.0631 102.417 33.0656 101.448 33.5057C101.173 33.6127 101.161 33.7441 101.399 34.0316C101.506 34.3067 101.362 34.4259 100.656 34.8906C100.237 35.1167 99.6621 35.5936 99.3747 35.832C99.0873 36.0705 98.5369 36.2844 98.1425 36.2477C97.6167 36.1987 97.3415 36.3056 97.3292 36.4371C97.3047 36.7 97.0296 36.807 96.6229 36.9017C94.8649 37.2683 93.7397 37.9591 94.9106 38.2008C95.0421 38.2131 94.7424 38.583 94.1798 38.9284C93.4735 39.393 92.7794 39.7261 92.6479 39.7139C92.385 39.6894 92.1098 39.7963 91.9538 40.047C91.9416 40.1785 91.2598 40.3802 90.578 40.5819C89.9084 40.6521 88.9636 40.8293 88.5447 41.0554C87.1933 41.3273 86.5115 41.529 85.9857 41.48C85.7227 41.4555 85.4598 41.431 85.3406 41.2873C85.0899 41.1314 84.9584 41.1191 84.827 41.1069C84.6955 41.0946 84.5518 41.2138 84.6588 41.489C84.7412 42.0271 83.5091 42.4427 82.3259 42.3325C81.9315 42.2957 81.6563 42.4027 81.5126 42.5219C81.3689 42.6411 80.4364 42.6869 79.3724 42.7203C78.3207 42.6223 77.2445 42.7873 76.9693 42.8942C76.6941 43.0012 76.2997 42.9645 76.0368 42.94C75.9176 42.7962 75.7739 42.9155 75.7616 43.0469C75.7494 43.1784 75.4742 43.2854 75.3427 43.2731C75.0798 43.2486 74.9606 43.1049 75.1165 42.8542C75.2602 42.735 75.4285 42.3529 75.4407 42.2214C75.4775 41.827 77.3702 40.0143 77.6332 40.0388C77.8961 40.0633 78.0398 39.944 78.1958 39.6934C78.3762 39.1798 78.3885 39.0483 77.9941 39.0115C77.5997 38.9748 77.5417 38.1738 77.9606 37.9476C78.1043 37.8284 78.2603 37.5777 78.1411 37.434C78.0586 36.8959 79.303 36.3488 82.0058 35.805C82.6754 35.7348 83.345 35.6645 83.6202 35.5576C83.7639 35.4384 84.0268 35.4629 84.1583 35.4751C84.8278 35.4049 86.0478 35.1207 86.3229 35.0138C86.6104 34.7753 89.4446 34.2438 89.9705 34.2928C91.5481 34.4398 93.3918 33.1529 91.9457 33.0182C91.2884 32.9569 90.4996 32.8834 90.2489 32.7274C89.8545 32.6907 89.0535 32.7487 88.2525 32.8066C87.5706 33.0083 86.2438 33.0173 85.3235 32.9315C84.4032 32.8458 83.6145 32.7723 83.4707 32.8915C83.1956 32.9985 81.6057 32.983 80.6855 32.8972C80.4226 32.8727 79.8844 32.9552 79.7407 33.0744C79.0712 33.1446 78.1387 33.1903 77.3499 33.1169C75.7723 32.9699 75.5094 32.9454 75.2219 33.1838C75.0782 33.303 74.6716 33.3977 74.4086 33.3732C73.7513 33.312 72.137 33.5594 69.9846 33.8893C67.6884 34.3383 65.2731 34.6437 64.8909 34.4755C64.7595 34.4633 64.3528 34.558 64.0776 34.6649C63.3958 34.8666 61.6745 34.8389 61.0172 34.7776C60.7543 34.7531 60.4913 34.7286 60.3599 34.7164C59.834 34.6674 59.4519 34.4991 59.2134 34.2117C58.8435 33.912 58.4736 33.6124 58.3422 33.6001C57.8163 33.5511 57.8653 33.0253 58.2842 32.7991C58.4279 32.6799 58.4524 32.4169 58.2017 32.261C57.8563 31.6984 58.8623 30.8639 60.3452 30.6042C60.8833 30.5217 61.6966 30.3323 62.1032 30.2376C62.3784 30.1306 62.7728 30.1674 62.9043 30.1796C63.0357 30.1919 63.0357 30.1919 63.0602 29.9289C63.0725 29.7975 63.7298 29.8587 64.7815 29.9567C65.8332 30.0547 66.3591 30.1037 66.3714 29.9722C66.4204 29.4464 70.4133 29.288 71.465 29.386C71.621 29.1353 72.422 29.0773 74.1433 29.1051C74.9321 29.1786 75.6017 29.1084 75.7576 28.8577C75.9013 28.7385 76.1765 28.6315 76.4272 28.7875C76.8216 28.8242 77.0845 28.8487 77.0845 28.8487C77.265 28.3351 82.2149 27.8681 83.0037 27.9416C83.3981 27.9783 83.5418 27.8591 83.6855 27.7399C83.8415 27.4892 83.9852 27.37 84.2481 27.3945C84.3796 27.4068 84.6303 27.5627 84.7372 27.8379C84.8565 27.9816 84.8442 28.1131 84.9757 28.1253C85.1071 28.1376 85.1194 28.0061 85.4191 27.6362C86.0062 27.0279 87.2261 26.7437 88.6845 26.747C89.2103 26.796 89.7607 26.5821 90.0359 26.4751C90.1796 26.3559 90.3233 26.2367 90.5862 26.2612C90.8491 26.2857 90.9684 26.4294 91.2313 26.4539C91.3628 26.4661 91.4942 26.4784 91.6257 26.4906C91.8886 26.5151 92.0323 26.3959 92.0446 26.2645C92.0691 26.0015 92.3565 25.7631 92.6194 25.7876C93.3013 25.5859 93.494 24.9408 92.8366 24.8796C92.7052 24.8673 92.5615 24.9866 92.6684 25.2617C92.7631 25.6684 92.5002 25.6439 91.58 25.5581C91.317 25.5336 91.1856 25.5214 91.1733 25.6528C91.1611 25.7843 90.623 25.8668 89.9656 25.8055C88.3758 25.79 86.1164 25.8447 85.9727 25.9639C85.8412 25.9517 85.5906 25.7957 85.3521 25.5083C84.9945 25.0771 84.9945 25.0771 84.6948 25.447C84.5388 25.6977 84.1322 25.7924 83.7378 25.7557C83.3434 25.7189 82.949 25.6822 82.8053 25.8014C82.5301 25.9084 82.2672 25.8839 82.148 25.7402C82.0288 25.5964 81.7536 25.7034 81.6099 25.8226C81.4539 26.0733 81.3224 26.0611 80.8211 25.7491C80.4512 25.4495 80.3197 25.4372 80.1638 25.6879C80.1393 25.9508 79.7449 25.9141 79.3505 25.8773C79.0875 25.8528 78.6931 25.8161 78.4547 25.5286C78.2163 25.2412 78.0848 25.229 77.7974 25.4674C77.5222 25.5744 77.3785 25.6936 77.2593 25.5499C77.1401 25.4062 77.1278 25.5376 77.1033 25.8005C77.0788 26.0635 76.8036 26.1704 76.1463 26.1092C75.7519 26.0724 74.5687 25.9622 73.6362 26.0079C72.5723 26.0414 71.3768 26.0626 70.9825 26.0259C70.5881 25.9891 69.5241 26.0226 68.5916 26.0683C68.1972 26.0316 67.7906 26.1263 67.5276 26.1018C67.1332 26.065 66.8825 25.9091 66.6564 25.4902C66.4179 25.2028 66.1795 24.9153 66.048 24.9031C65.9166 24.8908 65.8921 25.1538 65.8676 25.4167C65.9623 25.8233 65.8186 25.9425 65.2805 26.025C64.8738 26.1197 64.4794 26.083 64.3357 26.2022C64.2043 26.19 63.9536 26.034 63.7029 25.878C63.3207 25.7098 63.1893 25.6976 63.0333 25.9482C62.8774 26.1989 61.8134 26.2324 60.8931 26.1467C60.2358 26.0854 59.5907 25.8927 59.3401 25.7367C59.2208 25.593 59.0894 25.5808 58.9579 25.5685C58.695 25.544 58.4321 25.5195 58.0132 25.7457C57.3191 26.0789 56.9247 26.0421 56.1359 25.9686C56.0044 25.9564 55.873 25.9441 55.7415 25.9319C55.4786 25.9074 55.2157 25.8829 55.2034 26.0143C55.0597 26.1335 54.5338 26.0846 54.008 26.0356C53.8765 26.0233 53.6136 25.9988 53.4821 25.9866C53.2192 25.9621 52.9563 25.9376 52.8248 25.9253C52.8125 26.0568 51.4856 26.0657 49.7766 25.9065C48.199 25.7595 46.8844 25.637 46.8721 25.7685C46.8599 25.9 46.597 25.8755 46.3463 25.7195C46.2271 25.5758 45.8327 25.539 45.4383 25.5023C45.3068 25.49 45.1753 25.4778 45.0439 25.4655C44.6372 25.5603 44.2428 25.5235 43.8484 25.4868C42.6653 25.3765 42.1884 24.8017 42.6563 24.0496C42.956 23.6797 42.9805 23.4168 42.3599 22.9612C41.7638 22.2426 42.1247 21.2154 43.045 21.3011C43.1765 21.3134 43.4516 21.2064 43.6076 20.9557C43.895 20.7173 44.4209 20.7663 44.9467 20.8153C45.4726 20.8643 45.9985 20.9133 46.1544 20.6626C46.4296 20.5556 47.1114 20.3539 47.781 20.2837C48.4383 20.345 48.9887 20.131 48.9887 20.131C49.1324 20.0118 49.3953 20.0363 49.9212 20.0853C50.1841 20.1098 50.3156 20.1221 50.5785 20.1466C51.6302 20.2446 52.0369 20.1498 52.5995 19.8044C53.0184 19.5783 53.2935 19.4713 53.6879 19.508C54.0823 19.5448 54.4645 19.713 54.7029 20.0004C54.9536 20.1564 55.085 20.1686 55.2165 20.1809C55.348 20.1931 55.3602 20.0617 55.3847 19.7987C55.4092 19.5358 55.5529 19.4166 55.8159 19.4411C55.9351 19.5848 56.198 19.6093 56.3417 19.4901C56.354 19.3586 56.8921 19.2762 57.4179 19.3252C57.9438 19.3742 59.0078 19.3407 59.9525 19.1635C60.8973 18.9863 61.8298 18.9406 62.2242 18.9773C62.4871 19.0018 62.8815 19.0386 63.1567 18.9316C63.2881 18.9439 63.9577 18.8736 64.4958 18.7912C65.0339 18.7087 66.2294 18.6875 67.0304 18.6295C68.6325 18.5136 70.6289 18.4344 71.6929 18.4009C73.139 18.5357 73.2827 18.4164 73.0321 18.2605C73.0443 18.129 72.7814 18.1045 72.387 18.0678C71.9926 18.031 71.5982 17.9943 70.9286 18.0645C69.9961 18.1102 68.6692 18.1192 68.0119 18.0579C67.486 18.0089 66.8165 18.0792 66.6727 18.1984C65.7525 18.1126 63.2547 17.8799 62.5606 18.2131C62.2854 18.32 61.6158 18.3902 60.9585 18.329C60.1575 18.387 59.6316 18.338 59.6194 18.4694C59.6071 18.6009 59.2127 18.5641 58.6869 18.5151C57.6229 18.5486 54.8499 18.4229 54.7062 18.5421C54.5747 18.5298 54.1681 18.6245 51.9209 18.5478C51.1199 18.6057 50.4503 18.676 50.4503 18.676C50.3066 18.7952 50.0314 18.9021 49.637 18.8654C49.3741 18.8409 48.992 18.6727 48.885 18.3975C48.7903 17.9909 48.7903 17.9909 48.4783 18.4922C48.3224 18.7429 47.9035 18.9691 47.6283 19.076C47.3654 19.0515 46.4329 19.0973 45.5126 19.0115C44.9745 19.094 44.5801 19.0572 44.3172 19.0327C44.0543 19.0082 43.9228 18.996 43.935 18.8645C43.9595 18.6016 43.8281 18.5894 43.6966 18.5771C43.4337 18.5526 43.027 18.6473 42.7274 19.0172C42.4399 19.2556 42.1648 19.3626 41.6389 19.3136C41.376 19.2891 41.113 19.2646 40.8501 19.2401C40.5872 19.2156 40.3243 19.1911 40.1928 19.1789C39.6669 19.1299 39.5355 19.1176 39.3918 19.2368C39.3795 19.3683 39.1043 19.4753 38.9729 19.463C38.5785 19.4263 38.3278 19.2703 38.3523 19.0074C38.2453 18.7322 38.2453 18.7322 38.0894 18.9829C37.49 19.7227 36.1754 19.6002 35.3866 19.5267C34.9922 19.4899 34.717 19.5969 34.7047 19.7284C34.6925 19.8598 34.1544 19.9423 33.4971 19.8811C32.8397 19.8198 32.0387 19.8778 31.6321 19.9725C30.8188 20.1619 30.0177 20.2199 29.2289 20.1464C28.7031 20.0974 28.1895 19.917 28.0825 19.6418C27.9633 19.4981 27.8318 19.4858 27.7004 19.4736C27.4374 19.4491 27.2815 19.6997 27.2447 20.0941C27.2325 20.2256 26.6944 20.3081 26.0248 20.3783C25.4989 20.3293 24.2913 20.482 23.478 20.6714C22.5455 20.7171 21.0749 20.8453 20.2861 20.7718C19.3536 20.8175 18.1581 20.8388 17.4886 20.909C16.2686 21.1931 14.5351 21.2968 13.4834 21.1988C13.089 21.1621 12.826 21.1376 12.8138 21.2691C12.8016 21.4005 12.3949 21.4952 12.0005 21.4585C11.6061 21.4217 11.068 21.5042 10.912 21.7549C10.7561 22.0056 10.3494 22.1003 10.2302 21.9566C9.97955 21.8006 6.78764 21.901 5.4485 22.0415C5.0541 22.0047 4.65971 21.968 4.55274 21.6928C4.30206 21.5368 4.05138 21.3809 3.91992 21.3686C3.64474 21.4756 3.52552 21.3319 3.53777 21.2004C3.55002 21.0689 3.32384 20.65 3.08541 20.3626C2.13169 19.2129 3.74929 17.5071 5.87722 17.4402C6.67826 17.3822 7.87369 17.361 8.39955 17.41C8.93766 17.3275 9.72644 17.401 10.1331 17.3063C11.3408 17.1536 12.3925 17.2516 13.0498 17.3129C13.5757 17.3619 13.8386 17.3864 13.9578 17.5301C14.3277 17.8298 14.3277 17.8298 14.4959 17.4476C14.6396 17.3284 14.9271 17.09 15.0585 17.1022C15.19 17.1145 15.4652 17.0075 15.4774 16.876C15.6334 16.6253 16.1592 16.6743 17.0795 16.7601C17.9997 16.8458 18.8008 16.7879 19.076 16.6809C19.2197 16.5617 19.7578 16.4792 20.2959 16.3967C20.8218 16.4457 21.8857 16.4123 22.5553 16.3421C23.3686 16.1526 23.8944 16.2016 24.2888 16.2384C24.6832 16.2751 24.9462 16.2996 25.3283 16.4678C25.7227 16.5046 25.9856 16.5291 26.1416 16.2784C26.1661 16.0155 26.7042 15.933 27.493 16.0065C28.1503 16.0677 29.0828 16.022 29.4895 15.9273C29.9083 15.7011 30.9846 15.5362 31.9171 15.4905C32.8373 15.5762 34.0327 15.555 34.4394 15.4603C34.8338 15.497 35.6348 15.439 36.1607 15.488C36.6988 15.4056 37.0932 15.4423 37.2369 15.3231C37.3806 15.2039 37.6435 15.2284 38.0257 15.3966C38.2764 15.5526 38.6708 15.5893 38.683 15.4578C38.7075 15.1949 40.5725 15.1035 44.9721 14.8504C45.9046 14.8046 47.5067 14.6887 48.3077 14.6307C49.1087 14.5728 50.5671 14.576 51.4874 14.6618C52.5391 14.7598 53.2086 14.6896 53.2209 14.5581C53.2331 14.4266 53.3769 14.3074 53.6398 14.3319C54.0342 14.3687 54.4163 14.5369 54.5233 14.8121C54.7495 15.2309 54.7495 15.2309 54.9177 14.8488C55.0859 14.4667 55.3611 14.3597 56.2936 14.314C56.9509 14.3752 57.6205 14.305 57.8957 14.198C58.1586 14.2225 58.6967 14.1401 59.2226 14.1891C59.354 14.2013 59.4855 14.2136 59.6169 14.2258C60.0113 14.2626 60.4057 14.2993 60.6809 14.1923C60.9561 14.0854 61.3505 14.1221 61.4575 14.3973C61.5767 14.541 61.7081 14.5533 61.7204 14.4218C61.7326 14.2903 62.4145 14.0886 63.2155 14.0307C64.0043 14.1042 64.9368 14.0585 65.3312 14.0952C66.013 13.8935 66.9455 13.8478 67.6028 13.909C67.7343 13.9213 67.985 14.0773 67.985 14.0773C68.1042 14.221 68.2357 14.2332 68.4986 14.2577C68.7615 14.2822 69.0244 14.3067 69.4433 14.0805C69.9937 13.8666 70.7947 13.8086 71.452 13.8699C72.1094 13.9311 72.779 13.8609 72.9227 13.7417C73.1978 13.6347 73.5922 13.6715 73.8552 13.696C74.1058 13.8519 74.381 13.745 74.5247 13.6257C74.537 13.4943 75.1943 13.5555 75.7202 13.6045C76.246 13.6535 77.2977 13.7515 77.9673 13.6813C78.5054 13.5988 79.5694 13.5654 80.0953 13.6144C80.6334 13.5319 81.1592 13.5809 81.1592 13.5809C81.1715 13.4494 83.1557 13.5017 83.5501 13.5384C84.0759 13.5874 86.586 13.6887 86.8735 13.4503C87.0172 13.3311 87.2801 13.3556 87.543 13.3801C88.0689 13.4291 88.7017 13.7532 88.7964 14.1599C89.0104 14.7102 89.0104 14.7102 89.3345 14.0774C89.7902 13.4568 90.3405 13.2429 91.2608 13.3286C92.181 13.4144 92.8506 13.3442 93.7831 13.2984C94.1898 13.2037 94.5841 13.2405 94.9785 13.2772C95.11 13.2895 95.11 13.2895 95.2415 13.3017C95.3607 13.4454 95.6236 13.4699 95.7551 13.4822C96.018 13.5067 96.2809 13.5312 96.4246 13.412C97.1065 13.2103 98.4334 13.2013 99.6165 13.3115C100.668 13.4095 101.576 13.6268 101.564 13.7582C101.54 14.0211 101.79 14.1771 101.922 14.1894C102.053 14.2016 102.197 14.0824 102.365 13.7002C102.558 13.0552 102.689 13.0674 104.53 13.2389C105.725 13.2177 106.908 13.3279 107.315 13.2332C107.709 13.27 108.104 13.3067 108.498 13.3435C108.749 13.4994 108.88 13.5117 108.893 13.3802C108.905 13.2487 109.574 13.1785 110.495 13.2643C111.415 13.35 112.873 13.3533 113.674 13.2953C114.344 13.2251 114.738 13.2618 115.001 13.2863C115.396 13.3231 115.659 13.3476 115.778 13.4913C116.16 13.6595 116.291 13.6718 116.316 13.4088C116.46 13.2896 116.998 13.2072 117.786 13.2806C118.575 13.3541 119.113 13.2717 119.113 13.2717C119.126 13.1402 119.389 13.1647 119.783 13.2015C120.034 13.3574 120.165 13.3697 120.428 13.3942C120.691 13.4187 120.954 13.4432 121.098 13.3239C121.373 13.217 121.779 13.1223 122.174 13.159C122.568 13.1958 122.819 13.3517 123.082 13.3762C123.464 13.5444 123.727 13.5689 123.99 13.5934C124.121 13.6057 124.384 13.6302 124.396 13.4987C124.54 13.3795 124.672 13.3917 125.066 13.4285C125.197 13.4407 125.329 13.453 125.46 13.4652C125.855 13.502 126.381 13.551 126.393 13.4195C126.537 13.3003 126.812 13.1933 127.075 13.2178C129.31 13.4261 131.425 13.4906 133.685 13.4359C134.486 13.3779 135.012 13.4269 135.406 13.4637C136.063 13.5249 136.183 13.6686 136.265 14.2067C136.347 14.7449 136.347 14.7449 136.791 14.2557C137.234 13.7666 137.39 13.5159 137.916 13.5649C138.705 13.6384 139.494 13.7119 140.295 13.654C140.952 13.7152 141.741 13.7887 142.135 13.8255C142.517 13.9937 142.912 14.0304 142.912 14.0304C143.055 13.9112 143.713 13.9724 144.514 13.9145C145.303 13.988 145.972 13.9178 146.104 13.93C146.247 13.8108 146.51 13.8353 146.761 13.9912C146.999 14.2787 147.262 14.3032 147.287 14.0402C147.431 13.921 147.693 13.9455 147.932 14.233C148.051 14.3767 148.314 14.4012 148.458 14.2819C148.601 14.1627 148.877 14.0558 149.14 14.0803C149.403 14.1048 149.785 14.273 149.904 14.4167C150.274 14.7164 150.274 14.7164 150.43 14.4657C150.454 14.2028 150.861 14.108 151.124 14.1325C151.65 14.1815 152.151 14.4935 152.258 14.7686C152.365 15.0438 152.496 15.0561 152.64 14.9369C153.084 14.4477 153.753 14.3775 155.857 14.5735C156.382 14.6225 157.04 14.6838 157.96 14.7695C160.195 14.9777 162.298 15.1737 162.418 15.3174C162.549 15.3297 162.549 15.3297 162.68 15.3419C162.943 15.3664 163.338 15.4032 163.613 15.2962C164.02 15.2015 164.426 15.1068 164.689 15.1313C164.808 15.275 167.832 15.5567 171.382 15.8874C177.166 16.4264 177.943 16.6314 178.3 17.0625C178.539 17.3499 178.67 17.3622 178.802 17.3744C178.933 17.3867 178.933 17.3867 179.089 17.136C179.364 17.029 179.508 16.9098 179.639 16.9221C179.759 17.0658 180.535 17.2708 181.324 17.3442C183.284 17.6594 184.525 18.5707 184.571 19.5032C184.534 19.8976 184.616 20.4357 184.867 20.5917C185.356 21.0351 184.576 22.2885 184.05 22.2395C183.931 22.0958 183.787 22.215 183.763 22.4779ZM74.2275 18.2393C74.5027 18.1323 74.5149 18.0008 73.989 17.9518C73.7261 17.9273 73.4509 18.0343 73.4387 18.1658C73.4142 18.4287 73.5457 18.4409 73.6771 18.4532C73.8086 18.4654 73.9401 18.4777 74.2275 18.2393ZM76.8813 18.2213C78.8532 18.4051 79.2721 18.1789 78.138 17.5428C77.7558 17.3746 77.5051 17.2186 77.3737 17.2063C77.1107 17.1818 77.0985 17.3133 76.8111 17.5517C76.5236 17.7902 76.117 17.8849 75.7226 17.8481C75.1967 17.7991 75.0408 18.0498 75.5176 18.6247C75.7561 18.9121 75.7561 18.9121 75.9243 18.53C75.9488 18.267 76.3554 18.1723 76.8813 18.2213ZM109.794 16.5141C109.663 16.5019 109.663 16.5019 109.65 16.6333C109.65 16.6333 109.65 16.6333 109.913 16.6578C109.925 16.5264 109.794 16.5141 109.794 16.5141ZM99.8427 13.7304C99.7113 13.7182 99.699 13.8497 99.699 13.8497C99.6868 13.9811 99.6868 13.9811 99.8182 13.9934C99.8182 13.9934 99.9497 14.0056 99.9619 13.8742L99.8427 13.7304ZM93.6425 33.3089C93.774 33.3211 94.0369 33.3456 94.0369 33.3456C94.0492 33.2141 93.7985 33.0582 93.667 33.0459C93.4163 32.89 93.2726 33.0092 93.2604 33.1406C93.2481 33.2721 93.3796 33.2844 93.6425 33.3089ZM94.8233 29.1755C94.6796 29.2947 94.6673 29.4262 94.7988 29.4384C95.0617 29.4629 95.074 29.3314 95.0862 29.2C95.0985 29.0685 95.1107 28.937 95.1107 28.937C94.9792 28.9248 94.8355 29.044 94.8233 29.1755ZM94.8257 33.4191C95.0886 33.4436 95.2201 33.4558 95.2323 33.3244C95.1009 33.3121 94.9694 33.2999 94.7065 33.2754C94.5628 33.3946 94.5628 33.3946 94.8257 33.4191ZM97.1897 29.396C97.3211 29.4082 97.4648 29.289 97.3456 29.1453C97.2141 29.133 97.0827 29.1208 97.0827 29.1208C96.939 29.24 96.9267 29.3715 97.1897 29.396ZM164.786 19.7815C165.049 19.806 164.93 19.6623 164.548 19.4941C164.166 19.3259 163.927 19.0385 163.94 18.907C163.964 18.6441 163.82 18.7633 163.545 18.8703C163.245 19.2402 162.707 19.3226 161.13 19.1756C160.078 19.0776 157.843 18.8694 156.122 18.8416C155.202 18.7559 154.532 18.8261 154.006 18.7771C153.349 18.7159 153.098 18.5599 152.991 18.2847C152.884 18.0095 152.897 17.8781 152.765 17.8658C152.634 17.8536 152.621 17.985 152.334 18.2235C152.046 18.4619 151.64 18.5566 151.245 18.5199C150.983 18.4954 150.6 18.3272 150.35 18.1712C150.23 18.0275 149.968 18.003 149.824 18.1222C149.668 18.3729 147.815 18.3329 146.369 18.1981C145.58 18.1246 144.791 18.0511 144.541 17.8952C144.422 17.7514 144.29 17.7392 144.159 17.727C143.896 17.7025 143.764 17.6902 143.62 17.8094C143.333 18.0478 141.862 18.176 140.548 18.0535C139.628 17.9678 138.72 17.7506 138.744 17.4877C138.769 17.2247 138.649 17.081 138.386 17.0565C138.123 17.032 137.98 17.1512 137.812 17.5334C137.656 17.7841 137.38 17.891 136.066 17.7685C135.133 17.8143 133.95 17.704 133.149 17.762C132.492 17.7007 130.902 17.6852 129.719 17.575C128.392 17.5839 127.328 17.6174 127.196 17.6052C127.184 17.7366 126.001 17.6264 124.818 17.5161C123.635 17.4059 122.583 17.3079 122.571 17.4394C122.558 17.5708 122.295 17.5463 121.901 17.5096C121.638 17.4851 121.507 17.4728 121.244 17.4483C120.455 17.3749 119.798 17.3136 119.798 17.3136C119.654 17.4328 112.888 17.4654 111.705 17.3552C111.31 17.3184 111.191 17.1747 111.191 17.1747C111.216 16.9118 110.965 16.7558 110.833 16.7436C110.702 16.7313 110.558 16.8506 110.534 17.1135C110.497 17.5079 110.366 17.4956 110.115 17.3397C109.721 17.3029 109.326 17.2662 109.182 17.3854C109.039 17.5046 108.895 17.6238 108.764 17.6116C108.632 17.5993 108.513 17.4556 108.262 17.2996C108.011 17.1437 107.749 17.1192 107.724 17.3821C107.58 17.5013 107.174 17.596 106.779 17.5593C106.253 17.5103 104.664 17.4948 103.205 17.4915C102.141 17.525 101.472 17.5952 101.077 17.5584C100.551 17.5094 100.432 17.3657 100.182 17.2098C99.6802 16.8978 99.6802 16.8978 99.4998 17.4115C99.3438 17.6621 99.3315 17.7936 98.4113 17.7079C98.1484 17.6834 97.754 17.6466 97.2281 17.5976C96.7022 17.5486 96.3201 17.3804 95.9257 17.3437C95.5313 17.3069 95.2561 17.4139 95.1124 17.5331C95.1002 17.6646 94.2991 17.7225 93.2474 17.6245C92.3149 17.6702 91.1317 17.56 90.5936 17.6425C90.0678 17.5935 89.2667 17.6514 88.8723 17.6147C88.3342 17.6972 87.5332 17.7551 86.9951 17.8376C86.8636 17.8254 86.6007 17.8009 86.4692 17.7886C86.0748 17.7519 85.8241 17.5959 85.5857 17.3085C85.2158 17.0088 84.9774 16.7214 84.9774 16.7214C84.8459 16.7091 84.8214 16.972 84.9284 17.2472C85.0231 17.6539 85.0109 17.7853 84.7479 17.7608C84.6165 17.7486 84.4973 17.6049 84.2343 17.5804C83.8522 17.4122 83.4455 17.5069 83.4333 17.6383C83.2896 17.7576 82.4885 17.8155 81.5683 17.7298C79.9785 17.7143 79.3089 17.7845 79.5473 18.0719C79.5473 18.0719 79.6788 18.0842 79.8102 18.0964C80.2046 18.1332 80.599 18.1699 81.2564 18.2311C81.9137 18.2924 82.7025 18.3659 83.3598 18.4271C83.4913 18.4394 83.6105 18.5831 83.7419 18.5953C84.0049 18.6198 84.1486 18.5006 84.2923 18.3814C84.436 18.2622 85.0933 18.3234 85.6192 18.3724C86.145 18.4214 87.0776 18.3757 87.8786 18.3177C88.5359 18.379 89.3369 18.321 89.5999 18.3455C89.982 18.5137 90.3764 18.5505 90.6394 18.575C91.0337 18.6117 91.4281 18.6485 91.9662 18.566C92.5044 18.4835 94.7515 18.5603 96.8549 18.7563C99.1021 18.8331 100.943 19.0046 101.074 19.0168C101.468 19.0536 101.875 18.9588 102.269 18.9956C104.11 19.1671 106.164 19.8889 106.773 20.476C106.892 20.6197 107.656 20.9562 108.445 21.0297C109.09 21.2224 109.747 21.2836 109.867 21.4273C109.986 21.571 110.13 21.4518 110.273 21.3326C110.429 21.0819 111.099 21.0117 111.625 21.0607C112.151 21.1097 113.346 21.0885 114.147 21.0305C115.08 20.9848 116 21.0705 116.394 21.1073C116.789 21.144 117.195 21.0493 117.207 20.9178C117.22 20.7864 117.483 20.8109 117.877 20.8476C118.009 20.8599 118.14 20.8721 118.271 20.8844C118.534 20.9089 118.929 20.9456 119.204 20.8387C119.479 20.7317 120.806 20.7227 122.121 20.8452C123.448 20.8362 124.774 20.8273 125.181 20.7325C125.719 20.6501 126.257 20.5676 126.652 20.6044C127.046 20.6411 127.428 20.8093 127.547 20.953C127.667 21.0967 127.798 21.109 127.954 20.8583C128.11 20.6076 128.648 20.5252 129.174 20.5742C129.568 20.6109 129.951 20.7791 130.201 20.9351C130.308 21.2103 130.44 21.2225 130.464 20.9596C130.525 20.3023 132.366 20.4737 132.76 20.5105C133.023 20.535 133.142 20.6787 133.274 20.691C133.537 20.7155 133.812 20.6085 133.956 20.4893C134.099 20.3701 134.638 20.2876 135.163 20.3366C135.558 20.3733 136.478 20.4591 137.016 20.3766C138.343 20.3676 141.929 20.304 144.583 20.286C145.791 20.1333 147.249 20.1366 147.775 20.1856C148.313 20.1031 149.903 20.1187 151.23 20.1097C152.545 20.2322 153.752 20.0795 153.764 19.948C153.764 19.948 154.027 19.9725 154.278 20.1285C154.529 20.2845 154.792 20.309 154.923 20.3212C155.186 20.3457 155.449 20.3702 155.605 20.1195C155.749 20.0003 158.809 19.8876 159.992 19.9979C160.387 20.0346 160.65 20.0591 160.662 19.9277C160.674 19.7962 161.2 19.8452 161.726 19.8942C161.989 19.9187 162.252 19.9432 162.515 19.9677C163.435 20.0534 164.236 19.9955 164.236 19.9955C164.248 19.864 164.523 19.757 164.786 19.7815ZM167.572 19.7758C167.584 19.6444 167.477 19.3692 167.37 19.094C167.012 18.6629 167.012 18.6629 166.963 19.1887C166.939 19.4517 166.783 19.7023 166.52 19.6778C166.388 19.6656 166.125 19.6411 165.994 19.6289C165.6 19.5921 165.324 19.6991 165.312 19.8305C165.707 19.8673 167.284 20.0143 167.572 19.7758ZM170.595 20.0576C170.595 20.0576 170.727 20.0698 170.739 19.9384L170.62 19.7946C170.488 19.7824 170.476 19.9139 170.476 19.9139C170.464 20.0453 170.464 20.0453 170.595 20.0576Z"
    fill="#0F0404"></path>
</svg>
