<svg fill="none" height="24" viewBox="0 0 62 24" width="62" xmlns="http://www.w3.org/2000/svg">
  <path
    d="M9.90727 20.1207C9.73392 20.0149 9.81487 19.2225 10.0287 18.9321C10.1367 18.8151 10.1885 18.7003 10.1299 18.6462C10.1299 18.6462 9.96563 18.7656 9.80358 18.9412C9.64378 19.173 9.4232 19.2946 9.4232 19.2946C9.36692 19.2969 9.20261 19.4162 9.09684 19.5895C8.93478 19.7651 8.7142 19.8867 8.65792 19.889C8.54537 19.8935 8.49135 19.952 8.54763 19.9498C8.60842 20.0601 8.34285 20.4653 8.17402 20.472C8.11775 20.4743 7.95344 20.5936 7.73737 20.8278C7.57531 21.0034 7.35473 21.1249 7.24218 21.1295C7.12737 21.0777 6.90453 21.143 6.79875 21.3163C6.63444 21.4357 6.52415 21.4965 6.18649 21.51C6.07394 21.5145 5.90512 21.5213 5.73629 21.5281C5.67776 21.474 5.56069 21.366 5.4999 21.2557C5.38058 21.0914 5.26351 20.9834 5.20724 20.9856C5.09469 20.9901 5.03616 20.9361 5.0834 20.7088C5.13064 20.4814 5.06985 20.3711 5.06985 20.3711C4.9573 20.3756 5.04502 19.7521 5.2003 19.4077C5.45684 18.7774 5.50634 18.6063 5.44329 18.4397C5.32397 18.2754 5.32397 18.2754 5.16192 18.451C5.1079 18.5095 5.05388 18.5681 4.99761 18.5703C4.82878 18.5771 4.70946 18.4128 4.58562 18.1359C4.46404 17.9153 4.40325 17.805 4.34697 17.8073C4.23442 17.8118 4.1309 18.0414 3.98014 18.4984C3.88339 18.8968 3.67184 19.2435 3.5638 19.3606C3.39949 19.4799 3.29597 19.7095 3.30275 19.8784C3.30952 20.0472 3.21277 20.4456 3.10925 20.6752C2.90221 21.1345 2.90221 21.1345 3.24438 21.2335C3.64282 21.3302 3.65185 21.5553 3.32775 21.9065C3.16344 22.0258 3.11393 22.1969 3.11619 22.2532C3.17698 22.3635 3.01267 22.4828 2.84385 22.4896C2.7313 22.4941 2.61649 22.4423 2.5557 22.3321C2.3801 22.17 2.3801 22.17 2.38913 22.3951C2.3959 22.5639 2.28561 22.6247 2.17306 22.6292C2.00423 22.636 1.71834 22.5347 1.48421 22.3187L1.48647 22.375C1.0182 21.9428 0.885335 21.4408 1.26797 21.1437C1.4863 20.9658 1.4863 20.9658 1.3107 20.8038C1.07657 20.5877 1.23411 20.2995 1.51548 20.2883C1.68431 20.2815 1.68431 20.2815 1.51097 20.1757C1.33763 20.0699 1.3781 19.6737 1.54692 19.667C1.6032 19.6647 1.65722 19.6062 1.59868 19.5522C1.48162 19.4441 1.75396 19.2077 1.97906 19.1987C2.14563 19.1357 2.14563 19.1357 2.03308 19.1402C1.80347 19.0367 1.80572 19.0929 1.95423 18.5797C2.05775 18.3501 2.10725 18.179 2.10725 18.179C2.1545 17.9516 2.52585 17.3731 2.69016 17.2537C2.85672 17.1907 2.90848 17.0759 2.8972 16.7945C2.87913 16.3443 3.14696 15.9954 3.4306 16.0404C3.54541 16.0921 3.60168 16.0899 3.48462 15.9818C3.30902 15.8198 3.35626 15.5924 3.67585 15.1287C3.8379 14.9531 3.94142 14.7234 3.93917 14.6672C3.93691 14.6109 4.04269 14.4376 4.207 14.3182C4.31503 14.2012 4.47708 14.0256 4.47257 13.913C4.47031 13.8567 4.52207 13.7419 4.57609 13.6834C5.02177 13.5528 5.13207 13.492 5.01726 13.4402C4.7899 13.393 4.83037 12.9968 5.05321 12.9315C5.16351 12.8707 5.27154 12.7536 5.26928 12.6974C5.26251 12.5285 5.3728 12.4678 5.54163 12.461C5.59791 12.4587 5.71046 12.4542 5.76899 12.5082C5.82752 12.5622 5.88605 12.6163 5.88605 12.6163C5.94233 12.614 5.88154 12.5037 5.76222 12.3394C5.52131 11.9545 5.62257 11.6686 6.07052 11.5943C6.29562 11.5852 6.40365 11.4682 6.17629 11.4209C6.06149 11.3692 6.86272 10.2661 7.51093 9.56368C7.72474 9.27328 7.93855 8.98287 7.9363 8.9266C7.93404 8.87032 8.09383 8.63845 8.3099 8.40432C8.52597 8.17018 8.85008 7.81898 9.01213 7.64339C9.33172 7.17964 9.93269 6.7046 10.0475 6.75636C10.1623 6.80812 10.3739 6.46144 10.5832 6.05848C10.6327 5.8874 10.7947 5.7118 10.905 5.65101C11.0153 5.59022 11.1773 5.41462 11.2831 5.24128C11.3912 5.12421 11.5555 5.00489 11.668 5.00038C11.7243 4.99812 11.7783 4.93958 11.7761 4.88331C11.6567 4.719 12.6449 4.05933 12.8722 4.10658C12.987 4.15834 13.041 4.0998 13.0388 4.04353C12.8609 3.8252 13.6757 3.05976 14.1822 3.03944C14.2385 3.03718 14.3487 2.97639 14.3465 2.92011C14.3442 2.86384 14.4545 2.80305 14.5693 2.85481C14.6819 2.85029 14.7944 2.84578 14.8484 2.78725C14.9002 2.67244 15.6408 2.86819 15.8187 3.08652C15.8209 3.14279 15.8772 3.14053 15.9335 3.13828C16.2149 3.12699 16.8226 2.82078 16.9801 2.53263C17.0342 2.47409 17.311 2.35026 17.5901 2.28269C17.813 2.21739 18.0898 2.09355 18.0876 2.03727C18.1393 1.92246 18.3082 1.91569 18.4207 1.91118C18.5895 1.9044 18.7584 1.89763 18.7629 2.01018C18.7651 2.06645 18.8214 2.0642 18.934 2.05968C19.1028 2.05291 19.3256 1.9876 19.3796 1.92907C19.4337 1.87054 19.4899 1.86828 19.5462 1.86602C19.8276 1.85473 20.3521 2.28461 20.2486 2.51423C20.1969 2.62904 20.2554 2.68306 20.3679 2.67854C20.5368 2.67177 20.6224 3.40109 20.3995 3.46639C20.3455 3.52493 20.5706 3.5159 20.9646 3.50009C21.6961 3.47074 21.9798 3.51573 22.0991 3.68004C22.1036 3.79259 22.2162 3.78808 22.3287 3.78356C22.5515 3.71825 23.0806 4.26069 23.0941 4.59834C23.1009 4.76716 23.164 4.93373 23.2765 4.92922C23.3328 4.92696 23.3305 4.87068 23.3846 4.81215C23.4341 4.64107 23.5466 4.63655 23.828 4.62526C23.8843 4.62301 23.9405 4.62075 23.9968 4.61849C24.1094 4.61397 24.2219 4.60946 24.2782 4.6072C24.2737 4.49465 24.3885 4.54641 24.447 4.60043C24.5641 4.70846 24.6204 4.70621 24.6158 4.59366C24.6136 4.53738 24.6676 4.47885 24.7801 4.47433C24.8927 4.46982 25.0638 4.51932 25.1808 4.62735C25.3002 4.79166 25.415 4.84343 25.4127 4.78715C25.5208 4.67008 25.8157 4.99645 25.944 5.38586C26.1332 5.88556 26.3673 6.10163 26.5924 6.0926C26.6487 6.09034 26.7612 6.08583 26.8153 6.02729C27.0358 5.90571 27.2609 5.89668 27.486 5.88765C27.7111 5.87862 27.8214 5.81783 27.8169 5.70528C27.8101 5.53646 27.8101 5.53646 28.9334 5.43502C30.0026 5.39213 30.4596 5.54289 30.4799 6.04937C30.4889 6.27447 30.5497 6.38476 30.8311 6.37348C31.1147 6.41846 31.1755 6.52875 31.1418 7.09377C31.1486 7.26259 31.2094 7.37288 31.2679 7.4269C31.3827 7.47866 31.2815 7.76455 31.1127 7.77133C31.0001 7.77584 30.9461 7.83437 30.9483 7.89065C30.9529 8.0032 30.9529 8.0032 31.0654 7.99868C31.178 7.99417 31.3985 7.87259 31.7834 7.63168C32.1121 7.39304 32.4452 7.26694 32.5015 7.26468C32.6163 7.31644 32.6703 7.25791 32.668 7.20163C32.659 6.97653 32.9899 6.79416 33.3275 6.78061C33.3838 6.77836 33.4964 6.77384 33.5549 6.82786C33.7282 6.93364 33.726 6.87736 33.7192 6.70854C33.7102 6.48343 34.2054 6.18174 34.543 6.16819C34.5993 6.16594 34.6556 6.16368 34.7141 6.21769C34.8267 6.21318 34.8829 6.21092 34.8807 6.15465C34.8762 6.0421 35.0427 5.97905 35.2115 5.97227C35.4367 5.96324 35.664 6.01049 35.7811 6.11852C35.9004 6.28283 35.9567 6.28058 36.0647 6.16351C36.1187 6.10498 36.1187 6.10498 36.175 6.10272C36.2876 6.0982 36.3461 6.15222 36.5194 6.258C36.6928 6.36378 36.8076 6.41554 36.8638 6.41328C36.9764 6.40876 37.0867 6.34797 37.3073 6.22639C37.5841 6.10255 37.807 6.03725 37.8655 6.09126C37.9218 6.08901 37.9195 6.03273 37.9173 5.97646C37.9128 5.8639 38.0231 5.80312 38.1919 5.79634C38.3044 5.79183 38.471 5.72878 38.525 5.67025C38.633 5.55318 39.243 5.30324 39.5244 5.29195C39.5807 5.2897 39.6392 5.34372 39.6392 5.34372C39.6955 5.34146 39.8081 5.33694 39.8058 5.28067C39.8598 5.22213 39.9724 5.21762 40.0286 5.21536C40.0872 5.26938 40.1975 5.20859 40.2515 5.15006C40.2492 5.09378 40.3055 5.09152 40.4181 5.08701C40.6994 5.07572 41.3883 5.38628 41.3973 5.61138C41.4018 5.72393 41.5211 5.88824 41.6405 6.05255C41.8206 6.32715 41.8814 6.43744 41.7756 6.61079C41.7238 6.72559 41.6721 6.8404 41.6721 6.8404C41.6743 6.89668 42.012 6.88313 42.4622 6.86507C43.4189 6.82669 43.9929 7.08549 44.1258 7.58745C44.1911 7.81029 44.2519 7.92059 44.3644 7.91607C44.4207 7.91381 44.5287 7.79675 44.693 7.67742C44.8011 7.56036 44.9654 7.44103 45.0217 7.43878C45.1342 7.43426 45.1905 7.432 45.1882 7.37573C45.186 7.31945 45.4043 7.1416 45.6789 6.96148C45.9558 6.83764 46.2304 6.65753 46.3384 6.54046C46.3924 6.48193 46.5027 6.42114 46.6153 6.41662C46.7278 6.41211 46.8921 6.29278 47.0002 6.17572C47.1082 6.05865 47.3288 5.93707 47.4413 5.93256C47.4976 5.9303 47.6642 5.86725 47.6619 5.81098C47.7159 5.75244 47.8285 5.74793 47.8848 5.74567C48.0536 5.7389 48.2202 5.67585 48.3867 5.6128C48.497 5.55201 48.6073 5.49122 48.7199 5.4867C48.7199 5.4867 48.7761 5.48445 48.8347 5.53846C48.9517 5.6465 49.008 5.64424 49.062 5.58571C49.0598 5.52943 49.1138 5.4709 49.1701 5.46864C49.4514 5.45735 50.03 5.8287 49.9287 6.11459C49.9332 6.22715 49.9355 6.28342 50.0481 6.2789C50.442 6.2631 50.5321 7.10497 50.1382 7.12078C50.0256 7.12529 50.0842 7.17931 50.2012 7.28734C50.3746 7.39312 50.3768 7.4494 50.2711 7.62274C50.0595 7.96942 50.019 8.3656 50.1316 8.36109C50.1879 8.35883 50.2419 8.3003 50.2936 8.18549C50.5097 7.95136 51.0612 7.6474 51.3426 7.63612C51.4551 7.6316 51.6779 7.56629 51.786 7.44923C51.9503 7.32991 52.1731 7.2646 52.3982 7.25557C52.961 7.23299 53.5936 7.54581 53.4946 7.88798C53.4451 8.05906 53.5036 8.11308 53.7287 8.10405C54.0101 8.09276 54.2352 8.08373 54.404 8.07695C54.8542 8.05889 54.9645 7.9981 54.9622 7.94183C54.9577 7.82928 55.1265 7.8225 55.3516 7.81347C55.5767 7.80444 55.8581 7.79315 56.0315 7.89893C56.4322 8.05195 56.9567 8.48183 56.9635 8.65066C56.968 8.76321 57.0288 8.8735 57.1413 8.86899C57.1976 8.86673 57.2516 8.8082 57.2494 8.75192C57.3506 8.46603 57.8413 8.05178 58.0101 8.04501C58.0664 8.04275 58.1744 7.92569 58.2285 7.86715C58.2239 7.7546 58.278 7.69607 58.3342 7.69381C58.3905 7.69156 58.6088 7.5137 58.7709 7.3381C59.0972 7.04318 59.4844 6.85855 59.7095 6.84952C59.822 6.845 59.8783 6.84275 59.9369 6.89676C59.9976 7.00706 60.1125 7.05882 60.1687 7.05656C60.2813 7.05204 60.3916 6.99125 60.4974 6.81791C60.5491 6.7031 60.6009 6.58829 60.6571 6.58604C60.7134 6.58378 60.8305 6.69181 61.0083 6.91014C61.3595 7.23425 61.4879 7.62366 61.2651 7.68896C61.2088 7.69122 61.1615 7.91858 61.1683 8.08741C61.1773 8.31251 61.0761 8.5984 60.9703 8.77174C60.8645 8.94508 60.815 9.11616 60.8173 9.17244C60.8195 9.22871 60.6597 9.46059 60.2816 9.87032C60.1736 9.98738 60.0678 10.1607 60.0678 10.1607C60.0746 10.3296 59.6897 10.5705 59.5209 10.5772C59.352 10.584 59.3543 10.6403 59.3588 10.7528C59.4826 11.0297 58.8862 11.6173 58.544 11.5183C58.3729 11.4688 58.3729 11.4688 58.4923 11.6331C58.6093 11.7411 58.5553 11.7996 58.3392 12.0338C58.1749 12.1531 58.1232 12.2679 58.1232 12.2679C58.1794 12.2657 58.1817 12.3219 58.0759 12.4953C58.0242 12.6101 57.9139 12.6709 57.8576 12.6731C57.745 12.6776 57.6393 12.851 57.5875 12.9658C57.538 13.1369 57.3737 13.2562 57.2612 13.2607C57.1486 13.2652 57.0406 13.3823 56.9888 13.4971C56.9438 13.7807 55.967 14.7218 55.6316 14.7916C55.465 14.8546 55.357 14.9717 55.3592 15.028C55.3638 15.1405 55.2557 15.2576 55.1454 15.3184C55.0351 15.3792 54.6548 15.7326 54.3307 16.0838C54.0088 16.4913 53.6847 16.8425 53.6329 16.9573C53.5789 17.0158 53.3606 17.1937 53.1985 17.3693C53.0928 17.5426 52.8722 17.6642 52.8159 17.6665C52.7034 17.671 52.6493 17.7295 52.6516 17.7858C52.6539 17.8421 52.4873 17.9051 52.3207 17.9682C51.9853 18.038 51.409 17.7229 51.5125 17.4933C51.5666 17.4348 51.4495 17.3267 51.3324 17.2187C51.1591 17.1129 51.0983 17.0026 51.1501 16.8878C51.2018 16.773 51.2536 16.6582 51.2491 16.5457C51.2446 16.4331 51.2986 16.3746 51.2986 16.3746C51.2963 16.3183 51.3526 16.316 51.3503 16.2598C51.3976 16.0324 51.6564 15.4584 51.8724 15.2242C51.9805 15.1072 52.03 14.9361 52.0277 14.8798C52.0232 14.7673 52.1312 14.6502 52.2415 14.5894C52.3518 14.5286 52.4599 14.4116 52.5139 14.353C52.5094 14.2405 52.7232 13.9501 52.937 13.6597C53.1485 13.313 53.3624 13.0226 53.3578 12.91C53.3556 12.8537 53.4073 12.7389 53.4636 12.7367C53.6324 12.7299 53.9025 12.4372 53.8958 12.2684C53.8958 12.2684 54.2716 11.8024 54.7015 11.2779C55.1899 10.8073 55.5095 10.3436 55.4532 10.3459C55.451 10.2896 55.4465 10.177 55.4982 10.0622C55.604 9.88888 55.4284 9.72683 55.147 9.73812C55.0908 9.74038 54.9782 9.74489 54.9242 9.80342C54.8679 9.80568 54.6991 9.81245 54.6405 9.75844C54.5257 9.70668 54.4132 9.71119 54.3569 9.71345C54.3006 9.71571 54.3006 9.71571 54.4177 9.82374C54.537 9.98805 54.2061 10.1704 53.9811 10.1795C53.9248 10.1817 53.8685 10.184 53.8122 10.1862C53.6974 10.1345 53.6434 10.193 53.7064 10.3596C53.7695 10.5261 53.7718 10.5824 53.6029 10.5892C53.5467 10.5914 53.4364 10.6522 53.4386 10.7085C53.4386 10.7085 53.3891 10.8796 53.2271 11.0552C53.0133 11.3456 52.8512 11.5212 52.5901 12.039C52.4326 12.3271 52.2683 12.4464 52.1557 12.451C52.0432 12.4555 51.9847 12.4014 51.8699 12.3497C51.6402 12.2462 51.6402 12.2462 51.8181 12.4645C52.0545 12.7368 52.0095 13.0205 51.5706 13.3199C51.4063 13.4392 51.2982 13.5563 51.3028 13.6689C51.305 13.7251 51.197 13.8422 51.0867 13.903C50.9741 13.9075 50.8661 14.0246 50.8684 14.0808C50.8706 14.1371 50.8166 14.1957 50.704 14.2002C50.6478 14.2024 50.5375 14.2632 50.542 14.3758C50.5555 14.7134 50.0154 15.2987 49.6777 15.3123C49.3963 15.3236 49.286 15.3844 49.2928 15.5532C49.2973 15.6657 49.2456 15.7806 49.1916 15.8391C49.1353 15.8413 49.1398 15.9539 49.142 16.0102C49.2028 16.1205 48.9328 16.4131 48.5524 16.7666C48.2283 17.1178 47.7939 17.5298 47.5778 17.7639C47.3595 17.9418 47.1411 18.1196 47.0286 18.1241C46.8598 18.1309 46.5897 18.4236 46.6482 18.4776C46.7653 18.5856 46.108 19.0629 45.9392 19.0697C45.8267 19.0742 45.7704 19.0765 45.7749 19.189C45.7772 19.2453 45.6646 19.2498 45.5498 19.198C45.4372 19.2026 45.3224 19.1508 45.2662 19.1531C45.0388 19.1058 44.8632 18.9438 44.915 18.8289C44.9667 18.7141 44.9082 18.6601 44.7394 18.6669C44.6831 18.6692 44.6268 18.6714 44.6268 18.6714C44.5143 18.6759 44.512 18.6197 44.503 18.3946C44.5276 17.6044 44.5817 17.5459 44.9103 17.3073C45.1309 17.1857 45.2366 17.0123 45.2299 16.8435C45.2254 16.731 45.3311 16.5576 45.4954 16.4383C45.6057 16.3775 45.7701 16.2582 45.7678 16.2019C45.7655 16.1456 45.9253 15.9138 46.0874 15.7382C46.3035 15.504 46.4632 15.2722 46.4587 15.1596C46.452 14.9908 46.9381 14.464 47.1069 14.4572C47.1632 14.455 47.2172 14.3964 47.215 14.3401C47.2082 14.1713 47.8587 13.5252 48.0275 13.5184C48.0838 13.5162 48.1378 13.4576 48.1333 13.3451C48.131 13.2888 48.1828 13.174 48.2953 13.1695C48.4079 13.165 48.4619 13.1064 48.4596 13.0502C48.4551 12.9376 49.4815 11.8255 49.594 11.821C49.6503 11.8187 49.7043 11.7602 49.6998 11.6476C49.6975 11.5914 49.7493 11.4765 49.8056 11.4743C49.9181 11.4698 50.0824 11.3504 50.7306 10.6481C51.003 10.4117 51.2776 10.2315 51.3901 10.227C51.5027 10.2225 51.613 10.1617 51.6085 10.0492C51.6062 9.9929 51.7097 9.76329 51.8718 9.58769C52.0316 9.35581 52.0811 9.18473 51.9685 9.18925C51.9122 9.1915 51.8582 9.25004 51.7502 9.3671C51.6984 9.48191 51.3676 9.66428 51.0367 9.84665C50.7058 10.029 50.3772 10.2677 50.3794 10.3239C50.3277 10.4388 50.1611 10.5018 49.9923 10.5086C49.8797 10.5131 49.7694 10.5739 49.8257 10.5716C49.9428 10.6797 49.6727 10.9723 49.3913 10.9836C49.2225 10.9904 49.1122 11.0512 49.1212 11.2763C49.0695 11.3911 48.9614 11.5082 48.9052 11.5104C48.7363 11.5172 47.809 12.2871 47.7055 12.5168C47.656 12.6878 47.3814 12.868 47.1068 13.0481C46.8299 13.1719 46.5576 13.4083 46.5036 13.4668C46.5126 13.6919 45.2611 14.8131 45.2049 14.8153C45.0923 14.8199 44.9843 14.9369 44.9348 15.108C44.8853 15.2791 44.8335 15.3939 44.7772 15.3962C44.721 15.3984 44.4486 15.6348 44.1245 15.986C43.8544 16.2787 43.4246 16.8032 43.2085 17.0373C42.9361 17.2737 42.7786 17.5619 42.7809 17.6182C42.7854 17.7307 42.7291 17.733 42.6728 17.7352C42.6165 17.7375 42.4545 17.9131 42.2902 18.0324C42.1281 18.208 41.9638 18.3273 41.9075 18.3296C41.8513 18.3318 41.7973 18.3904 41.8018 18.5029C41.8085 18.6717 40.942 19.552 40.7732 19.5588C40.6044 19.5655 40.3343 19.8582 40.341 20.027C40.3456 20.1396 40.1745 20.0901 39.5464 19.8898C38.9184 19.6895 39.4629 17.8076 40.2935 17.4361C40.3497 17.4339 40.5658 17.1997 40.7256 16.9679C41.3175 16.2677 42.722 14.7459 42.8886 14.6828C42.9989 14.622 43.0529 14.5635 43.0484 14.4509C43.0461 14.3947 43.4242 13.9849 43.8001 13.5189C44.5023 12.758 45.2586 11.9385 45.846 11.1258C46.1161 10.8332 46.3321 10.5991 46.3299 10.5428C46.3276 10.4865 46.6517 10.1353 46.9736 9.72783C47.3517 9.3181 47.6173 8.91289 47.615 8.85661C47.6105 8.74406 47.6623 8.62925 47.7725 8.56846C48.2115 8.26902 48.2474 7.76029 48.0223 7.76932C47.966 7.77158 47.8535 7.77609 47.7995 7.83463C47.6329 7.89767 47.4123 8.01926 47.356 8.02151C47.2435 8.02603 47.1895 8.08456 47.1917 8.14084C47.194 8.19711 47.0837 8.2579 47.0274 8.26016C46.9149 8.26468 46.8609 8.32321 46.8068 8.38174C46.7551 8.49655 46.6448 8.55734 46.5322 8.56186C46.4197 8.56637 46.3094 8.62716 46.3116 8.68344C46.3139 8.73971 46.2599 8.79825 46.2036 8.8005C46.0911 8.80502 45.8727 8.98288 45.6544 9.16073C45.4924 9.33633 45.2763 9.57046 45.166 9.63125C45.112 9.68979 45.0017 9.75058 44.9454 9.75283C44.8891 9.75509 44.7788 9.81588 44.6731 9.98922C44.565 10.1063 44.4547 10.1671 44.3422 10.1716C44.2859 10.1739 44.0698 10.408 43.7975 10.6444C43.5837 10.9348 43.3158 11.2837 43.1515 11.403C42.9895 11.5786 42.8274 11.7542 42.8319 11.8668C42.8342 11.9231 42.8365 11.9793 42.7802 11.9816C42.7239 11.9839 42.6159 12.1009 42.6227 12.2697C42.5709 12.3846 42.3076 12.846 41.9835 13.1972C41.6616 13.6047 41.3983 14.0662 41.3443 14.1247C41.3488 14.2373 41.1845 14.3566 41.0742 14.4174C40.9617 14.4219 40.9099 14.5367 40.9122 14.593C40.9144 14.6493 40.7006 14.9397 40.4283 15.1761C40.1582 15.4687 39.9421 15.7029 39.9444 15.7591C39.9466 15.8154 39.7328 16.1058 39.5167 16.34C39.2466 16.6326 39.0328 16.923 39.0328 16.923C39.0351 16.9793 38.9271 17.0964 38.7605 17.1594C38.6524 17.2765 38.4881 17.3958 38.4904 17.4521C38.4927 17.5084 38.3869 17.6817 38.2766 17.7425C38.1123 17.8618 37.948 17.9811 37.8962 18.0959C37.7859 18.1567 37.6239 18.3323 37.4573 18.3954C37.347 18.4562 37.239 18.5732 37.2952 18.571C37.4731 18.7893 36.0506 19.861 35.6567 19.8768C34.8688 19.9084 34.288 19.4808 34.6143 19.1858C34.7764 19.0102 34.8191 18.6703 34.648 18.6208C34.477 18.5713 35.1003 17.2499 35.3727 17.0135C35.5393 16.9505 35.645 16.7771 35.6428 16.7208C35.6383 16.6083 36.4958 15.5029 36.6578 15.3273C36.7636 15.154 36.8716 15.0369 36.9842 15.0324C37.0405 15.0302 37.0945 14.9716 37.0922 14.9154C37.0832 14.6903 38.4876 13.1684 38.7127 13.1594C38.8253 13.1548 38.877 13.04 38.8748 12.9838C38.8658 12.7587 39.5117 12 39.6805 11.9932C39.7368 11.991 39.8471 11.9302 39.8966 11.7591C40.0587 11.5835 40.0587 11.5835 40.2838 11.5745C40.5111 11.6217 40.5651 11.5632 40.5043 11.4529C40.4413 11.2863 40.9792 10.6447 41.148 10.6379C41.3169 10.6312 42.3387 9.40649 42.3319 9.23766C42.3274 9.12511 42.3769 8.95403 42.4309 8.89549C42.593 8.71989 41.9267 8.97209 41.2649 9.33683C41.0444 9.45841 40.7675 9.58225 40.7112 9.58451C40.6549 9.58677 40.5469 9.70383 40.4951 9.81864C40.3399 10.1631 39.7547 11.032 39.3766 11.4418C39.2145 11.6174 38.8387 12.0834 38.5168 12.4908C38.195 12.8983 37.8168 13.308 37.6548 13.4836C37.4927 13.6592 37.2789 13.9496 37.2294 14.1207C37.1214 14.2378 37.0156 14.4111 36.9031 14.4156C36.7905 14.4202 36.6802 14.481 36.6307 14.652C36.6352 14.7646 36.3629 15.001 36.1446 15.1788C35.8722 15.4152 35.6539 15.5931 35.7124 15.6471C35.7732 15.7574 35.6066 15.8204 35.4378 15.8272C35.3815 15.8295 35.269 15.834 35.2105 15.78C35.0349 15.6179 35.0349 15.6179 35.1542 15.7822C35.332 16.0006 35.1768 16.345 34.5781 16.8763C34.3057 17.1127 33.9793 17.4076 33.8173 17.5832C33.599 17.7611 33.4369 17.9367 33.3244 17.9412C33.2681 17.9434 33.2141 18.002 33.1646 18.173C33.1128 18.2879 33.007 18.4612 32.8405 18.5242C32.6739 18.5873 32.5636 18.6481 32.5659 18.7044C32.5681 18.7606 32.5141 18.8192 32.3475 18.8822C32.2372 18.943 32.1832 19.0015 32.1877 19.1141C32.19 19.1704 32.0257 19.2897 31.9154 19.3505C31.7488 19.4135 31.6385 19.4743 31.643 19.5869C31.6476 19.6994 31.481 19.7625 31.3122 19.7692C31.2559 19.7715 31.1433 19.776 31.0848 19.722C31.024 19.6117 30.97 19.6702 31.0331 19.8368C31.0421 20.0619 30.9881 20.1204 30.8215 20.1835C30.7089 20.188 30.5446 20.3073 30.4906 20.3659C30.3826 20.4829 30.2723 20.5437 30.1035 20.5505C29.9346 20.5573 29.7613 20.4515 29.5857 20.2894C29.4101 20.1274 29.239 20.0779 29.1827 20.0801C29.0184 20.1995 28.764 19.4769 28.9215 19.1888C29.0791 18.9006 28.9597 18.7363 28.7346 18.7453C28.6221 18.7498 28.4555 18.8129 28.2912 18.9322C28.1832 19.0493 28.0706 19.0538 28.0143 19.0561C27.9018 19.0606 27.8455 19.0628 27.787 19.0088C27.6722 18.957 27.5574 18.9053 27.5033 18.9638C27.5033 18.9638 27.3885 18.9121 27.2715 18.804C26.7469 18.3741 26.9854 17.2936 27.7349 16.3053C27.9487 16.0149 28.1062 15.7268 28.1017 15.6142C28.0972 15.5017 28.4663 14.8669 28.6306 14.7475C28.6846 14.689 28.7364 14.5742 28.7319 14.4616C28.7859 14.4031 28.8939 14.286 29.0065 14.2815C29.0627 14.2793 29.1168 14.2207 29.1145 14.1645C29.11 14.0519 29.218 13.9348 29.3261 13.8178C29.5444 13.6399 29.864 13.1762 29.8617 13.1199C29.8572 13.0073 30.3434 12.4805 30.4559 12.476C30.5122 12.4738 30.6225 12.413 30.6157 12.2442C30.6675 12.1294 30.7755 12.0123 30.8881 12.0078C30.9984 11.947 31.1064 11.8299 31.1581 11.7151C31.2099 11.6003 31.6398 11.0758 32.1822 10.5467C32.2903 10.4296 33.697 8.96406 33.8658 8.95729C33.9783 8.95277 34.0346 8.95051 33.9738 8.84022C33.9153 8.7862 33.9716 8.78395 34.0841 8.77943C34.1404 8.77717 34.2484 8.66011 34.3024 8.60157C34.2979 8.48902 34.4622 8.3697 34.6851 8.30439C34.8494 8.18507 34.9574 8.068 34.9529 7.95545C34.9484 7.8429 34.9484 7.8429 34.8966 7.95771C34.8989 8.01399 34.7323 8.07704 34.6198 8.08155C34.5072 8.08607 34.2844 8.15137 34.1764 8.26844C34.0661 8.32923 33.9018 8.44855 33.7892 8.45307C33.6767 8.45758 33.5664 8.51837 33.5686 8.57465C33.5169 8.68946 33.2423 8.86957 32.9654 8.99341C32.6885 9.11725 32.4117 9.24109 32.4139 9.29736C32.4184 9.40991 32.3104 9.52698 32.0876 9.59228C31.9233 9.71161 31.8152 9.82867 31.8152 9.82867C31.8175 9.88495 31.7072 9.94574 31.5384 9.95251C31.3695 9.95929 31.2592 10.0201 31.2075 10.1349C31.212 10.2474 31.0499 10.423 30.8856 10.5424C30.7191 10.6054 30.3927 10.9003 30.2352 11.1885C29.7535 11.8278 29.6995 11.8864 29.4721 11.8391C29.4159 11.8414 29.3573 11.7874 29.3573 11.7874C29.2448 11.7919 29.2516 11.9607 29.4249 12.0665C29.4857 12.1768 29.4879 12.233 29.3822 12.4064C29.2741 12.5234 29.1661 12.6405 29.1684 12.6968C29.1729 12.8093 29.0671 12.9827 28.9613 13.156C28.7993 13.3316 28.6935 13.505 28.6935 13.505C28.6957 13.5612 28.5337 13.7368 28.3716 13.9124C28.2096 14.088 28.0498 14.3199 28.0521 14.3762C28.0566 14.4887 27.4106 15.2474 27.3026 15.3645C27.1968 15.5378 26.9785 15.7157 26.8682 15.7765C26.7016 15.8395 26.6499 15.9543 26.6544 16.0669C26.7152 16.1772 26.2853 16.7017 26.1165 16.7085C26.0039 16.713 26.0062 16.7693 26.0084 16.8255C26.0174 17.0506 22.8731 20.1642 22.648 20.1732C22.5918 20.1755 22.54 20.2903 22.5423 20.3465C22.549 20.5154 21.8333 20.9386 21.7162 20.8306C21.6577 20.7766 21.5474 20.8374 21.5496 20.8937C21.4979 21.0085 21.3853 21.013 21.2728 21.0175C20.8226 21.0356 20.1877 20.6665 20.1697 20.2163C20.1674 20.16 20.1089 20.106 20.0526 20.1082C19.8838 20.115 20.0368 19.7143 20.3092 19.4779C20.5275 19.3001 20.5252 19.2438 20.3496 19.0817C20.1718 18.8634 20.5363 18.116 20.8177 18.1047C20.874 18.1025 20.928 18.0439 20.8695 17.9899C20.8087 17.8796 20.8627 17.8211 20.9167 17.7626C21.027 17.7018 21.081 17.6432 21.0788 17.587C21.072 17.4181 21.8845 16.5964 22.1051 16.4748C22.2177 16.4703 22.3234 16.297 22.3729 16.1259C22.526 15.7252 24.851 13.2646 25.0761 13.2555C25.2449 13.2488 25.2989 13.1902 25.2921 13.0214C25.2831 12.7963 25.4452 12.6207 25.8909 12.4901C26.0574 12.427 26.1655 12.31 26.1632 12.2537C26.1564 12.0849 27.2953 10.9682 27.4641 10.9615C27.4641 10.9615 27.5744 10.9007 27.6262 10.7859C27.6802 10.7273 27.9008 10.6057 28.1236 10.5404C28.3465 10.4751 28.5108 10.3558 28.5625 10.241C28.558 10.1284 28.7156 9.8403 28.8754 9.60842C29.0352 9.37655 29.1387 9.14693 29.1342 9.03438C29.1319 8.97811 29.1837 8.8633 29.2377 8.80477C29.2354 8.74849 29.2894 8.68996 29.2849 8.57741C29.3389 8.51887 29.3862 8.29152 29.4897 8.0619C29.5932 7.83228 29.5842 7.60718 29.5279 7.60944C29.4716 7.6117 29.4131 7.55768 29.4086 7.44513C29.3433 7.22229 29.1137 7.11877 28.9448 7.12554C28.8886 7.1278 28.776 7.13231 28.722 7.19085C28.614 7.30791 28.5037 7.3687 28.3911 7.37322C28.0535 7.38676 26.7209 7.89115 26.7277 8.05998C26.73 8.11625 26.6197 8.17704 26.5071 8.18156C26.3946 8.18607 26.2843 8.24686 26.2325 8.36167C26.237 8.47422 26.1267 8.53501 26.0705 8.53727C25.9016 8.54404 25.6338 8.89298 25.5866 9.12034C25.5888 9.17662 25.4808 9.29368 25.4268 9.35222C25.3187 9.46928 25.267 9.58409 25.2715 9.69664C25.2197 9.81145 25.1117 9.92851 24.9451 9.99156C24.7763 9.99833 24.7223 10.0569 24.8393 10.1649C25.0149 10.327 24.6908 10.6782 24.4635 10.6309C24.3487 10.5791 24.2947 10.6377 24.36 10.8605C24.4298 11.1959 24.0539 11.6619 23.7163 11.6755C23.66 11.6777 23.6082 11.7925 23.669 11.9028C23.6758 12.0717 23.624 12.1865 23.4057 12.3643C23.2414 12.4836 23.1334 12.6007 23.1356 12.657C23.1379 12.7133 23.0321 12.8866 22.9241 13.0037C22.762 13.1793 22.4379 13.5305 22.2241 13.8209C22.0103 14.1113 21.7942 14.3454 21.7379 14.3477C21.6817 14.3499 21.5714 14.4107 21.4633 14.5278C21.4093 14.5863 21.2428 14.6494 21.0739 14.6561C20.9591 14.6044 20.9028 14.6066 20.9614 14.6606C21.1932 14.8204 20.7769 15.6826 20.4955 15.6939C20.383 15.6984 20.275 15.8155 20.2772 15.8718C20.2817 15.9843 19.5795 16.7453 18.875 17.4499C18.6567 17.6278 18.4946 17.8034 18.4969 17.8596C18.4991 17.9159 18.4451 17.9744 18.3889 17.9767C18.2763 17.9812 18.2223 18.0398 18.2245 18.096C18.2268 18.1523 18.0625 18.2716 17.8419 18.3932C17.6753 18.4563 17.511 18.5756 17.5133 18.6319C17.5178 18.7444 17.1374 19.0979 16.9686 19.1046C16.9123 19.1069 16.8583 19.1654 16.8065 19.2802C16.757 19.4513 15.8184 19.9399 15.6473 19.8904C15.5348 19.8949 15.4222 19.8994 15.4268 20.012C15.375 20.1268 15.2647 20.1876 15.1521 20.1921C14.8708 20.2034 14.4656 19.9378 14.1661 19.4989C14.0423 19.222 13.9275 19.1703 13.8149 19.1748C13.7046 19.2356 13.5943 19.2964 13.4818 19.3009C13.4255 19.3031 13.3715 19.3617 13.376 19.4742C13.3805 19.5868 13.2747 19.7601 13.1082 19.8232C12.9439 19.9425 12.7233 20.0641 12.6715 20.1789C12.5635 20.2959 12.3992 20.4153 12.2866 20.4198C12.1178 20.4266 12.0075 20.4873 11.9535 20.5459C11.9017 20.6607 11.7352 20.7237 11.5101 20.7328C11.3412 20.7395 11.1184 20.8048 11.0644 20.8634C11.0126 20.9782 10.9563 20.9804 10.9001 20.9827C10.7875 20.9872 10.6705 20.8792 10.6097 20.7689C10.5466 20.6023 10.4903 20.6046 10.4363 20.6631C10.4386 20.7194 10.3823 20.7216 10.326 20.7239C10.2135 20.7284 10.0379 20.5664 10.0288 20.3413C10.0266 20.285 9.96354 20.1184 9.90727 20.1207ZM34.3705 13.1081C34.4268 13.1058 34.4245 13.0496 34.4245 13.0496C34.4223 12.9933 34.4223 12.9933 34.366 12.9956C34.3097 12.9978 34.3097 12.9978 34.312 13.0541C34.312 13.0541 34.3142 13.1104 34.3705 13.1081ZM57.8753 10.3051C57.8191 10.3073 57.8213 10.3636 57.8213 10.3636C57.8236 10.4199 57.8236 10.4199 57.8798 10.4176C57.8798 10.4176 57.9361 10.4153 57.9339 10.3591L57.8753 10.3051ZM49.6296 8.49396C49.5756 8.55249 49.5756 8.55249 49.7444 8.54572C49.857 8.5412 49.9133 8.53894 49.8547 8.48493C49.8547 8.48493 49.7422 8.48944 49.6296 8.49396ZM35.6421 11.0843C35.5318 11.1451 35.48 11.2599 35.4823 11.3162C35.5408 11.3702 35.5994 11.4242 35.6556 11.4219C35.7119 11.4197 35.7659 11.3611 35.82 11.3026C35.874 11.2441 35.9843 11.1833 36.0428 11.2373C36.0991 11.2351 36.2094 11.1743 36.2611 11.0595C36.3579 10.661 36.5762 10.4832 36.8598 10.5281C37.0309 10.5776 37.0849 10.5191 37.0827 10.4628C37.0196 10.2963 37.4518 9.82801 37.9447 9.47003C38.1653 9.34845 38.4376 9.11206 38.5457 8.995C38.5974 8.88019 38.764 8.81714 38.8765 8.81263C38.9891 8.80811 39.473 8.22504 39.5202 7.99768C39.518 7.94141 39.6215 7.71179 39.7295 7.59472C40.0491 7.13098 40.0356 6.79332 39.8105 6.80236C39.6979 6.80687 39.5876 6.86766 39.5359 6.98247C39.5381 7.03875 39.4301 7.15581 39.3176 7.16033C39.2613 7.16258 39.205 7.16484 39.2073 7.22112C39.2095 7.27739 38.9889 7.39897 38.7661 7.46428C38.5455 7.58586 38.3249 7.70744 38.3272 7.76372C38.3294 7.81999 38.2732 7.82225 38.1606 7.82677C38.1043 7.82902 37.9963 7.94609 37.9423 8.00462C37.8905 8.11943 37.7239 8.18248 37.5574 8.24553C37.276 8.25681 37.168 8.37388 37.069 8.71605C36.9654 8.94566 36.7471 9.12352 36.6931 9.18205C36.5243 9.18883 36.4748 9.35991 36.4838 9.58501C36.4951 9.86639 36.3376 10.1545 36.1125 10.1636C36.1125 10.1636 36.0562 10.1658 35.9976 10.1118C35.9414 10.1141 35.9436 10.1703 36.0607 10.2784C36.18 10.4427 36.18 10.4427 36.0157 10.562C35.9054 10.6228 35.8537 10.7376 35.8559 10.7939C35.8604 10.9064 35.7524 11.0235 35.6421 11.0843ZM22.6083 7.94341C22.2392 8.57824 22.0885 9.03522 22.3136 9.02619C22.3698 9.02393 22.4239 8.9654 22.4193 8.85285C22.4711 8.73804 22.5814 8.67725 22.6377 8.67499C22.7502 8.67047 22.8042 8.61194 22.802 8.55567C22.7997 8.49939 22.91 8.4386 23.0203 8.37781C23.1306 8.31702 23.3512 8.19544 23.5132 8.01984C23.6776 7.90052 23.8419 7.78119 23.9544 7.77668C24.0107 7.77442 24.121 7.71363 24.1187 7.65735C24.1165 7.60108 24.1705 7.54254 24.2268 7.54029C24.4519 7.53126 24.8097 6.61505 24.6341 6.453C24.5755 6.39898 24.463 6.40349 24.3504 6.40801C23.9002 6.42607 22.9571 6.8021 22.9706 7.13976C22.9752 7.2523 22.8199 7.59673 22.6083 7.94341ZM4.45501 17.6902L4.50903 17.6317C4.50677 17.5754 4.45049 17.5777 4.45049 17.5777C4.39422 17.5799 4.39422 17.5799 4.39647 17.6362C4.39647 17.6362 4.39873 17.6925 4.45501 17.6902ZM7.75735 18.516C7.75735 18.516 7.81363 18.5137 7.81137 18.4574L7.75284 18.4034C7.69656 18.4057 7.69882 18.4619 7.69882 18.4619C7.70108 18.5182 7.70108 18.5182 7.75735 18.516ZM17.6436 16.2593C17.6998 16.257 17.6998 16.257 17.6976 16.2007C17.6976 16.2007 17.6953 16.1445 17.639 16.1467C17.5828 16.149 17.585 16.2052 17.585 16.2052C17.5873 16.2615 17.5873 16.2615 17.6436 16.2593ZM18.294 15.6131L18.348 15.5546C18.3458 15.4983 18.2895 15.5006 18.2895 15.5006C18.2332 15.5029 18.2332 15.5029 18.2355 15.5591C18.2355 15.5591 18.2378 15.6154 18.294 15.6131ZM18.4493 15.2687C18.5056 15.2665 18.5056 15.2665 18.5033 15.2102C18.5011 15.1539 18.5011 15.1539 18.4448 15.1562C18.4448 15.1562 18.3885 15.1584 18.3908 15.2147C18.393 15.271 18.4493 15.2687 18.4493 15.2687ZM18.8905 15.0256C19.0593 15.0188 19.1696 14.958 19.1696 14.958C19.1628 14.7892 19.102 14.6789 18.9895 14.6834C18.9332 14.6857 18.8769 14.6879 18.8229 14.7464C18.5528 15.0391 18.5528 15.0391 18.8905 15.0256ZM19.1493 14.4515C19.2056 14.4493 19.2618 14.447 19.2033 14.393C19.201 14.3367 19.0885 14.3412 19.0907 14.3975C19.0367 14.456 19.093 14.4538 19.1493 14.4515ZM19.7525 14.0328C19.9168 13.9134 19.694 13.9787 19.4734 14.1003C19.1988 14.2804 19.1988 14.2804 19.4756 14.1566C19.5882 14.1521 19.7548 14.089 19.7525 14.0328ZM20.1869 13.6208C20.2949 13.5037 20.2904 13.3912 20.2904 13.3912C20.1734 13.2831 19.847 13.578 19.8515 13.6906C19.8538 13.7469 19.9123 13.8009 19.9686 13.7986C20.0248 13.7964 20.1351 13.7356 20.1869 13.6208ZM19.887 8.95444C19.8892 9.01072 19.9455 9.00846 19.9455 9.00846C20.0018 9.0062 20.0018 9.0062 19.9995 8.94993C19.9973 8.89365 19.9973 8.89365 19.941 8.89591C19.941 8.89591 19.8847 8.89817 19.887 8.95444ZM21.0467 12.5717C21.1524 12.3984 21.1524 12.3984 20.9881 12.5177C20.8261 12.6933 20.7721 12.7518 20.8846 12.7473C20.8846 12.7473 20.9386 12.6888 21.0467 12.5717ZM22.0235 11.6307C22.0798 11.6284 22.0798 11.6284 22.0775 11.5721C22.0775 11.5721 22.0753 11.5158 22.019 11.5181C21.9627 11.5204 21.965 11.5766 21.965 11.5766C21.9672 11.6329 21.9672 11.6329 22.0235 11.6307ZM21.8206 9.38416C21.7666 9.44269 21.8252 9.49671 21.8814 9.49445C21.9377 9.49219 21.9917 9.43366 21.9895 9.37738C21.9872 9.32111 21.9849 9.26483 21.9287 9.26709C21.9287 9.26709 21.8747 9.32562 21.8206 9.38416ZM19.7741 6.14068C19.5085 6.5459 19.5153 6.71472 19.6841 6.70795C19.8529 6.70117 20.1298 6.57734 20.5124 6.28016C20.7285 6.04602 21.0054 5.92219 21.0616 5.91993C21.2305 5.91316 21.6108 5.5597 21.6041 5.39087C21.6041 5.39087 21.5455 5.33686 21.3767 5.34363C21.1516 5.35266 20.8162 5.42248 20.4831 5.54858C20.204 5.61614 19.9834 5.73772 19.9856 5.794C19.9879 5.85027 19.8821 6.02361 19.7741 6.14068ZM19.5066 9.3079C19.5134 9.47672 18.523 10.0801 18.2979 10.0891C18.0705 10.0419 18.021 10.213 18.1944 10.3188C18.3677 10.4245 18.1584 10.8275 17.9896 10.8343C17.877 10.8388 17.823 10.8973 17.7712 11.0121C17.7172 11.0707 17.6655 11.1855 17.5529 11.19C17.4404 11.1945 17.3864 11.253 17.3886 11.3093C17.3931 11.4219 17.1253 11.7708 16.7989 12.0657C16.4748 12.4169 16.207 12.7659 16.153 12.8244C16.1552 12.8807 16.0449 12.9415 15.9369 13.0585C15.7703 13.1216 15.7163 13.1801 15.7254 13.4052C15.7276 13.4615 15.6173 13.5223 15.507 13.5831C15.3967 13.6438 15.2887 13.7609 15.291 13.8172C15.2977 13.986 14.9173 14.3395 14.744 14.2337C14.6877 14.236 14.69 14.2922 14.6968 14.4611C14.8183 14.6816 14.7126 14.855 13.9563 15.6744C13.8483 15.7915 13.7425 15.9648 13.7448 16.0211C13.747 16.0774 13.5332 16.3678 13.2631 16.6605C12.8332 17.185 12.5227 17.8739 12.7478 17.8648C12.8041 17.8626 12.8581 17.804 12.8536 17.6915C12.849 17.5789 13.0111 17.4033 13.288 17.2795C13.5085 17.1579 13.6729 17.0386 13.6683 16.926C13.6638 16.8135 14.2558 16.1134 14.3661 16.0526C14.5349 16.0458 15.0773 15.5167 15.0705 15.3479C15.0683 15.2916 15.1763 15.1746 15.2866 15.1138C15.4532 15.0507 15.5635 14.9899 15.5049 14.9359C15.5027 14.8796 15.6602 14.5915 15.9326 14.3551C16.2026 14.0624 16.4165 13.772 16.4142 13.7158C16.4119 13.6595 16.52 13.5424 16.6865 13.4794C16.7968 13.4186 16.9049 13.3015 16.8463 13.2475C16.8441 13.1912 17.0061 13.0156 17.2245 12.8378C17.4428 12.6599 17.6611 12.4821 17.6566 12.3695C17.6543 12.3132 17.7084 12.2547 17.7646 12.2524C17.8209 12.2502 17.8727 12.1354 17.9222 11.9643C17.9177 11.8517 18.1292 11.5051 18.3453 11.2709C18.8832 10.6293 19.2568 10.107 19.4661 9.70408C19.5719 9.53074 19.6777 9.3574 19.7339 9.35514C19.7902 9.35288 19.788 9.29661 19.7857 9.24033C19.7834 9.18406 19.7249 9.13004 19.6686 9.1323C19.5561 9.13681 19.5021 9.19535 19.5066 9.3079ZM15.3306 6.37531C15.1123 6.55317 15.0673 6.8368 15.2924 6.82777C15.3487 6.82552 15.4567 6.70845 15.5107 6.64992C15.5625 6.53511 15.7268 6.41579 15.8393 6.41127C16.0082 6.4045 16.0622 6.34596 16.0577 6.23341C15.9991 6.1794 16.1634 6.06007 16.438 5.87996C16.6609 5.81465 16.8229 5.63905 16.7667 5.64131C16.7081 5.58729 16.7621 5.52876 16.8747 5.52424C16.931 5.52199 17.0975 5.45894 17.1516 5.40041C17.2033 5.2856 17.4239 5.16402 17.5927 5.15724C17.7593 5.0942 17.9259 5.03115 17.9213 4.9186C17.9191 4.86232 18.1374 4.68446 18.412 4.50435C18.9095 4.25893 19.1255 4.0248 18.8442 4.03609C18.7879 4.03834 18.7293 3.98433 18.7248 3.87178C18.7226 3.8155 18.7203 3.75923 18.6078 3.76374C18.5515 3.766 18.3849 3.82905 18.1643 3.95063C18.0023 4.12623 17.7232 4.19379 17.6106 4.19831C17.3833 4.15106 17.3292 4.2096 17.3923 4.37616C17.3968 4.48871 17.2888 4.60578 17.1785 4.66657C17.1222 4.66883 16.8476 4.84894 16.6855 5.02454C16.4672 5.2024 16.3029 5.32172 16.1904 5.32624C16.1341 5.32849 15.9743 5.56037 15.8145 5.79224C15.6547 6.02412 15.4409 6.31452 15.3306 6.37531ZM15.0695 6.89308L15.0155 6.95161C15.0178 7.00789 15.0741 7.00563 15.0741 7.00563C15.1303 7.00337 15.1303 7.00337 15.1281 6.9471C15.1281 6.9471 15.1258 6.89082 15.0695 6.89308ZM9.97884 16.2849C9.97207 16.1161 10.6743 15.3552 10.8431 15.3484C10.8994 15.3462 10.8971 15.2899 10.8949 15.2336C10.8926 15.1773 11.3743 14.538 11.6466 14.3016C11.9167 14.0089 12.6189 13.248 13.0488 12.7235C13.2626 12.4331 13.535 12.1967 13.5912 12.1944C13.6475 12.1921 13.7015 12.1336 13.6993 12.0773C13.6925 11.9085 13.9041 11.5618 14.6063 10.8009C14.8224 10.5668 14.9844 10.3912 14.9822 10.3349C14.9776 10.2223 15.4661 9.75183 15.5786 9.74731C15.6349 9.74505 15.7407 9.57171 15.7879 9.34435C15.9387 8.88738 16.4788 8.30205 16.7602 8.29076C16.929 8.28399 16.9831 8.22546 16.812 8.17595C16.8097 8.11968 16.7534 8.12194 16.6972 8.12419C16.5283 8.13097 16.364 8.25029 16.0939 8.54295C15.9859 8.66002 15.8193 8.72307 15.7631 8.72533C15.7068 8.72758 15.6528 8.78612 15.7113 8.84014C15.7698 8.89415 15.6595 8.95494 15.4907 8.96172C15.4344 8.96397 15.3782 8.96623 15.3219 8.96849C15.2656 8.97075 15.2116 9.02928 15.2139 9.08555C15.2229 9.31066 14.3001 10.1932 14.075 10.2022C13.9624 10.2067 13.9084 10.2652 13.9107 10.3215C14.03 10.4858 13.7036 10.7808 13.375 11.0194C13.2647 11.0802 13.1567 11.1973 13.1589 11.2535C13.1657 11.4224 12.8393 11.7173 12.5085 11.8997C12.3442 12.019 12.0718 12.2554 11.9683 12.485C11.8648 12.7146 11.651 13.005 11.5429 13.1221C11.3764 13.1851 11.2706 13.3585 11.2728 13.4147C11.2774 13.5273 11.1693 13.6443 11.0005 13.6511C10.8902 13.7119 10.7236 13.775 10.7259 13.8312C10.7281 13.8875 10.6786 14.0586 10.5706 14.1757C10.4086 14.3513 10.3591 14.5223 10.3613 14.5786C10.3636 14.6349 10.2555 14.752 10.1452 14.8127C10.0327 14.8173 9.92466 14.9343 9.92692 14.9906C9.92917 15.0469 9.76938 15.2788 9.60733 15.4544C9.44527 15.63 9.28322 15.8056 9.28548 15.8618C9.28774 15.9181 9.07392 16.2085 8.80609 16.5574C8.47973 16.8524 8.26592 17.1428 8.32671 17.2531C8.32897 17.3093 8.27946 17.4804 8.17143 17.5975C8.06339 17.7146 8.01163 17.8294 8.01389 17.8856C8.07243 17.9397 8.07468 17.9959 7.96213 18.0005C7.90586 18.0027 7.85184 18.0612 7.91263 18.1715C7.9194 18.3404 7.9194 18.3404 8.0792 18.1085C8.18723 17.9914 8.34929 17.8158 8.51585 17.7528C8.62615 17.692 8.73418 17.5749 8.73192 17.5186C8.72515 17.3498 9.21357 16.8793 9.65474 16.6361C9.81905 16.5168 9.98336 16.3975 9.97884 16.2849Z"
    fill="#0F0404"></path>
</svg>
