<svg fill="none" height="24" viewBox="0 0 81 24" width="81" xmlns="http://www.w3.org/2000/svg">
  <path d="M76.6531 11.4083C76.4658 11.4158 76.4059 11.4807 76.4758 11.6655C76.4808 11.7903 76.4884 11.9776 76.3036 12.0476C76.1812 12.115 76.0614 12.2449 76.0639 12.3073C76.0664 12.3697 75.8891 12.6269 75.7119 12.8842C75.4122 13.2088 75.2375 13.5285 75.2999 13.526C75.5396 13.2662 75.9716 13.1239 76.3462 13.1088C76.4086 13.1063 76.4735 13.1663 76.4735 13.1663C76.4735 13.1663 76.4161 13.2936 76.3562 13.3585C76.2438 13.6757 75.5298 14.5797 75.2226 14.7171C75.0379 14.787 74.8581 14.9818 74.8007 15.1092C74.6858 15.3639 74.3163 15.5038 73.8793 15.5213C73.5047 15.5364 73.1876 15.424 73.1801 15.2367C73.1751 15.1119 73.0427 14.9296 72.9128 14.8098C72.6531 14.5701 72.6531 14.5701 72.8928 14.3104C73.135 14.1131 73.135 14.1131 72.9402 13.9333C72.683 13.756 72.7404 13.6287 72.9751 13.2441C73.1548 13.0493 73.2123 12.9219 73.1498 12.9244C73.0874 12.9269 72.9651 12.9944 72.7229 13.1917C72.4782 13.3265 72.1136 13.5913 71.9288 13.6612C71.7441 13.7312 71.5643 13.926 71.5668 13.9884C71.5718 14.1132 70.9701 14.7001 70.5431 14.9674C70.4207 15.0348 70.2385 15.1672 70.1186 15.297C69.9988 15.4269 69.8789 15.5568 69.8165 15.5593C69.7541 15.5618 69.4495 15.7616 69.1473 16.0238C68.8477 16.3485 68.4207 16.6157 68.236 16.6857C67.9888 16.7581 67.8065 16.8905 67.809 16.9529C67.8115 17.0153 67.7516 17.0803 67.6242 17.0228C67.4369 17.0304 67.377 17.0953 67.3196 17.2226C67.2672 17.4749 66.5905 17.7521 66.1535 17.7696C66.0287 17.7747 65.9038 17.7797 65.8389 17.7197C65.0123 17.3777 64.7824 16.324 65.3142 15.5523C65.494 15.3575 65.6088 15.1028 65.6063 15.0404C65.6038 14.9779 65.7237 14.8481 65.846 14.7806C66.0333 14.7731 66.1531 14.6433 66.2106 14.5159C66.2655 14.3261 66.263 14.2637 66.2005 14.2662C66.1381 14.2687 66.0782 14.3336 65.9583 14.4635C65.8385 14.5934 65.6562 14.7257 65.5938 14.7282C65.5314 14.7307 65.1668 14.9955 64.8672 15.3201C64.5052 15.6473 64.203 15.9095 64.0782 15.9145C64.0158 15.917 63.8909 15.9221 63.766 15.9271C63.7036 15.9296 63.5838 16.0594 63.5888 16.1843C63.5339 16.3741 63.414 16.5039 63.2267 16.5115C62.9795 16.5839 62.7998 16.7787 62.62 16.9735C62.5052 17.2282 62.3254 17.423 62.2005 17.428C62.0133 17.4355 61.8285 17.5055 61.7111 17.6978C61.5314 17.8926 60.3803 18.8141 60.2555 18.8191C60.193 18.8216 60.0707 18.8891 60.0133 19.0164C59.8934 19.1463 59.7061 19.1538 59.5813 19.1588C59.3316 19.1688 59.1468 19.2388 58.967 19.4336C58.7873 19.6284 58.6649 19.6958 58.54 19.7008C58.4152 19.7058 58.3503 19.6459 58.1555 19.4661C57.9607 19.2864 57.7684 19.169 57.706 19.1715C57.4562 19.1815 57.3588 18.3101 57.606 18.2376C57.6659 18.1727 57.7233 18.0453 57.6559 17.923C57.5884 17.8006 57.6483 17.7357 57.7108 17.7332C57.7732 17.7307 57.953 17.5359 58.0678 17.2812C58.1826 17.0265 58.3624 16.8317 58.4873 16.8267C58.6121 16.8216 58.6695 16.6943 59.2638 15.9201C59.3811 15.7278 59.5634 15.5954 59.6258 15.5929C59.7507 15.5879 59.8106 15.523 59.8056 15.3981C59.8031 15.3357 59.9828 15.1409 60.225 14.9436C60.4073 14.8113 60.6495 14.614 60.6445 14.4891C60.7044 14.4242 60.8867 14.2918 61.0065 14.1619C61.1913 14.092 61.3112 13.9621 61.3087 13.8997C61.3036 13.7748 61.4834 13.5801 61.6657 13.4477C61.9079 13.2504 62.0877 13.0556 62.1476 12.9907C62.2075 12.9257 62.3273 12.7959 62.3898 12.7934C62.5146 12.7883 62.6969 12.656 62.7518 12.4662C62.8692 12.2739 63.2287 11.8843 63.5932 11.6196C64.1975 11.0951 64.4921 10.6456 64.2998 10.5283C64.2349 10.4683 64.1749 10.5333 64.1175 10.6606C64.0676 10.9753 63.763 11.1751 63.5133 11.1851C63.4509 11.1876 63.326 11.1926 63.2611 11.1327C63.1337 11.0753 63.0688 11.0153 63.0063 11.0178C62.8815 11.0228 62.8865 11.1477 63.0164 11.2675C63.2112 11.4473 62.7368 12.0916 62.4246 12.1041C62.3622 12.1067 62.1799 12.239 61.9977 12.3714C61.3335 12.9608 61.1512 13.0932 60.9015 13.1032C60.8391 13.1057 60.7767 13.1082 60.7142 13.1107C60.5894 13.1157 60.527 13.1182 60.4021 13.1232C60.1524 13.1332 60.0925 13.1982 60.1025 13.4479C60.115 13.76 59.758 14.212 59.2062 14.4843C58.9615 14.6191 58.8416 14.749 58.8441 14.8114C58.8466 14.8739 58.5395 15.0112 58.2349 15.2111C57.9277 15.3484 57.5632 15.6132 57.5058 15.7405C57.3859 15.8704 57.2011 15.9403 57.0139 15.9478C56.8291 16.0178 56.7692 16.0827 56.7742 16.2076C56.8416 16.3299 56.7817 16.3949 56.7193 16.3974C56.5944 16.4024 56.4146 16.5972 56.2324 16.7295C56.0526 16.9243 55.748 17.1241 55.6231 17.1291C55.4358 17.1367 55.311 17.1417 55.3759 17.2016C55.4433 17.3239 55.2611 17.4563 54.5345 18.0482C54.3522 18.1806 54.1699 18.3129 54.11 18.3779C54.0501 18.4428 53.8054 18.5777 53.6855 18.7075C53.5008 18.7775 53.1961 18.9773 53.0164 19.1721C52.8366 19.3669 52.5919 19.5018 52.4696 19.5692C52.3447 19.5742 52.2873 19.7016 52.2898 19.764C52.2923 19.8264 52.2299 19.8289 52.1674 19.8314C52.0426 19.8364 51.9227 19.9663 51.8628 20.0312C51.743 20.1611 51.5582 20.231 51.4333 20.236C51.3085 20.2411 51.1861 20.3085 51.1886 20.3709C51.1911 20.4333 51.0688 20.5008 50.8815 20.5083C50.7567 20.5133 50.6343 20.5807 50.6393 20.7056C50.6543 21.0802 49.4133 21.3175 49.1012 21.3301C48.9738 21.2726 48.8439 21.1528 48.8389 21.0279C48.8339 20.9031 48.7066 20.8457 48.5218 20.9156C48.1497 20.9931 47.9948 20.2489 48.2295 19.8644C48.3493 19.7345 48.4018 19.4823 48.3967 19.3574C48.3892 19.1701 48.5091 19.0403 48.7538 18.9054C48.9386 18.8355 49.0584 18.7056 49.0584 18.7056C48.9784 18.2711 49.695 17.4295 50.0696 17.4145C50.2569 17.407 50.3168 17.342 50.3143 17.2796C50.1794 17.0349 51.1981 15.9311 51.5102 15.9185C51.6975 15.911 51.7574 15.8461 51.69 15.7237C51.6201 15.539 51.8598 15.2792 52.1719 15.2667C52.4216 15.2567 52.9709 14.922 52.7187 14.8696C52.2817 14.8871 53.3528 13.5311 53.7898 13.5135C53.8522 13.511 53.9746 13.4436 54.0295 13.2538C54.0245 13.129 54.2068 12.9966 54.3316 12.9916C54.6413 12.9166 54.6287 12.6045 54.3141 12.5546C54.1268 12.5621 54.002 12.5671 54.007 12.692C54.0145 12.8793 53.2829 13.3463 53.0906 13.229C53.0282 13.2315 52.9058 13.2989 52.8509 13.4887C52.7935 13.616 52.6137 13.8108 52.4314 13.9432C51.942 14.213 51.3952 14.6101 51.2779 14.8023C51.2804 14.8648 51.0956 14.9347 50.9707 14.9397C50.8459 14.9447 50.7235 15.0122 50.6636 15.0771C50.6661 15.1395 50.5438 15.207 50.5413 15.1445C50.4788 15.147 50.3565 15.2145 50.2991 15.3418C50.2416 15.4692 50.0594 15.6016 49.9969 15.6041C49.9345 15.6066 49.7523 15.7389 49.6349 15.9312C49.5176 16.1235 49.3353 16.2559 49.2104 16.2609C49.0856 16.2659 48.8409 16.4008 48.6611 16.5956C48.2417 17.0501 47.6349 17.5121 47.4476 17.5197C47.3852 17.5222 47.3253 17.5871 47.3278 17.6495C47.3303 17.712 47.2079 17.7794 47.0232 17.8493C46.8359 17.8568 46.5338 18.1191 46.354 18.3139C46.1742 18.5087 45.8097 18.7734 45.505 18.9732C45.1979 19.1106 44.9557 19.3079 44.9582 19.3703C44.9607 19.4327 44.716 19.5676 44.4688 19.6401C44.2241 19.7749 43.9794 19.9098 43.9195 19.9747C43.8596 20.0397 43.6748 20.1096 43.5499 20.1146C43.4251 20.1196 43.3652 20.1846 43.3702 20.3094C43.3777 20.4967 42.4663 21.1585 42.2141 21.1061C42.1517 21.1086 42.0943 21.236 42.0368 21.3634C42.0419 21.4882 41.8596 21.6206 41.7347 21.6256C41.485 21.6356 41.0555 21.8404 40.8158 22.1001C40.6935 22.1676 40.5087 22.2375 40.3214 22.245C40.1342 22.2525 39.8844 22.2626 39.8245 22.3275C39.7022 22.3949 39.5773 22.3999 39.5099 22.2776L39.5124 22.34C39.5074 22.2152 39.3201 22.2227 39.1952 22.2277C38.6958 22.2477 38.7656 20.8693 39.3099 20.4098C39.4922 20.2774 39.612 20.1475 39.6095 20.0851C39.602 19.8978 40.1438 19.3759 40.2687 19.3709C40.3935 19.3659 40.391 19.3034 40.3885 19.241C40.3236 19.1811 40.3211 19.1187 40.3835 19.1161C40.4459 19.1136 40.808 18.7865 41.1675 18.3969C41.5895 18.0048 41.949 17.6152 42.0739 17.6102C42.1962 17.5428 42.2536 17.4154 42.2486 17.2905C42.2461 17.2281 42.3035 17.1008 42.4284 17.0957C42.4908 17.0932 42.6107 16.9634 42.7929 16.831C42.9103 16.6387 43.0925 16.5063 43.2798 16.4988C43.5295 16.4888 43.5895 16.4239 43.522 16.3015C43.4546 16.1792 44.5906 14.8831 44.8403 14.873C44.9652 14.868 45.6243 14.1538 45.6193 14.0289C45.5544 13.969 45.7367 13.8366 45.9814 13.7018C46.1661 13.6318 46.3484 13.4994 46.3459 13.437C46.3334 13.1249 47.4895 12.3282 47.7417 12.3806C47.9939 12.433 47.9939 12.433 47.8565 12.1259C47.7866 11.9411 47.7816 11.8162 47.844 11.8137C47.9064 11.8112 48.0887 11.6788 48.2085 11.549C48.3883 11.3542 48.5082 11.2243 48.633 11.2193C48.6954 11.2168 48.8153 11.0869 48.8103 10.9621C48.8677 10.8347 49.0475 10.6399 49.2322 10.57C49.4145 10.4376 49.5968 10.3053 49.5943 10.2428C49.5868 10.0555 50.0112 9.72588 50.2609 9.71586C50.4482 9.70834 50.5081 9.64341 50.4407 9.52106C50.4382 9.45864 50.5555 9.26634 50.7977 9.06904C51.0399 8.87174 51.2197 8.67695 51.2746 8.48716C51.332 8.3598 51.6916 7.97021 52.1135 7.57811C52.538 7.24845 52.8376 6.92378 52.7752 6.92629C52.6503 6.9313 52.101 7.26598 52.1035 7.3284C52.111 7.51569 51.312 7.86038 51.0598 7.80797C50.87 7.75306 50.7477 7.82049 50.6978 8.13514C50.6428 8.32492 50.4631 8.51972 50.2758 8.52723C50.091 8.59717 49.9087 8.72954 49.8488 8.79447C49.7939 8.98426 48.7552 9.58868 48.1983 9.73608C48.0136 9.80602 47.8912 9.87346 47.8987 10.0607C47.9037 10.1856 47.8438 10.2505 47.719 10.2555C47.6565 10.258 47.4742 10.3904 47.292 10.5228C47.1097 10.6551 46.9274 10.7875 46.8026 10.7925C46.6777 10.7975 46.6178 10.8625 46.5579 10.9274C46.5629 11.0523 45.5292 11.7815 45.1596 11.9214C45.0348 11.9264 44.9773 12.0538 44.9773 12.0538C44.9798 12.1162 44.7351 12.2511 44.4904 12.386C44.2457 12.5208 44.001 12.6557 44.0035 12.7181C44.006 12.7806 43.9461 12.8455 43.8213 12.8505C43.6964 12.8555 43.5141 12.9879 43.3943 13.1177C43.2744 13.2476 42.9698 13.4474 42.7851 13.5173C42.5378 13.5898 42.3556 13.7222 42.3581 13.7846C42.3606 13.847 42.2357 13.852 42.1109 13.857C41.9236 13.8645 41.8012 13.932 41.8062 14.0568C41.8163 14.3065 41.1346 14.459 40.9473 14.4665C40.8199 14.409 40.8224 14.4715 40.8899 14.5938C40.9598 14.7786 40.3556 15.3031 39.981 15.3181C39.8562 15.3231 39.7937 15.3256 39.7987 15.4505C39.8012 15.5129 39.7388 15.5154 39.614 15.5204C39.5515 15.5229 39.4317 15.6528 39.4342 15.7152C39.3743 15.7801 39.0696 15.9799 38.765 16.1797C38.4579 16.3171 38.0908 16.5194 38.0309 16.5844C37.9086 16.6518 37.6614 16.7242 37.5365 16.7293C37.4117 16.7343 37.2893 16.8017 37.2968 16.989C37.3018 17.1138 37.2444 17.2412 37.1196 17.2462C37.0571 17.2487 36.8124 17.3836 36.6926 17.5134C36.5128 17.7082 36.3305 17.8406 36.2057 17.8456C36.0808 17.8506 36.0209 17.9156 36.0234 17.978C36.0259 18.0404 35.2319 18.51 35.0446 18.5175C34.9822 18.52 34.8623 18.6498 34.7425 18.7797C34.6851 18.9071 34.5652 19.0369 34.5028 19.0394C34.4404 19.0419 34.1957 19.1768 34.0134 19.3092C33.7712 19.5065 33.5265 19.6414 33.4641 19.6439C33.4016 19.6464 33.2818 19.7762 33.1619 19.9061C33.0421 20.036 32.8598 20.1683 32.7949 20.1084C32.7325 20.1109 32.6076 20.1159 32.5502 20.2433C32.5552 20.3681 32.3729 20.5005 32.1282 20.6354C31.9435 20.7053 31.6388 20.9051 31.4566 21.0375C31.2743 21.1699 31.087 21.1774 30.9621 21.1824C30.7124 21.1924 30.5851 21.135 30.5151 20.9502C30.4477 20.8278 30.4452 20.7654 30.3828 20.7679C30.3828 20.7679 30.2604 20.8354 30.1381 20.9028C30.0756 20.9053 30.0756 20.9053 30.0132 20.9078C29.8259 20.9153 29.6911 20.6706 29.8683 20.4134C29.9882 20.2835 29.9857 20.2211 29.7959 20.1662C29.4113 19.9315 30.3525 18.4556 30.8519 18.4356C30.9144 18.4331 31.0342 18.3032 31.0916 18.1758C31.1491 18.0485 31.2689 17.9186 31.3938 17.9136C31.5186 17.9086 31.5785 17.8437 31.5735 17.7188C31.571 17.6564 31.6284 17.529 31.6909 17.5265C31.8157 17.5215 31.9955 17.3267 32.1753 17.1319C32.3525 16.8747 32.6546 16.6125 32.777 16.545C32.9618 16.4751 33.0816 16.3452 33.0766 16.2204C33.0741 16.1579 33.1315 16.0306 33.2564 16.0256C33.3188 16.0231 33.5635 15.8882 33.6783 15.6335C33.8581 15.4387 34.2801 15.0466 34.5822 14.7844C34.8244 14.5871 35.1864 14.2599 35.3063 14.13C35.4261 14.0002 35.6109 13.9302 35.7982 13.9227C35.9855 13.9152 35.983 13.8528 35.9155 13.7304C35.7882 13.673 35.8456 13.5456 36.2101 13.2809C36.9342 12.6266 38.0753 11.4553 38.0728 11.3929C38.0702 11.3304 38.0053 11.2705 37.9429 11.273C37.818 11.278 37.5733 11.4129 37.3936 11.6077C37.2138 11.8025 37.0315 11.9349 36.8417 11.8799C36.7144 11.8225 36.6545 11.8875 36.6595 12.0123C36.6645 12.1372 36.4223 12.3345 36.1151 12.4718C35.8704 12.6067 35.5034 12.809 35.3236 13.0038C35.1439 13.1986 34.8992 13.3335 34.7743 13.3385C34.6494 13.3435 34.5271 13.4109 34.4697 13.5383C34.4722 13.6007 34.3523 13.7306 34.2275 13.7356C34.1651 13.7381 33.9204 13.873 33.6807 14.1327C33.4385 14.33 33.1938 14.4649 33.0689 14.4699C32.8192 14.4799 32.7568 14.4824 32.6419 14.7371C32.5845 14.8645 32.5246 14.9294 32.3997 14.9344C32.3373 14.9369 32.2749 14.9394 32.2125 14.942C32.0252 14.9495 31.9627 14.952 31.9703 15.1393C31.9753 15.2641 31.8554 15.394 31.793 15.3965C31.6681 15.4015 31.6057 15.404 31.6082 15.4664C31.6107 15.5288 31.2462 15.7936 30.8791 15.9959C30.4522 16.2631 30.0876 16.5279 29.9653 16.5953C29.9078 16.7227 29.7231 16.7926 29.6606 16.7951C29.5982 16.7976 29.4159 16.93 29.2362 17.1248C29.1163 17.2546 28.8741 17.4519 28.6868 17.4595C28.562 17.4645 28.4396 17.5319 28.4421 17.5943C28.4471 17.7192 27.9653 18.1762 27.778 18.1837C27.7155 18.1862 27.5333 18.3186 27.4134 18.4485C27.2936 18.5783 27.0489 18.7132 26.8017 18.7856C26.6169 18.8556 26.3722 18.9905 26.2549 19.1827C26.135 19.3126 25.9527 19.445 25.8279 19.45C25.703 19.455 25.4608 19.6523 25.2811 19.8471C25.1013 20.0419 24.8616 20.3016 24.7367 20.3066C24.6144 20.3741 24.4321 20.5064 24.3098 20.5739C24.1899 20.7037 24.1275 20.7062 23.8778 20.7163C23.6905 20.7238 23.3784 20.7363 22.8764 20.6939C22.5618 20.644 22.357 20.2145 22.4693 19.8974C22.5267 19.77 22.5817 19.5802 22.5167 19.5203C22.5142 19.4579 22.5691 19.2681 22.7539 19.1981C22.8738 19.0683 22.9936 18.9384 22.9911 18.876C22.9886 18.8136 23.1084 18.6837 23.2258 18.4914C23.4081 18.359 23.5254 18.1667 23.5229 18.1043C23.5204 18.0419 23.5803 17.977 23.7052 17.972C23.83 17.9669 24.0123 17.8346 24.0697 17.7072C24.1246 17.5174 24.3668 17.3201 24.6115 17.1853C24.8562 17.0504 25.0984 16.8531 25.1558 16.7257C25.2133 16.5984 25.3331 16.4685 25.3955 16.466C25.5204 16.461 25.5803 16.3961 25.5778 16.3336C25.5703 16.1463 25.8724 15.8841 26.1221 15.8741C26.247 15.8691 26.3643 15.6768 26.4217 15.5494C26.4766 15.3596 26.594 15.1674 26.7188 15.1623C26.9635 15.0275 27.2657 14.7652 27.745 14.2458C27.8649 14.1159 28.0472 13.9836 28.1096 13.9811C28.172 13.9785 28.2919 13.8487 28.3493 13.7213C28.4641 13.4666 28.4641 13.4666 28.2768 13.4741C28.152 13.4791 28.0296 13.5466 28.0346 13.6714C28.0397 13.7963 27.9173 13.8637 27.6052 13.8762C27.293 13.8888 27.2306 13.8913 27.3005 14.076C27.3055 14.2009 27.2456 14.2658 27.1233 14.3333C26.936 14.3408 26.8161 14.4706 26.8187 14.5331C26.8212 14.5955 26.6963 14.6005 26.509 14.608C26.4466 14.6105 26.3217 14.6155 26.3217 14.6155C26.1345 14.623 26.0745 14.688 25.9597 14.9427C25.9073 15.1949 25.7275 15.3897 25.6651 15.3922C25.5402 15.3972 25.4179 15.4647 25.298 15.5945C25.1782 15.7244 25.0533 15.7294 24.8661 15.7369C24.7412 15.7419 24.6763 15.682 24.6138 15.6845C24.5514 15.687 24.4915 15.7519 24.5614 15.9367C24.6314 16.1215 24.5689 16.124 24.3817 16.1315C24.2568 16.1365 24.077 16.3313 23.9572 16.4612C23.8399 16.6535 23.6576 16.7858 23.5952 16.7883C23.4703 16.7933 23.2256 16.9282 23.1058 17.0581C22.9235 17.1905 22.7412 17.3228 22.6788 17.3253C22.6163 17.3278 22.5564 17.3928 22.4366 17.5226C22.3767 17.5876 22.2568 17.7174 22.132 17.7224C22.0695 17.7249 21.8273 17.9222 21.5826 18.0571C21.4004 18.1895 21.1557 18.3243 21.0932 18.3269C21.0308 18.3294 20.9709 18.3943 20.9734 18.4567C20.9759 18.5191 20.7936 18.6515 20.6088 18.7215C20.4241 18.7914 20.2418 18.9238 20.2443 18.9862C20.2468 19.0486 20.1244 19.1161 19.9397 19.186C19.8148 19.191 19.5102 19.3908 19.2705 19.6505C19.0907 19.8453 18.8485 20.0426 18.7262 20.1101C18.5389 20.1176 18.4191 20.2474 18.2992 20.3773C18.2393 20.4422 18.1144 20.4473 17.9271 20.4548C17.8647 20.4573 17.7399 20.4623 17.6774 20.4648C17.615 20.4673 17.5526 20.4698 17.4902 20.4723C17.3029 20.4798 17.178 20.4848 17.1181 20.5498C17.0582 20.6147 16.9982 20.6796 16.9358 20.6821C16.811 20.6871 16.6811 20.5673 16.5487 20.385C16.4788 20.2002 16.3489 20.0804 16.2865 20.0829C15.9119 20.0979 16.0742 19.4661 16.5536 18.9467C16.6734 18.8168 16.7933 18.6869 16.7907 18.6245C16.7782 18.3124 19.6046 15.5103 19.9168 15.4978C20.0416 15.4928 20.1015 15.4278 20.0965 15.303C20.0865 15.0533 21.2275 13.882 21.4148 13.8745C21.4773 13.872 21.5372 13.807 21.5322 13.6822C21.5297 13.6198 21.647 13.4275 21.8293 13.2951C21.9491 13.1652 22.5509 12.5783 23.0902 11.9939C23.6919 11.4071 24.2936 10.8202 24.4759 10.6878C24.6582 10.5554 25.0177 10.1658 25.3148 9.77875C25.6144 9.45409 25.974 9.0645 26.0938 8.93463C26.2736 8.73984 26.2736 8.73984 26.0863 8.74735C25.9615 8.75236 25.9015 8.81729 25.904 8.87972C25.9065 8.94215 25.7842 9.00958 25.6593 9.01459C25.5345 9.0196 25.4721 9.0221 25.4771 9.14696C25.542 9.20688 25.4821 9.27181 25.2973 9.34176C25.1724 9.34676 25.0526 9.47663 25.0551 9.53906C25.0576 9.60148 24.9952 9.60399 24.9328 9.60649C24.8703 9.609 24.6881 9.74136 24.5083 9.93616C24.3909 10.1285 24.1462 10.2633 24.0838 10.2658C24.0214 10.2683 23.7792 10.4656 23.5994 10.6604C23.4197 10.8552 23.1749 10.9901 22.9877 10.9976C22.8004 11.0051 22.6805 11.135 22.6231 11.2623C22.6281 11.3872 22.4484 11.582 22.2661 11.7144C22.0813 11.7843 21.899 11.9167 21.9015 11.9791C21.904 12.0415 21.7842 12.1714 21.6618 12.2388C21.537 12.2438 21.1724 12.5086 20.8104 12.8357C20.5083 13.098 19.9015 13.56 19.4746 13.8273C19.0476 14.0945 18.6231 14.4242 18.5657 14.5515C18.3935 14.9336 17.9715 15.3257 17.6594 15.3382C17.5345 15.3432 17.4746 15.4082 17.537 15.4057C17.6044 15.528 16.6382 16.3796 16.4509 16.3871C16.3884 16.3897 16.2661 16.4571 16.2686 16.5195C16.2112 16.6469 16.0888 16.7143 16.0264 16.7168C15.9015 16.7218 15.7817 16.8517 15.7243 16.9791C15.6044 17.1089 15.4846 17.2388 15.3597 17.2438C15.2349 17.2488 15.1125 17.3162 15.115 17.3787C15.1251 17.6284 14.396 18.1578 14.1412 18.043C14.0139 17.9856 13.954 18.0505 14.0239 18.2353C14.1563 18.4176 13.7368 18.8721 13.3622 18.8871C13.2374 18.8921 13.1775 18.9571 13.18 19.0195C13.1825 19.0819 13.0626 19.2118 12.8779 19.2817C12.6931 19.3517 12.5757 19.544 12.5183 19.6713C12.5233 19.7962 12.4035 19.926 12.2786 19.931C12.2162 19.9335 12.0938 20.001 12.0964 20.0634C12.0989 20.1258 11.9815 20.3181 11.7967 20.3881C11.6769 20.5179 11.557 20.6478 11.557 20.6478C11.5595 20.7102 11.4372 20.7777 11.2499 20.7852C11.0626 20.7927 10.9403 20.8601 10.8854 21.0499C10.8929 21.2372 10.7131 21.432 10.4659 21.5044C10.2811 21.5744 10.1014 21.7692 10.0439 21.8965C10.049 22.0214 9.92911 22.1513 9.86668 22.1538C9.80425 22.1563 9.62198 22.2886 9.50464 22.4809C9.32487 22.6757 9.01524 22.7507 8.7031 22.7632C8.45339 22.7732 8.26611 22.7807 8.13624 22.6609C8.07131 22.601 8.00888 22.6035 8.01139 22.6659C8.01389 22.7283 7.88403 22.6085 7.74916 22.3638C7.41197 21.752 8.46554 19.959 9.15224 19.9314C9.2771 19.9264 9.33452 19.799 9.33201 19.7366C9.32199 19.4869 10.2208 18.5129 10.4081 18.5054C10.533 18.5004 10.5929 18.4355 10.528 18.3756C10.4605 18.2532 10.6403 18.0584 10.8201 17.8636C10.9998 17.6688 11.1796 17.474 11.1771 17.4116C11.1721 17.2867 11.7139 16.7648 11.9012 16.7573C12.026 16.7523 12.086 16.6873 12.021 16.6274C11.9511 16.4426 12.9048 15.2789 13.0921 15.2713C13.217 15.2663 13.2769 15.2014 13.2744 15.139C13.2719 15.0765 13.4492 14.8193 13.6289 14.6245C13.9885 14.2349 14.1033 13.9802 13.9785 13.9852C13.7912 13.9927 13.2443 14.3898 13.2494 14.5147C13.2569 14.702 13.1944 14.7045 12.8199 14.7195C12.3829 14.737 12.2605 14.8045 12.5203 15.0442C12.6501 15.164 11.147 16.6625 10.7151 16.8048C10.6551 16.8698 10.353 17.132 10.1158 17.4542C9.93857 17.7114 9.69888 17.9711 9.63645 17.9736C9.57402 17.9761 9.21198 18.3033 8.79002 18.6954C8.37056 19.1499 8.00851 19.4771 7.88366 19.4821C7.82123 19.4846 7.76131 19.5495 7.76632 19.6744C7.76882 19.7368 7.7114 19.8642 7.58655 19.8692C7.52412 19.8717 7.2195 20.0715 6.9773 20.2688C6.73761 20.5285 6.49541 20.7258 6.37056 20.7308C6.30813 20.7333 6.24821 20.7983 6.25322 20.9231C6.25823 21.048 6.07595 21.1803 5.9536 21.2478C5.77133 21.3801 5.34686 21.7098 5.04724 22.0345C4.62528 22.4266 4.38308 22.6239 4.25823 22.6289C4.1958 22.6314 4.13087 22.5715 4.06594 22.5115C4.00101 22.4516 3.93607 22.3917 3.93607 22.3917C3.81122 22.3967 3.7538 22.5241 3.76382 22.7738C3.77885 23.1483 3.72143 23.2757 3.09966 23.3632C2.47789 23.4506 1.45651 22.9289 1.94841 22.7215C2.13319 22.6516 2.12568 22.4643 1.87597 22.4743C1.56383 22.4869 1.67115 22.0449 2.09061 21.5903C2.33031 21.3306 2.50757 21.0734 2.50507 21.011C2.49254 20.6988 2.72472 20.2518 2.912 20.2443C3.09929 20.2368 3.15921 20.1718 3.09177 20.0495C3.08676 19.9246 3.14168 19.7349 3.26152 19.605C3.4438 19.4726 3.49871 19.2828 3.49621 19.2204C3.4912 19.0956 3.67347 18.9632 3.79332 18.8333C3.97559 18.701 4.09544 18.5711 4.09043 18.4462C4.08792 18.3838 4.20777 18.2539 4.33012 18.1865C4.45497 18.1815 4.51239 18.0541 4.50989 17.9917C4.44496 17.9318 4.49987 17.742 4.55979 17.6771C4.67964 17.5472 4.97675 17.1601 5.21143 16.7755C5.50854 16.3884 5.80816 16.0638 5.93301 16.0588C6.05786 16.0538 6.17771 15.9239 6.23012 15.6717C6.22261 15.4844 6.39737 15.1648 6.63956 14.9675C6.81683 14.7102 6.93417 14.5179 6.93166 14.4555C6.92916 14.3931 7.10893 14.1983 7.34862 13.9386C7.58831 13.6788 7.76558 13.4216 7.76307 13.3592C7.75806 13.2343 7.88041 13.1669 8.00026 13.037C8.18504 12.9671 8.36481 12.7723 8.42222 12.6449C8.59448 12.2629 8.83167 11.9407 9.13128 11.616C9.24862 11.4238 9.4309 11.2914 9.6806 11.2814C9.99024 11.2064 9.99024 11.2064 9.97521 10.8318C9.90026 10.5222 9.96018 10.4573 10.2099 10.4473C10.3947 10.3773 10.4546 10.3124 10.507 10.0602C10.497 9.81047 10.6168 9.68061 10.8016 9.61066C10.9839 9.4783 11.0438 9.41336 10.9764 9.29101C10.9714 9.16616 10.9689 9.10373 11.0313 9.10123C11.2186 9.09371 12.2373 7.98987 12.2297 7.80259C12.2272 7.74016 12.5243 7.35307 12.8864 7.02591C13.1835 6.63882 13.4831 6.31416 13.4806 6.25174C13.4781 6.18931 13.7178 5.92958 13.96 5.73228C14.1997 5.47255 14.3795 5.27775 14.3769 5.21533C14.3095 5.09298 14.9138 4.56851 15.101 4.561C15.1635 4.5585 15.2234 4.49356 15.2209 4.43114C15.2134 4.24385 15.4581 4.10898 15.6453 4.10147C15.7078 4.09896 15.7702 4.09646 15.8351 4.15638C15.9625 4.2138 16.0899 4.27122 16.2771 4.2637C16.402 4.2587 16.5294 4.31611 16.5369 4.5034C16.5419 4.62825 16.6717 4.7481 16.7342 4.74559C17.0463 4.73307 16.939 5.17507 16.4696 5.94423C16.0627 6.7109 15.9403 6.77833 15.3785 6.80087C15.2536 6.80588 15.1937 6.87082 15.2611 6.99316C15.3311 7.17794 15.2737 7.3053 15.0939 7.5001C14.9116 7.63247 14.7318 7.82726 14.6719 7.89219C14.612 7.95713 14.5496 7.95963 14.4871 7.96214C14.4247 7.96464 14.3623 7.96714 14.2349 7.90973C14.0401 7.72996 13.9802 7.79489 14.1126 7.97716C14.3174 8.40664 14.265 8.65886 13.8954 8.79874C13.5858 8.87369 13.5284 9.00105 13.5334 9.1259C13.6008 9.24825 13.0091 10.0849 12.8218 10.0924C12.7594 10.0949 12.6421 10.2872 12.5272 10.5419C12.4124 10.7966 12.2326 10.9914 12.1103 11.0588C11.9854 11.0638 11.8656 11.1937 11.8706 11.3186C11.8731 11.381 11.8132 11.4459 11.7507 11.4484C11.501 11.4584 11.144 11.9105 11.2738 12.0303C11.4037 12.1502 10.802 12.737 10.5498 12.6846C10.36 12.6297 10.36 12.6297 10.4349 12.9394C10.5124 13.3114 10.3351 13.5686 9.78329 13.8409C9.53859 13.9758 9.47867 14.0407 9.54861 14.2255C9.55362 14.3503 9.55863 14.4752 9.37635 14.6075C9.254 14.675 9.13416 14.8049 9.13666 14.8673C9.13916 14.9297 9.02182 15.122 8.90198 15.2519C8.72221 15.4467 8.48252 15.7064 8.36768 15.9611C8.18791 16.1559 7.94572 16.3532 7.88329 16.3557C7.63358 16.3657 7.33396 16.6904 7.22414 17.07C7.17423 17.3846 7.17423 17.3846 7.354 17.1898C7.47635 17.1224 7.65612 16.9276 7.77596 16.7977C7.89832 16.7303 8.07808 16.5355 8.20043 16.468C8.26036 16.4031 8.38271 16.3357 8.44513 16.3332C8.50756 16.3307 8.56749 16.2657 8.56498 16.2033C8.56248 16.1409 8.92452 15.8137 9.28906 15.549C9.65111 15.2218 9.95072 14.8971 9.94822 14.8347C9.9407 14.6474 10.1854 14.5126 10.4975 14.5C10.56 14.4975 10.6848 14.4925 10.7498 14.5525C11.0045 14.6673 11.0045 14.6673 10.8097 14.4875C10.6149 14.3077 10.6124 14.2453 10.8571 14.1104C10.9794 14.043 11.2815 13.7808 11.5212 13.5211C11.7584 13.1989 12.0631 12.9991 12.2503 12.9916C12.4376 12.9841 12.5 12.9816 12.495 12.8567C12.4276 12.7344 12.485 12.607 12.6074 12.5396C12.7322 12.5346 12.8496 12.3423 12.8446 12.2174C12.902 12.09 13.1467 11.9552 13.3914 11.8203C13.6386 11.7479 13.7584 11.618 13.8133 11.4282C13.8033 11.1785 13.9881 11.1086 14.3002 11.096C14.3627 11.0935 14.4201 10.9662 14.4775 10.8388C14.47 10.6515 14.5898 10.5217 14.6523 10.5192C14.7147 10.5167 14.9569 10.3194 15.1941 9.9972C15.4338 9.73747 15.7359 9.47524 15.9232 9.46772C16.0455 9.40029 16.1029 9.27293 16.1029 9.27293C16.038 9.213 16.2153 8.95578 16.4575 8.75848C16.9419 8.36388 17.0018 8.29895 17.9031 7.3874C18.2652 7.06023 18.6272 6.73307 18.7521 6.72806C18.8769 6.72305 18.9968 6.59319 19.0542 6.46583C19.174 6.33596 19.2939 6.2061 19.3563 6.20359C19.4187 6.20109 19.8432 5.87142 20.2627 5.4169C21.4012 4.18319 21.4012 4.18319 21.6509 4.17317C21.8382 4.16566 21.9605 4.09822 22.0155 3.90843C22.0729 3.78107 22.3151 3.58377 22.4998 3.51383C22.747 3.44139 22.9318 3.37145 22.9293 3.30902C22.9268 3.24659 22.9892 3.24409 23.0517 3.24158C23.239 3.23407 23.6185 3.3439 23.8783 3.58359C24.0731 3.76336 24.143 3.94814 24.0906 4.20035C24.0981 4.38763 24.1081 4.63734 24.173 4.69726C24.3004 4.75468 24.3054 4.87954 24.1856 5.0094C24.1256 5.07433 24.0682 5.20169 24.1307 5.19919C24.1931 5.19668 24.1332 5.26162 23.9509 5.39399C23.8285 5.46142 23.7112 5.65371 23.7137 5.71614C23.7187 5.841 23.4815 6.16315 23.1819 6.48781C22.9422 6.74754 22.705 7.06969 22.7075 7.13212C22.71 7.19455 22.2931 7.7115 21.8761 8.22845C21.3967 8.7479 20.8 9.45965 20.5004 9.78431C20.0834 10.3013 19.8387 10.4361 19.649 10.3812C19.4592 10.3263 19.4617 10.3887 19.5341 10.6359C19.5441 10.8857 19.5491 11.0105 19.3669 11.1429C19.247 11.2727 19.1272 11.4026 19.1297 11.465C19.1347 11.5899 20.3532 10.7907 20.5305 10.5334C20.7102 10.3386 20.7102 10.3386 20.9599 10.3286C21.0848 10.3236 21.1497 10.3835 21.1497 10.3835C21.2746 10.3785 21.2721 10.3161 21.2021 10.1313C21.1322 9.94655 21.1921 9.88162 21.4992 9.74424C21.684 9.6743 21.8663 9.54193 21.9237 9.41457C21.9212 9.35214 22.0411 9.22228 22.1035 9.21978C22.1659 9.21727 22.4106 9.0824 22.5904 8.8876C22.8925 8.62537 23.1347 8.42807 23.2595 8.42306C23.322 8.42056 23.3844 8.41805 23.3869 8.48048C23.4518 8.5404 23.5143 8.5379 23.5143 8.5379C23.7015 8.53038 23.8164 8.27567 23.8663 7.96102C23.8588 7.77374 24.0436 7.7038 24.4181 7.68877C24.7278 7.61382 24.8501 7.54639 24.8426 7.3591C24.9524 6.97953 25.6241 6.57742 25.9387 6.62732C26.1285 6.68223 26.1884 6.6173 26.1809 6.43002C26.1759 6.30517 26.2933 6.11287 26.4156 6.04544C26.538 5.978 26.8426 5.7782 27.0224 5.5834C27.1422 5.45354 27.6915 5.11886 28.121 4.91405C28.548 4.6468 29.0349 4.31463 29.1547 4.18477C29.7565 3.59787 30.6803 3.24817 31.367 3.22062C31.804 3.20309 32.1212 3.31542 32.1337 3.62756C32.1412 3.81484 32.2061 3.87476 32.2061 3.87476C32.3934 3.86725 32.5408 4.42409 32.426 4.67881C32.3061 4.80867 32.2512 4.99846 32.2537 5.06089C32.2562 5.12331 32.1389 5.3156 32.0216 5.5079C31.8393 5.64026 31.6046 6.02485 31.3649 6.28457C31.1876 6.5418 30.9454 6.7391 30.883 6.7416C30.8206 6.74411 30.7607 6.80904 30.7632 6.87147C30.7682 6.99632 30.6483 7.12619 30.4636 7.19613C30.3412 7.26356 30.1614 7.45836 30.1639 7.52078C30.169 7.64564 30.109 7.71057 29.9243 7.78051C29.8019 7.84795 29.742 7.91288 29.8069 7.9728C29.8094 8.03523 29.6322 8.29245 29.33 8.55469C29.0254 8.75449 28.4237 9.34138 28.0042 9.79591C27.2252 10.64 26.8607 10.9048 26.611 10.9148C26.4237 10.9223 25.8894 11.6315 25.8994 11.8812C25.9094 12.131 25.2453 12.7204 24.9331 12.7329C24.8083 12.7379 24.7508 12.8652 24.7584 13.0525C24.7659 13.2398 24.7085 13.3672 24.646 13.3697C24.5212 13.3747 24.0418 13.8941 24.0468 14.019C24.0493 14.0814 24.1117 14.0789 24.2341 14.0115C24.3589 14.0065 24.4164 13.8791 24.4113 13.7543C24.4088 13.6918 24.5312 13.6244 24.656 13.6194C24.7185 13.6169 25.0231 13.4171 25.2653 13.2198C25.4451 13.025 25.7497 12.8252 25.937 12.8177C26.1243 12.8101 26.2466 12.7427 26.2391 12.5554C26.2965 12.4281 26.4189 12.3606 26.5437 12.3556C26.6686 12.3506 26.7884 12.2207 26.7859 12.1583C26.8433 12.031 26.9657 11.9635 27.0281 11.961C27.153 11.956 27.2129 11.8911 27.2104 11.8286C27.2079 11.7662 27.3927 11.6963 27.5799 11.6888C27.7672 11.6813 27.952 11.6113 27.9495 11.5489C27.9395 11.2992 29.3327 10.1803 29.7073 10.1653C29.7697 10.1628 29.8271 10.0354 29.8871 9.97048C29.8821 9.84563 30.0044 9.77819 30.0668 9.77569C30.1917 9.77068 30.4339 9.57338 30.6761 9.37608C30.9183 9.17878 31.2853 8.97647 31.4701 8.90653C31.6549 8.83659 31.7772 8.76915 31.7747 8.70672C31.7722 8.64429 31.9545 8.51193 32.2641 8.43698C32.5113 8.36453 32.756 8.22966 32.7535 8.16723C32.746 7.97995 33.2903 7.52041 33.7223 7.37803C33.972 7.36801 34.2167 7.23314 34.2741 7.10578C34.3341 7.04085 34.5163 6.90848 34.6412 6.90347C34.766 6.89846 34.8884 6.83102 34.8834 6.70617C34.8759 6.51889 34.9957 6.38902 35.2404 6.25415C35.4851 6.11928 35.6674 5.98691 35.6649 5.92448C35.6624 5.86205 35.7847 5.79462 35.9096 5.78961C36.0344 5.7846 36.2791 5.64973 36.4564 5.3925C36.6986 5.1952 36.9433 5.06033 37.0057 5.05782C37.1306 5.05281 37.1905 4.98788 37.188 4.92546C37.183 4.8006 37.3653 4.66823 37.4901 4.66322C37.6774 4.65571 37.8048 4.71313 37.9346 4.83297C37.9996 4.8929 38.0645 4.95282 38.1269 4.95032C38.1894 4.94781 38.1868 4.88538 38.1793 4.6981C38.1718 4.51082 38.2292 4.38346 38.2892 4.31853C38.4714 4.18616 38.9859 4.54069 39.0009 4.91525C39.0084 5.10253 39.0734 5.16246 39.1982 5.15745C39.4479 5.14743 39.4755 5.83413 39.1784 6.22122C39.0585 6.35108 38.8163 6.54838 38.6915 6.55339C38.5666 6.5584 38.5042 6.56091 38.5067 6.62333C38.6391 6.80561 38.4643 7.12526 38.0997 7.39C37.9175 7.52236 37.493 7.85203 37.2558 8.17419C37.0161 8.43391 36.7115 8.63372 36.5866 8.63873C36.4618 8.64374 36.4019 8.70867 36.4693 8.83102C36.5367 8.95337 36.4768 9.0183 36.352 9.02331C36.2271 9.02832 36.1672 9.09325 36.1722 9.21811C36.1772 9.34296 36.0549 9.4104 35.9325 9.47784C35.8102 9.54527 35.6878 9.61271 35.6304 9.74007C35.6329 9.80249 35.513 9.93236 35.4506 9.93486C35.3882 9.93737 35.2059 10.0697 35.0261 10.2645C34.8464 10.4593 34.5443 10.7216 34.2996 10.8564C34.1173 10.9888 33.935 11.1212 33.9375 11.1836C33.94 11.246 33.7603 11.4408 33.578 11.5732C33.3333 11.7081 33.2759 11.8354 33.4007 11.8304C33.5256 11.8254 33.7078 11.693 33.8901 11.5607C34.01 11.4308 34.1922 11.2984 34.2547 11.2959C34.3795 11.2909 34.4394 11.226 34.4369 11.1636C34.4344 11.1011 34.6167 10.9688 34.8639 10.8963C35.0487 10.8264 35.231 10.694 35.2285 10.6316C35.226 10.5692 35.3483 10.5017 35.4107 10.4992C35.5356 10.4942 35.598 10.4917 35.6579 10.4268C35.6529 10.3019 36.382 9.77244 36.5069 9.76743C36.5693 9.76493 36.7516 9.63256 36.9938 9.43526C37.1735 9.24046 37.4182 9.10559 37.4182 9.10559C37.5431 9.10058 38.5169 8.43623 38.7566 8.17651C38.8764 8.04664 39.0612 7.9767 39.1861 7.97169C39.3109 7.96668 39.3708 7.90175 39.3683 7.83932C39.3633 7.71447 40.2797 7.17748 40.5294 7.16746C40.5918 7.16496 40.6518 7.10003 40.6467 6.97517C40.6417 6.85032 40.7017 6.78539 40.8914 6.8403C40.9539 6.83779 41.1986 6.70292 41.3783 6.50813C41.7404 6.18096 43.7554 4.97462 44.0675 4.9621C44.13 4.95959 44.1899 4.89466 44.1874 4.83223C44.1824 4.70738 44.3672 4.63744 44.6169 4.62742C45.0539 4.60989 45.6207 4.7122 45.818 4.9544C45.8205 5.01682 45.7656 5.20661 45.7107 5.3964C45.5334 5.65362 45.5359 5.71605 45.7932 5.89331C46.1777 6.128 45.7134 7.02202 45.214 7.04205C45.1515 7.04456 45.1515 7.04456 45.0891 7.04706C44.8369 6.99465 44.8369 6.99465 44.9693 7.17693C45.0991 7.29677 45.1016 7.3592 44.9818 7.48906C44.8619 7.61893 44.6822 7.81372 44.5623 7.94359C44.4425 8.07345 44.2028 8.33318 43.9606 8.53048C43.7808 8.72527 43.4837 9.11236 43.3014 9.24473C43.1217 9.43953 42.9419 9.63432 42.8795 9.63683C42.8171 9.63933 42.3951 10.0314 41.9132 10.4885C41.4937 10.943 41.1342 11.3326 40.6473 11.6647C40.4675 11.8595 40.2878 12.0543 40.1679 12.1842C40.0456 12.2516 39.9282 12.4439 39.8708 12.5713C39.8134 12.6986 39.5687 12.8335 39.319 12.8435C38.9444 12.8586 38.8845 12.9235 38.897 13.2356C38.8421 13.4254 38.7273 13.6801 38.6074 13.81C38.4876 13.9399 38.5475 13.8749 38.7922 13.7401C39.0344 13.5428 39.2791 13.4079 39.3415 13.4054C39.404 13.4029 39.5862 13.2705 39.7061 13.1406C39.8883 13.0083 40.133 12.8734 40.2579 12.8684C40.4452 12.8609 40.5675 12.7934 40.6224 12.6037C40.6199 12.5412 40.8596 12.2815 41.1068 12.2091C41.3515 12.0742 41.5962 11.9393 41.5912 11.8145C41.5887 11.752 41.6512 11.7495 41.776 11.7445C41.8384 11.742 41.9608 11.6746 41.9583 11.6121C41.9558 11.5497 42.0132 11.4224 42.2005 11.4148C42.3228 11.3474 42.5675 11.2125 42.6275 11.1476C42.7498 11.0802 43.1143 10.8154 43.4814 10.6131C43.786 10.4133 44.1531 10.211 44.1506 10.1486C44.3303 9.95379 45.002 9.55167 45.2492 9.47923C45.434 9.40929 45.5563 9.34185 45.5538 9.27942C45.5513 9.217 45.7336 9.08463 45.9184 9.01469C46.1032 8.94474 46.2854 8.81238 46.2829 8.74995C46.2804 8.68752 46.4028 8.62009 46.5876 8.55014C46.7748 8.54263 47.0795 8.34283 47.1993 8.21296C47.3192 8.0831 47.5039 8.01316 47.6288 8.00815C47.6912 8.00564 47.8735 7.87328 47.9309 7.74592C48.228 7.35883 48.9022 7.01914 49.3417 7.06404C49.4665 7.05903 49.5315 7.11895 49.5939 7.11645C49.7188 7.11144 49.7138 6.98658 49.7062 6.7993C49.6962 6.54959 49.7536 6.42223 49.8785 6.41722C49.9409 6.41472 50.0658 6.40971 50.0633 6.34728C50.0608 6.28485 50.303 6.08755 50.6725 5.94767C50.9771 5.74787 51.3442 5.54556 51.3417 5.48313C51.3991 5.35577 51.5839 5.28583 51.7712 5.27832C51.9585 5.2708 52.0184 5.20587 52.0134 5.08101C52.0109 5.01859 52.0683 4.89123 52.1931 4.88622C52.2556 4.88372 52.5627 4.74634 52.8648 4.4841C53.3542 4.21436 53.4166 4.21186 53.8536 4.19432C53.9785 4.18931 54.1058 4.24673 54.1683 4.24423C54.2931 4.23922 54.2881 4.11436 54.2806 3.92708C54.2057 3.61745 54.2656 3.55252 54.4504 3.48258C54.5752 3.47757 54.6976 3.41013 54.7575 3.3452C54.9347 3.08798 55.5515 2.87565 56.0509 2.85561C56.4255 2.84059 56.7426 2.95292 56.8101 3.07527C56.875 3.13519 57.0049 3.25504 57.1322 3.31246C57.5118 3.42228 57.5893 3.79434 57.3496 4.05407C57.2921 4.18143 57.1748 4.37372 57.1798 4.49858C57.1848 4.62343 57.1249 4.68836 57.065 4.7533C56.9426 4.82073 56.8852 4.94809 56.9526 5.07044C56.9577 5.1953 56.9002 5.32265 56.718 5.45502C56.5332 5.52497 56.4158 5.71726 56.4183 5.77968C56.4259 5.96697 55.2299 7.32803 55.0426 7.33555C54.9802 7.33805 54.8604 7.46792 54.8054 7.6577C54.748 7.78506 54.6282 7.91493 54.5033 7.91993C54.3785 7.92494 54.3185 7.98987 54.321 8.0523C54.3261 8.17716 54.2062 8.30702 53.9615 8.44189C53.7792 8.57426 53.6594 8.70413 53.7218 8.70162C53.7893 8.82397 52.6457 9.93282 52.2187 10.2001C52.034 10.27 51.8567 10.5272 51.8018 10.717C51.6869 10.9717 51.5671 11.1016 51.3798 11.1091C51.1925 11.1166 51.0702 11.1841 51.0752 11.3089C51.0852 11.5586 49.8243 12.8598 49.5122 12.8723C49.4498 12.8748 49.3299 13.0047 49.2126 13.197C49.1027 13.5765 48.6733 13.7813 48.2987 13.7964C48.1089 13.7415 48.1089 13.7415 48.3037 13.9212C48.4361 14.1035 48.4386 14.1659 48.3162 14.2334C48.1939 14.3008 48.134 14.3657 48.1964 14.3632C48.571 14.3482 49.6097 13.7438 49.7844 13.4241C49.8993 13.1694 50.2638 12.9047 50.576 12.8921C50.6384 12.8896 50.7008 12.8871 50.7657 12.9471C51.018 12.9995 51.018 12.9995 51.0104 12.8122C50.9979 12.5 51.4773 11.9806 52.1515 11.6409C52.521 11.501 52.7607 11.2413 52.7582 11.1789C52.7557 11.1164 52.8756 10.9866 53.0004 10.9816C53.1228 10.9141 53.365 10.7168 53.5472 10.5845C53.727 10.3897 53.9093 10.2573 53.9717 10.2548C54.0341 10.2523 54.2164 10.1199 54.3962 9.92513C54.516 9.79526 54.7582 9.59796 54.8831 9.59295C55.0079 9.58794 55.1303 9.52051 55.1902 9.45557C55.2476 9.32821 55.3675 9.19835 55.4923 9.19334C55.6147 9.12591 55.9168 8.86367 56.1565 8.60395C56.4586 8.34171 56.7607 8.07948 56.8232 8.07698C56.8856 8.07447 57.0104 8.06946 57.0079 8.00704C57.0004 7.81975 57.6746 7.48007 57.9867 7.46754C58.1116 7.46254 58.2939 7.33017 58.3513 7.20281C58.4711 7.07294 58.6534 6.94057 58.8407 6.93306C58.9655 6.92805 59.0879 6.86062 59.0854 6.79819C59.0729 6.48605 59.0679 6.3612 59.3126 6.22632C59.4374 6.22131 59.6197 6.08895 59.7395 5.95908C60.2214 5.50205 60.7083 5.16988 60.8956 5.16237C61.0204 5.15736 61.0804 5.09243 61.0154 5.0325C60.9505 4.97258 61.0704 4.84272 61.2551 4.77278C61.4399 4.70283 61.7445 4.50303 61.8644 4.37317C61.9867 4.30573 62.2914 4.10592 62.5411 4.09591C62.7883 4.02346 62.9705 3.89109 63.028 3.76373C63.0204 3.57645 63.1428 3.50901 63.4549 3.49649C63.7671 3.48397 63.8894 3.41653 63.9468 3.28917C64.0043 3.16181 64.0642 3.09688 64.2565 3.21422C64.3838 3.27164 64.5087 3.26663 64.5711 3.26413C64.5686 3.2017 64.6985 3.32155 64.7684 3.50632C64.8359 3.62867 64.9682 3.81095 65.0306 3.80844C65.2179 3.80093 65.1705 4.178 64.9258 4.31287C64.8085 4.50516 64.7461 4.50767 64.9409 4.68744C65.0732 4.86971 65.0757 4.93214 64.7162 5.32173C64.474 5.51903 64.2368 5.84118 64.1145 5.90862C63.6351 6.42808 63.0333 7.01497 62.9085 7.01998C62.7836 7.02499 62.7237 7.08992 62.7262 7.15235C62.7337 7.33963 61.3505 8.70821 61.1058 8.84308C61.0434 8.84559 60.8636 9.04038 60.8062 9.16774C60.7488 9.2951 60.5715 9.55232 60.3243 9.62477C60.142 9.75714 59.9597 9.88951 59.9622 9.95193C59.9698 10.1392 59.4779 10.3465 59.1033 10.3616C58.9784 10.3666 58.9834 10.4914 58.991 10.6787C59.0634 10.9259 59.006 11.0533 58.8187 11.0608C58.6963 11.1282 58.5765 11.2581 58.5815 11.3829C58.584 11.4454 58.5241 11.5103 58.4617 11.5128C58.3368 11.5178 58.217 11.6477 58.0996 11.84C57.9823 12.0323 57.7376 12.1671 57.6127 12.1721C57.4879 12.1772 57.3655 12.2446 57.368 12.307C57.3705 12.3694 57.2532 12.5617 57.1333 12.6916C56.9536 12.8864 56.8362 13.0787 56.8387 13.1411C56.8412 13.2035 56.7813 13.2685 56.7189 13.271C56.6565 13.2735 56.4767 13.4683 56.2969 13.6631C56.1172 13.8579 55.875 14.0552 55.8125 14.0577C55.7501 14.0602 55.6902 14.1251 55.6927 14.1875C55.6952 14.25 55.5728 14.3174 55.4505 14.3848C55.3256 14.3898 55.2083 14.5821 55.2133 14.707C55.2183 14.8318 55.0985 14.9617 54.9761 15.0291C54.7314 15.164 54.7989 15.2864 55.0486 15.2764C55.111 15.2738 55.1734 15.2713 55.2958 15.2039C55.4156 15.074 55.5979 14.9417 55.5929 14.8168C55.5904 14.7544 55.7077 14.5621 55.9549 14.4897C56.1372 14.3573 56.4418 14.1575 56.6216 13.9627C56.7389 13.7704 57.0436 13.5706 57.2908 13.4981C57.4755 13.4282 57.6578 13.2958 57.6553 13.2334C57.6478 13.0461 58.4967 12.3868 58.9312 12.3068C59.0536 12.2394 59.1734 12.1095 59.1709 12.0471C59.1659 11.9222 59.2258 11.8573 59.3507 11.8523C59.4755 11.8473 59.7802 11.6475 60.3819 11.0606C60.6216 10.8009 60.8688 10.7284 61.0561 10.7209C61.1834 10.7783 61.2433 10.7134 61.2383 10.5885C61.1734 10.5286 61.2933 10.3988 61.538 10.2639C61.7852 10.1914 62.0274 9.99414 62.1447 9.80185C62.2645 9.67198 62.4468 9.53962 62.5092 9.53711C62.5717 9.53461 62.9337 9.20744 62.9936 9.14251C63.1784 9.07257 63.4206 8.87527 63.5405 8.74541C63.6578 8.55311 63.9025 8.41824 64.0248 8.3508C64.2121 8.34329 64.332 8.21343 64.3295 8.151C64.327 8.08857 64.4493 8.02114 64.5117 8.01863C64.6366 8.01362 64.6965 7.94869 64.694 7.88626C64.6915 7.82384 64.7514 7.7589 64.8763 7.75389C65.0012 7.74889 65.0611 7.68395 65.0586 7.62153C65.0561 7.5591 65.116 7.49417 65.1784 7.49166C65.3033 7.48665 65.488 7.41671 65.6079 7.28685C65.6628 7.09706 65.8476 7.02712 65.91 7.02462C66.0349 7.01961 66.1572 6.95217 66.2146 6.82481C66.2696 6.63502 67.1235 6.10054 67.3707 6.0281C67.7453 6.01307 67.9875 5.81577 67.98 5.62849C67.9749 5.50363 68.2146 5.2439 68.4593 5.10903C68.7015 4.91173 68.8813 4.71694 68.8813 4.71694C68.8788 4.65451 69.0011 4.58707 69.0636 4.58457C69.126 4.58206 69.5555 4.37725 69.985 4.17243C70.352 3.97013 70.5992 3.89768 70.8489 3.88766C71.0986 3.87764 71.2934 4.05741 71.5582 4.42196C71.6281 4.60674 71.7605 4.78901 71.8254 4.84893C71.8903 4.90886 71.8953 5.03371 71.778 5.226C71.7206 5.35336 71.6657 5.54315 71.6682 5.60557C71.7331 5.6655 71.5558 5.92272 71.3786 6.17994C71.1389 6.43967 71.0215 6.63196 71.0241 6.69439C71.094 6.87917 70.3624 7.34621 70.1077 7.23138C70.0452 7.23388 69.9828 7.23639 69.9828 7.23639C69.858 7.2414 69.8605 7.30382 69.9304 7.4886C70.0054 7.79823 69.7133 8.31018 69.4011 8.3227C69.3387 8.3252 69.2788 8.39014 69.2214 8.51749C69.1715 8.83214 67.7882 10.2007 67.6009 10.2082C67.5385 10.2107 67.4786 10.2757 67.546 10.398C67.5485 10.4604 67.5535 10.5853 67.4911 10.5878C67.3663 10.5928 66.5223 11.377 66.5273 11.5019C66.5298 11.5643 66.6522 11.4969 66.772 11.367C66.8319 11.3021 67.1366 11.1023 67.3214 11.0323C67.5686 10.9599 67.6884 10.83 67.6859 10.7676C67.6759 10.5179 68.0404 10.2531 68.3526 10.2406C68.3526 10.2406 68.415 10.2381 68.4774 10.2356C68.5398 10.2331 68.6023 10.2306 68.6023 10.2306C68.7271 10.2256 68.7871 10.1606 68.782 10.0358C68.7745 9.84851 69.1391 9.58377 69.3888 9.57375C69.4512 9.57125 69.5136 9.56874 69.5161 9.63117C69.5786 9.62867 69.5786 9.62867 69.5111 9.50632C69.3738 9.19919 70.6447 8.14775 71.2065 8.12521C71.3314 8.1202 71.4537 8.05277 71.4487 7.92791C71.4412 7.74063 71.9256 7.34603 72.2377 7.33351C72.425 7.32599 72.5474 7.25856 72.6048 7.1312C72.6622 7.00384 72.9094 6.93139 73.0967 6.92388C73.4712 6.90885 73.8533 7.08111 73.8009 7.33332C73.7435 7.46068 73.8084 7.5206 73.9982 7.57552C74.2529 7.69035 74.3329 8.12484 74.0233 8.19979C73.9633 8.26472 73.9059 8.39208 73.9709 8.45201C74.0408 8.63678 73.0845 9.73812 72.8348 9.74814C72.7724 9.75065 72.7125 9.81558 72.7175 9.94043C72.72 10.0029 72.6051 10.2576 72.3629 10.4549C72.1233 10.7146 72.0658 10.842 72.1907 10.837C72.378 10.8294 72.8649 10.4973 73.0421 10.24C73.162 10.1102 73.4092 10.0377 73.8462 10.0202C73.971 10.0152 74.0959 10.0102 74.1583 10.0077C74.3456 10.0002 74.4055 9.93524 74.3406 9.87532C74.1483 9.75797 74.2556 9.31597 74.3805 9.31096C74.4429 9.30846 74.6851 9.11116 74.9847 8.7865C75.2244 8.52677 75.589 8.26203 75.7138 8.25703C75.8986 8.18708 76.0809 8.05472 76.2007 7.92485C76.2581 7.79749 76.4404 7.66512 76.6277 7.65761C76.8774 7.64759 77.1171 7.38787 76.9872 7.26802C76.9847 7.20559 77.167 7.07322 77.534 6.87091C77.8412 6.73354 78.2107 6.59365 78.2706 6.52872C78.3331 6.52622 78.393 6.46129 78.4554 6.45878C78.5179 6.45628 78.6452 6.5137 78.7101 6.57362C78.8999 6.62853 78.9649 6.68846 79.0847 6.55859C79.1446 6.49366 79.1446 6.49366 79.2071 6.49116C79.4568 6.48114 79.734 7.15782 79.4943 7.41755C79.372 7.48498 79.377 7.60984 79.5718 7.78961C79.8315 8.0293 79.7741 8.15666 79.0525 8.87342C78.7529 9.19808 78.5157 9.52023 78.5182 9.58266C78.5232 9.70751 78.4034 9.83738 78.2186 9.90732C78.0338 9.97726 77.914 10.1071 77.9165 10.1696C77.919 10.232 77.8591 10.2969 77.6718 10.3044C77.5469 10.3094 77.487 10.3744 77.4945 10.5616C77.507 10.8738 77.0277 11.3932 76.6531 11.4083ZM77.4121 10.0647C77.3496 10.0672 77.3496 10.0672 77.3521 10.1297C77.3521 10.1297 77.3546 10.1921 77.4171 10.1896L77.477 10.1247C77.4745 10.0622 77.4121 10.0647 77.4121 10.0647ZM56.6686 10.4592C56.6037 10.3993 56.6062 10.4617 56.6087 10.5242C56.6137 10.649 56.6137 10.649 56.6736 10.5841C56.7361 10.5816 56.7335 10.5192 56.6686 10.4592ZM55.4027 11.6355C55.2179 11.7055 55.2204 11.7679 55.3453 11.7629C55.4077 11.7604 55.5925 11.6904 55.6524 11.6255C55.7748 11.5581 55.7723 11.4956 55.7098 11.4981C55.7098 11.4981 55.5875 11.5656 55.4027 11.6355ZM53.3769 6.3394C53.3145 6.3419 53.3145 6.3419 53.317 6.40433C53.317 6.40433 53.3195 6.46676 53.3819 6.46425L53.4419 6.39932C53.4394 6.33689 53.3769 6.3394 53.3769 6.3394ZM27.1674 7.641C27.1025 7.58108 27.0426 7.64601 27.0451 7.70844C27.0501 7.83329 27.1125 7.83079 27.1749 7.82828C27.1724 7.76586 27.1699 7.70343 27.1674 7.641ZM26.5632 8.16547C26.5008 8.16797 26.5033 8.2304 26.6281 8.22539C26.753 8.22038 26.8154 8.21788 26.8129 8.15545C26.748 8.09552 26.6855 8.09803 26.5632 8.16547ZM14.5852 13.5232C14.765 13.3284 14.9472 13.196 14.8848 13.1985C14.8174 13.0762 14.2731 13.5357 14.2781 13.6606C14.2831 13.7854 14.4029 13.6556 14.5852 13.5232ZM15.2393 12.6841C15.3018 12.6816 15.2993 12.6191 15.2993 12.6191C15.2968 12.5567 15.2968 12.5567 15.2343 12.5592C15.2343 12.5592 15.1719 12.5617 15.1744 12.6242L15.2393 12.6841ZM15.7287 12.4143C15.8536 12.4093 15.9135 12.3444 15.8511 12.3469C15.8486 12.2845 15.7237 12.2895 15.6638 12.3544C15.539 12.3594 15.6039 12.4193 15.7287 12.4143ZM18.4705 12.1793C18.5904 12.0494 18.463 11.992 18.2833 12.1868C18.1609 12.2542 18.1659 12.3791 18.1784 12.6912C18.1809 12.7537 18.2459 12.8136 18.3707 12.8086C18.4332 12.8061 18.4281 12.6812 18.4231 12.5564C18.4181 12.4315 18.4131 12.3066 18.4705 12.1793ZM19.0174 11.7822C19.1397 11.7147 19.1372 11.6523 19.0748 11.6548C19.0123 11.6573 18.89 11.7248 18.7676 11.7922C18.7077 11.8571 18.6478 11.9221 18.7102 11.9196C18.7727 11.917 18.895 11.8496 19.0174 11.7822ZM28.7138 13.4566C28.7763 13.4541 28.8362 13.3891 28.8337 13.3267C28.8312 13.2643 28.7662 13.2044 28.7038 13.2069C28.6414 13.2094 28.5815 13.2743 28.584 13.3367C28.5865 13.3992 28.6514 13.4591 28.7138 13.4566ZM33.161 12.0901C33.2234 12.0876 33.2834 12.0227 33.2184 11.9628C33.156 11.9653 33.0936 11.9678 33.0312 11.9703C33.0337 12.0327 33.0362 12.0951 33.161 12.0901ZM38.1255 14.267C38.1255 14.267 38.188 14.2645 38.1855 14.2021L38.1205 14.1422C38.0581 14.1447 38.0606 14.2071 38.0606 14.2071C38.0631 14.2695 38.0631 14.2695 38.1255 14.267ZM38.4273 10.8784C38.2475 11.0732 38.1876 11.1381 38.25 11.1356C38.3124 11.1331 38.3724 11.0682 38.4972 11.0632C38.682 10.9933 38.8668 10.9233 38.9267 10.8584C39.0465 10.7285 38.9841 10.731 38.8593 10.736C38.7968 10.7385 38.6096 10.746 38.4273 10.8784ZM47.722 15.0075C47.8469 15.0025 47.8444 14.9401 47.7794 14.8802C47.7794 14.8802 47.717 14.8827 47.6546 14.8852C47.5947 14.9501 47.6596 15.01 47.722 15.0075ZM53.0411 16.67C53.1659 16.665 53.2283 16.6625 53.1634 16.6025C53.1634 16.6025 53.0385 16.6076 52.9761 16.6101C52.8538 16.6775 52.9162 16.675 53.0411 16.67ZM54.0148 16.0056C54.0748 15.9407 54.0723 15.8783 54.0098 15.8808C53.9449 15.8209 53.9449 15.8209 53.9499 15.9457C53.9524 16.0081 53.9549 16.0706 54.0148 16.0056ZM54.6162 12.2924C54.6212 12.4172 54.6836 12.4147 54.8035 12.2848C54.9258 12.2174 54.9833 12.0901 54.9208 12.0926C54.8534 11.9702 54.6112 12.1675 54.6162 12.2924ZM60.3395 11.5625C60.3395 11.5625 60.4019 11.56 60.3994 11.4976L60.3345 11.4377C60.2721 11.4402 60.2746 11.5026 60.2746 11.5026C60.2771 11.565 60.2771 11.565 60.3395 11.5625ZM64.1778 13.7221C64.1778 13.7221 64.1778 13.7221 64.1728 13.5972C64.1104 13.5997 64.1104 13.5997 64.1129 13.6621C64.1154 13.7246 64.1154 13.7246 64.1778 13.7221ZM65.3435 10.0487C65.3435 10.0487 65.406 10.0462 65.4034 9.98375L65.3385 9.92383C65.2761 9.92633 65.2786 9.98876 65.2786 9.98876C65.2811 10.0512 65.2811 10.0512 65.3435 10.0487ZM65.8057 12.2186C65.8057 12.2186 65.8032 12.1562 65.8007 12.0938C65.7383 12.0963 65.7383 12.0963 65.7408 12.1587C65.7408 12.1587 65.7433 12.2211 65.8057 12.2186ZM67.8859 12.6354C68.0107 12.6304 68.0082 12.568 68.0057 12.5055C67.9433 12.508 67.8809 12.5105 67.8185 12.513C67.7585 12.578 67.8235 12.6379 67.8859 12.6354ZM70.8699 12.203C71.1745 12.0032 71.1745 12.0032 70.8624 12.0158C70.6751 12.0233 70.5527 12.0907 70.4953 12.2181C70.4978 12.2805 70.5003 12.3429 70.5003 12.3429C70.5628 12.3404 70.6851 12.273 70.8699 12.203ZM72.0134 11.0942C72.1358 11.0267 72.1982 11.0242 72.1333 10.9643C72.0084 10.9693 71.8287 11.1641 71.7088 11.294C71.4691 11.5537 71.4716 11.6161 71.6589 11.6086C71.7213 11.6061 71.8437 11.5387 71.8387 11.4138C71.8362 11.3514 71.8936 11.224 72.0134 11.0942Z" fill="#0F0404"></path>
</svg>
