<svg fill="none" height="19" viewBox="0 0 105 19" width="105" xmlns="http://www.w3.org/2000/svg">
  <path
    d="M7.18307 15.5444C7.07052 15.5489 6.17012 15.5851 5.21344 15.6235C1.8932 15.7567 1.09857 15.6194 1.52168 14.9261C1.57344 14.8113 1.56893 14.6987 1.51039 14.6447C1.27626 14.4286 1.48104 13.9131 1.87497 13.8973C2.49174 13.8162 2.60429 13.8117 2.77086 13.7486C2.82713 13.7464 2.93743 13.6856 3.10625 13.6788C3.38763 13.6675 3.84009 13.7057 4.29481 13.8002C4.51991 13.7912 4.68873 13.7844 4.79902 13.7236C4.85078 13.6088 5.01961 13.6021 5.07814 13.6561C5.13442 13.6538 5.19069 13.6516 5.18844 13.5953C5.18392 13.4827 5.63186 13.4084 6.19462 13.3858C6.86992 13.3587 7.66229 13.4397 7.72308 13.55C7.78613 13.7165 7.8424 13.7143 7.8919 13.5432C7.93915 13.3158 8.0517 13.3113 8.83729 13.2234C9.2875 13.2054 9.68142 13.1896 9.68142 13.1896C9.67916 13.1333 10.0168 13.1197 10.467 13.1017C11.0298 13.0791 11.7051 13.052 11.7636 13.106C11.8807 13.2141 11.9369 13.2118 11.9887 13.097C12.1462 12.8089 16.1395 12.5923 16.9837 12.5584C17.0377 12.4999 19.3945 12.2362 20.6303 12.1303C20.9679 12.1167 21.193 12.1077 21.1908 12.0514C21.1885 11.9952 21.5824 11.9794 22.0326 11.9613C22.4828 11.9432 22.9308 11.8689 22.9308 11.8689C23.6623 11.8396 24.5042 11.7494 25.2313 11.6075C25.5127 11.5962 26.0731 11.5174 26.4108 11.5038C29.0467 11.1726 29.1593 11.1681 28.8711 11.0106C28.7563 10.9588 28.7 10.9611 28.7023 11.0173C28.7045 11.0736 28.4794 11.0826 28.1981 11.0939C27.9167 11.1052 27.5228 11.121 27.3494 11.0152C27.2346 10.9635 27.1761 10.9095 27.1198 10.9117C27.0635 10.914 27.0095 10.9725 26.9555 11.031C26.9015 11.0896 25.6071 11.1415 24.3128 11.1934C23.0185 11.2454 21.7242 11.2973 21.6093 11.2455C21.5508 11.1915 21.4945 11.1938 21.4968 11.25C21.4991 11.3063 21.274 11.3153 20.9926 11.3266C20.3735 11.3515 19.4709 11.3313 18.9599 11.2391C18.7888 11.1896 18.6763 11.1941 18.6785 11.2504C18.6808 11.3067 18.6245 11.3089 18.5119 11.3134C18.2306 11.3247 17.7196 11.2325 17.5485 11.183C17.49 11.129 17.49 11.129 17.4945 11.2415C17.499 11.3541 17.1568 11.2551 17.0375 11.0907C16.979 11.0367 16.8664 11.0412 16.8124 11.0998C16.7044 11.2168 16.369 11.2867 16.0313 11.3002C15.4123 11.325 14.6739 11.1856 14.6109 11.019C14.4938 10.911 14.433 10.8007 14.3227 10.8615C14.1562 10.9245 14.0301 10.5914 14.1944 10.4721C14.2507 10.4698 14.3002 10.2987 14.2371 10.1321C14.2304 9.96332 14.2844 9.90479 14.4532 9.89801C14.622 9.89124 14.676 9.83271 14.6152 9.72242C14.5499 9.49957 15.385 9.24061 15.8915 9.22029C16.1166 9.21126 16.2877 9.26076 16.3462 9.31478C16.4048 9.36879 16.4633 9.42281 16.5196 9.42055C16.5758 9.4183 16.6299 9.35976 16.6254 9.24721C16.6231 9.19094 16.9022 9.12337 17.4627 9.04452C18.6985 8.93858 18.7548 8.93632 18.8651 8.87553C18.9191 8.81699 19.0879 8.81022 19.2567 8.80345C19.4818 8.79442 19.6507 8.78764 19.7047 8.72911C19.815 8.66832 20.8257 8.57141 21.4447 8.54657C21.6698 8.53754 21.8386 8.53077 22.4577 8.50594C22.5679 8.44514 22.6805 8.44063 22.6782 8.38435C22.6782 8.38435 22.8448 8.32131 23.0136 8.31453C24.4745 8.19956 26.6085 8.00121 26.7728 7.88189C26.8291 7.87963 27.4481 7.8548 28.2359 7.82319C29.0238 7.79158 29.6406 7.71047 29.6383 7.6542C29.7463 7.53713 30.7593 7.49649 30.9281 7.48972C31.6012 7.40635 32.1639 7.38378 32.6141 7.36572C33.2331 7.34088 33.5708 7.32733 33.6879 7.43537C33.8049 7.5434 33.8612 7.54115 33.8544 7.37232C33.8477 7.2035 34.0705 7.13819 34.6895 7.11335C34.8584 7.10658 35.0835 7.09755 35.3648 7.08626C35.9276 7.06369 36.3778 7.04562 36.3755 6.98935C36.4295 6.93082 36.8235 6.91501 37.33 6.89469C37.8364 6.87437 38.2844 6.80004 38.2844 6.80004C38.2821 6.74376 38.7301 6.66942 39.2365 6.64911C39.743 6.62879 40.4183 6.60169 40.7537 6.53187C41.7081 6.43722 42.7751 6.33804 43.6192 6.30418C44.5196 6.26806 45.1409 6.2995 45.1432 6.35577C45.204 6.46607 45.258 6.40753 45.3097 6.29272C45.4178 6.17566 45.8094 6.10358 46.2034 6.08778C46.6536 6.06971 47.106 6.10793 47.2231 6.21596C47.3964 6.32174 47.3964 6.32174 47.4482 6.20693C47.5 6.09212 47.6665 6.02908 48.2856 6.00424C48.6772 5.93216 49.0712 5.91636 49.0712 5.91636C49.1252 5.85783 49.2963 5.90733 49.4651 5.90055C49.6362 5.95006 49.7487 5.94554 49.7465 5.88927C49.7442 5.83299 49.9108 5.76994 50.0796 5.76317C50.2484 5.7564 50.4195 5.8059 50.478 5.85992C50.5366 5.91393 50.5951 5.96795 50.6514 5.96569C50.7639 5.96118 50.8179 5.90264 50.8742 5.90039C51.1511 5.77655 51.8827 5.7472 54.6401 5.63657C55.3154 5.60948 56.047 5.58013 56.1596 5.57561C56.3261 5.51257 56.5512 5.50353 56.6638 5.49902C57.0577 5.48322 57.5642 5.4629 58.1269 5.44032C59.4776 5.38613 60.997 5.32518 61.1636 5.26213C61.5012 5.24858 61.5575 5.24632 61.7939 5.51867C61.9132 5.68298 61.9717 5.737 62.028 5.73474C62.0843 5.73248 62.1383 5.67395 62.1338 5.5614C62.181 5.33404 62.235 5.27551 62.7415 5.25519C63.0229 5.2439 63.5294 5.22358 63.867 5.21003C64.2047 5.19649 66.5142 5.1602 68.9903 5.06086C69.8344 5.02699 70.566 4.99764 71.1851 4.97281C72.7045 4.91185 73.5486 4.87799 73.6026 4.81945C73.6567 4.76092 73.7129 4.75866 73.7715 4.81268C73.8863 4.86444 74.1114 4.85541 74.2802 4.84864C74.449 4.84186 74.6178 4.83509 74.6719 4.77656C74.7822 4.71577 76.5807 4.58725 76.8058 4.57821C76.8598 4.51968 77.0286 4.51291 77.1975 4.50614C77.3123 4.5579 77.4248 4.55338 77.4811 4.55112C77.7062 4.54209 77.8705 4.42277 77.6949 4.26072C77.5779 4.15268 77.4653 4.1572 77.3573 4.27426C77.3032 4.33279 77.0782 4.34183 76.7405 4.35537C76.0089 4.38472 74.7664 4.32184 74.7056 4.21155C74.6448 4.10125 74.5885 4.10351 74.593 4.21606C74.5975 4.32861 74.4872 4.3894 74.3184 4.39618C74.2059 4.40069 74.0348 4.35119 74.0303 4.23864C74.028 4.18237 74.0257 4.12609 73.974 4.2409C73.92 4.29943 73.5283 4.37151 72.9093 4.39634C72.3465 4.41892 71.84 4.43924 71.8423 4.49552C71.786 4.49777 71.4484 4.51132 71.1107 4.52487C70.7731 4.53841 68.916 4.61292 68.6819 4.39685C68.6233 4.34283 68.5648 4.28881 68.4522 4.29333C68.396 4.29558 68.3419 4.35412 68.2316 4.41491C68.0673 4.53423 68.0111 4.53649 67.8985 4.541C67.786 4.54552 67.7297 4.54778 67.5586 4.49827C67.329 4.39475 67.2164 4.39927 67.1624 4.4578C67.1669 4.57035 66.6064 4.64921 65.9874 4.67404C65.087 4.71016 63.957 4.64277 63.8377 4.47846C63.7791 4.42444 63.6643 4.37268 63.6081 4.37494C63.5518 4.37719 63.4978 4.43573 63.5023 4.54828C63.5068 4.66083 63.2299 4.78467 62.9486 4.79596C62.7797 4.80273 62.6672 4.80724 62.5501 4.69921C62.3745 4.53716 62.3182 4.53941 62.3228 4.65197C62.3835 4.76226 61.5417 4.8524 60.6413 4.88852C59.6846 4.9269 58.6131 4.91352 58.5523 4.80323C58.5455 4.6344 58.487 4.58039 58.4307 4.58264C58.3745 4.5849 58.3204 4.64343 58.3272 4.81226C58.3317 4.92481 58.1674 5.04413 57.9423 5.05317C57.8298 5.05768 57.6024 5.01044 57.4291 4.90466C57.3705 4.85064 57.3143 4.8529 57.258 4.85516C57.2017 4.85742 57.0892 4.86193 56.9789 4.92272C56.8123 4.98577 56.4206 5.05785 56.083 5.07139C55.6891 5.0872 55.3491 5.04447 55.2906 4.99045C55.2861 4.8779 55.2276 4.82388 55.1713 4.82614C55.0587 4.83066 55.061 4.88693 55.1195 4.94095C55.2389 5.10526 53.2197 5.35536 51.7003 5.41632C50.8562 5.45018 50.1223 5.42326 50.0615 5.31297C50.003 5.25895 49.9445 5.20493 49.8882 5.20719C49.8319 5.20945 49.7779 5.26798 49.6676 5.32877C49.3907 5.45261 49.1656 5.46164 48.0424 5.56307C47.9298 5.56758 47.142 5.59919 46.2979 5.63306C45.8477 5.65112 45.5123 5.72094 45.2309 5.73223C44.837 5.74803 44.6096 5.70079 44.5511 5.64677C44.4925 5.59275 44.38 5.59727 44.326 5.6558C44.2742 5.77061 41.8026 5.9825 41.2399 6.00508C40.8459 6.02088 40.5623 5.97589 40.5038 5.92188C40.3327 5.87237 40.2764 5.87463 40.2247 5.98944C40.1706 6.04797 40.0581 6.05249 39.8893 6.05926C39.7745 6.0075 39.6619 6.01202 39.6642 6.06829C39.6664 6.12457 39.5539 6.12908 39.385 6.13586C39.1037 6.14714 38.7638 6.10441 38.6489 6.05265C38.5904 5.99864 38.4779 6.00315 38.3653 6.00767C38.1402 6.0167 37.9174 6.082 37.9219 6.19456C37.9241 6.25083 37.5865 6.26438 37.1926 6.28018C36.7986 6.29598 36.4047 6.31179 36.3507 6.37032C36.2967 6.42885 36.1819 6.37709 36.1256 6.37935C36.0671 6.32533 35.9545 6.32985 35.842 6.33437C35.7857 6.33662 35.7857 6.33662 35.7294 6.33888C35.6191 6.39967 35.5043 6.34791 35.4435 6.23762C35.3265 6.12958 35.2702 6.13184 35.1059 6.25116C34.8313 6.43128 34.327 6.50787 31.5718 6.67478C30.7277 6.70864 29.9984 6.79427 29.9443 6.8528C29.7192 6.86183 29.1565 6.88441 28.9269 6.78089C28.8706 6.78314 28.8143 6.7854 28.8166 6.84168C28.8211 6.95423 28.596 6.96326 28.1458 6.98132C28.0333 6.98584 27.9207 6.99035 27.8081 6.99487C27.5268 7.00615 27.4142 7.01067 27.3602 7.0692C27.3625 7.12548 27.1914 7.07598 27.018 6.9702C26.9032 6.91844 26.7884 6.86668 26.7321 6.86894C26.6759 6.87119 26.6759 6.87119 26.6219 6.92973C26.5161 7.10307 25.5617 7.19772 24.6613 7.23385C24.3799 7.24514 24.0985 7.25642 23.8734 7.26546C23.8171 7.26771 23.7608 7.26997 23.7046 7.27223C23.592 7.27674 23.4795 7.28126 23.4255 7.33979C23.3152 7.40058 21.2938 7.59441 20.0557 7.64408C19.7181 7.65763 19.4344 7.61264 19.3759 7.55862C19.3151 7.44833 19.2588 7.45059 19.1508 7.56765C19.0405 7.62844 18.9865 7.68698 18.9842 7.6307C18.982 7.57442 18.8717 7.63522 18.7074 7.75454C18.6533 7.81307 18.5971 7.81533 18.5408 7.81759C18.4845 7.81985 18.4282 7.8221 18.3112 7.71407C18.2549 7.71633 18.2526 7.66005 18.1964 7.66231C17.915 7.6736 17.4806 8.08558 17.5999 8.24989C17.7192 8.41421 17.161 8.54933 16.4294 8.57868C16.2021 8.53144 16.031 8.48194 16.0265 8.36939C15.9634 8.20282 15.8486 8.15106 15.7946 8.20959C15.628 8.27264 15.4434 7.88549 15.5492 7.71214C15.5469 7.65587 15.5447 7.59959 15.4321 7.60411C15.0945 7.61766 15.351 6.98734 15.898 6.57084C16.1163 6.39298 16.2266 6.33219 16.3391 6.32767C16.4517 6.32316 16.5102 6.37718 16.6813 6.42668C16.8524 6.47618 16.9649 6.47167 17.0212 6.46941C17.0775 6.46715 17.1338 6.46489 17.1315 6.40862C17.1833 6.29381 17.3521 6.28703 17.8023 6.26897C18.1962 6.25317 18.4191 6.18786 18.4168 6.13159C18.4708 6.07306 18.5811 6.01227 18.8062 6.00323C18.9188 5.99872 19.0313 5.9942 19.1439 5.98969C19.2564 5.98517 19.3127 5.98292 19.4252 5.9784C19.6503 5.96937 19.7629 5.96485 19.7606 5.90858C19.7584 5.8523 20.096 5.83876 20.4899 5.82295C20.8839 5.80715 21.2215 5.7936 21.2193 5.73733C21.2733 5.6788 21.3858 5.67428 21.5569 5.72378C21.6717 5.77554 21.8405 5.76877 21.8968 5.76651C21.8946 5.71024 22.3988 5.63364 23.0178 5.60881C23.5806 5.58623 24.5913 5.48932 25.2643 5.40595C25.5457 5.39466 25.7145 5.38789 25.8833 5.38111C26.3335 5.36305 26.4483 5.41481 26.5069 5.46883C26.5091 5.5251 26.5654 5.52285 26.678 5.51833C26.8468 5.51156 27.1236 5.38772 27.1191 5.27517C27.1169 5.21889 27.3397 5.15359 27.5648 5.14456C27.9587 5.12875 28.4697 5.22099 28.5305 5.33128C28.5913 5.44157 28.5913 5.44157 28.6994 5.3245C28.7511 5.2097 28.9717 5.08812 29.0842 5.0836C29.3094 5.07457 29.4219 5.07005 29.5907 5.06328C29.9284 5.04973 30.1535 5.0407 30.6014 4.96637C30.8243 4.90106 30.9931 4.89429 31.2182 4.88526C31.387 4.87848 31.5558 4.87171 31.6707 4.92347C31.7832 4.91895 31.8417 4.97297 31.898 4.97072C32.0106 4.9662 32.0646 4.90767 32.1186 4.84913C32.1726 4.7906 32.508 4.72078 32.9582 4.70272C33.5772 4.67788 34.4259 4.75657 34.5429 4.8646C34.66 4.97264 34.7163 4.97038 34.7658 4.7993C34.8175 4.68449 35.0944 4.56065 35.3758 4.54936C35.5446 4.54259 35.7157 4.59209 35.7742 4.64611C35.8328 4.70013 35.9431 4.63933 36.0533 4.57854C36.2177 4.45922 37.5097 4.35102 38.579 4.30812C39.3668 4.27652 40.0444 4.3057 40.1029 4.35971C40.22 4.46775 40.274 4.40922 40.382 4.29215C40.4338 4.17734 41.6133 4.07366 42.7388 4.0285C43.5267 3.9969 44.2605 4.02382 44.4316 4.07332C44.4879 4.07107 44.5464 4.12508 44.6589 4.12057C44.7152 4.11831 44.8255 4.05752 44.9358 3.99673C45.1024 3.93368 46.0005 3.84128 46.7321 3.81193C47.126 3.79613 47.5199 3.78032 47.5785 3.83434C47.6933 3.8861 47.7496 3.88384 47.7473 3.82757C47.745 3.77129 47.8058 3.88159 47.9229 3.98962C48.04 4.09766 48.1008 4.20795 48.157 4.20569C48.157 4.20569 48.2088 4.09088 48.2043 3.97833C48.2515 3.75097 48.5306 3.68341 48.812 3.67212C49.0934 3.66083 49.377 3.70582 49.3861 3.93092C49.3906 4.04347 49.4491 4.09749 49.4491 4.09749C49.5054 4.09523 49.6134 3.97816 49.6652 3.86336C49.825 3.63148 49.7687 3.63374 51.7923 3.49619C52.13 3.48264 52.3574 3.52989 52.4744 3.63792C52.5937 3.80223 52.5937 3.80223 52.7558 3.62663C52.9201 3.50731 54.3225 3.33832 55.5605 3.28865C56.5735 3.24801 57.4199 3.27042 57.5369 3.37845C57.7125 3.54051 57.7103 3.48423 57.7058 3.37168C57.699 3.20286 57.8678 3.19608 58.7119 3.16222C59.2747 3.13964 59.8374 3.11706 59.95 3.11255C60.1188 3.10578 60.2899 3.15528 60.3484 3.2093C60.4632 3.26105 60.5758 3.25654 60.6838 3.13947C60.7919 3.02241 61.1858 3.0066 62.0862 2.97048C62.7638 2.99966 63.4391 2.97257 63.6079 2.9658C63.7204 2.96128 63.8915 3.01078 63.9501 3.0648C64.0086 3.11882 64.0649 3.11656 64.1752 3.05577C64.2292 2.99724 64.8459 2.91613 65.5775 2.88678C67.2658 2.81905 67.2095 2.82131 67.3851 2.98336C67.5022 3.09139 67.5584 3.08914 67.6687 3.02835C67.7768 2.91128 69.0103 2.74906 70.4735 2.69036C70.9237 2.6723 73.9085 2.60892 74.1381 2.71244C74.1967 2.76645 74.2507 2.70792 74.3632 2.7034C74.4735 2.64261 74.5838 2.58182 74.7526 2.57505C74.8652 2.57053 75.0363 2.62004 75.0971 2.73033C75.2141 2.83837 75.2749 2.94866 75.3312 2.9464C75.3875 2.94414 75.4392 2.82934 75.4347 2.71678C75.4302 2.60423 75.4842 2.5457 75.9344 2.52764C76.1032 2.52087 76.2721 2.51409 76.5534 2.5028C77.231 2.53199 78.1314 2.49586 78.6964 2.52956C79.2029 2.50924 79.6554 2.54746 79.7116 2.5452C79.7702 2.59922 79.8827 2.5947 79.9367 2.53617C79.9322 2.42362 80.0448 2.4191 80.1596 2.47086C80.2721 2.46635 81.006 2.49327 81.7398 2.5202C82.5277 2.48859 83.2615 2.51552 83.374 2.511C83.4888 2.56276 83.6014 2.55824 83.6554 2.49971C83.7117 2.49745 83.8828 2.54696 83.9976 2.59871C84.1124 2.65048 84.1709 2.70449 84.2272 2.70223C84.2835 2.69998 84.3375 2.64144 84.4478 2.58065C84.6121 2.46133 84.6684 2.45907 84.7246 2.45682C84.8372 2.4523 84.8935 2.45004 85.0105 2.55808C85.1839 2.66385 85.2987 2.71561 85.2942 2.60306C85.2919 2.54679 85.5733 2.5355 86.1923 2.51066C86.701 2.54662 87.4349 2.57355 87.8288 2.55774C88.2813 2.59596 88.7337 2.63417 88.9026 2.6274C89.0174 2.67916 89.4135 2.71963 89.6949 2.70834C90.2037 2.7443 91.7299 2.85216 91.7615 3.64002C91.7682 3.80884 91.8335 4.03169 91.8921 4.0857C92.0091 4.19374 92.0114 4.25001 91.7931 4.42787C91.5207 4.66426 91.5207 4.66426 92.4211 4.62814C92.9276 4.60782 93.4926 4.64152 93.6637 4.69102C93.8348 4.74052 94.0036 4.73375 94.0014 4.67747C94.0554 4.61894 94.5596 4.54234 95.0098 4.52428C95.5163 4.50396 96.025 4.53992 96.1398 4.59168C96.3109 4.64118 96.3672 4.63892 96.3649 4.58265C96.4189 4.52412 96.4729 4.46558 96.6418 4.45881C96.7543 4.45429 96.9254 4.5038 97.1505 4.49477C97.3756 4.48573 97.5467 4.53524 97.7155 4.52846C97.8281 4.52395 97.8821 4.46542 97.8821 4.46542C97.8798 4.40914 97.9384 4.46316 98.0532 4.51492C98.1702 4.62295 98.2265 4.6207 98.3345 4.50363C98.3323 4.44735 98.3886 4.4451 98.4448 4.44284C98.5574 4.43832 98.8455 4.59586 98.8523 4.76469C98.8546 4.82096 98.9154 4.93125 98.9716 4.929C99.0279 4.92674 99.0797 4.81193 99.0752 4.69938C99.0706 4.58683 99.46 4.45848 100.023 4.4359C100.473 4.41784 100.982 4.45379 101.605 4.54151C101.83 4.53248 102.114 4.57747 102.283 4.57069C102.454 4.62019 102.738 4.66518 102.852 4.71694C102.967 4.7687 103.023 4.76644 103.08 4.76418C103.136 4.76193 103.249 4.75741 103.303 4.69888C103.357 4.64035 103.413 4.63809 103.469 4.63583C103.751 4.62454 103.987 4.89689 104.003 5.29081C104.012 5.51591 104.075 5.68248 104.133 5.7365C104.367 5.95257 104.05 6.47259 103.71 6.42986C103.541 6.43664 103.373 6.44341 103.377 6.55596C103.379 6.61224 103.044 6.68206 102.594 6.70012C101.918 6.72721 101.07 6.64853 100.953 6.54049C100.894 6.48647 100.892 6.4302 100.836 6.43246C100.779 6.43471 100.725 6.49325 100.561 6.61257C100.453 6.72964 100.23 6.79494 100.172 6.74093C100.059 6.74544 99.3253 6.71852 98.5914 6.69159C97.8036 6.7232 96.8446 6.7053 96.4484 6.66483C96.1108 6.67838 94.3663 6.74837 94.1321 6.5323C94.0151 6.42426 93.9588 6.42652 93.9093 6.5976C93.8575 6.71241 93.8013 6.71467 93.6302 6.66517C93.5154 6.61341 93.2317 6.56842 93.0066 6.57745C92.7815 6.58648 91.8811 6.6226 90.9785 6.60245C90.1321 6.58004 89.3442 6.61165 89.288 6.61391C88.6689 6.63874 86.643 6.72002 86.5845 6.666C86.5282 6.66826 86.4157 6.67277 86.2491 6.73582C86.1388 6.79661 86.0262 6.80113 85.97 6.80339C85.8574 6.8079 85.8011 6.81016 85.6863 6.7584C85.5715 6.70664 85.459 6.71116 85.405 6.76969C85.2969 6.88675 85.2407 6.88901 85.1236 6.78098C85.0088 6.72922 84.8962 6.73373 84.8985 6.79001C84.8445 6.84854 84.3965 6.92288 83.8338 6.94545C83.1022 6.9748 82.2558 6.95239 82.1387 6.84436C82.0239 6.7926 81.9677 6.79486 81.9159 6.90966C81.8619 6.9682 81.639 7.0335 81.4139 7.04253C81.1888 7.05157 80.9615 7.00432 80.8467 6.95256C80.7296 6.84453 80.6756 6.90306 80.6238 7.01787C80.518 7.19121 80.4618 7.19347 80.3447 7.08543C80.2862 7.03141 80.2299 7.03367 80.1174 7.03819C80.0611 7.04044 80.0048 7.0427 79.8945 7.10349C79.7279 7.16654 79.28 7.24088 78.9423 7.25442C78.8298 7.25894 78.7172 7.26345 78.6047 7.26797C78.4359 7.27474 78.3233 7.27926 78.267 7.28152C78.213 7.34005 77.6525 7.4189 77.0898 7.44148C75.8517 7.49115 73.3779 7.64676 73.3801 7.70304C73.3801 7.70304 73.2676 7.70755 73.155 7.71207C72.8174 7.72561 72.1983 7.75045 72.0835 7.69869C71.9687 7.64693 71.9125 7.64919 71.917 7.76174C71.9192 7.81801 71.863 7.82027 71.8067 7.82253C71.7481 7.76851 71.6941 7.82704 71.6379 7.8293C71.6401 7.88558 71.2484 7.95765 70.8545 7.97346C69.5039 8.02764 68.446 8.35191 69.5175 8.36529C69.7426 8.35626 70.0825 8.39899 70.2513 8.39222C70.4201 8.38545 70.5889 8.37867 70.643 8.32014C70.697 8.26161 70.7533 8.25935 70.8658 8.25483C71.1472 8.24355 71.4893 8.34255 71.4916 8.39883C71.4939 8.4551 71.5524 8.50912 71.6087 8.50686C71.6649 8.5046 71.719 8.44607 71.7144 8.33352C71.7099 8.22097 71.7662 8.21871 71.881 8.27047C72.0498 8.2637 72.2187 8.25692 72.3875 8.25015C72.4978 8.18936 72.6103 8.18485 72.7792 8.17807C72.948 8.1713 73.1168 8.16453 73.2316 8.21629C73.513 8.205 74.5845 8.21838 74.8141 8.3219C74.9289 8.37366 75.0415 8.36914 75.1517 8.30835C75.2058 8.24982 75.9351 8.16419 76.6667 8.13484C77.3982 8.10549 78.1321 8.13242 78.3032 8.18192C78.418 8.23368 78.5868 8.22691 78.5845 8.17063C78.5823 8.11436 78.6948 8.10984 78.8074 8.10533C79.0888 8.09404 79.5997 8.18627 79.7708 8.23577C79.8294 8.28979 79.9419 8.28527 79.9959 8.22674C80.1062 8.16595 80.2165 8.10516 80.3853 8.09838C80.4979 8.09387 80.669 8.14337 80.7838 8.19513C80.8986 8.24689 81.0111 8.24238 81.1214 8.18159C81.1732 8.06678 81.2857 8.06226 81.3443 8.11628C81.3465 8.17255 81.7967 8.15449 82.3055 8.19045C83.2622 8.15207 83.4355 8.25785 83.4558 8.76432C83.4626 8.93315 83.5797 9.04118 83.6922 9.03667C83.9758 9.08165 83.8813 9.53637 83.6 9.54766C83.5437 9.54992 83.4919 9.66473 83.4942 9.721C83.5077 10.0587 83.1183 10.187 80.6985 10.2841C79.0665 10.3496 78.3349 10.3789 78.3304 10.2664C78.3282 10.2101 78.2719 10.2123 78.2201 10.3272C78.1661 10.3857 77.9433 10.451 77.6056 10.4645C77.4931 10.4691 77.3805 10.4736 77.268 10.4781C77.2117 10.4803 77.1532 10.4263 77.1486 10.3138C77.1464 10.2575 77.1441 10.2012 77.0879 10.2035C77.0316 10.2057 76.9776 10.2643 76.8695 10.3813C76.7075 10.5569 76.5994 10.674 76.5432 10.6763C76.5432 10.6763 76.4283 10.6245 76.3113 10.5165C76.1965 10.4647 76.0277 10.4715 76.0277 10.4715C75.9736 10.53 75.188 10.6179 74.569 10.6427C74.1751 10.6585 73.8374 10.6721 73.7789 10.6181C73.7181 10.5078 73.6618 10.51 73.6101 10.6248C73.6146 10.7374 73.3917 10.8027 73.2229 10.8095C72.9978 10.8185 72.7705 10.7712 72.6534 10.6632C72.5926 10.5529 72.5926 10.5529 72.5971 10.6655C72.6016 10.778 72.21 10.8501 71.8723 10.8636C71.5909 10.8749 71.3073 10.8299 71.1925 10.7782C71.1362 10.7804 71.0799 10.7827 71.0237 10.785C70.9179 10.9583 70.0198 11.0507 69.3444 11.0778C69.0631 11.0891 68.7817 11.1004 68.7232 11.0464C68.6061 10.9383 68.5498 10.9406 68.5543 11.0531C68.5566 11.1094 68.39 11.1724 68.1649 11.1815C68.0524 11.186 67.9398 11.1905 67.771 11.1973C67.0957 11.2244 66.0287 11.3235 65.8081 11.4451C65.6956 11.4496 65.4682 11.4024 65.2971 11.3529C65.009 11.1954 65.009 11.1954 65.0158 11.3642C65.018 11.4205 64.964 11.479 64.7952 11.4858C64.7389 11.488 64.6826 11.4903 64.5701 11.4948C64.345 11.5038 64.1199 11.5129 64.0659 11.5714C64.0118 11.6299 63.7305 11.6412 63.4491 11.6525C63.1677 11.6638 62.8863 11.6751 62.7153 11.6256C62.6027 11.6301 62.4856 11.5221 62.4811 11.4095C62.4766 11.297 62.4158 11.1867 62.3595 11.1889C62.3033 11.1912 62.2493 11.2497 62.3146 11.4726C62.3213 11.6414 61.1463 11.8576 60.2459 11.8937C59.852 11.9095 59.5143 11.9231 59.3973 11.8151C59.2825 11.7633 59.2262 11.7656 59.2307 11.8781C59.2352 11.9907 58.8436 12.0627 58.4496 12.0785C58.1683 12.0898 57.8846 12.0448 57.7698 11.9931C57.655 11.9413 57.5987 11.9436 57.547 12.0584C57.4952 12.1732 57.2724 12.2385 56.5971 12.2656C55.1362 12.3806 54.5171 12.4054 54.4091 12.5225C54.3551 12.581 54.2425 12.5855 54.0737 12.5923C53.6235 12.6104 53 12.5226 52.9392 12.4123C52.8784 12.302 52.8221 12.3043 52.7658 12.3066C52.7096 12.3088 52.6555 12.3674 52.6623 12.5362C52.6691 12.705 52.4462 12.7703 52.2211 12.7793C51.9398 12.7906 51.6561 12.7456 51.5368 12.5813C51.359 12.363 51.359 12.363 51.3657 12.5318C51.3748 12.7569 50.9808 12.7727 50.8683 12.7773C50.7535 12.7255 50.6972 12.7278 50.6995 12.784C50.7017 12.8403 50.5914 12.9011 50.5351 12.9033C50.31 12.9124 49.1891 13.0701 47.449 13.2526C47.1677 13.2639 46.9448 13.3292 46.776 13.336C46.6072 13.3428 46.4924 13.291 46.4338 13.237C46.3753 13.183 46.319 13.1852 46.211 13.3023C46.157 13.3608 46.0467 13.4216 45.8778 13.4284C45.709 13.4352 45.4817 13.3879 45.3083 13.2821C45.2498 13.2281 45.1372 13.2326 45.0855 13.3474C44.9234 13.523 44.9234 13.523 44.8041 13.3587C44.7433 13.2484 44.6848 13.1944 44.5722 13.1989C44.516 13.2012 44.4057 13.262 44.3562 13.4331C44.3067 13.6042 44.1964 13.6649 43.8587 13.6785C42.902 13.7169 41.7225 13.8206 41.6122 13.8813C41.5582 13.9399 40.8852 14.0232 38.92 14.2148C38.7512 14.2216 38.5239 14.1743 38.3505 14.0686C38.1772 13.9628 38.0624 13.911 38.0061 13.9133C37.9498 13.9155 37.8958 13.9741 37.9026 14.1429C37.9071 14.2555 37.8553 14.3703 37.799 14.3725C37.7428 14.3748 37.2363 14.3951 36.7321 14.4717C36.2256 14.492 35.5526 14.5754 35.2712 14.5867C34.9335 14.6002 34.6544 14.6678 34.6544 14.6678C34.6567 14.7241 34.319 14.7376 33.8688 14.7557C33.4749 14.7715 32.8581 14.8526 32.5227 14.9224C32.3539 14.9292 32.2436 14.99 32.1311 14.9945C31.9622 15.0013 31.9037 14.9472 31.8452 14.8932C31.7304 14.8415 31.6741 14.8437 31.566 14.9608C31.458 15.0778 30.5599 15.1702 29.8283 15.1996C29.2655 15.2222 28.8131 15.184 28.8108 15.1277C28.8086 15.0714 28.75 15.0174 28.6938 15.0196C28.6375 15.0219 28.5835 15.0804 28.588 15.193C28.5925 15.3055 27.3567 15.4115 26.2312 15.4566C25.4433 15.4882 24.7658 15.4591 24.651 15.4073C24.5339 15.2993 24.4776 15.3015 24.4821 15.4141C24.4844 15.4703 24.203 15.4816 23.8654 15.4952C23.4714 15.511 23.0212 15.529 22.6813 15.4863C22.6251 15.4886 22.4562 15.4954 22.3459 15.5561C22.2334 15.5607 22.0646 15.5674 21.952 15.5719C21.9498 15.5157 21.3847 15.482 20.7657 15.5068C19.5817 15.4979 18.6745 15.3652 19.3475 15.2819C19.9643 15.2008 20.1894 15.1917 20.41 15.0702C20.5766 15.0071 20.6914 15.0589 20.6959 15.1714C20.6982 15.2277 20.6982 15.2277 20.8062 15.1106C20.8557 14.9395 21.3036 14.8652 22.4291 14.82C22.7645 14.7502 23.0437 14.6827 23.1539 14.6219C23.208 14.5633 23.3183 14.5025 23.4331 14.5543C23.4893 14.5521 23.6582 14.5453 23.8247 14.4822C23.935 14.4214 23.9913 14.4192 24.1039 14.4147C24.2164 14.4102 24.329 14.4056 24.4438 14.4574C24.5563 14.4529 24.6148 14.5069 24.6711 14.5046C24.7837 14.5001 24.7814 14.4438 24.7792 14.3876C24.7746 14.275 25.1078 14.1489 25.3891 14.1376C25.6143 14.1286 25.7853 14.1781 25.8439 14.2321C25.9047 14.3424 25.9609 14.3402 26.069 14.2231C26.1185 14.052 26.285 13.989 26.679 13.9732C26.9581 13.9056 27.2957 13.8921 27.3498 13.8335C27.5726 13.7682 27.8517 13.7006 28.0768 13.6916C28.1894 13.6871 28.3019 13.6826 28.3042 13.7389C28.3627 13.7929 28.419 13.7906 28.5293 13.7298C28.5833 13.6713 28.9727 13.5429 29.3666 13.5271C29.8146 13.4528 30.4313 13.3717 30.769 13.3581C32.3942 13.1238 32.8444 13.1058 33.1798 13.036C33.5174 13.0224 33.6795 12.8468 33.3418 12.8604C33.2293 12.8649 33.0582 12.8154 32.9997 12.7614C32.8826 12.6533 32.8826 12.6533 32.8871 12.7659C32.8917 12.8784 32.7791 12.8829 32.6103 12.8897C32.4392 12.8402 32.3266 12.8447 32.3289 12.901C32.3312 12.9573 32.1646 13.0203 31.9395 13.0294C31.7707 13.0361 31.5996 12.9866 31.541 12.9326C31.4825 12.8786 31.37 12.8831 31.3137 12.8854C31.1449 12.8921 31.0323 12.8967 30.9243 13.0137C30.76 13.133 29.9204 13.2795 29.3013 13.3043C29.0199 13.3156 28.8511 13.3224 28.68 13.2729C28.6238 13.2751 28.5652 13.2211 28.4527 13.2256C28.3964 13.2279 28.2861 13.2887 28.2321 13.3472C28.0655 13.4102 27.953 13.4148 27.8944 13.3607C27.8359 13.3067 27.7774 13.2527 27.7211 13.255C27.6648 13.2572 27.6108 13.3158 27.5005 13.3765C27.3902 13.4373 27.1111 13.5049 26.8883 13.5702C26.6069 13.5815 26.2152 13.6536 25.9901 13.6626C25.765 13.6716 25.092 13.755 24.4729 13.7798C23.8539 13.8047 23.3497 13.8813 23.352 13.9375C23.352 13.9375 23.1291 14.0028 22.7915 14.0164C22.3413 14.0345 21.8325 13.9985 21.7177 13.9467C21.6592 13.8927 21.6052 13.9513 21.6097 14.0638C21.6142 14.1764 21.5039 14.2371 21.3914 14.2417C21.2788 14.2462 21.2203 14.1922 21.1617 14.1381C21.1032 14.0841 20.9907 14.0886 20.8781 14.0932C20.7656 14.0977 20.5967 14.1044 20.4887 14.2215C20.3784 14.2823 20.2681 14.3431 20.2118 14.3453C20.1556 14.3476 20.097 14.2936 20.0407 14.2958C19.9822 14.2418 19.9259 14.2441 19.8134 14.2486C19.7571 14.2509 19.7008 14.2531 19.5905 14.3139C19.424 14.377 19.0886 14.4468 18.8072 14.4581C18.5258 14.4694 17.9068 14.4942 17.4026 14.5708C17.1775 14.5798 16.9546 14.6451 16.8421 14.6496C16.617 14.6587 16.5022 14.6069 16.4977 14.4944C16.4931 14.3818 16.4931 14.3818 16.3874 14.5551C16.2253 14.7307 15.6648 14.8096 15.0458 14.8344C14.7081 14.848 14.4268 14.8593 14.1431 14.8143C13.9158 14.767 13.8032 14.7715 13.8055 14.8278C13.8077 14.8841 13.7537 14.9426 13.6412 14.9471C13.5849 14.9494 13.4701 14.8976 13.4116 14.8436C13.353 14.7896 13.2382 14.7379 13.1819 14.7401C13.0694 14.7446 12.9591 14.8054 12.9636 14.918C12.9681 15.0305 12.6327 15.1003 11.9574 15.1274C11.451 15.1477 11.0008 15.1658 11.003 15.2221C11.003 15.2221 10.6676 15.2919 10.2174 15.31C9.76721 15.328 9.14819 15.3529 8.81279 15.4227C8.70024 15.4272 8.64397 15.4295 8.53142 15.434C8.30632 15.443 8.13749 15.4498 8.07896 15.3958C8.01817 15.2855 7.90562 15.29 7.74131 15.4093C7.57474 15.4724 7.3519 15.5377 7.18307 15.5444ZM81.9673 3.97658C81.911 3.97884 81.8548 3.9811 81.8593 4.09365C81.8615 4.14992 81.9201 4.20394 81.9741 4.14541C81.9718 4.08913 81.9696 4.03286 81.9673 3.97658ZM80.2881 4.26941C80.2881 4.26941 80.2318 4.27167 80.2341 4.32794L80.2926 4.38196C80.3489 4.3797 80.3466 4.32343 80.3466 4.32343C80.3444 4.26715 80.3444 4.26715 80.2881 4.26941ZM78.3725 4.2899C78.2577 4.23814 78.2037 4.29667 78.2037 4.29667C78.2059 4.35295 78.4333 4.40019 78.7147 4.3889C79.1086 4.3731 79.1648 4.37084 79.0478 4.26281C78.9307 4.15477 78.8182 4.15929 78.7056 4.1638C78.5931 4.16832 78.5368 4.17057 78.5391 4.22685C78.5413 4.28313 78.431 4.34392 78.3725 4.2899ZM59.5133 3.46826L59.5674 3.40973C59.5651 3.35345 59.5088 3.35571 59.5088 3.35571C59.4526 3.35797 59.4526 3.35797 59.4548 3.41424C59.4548 3.41424 59.4571 3.47052 59.5133 3.46826ZM68.5517 8.17857C68.3829 8.18535 68.2141 8.19212 68.2164 8.24839C68.2186 8.30467 68.3874 8.2979 68.5563 8.29112C68.7251 8.28435 68.8939 8.27758 68.8939 8.27758C68.8917 8.2213 68.7228 8.22808 68.5517 8.17857ZM67.8787 8.26194C67.8247 8.32047 67.8247 8.32047 67.9372 8.31596C68.0498 8.31144 68.1623 8.30693 68.1038 8.25291C68.0475 8.25517 67.9912 8.25743 67.8787 8.26194ZM67.1471 8.29129C67.0391 8.40836 67.1562 8.51639 67.2687 8.51188C67.3812 8.50736 67.4353 8.44883 67.5456 8.38804C67.7099 8.26871 67.6536 8.27097 67.5388 8.21921C67.4825 8.22147 67.4825 8.22147 67.4262 8.22373C67.3137 8.22824 67.2011 8.23276 67.1471 8.29129ZM66.5258 8.25985C66.5258 8.25985 66.5281 8.31613 66.5303 8.3724C66.5866 8.37014 66.5866 8.37014 66.5844 8.31387C66.5844 8.31387 66.5821 8.25759 66.5258 8.25985ZM66.195 8.44222C66.1972 8.4985 66.1972 8.4985 66.3098 8.49398C66.366 8.49172 66.4223 8.48947 66.3638 8.43545C66.3053 8.38143 66.249 8.38369 66.195 8.44222ZM51.1382 11.0754C51.0842 11.134 51.0864 11.1903 51.0864 11.1903C51.1427 11.188 51.1967 11.1295 51.2508 11.0709C51.2485 11.0147 51.2462 10.9584 51.2462 10.9584C51.19 10.9606 51.1359 11.0192 51.1382 11.0754ZM50.285 10.8842C50.2288 10.8865 50.1747 10.945 50.177 11.0013C50.1793 11.0576 50.2378 11.1116 50.2378 11.1116C50.2941 11.1093 50.2918 11.053 50.3458 10.9945C50.3998 10.936 50.3413 10.882 50.285 10.8842ZM48.3852 11.2986C48.3852 11.2986 48.329 11.3009 48.3312 11.3572L48.3897 11.4112C48.446 11.4089 48.4438 11.3526 48.4438 11.3526C48.4415 11.2964 48.4415 11.2964 48.3852 11.2986ZM44.9097 11.7763C45.0831 11.882 45.1393 11.8798 45.0785 11.7695C45.02 11.7155 44.9052 11.6637 44.8489 11.666C44.7926 11.6682 44.7949 11.7245 44.9097 11.7763ZM44.9768 7.82796C44.6886 7.67042 44.6324 7.67268 44.6369 7.78523C44.6414 7.89778 44.8733 8.05758 45.1591 8.15884C45.1591 8.15884 45.2132 8.1003 45.2109 8.04403C45.2649 7.9855 45.1479 7.87746 44.9768 7.82796ZM43.9121 7.98341L43.858 8.04194C43.8603 8.09821 43.9166 8.09596 43.9166 8.09596C43.9729 8.0937 43.9729 8.0937 43.9706 8.03742C43.9706 8.03742 43.9683 7.98115 43.9121 7.98341ZM43.4146 8.22883C43.1895 8.23786 43.3066 8.34589 43.6487 8.4449C43.642 8.27607 43.5834 8.22205 43.4146 8.22883ZM41.9316 12.0085C41.8754 12.0107 41.8754 12.0107 41.8776 12.067C41.8776 12.067 41.8799 12.1233 41.9362 12.121L41.9902 12.0625C41.9879 12.0062 41.9316 12.0085 41.9316 12.0085ZM41.5125 8.58696C41.5103 8.53069 41.454 8.53295 41.454 8.53295C41.3977 8.5352 41.3977 8.5352 41.4 8.59148C41.4 8.59148 41.4023 8.64775 41.4585 8.6455L41.5125 8.58696ZM41.3347 8.36864C41.2784 8.37089 41.3369 8.42491 41.3932 8.42265C41.4495 8.4204 41.5035 8.36186 41.4472 8.36412C41.445 8.30785 41.3324 8.31236 41.3347 8.36864ZM40.8061 12.0536C40.8061 12.0536 40.7499 12.0559 40.7521 12.1122L40.8107 12.1662C40.8669 12.1639 40.8647 12.1076 40.8647 12.1076C40.8624 12.0514 40.8624 12.0514 40.8061 12.0536ZM39.0684 12.2924C38.9603 12.4095 38.9603 12.4095 39.1854 12.4005C39.4105 12.3914 39.4646 12.3329 39.406 12.2789C39.2912 12.2271 39.2349 12.2294 39.0684 12.2924ZM37.7353 8.5694C37.7353 8.5694 37.6791 8.57166 37.6813 8.62794L37.7398 8.68195C37.7961 8.6797 37.7939 8.62342 37.7939 8.62342C37.7916 8.56715 37.7916 8.56715 37.7353 8.5694ZM37.1618 12.538C36.7679 12.5538 36.7116 12.5561 37.0515 12.5988C37.2789 12.6461 37.3937 12.6978 37.4499 12.6956C37.5625 12.691 37.5602 12.6348 37.6143 12.5762C37.612 12.52 37.7245 12.5154 37.7808 12.5132C37.8394 12.5672 38.1185 12.4996 38.3413 12.4343C38.7893 12.36 38.7893 12.36 38.3953 12.3758C38.1702 12.3848 37.9429 12.3376 37.8821 12.2273C37.8236 12.1733 37.7673 12.1755 37.7155 12.2903C37.6638 12.4051 37.4432 12.5267 37.1618 12.538ZM36.333 8.7384C36.333 8.7384 36.2767 8.74065 36.2789 8.79693L36.3375 8.85095C36.3938 8.84869 36.3915 8.79241 36.3915 8.79241C36.3892 8.73614 36.3892 8.73614 36.333 8.7384ZM35.9345 8.64165C35.8805 8.70018 35.939 8.7542 35.9953 8.75194C36.1079 8.74743 36.1641 8.74517 36.1619 8.68889C36.1574 8.57634 35.9863 8.52684 35.9345 8.64165ZM35.98 12.5854C35.9328 12.8128 35.9328 12.8128 36.1534 12.6912C36.2659 12.6867 36.3177 12.5719 36.2591 12.5179C36.1983 12.4076 36.0295 12.4143 35.98 12.5854ZM35.7572 12.6507C35.7009 12.653 35.7032 12.7093 35.7032 12.7093C35.7054 12.7655 35.7054 12.7655 35.7617 12.7633C35.7617 12.7633 35.818 12.761 35.8157 12.7048L35.7572 12.6507ZM34.913 12.6846C34.8658 12.912 34.8658 12.912 35.0324 12.8489C35.1427 12.7881 35.253 12.7273 35.3092 12.7251C35.3092 12.7251 35.4195 12.6643 35.4758 12.662C35.5883 12.6575 35.5298 12.6035 35.3587 12.554C35.2439 12.5022 35.1314 12.5067 35.0751 12.509C35.0188 12.5113 34.9648 12.5698 34.913 12.6846ZM33.9046 12.8378C33.7943 12.8986 33.738 12.9008 33.8528 12.9526C33.9114 13.0066 33.9677 13.0044 34.0239 13.0021C34.249 12.9931 34.6384 12.8647 34.6902 12.7499C34.7442 12.6914 34.1837 12.7702 33.9046 12.8378ZM33.4067 8.8558C33.4067 8.8558 33.3504 8.85805 33.3526 8.91433L33.4112 8.96835C33.4674 8.96609 33.4652 8.90981 33.4652 8.90981C33.4629 8.85354 33.4629 8.85354 33.4067 8.8558ZM31.0658 10.9225C30.897 10.9293 30.843 10.9878 30.9578 11.0396C31.1311 11.1454 31.2437 11.1408 31.2955 11.026C31.3495 10.9675 31.2369 10.972 31.0658 10.9225ZM30.2172 10.8438C30.2195 10.9001 30.2217 10.9564 30.278 10.9541C30.3343 10.9519 30.3883 10.8933 30.386 10.8371C30.3838 10.7808 30.3815 10.7245 30.3252 10.7268C30.3252 10.7268 30.2712 10.7853 30.2172 10.8438ZM29.3798 11.0465C29.2133 11.1096 29.2133 11.1096 29.3303 11.2176C29.4451 11.2694 29.7198 11.0892 29.6027 10.9812C29.5464 10.9835 29.4339 10.988 29.3798 11.0465Z"
    fill="#0F0404"></path>
</svg>
