<svg fill="none" height="5" viewBox="0 0 33 5" width="33" xmlns="http://www.w3.org/2000/svg">
  <path
    d="M28.2255 1.26679C28.2314 1.52892 28.2507 1.65961 28.2834 1.65888C28.349 1.65742 28.559 1.52162 28.9136 1.25148C29.1714 1.04905 29.4797 0.911061 29.8387 0.837508C30.1983 0.796719 30.5595 0.821461 30.9221 0.911734C31.2847 1.00201 31.5993 1.14252 31.8658 1.33328C32.1322 1.52403 32.2848 1.75011 32.3234 2.0115C32.397 2.37046 32.4017 2.58343 32.3376 2.65042C32.2736 2.71741 32.1246 2.65516 31.8909 2.46367C31.6907 2.30422 31.5418 2.24198 31.4442 2.27693C31.3466 2.31188 31.2684 2.47753 31.2094 2.77388C31.1803 2.93843 31.1013 3.07132 30.9724 3.17253C30.8763 3.27301 30.5993 3.34474 30.1413 3.38772C29.6833 3.4307 28.9952 3.44601 28.0771 3.43367C27.1597 3.45409 25.8815 3.46616 24.2425 3.46986C23.2915 3.45825 22.1768 3.45028 20.8982 3.44596C19.6532 3.47368 18.3586 3.48611 17.0145 3.48325C15.6704 3.48039 14.3263 3.47752 12.9822 3.47466C11.6716 3.50384 10.4753 3.51408 9.39328 3.50538C7.29485 3.48653 5.63876 3.45784 4.42499 3.41929C3.24471 3.41279 2.34184 3.35093 1.71639 3.23373C1.12443 3.14856 0.743982 2.99312 0.57505 2.76742C0.439613 2.57374 0.367519 2.28031 0.358766 1.88713C0.350743 1.52672 0.411167 1.2959 0.54004 1.19469C0.668912 1.09347 0.979087 1.0374 1.47056 1.02646C1.79749 0.986398 2.46881 0.955063 3.48453 0.932452C4.53301 0.909112 5.74532 0.882125 7.12146 0.851491C8.53109 0.852893 10.0059 0.836454 11.5459 0.802173C13.0865 0.800657 14.545 0.784582 15.9211 0.753948C17.298 0.756079 18.4943 0.745839 19.51 0.723229C20.5264 0.733383 21.1821 0.735178 21.477 0.728613C22.9208 0.794816 24.3636 0.811871 25.8053 0.779778C26.7882 0.757897 27.4279 0.776439 27.7242 0.835405C28.0541 0.926407 28.2212 1.0702 28.2255 1.26679Z"
    fill="#780000"></path>
</svg>
