<svg fill="none" height="33" viewBox="0 0 76 33" width="76" xmlns="http://www.w3.org/2000/svg">
  <path
    d="M14.0501 28.9021C13.8363 28.7952 13.8529 27.8579 14.075 27.4961C14.1901 27.3482 14.2395 27.2084 14.1655 27.1508C14.1655 27.1508 13.9846 27.307 13.8119 27.529C13.6474 27.8167 13.4007 27.9811 13.4007 27.9811C13.3349 27.9893 13.154 28.1455 13.0471 28.3593C12.8744 28.5812 12.6277 28.7456 12.5619 28.7538C12.4303 28.7702 12.3727 28.8442 12.4385 28.836C12.5207 28.9594 12.2493 29.4609 12.052 29.4855C11.9862 29.4937 11.8053 29.6499 11.575 29.9458C11.4023 30.1678 11.1556 30.3322 11.024 30.3486C10.8842 30.2993 10.6293 30.3979 10.5224 30.6116C10.3415 30.7678 10.2181 30.85 9.82347 30.8993C9.69191 30.9157 9.49458 30.9403 9.29724 30.9649C9.22325 30.9074 9.07527 30.7922 8.99308 30.6689C8.83689 30.488 8.68892 30.3728 8.62314 30.381C8.49158 30.3974 8.41759 30.3399 8.45053 30.0686C8.48348 29.7972 8.40128 29.6739 8.40128 29.6739C8.26972 29.6903 8.31098 28.9503 8.45906 28.531C8.69766 27.7664 8.73881 27.5609 8.6484 27.3717C8.49222 27.1908 8.49222 27.1908 8.31951 27.4128C8.26194 27.4868 8.20437 27.5607 8.13859 27.569C7.94125 27.5936 7.78507 27.4127 7.61246 27.1002C7.44807 26.8535 7.36587 26.7301 7.30009 26.7383C7.16854 26.7548 7.06981 27.0343 6.93815 27.5852C6.86406 28.062 6.6502 28.4895 6.53506 28.6375C6.35414 28.7937 6.25542 29.0732 6.28004 29.2706C6.30467 29.4679 6.23058 29.9448 6.13186 30.2243C5.93441 30.7834 5.93441 30.7834 6.3455 30.8657C6.82237 30.9398 6.85521 31.2029 6.50979 31.6468C6.32887 31.803 6.28772 32.0086 6.29593 32.0743C6.37813 32.1977 6.19721 32.3539 5.99987 32.3785C5.86831 32.3949 5.72855 32.3455 5.64635 32.2222C5.42439 32.0495 5.42439 32.0495 5.45722 32.3126C5.48185 32.5099 5.3585 32.5921 5.22694 32.6086C5.02961 32.6332 4.68429 32.5427 4.38834 32.3124L4.39655 32.3782C3.80465 31.9176 3.59921 31.342 4.01862 30.9557C4.2571 30.7255 4.2571 30.7255 4.03514 30.5528C3.73919 30.3225 3.89548 29.969 4.22437 29.9279C4.42171 29.9033 4.42171 29.9033 4.20796 29.7964C3.9942 29.6894 4.00252 29.2208 4.19985 29.1962C4.26563 29.1879 4.3232 29.114 4.24921 29.0564C4.10124 28.9413 4.3973 28.6371 4.66041 28.6043C4.84954 28.5138 4.84954 28.5138 4.71798 28.5303C4.43845 28.4315 4.44666 28.4973 4.57011 27.8807C4.66883 27.6012 4.70998 27.3956 4.70998 27.3956C4.74293 27.1243 5.12129 26.409 5.30221 26.2528C5.49133 26.1624 5.54069 26.0227 5.49965 25.6938C5.43398 25.1675 5.71362 24.7318 6.05072 24.7566C6.19049 24.8059 6.25627 24.7977 6.10829 24.6826C5.88633 24.5099 5.91927 24.2385 6.24827 23.6631C6.42098 23.4411 6.5197 23.1616 6.51149 23.0958C6.50328 23.03 6.61021 22.8162 6.79113 22.6601C6.90627 22.5121 7.07898 22.2901 7.06256 22.1586C7.05435 22.0928 7.10371 21.953 7.16128 21.879C7.6711 21.6818 7.79445 21.5996 7.65468 21.5502C7.38335 21.5173 7.39167 21.0486 7.64658 20.95C7.76992 20.8678 7.88506 20.7198 7.87685 20.6541C7.85223 20.4567 7.97558 20.3745 8.17291 20.3499C8.23869 20.3417 8.37025 20.3253 8.44424 20.3828C8.51823 20.4404 8.59221 20.498 8.59221 20.498C8.65799 20.4898 8.57579 20.3664 8.41961 20.1855C8.09903 19.7579 8.18954 19.4126 8.70757 19.2811C8.97068 19.2483 9.08582 19.1003 8.8145 19.0674C8.67473 19.018 9.50544 17.6451 10.1963 16.7572C10.4183 16.3955 10.6404 16.0338 10.6322 15.968C10.624 15.9022 10.7885 15.6145 11.0188 15.3185C11.2491 15.0226 11.5945 14.5786 11.7672 14.3567C12.0962 13.7812 12.7541 13.1646 12.8938 13.214C13.0336 13.2634 13.2475 12.8359 13.4531 12.3426C13.4943 12.137 13.667 11.9151 13.7903 11.8329C13.9137 11.7507 14.0864 11.5287 14.1933 11.3149C14.3085 11.167 14.4894 11.0108 14.6209 10.9944C14.6867 10.9862 14.7443 10.9122 14.7361 10.8464C14.5799 10.6655 15.6736 9.79415 15.9449 9.82709C16.0847 9.87645 16.1423 9.80246 16.1341 9.73668C15.9039 9.49819 16.7839 8.51993 17.3759 8.44605C17.4417 8.43784 17.565 8.35564 17.5568 8.28986C17.5486 8.22409 17.6719 8.14189 17.8117 8.19125C17.9433 8.17483 18.0748 8.15841 18.1324 8.08443C18.1817 7.94466 19.0697 8.10105 19.2999 8.33954C19.3081 8.40532 19.3739 8.39711 19.4396 8.38891C19.7685 8.34786 20.4511 7.92866 20.6074 7.57514C20.6649 7.50116 20.9774 7.32855 21.2981 7.22173C21.553 7.12311 21.8655 6.95051 21.8573 6.88473C21.9066 6.74496 22.104 6.72034 22.2355 6.70392C22.4329 6.67929 22.6302 6.65466 22.6466 6.78622C22.6548 6.852 22.7206 6.84379 22.8522 6.82737C23.0495 6.80275 23.3044 6.70413 23.362 6.63014C23.4195 6.55615 23.4853 6.54795 23.5511 6.53974C23.88 6.49869 24.5377 6.95104 24.4389 7.23057C24.3896 7.37034 24.4636 7.42791 24.5951 7.41149C24.7925 7.38686 24.965 8.23378 24.7101 8.3324C24.6525 8.40639 24.9156 8.37355 25.3761 8.31609C26.2312 8.20937 26.5683 8.2341 26.7245 8.41502C26.7409 8.54658 26.8725 8.53016 27.004 8.51374C27.2589 8.41512 27.933 8.99903 27.9823 9.39371C28.0069 9.59104 28.0973 9.78017 28.2289 9.76375C28.2946 9.75554 28.2864 9.68976 28.344 9.61578C28.3852 9.41023 28.5167 9.39381 28.8456 9.35277C28.9114 9.34456 28.9772 9.33635 29.0429 9.32814C29.1745 9.31172 29.3061 9.2953 29.3718 9.28709C29.3554 9.15554 29.4952 9.2049 29.5692 9.26247C29.7171 9.37761 29.7829 9.3694 29.7665 9.23784C29.7583 9.17206 29.8159 9.09807 29.9474 9.08165C30.079 9.06524 30.2845 9.10639 30.4325 9.22153C30.5887 9.40245 30.7285 9.45181 30.7202 9.38603C30.8354 9.23805 31.2135 9.59168 31.4026 10.0357C31.6738 10.6031 31.9697 10.8334 32.2328 10.8005C32.2986 10.7923 32.4302 10.7759 32.4878 10.7019C32.7344 10.5375 32.9976 10.5047 33.2607 10.4719C33.5238 10.439 33.6471 10.3568 33.6307 10.2253C33.6061 10.0279 33.6061 10.0279 34.9135 9.79797C36.1633 9.642 36.7141 9.77366 36.788 10.3657C36.8208 10.6288 36.903 10.7521 37.2319 10.7111C37.569 10.7358 37.6512 10.8592 37.6675 11.5252C37.6922 11.7225 37.7744 11.8459 37.8484 11.9034C37.9881 11.9528 37.8976 12.2981 37.7003 12.3227C37.5687 12.3391 37.5112 12.4131 37.5194 12.4789C37.5358 12.6105 37.5358 12.6105 37.6673 12.594C37.7989 12.5776 38.0456 12.4132 38.4732 12.0927C38.835 11.7803 39.2133 11.5995 39.2791 11.5913C39.4188 11.6406 39.4764 11.5666 39.4682 11.5009C39.4354 11.2377 39.8054 10.9912 40.2001 10.9419C40.2659 10.9337 40.3974 10.9173 40.4714 10.9748C40.6852 11.0818 40.677 11.016 40.6523 10.8187C40.6195 10.5555 41.1705 10.1528 41.5651 10.1035C41.6309 10.0953 41.6967 10.0871 41.7707 10.1447C41.9022 10.1282 41.968 10.12 41.9598 10.0543C41.9434 9.9227 42.1325 9.83229 42.3299 9.80766C42.593 9.77483 42.8643 9.80777 43.0123 9.92291C43.1685 10.1038 43.2342 10.0956 43.3494 9.94764C43.4069 9.87366 43.4069 9.87366 43.4727 9.86545C43.6043 9.84903 43.6783 9.9066 43.892 10.0135C44.1058 10.1205 44.2455 10.1698 44.3113 10.1616C44.4429 10.1452 44.5662 10.063 44.8129 9.8986C45.1254 9.726 45.3803 9.62738 45.4543 9.68495C45.5201 9.67674 45.5119 9.61097 45.5037 9.54519C45.4872 9.41363 45.6106 9.33143 45.8079 9.3068C45.9395 9.29039 46.1286 9.19998 46.1862 9.12599C46.3013 8.97802 46.9921 8.6246 47.3209 8.58355C47.3867 8.57534 47.4607 8.63292 47.4607 8.63292C47.5265 8.62471 47.6581 8.60829 47.6498 8.54251C47.7074 8.46852 47.839 8.4521 47.9047 8.44389C47.9787 8.50146 48.1021 8.41927 48.1597 8.34528C48.1514 8.2795 48.2172 8.27129 48.3488 8.25487C48.6777 8.21383 49.5163 8.50999 49.5491 8.77311C49.5655 8.90466 49.7217 9.08558 49.8779 9.2665C50.1163 9.57077 50.1985 9.69412 50.0916 9.90787C50.0422 10.0476 49.9928 10.1874 49.9928 10.1874C50.001 10.2532 50.3957 10.2039 50.9219 10.1383C52.0402 9.9987 52.739 10.2455 52.9445 10.8211C53.0431 11.076 53.1253 11.1994 53.2568 11.1829C53.3226 11.1747 53.4377 11.0268 53.6187 10.8706C53.7338 10.7226 53.9147 10.5664 53.9805 10.5582C54.1121 10.5418 54.1778 10.5336 54.1696 10.4678C54.1614 10.402 54.3999 10.1718 54.7042 9.93346C55.0167 9.76085 55.3209 9.52247 55.4361 9.37449C55.4936 9.30051 55.617 9.21831 55.7485 9.20189C55.8801 9.18547 56.061 9.02929 56.1762 8.88131C56.2913 8.73334 56.538 8.56894 56.6695 8.55252C56.7353 8.54432 56.9245 8.45391 56.9162 8.38813C56.9738 8.31414 57.1054 8.29772 57.1712 8.28951C57.3685 8.26489 57.5576 8.17448 57.7467 8.08408C57.8701 8.00188 57.9934 7.91968 58.125 7.90326C58.125 7.90326 58.1908 7.89505 58.2648 7.95262C58.4127 8.06776 58.4785 8.05955 58.5361 7.98557C58.5279 7.91979 58.5855 7.8458 58.6512 7.83759C58.9801 7.79655 59.6954 8.17491 59.6049 8.52022C59.6213 8.65178 59.6295 8.71755 59.761 8.70114C60.2215 8.64367 60.4104 9.62215 59.95 9.67961C59.8184 9.69603 59.8924 9.7536 60.0404 9.86874C60.2541 9.97567 60.2623 10.0414 60.1554 10.2552C59.9415 10.6827 59.9332 11.1514 60.0648 11.135C60.1306 11.1267 60.1881 11.0528 60.2375 10.913C60.4678 10.617 61.0845 10.2061 61.4134 10.165C61.545 10.1486 61.7999 10.05 61.915 9.902C62.0959 9.74582 62.3508 9.6472 62.614 9.61436C63.2717 9.53227 64.0446 9.83665 63.9623 10.2477C63.9211 10.4533 63.9951 10.5109 64.2582 10.478C64.5871 10.437 64.8502 10.4041 65.0476 10.3795C65.5738 10.3138 65.6971 10.2316 65.6889 10.1659C65.6725 10.0343 65.8699 10.0097 66.133 9.97684C66.3961 9.944 66.725 9.90296 66.9387 10.0099C67.4238 10.1498 68.0815 10.6021 68.1061 10.7994C68.1225 10.931 68.2047 11.0544 68.3363 11.0379C68.4021 11.0297 68.4596 10.9557 68.4514 10.89C68.5419 10.5446 69.0765 10.0103 69.2738 9.98569C69.3396 9.97748 69.4548 9.8295 69.5123 9.75551C69.4959 9.62395 69.5535 9.54997 69.6193 9.54176C69.685 9.53355 69.9235 9.30337 70.0962 9.08141C70.4499 8.70326 70.8857 8.44846 71.1488 8.41562C71.2804 8.39921 71.3461 8.391 71.4201 8.44857C71.5023 8.57192 71.6421 8.62128 71.7079 8.61307C71.8394 8.59665 71.9628 8.51445 72.0697 8.3007C72.1191 8.16093 72.1684 8.02116 72.2342 8.01296C72.3 8.00475 72.448 8.11989 72.6781 8.35837C73.1221 8.70379 73.3111 9.14783 73.0562 9.24644C72.9904 9.25465 72.9574 9.52598 72.9821 9.72331C73.0149 9.98643 72.9244 10.3317 72.8175 10.5455C72.7105 10.7592 72.6694 10.9648 72.6776 11.0306C72.6858 11.0964 72.5213 11.3841 72.1183 11.902C72.0032 12.05 71.8962 12.2637 71.8962 12.2637C71.9209 12.4611 71.4933 12.7817 71.2959 12.8063C71.0986 12.8309 71.1068 12.8967 71.1232 13.0283C71.2958 13.3407 70.6543 14.0888 70.2432 14.0065C70.0377 13.9654 70.0377 13.9654 70.1939 14.1463C70.3419 14.2614 70.2843 14.3354 70.054 14.6314C69.8731 14.7875 69.8237 14.9273 69.8237 14.9273C69.8895 14.9191 69.8977 14.9849 69.7908 15.1986C69.7414 15.3384 69.6181 15.4206 69.5523 15.4288C69.4207 15.4452 69.3138 15.659 69.2645 15.7987C69.2233 16.0043 69.0424 16.1605 68.9108 16.1769C68.7793 16.1933 68.6641 16.3413 68.6148 16.4811C68.59 16.8182 67.5374 18.0184 67.1509 18.1334C66.9618 18.2238 66.8466 18.3718 66.8548 18.4376C66.8713 18.5691 66.7561 18.7171 66.6328 18.7993C66.5094 18.8815 66.0982 19.3336 65.7528 19.7776C65.4156 20.2873 65.0702 20.7312 65.0208 20.871C64.9632 20.945 64.7248 21.1751 64.552 21.3971C64.4451 21.6109 64.1984 21.7753 64.1326 21.7835C64.0011 21.7999 63.9435 21.8739 63.9517 21.9396C63.9599 22.0054 63.7708 22.0958 63.5817 22.1862C63.1952 22.3013 62.4882 21.9887 62.5869 21.7092C62.6445 21.6352 62.4965 21.52 62.3485 21.4049C62.1348 21.298 62.0526 21.1746 62.1019 21.0348C62.1513 20.8951 62.2006 20.7553 62.1842 20.6237C62.1678 20.4922 62.2254 20.4182 62.2254 20.4182C62.2172 20.3524 62.2829 20.3442 62.2747 20.2784C62.3077 20.0071 62.5545 19.3083 62.7848 19.0123C62.8999 18.8643 62.941 18.6588 62.9328 18.593C62.9164 18.4615 63.0316 18.3135 63.1549 18.2313C63.2783 18.1491 63.3934 18.0011 63.451 17.9271C63.4345 17.7956 63.6566 17.4338 63.8787 17.0721C64.0925 16.6446 64.3146 16.2829 64.2982 16.1513C64.29 16.0855 64.3394 15.9458 64.4051 15.9376C64.6025 15.9129 64.8903 15.543 64.8657 15.3457C64.8657 15.3457 65.2605 14.762 65.7128 14.1043C66.2392 13.5042 66.5682 12.9287 66.5024 12.9369C66.4942 12.8711 66.4777 12.7396 66.5271 12.5998C66.634 12.386 66.4121 12.2133 66.0832 12.2544C66.0174 12.2626 65.8858 12.279 65.8283 12.353C65.7625 12.3612 65.5652 12.3858 65.4912 12.3282C65.3514 12.2789 65.2198 12.2953 65.1541 12.3035C65.0883 12.3117 65.0883 12.3117 65.2363 12.4269C65.3925 12.6078 65.0224 12.8544 64.7593 12.8872C64.6935 12.8954 64.6277 12.9036 64.562 12.9118C64.4222 12.8625 64.3646 12.9365 64.455 13.1256C64.5454 13.3147 64.5536 13.3805 64.3563 13.4051C64.2905 13.4133 64.1672 13.4955 64.1754 13.5613C64.1754 13.5613 64.1342 13.7669 63.9615 13.9888C63.7395 14.3506 63.5667 14.5725 63.3117 15.2056C63.1554 15.5591 62.9745 15.7153 62.843 15.7317C62.7114 15.7481 62.6374 15.6905 62.4976 15.6412C62.2181 15.5425 62.2181 15.5425 62.4483 15.7809C62.7525 16.077 62.7277 16.4141 62.2425 16.8087C62.0616 16.9649 61.9465 17.1128 61.9629 17.2444C61.9711 17.3102 61.856 17.4582 61.7326 17.5403C61.6011 17.5568 61.4859 17.7047 61.4941 17.7705C61.5023 17.8363 61.4448 17.9103 61.3132 17.9267C61.2474 17.9349 61.1241 18.0171 61.1405 18.1487C61.1898 18.5433 60.614 19.2832 60.2194 19.3325C59.8905 19.3735 59.7671 19.4557 59.7918 19.6531C59.8082 19.7846 59.7588 19.9244 59.7012 19.9984C59.6355 20.0066 59.6519 20.1381 59.6601 20.2039C59.7423 20.3273 59.4544 20.6972 59.0432 21.1493C58.6978 21.5933 58.2291 22.1194 57.9988 22.4153C57.7603 22.6455 57.5218 22.8757 57.3902 22.8921C57.1929 22.9167 56.9051 23.2867 56.979 23.3442C57.127 23.4594 56.4034 24.0841 56.206 24.1088C56.0745 24.1252 56.0087 24.1334 56.0251 24.2649C56.0333 24.3307 55.9017 24.3471 55.762 24.2978C55.6304 24.3142 55.4907 24.2648 55.4249 24.273C55.1536 24.2401 54.9316 24.0674 54.9809 23.9276C55.0303 23.7879 54.9563 23.7303 54.759 23.7549C54.6932 23.7631 54.6274 23.7713 54.6274 23.7713C54.4959 23.7878 54.4877 23.722 54.4548 23.4589C54.4057 22.5297 54.4632 22.4558 54.8251 22.1434C55.0718 21.979 55.1787 21.7652 55.1541 21.5679C55.1377 21.4363 55.2446 21.2226 55.4255 21.0664C55.5489 20.9842 55.7298 20.828 55.7216 20.7622C55.7134 20.6965 55.8779 20.4087 56.0506 20.1868C56.2809 19.8908 56.4454 19.6031 56.4289 19.4715C56.4043 19.2742 56.9224 18.6083 57.1198 18.5836C57.1856 18.5754 57.2431 18.5014 57.2349 18.4357C57.2103 18.2383 57.9093 17.4163 58.1067 17.3916C58.1724 17.3834 58.23 17.3094 58.2136 17.1779C58.2054 17.1121 58.2548 16.9723 58.3863 16.9559C58.5179 16.9395 58.5754 16.8655 58.5672 16.7997C58.5508 16.6682 59.6446 15.2624 59.7762 15.246C59.842 15.2378 59.8995 15.1638 59.8831 15.0322C59.8749 14.9664 59.9243 14.8267 59.9901 14.8185C60.1216 14.8021 60.3025 14.6459 60.9934 13.758C61.2894 13.4538 61.5937 13.2155 61.7253 13.199C61.8568 13.1826 61.9802 13.1004 61.9637 12.9689C61.9555 12.9031 62.0543 12.6236 62.227 12.4016C62.3915 12.1139 62.4326 11.9083 62.3011 11.9247C62.2353 11.9329 62.1777 12.0069 62.0626 12.1549C62.0132 12.2947 61.6432 12.5413 61.2731 12.7879C60.9031 13.0344 60.5412 13.3468 60.5494 13.4126C60.5001 13.5524 60.311 13.6428 60.1136 13.6674C59.9821 13.6838 59.8587 13.766 59.9245 13.7578C60.0725 13.8729 59.7846 14.2429 59.4557 14.2839C59.2584 14.3086 59.135 14.3907 59.1679 14.6539C59.1185 14.7936 59.0034 14.9416 58.9376 14.9498C58.7403 14.9744 57.7287 15.9691 57.63 16.2487C57.5889 16.4542 57.2846 16.6926 56.9803 16.931C56.6679 17.1036 56.3718 17.4077 56.3142 17.4817C56.3471 17.7448 54.9901 19.1834 54.9243 19.1917C54.7928 19.2081 54.6776 19.356 54.6365 19.5616C54.5953 19.7671 54.546 19.9069 54.4802 19.9151C54.4144 19.9233 54.1184 20.2275 53.7729 20.6714C53.4851 21.0413 53.0327 21.699 52.8025 21.995C52.5064 22.2991 52.3501 22.6527 52.3583 22.7184C52.3747 22.85 52.309 22.8582 52.2432 22.8664C52.1774 22.8746 52.0047 23.0966 51.8238 23.2528C51.6511 23.4747 51.4701 23.6309 51.4044 23.6391C51.3386 23.6473 51.281 23.7213 51.2974 23.8529C51.3221 24.0502 50.3927 25.1683 50.1954 25.1929C49.9981 25.2175 49.7102 25.5875 49.7348 25.7848C49.7513 25.9163 49.5457 25.8752 48.7893 25.7024C48.0329 25.5296 48.4856 23.2686 49.423 22.7508C49.4888 22.7425 49.7191 22.4466 49.8836 22.1588C50.5086 21.2792 52.0054 19.3555 52.1946 19.2651C52.3179 19.1829 52.3755 19.1089 52.3591 18.9774C52.3509 18.9116 52.7538 18.3937 53.1486 17.81C53.897 16.8481 54.703 15.8123 55.3116 14.8011C55.5995 14.4312 55.8298 14.1352 55.8216 14.0694C55.8134 14.0036 56.1588 13.5597 56.496 13.05C56.899 12.5321 57.1704 12.0306 57.1622 11.9648C57.1458 11.8333 57.1951 11.6935 57.3185 11.6113C57.8037 11.2167 57.7956 10.6165 57.5325 10.6493C57.4667 10.6576 57.3351 10.674 57.2776 10.748C57.0884 10.8384 56.8417 11.0028 56.7759 11.011C56.6444 11.0274 56.5868 11.1014 56.595 11.1672C56.6032 11.2329 56.4799 11.3151 56.4141 11.3233C56.2826 11.3398 56.225 11.4137 56.1674 11.4877C56.1181 11.6275 55.9947 11.7097 55.8631 11.7261C55.7316 11.7425 55.6082 11.8247 55.6164 11.8905C55.6247 11.9563 55.5671 12.0303 55.5013 12.0385C55.3697 12.0549 55.1313 12.2851 54.8928 12.5153C54.7201 12.7372 54.4898 13.0332 54.3664 13.1154C54.3089 13.1894 54.1855 13.2715 54.1197 13.2798C54.054 13.288 53.9306 13.3702 53.8237 13.5839C53.7085 13.7319 53.5852 13.8141 53.4536 13.8305C53.3879 13.8387 53.1576 14.1347 52.8615 14.4388C52.6394 14.8006 52.3598 15.2363 52.1789 15.3925C52.0062 15.6144 51.8335 15.8364 51.8499 15.968C51.8581 16.0337 51.8663 16.0995 51.8005 16.1077C51.7347 16.1159 51.6196 16.2639 51.6442 16.4612C51.5949 16.601 51.3317 17.1683 50.9862 17.6122C50.649 18.1219 50.3858 18.6892 50.3282 18.7632C50.3447 18.8947 50.1637 19.0509 50.0404 19.1331C49.9088 19.1495 49.8595 19.2893 49.8677 19.3551C49.8759 19.4209 49.6538 19.7826 49.3578 20.0868C49.0699 20.4567 48.8396 20.7527 48.8478 20.8184C48.856 20.8842 48.634 21.2459 48.4037 21.5419C48.1158 21.9118 47.8938 22.2736 47.8938 22.2736C47.902 22.3393 47.7868 22.4873 47.5977 22.5777C47.4826 22.7257 47.3017 22.8819 47.3099 22.9477C47.3181 23.0134 47.2111 23.2272 47.0878 23.3094C46.9069 23.4656 46.726 23.6218 46.6766 23.7615C46.5533 23.8437 46.3805 24.0657 46.1914 24.1561C46.0681 24.2383 45.9529 24.3863 46.0187 24.3781C46.2489 24.6166 44.6864 26.014 44.2259 26.0715C43.305 26.1864 42.5816 25.7423 42.9352 25.3641C43.1079 25.1421 43.1244 24.7393 42.9189 24.6981C42.7133 24.657 43.3139 23.0455 43.6099 22.7414C43.7991 22.651 43.906 22.4372 43.8978 22.3714C43.8814 22.2399 44.7779 20.8587 44.9506 20.6368C45.0575 20.423 45.1726 20.275 45.3042 20.2586C45.37 20.2504 45.4275 20.1764 45.4193 20.1106C45.3865 19.8475 46.8833 17.9238 47.1464 17.891C47.278 17.8746 47.3274 17.7348 47.3191 17.669C47.2863 17.4059 47.9689 16.4523 48.1663 16.4277C48.232 16.4195 48.3554 16.3373 48.3965 16.1317C48.5693 15.9097 48.5693 15.9097 48.8324 15.8769C49.1037 15.9099 49.1613 15.8359 49.0791 15.7125C48.9887 15.5234 49.5562 14.7177 49.7535 14.6931C49.9508 14.6685 51.0282 13.1311 51.0036 12.9338C50.9872 12.8023 51.0283 12.5967 51.0859 12.5227C51.2586 12.3008 50.5021 12.6624 49.762 13.1556C49.5153 13.32 49.2028 13.4926 49.1371 13.5008C49.0713 13.509 48.9561 13.657 48.9068 13.7967C48.7587 14.216 48.1583 15.293 47.7553 15.8109C47.5826 16.0329 47.1878 16.6166 46.8506 17.1263C46.5134 17.636 46.1104 18.1539 45.9377 18.3759C45.765 18.5978 45.5429 18.9596 45.5017 19.1651C45.3866 19.3131 45.2797 19.5268 45.1481 19.5433C45.0166 19.5597 44.8932 19.6419 44.8521 19.8474C44.8685 19.979 44.5724 20.2831 44.3339 20.5133C44.0379 20.8175 43.7994 21.0476 43.8734 21.1052C43.9556 21.2286 43.7664 21.319 43.5691 21.3436C43.5033 21.3518 43.3718 21.3682 43.2978 21.3107C43.0758 21.1379 43.0758 21.1379 43.232 21.3189C43.4622 21.5574 43.3141 21.9767 42.6644 22.659C42.3684 22.9631 42.0147 23.3413 41.842 23.5632C41.6035 23.7934 41.4308 24.0154 41.2993 24.0318C41.2335 24.04 41.1759 24.114 41.1348 24.3195C41.0854 24.4593 40.9785 24.6731 40.7893 24.7635C40.6002 24.8539 40.4769 24.9361 40.4851 25.0018C40.4933 25.0676 40.4357 25.1416 40.2466 25.232C40.1232 25.3142 40.0657 25.3882 40.0821 25.5198C40.0903 25.5855 39.9094 25.7417 39.786 25.8239C39.5969 25.9143 39.4735 25.9965 39.49 26.1281C39.5064 26.2596 39.3173 26.35 39.1199 26.3747C39.0541 26.3829 38.9226 26.3993 38.8486 26.3417C38.7664 26.2184 38.7088 26.2924 38.7992 26.4815C38.8321 26.7446 38.7745 26.8186 38.5854 26.909C38.4538 26.9254 38.2729 27.0816 38.2153 27.1556C38.1002 27.3036 37.9768 27.3858 37.7795 27.4104C37.5822 27.435 37.3684 27.3281 37.1464 27.1554C36.9245 26.9827 36.7189 26.9415 36.6532 26.9497C36.4722 27.1059 36.1024 26.2836 36.2587 25.9301C36.415 25.5766 36.2588 25.3957 35.9957 25.4285C35.8641 25.4449 35.675 25.5353 35.4941 25.6915C35.3789 25.8395 35.2474 25.8559 35.1816 25.8641C35.0501 25.8805 34.9843 25.8887 34.9103 25.8312C34.7705 25.7818 34.6307 25.7325 34.5732 25.8064C34.5732 25.8064 34.4334 25.7571 34.2854 25.6419C33.6278 25.1896 33.8007 23.8987 34.582 22.6656C34.8041 22.3038 34.9604 21.9503 34.944 21.8188C34.9275 21.6872 35.2977 20.9062 35.4786 20.75C35.5362 20.676 35.5856 20.5362 35.5691 20.4047C35.6267 20.3307 35.7418 20.1827 35.8734 20.1663C35.9392 20.1581 35.9967 20.0841 35.9885 20.0183C35.9721 19.8868 36.0873 19.7388 36.2024 19.5908C36.4409 19.3606 36.7699 18.7852 36.7617 18.7194C36.7453 18.5878 37.2634 17.9219 37.395 17.9055C37.4607 17.8973 37.5841 17.8151 37.5594 17.6178C37.6088 17.478 37.724 17.33 37.8555 17.3136C37.9789 17.2314 38.094 17.0834 38.1434 16.9437C38.1927 16.8039 38.6451 16.1462 39.229 15.4721C39.3441 15.3241 40.8491 13.4662 41.0465 13.4416C41.178 13.4252 41.2438 13.417 41.1616 13.2936C41.0876 13.2361 41.1534 13.2278 41.285 13.2114C41.3507 13.2032 41.4659 13.0552 41.5235 12.9813C41.507 12.8497 41.688 12.6935 41.9429 12.5949C42.1238 12.4387 42.2389 12.2907 42.2225 12.1592C42.2061 12.0276 42.2061 12.0276 42.1567 12.1674C42.1649 12.2332 41.9758 12.3236 41.8442 12.34C41.7127 12.3564 41.4578 12.455 41.3426 12.603C41.2193 12.6852 41.0384 12.8414 40.9068 12.8578C40.7753 12.8742 40.6519 12.9564 40.6601 13.0222C40.6108 13.162 40.3065 13.4003 39.994 13.5729C39.6815 13.7456 39.3691 13.9182 39.3773 13.9839C39.3937 14.1155 39.2785 14.2635 39.0236 14.3621C38.8427 14.5183 38.7276 14.6662 38.7276 14.6662C38.7358 14.732 38.6124 14.8142 38.4151 14.8388C38.2178 14.8635 38.0944 14.9457 38.0451 15.0854C38.0615 15.217 37.8888 15.439 37.7079 15.5951C37.5187 15.6856 37.1651 16.0637 37.0088 16.4172C36.5071 17.2147 36.4495 17.2887 36.1782 17.2557C36.1124 17.2639 36.0384 17.2064 36.0384 17.2064C35.9069 17.2228 35.9315 17.4201 36.1453 17.527C36.2275 17.6504 36.2357 17.7162 36.1287 17.9299C36.0136 18.0779 35.8985 18.2259 35.9067 18.2917C35.9231 18.4232 35.8161 18.637 35.7092 18.8507C35.5365 19.0727 35.4296 19.2864 35.4296 19.2864C35.4378 19.3522 35.2651 19.5742 35.0924 19.7961C34.9197 20.0181 34.7552 20.3059 34.7634 20.3716C34.7798 20.5032 34.0972 21.4568 33.982 21.6048C33.8751 21.8186 33.6366 22.0487 33.5133 22.1309C33.3241 22.2213 33.2748 22.3611 33.2912 22.4927C33.3734 22.616 32.921 23.2737 32.7237 23.2983C32.5921 23.3147 32.6003 23.3805 32.6086 23.4463C32.6414 23.7094 29.2613 27.6718 28.9982 27.7047C28.9324 27.7129 28.883 27.8526 28.8912 27.9184C28.9159 28.1157 28.1182 28.6829 27.9702 28.5678C27.8962 28.5102 27.7729 28.5924 27.7811 28.6582C27.7317 28.7979 27.6002 28.8144 27.4686 28.8308C26.9424 28.8965 26.1614 28.5263 26.0957 28.0001C26.0875 27.9343 26.0135 27.8767 25.9477 27.8849C25.7504 27.9096 25.8903 27.4245 26.1863 27.1203C26.4248 26.8901 26.4166 26.8244 26.1946 26.6517C25.9645 26.4132 26.3182 25.5006 26.6471 25.4595C26.7129 25.4513 26.7704 25.3773 26.6964 25.3198C26.6142 25.1964 26.6718 25.1224 26.7294 25.0484C26.8527 24.9662 26.9103 24.8923 26.9021 24.8265C26.8775 24.6291 27.7492 23.5851 27.9959 23.4207C28.1275 23.4043 28.2344 23.1905 28.2756 22.985C28.4154 22.4999 30.8992 19.3842 31.1623 19.3514C31.3596 19.3267 31.4172 19.2528 31.3925 19.0554C31.3597 18.7923 31.5324 18.5703 32.0422 18.3731C32.2314 18.2827 32.3465 18.1347 32.3383 18.0689C32.3137 17.8716 33.539 16.4494 33.7364 16.4248C33.7364 16.4248 33.8597 16.3426 33.9091 16.2028C33.9667 16.1288 34.2134 15.9644 34.4683 15.8658C34.7232 15.7672 34.9041 15.611 34.9535 15.4713C34.937 15.3397 35.0933 14.9862 35.2578 14.6984C35.4223 14.4107 35.521 14.1312 35.5046 13.9996C35.4964 13.9338 35.5458 13.7941 35.6034 13.7201C35.5951 13.6543 35.6527 13.5803 35.6363 13.4488C35.6939 13.3748 35.7268 13.1034 35.8255 12.8239C35.9242 12.5444 35.8914 12.2813 35.8256 12.2895C35.7599 12.2977 35.6859 12.2401 35.6694 12.1085C35.5708 11.8536 35.2913 11.7549 35.094 11.7795C35.0282 11.7878 34.8966 11.8042 34.8391 11.8782C34.7239 12.0261 34.6006 12.1083 34.469 12.1248C34.0743 12.174 32.5613 12.8973 32.5859 13.0946C32.5942 13.1604 32.4708 13.2426 32.3392 13.259C32.2077 13.2754 32.0843 13.3576 32.035 13.4974C32.0514 13.6289 31.928 13.7111 31.8623 13.7193C31.6649 13.744 31.3853 14.1797 31.3523 14.451C31.3606 14.5168 31.2454 14.6648 31.1878 14.7387C31.0727 14.8867 31.0233 15.0265 31.0398 15.158C30.9904 15.2978 30.8753 15.4458 30.6861 15.5362C30.4888 15.5608 30.4312 15.6348 30.5792 15.75C30.8012 15.9227 30.4558 16.3666 30.1844 16.3336C30.0447 16.2843 29.9871 16.3583 30.0857 16.6132C30.2007 16.9996 29.806 17.5833 29.4113 17.6326C29.3455 17.6408 29.2961 17.7806 29.3783 17.9039C29.403 18.1013 29.3536 18.241 29.1151 18.4712C28.9342 18.6274 28.8191 18.7754 28.8273 18.8411C28.8355 18.9069 28.7286 19.1207 28.6134 19.2686C28.4407 19.4906 28.0953 19.9345 27.8732 20.2963C27.6511 20.658 27.4209 20.9539 27.3551 20.9622C27.2893 20.9704 27.166 21.0526 27.0508 21.2005C26.9932 21.2745 26.8041 21.3649 26.6068 21.3896C26.467 21.3402 26.4012 21.3484 26.4752 21.406C26.763 21.5705 26.3599 22.6228 26.031 22.6639C25.8994 22.6803 25.7843 22.8283 25.7925 22.8941C25.8089 23.0256 25.0605 23.9875 24.3039 24.8835C24.0654 25.1137 23.8927 25.3357 23.9009 25.4014C23.9091 25.4672 23.8515 25.5412 23.7858 25.5494C23.6542 25.5658 23.5966 25.6398 23.6048 25.7056C23.613 25.7714 23.4321 25.9276 23.1854 26.092C22.9963 26.1824 22.8154 26.3385 22.8236 26.4043C22.84 26.5359 22.4288 26.988 22.2315 27.0126C22.1657 27.0209 22.1081 27.0948 22.0588 27.2346C22.0176 27.4402 20.965 28.1059 20.7595 28.0648C20.6279 28.0812 20.4964 28.0976 20.5128 28.2292C20.4634 28.369 20.3401 28.4512 20.2085 28.4676C19.8796 28.5086 19.3781 28.2372 18.9836 27.752C18.811 27.4395 18.6712 27.3902 18.5397 27.4066C18.4163 27.4888 18.293 27.571 18.1614 27.5874C18.0956 27.5956 18.038 27.6696 18.0545 27.8011C18.0709 27.9327 17.964 28.1465 17.7748 28.2369C17.5939 28.393 17.3472 28.5574 17.2978 28.6972C17.1827 28.8452 17.0018 29.0014 16.8702 29.0178C16.6729 29.0424 16.5495 29.1246 16.492 29.1986C16.4426 29.3384 16.2535 29.4288 15.9904 29.4616C15.793 29.4862 15.5381 29.5849 15.4806 29.6588C15.4312 29.7986 15.3654 29.8068 15.2996 29.815C15.1681 29.8314 15.0201 29.7163 14.9379 29.593C14.8475 29.4038 14.7817 29.412 14.7242 29.486C14.7324 29.5518 14.6666 29.56 14.6008 29.5682C14.4693 29.5846 14.2473 29.4119 14.2145 29.1488C14.2062 29.083 14.1158 28.8939 14.0501 28.9021ZM42.0486 18.26C42.1144 18.2518 42.1062 18.186 42.1062 18.186C42.098 18.1202 42.098 18.1202 42.0322 18.1284C41.9664 18.1366 41.9664 18.1366 41.9746 18.2024C41.9746 18.2024 41.9828 18.2682 42.0486 18.26ZM69.3391 12.6497C69.2733 12.6579 69.2815 12.7237 69.2815 12.7237C69.2897 12.7894 69.2897 12.7894 69.3555 12.7812C69.3555 12.7812 69.4213 12.773 69.4131 12.7072L69.3391 12.6497ZM59.4892 11.3404C59.4316 11.4144 59.4316 11.4144 59.629 11.3898C59.7605 11.3733 59.8263 11.3651 59.7523 11.3076C59.7523 11.3076 59.6207 11.324 59.4892 11.3404ZM43.34 15.7607C43.2166 15.8429 43.1673 15.9827 43.1755 16.0485C43.2495 16.106 43.3235 16.1636 43.3893 16.1554C43.455 16.1472 43.5126 16.0732 43.5702 15.9992C43.6277 15.9252 43.7511 15.843 43.8251 15.9006C43.8909 15.8924 44.0142 15.8102 44.0636 15.6704C44.1377 15.1935 44.3761 14.9634 44.7133 14.9881C44.9188 15.0293 44.9764 14.9553 44.9682 14.8895C44.8777 14.7004 45.3383 14.1085 45.8811 13.6399C46.1278 13.4755 46.4238 13.1713 46.539 13.0234C46.5883 12.8836 46.7774 12.7932 46.909 12.7768C47.0406 12.7604 47.5505 12.0287 47.5834 11.7574C47.5752 11.6916 47.6739 11.412 47.7891 11.2641C48.1181 10.6886 48.0688 10.2939 47.8057 10.3267C47.6741 10.3432 47.5508 10.4254 47.5014 10.5651C47.5096 10.6309 47.3945 10.7789 47.263 10.7953C47.1972 10.8035 47.1314 10.8117 47.1396 10.8775C47.1478 10.9433 46.9011 11.1077 46.6462 11.2063C46.3995 11.3707 46.1528 11.5351 46.161 11.6009C46.1692 11.6666 46.1035 11.6748 45.9719 11.6913C45.9061 11.6995 45.791 11.8474 45.7334 11.9214C45.684 12.0612 45.4949 12.1516 45.3058 12.242C44.9769 12.2831 44.8618 12.431 44.7795 12.8421C44.6807 13.1217 44.4422 13.3518 44.3847 13.4258C44.1873 13.4504 44.1462 13.656 44.179 13.9191C44.2201 14.248 44.0638 14.6015 43.8007 14.6344C43.8007 14.6344 43.7349 14.6426 43.6609 14.585C43.5951 14.5932 43.6033 14.659 43.7513 14.7741C43.9075 14.955 43.9075 14.955 43.7266 15.1112C43.6032 15.1934 43.5539 15.3332 43.5621 15.399C43.5785 15.5305 43.4633 15.6785 43.34 15.7607ZM27.743 13.365C27.3729 14.146 27.2412 14.6969 27.5043 14.664C27.5701 14.6558 27.6277 14.5818 27.6113 14.4503C27.6606 14.3105 27.784 14.2283 27.8498 14.2201C27.9813 14.2037 28.0389 14.1297 28.0307 14.0639C28.0225 13.9981 28.1458 13.9159 28.2692 13.8337C28.3925 13.7515 28.6392 13.5871 28.8119 13.3652C28.9928 13.209 29.1738 13.0528 29.3053 13.0364C29.3711 13.0282 29.4944 12.946 29.4862 12.8802C29.478 12.8144 29.5356 12.7404 29.6014 12.7322C29.8645 12.6994 30.1936 11.5895 29.9716 11.4168C29.8976 11.3592 29.7661 11.3756 29.6345 11.392C29.1083 11.4577 28.0393 11.9919 28.0886 12.3866C28.105 12.5181 27.9569 12.9375 27.743 13.365ZM7.41523 26.5904L7.4728 26.5164C7.46459 26.4506 7.39882 26.4588 7.39882 26.4588C7.33304 26.467 7.33304 26.467 7.34125 26.5328C7.34125 26.5328 7.34945 26.5986 7.41523 26.5904ZM11.37 27.2325C11.37 27.2325 11.4357 27.2243 11.4275 27.1585L11.3535 27.1009C11.2878 27.1091 11.296 27.1749 11.296 27.1749C11.3042 27.2407 11.3042 27.2407 11.37 27.2325ZM22.7419 23.6088C22.8077 23.6006 22.8077 23.6006 22.7995 23.5348C22.7995 23.5348 22.7913 23.469 22.7255 23.4772C22.6597 23.4854 22.6679 23.5512 22.6679 23.5512C22.6762 23.617 22.6762 23.617 22.7419 23.6088ZM23.441 22.7867L23.4985 22.7127C23.4903 22.6469 23.4246 22.6551 23.4246 22.6551C23.3588 22.6634 23.3588 22.6634 23.367 22.7291C23.367 22.7291 23.3752 22.7949 23.441 22.7867ZM23.5891 22.3674C23.6548 22.3592 23.6548 22.3592 23.6466 22.2934C23.6384 22.2276 23.6384 22.2276 23.5726 22.2358C23.5726 22.2358 23.5069 22.2441 23.5151 22.3098C23.5233 22.3756 23.5891 22.3674 23.5891 22.3674ZM24.0825 22.0386C24.2798 22.014 24.4031 21.9318 24.4031 21.9318C24.3785 21.7344 24.2963 21.6111 24.1648 21.6275C24.099 21.6357 24.0332 21.6439 23.9756 21.7179C23.6878 22.0879 23.6878 22.0879 24.0825 22.0386ZM24.3293 21.3398C24.395 21.3316 24.4608 21.3234 24.3868 21.2658C24.3786 21.2 24.2471 21.2164 24.2553 21.2822C24.1977 21.3562 24.2635 21.348 24.3293 21.3398ZM24.9954 20.789C25.1763 20.6328 24.9214 20.7315 24.6747 20.8958C24.3704 21.1342 24.3704 21.1342 24.6829 20.9616C24.8144 20.9452 25.0036 20.8548 24.9954 20.789ZM25.4641 20.2629C25.5793 20.1149 25.5629 19.9834 25.5629 19.9834C25.4149 19.8682 25.0612 20.2464 25.0777 20.3779C25.0859 20.4437 25.1599 20.5013 25.2256 20.4931C25.2914 20.4849 25.4148 20.4027 25.4641 20.2629ZM24.6512 14.8197C24.6594 14.8854 24.7252 14.8772 24.7252 14.8772C24.791 14.869 24.791 14.869 24.7828 14.8032C24.7746 14.7375 24.7746 14.7375 24.7088 14.7457C24.7088 14.7457 24.643 14.7539 24.6512 14.8197ZM26.3688 18.9475C26.4758 18.7338 26.4758 18.7338 26.2948 18.89C26.1221 19.1119 26.0646 19.1859 26.1961 19.1695C26.1961 19.1695 26.2537 19.0955 26.3688 18.9475ZM27.4215 17.7473C27.4873 17.7391 27.4873 17.7391 27.4791 17.6733C27.4791 17.6733 27.4709 17.6075 27.4051 17.6157C27.3393 17.624 27.3475 17.6897 27.3475 17.6897C27.3557 17.7555 27.3557 17.7555 27.4215 17.7473ZM26.9616 15.1326C26.904 15.2066 26.978 15.2641 27.0438 15.2559C27.1096 15.2477 27.1671 15.1737 27.1589 15.1079C27.1507 15.0422 27.1425 14.9764 27.0767 14.9846C27.0767 14.9846 27.0192 15.0586 26.9616 15.1326ZM24.2408 11.5307C23.9693 12.0322 23.994 12.2296 24.1913 12.2049C24.3886 12.1803 24.7011 12.0077 25.1205 11.6213C25.3508 11.3254 25.6633 11.1528 25.7291 11.1446C25.9264 11.12 26.3376 10.6678 26.313 10.4705C26.313 10.4705 26.239 10.4129 26.0416 10.4375C25.7785 10.4704 25.3921 10.5854 25.0138 10.7662C24.6931 10.873 24.4464 11.0374 24.4546 11.1032C24.4628 11.169 24.3559 11.3827 24.2408 11.5307ZM24.24 15.2718C24.2646 15.4691 23.1627 16.2747 22.8996 16.3075C22.6283 16.2746 22.5871 16.4801 22.8009 16.5871C23.0146 16.694 22.809 17.1873 22.6116 17.2119C22.4801 17.2283 22.4225 17.3023 22.3732 17.4421C22.3156 17.5161 22.2662 17.6558 22.1347 17.6723C22.0031 17.6887 21.9455 17.7627 21.9538 17.8284C21.9702 17.96 21.6905 18.3957 21.3369 18.7739C20.9915 19.2178 20.7118 19.6535 20.6543 19.7275C20.6625 19.7933 20.5391 19.8755 20.424 20.0235C20.2349 20.1139 20.1773 20.1878 20.2101 20.451C20.2183 20.5167 20.095 20.5989 19.9716 20.6811C19.8483 20.7633 19.7332 20.9113 19.7414 20.9771C19.766 21.1744 19.3548 21.6266 19.141 21.5196C19.0753 21.5278 19.0835 21.5936 19.1081 21.791C19.2725 22.0377 19.1656 22.2514 18.3596 23.2872C18.2444 23.4352 18.1375 23.649 18.1457 23.7148C18.1539 23.7805 17.9319 24.1423 17.644 24.5122C17.1917 25.1699 16.8955 26.0085 17.1586 25.9756C17.2244 25.9674 17.282 25.8935 17.2655 25.7619C17.2491 25.6303 17.4218 25.4084 17.7343 25.2358C17.981 25.0714 18.1619 24.9152 18.1455 24.7836C18.1291 24.6521 18.7542 23.7724 18.8775 23.6902C19.0748 23.6656 19.6587 22.9915 19.6341 22.7942C19.6259 22.7284 19.741 22.5804 19.8644 22.4982C20.0535 22.4078 20.1769 22.3256 20.1029 22.268C20.0947 22.2023 20.251 21.8487 20.547 21.5446C20.8349 21.1746 21.0569 20.8129 21.0487 20.7471C21.0405 20.6813 21.1557 20.5334 21.3448 20.443C21.4681 20.3608 21.5833 20.2128 21.5093 20.1552C21.5011 20.0894 21.6738 19.8675 21.9123 19.6373C22.1508 19.4071 22.3893 19.177 22.3728 19.0454C22.3646 18.9796 22.4222 18.9056 22.488 18.8974C22.5538 18.8892 22.6031 18.7495 22.6443 18.5439C22.6279 18.4123 22.8417 17.9848 23.072 17.6889C23.6395 16.8832 24.0261 16.2338 24.2317 15.7405C24.3386 15.5267 24.4456 15.313 24.5113 15.3047C24.5771 15.2965 24.5689 15.2308 24.5607 15.165C24.5525 15.0992 24.4785 15.0416 24.4127 15.0498C24.2812 15.0663 24.2236 15.1402 24.24 15.2718ZM19.0524 12.245C18.814 12.4752 18.7892 12.8123 19.0523 12.7795C19.1181 12.7713 19.2333 12.6233 19.2908 12.5493C19.3402 12.4095 19.5211 12.2533 19.6527 12.2369C19.85 12.2123 19.9076 12.1383 19.8911 12.0067C19.8172 11.9492 19.9981 11.793 20.3023 11.5546C20.5572 11.456 20.73 11.234 20.6642 11.2422C20.5902 11.1847 20.6478 11.1107 20.7793 11.0943C20.8451 11.0861 21.0342 10.9956 21.0918 10.9217C21.1412 10.7819 21.3879 10.6175 21.5852 10.5929C21.7743 10.5025 21.9634 10.4121 21.947 10.2805C21.9388 10.2147 22.1773 9.98455 22.4816 9.74617C23.0407 9.40917 23.271 9.11322 22.9421 9.15426C22.8764 9.16247 22.8024 9.1049 22.7859 8.97334C22.7777 8.90756 22.7695 8.84178 22.638 8.8582C22.5722 8.86641 22.3831 8.95682 22.1364 9.12121C21.9637 9.34318 21.643 9.45 21.5114 9.46642C21.2401 9.43348 21.1825 9.50746 21.2729 9.69659C21.2893 9.82815 21.1742 9.97613 21.0509 10.0583C20.9851 10.0665 20.6808 10.3049 20.5081 10.5269C20.2696 10.7571 20.0887 10.9132 19.9571 10.9297C19.8914 10.9379 19.7269 11.2256 19.5624 11.5133C19.3979 11.8011 19.1758 12.1628 19.0524 12.245ZM18.7974 12.8781L18.7399 12.9521C18.7481 13.0178 18.8138 13.0096 18.8138 13.0096C18.8796 13.0014 18.8796 13.0014 18.8714 12.9356C18.8714 12.9356 18.8632 12.8699 18.7974 12.8781ZM13.755 24.3963C13.7303 24.199 14.4787 23.2371 14.6761 23.2125C14.7418 23.2043 14.7336 23.1385 14.7254 23.0727C14.7172 23.007 15.2189 22.2095 15.515 21.9054C15.8028 21.5354 16.5512 20.5736 17.0036 19.9159C17.2257 19.5542 17.5217 19.25 17.5875 19.2418C17.6533 19.2336 17.7109 19.1596 17.7026 19.0938C17.678 18.8965 17.8919 18.469 18.6403 17.5071C18.8706 17.2112 19.0433 16.9892 19.0351 16.9234C19.0186 16.7919 19.545 16.1918 19.6765 16.1753C19.7423 16.1671 19.8493 15.9534 19.8822 15.682C20.0139 15.1312 20.5896 14.3913 20.9184 14.3503C21.1158 14.3256 21.1734 14.2516 20.9678 14.2105C20.9596 14.1447 20.8938 14.1529 20.828 14.1611C20.6307 14.1858 20.4498 14.3419 20.1619 14.7119C20.0468 14.8599 19.8577 14.9503 19.7919 14.9585C19.7261 14.9667 19.6685 15.0407 19.7425 15.0982C19.8165 15.1558 19.6932 15.238 19.4958 15.2626C19.4301 15.2708 19.3643 15.2791 19.2985 15.2873C19.2327 15.2955 19.1751 15.3695 19.1834 15.4352C19.2162 15.6984 18.2211 16.8246 17.958 16.8574C17.8264 16.8739 17.7688 16.9478 17.7771 17.0136C17.9332 17.1945 17.5796 17.5727 17.2178 17.8851C17.0944 17.9673 16.9793 18.1152 16.9875 18.181C17.0121 18.3783 16.6585 18.7565 16.2885 19.0031C16.1075 19.1593 15.8115 19.4634 15.7128 19.743C15.614 20.0225 15.392 20.3842 15.2768 20.5322C15.0877 20.6226 14.9808 20.8364 14.989 20.9021C15.0054 21.0337 14.8903 21.1817 14.6929 21.2063C14.5696 21.2885 14.3804 21.3789 14.3886 21.4447C14.3969 21.5105 14.3557 21.716 14.2406 21.864C14.0679 22.086 14.0267 22.2915 14.0349 22.3573C14.0431 22.4231 13.928 22.571 13.8046 22.6532C13.6731 22.6696 13.5579 22.8176 13.5661 22.8834C13.5744 22.9492 13.4099 23.2369 13.2371 23.4589C13.0644 23.6809 12.8917 23.9028 12.8999 23.9686C12.9081 24.0344 12.6861 24.3961 12.4064 24.8318C12.0528 25.21 11.8307 25.5717 11.9129 25.6951C11.9211 25.7608 11.88 25.9664 11.7649 26.1144C11.6497 26.2623 11.6003 26.4021 11.6086 26.4679C11.6825 26.5254 11.6908 26.5912 11.5592 26.6076C11.4934 26.6159 11.4358 26.6898 11.518 26.8132C11.5427 27.0105 11.5427 27.0105 11.7072 26.7228C11.8223 26.5748 11.995 26.3528 12.1842 26.2624C12.3075 26.1802 12.4226 26.0323 12.4144 25.9665C12.3898 25.7691 12.9161 25.169 13.4095 24.8402C13.5905 24.6841 13.7714 24.5279 13.755 24.3963Z"
    fill="#0F0404"></path>
</svg>
