<svg width="103" height="30" viewBox="0 0 103 30" fill="none" xmlns="http://www.w3.org/2000/svg">
<path d="M98.1262 13.3815C97.8864 13.3911 97.8096 13.4742 97.8992 13.7108C97.9056 13.8707 97.9152 14.1105 97.6786 14.2001C97.522 14.2864 97.3685 14.4527 97.3717 14.5326C97.3749 14.6126 97.1479 14.9419 96.921 15.2713C96.5373 15.687 96.3135 16.0963 96.3935 16.0931C96.7004 15.7605 97.2535 15.5782 97.7331 15.559C97.8131 15.5558 97.8962 15.6325 97.8962 15.6325C97.8962 15.6325 97.8227 15.7956 97.746 15.8787C97.6021 16.2848 96.6878 17.4424 96.2945 17.6183C96.0579 17.7078 95.8278 17.9573 95.7542 18.1204C95.6072 18.4465 95.134 18.6256 94.5744 18.6481C94.0948 18.6673 93.6887 18.5235 93.6791 18.2837C93.6727 18.1238 93.5032 17.8904 93.3369 17.7369C93.0044 17.43 93.0044 17.43 93.3113 17.0975C93.6214 16.8448 93.6214 16.8448 93.372 16.6146C93.0426 16.3877 93.1161 16.2246 93.4166 15.7321C93.6468 15.4827 93.7203 15.3196 93.6404 15.3228C93.5605 15.326 93.4038 15.4124 93.0937 15.665C92.7803 15.8377 92.3136 16.1767 92.077 16.2663C91.8404 16.3558 91.6102 16.6053 91.6134 16.6852C91.6198 16.8451 90.8493 17.5966 90.3026 17.9387C90.1459 18.0251 89.9125 18.1946 89.7591 18.3609C89.6056 18.5272 89.4521 18.6934 89.3722 18.6966C89.2923 18.6999 88.9022 18.9557 88.5154 19.2915C88.1317 19.7072 87.585 20.0494 87.3484 20.1389C87.0319 20.2317 86.7985 20.4012 86.8017 20.4811C86.8049 20.5611 86.7282 20.6442 86.5651 20.5707C86.3253 20.5803 86.2485 20.6634 86.175 20.8265C86.1079 21.1495 85.2414 21.5045 84.6819 21.5269C84.522 21.5334 84.3622 21.5398 84.279 21.463C83.2206 21.0251 82.9263 19.6758 83.6072 18.6877C83.8374 18.4383 83.9844 18.1122 83.9812 18.0322C83.978 17.9523 84.1315 17.786 84.2882 17.6996C84.528 17.69 84.6814 17.5237 84.7549 17.3607C84.8253 17.1176 84.8221 17.0377 84.7421 17.0409C84.6622 17.0441 84.5855 17.1273 84.432 17.2936C84.2785 17.4598 84.0451 17.6293 83.9652 17.6325C83.8853 17.6357 83.4185 17.9747 83.0348 18.3904C82.5713 18.8094 82.1844 19.1451 82.0245 19.1516C81.9446 19.1548 81.7847 19.1612 81.6249 19.1676C81.5449 19.1708 81.3915 19.3371 81.3979 19.497C81.3276 19.74 81.1741 19.9063 80.9343 19.9159C80.6178 20.0086 80.3876 20.2581 80.1574 20.5075C80.0103 20.8336 79.7802 21.0831 79.6203 21.0895C79.3805 21.0991 79.1439 21.1887 78.9936 21.4349C78.7634 21.6843 77.2896 22.8643 77.1297 22.8708C77.0498 22.874 76.8931 22.9603 76.8196 23.1234C76.6661 23.2897 76.4263 23.2993 76.2664 23.3057C75.9467 23.3185 75.7101 23.4081 75.4799 23.6575C75.2497 23.907 75.0931 23.9933 74.9332 23.9997C74.7733 24.0061 74.6902 23.9294 74.4407 23.6992C74.1913 23.469 73.9451 23.3188 73.8652 23.322C73.5454 23.3348 73.4206 22.2189 73.7371 22.1262C73.8138 22.043 73.8874 21.8799 73.801 21.7233C73.7147 21.5666 73.7914 21.4835 73.8713 21.4803C73.9513 21.4771 74.1815 21.2276 74.3285 20.9015C74.4755 20.5753 74.7057 20.3259 74.8656 20.3195C75.0255 20.3131 75.099 20.15 75.8599 19.1587C76.0101 18.9125 76.2435 18.743 76.3234 18.7398C76.4833 18.7333 76.56 18.6502 76.5536 18.4903C76.5504 18.4104 76.7806 18.161 77.0907 17.9083C77.3241 17.7388 77.6343 17.4862 77.6278 17.3263C77.7046 17.2432 77.938 17.0737 78.0914 16.9074C78.328 16.8179 78.4815 16.6516 78.4783 16.5716C78.4719 16.4118 78.702 16.1623 78.9354 15.9928C79.2456 15.7402 79.4757 15.4908 79.5525 15.4076C79.6292 15.3245 79.7827 15.1582 79.8626 15.155C80.0225 15.1486 80.2559 14.9791 80.3262 14.7361C80.4764 14.4899 80.9368 13.991 81.4036 13.652C82.1773 12.9805 82.5545 12.4049 82.3083 12.2546C82.2251 12.1779 82.1484 12.2611 82.0749 12.4241C82.011 12.827 81.6209 13.0829 81.3012 13.0957C81.2213 13.0989 81.0614 13.1053 80.9782 13.0286C80.8152 12.9551 80.732 12.8783 80.6521 12.8815C80.4922 12.8879 80.4986 13.0478 80.6649 13.2013C80.9143 13.4315 80.3069 14.2565 79.9073 14.2725C79.8273 14.2757 79.5939 14.4452 79.3605 14.6147C78.5101 15.3694 78.2767 15.5389 77.957 15.5517C77.877 15.5549 77.7971 15.5581 77.7172 15.5613C77.5573 15.5678 77.4773 15.571 77.3175 15.5774C76.9977 15.5902 76.921 15.6733 76.9338 15.9931C76.9499 16.3928 76.4927 16.9716 75.7861 17.3202C75.4728 17.4929 75.3193 17.6591 75.3225 17.7391C75.3257 17.819 74.9325 17.9949 74.5424 18.2508C74.1491 18.4267 73.6824 18.7657 73.6088 18.9287C73.4554 19.095 73.2188 19.1846 72.979 19.1942C72.7424 19.2838 72.6656 19.3669 72.6721 19.5268C72.7584 19.6834 72.6817 19.7666 72.6017 19.7698C72.4419 19.7762 72.2117 20.0256 71.9783 20.1951C71.7481 20.4445 71.358 20.7004 71.1982 20.7068C70.9584 20.7164 70.7985 20.7228 70.8816 20.7996C70.968 20.9562 70.7346 21.1257 69.8042 21.8836C69.5708 22.0531 69.3374 22.2226 69.2607 22.3057C69.184 22.3889 68.8707 22.5616 68.7172 22.7279C68.4806 22.8174 68.0905 23.0733 67.8604 23.3227C67.6302 23.5721 67.3168 23.7448 67.1602 23.8312C67.0003 23.8376 66.9268 24.0007 66.93 24.0806C66.9332 24.1605 66.8533 24.1637 66.7733 24.167C66.6135 24.1734 66.46 24.3397 66.3833 24.4228C66.2298 24.5891 65.9932 24.6786 65.8333 24.6851C65.6735 24.6915 65.5168 24.7778 65.52 24.8578C65.5232 24.9377 65.3666 25.024 65.1267 25.0337C64.9669 25.0401 64.8102 25.1264 64.8166 25.2863C64.8359 25.7659 63.2468 26.0699 62.8471 26.0859C62.684 26.0124 62.5177 25.8589 62.5113 25.699C62.5049 25.5392 62.3418 25.4656 62.1052 25.5552C61.6288 25.6544 61.4305 24.7016 61.731 24.2091C61.8844 24.0428 61.9515 23.7199 61.9451 23.56C61.9355 23.3202 62.089 23.1539 62.4023 22.9812C62.6389 22.8917 62.7923 22.7254 62.7923 22.7254C62.69 22.169 63.6075 21.0914 64.0871 21.0721C64.3269 21.0625 64.4036 20.9794 64.4004 20.8994C64.2277 20.5861 65.5321 19.1727 65.9318 19.1567C66.1716 19.147 66.2483 19.0639 66.162 18.9072C66.0724 18.6706 66.3794 18.3381 66.779 18.322C67.0988 18.3092 67.8022 17.8807 67.4792 17.8136C66.9197 17.836 68.2912 16.0996 68.8507 16.0772C68.9306 16.074 69.0873 15.9876 69.1576 15.7446C69.1512 15.5847 69.3846 15.4152 69.5445 15.4088C69.9409 15.3129 69.9249 14.9132 69.522 14.8493C69.2822 14.8589 69.1223 14.8653 69.1288 15.0252C69.1384 15.265 68.2016 15.863 67.9554 15.7128C67.8754 15.716 67.7188 15.8023 67.6485 16.0453C67.5749 16.2084 67.3448 16.4579 67.1114 16.6273C66.4847 16.9727 65.7845 17.4812 65.6343 17.7274C65.6375 17.8074 65.4009 17.8969 65.241 17.9033C65.0811 17.9098 64.9245 17.9961 64.8477 18.0793C64.851 18.1592 64.6943 18.2455 64.6911 18.1656C64.6111 18.1688 64.4545 18.2552 64.381 18.4182C64.3074 18.5813 64.074 18.7508 63.9941 18.754C63.9142 18.7572 63.6808 18.9267 63.5305 19.1729C63.3803 19.4192 63.1469 19.5886 62.987 19.5951C62.8271 19.6015 62.5138 19.7742 62.2836 20.0236C61.7465 20.6056 60.9696 21.1972 60.7298 21.2068C60.6499 21.21 60.5731 21.2932 60.5764 21.3731C60.5796 21.4531 60.4229 21.5394 60.1863 21.629C59.9465 21.6386 59.5596 21.9744 59.3294 22.2238C59.0993 22.4732 58.6325 22.8122 58.2424 23.068C57.8492 23.244 57.539 23.4966 57.5422 23.5765C57.5454 23.6565 57.2321 23.8292 56.9156 23.9219C56.6023 24.0946 56.2889 24.2673 56.2122 24.3505C56.1355 24.4336 55.8989 24.5232 55.739 24.5296C55.5791 24.536 55.5024 24.6191 55.5088 24.779C55.5184 25.0188 54.3515 25.8663 54.0285 25.7992C53.9486 25.8024 53.8751 25.9654 53.8015 26.1285C53.8079 26.2884 53.5746 26.4579 53.4147 26.4643C53.0949 26.4771 52.545 26.7394 52.2381 27.072C52.0814 27.1583 51.8448 27.2479 51.605 27.2575C51.3652 27.2671 51.0455 27.2799 50.9687 27.3631C50.8121 27.4494 50.6522 27.4558 50.5659 27.2992L50.5691 27.3791C50.5627 27.2192 50.3228 27.2289 50.163 27.2353C49.5235 27.2609 49.6128 25.4959 50.3098 24.9075C50.5432 24.738 50.6966 24.5717 50.6934 24.4918C50.6838 24.252 51.3776 23.5836 51.5374 23.5772C51.6973 23.5708 51.6941 23.4909 51.6909 23.4109C51.6078 23.3342 51.6045 23.2543 51.6845 23.2511C51.7644 23.2479 52.228 22.829 52.6884 22.3301C53.2287 21.828 53.6891 21.3292 53.8489 21.3228C54.0056 21.2364 54.0791 21.0733 54.0727 20.9135C54.0695 20.8335 54.143 20.6705 54.3029 20.664C54.3828 20.6608 54.5363 20.4945 54.7697 20.3251C54.9199 20.0788 55.1533 19.9093 55.3931 19.8997C55.7129 19.8869 55.7896 19.8037 55.7032 19.6471C55.6169 19.4904 57.0715 17.8308 57.3913 17.8179C57.5511 17.8115 58.3952 16.897 58.3887 16.7371C58.3056 16.6604 58.539 16.4909 58.8523 16.3182C59.0889 16.2286 59.3223 16.0591 59.3191 15.9792C59.3031 15.5795 60.7834 14.5593 61.1063 14.6265C61.4293 14.6936 61.4293 14.6936 61.2534 14.3003C61.1638 14.0637 61.1574 13.9038 61.2373 13.9006C61.3173 13.8974 61.5507 13.7279 61.7041 13.5616C61.9343 13.3122 62.0878 13.1459 62.2476 13.1395C62.3276 13.1363 62.481 12.97 62.4746 12.8101C62.5481 12.6471 62.7783 12.3976 63.0149 12.3081C63.2483 12.1386 63.4817 11.9691 63.4785 11.8892C63.4689 11.6494 64.0124 11.2272 64.3321 11.2144C64.5719 11.2048 64.6487 11.1216 64.5623 10.965C64.5591 10.885 64.7094 10.6388 65.0195 10.3862C65.3296 10.1335 65.5598 9.88412 65.6301 9.64111C65.7036 9.47803 66.164 8.97917 66.7043 8.47711C67.2478 8.05498 67.6315 7.63927 67.5515 7.64248C67.3917 7.64889 66.6883 8.07743 66.6915 8.15737C66.7011 8.39717 65.678 8.83854 65.355 8.77143C65.112 8.70112 64.9554 8.78747 64.8915 9.19035C64.8211 9.43337 64.591 9.6828 64.3511 9.69242C64.1145 9.78197 63.8812 9.95147 63.8044 10.0346C63.7341 10.2776 62.4041 11.0516 61.6911 11.2403C61.4545 11.3299 61.2978 11.4162 61.3074 11.656C61.3138 11.8159 61.2371 11.899 61.0772 11.9054C60.9973 11.9086 60.7639 12.0781 60.5305 12.2476C60.2971 12.4171 60.0637 12.5866 59.9038 12.593C59.744 12.5994 59.6672 12.6826 59.5905 12.7657C59.5969 12.9256 58.2733 13.8594 57.8001 14.0385C57.6402 14.0449 57.5667 14.208 57.5667 14.208C57.5699 14.2879 57.2566 14.4606 56.9433 14.6333C56.6299 14.806 56.3166 14.9787 56.3198 15.0587C56.323 15.1386 56.2463 15.2218 56.0864 15.2282C55.9265 15.2346 55.6931 15.4041 55.5397 15.5704C55.3862 15.7366 54.9962 15.9925 54.7596 16.082C54.443 16.1748 54.2096 16.3443 54.2129 16.4242C54.2161 16.5042 54.0562 16.5106 53.8963 16.517C53.6565 16.5266 53.4998 16.613 53.5063 16.7728C53.5191 17.0926 52.6462 17.2877 52.4064 17.2974C52.2433 17.2238 52.2465 17.3038 52.3329 17.4604C52.4224 17.697 51.6487 18.3686 51.1691 18.3878C51.0092 18.3942 50.9293 18.3974 50.9357 18.5573C50.9389 18.6373 50.859 18.6405 50.6991 18.6469C50.6192 18.6501 50.4657 18.8164 50.4689 18.8963C50.3922 18.9794 50.0022 19.2353 49.6121 19.4911C49.2188 19.667 48.7488 19.9261 48.6721 20.0092C48.5154 20.0956 48.1989 20.1883 48.039 20.1948C47.8792 20.2012 47.7225 20.2875 47.7321 20.5273C47.7385 20.6872 47.665 20.8503 47.5051 20.8567C47.4252 20.8599 47.1119 21.0326 46.9584 21.1989C46.7282 21.4483 46.4948 21.6178 46.335 21.6242C46.1751 21.6306 46.0984 21.7138 46.1016 21.7937C46.1048 21.8736 45.0881 22.4749 44.8483 22.4845C44.7683 22.4877 44.6149 22.654 44.4614 22.8203C44.3879 22.9834 44.2344 23.1496 44.1545 23.1529C44.0746 23.1561 43.7612 23.3288 43.5278 23.4982C43.2177 23.7509 42.9044 23.9236 42.8245 23.9268C42.7445 23.93 42.5911 24.0963 42.4376 24.2626C42.2841 24.4289 42.0507 24.5983 41.9676 24.5216C41.8877 24.5248 41.7278 24.5312 41.6543 24.6943C41.6607 24.8542 41.4273 25.0237 41.114 25.1964C40.8774 25.2859 40.4873 25.5418 40.2539 25.7113C40.0205 25.8808 39.7807 25.8904 39.6208 25.8968C39.3011 25.9096 39.138 25.8361 39.0485 25.5995C38.9621 25.4428 38.9589 25.3629 38.879 25.3661C38.879 25.3661 38.7223 25.4525 38.5656 25.5388C38.4857 25.542 38.4857 25.542 38.4058 25.5452C38.166 25.5548 37.9933 25.2415 38.2202 24.9121C38.3737 24.7459 38.3705 24.6659 38.1275 24.5956C37.635 24.2951 38.8403 22.4053 39.4797 22.3796C39.5597 22.3764 39.7131 22.2101 39.7867 22.0471C39.8602 21.884 40.0136 21.7177 40.1735 21.7113C40.3334 21.7049 40.4101 21.6217 40.4037 21.4618C40.4005 21.3819 40.474 21.2188 40.5539 21.2156C40.7138 21.2092 40.944 20.9598 41.1742 20.7104C41.4012 20.381 41.788 20.0452 41.9447 19.9589C42.1813 19.8693 42.3347 19.703 42.3283 19.5432C42.3251 19.4632 42.3986 19.3001 42.5585 19.2937C42.6384 19.2905 42.9518 19.1178 43.0988 18.7917C43.329 18.5422 43.8693 18.0402 44.2562 17.7044C44.5663 17.4518 45.0299 17.0328 45.1833 16.8666C45.3368 16.7003 45.5734 16.6107 45.8132 16.6011C46.053 16.5915 46.0498 16.5115 45.9634 16.3549C45.8004 16.2813 45.8739 16.1183 46.3407 15.7793C47.2678 14.9414 48.7289 13.4417 48.7257 13.3617C48.7225 13.2818 48.6393 13.2051 48.5594 13.2083C48.3995 13.2147 48.0862 13.3874 47.856 13.6368C47.6258 13.8862 47.3924 14.0557 47.1494 13.9854C46.9863 13.9119 46.9096 13.995 46.916 14.1549C46.9224 14.3148 46.6123 14.5674 46.219 14.7433C45.9057 14.916 45.4357 15.1751 45.2055 15.4245C44.9753 15.6739 44.662 15.8466 44.5021 15.853C44.3423 15.8595 44.1856 15.9458 44.1121 16.1089C44.1153 16.1888 43.9618 16.3551 43.802 16.3615C43.722 16.3647 43.4087 16.5374 43.1018 16.87C42.7917 17.1226 42.4783 17.2953 42.3185 17.3017C41.9987 17.3146 41.9188 17.3178 41.7717 17.6439C41.6982 17.807 41.6215 17.8902 41.4616 17.8966C41.3817 17.8998 41.3018 17.903 41.2218 17.9062C40.982 17.9158 40.9021 17.919 40.9117 18.1588C40.9181 18.3187 40.7646 18.485 40.6847 18.4882C40.5248 18.4946 40.4449 18.4978 40.4481 18.5777C40.4513 18.6577 39.9845 18.9967 39.5145 19.2557C38.9678 19.5979 38.501 19.9369 38.3444 20.0232C38.2708 20.1863 38.0342 20.2759 37.9543 20.2791C37.8744 20.2823 37.641 20.4518 37.4108 20.7012C37.2573 20.8675 36.9472 21.1201 36.7074 21.1298C36.5475 21.1362 36.3909 21.2225 36.3941 21.3025C36.4005 21.4623 35.7835 22.0475 35.5436 22.0571C35.4637 22.0604 35.2303 22.2298 35.0769 22.3961C34.9234 22.5624 34.6101 22.7351 34.2935 22.8279C34.0569 22.9174 33.7436 23.0901 33.5934 23.3364C33.4399 23.5026 33.2065 23.6721 33.0466 23.6785C32.8868 23.685 32.5766 23.9376 32.3465 24.187C32.1163 24.4365 31.8094 24.769 31.6495 24.7754C31.4928 24.8618 31.2594 25.0313 31.1028 25.1176C30.9493 25.2839 30.8694 25.2871 30.5496 25.2999C30.3098 25.3096 29.9101 25.3256 29.2674 25.2713C28.8646 25.2074 28.6023 24.6575 28.7461 24.2514C28.8197 24.0883 28.89 23.8453 28.8068 23.7686C28.8036 23.6886 28.8739 23.4456 29.1105 23.3561C29.264 23.1898 29.4175 23.0235 29.4143 22.9436C29.411 22.8636 29.5645 22.6973 29.7148 22.4511C29.9481 22.2816 30.0984 22.0354 30.0952 21.9555C30.092 21.8755 30.1687 21.7924 30.3286 21.786C30.4885 21.7796 30.7219 21.6101 30.7954 21.447C30.8657 21.204 31.1758 20.9514 31.4891 20.7787C31.8025 20.606 32.1126 20.3533 32.1861 20.1902C32.2596 20.0272 32.4131 19.8609 32.493 19.8577C32.6529 19.8513 32.7296 19.7681 32.7264 19.6882C32.7168 19.4484 33.1037 19.1126 33.4234 19.0998C33.5833 19.0934 33.7335 18.8471 33.807 18.6841C33.8774 18.441 34.0276 18.1948 34.1875 18.1884C34.5008 18.0157 34.8877 17.6799 35.5015 17.0148C35.6549 16.8485 35.8883 16.679 35.9683 16.6758C36.0482 16.6726 36.2017 16.5063 36.2752 16.3432C36.4222 16.0171 36.4222 16.0171 36.1824 16.0267C36.0226 16.0331 35.8659 16.1195 35.8723 16.2793C35.8787 16.4392 35.722 16.5256 35.3224 16.5416C34.9227 16.5576 34.8428 16.5608 34.9323 16.7974C34.9387 16.9573 34.862 17.0404 34.7053 17.1268C34.4655 17.1364 34.3121 17.3027 34.3153 17.3826C34.3185 17.4626 34.1586 17.469 33.9188 17.4786C33.8389 17.4818 33.679 17.4882 33.679 17.4882C33.4392 17.4978 33.3625 17.581 33.2154 17.9071C33.1483 18.2301 32.9181 18.4795 32.8382 18.4827C32.6783 18.4891 32.5217 18.5755 32.3682 18.7418C32.2147 18.9081 32.0549 18.9145 31.8151 18.9241C31.6552 18.9305 31.572 18.8538 31.4921 18.857C31.4122 18.8602 31.3354 18.9433 31.425 19.1799C31.5146 19.4165 31.4346 19.4197 31.1948 19.4294C31.0349 19.4358 30.8048 19.6852 30.6513 19.8515C30.501 20.0977 30.2677 20.2672 30.1877 20.2704C30.0278 20.2768 29.7145 20.4495 29.5611 20.6158C29.3277 20.7853 29.0943 20.9548 29.0143 20.958C28.9344 20.9612 28.8577 21.0444 28.7042 21.2106C28.6275 21.2938 28.474 21.4601 28.3142 21.4665C28.2342 21.4697 27.9241 21.7223 27.6108 21.895C27.3774 22.0645 27.064 22.2372 26.9841 22.2404C26.9042 22.2436 26.8275 22.3268 26.8307 22.4067C26.8339 22.4866 26.6005 22.6561 26.3639 22.7457C26.1273 22.8352 25.8939 23.0047 25.8971 23.0847C25.9003 23.1646 25.7436 23.251 25.507 23.3405C25.3472 23.3469 24.9571 23.6028 24.6502 23.9353C24.42 24.1848 24.1099 24.4374 23.9532 24.5238C23.7134 24.5334 23.5599 24.6997 23.4065 24.8659C23.3298 24.9491 23.1699 24.9555 22.9301 24.9651C22.8501 24.9683 22.6903 24.9747 22.6103 24.9779C22.5304 24.9812 22.4505 24.9844 22.3705 24.9876C22.1307 24.9972 21.9709 25.0036 21.8941 25.0867C21.8174 25.1699 21.7407 25.253 21.6607 25.2562C21.5009 25.2627 21.3346 25.1092 21.1651 24.8758C21.0755 24.6392 20.9092 24.4857 20.8293 24.489C20.3497 24.5082 20.5574 23.6992 21.1713 23.0341C21.3247 22.8678 21.4782 22.7015 21.475 22.6216C21.4589 22.2219 25.078 18.6339 25.4777 18.6179C25.6376 18.6115 25.7143 18.5283 25.7079 18.3685C25.695 18.0487 27.1561 16.5489 27.3959 16.5393C27.4758 16.5361 27.5526 16.453 27.5462 16.2931C27.543 16.2132 27.6932 15.967 27.9266 15.7975C28.0801 15.6312 28.8505 14.8797 29.5411 14.1314C30.3116 13.3799 31.0821 12.6284 31.3155 12.4589C31.5489 12.2894 32.0093 11.7906 32.3897 11.2949C32.7733 10.8792 33.2337 10.3804 33.3872 10.2141C33.6174 9.96465 33.6174 9.96465 33.3775 9.97427C33.2177 9.98068 33.1409 10.0638 33.1442 10.1438C33.1474 10.2237 32.9907 10.31 32.8308 10.3165C32.671 10.3229 32.591 10.3261 32.5974 10.486C32.6806 10.5627 32.6038 10.6458 32.3672 10.7354C32.2074 10.7418 32.0539 10.9081 32.0571 10.988C32.0603 11.0679 31.9804 11.0712 31.9005 11.0744C31.8205 11.0776 31.5871 11.2471 31.3569 11.4965C31.2067 11.7427 30.8934 11.9154 30.8134 11.9186C30.7335 11.9218 30.4234 12.1745 30.1932 12.4239C29.963 12.6733 29.6497 12.846 29.4099 12.8556C29.1701 12.8653 29.0166 13.0315 28.9431 13.1946C28.9495 13.3545 28.7193 13.6039 28.4859 13.7734C28.2493 13.863 28.0159 14.0325 28.0191 14.1124C28.0223 14.1923 27.8689 14.3586 27.7122 14.445C27.5523 14.4514 27.0855 14.7904 26.622 15.2093C26.2351 15.5451 25.4582 16.1367 24.9115 16.4789C24.3648 16.8211 23.8213 17.2432 23.7477 17.4063C23.5272 17.8955 22.9869 18.3976 22.5872 18.4136C22.4273 18.42 22.3506 18.5032 22.4305 18.4999C22.5169 18.6566 21.2796 19.7471 21.0398 19.7567C20.9598 19.7599 20.8032 19.8463 20.8064 19.9262C20.7329 20.0893 20.5762 20.1756 20.4963 20.1788C20.3364 20.1852 20.1829 20.3515 20.1094 20.5146C19.9559 20.6809 19.8025 20.8472 19.6426 20.8536C19.4827 20.86 19.3261 20.9464 19.3293 21.0263C19.3421 21.346 18.4085 22.024 18.0824 21.877C17.9193 21.8034 17.8426 21.8866 17.9321 22.1232C18.1016 22.3566 17.5645 22.9386 17.0849 22.9578C16.925 22.9642 16.8483 23.0474 16.8515 23.1273C16.8547 23.2072 16.7013 23.3735 16.4647 23.4631C16.2281 23.5526 16.0778 23.7989 16.0043 23.9619C16.0107 24.1218 15.8573 24.2881 15.6974 24.2945C15.6174 24.2977 15.4608 24.3841 15.464 24.464C15.4672 24.5439 15.3169 24.7902 15.0803 24.8797C14.9269 25.046 14.7734 25.2123 14.7734 25.2123C14.7766 25.2922 14.62 25.3786 14.3802 25.3882C14.1404 25.3978 13.9837 25.4842 13.9134 25.7272C13.923 25.967 13.6928 26.2164 13.3763 26.3092C13.1397 26.3987 12.9095 26.6482 12.836 26.8112C12.8424 26.9711 12.6889 27.1374 12.609 27.1406C12.5291 27.1438 12.2957 27.3133 12.1454 27.5595C11.9152 27.809 11.5188 27.9049 11.1191 27.921C10.7993 27.9338 10.5595 27.9434 10.3932 27.7899C10.3101 27.7132 10.2302 27.7164 10.2334 27.7964C10.2366 27.8763 10.0703 27.7228 9.89759 27.4095C9.46584 26.6262 10.8149 24.3303 11.6942 24.295C11.8541 24.2886 11.9276 24.1255 11.9244 24.0456C11.9115 23.7258 13.0625 22.4787 13.3023 22.4691C13.4622 22.4626 13.5389 22.3795 13.4557 22.3028C13.3694 22.1461 13.5996 21.8967 13.8298 21.6473C14.0599 21.3978 14.2901 21.1484 14.2869 21.0685C14.2805 20.9086 14.9743 20.2402 15.2141 20.2306C15.374 20.2242 15.4507 20.1411 15.3675 20.0643C15.278 19.8277 16.4992 18.3376 16.739 18.328C16.8989 18.3215 16.9756 18.2384 16.9724 18.1585C16.9692 18.0785 17.1962 17.7492 17.4264 17.4997C17.8868 17.0009 18.0338 16.6747 17.8739 16.6811C17.6341 16.6908 16.934 17.1992 16.9404 17.3591C16.95 17.5989 16.8701 17.6021 16.3904 17.6214C15.8309 17.6438 15.6742 17.7302 16.0068 18.0371C16.1731 18.1905 14.2484 20.1092 13.6953 20.2916C13.6186 20.3747 13.2317 20.7105 12.928 21.123C12.701 21.4523 12.3941 21.7849 12.3142 21.7881C12.2343 21.7913 11.7707 22.2102 11.2304 22.7123C10.6933 23.2943 10.2297 23.7132 10.0698 23.7196C9.98988 23.7228 9.91315 23.806 9.91956 23.9659C9.92277 24.0458 9.84925 24.2089 9.68938 24.2153C9.60944 24.2185 9.21938 24.4743 8.90926 24.727C8.60235 25.0595 8.29222 25.3122 8.13235 25.3186C8.05242 25.3218 7.97569 25.4049 7.9821 25.5648C7.98852 25.7247 7.75512 25.8942 7.59846 25.9805C7.36507 26.15 6.82155 26.5721 6.43791 26.9879C5.8976 27.4899 5.58748 27.7426 5.4276 27.749C5.34767 27.7522 5.26453 27.6754 5.18138 27.5987C5.09824 27.522 5.0151 27.4453 5.0151 27.4453C4.85523 27.4517 4.78171 27.6148 4.79453 27.9345C4.81377 28.4141 4.74025 28.5772 3.9441 28.6892C3.14795 28.8012 1.84012 28.1331 2.46998 27.8676C2.70658 27.7781 2.69696 27.5383 2.37722 27.5511C1.97754 27.5671 2.11496 27.0012 2.65207 26.4192C2.95898 26.0866 3.18596 25.7572 3.18275 25.6773C3.16672 25.2776 3.46401 24.7052 3.70382 24.6956C3.94363 24.686 4.02036 24.6029 3.93401 24.4462C3.92759 24.2863 3.99791 24.0433 4.15137 23.877C4.38476 23.7075 4.45507 23.4645 4.45187 23.3846C4.44545 23.2247 4.67885 23.0552 4.8323 22.8889C5.0657 22.7194 5.21915 22.5532 5.21274 22.3933C5.20953 22.3133 5.36299 22.1471 5.51966 22.0607C5.67953 22.0543 5.75305 21.8912 5.74984 21.8113C5.6667 21.7346 5.73701 21.4915 5.81374 21.4084C5.9672 21.2421 6.34764 20.7465 6.64814 20.254C7.02858 19.7584 7.41222 19.3427 7.57209 19.3362C7.73196 19.3298 7.88542 19.1635 7.95253 18.8406C7.94291 18.6008 8.16668 18.1915 8.4768 17.9389C8.70378 17.6095 8.85403 17.3633 8.85083 17.2833C8.84762 17.2034 9.07781 16.954 9.38472 16.6214C9.69163 16.2888 9.91861 15.9595 9.91541 15.8795C9.90899 15.7197 10.0657 15.6333 10.2191 15.467C10.4557 15.3775 10.6859 15.128 10.7594 14.965C10.98 14.4757 11.2837 14.0632 11.6673 13.6475C11.8176 13.4013 12.051 13.2318 12.3707 13.219C12.7672 13.123 12.7672 13.123 12.748 12.6434C12.652 12.2469 12.7287 12.1638 13.0485 12.1509C13.2851 12.0614 13.3618 11.9782 13.4289 11.6553C13.4161 11.3355 13.5695 11.1693 13.8061 11.0797C14.0395 10.9102 14.1162 10.8271 14.0299 10.6704C14.0235 10.5105 14.0203 10.4306 14.1002 10.4274C14.34 10.4178 15.6444 9.00435 15.6348 8.76454C15.6316 8.6846 16.012 8.18896 16.4756 7.77004C16.856 7.27439 17.2397 6.85867 17.2365 6.77874C17.2333 6.6988 17.5402 6.36623 17.8503 6.1136C18.1572 5.78103 18.3874 5.5316 18.3842 5.45166C18.2978 5.295 19.0716 4.62344 19.3114 4.61382C19.3913 4.61062 19.468 4.52747 19.4648 4.44754C19.4552 4.20773 19.7685 4.03503 20.0083 4.02541C20.0883 4.0222 20.1682 4.019 20.2513 4.09573C20.4144 4.16925 20.5775 4.24277 20.8173 4.23315C20.9772 4.22674 21.1403 4.30026 21.1499 4.54006C21.1563 4.69993 21.3226 4.85339 21.4025 4.85018C21.8022 4.83415 21.6648 5.40011 21.0638 6.385C20.5427 7.36668 20.386 7.45302 19.6666 7.48189C19.5067 7.4883 19.43 7.57144 19.5164 7.72811C19.6059 7.96471 19.5324 8.12779 19.3022 8.37721C19.0688 8.54671 18.8386 8.79613 18.7619 8.87928C18.6852 8.96242 18.6052 8.96563 18.5253 8.96883C18.4454 8.97204 18.3654 8.97525 18.2024 8.90172C17.9529 8.67154 17.8762 8.75468 18.0457 8.98808C18.3079 9.538 18.2408 9.86095 17.7676 10.0401C17.3712 10.136 17.2976 10.2991 17.3041 10.459C17.3904 10.6157 16.6327 11.6869 16.3929 11.6965C16.313 11.6997 16.1627 11.9459 16.0157 12.2721C15.8687 12.5982 15.6385 12.8477 15.4818 12.934C15.3219 12.9404 15.1685 13.1067 15.1749 13.2666C15.1781 13.3465 15.1014 13.4297 15.0214 13.4329C14.7017 13.4457 14.2445 14.0245 14.4108 14.178C14.5771 14.3314 13.8066 15.0829 13.4837 15.0158C13.2406 14.9455 13.2406 14.9455 13.3366 15.342C13.4358 15.8184 13.2088 16.1477 12.5022 16.4963C12.1889 16.669 12.1122 16.7522 12.2017 16.9888C12.2081 17.1486 12.2145 17.3085 11.9811 17.478C11.8245 17.5644 11.671 17.7306 11.6742 17.8106C11.6774 17.8905 11.5272 18.1367 11.3737 18.303C11.1435 18.5524 10.8366 18.885 10.6896 19.2112C10.4594 19.4606 10.1493 19.7132 10.0693 19.7164C9.7496 19.7293 9.36595 20.145 9.22532 20.631C9.16142 21.0339 9.16142 21.0339 9.39161 20.7845C9.54827 20.6981 9.77846 20.4487 9.93192 20.2824C10.0886 20.1961 10.3188 19.9466 10.4754 19.8603C10.5522 19.7771 10.7088 19.6908 10.7888 19.6876C10.8687 19.6844 10.9454 19.6012 10.9422 19.5213C10.939 19.4414 11.4026 19.0224 11.8694 18.6835C12.333 18.2645 12.7166 17.8488 12.7134 17.7689C12.7038 17.5291 13.0171 17.3564 13.4168 17.3403C13.4967 17.3371 13.6566 17.3307 13.7397 17.4075C14.0659 17.5545 14.0659 17.5545 13.8165 17.3243C13.567 17.0941 13.5638 17.0142 13.8772 16.8415C14.0338 16.7551 14.4207 16.4194 14.7276 16.0868C15.0313 15.6743 15.4214 15.4184 15.6612 15.4088C15.901 15.3992 15.9809 15.396 15.9745 15.2361C15.8881 15.0795 15.9617 14.9164 16.1183 14.83C16.2782 14.8236 16.4284 14.5774 16.422 14.4175C16.4956 14.2544 16.8089 14.0817 17.1222 13.9091C17.4387 13.8163 17.5922 13.65 17.6625 13.407C17.6497 13.0872 17.8863 12.9977 18.286 12.9817C18.3659 12.9784 18.4394 12.8154 18.513 12.6523C18.5033 12.4125 18.6568 12.2462 18.7367 12.243C18.8167 12.2398 19.1268 11.9871 19.4305 11.5746C19.7374 11.2421 20.1243 10.9063 20.3641 10.8967C20.5207 10.8103 20.5942 10.6472 20.5942 10.6472C20.5111 10.5705 20.7381 10.2412 21.0482 9.98852C21.6685 9.48325 21.7452 9.40011 22.8993 8.2329C23.3629 7.81398 23.8265 7.39506 23.9863 7.38865C24.1462 7.38224 24.2997 7.21595 24.3732 7.05287C24.5267 6.88659 24.6801 6.7203 24.7601 6.71709C24.84 6.71389 25.3835 6.29176 25.9206 5.70976C27.3785 4.13005 27.3785 4.13005 27.6982 4.11723C27.938 4.1076 28.0947 4.02125 28.165 3.77824C28.2385 3.61516 28.5486 3.36253 28.7852 3.27297C29.1018 3.18021 29.3384 3.09065 29.3352 3.01071C29.3319 2.93078 29.4119 2.92757 29.4918 2.92437C29.7316 2.91475 30.2177 3.05537 30.5502 3.36229C30.7996 3.59247 30.8892 3.82908 30.8221 4.15203C30.8317 4.39183 30.8445 4.71158 30.9277 4.7883C31.0908 4.86183 31.0972 5.0217 30.9437 5.18798C30.867 5.27113 30.7935 5.4342 30.8734 5.431C30.9533 5.42779 30.8766 5.51093 30.6432 5.68043C30.4866 5.76677 30.3363 6.01299 30.3395 6.09293C30.3459 6.2528 30.0422 6.66531 29.6586 7.08102C29.3517 7.41359 29.048 7.8261 29.0512 7.90603C29.0544 7.98597 28.5205 8.6479 27.9866 9.30984C27.3727 9.97498 26.6087 10.8863 26.225 11.3021C25.6911 11.964 25.3778 12.1367 25.1348 12.0664C24.8918 11.9961 24.895 12.076 24.9877 12.3925C25.0006 12.7123 25.007 12.8721 24.7736 13.0416C24.6201 13.2079 24.4667 13.3742 24.4699 13.4541C24.4763 13.614 26.0365 12.5906 26.2635 12.2613C26.4937 12.0119 26.4937 12.0119 26.8134 11.999C26.9733 11.9926 27.0564 12.0693 27.0564 12.0693C27.2163 12.0629 27.2131 11.983 27.1236 11.7464C27.034 11.5098 27.1107 11.4266 27.504 11.2507C27.7406 11.1612 27.974 10.9917 28.0475 10.8286C28.0443 10.7487 28.1978 10.5824 28.2777 10.5792C28.3576 10.576 28.671 10.4033 28.9011 10.1539C29.288 9.81808 29.5981 9.56544 29.758 9.55903C29.8379 9.55582 29.9179 9.55262 29.9211 9.63255C30.0042 9.70928 30.0841 9.70607 30.0841 9.70607C30.324 9.69645 30.471 9.3703 30.5349 8.96741C30.5253 8.7276 30.7619 8.63805 31.2415 8.6188C31.638 8.52283 31.7946 8.43648 31.785 8.19668C31.9256 7.71065 32.7857 7.19576 33.1886 7.25966C33.4316 7.32997 33.5083 7.24683 33.4987 7.00703C33.4923 6.84715 33.6425 6.60093 33.7992 6.51458C33.9559 6.42824 34.3459 6.17239 34.5761 5.92296C34.7296 5.75668 35.433 5.32814 35.9829 5.06588C36.5296 4.72369 37.1531 4.29836 37.3065 4.13207C38.077 3.38058 39.26 2.9328 40.1393 2.89752C40.6988 2.87508 41.1049 3.01891 41.121 3.41859C41.1306 3.6584 41.2137 3.73513 41.2137 3.73513C41.4535 3.72551 41.6423 4.43851 41.4952 4.76467C41.3418 4.93095 41.2715 5.17397 41.2747 5.25391C41.2779 5.33384 41.1276 5.58006 40.9774 5.82628C40.744 5.99578 40.4435 6.48822 40.1366 6.82079C39.9096 7.15015 39.5995 7.40278 39.5195 7.40599C39.4396 7.4092 39.3629 7.49234 39.3661 7.57228C39.3725 7.73215 39.219 7.89843 38.9824 7.98799C38.8258 8.07434 38.5956 8.32377 38.5988 8.4037C38.6052 8.56357 38.5285 8.64672 38.2919 8.73627C38.1352 8.82262 38.0585 8.90577 38.1416 8.98249C38.1448 9.06243 37.9178 9.39179 37.531 9.72757C37.1409 9.98341 36.3704 10.7349 35.8333 11.3169C34.8359 12.3978 34.3691 12.7367 34.0493 12.7496C33.8095 12.7592 33.1254 13.6673 33.1382 13.9871C33.151 14.3068 32.3006 15.0615 31.9009 15.0776C31.7411 15.084 31.6675 15.2471 31.6772 15.4869C31.6868 15.7267 31.6133 15.8897 31.5333 15.893C31.3735 15.8994 30.7596 16.5645 30.766 16.7244C30.7692 16.8043 30.8492 16.8011 31.0058 16.7148C31.1657 16.7083 31.2392 16.5453 31.2328 16.3854C31.2296 16.3055 31.3863 16.2191 31.5462 16.2127C31.6261 16.2095 32.0161 15.9536 32.3263 15.701C32.5565 15.4516 32.9465 15.1957 33.1863 15.1861C33.4261 15.1765 33.5828 15.0902 33.5732 14.8503C33.6467 14.6873 33.8034 14.6009 33.9632 14.5945C34.1231 14.5881 34.2766 14.4218 34.2733 14.3419C34.3469 14.1788 34.5035 14.0924 34.5835 14.0892C34.7433 14.0828 34.8201 13.9997 34.8169 13.9197C34.8137 13.8398 35.0503 13.7502 35.2901 13.7406C35.5299 13.731 35.7665 13.6415 35.7633 13.5615C35.7504 13.2418 37.5344 11.8091 38.0141 11.7899C38.094 11.7867 38.1675 11.6236 38.2442 11.5404C38.2378 11.3806 38.3945 11.2942 38.4744 11.291C38.6343 11.2846 38.9444 11.032 39.2545 10.7793C39.5647 10.5267 40.0347 10.2676 40.2713 10.1781C40.5079 10.0885 40.6645 10.0022 40.6613 9.92224C40.6581 9.84231 40.8915 9.67282 41.288 9.57685C41.6045 9.48408 41.9178 9.31138 41.9146 9.23145C41.905 8.99164 42.602 8.40323 43.1551 8.22091C43.4749 8.20808 43.7882 8.03538 43.8617 7.8723C43.9384 7.78916 44.1718 7.61967 44.3317 7.61325C44.4916 7.60684 44.6482 7.52049 44.6418 7.36062C44.6322 7.12081 44.7857 6.95453 45.099 6.78183C45.4123 6.60913 45.6457 6.43964 45.6425 6.3597C45.6393 6.27977 45.796 6.19342 45.9558 6.187C46.1157 6.18059 46.429 6.00789 46.656 5.67853C46.9661 5.42589 47.2795 5.25319 47.3594 5.24999C47.5193 5.24357 47.596 5.16043 47.5928 5.08049C47.5864 4.92062 47.8198 4.75113 47.9797 4.74471C48.2195 4.73509 48.3825 4.80862 48.5488 4.96208C48.632 5.0388 48.7151 5.11553 48.795 5.11233C48.875 5.10912 48.8718 5.02918 48.8621 4.78938C48.8525 4.54957 48.926 4.38649 49.0028 4.30335C49.2362 4.13385 49.8949 4.58781 49.9141 5.06743C49.9238 5.30724 50.0069 5.38396 50.1668 5.37755C50.4865 5.36472 50.5218 6.24402 50.1414 6.73966C49.9879 6.90595 49.6778 7.15858 49.5179 7.165C49.358 7.17141 49.2781 7.17462 49.2813 7.25455C49.4508 7.48795 49.227 7.89725 48.7602 8.23623C48.5268 8.40572 47.9833 8.82785 47.6796 9.24036C47.3727 9.57293 46.9826 9.82877 46.8228 9.83518C46.6629 9.8416 46.5862 9.92474 46.6725 10.0814C46.7589 10.2381 46.6821 10.3212 46.5223 10.3276C46.3624 10.334 46.2857 10.4172 46.2921 10.5771C46.2985 10.7369 46.1418 10.8233 45.9852 10.9096C45.8285 10.996 45.6718 11.0823 45.5983 11.2454C45.6015 11.3253 45.4481 11.4916 45.3681 11.4948C45.2882 11.498 45.0548 11.6675 44.8246 11.917C44.5944 12.1664 44.2076 12.5022 43.8943 12.6749C43.6609 12.8444 43.4275 13.0138 43.4307 13.0938C43.4339 13.1737 43.2037 13.4231 42.9703 13.5926C42.657 13.7653 42.5835 13.9284 42.7433 13.922C42.9032 13.9156 43.1366 13.7461 43.37 13.5766C43.5234 13.4103 43.7568 13.2408 43.8368 13.2376C43.9966 13.2312 44.0734 13.1481 44.0702 13.0681C44.067 12.9882 44.3004 12.8187 44.6169 12.7259C44.8535 12.6364 45.0869 12.4669 45.0837 12.3869C45.0805 12.307 45.2371 12.2207 45.3171 12.2175C45.4769 12.211 45.5569 12.2078 45.6336 12.1247C45.6272 11.9648 46.5608 11.2869 46.7206 11.2804C46.8006 11.2772 47.034 11.1077 47.3441 10.8551C47.5743 10.6057 47.8876 10.433 47.8876 10.433C48.0475 10.4266 49.2944 9.5759 49.6013 9.24333C49.7547 9.07704 49.9913 8.98748 50.1512 8.98107C50.3111 8.97466 50.3878 8.89151 50.3846 8.81158C50.3782 8.65171 51.5516 7.96412 51.8713 7.95129C51.9513 7.94808 52.028 7.86494 52.0216 7.70507C52.0152 7.5452 52.0919 7.46206 52.3349 7.53237C52.4148 7.52916 52.7282 7.35647 52.9583 7.10704C53.4219 6.68812 56.0021 5.14344 56.4018 5.12741C56.4817 5.1242 56.5584 5.04106 56.5552 4.96112C56.5488 4.80125 56.7854 4.7117 57.1051 4.69887C57.6647 4.67642 58.3905 4.80743 58.6432 5.11755C58.6464 5.19749 58.5761 5.4405 58.5057 5.68352C58.2788 6.01288 58.282 6.09282 58.6113 6.31979C59.1038 6.6203 58.5092 7.76505 57.8697 7.79071C57.7898 7.79391 57.7898 7.79391 57.7098 7.79712C57.3869 7.73001 57.3869 7.73001 57.5564 7.96341C57.7227 8.11686 57.7259 8.1968 57.5724 8.36308C57.419 8.52937 57.1888 8.7788 57.0353 8.94508C56.8818 9.11137 56.5749 9.44394 56.2648 9.69657C56.0346 9.946 55.6542 10.4416 55.4208 10.6111C55.1906 10.8606 54.9604 11.11 54.8805 11.1132C54.8006 11.1164 54.2602 11.6185 53.6432 12.2037C53.1061 12.7857 52.6457 13.2845 52.0223 13.7099C51.7921 13.9593 51.5619 14.2087 51.4085 14.375C51.2518 14.4614 51.1015 14.7076 51.028 14.8707C50.9545 15.0337 50.6412 15.2064 50.3214 15.2193C49.8418 15.2385 49.7651 15.3216 49.7811 15.7213C49.7108 15.9643 49.5638 16.2905 49.4103 16.4568C49.2568 16.6231 49.3336 16.5399 49.6469 16.3672C49.957 16.1146 50.2703 15.9419 50.3503 15.9387C50.4302 15.9355 50.6636 15.766 50.8171 15.5997C51.0505 15.4302 51.3638 15.2575 51.5237 15.2511C51.7635 15.2415 51.9201 15.1551 51.9904 14.9121C51.9872 14.8322 52.2942 14.4996 52.6107 14.4068C52.924 14.2341 53.2374 14.0614 53.2309 13.9016C53.2277 13.8216 53.3077 13.8184 53.4675 13.812C53.5475 13.8088 53.7041 13.7225 53.7009 13.6425C53.6977 13.5626 53.7712 13.3995 54.0111 13.3899C54.1677 13.3035 54.481 13.1308 54.5578 13.0477C54.7144 12.9613 55.1812 12.6224 55.6512 12.3633C56.0413 12.1075 56.5113 11.8484 56.5081 11.7685C56.7383 11.5191 57.5983 11.0042 57.9148 10.9114C58.1514 10.8218 58.3081 10.7355 58.3049 10.6556C58.3017 10.5756 58.5351 10.4061 58.7717 10.3166C59.0083 10.227 59.2417 10.0575 59.2385 9.97759C59.2353 9.89766 59.3919 9.81131 59.6285 9.72175C59.8683 9.71213 60.2584 9.45629 60.4118 9.29001C60.5653 9.12372 60.8019 9.03416 60.9618 9.02775C61.0417 9.02454 61.2751 8.85505 61.3486 8.69197C61.7291 8.19632 62.5923 7.76137 63.1551 7.81886C63.315 7.81244 63.3981 7.88917 63.478 7.88597C63.6379 7.87955 63.6315 7.71968 63.6219 7.47987C63.609 7.16013 63.6826 6.99705 63.8424 6.99064C63.9224 6.98743 64.0822 6.98102 64.079 6.90108C64.0758 6.82115 64.3859 6.56851 64.8591 6.3894C65.2492 6.13356 65.7192 5.87451 65.716 5.79457C65.7895 5.63149 66.0261 5.54194 66.2659 5.53232C66.5057 5.5227 66.5825 5.43955 66.576 5.27968C66.5728 5.19975 66.6464 5.03667 66.8062 5.03025C66.8862 5.02705 67.2794 4.85114 67.6663 4.51536C68.2929 4.16997 68.3729 4.16676 68.9324 4.14431C69.0923 4.1379 69.2554 4.21142 69.3353 4.20821C69.4952 4.2018 69.4888 4.04192 69.4791 3.80212C69.3832 3.40565 69.4599 3.3225 69.6965 3.23295C69.8564 3.22653 70.013 3.14019 70.0898 3.05704C70.3167 2.72768 71.1065 2.4558 71.746 2.43015C72.2256 2.4109 72.6317 2.55474 72.718 2.71141C72.8012 2.78813 72.9675 2.94159 73.1305 3.01512C73.6166 3.15574 73.7157 3.63215 73.4088 3.96472C73.3353 4.1278 73.1851 4.37402 73.1915 4.53389C73.1979 4.69376 73.1212 4.77691 73.0444 4.86005C72.8878 4.9464 72.8142 5.10948 72.9006 5.26614C72.907 5.42601 72.8335 5.58909 72.6001 5.75858C72.3635 5.84814 72.2132 6.09436 72.2164 6.1743C72.2261 6.4141 70.6947 8.15689 70.4549 8.16651C70.3749 8.16972 70.2215 8.33601 70.1512 8.57902C70.0777 8.7421 69.9242 8.90838 69.7643 8.9148C69.6045 8.92121 69.5277 9.00435 69.5309 9.08429C69.5373 9.24416 69.3839 9.41045 69.0706 9.58314C68.8372 9.75264 68.6837 9.91892 68.7636 9.91571C68.85 10.0724 67.3857 11.4922 66.839 11.8344C66.6024 11.924 66.3754 12.2533 66.3051 12.4963C66.1581 12.8225 66.0046 12.9888 65.7648 12.9984C65.525 13.008 65.3683 13.0944 65.3748 13.2542C65.3876 13.574 63.7731 15.24 63.3734 15.2561C63.2935 15.2593 63.14 15.4256 62.9897 15.6718C62.8491 16.1578 62.2992 16.4201 61.8196 16.4393C61.5766 16.369 61.5766 16.369 61.826 16.5992C61.9955 16.8326 61.9987 16.9125 61.842 16.9989C61.6854 17.0852 61.6086 17.1684 61.6886 17.1652C62.1682 17.1459 63.4982 16.372 63.722 15.9627C63.869 15.6365 64.3358 15.2975 64.7355 15.2815C64.8154 15.2783 64.8954 15.2751 64.9785 15.3518C65.3015 15.4189 65.3015 15.4189 65.2918 15.1791C65.2758 14.7794 65.8896 14.1143 66.7529 13.6793C67.2261 13.5002 67.533 13.1677 67.5298 13.0877C67.5266 13.0078 67.6801 12.8415 67.8399 12.8351C67.9966 12.7487 68.3067 12.4961 68.5401 12.3266C68.7703 12.0772 69.0037 11.9077 69.0836 11.9045C69.1636 11.9013 69.397 11.7318 69.6271 11.4824C69.7806 11.3161 70.0907 11.0634 70.2506 11.057C70.4105 11.0506 70.5671 10.9643 70.6439 10.8811C70.7174 10.718 70.8708 10.5518 71.0307 10.5453C71.1874 10.459 71.5742 10.1232 71.8811 9.79064C72.268 9.45487 72.6548 9.11909 72.7348 9.11588C72.8147 9.11268 72.9746 9.10626 72.9714 9.02633C72.9618 8.78652 73.825 8.35157 74.2247 8.33553C74.3846 8.32912 74.618 8.15962 74.6915 7.99655C74.8449 7.83026 75.0783 7.66077 75.3181 7.65115C75.478 7.64473 75.6347 7.55839 75.6315 7.47845C75.6154 7.07877 75.609 6.9189 75.9223 6.7462C76.0822 6.73978 76.3156 6.57029 76.4691 6.40401C77.0861 5.8188 77.7096 5.39347 77.9494 5.38385C78.1092 5.37743 78.186 5.29429 78.1028 5.21756C78.0197 5.14083 78.1731 4.97455 78.4097 4.88499C78.6463 4.79544 79.0364 4.53959 79.1898 4.37331C79.3465 4.28696 79.7366 4.03112 80.0563 4.01829C80.3728 3.92553 80.6062 3.75603 80.6798 3.59296C80.6701 3.35315 80.8268 3.2668 81.2265 3.25077C81.6262 3.23473 81.7828 3.14838 81.8564 2.9853C81.9299 2.82222 82.0066 2.73908 82.2528 2.88933C82.4159 2.96285 82.5758 2.95644 82.6557 2.95323C82.6525 2.8733 82.8188 3.02676 82.9083 3.26336C82.9947 3.42002 83.1642 3.65341 83.2441 3.65021C83.4839 3.64059 83.4232 4.12341 83.1099 4.29611C82.9597 4.54233 82.8797 4.54553 83.1291 4.77572C83.2986 5.00911 83.3019 5.08905 82.8415 5.58791C82.5314 5.84054 82.2276 6.25305 82.071 6.33939C81.4571 7.00454 80.6867 7.75603 80.5268 7.76244C80.3669 7.76885 80.2902 7.852 80.2934 7.93193C80.303 8.17174 78.5318 9.92415 78.2185 10.0968C78.1386 10.1001 77.9084 10.3495 77.8349 10.5126C77.7613 10.6756 77.5344 11.005 77.2178 11.0978C76.9844 11.2673 76.751 11.4368 76.7542 11.5167C76.7639 11.7565 76.134 12.022 75.6544 12.0412C75.4945 12.0476 75.5009 12.2075 75.5105 12.4473C75.6033 12.7638 75.5298 12.9269 75.29 12.9365C75.1333 13.0229 74.9799 13.1892 74.9863 13.349C74.9895 13.429 74.9128 13.5121 74.8328 13.5153C74.6729 13.5217 74.5195 13.688 74.3692 13.9342C74.219 14.1805 73.9057 14.3532 73.7458 14.3596C73.5859 14.366 73.4292 14.4523 73.4325 14.5323C73.4357 14.6122 73.2854 14.8584 73.132 15.0247C72.9018 15.2741 72.7515 15.5204 72.7547 15.6003C72.7579 15.6802 72.6812 15.7634 72.6013 15.7666C72.5213 15.7698 72.2911 16.0192 72.061 16.2686C71.8308 16.5181 71.5207 16.7707 71.4407 16.7739C71.3608 16.7771 71.2841 16.8603 71.2873 16.9402C71.2905 17.0201 71.1338 17.1065 70.9771 17.1928C70.8173 17.1992 70.667 17.4455 70.6734 17.6053C70.6798 17.7652 70.5264 17.9315 70.3697 18.0178C70.0564 18.1905 70.1427 18.3472 70.4625 18.3344C70.5424 18.3312 70.6224 18.328 70.779 18.2416C70.9325 18.0753 71.1659 17.9058 71.1595 17.746C71.1563 17.666 71.3065 17.4198 71.623 17.327C71.8564 17.1576 72.2465 16.9017 72.4767 16.6523C72.6269 16.4061 73.017 16.1502 73.3335 16.0575C73.5701 15.9679 73.8035 15.7984 73.8003 15.7185C73.7907 15.4787 74.8777 14.6344 75.4341 14.532C75.5907 14.4457 75.7442 14.2794 75.741 14.1995C75.7346 14.0396 75.8113 13.9564 75.9712 13.95C76.131 13.9436 76.5211 13.6878 77.2916 12.9363C77.5985 12.6037 77.915 12.511 78.1548 12.5013C78.3179 12.5749 78.3946 12.4917 78.3882 12.3318C78.3051 12.2551 78.4585 12.0888 78.7719 11.9161C79.0884 11.8234 79.3985 11.5707 79.5488 11.3245C79.7022 11.1582 79.9356 10.9887 80.0156 10.9855C80.0955 10.9823 80.5591 10.5634 80.6358 10.4803C80.8724 10.3907 81.1825 10.1381 81.336 9.97178C81.4862 9.72556 81.7996 9.55286 81.9562 9.46651C82.1961 9.45689 82.3495 9.2906 82.3463 9.21067C82.3431 9.13073 82.4998 9.04438 82.5797 9.04117C82.7396 9.03476 82.8163 8.95162 82.8131 8.87168C82.8099 8.79175 82.8866 8.7086 83.0465 8.70219C83.2064 8.69578 83.2831 8.61263 83.2799 8.5327C83.2767 8.45276 83.3534 8.36962 83.4333 8.36641C83.5932 8.36 83.8298 8.27044 83.9833 8.10416C84.0536 7.86114 84.2902 7.77159 84.3701 7.76838C84.53 7.76197 84.6866 7.67562 84.7602 7.51254C84.8305 7.26952 85.9239 6.58514 86.2405 6.49238C86.7201 6.47314 87.0302 6.2205 87.0206 5.9807C87.0142 5.82082 87.3211 5.48825 87.6344 5.31555C87.9445 5.06292 88.1747 4.81349 88.1747 4.81349C88.1715 4.73355 88.3282 4.64721 88.4081 4.644C88.488 4.64079 89.038 4.37854 89.5879 4.11628C90.0579 3.85723 90.3744 3.76447 90.6942 3.75164C91.0139 3.73881 91.2633 3.969 91.6023 4.43579C91.6919 4.67239 91.8614 4.90578 91.9445 4.98251C92.0277 5.05924 92.0341 5.21911 91.8838 5.46533C91.8103 5.62841 91.74 5.87142 91.7432 5.95136C91.8263 6.02809 91.5994 6.35745 91.3724 6.68681C91.0655 7.01938 90.9152 7.2656 90.9184 7.34554C91.008 7.58214 90.0712 8.18017 89.745 8.03313C89.6651 8.03634 89.5852 8.03954 89.5852 8.03954C89.4253 8.04596 89.4285 8.12589 89.5181 8.36249C89.614 8.75897 89.24 9.41449 88.8403 9.43052C88.7604 9.43373 88.6837 9.51687 88.6102 9.67995C88.5462 10.0828 86.7751 11.8352 86.5353 11.8449C86.4553 11.8481 86.3786 11.9312 86.465 12.0879C86.4682 12.1678 86.4746 12.3277 86.3946 12.3309C86.2348 12.3373 85.1541 13.3414 85.1606 13.5013C85.1638 13.5812 85.3204 13.4949 85.4739 13.3286C85.5506 13.2455 85.9407 12.9896 86.1773 12.9001C86.4938 12.8073 86.6473 12.641 86.6441 12.5611C86.6312 12.2413 87.098 11.9024 87.4977 11.8863C87.4977 11.8863 87.5776 11.8831 87.6576 11.8799C87.7375 11.8767 87.8174 11.8735 87.8174 11.8735C87.9773 11.8671 88.054 11.7839 88.0476 11.6241C88.038 11.3843 88.5048 11.0453 88.8245 11.0324C88.9045 11.0292 88.9844 11.026 88.9876 11.106C89.0676 11.1028 89.0676 11.1028 88.9812 10.9461C88.8053 10.5528 90.4326 9.20651 91.1521 9.17765C91.3119 9.17123 91.4686 9.08489 91.4622 8.92501C91.4526 8.68521 92.0728 8.17994 92.4725 8.1639C92.7123 8.15428 92.8689 8.06793 92.9425 7.90485C93.016 7.74177 93.3325 7.64901 93.5723 7.63939C94.052 7.62015 94.5412 7.84072 94.4741 8.16366C94.4006 8.32674 94.4837 8.40347 94.7267 8.47379C95.0529 8.62083 95.1552 9.17717 94.7588 9.27314C94.6821 9.35629 94.6085 9.51936 94.6917 9.59609C94.7812 9.83269 93.5568 11.2429 93.237 11.2557C93.1571 11.2589 93.0804 11.3421 93.0868 11.502C93.09 11.5819 92.9429 11.9081 92.6328 12.1607C92.3259 12.4933 92.2524 12.6563 92.4123 12.6499C92.6521 12.6403 93.2755 12.215 93.5025 11.8856C93.656 11.7193 93.9725 11.6266 94.532 11.6041C94.6919 11.5977 94.8518 11.5913 94.9317 11.5881C95.1715 11.5785 95.2483 11.4953 95.1651 11.4186C94.9189 11.2683 95.0563 10.7024 95.2162 10.696C95.2961 10.6927 95.6062 10.4401 95.9899 10.0244C96.2968 9.69183 96.7636 9.35284 96.9235 9.34643C97.1601 9.25687 97.3934 9.08738 97.5469 8.92109C97.6204 8.75802 97.8538 8.58852 98.0936 8.5789C98.4134 8.56608 98.7203 8.23351 98.554 8.08005C98.5508 8.00011 98.7842 7.83062 99.2542 7.57157C99.6474 7.39566 100.121 7.21655 100.197 7.13341C100.277 7.1302 100.354 7.04706 100.434 7.04385C100.514 7.04065 100.677 7.11417 100.76 7.1909C101.003 7.26121 101.086 7.33794 101.24 7.17165C101.316 7.08851 101.316 7.08851 101.396 7.08531C101.716 7.07248 102.071 7.93894 101.764 8.27151C101.608 8.35786 101.614 8.51773 101.863 8.74792C102.196 9.05484 102.122 9.21791 101.199 10.1357C100.815 10.5514 100.511 10.9639 100.514 11.0438C100.521 11.2037 100.367 11.37 100.131 11.4596C99.8941 11.5491 99.7407 11.7154 99.7439 11.7953C99.7471 11.8753 99.6704 11.9584 99.4306 11.968C99.2707 11.9744 99.194 12.0576 99.2036 12.2974C99.2196 12.6971 98.6058 13.3622 98.1262 13.3815ZM99.098 11.6611C99.0181 11.6643 99.0181 11.6643 99.0213 11.7443C99.0213 11.7443 99.0245 11.8242 99.1044 11.821L99.1811 11.7378C99.1779 11.6579 99.098 11.6611 99.098 11.6611ZM72.5369 12.1663C72.4538 12.0895 72.457 12.1695 72.4602 12.2494C72.4666 12.4093 72.4666 12.4093 72.5433 12.3261C72.6232 12.3229 72.62 12.243 72.5369 12.1663ZM70.916 13.6725C70.6794 13.762 70.6826 13.8419 70.8424 13.8355C70.9224 13.8323 71.159 13.7428 71.2357 13.6596C71.3924 13.5733 71.3892 13.4933 71.3092 13.4965C71.3092 13.4965 71.1526 13.5829 70.916 13.6725ZM68.322 6.89098C68.2421 6.89419 68.2421 6.89419 68.2453 6.97413C68.2453 6.97413 68.2485 7.05406 68.3285 7.05086L68.4052 6.96771C68.402 6.88778 68.322 6.89098 68.322 6.89098ZM34.7619 8.55764C34.6787 8.48091 34.602 8.56405 34.6052 8.64399C34.6116 8.80386 34.6916 8.80065 34.7715 8.79744C34.7683 8.71751 34.7651 8.63757 34.7619 8.55764ZM33.9882 9.22919C33.9082 9.2324 33.9114 9.31233 34.0713 9.30592C34.2312 9.29951 34.3111 9.2963 34.3079 9.21636C34.2248 9.13963 34.1448 9.14284 33.9882 9.22919ZM18.6508 16.0895C18.881 15.8401 19.1144 15.6706 19.0345 15.6738C18.9481 15.5171 18.2512 16.1056 18.2576 16.2654C18.264 16.4253 18.4175 16.259 18.6508 16.0895ZM19.4884 15.0151C19.5684 15.0119 19.5652 14.9319 19.5652 14.9319C19.562 14.852 19.562 14.852 19.482 14.8552C19.482 14.8552 19.4021 14.8584 19.4053 14.9384L19.4884 15.0151ZM20.1151 14.6697C20.275 14.6633 20.3517 14.5801 20.2718 14.5833C20.2686 14.5034 20.1087 14.5098 20.032 14.593C19.8721 14.5994 19.9552 14.6761 20.1151 14.6697ZM23.6259 14.3687C23.7793 14.2024 23.6162 14.1289 23.3861 14.3783C23.2294 14.4647 23.2358 14.6246 23.2518 15.0242C23.255 15.1042 23.3382 15.1809 23.4981 15.1745C23.578 15.1713 23.5716 15.0114 23.5652 14.8515C23.5588 14.6917 23.5523 14.5318 23.6259 14.3687ZM24.326 13.8602C24.4827 13.7739 24.4795 13.6939 24.3996 13.6972C24.3196 13.7004 24.163 13.7867 24.0063 13.8731C23.9296 13.9562 23.8528 14.0393 23.9328 14.0361C24.0127 14.0329 24.1694 13.9466 24.326 13.8602ZM36.742 16.0042C36.8219 16.001 36.8986 15.9179 36.8954 15.838C36.8922 15.758 36.8091 15.6813 36.7291 15.6845C36.6492 15.6877 36.5725 15.7709 36.5757 15.8508C36.5789 15.9307 36.662 16.0075 36.742 16.0042ZM42.4364 14.2546C42.5163 14.2514 42.5931 14.1682 42.5099 14.0915C42.43 14.0947 42.3501 14.0979 42.2701 14.1011C42.2733 14.181 42.2765 14.261 42.4364 14.2546ZM48.7933 17.042C48.7933 17.042 48.8732 17.0388 48.87 16.9588L48.7868 16.8821C48.7069 16.8853 48.7101 16.9653 48.7101 16.9653C48.7133 17.0452 48.7133 17.0452 48.7933 17.042ZM49.1796 12.703C48.9494 12.9524 48.8727 13.0356 48.9527 13.0324C49.0326 13.0292 49.1093 12.946 49.2692 12.9396C49.5058 12.8501 49.7424 12.7605 49.8191 12.6774C49.9726 12.5111 49.8926 12.5143 49.7328 12.5207C49.6528 12.5239 49.413 12.5335 49.1796 12.703ZM61.0811 17.9902C61.241 17.9838 61.2378 17.9038 61.1547 17.8271C61.1547 17.8271 61.0747 17.8303 60.9948 17.8335C60.9181 17.9166 61.0012 17.9934 61.0811 17.9902ZM67.892 20.1189C68.0518 20.1124 68.1318 20.1092 68.0486 20.0325C68.0486 20.0325 67.8887 20.0389 67.8088 20.0421C67.6521 20.1285 67.7321 20.1253 67.892 20.1189ZM69.1389 19.2682C69.2156 19.185 69.2124 19.1051 69.1324 19.1083C69.0493 19.0316 69.0493 19.0316 69.0557 19.1915C69.0589 19.2714 69.0621 19.3513 69.1389 19.2682ZM69.9089 14.5135C69.9153 14.6734 69.9952 14.6702 70.1487 14.5039C70.3053 14.4175 70.3789 14.2545 70.2989 14.2577C70.2126 14.101 69.9025 14.3536 69.9089 14.5135ZM77.2373 13.579C77.2373 13.579 77.3172 13.5758 77.314 13.4958L77.2309 13.4191C77.151 13.4223 77.1542 13.5023 77.1542 13.5023C77.1574 13.5822 77.1574 13.5822 77.2373 13.579ZM82.1521 16.3442C82.1521 16.3442 82.1521 16.3442 82.1457 16.1843C82.0658 16.1875 82.0658 16.1875 82.069 16.2675C82.0722 16.3474 82.0722 16.3474 82.1521 16.3442ZM83.6447 11.6406C83.6447 11.6406 83.7247 11.6374 83.7215 11.5574L83.6383 11.4807C83.5584 11.4839 83.5616 11.5638 83.5616 11.5638C83.5648 11.6438 83.5648 11.6438 83.6447 11.6406ZM84.2366 14.4191C84.2366 14.4191 84.2334 14.3391 84.2302 14.2592C84.1503 14.2624 84.1503 14.2624 84.1535 14.3423C84.1535 14.3423 84.1567 14.4223 84.2366 14.4191ZM86.9001 14.9527C87.06 14.9463 87.0568 14.8664 87.0536 14.7865C86.9737 14.7897 86.8937 14.7929 86.8138 14.7961C86.7371 14.8792 86.8202 14.9559 86.9001 14.9527ZM90.721 14.3991C91.1111 14.1433 91.1111 14.1433 90.7114 14.1593C90.4716 14.1689 90.3149 14.2553 90.2414 14.4184C90.2446 14.4983 90.2478 14.5782 90.2478 14.5782C90.3278 14.575 90.4844 14.4887 90.721 14.3991ZM92.1853 12.9793C92.3419 12.8929 92.4219 12.8897 92.3387 12.813C92.1789 12.8194 91.9487 13.0688 91.7952 13.2351C91.4883 13.5677 91.4915 13.6476 91.7313 13.638C91.8113 13.6348 91.9679 13.5485 91.9615 13.3886C91.9583 13.3086 92.0318 13.1456 92.1853 12.9793Z" fill="#0F0404"/>
</svg>
