<svg fill="none" height="21" viewBox="0 0 115 21" width="115" xmlns="http://www.w3.org/2000/svg">
  <path
    d="M19.3384 5.01899C19.2594 4.938 19.1794 4.93702 19.0975 5.09602C19.0965 5.17601 18.9355 5.25403 18.8555 5.25305C18.6155 5.25009 18.2975 5.08615 18.1395 4.92419C17.9035 4.60125 17.9035 4.60125 17.8195 4.92024C17.7366 5.15924 17.5756 5.23726 17.2556 5.23331C15.7348 5.29456 15.4148 5.29061 15.1728 5.44764C15.0128 5.44566 14.7728 5.4427 14.6138 5.36074C14.3758 5.19779 14.2949 5.2768 14.2139 5.3558C14.2119 5.51579 13.651 5.58888 12.85 5.659C12.1291 5.73012 11.3282 5.80024 11.0872 5.87728C10.7672 5.87333 9.16637 5.93359 9.00441 6.0916C9.00342 6.1716 8.52247 6.24567 7.96251 6.23877C6.84161 6.30494 4.59783 6.59729 4.19589 6.75235C4.1159 6.75136 4.03492 6.83037 3.95492 6.82938C3.87493 6.82839 3.79592 6.74741 3.47693 6.66347C3.23794 6.58052 3.15696 6.65952 3.15498 6.81951C3.15301 6.9795 3.07203 7.05851 2.99204 7.05752C2.91204 7.05653 2.83205 7.05555 2.75304 6.97457C2.75403 6.89457 2.43504 6.81063 2.19506 6.80767C1.71509 6.80175 1.47807 6.55881 1.56399 6.07983C1.64497 6.00082 1.56695 5.83985 1.40794 5.75788C1.00995 5.59296 1.33486 5.19694 1.81482 5.20286C2.0548 5.20582 2.21578 5.1278 2.21676 5.04781C2.2217 4.64784 2.8656 4.33575 3.34556 4.34167C3.50555 4.34365 3.66455 4.42562 3.74356 4.5066C3.90256 4.58856 3.98255 4.58955 3.98452 4.42956C3.98847 4.10959 4.22845 4.11255 6.55222 3.82119C7.35315 3.75106 8.15408 3.68093 8.31505 3.60291C8.63601 3.52687 8.71699 3.44786 10.0779 3.38464C11.8407 3.16637 11.9207 3.16735 13.2826 3.02414C13.7635 2.95007 14.3235 2.95697 14.6435 2.96092C14.8034 2.96289 14.8834 2.96388 14.9634 2.96487C15.2034 2.96783 15.4434 2.97079 15.4444 2.89079C15.4454 2.8108 16.0063 2.73771 16.6472 2.66561C17.2872 2.67351 17.9281 2.60141 18.1691 2.52437C18.969 2.53424 19.849 2.54509 20.6489 2.55496C20.7279 2.63594 20.8079 2.63693 20.8089 2.55693C20.8109 2.39695 21.0518 2.31991 21.2918 2.32287C21.3718 2.32386 21.4518 2.32485 21.5308 2.40583C21.6098 2.48681 21.6898 2.48779 21.7718 2.32879C21.8528 2.24979 22.0128 2.25176 22.2518 2.33471C22.4907 2.41767 22.6507 2.41964 22.7317 2.34063C22.8127 2.26163 23.4536 2.18953 24.1736 2.19841C24.8945 2.1273 25.4545 2.1342 25.4555 2.05421C25.4564 1.97421 25.8564 1.97915 26.4174 1.90606C27.2973 1.91691 29.2181 1.8606 29.5391 1.78456C29.6991 1.78653 29.7791 1.78752 29.9391 1.78949C30.579 1.79738 31.137 1.96428 31.215 2.12525C31.2921 2.36622 31.372 2.36721 31.536 2.04921C31.6989 1.8112 31.7789 1.81218 31.9369 1.97415C32.0959 2.05611 32.1749 2.13709 32.3349 2.13907C32.4149 2.14005 32.4959 2.06105 32.5789 1.82205C32.6608 1.66305 32.9018 1.58602 33.3018 1.59095C33.5417 1.59391 33.9407 1.67884 34.2597 1.76278C34.4187 1.84475 34.5787 1.84672 34.5797 1.76673C34.5807 1.68673 34.7407 1.68871 34.9807 1.69167C35.0606 1.69265 35.2206 1.69463 35.3006 1.69561C35.7006 1.70055 36.1016 1.62549 36.1815 1.62647C36.2625 1.54747 37.1425 1.55832 38.1034 1.49017C39.1433 1.50299 39.9432 1.51286 40.0242 1.43385C40.7442 1.44274 41.5431 1.5326 42.2621 1.62147C42.582 1.62542 42.902 1.62937 42.903 1.54937C42.904 1.46938 43.145 1.39234 43.3849 1.3953C43.6249 1.39826 44.6649 1.41109 45.6258 1.34294C46.1857 1.34985 46.5857 1.35478 46.8257 1.35774C47.6256 1.36761 47.7846 1.44957 47.9397 1.85152C48.0177 2.01249 48.1767 2.09446 48.2567 2.09545C48.3367 2.09643 48.4177 2.01743 48.3406 1.77646C48.2646 1.45549 48.6665 1.30044 50.4264 1.32215C51.3863 1.33399 52.7462 1.35076 53.3871 1.27866C54.0271 1.28656 54.6671 1.29445 54.8261 1.37642C54.9851 1.45839 55.065 1.45937 55.066 1.37938C55.067 1.29939 55.147 1.30037 55.307 1.30235C55.627 1.30629 56.026 1.39122 56.185 1.47319C56.265 1.47417 56.4249 1.47615 56.5059 1.39714C56.5869 1.31813 56.8279 1.2411 57.0679 1.24406C57.3878 1.24801 57.7858 1.41293 57.8638 1.5739C57.9419 1.73488 58.0219 1.73586 58.1048 1.49687C58.1868 1.33787 58.4268 1.34083 59.7067 1.35662C61.7055 1.46128 61.7055 1.46128 61.7036 1.62127C61.7026 1.70126 61.7816 1.78224 61.9416 1.78421C62.1016 1.78619 62.1825 1.70718 62.1835 1.62719C62.1845 1.54719 62.4255 1.47016 62.6655 1.47312C62.9854 1.47707 63.3044 1.56101 63.3834 1.64199C63.4624 1.72297 63.6224 1.72494 63.7834 1.64692C63.8644 1.56791 64.1044 1.57087 64.4243 1.57482C65.3043 1.58568 66.5822 1.76145 66.7392 2.00341C66.8172 2.16438 66.9762 2.24635 67.0582 2.08735C67.2192 2.00933 67.2992 2.01031 67.3762 2.25128C67.5323 2.57323 68.3292 2.82308 68.9692 2.83097C69.1292 2.83295 69.3692 2.83591 69.5301 2.75789C69.6911 2.67987 70.1711 2.68579 70.571 2.69072C71.451 2.70158 72.4099 2.79341 72.5679 2.95537C72.7259 3.11733 72.8059 3.11832 72.8079 2.95833C72.8109 2.71835 73.6918 2.64921 74.5717 2.66006C75.6916 2.67388 76.9696 2.84965 77.2066 3.0926C77.3646 3.25456 77.5236 3.33652 77.6036 3.33751C77.6836 3.3385 77.6846 3.2585 77.8475 3.0205C78.0105 2.78249 78.1715 2.70447 79.2114 2.71729C79.3714 2.71927 79.6113 2.72223 79.7713 2.7242C80.3313 2.73111 80.9712 2.739 81.4522 2.66493C82.0921 2.67282 82.5721 2.67874 83.2101 2.84663C83.5281 3.01056 83.6881 3.01253 83.7691 2.93353C83.85 2.85452 84.01 2.85649 84.09 2.85748C84.249 2.93945 84.409 2.94142 84.411 2.78143C84.412 2.70144 84.5729 2.62342 84.9729 2.62835C85.0529 2.62934 85.1329 2.63033 85.2129 2.63131C85.4529 2.63427 85.6928 2.63723 85.7738 2.55823C85.8538 2.55921 86.0938 2.56217 86.3318 2.72512C86.4898 2.88708 86.7298 2.89004 86.7308 2.81005C86.7318 2.73005 86.8928 2.65203 87.1327 2.65499C87.3727 2.65795 87.7717 2.74288 87.8497 2.90386C87.9268 3.14482 88.0068 3.14581 88.0877 3.0668C88.1697 2.9078 88.4897 2.91175 88.7297 2.91471C88.9687 2.99766 89.1286 2.99964 89.2106 2.84064C89.2926 2.68164 89.6135 2.60559 90.0935 2.61151C90.4135 2.61546 90.8125 2.70038 91.0515 2.78334C91.2105 2.86531 91.2905 2.86629 91.2914 2.7863C91.2924 2.7063 92.1733 2.63716 93.1333 2.64901C94.1732 2.66183 95.4531 2.67762 96.0131 2.68453C96.333 2.68847 96.734 2.61341 97.054 2.61736C98.0139 2.6292 99.0538 2.64203 100.014 2.65387C103.456 2.45632 106.897 2.41875 108.417 2.4375C109.297 2.44836 110.018 2.37724 110.018 2.37724C110.019 2.29725 110.979 2.30909 111.859 2.31994C112.819 2.33178 113.779 2.34363 113.778 2.42362C113.857 2.5046 114.016 2.58657 114.176 2.58854C114.576 2.59347 114.725 3.47538 114.403 3.63142C114.322 3.71043 114.24 3.86943 114.238 4.02942C114.39 4.67134 113.987 4.90639 112.547 4.88863C111.907 4.88074 111.186 4.95185 111.105 5.03086C111.025 5.02987 110.384 5.10197 109.664 5.09309C106.304 5.13164 104.623 5.19091 104.543 5.18993C104.543 5.18993 103.022 5.25117 101.181 5.30847C95.8205 5.32235 92.1388 5.43695 91.9769 5.59497C91.8969 5.59398 91.0959 5.66411 90.135 5.73226C89.2551 5.7214 88.2942 5.78956 87.9732 5.8656C87.4123 5.93869 86.6113 6.00882 85.8914 5.99994C85.1714 5.99106 84.6125 5.90416 84.5335 5.82318C84.3745 5.74121 84.2945 5.74022 84.2125 5.89922C84.0505 6.05724 83.8096 6.13427 83.5696 6.13131C83.4096 6.12934 83.2506 6.04737 83.1716 5.96639C82.9326 5.88343 82.9326 5.88343 82.7706 6.04145C82.6887 6.20045 82.3677 6.2765 81.0078 6.25972C80.7678 6.25676 80.5279 6.2538 80.2879 6.25084C79.7279 6.24393 79.3279 6.239 79.327 6.31899C79.246 6.398 79.086 6.39603 78.766 6.39208C78.606 6.39011 78.526 6.38912 78.366 6.38715C77.8861 6.38123 77.3251 6.45431 77.2451 6.45333C77.0842 6.53135 76.9242 6.52937 76.8462 6.3684C76.7672 6.28742 76.6872 6.28643 76.6052 6.44543C76.5232 6.60443 75.8023 6.67555 75.2423 6.66864C74.7624 6.66272 74.4434 6.57878 74.4444 6.49879C74.4454 6.41879 74.3654 6.4178 74.2034 6.57582C74.1214 6.73482 73.1595 6.88297 72.5996 6.87606C72.2796 6.87211 72.1196 6.87014 72.0406 6.78916C71.9616 6.70818 71.8806 6.78719 71.7187 6.9452C71.6377 7.02421 71.5567 7.10321 71.3967 7.10124C71.3167 7.10025 71.1577 7.01829 70.9177 7.01533C70.6787 6.93237 70.5187 6.9304 70.4388 6.92941C70.1988 6.92645 70.1178 7.00546 70.0368 7.08447C69.8758 7.16249 69.4749 7.23755 69.0739 7.31261C67.474 7.29287 67.0731 7.36793 66.5121 7.44102C66.1912 7.51707 65.9502 7.5941 66.0292 7.67508C66.1082 7.75606 66.1872 7.83704 66.2682 7.75804C66.3492 7.67903 66.4282 7.76001 66.5072 7.84099C66.5862 7.92197 66.7462 7.92394 67.0662 7.92789C67.1462 7.92888 67.3062 7.93085 67.4661 7.93282C67.9471 7.85875 68.2681 7.7827 68.588 7.78665C68.828 7.78961 68.987 7.87158 69.227 7.87454C69.307 7.87553 69.627 7.87947 69.7879 7.80145C70.1889 7.72639 70.9098 7.65528 71.6298 7.66416C72.6697 7.67699 73.7876 7.85079 73.8657 8.01176C74.1027 8.2547 74.1027 8.2547 74.2666 7.9367C74.3486 7.7777 74.4296 7.69869 74.5896 7.70067C74.5896 7.70067 74.7486 7.78264 74.8285 7.78362C74.9875 7.86559 75.1475 7.86756 75.3075 7.86954C75.4675 7.87151 75.6275 7.87348 75.7885 7.79546C75.9485 7.79744 76.1094 7.71942 76.1894 7.7204C76.3494 7.72238 76.4284 7.80336 76.5074 7.88434C76.6654 8.0463 76.7454 8.04729 76.8254 8.04827C76.8254 8.04827 76.9054 8.04926 76.9864 7.97025C77.0674 7.89124 77.2284 7.81322 77.3884 7.8152C77.4683 7.81618 77.5474 7.89717 77.7073 7.89914C77.9473 7.9021 78.1873 7.90506 78.1883 7.82506C78.2693 7.74606 78.5892 7.75 79.0692 7.75592C79.9491 7.76678 81.1481 7.86157 81.5461 8.0265C81.7051 8.10846 81.8651 8.11044 81.945 8.11142C82.105 8.1134 82.265 8.11537 82.507 7.95834C82.668 7.88032 82.9089 7.80329 83.0689 7.80526C83.1489 7.80625 83.3089 7.80822 83.4679 7.89019C83.6269 7.97216 84.1069 7.97808 84.7468 7.98597C84.9868 7.98893 85.2268 7.99189 85.4668 7.99485C87.3066 8.01755 88.8245 8.19628 88.9816 8.43824C88.9806 8.51823 89.1396 8.6002 89.2205 8.52119C89.3805 8.52317 89.5385 8.68513 89.6146 9.00609C89.6916 9.24706 89.8487 9.48901 89.8487 9.48901C90.0886 9.49197 90.0037 9.89096 89.7608 10.128C89.5998 10.206 89.5178 10.365 89.5958 10.526C89.5919 10.8459 87.5881 11.1413 87.2681 11.1373C86.9482 11.1334 86.7092 11.0504 86.7101 10.9704C86.7121 10.8104 86.7121 10.8104 86.6301 10.9694C86.4672 11.2074 85.3453 11.3536 82.8645 11.403C82.7045 11.401 82.7035 11.481 82.8616 11.643C83.0986 11.8859 83.0946 12.2059 82.6078 12.76C82.3628 13.157 82.2809 13.316 82.3599 13.3969C82.8359 13.7228 81.2212 14.903 80.5832 14.7351C80.5042 14.6542 80.3443 14.6522 80.3433 14.7322C80.3423 14.8122 79.9403 14.9672 79.3794 15.0403C78.4955 15.3494 77.5336 15.4976 76.5737 15.4857C76.2537 15.4818 76.0127 15.5588 76.0118 15.6388C76.0108 15.7188 75.8498 15.7968 75.6898 15.7949C75.5298 15.7929 75.1298 15.7879 74.8889 15.865C74.6479 15.942 73.766 16.0911 72.9651 16.1613C72.1632 16.3114 71.2822 16.3805 71.1213 16.4586C70.8803 16.5356 70.3203 16.5287 69.8394 16.6028C69.3594 16.5968 68.8785 16.6709 68.6375 16.7479C68.4755 16.906 68.1556 16.902 67.7556 16.8971C67.4356 16.8931 67.1157 16.8892 66.8776 16.7262C66.7186 16.6443 66.6396 16.5633 66.5596 16.5623C66.4796 16.5613 66.4777 16.7213 66.3957 16.8803C66.3118 17.1993 65.5898 17.3504 63.429 17.4038C62.9491 17.3978 62.6281 17.4739 62.6281 17.4739C62.6261 17.6339 61.7442 17.783 60.3033 17.8452C59.7424 17.9183 59.1815 17.9914 59.1005 18.0704C58.3005 18.0605 57.2596 18.1277 56.4567 18.3578C54.212 18.7302 53.491 18.8013 51.0892 18.9317C50.6883 19.0067 50.2873 19.0818 50.2863 19.1618C50.2854 19.2418 50.2054 19.2408 50.0454 19.2388C49.8854 19.2368 49.7254 19.2349 49.4864 19.1519C49.1664 19.148 48.7665 19.143 48.7655 19.223C48.6845 19.302 48.5235 19.3801 48.2835 19.3771C48.0435 19.3741 47.7246 19.2902 47.5665 19.1282C47.3305 18.8053 47.3404 18.0054 47.5023 17.8473C48.2302 17.2163 49.1941 16.9081 51.3578 16.6148C51.8388 16.5407 52.3207 16.3867 52.4017 16.3077C52.4827 16.2286 54.4035 16.1723 54.6435 16.1753C54.6445 16.0953 54.9655 16.0193 55.2054 16.0222C55.5264 15.9462 55.8464 15.9501 55.8474 15.8701C55.8484 15.7901 56.0083 15.7921 56.2483 15.7951C56.3283 15.796 56.4083 15.797 56.4883 15.798C56.8883 15.803 57.2882 15.8079 57.3692 15.7289C57.4502 15.6499 57.9312 15.5758 58.4921 15.5027C59.0521 15.5096 59.613 15.4365 59.694 15.3575C59.9349 15.2805 60.7369 15.1304 61.7768 15.1432C62.1768 15.1481 62.5777 15.0731 62.6587 14.9941C62.7397 14.9151 63.0606 14.839 63.4606 14.8439C63.9406 14.8499 64.2615 14.7738 64.3425 14.6948C64.4235 14.6158 64.5835 14.6178 64.8215 14.7807C64.9805 14.8627 65.0595 14.9437 65.1395 14.9447C65.2195 14.9456 65.3005 14.8666 65.4624 14.7086C65.5434 14.6296 65.7044 14.5516 65.9444 14.5546C66.0244 14.5555 66.1043 14.5565 66.1843 14.5575C66.4243 14.5605 66.6643 14.5634 66.7453 14.4844C66.8263 14.4054 67.3072 14.3314 67.8682 14.2583C68.4281 14.2652 69.0691 14.1931 69.23 14.1151C69.47 14.118 70.3519 13.9689 71.2338 13.8197C72.0347 13.7496 72.9967 13.6015 73.2376 13.5244C73.3986 13.4464 73.5586 13.4484 73.7186 13.4504C73.8786 13.4523 73.9586 13.4533 74.0376 13.5343C74.1176 13.5353 74.1975 13.5363 74.1975 13.5363C74.3575 13.5383 74.5175 13.5402 74.5985 13.4612C74.8405 13.3042 75.1614 13.2281 75.4014 13.2311C75.7214 13.235 75.9604 13.318 76.0394 13.399C76.1184 13.48 76.1984 13.481 76.1984 13.481C76.3584 13.4829 76.5193 13.4049 76.5223 13.1649C76.5243 13.0049 76.7652 12.9279 77.0062 12.8509C77.6471 12.7788 77.5691 12.6178 76.8502 12.5289C76.5302 12.525 76.1312 12.44 75.9732 12.2781C75.8942 12.1971 75.8142 12.1961 75.8142 12.1961C75.7342 12.1951 75.6542 12.1941 75.4923 12.3522C75.3303 12.5102 75.0893 12.5872 75.0103 12.5062C74.7713 12.4233 72.1335 12.2307 71.1736 12.2189C70.8536 12.2149 70.6136 12.212 70.3756 12.049C70.2176 11.8871 70.1376 11.8861 70.0576 11.8851C70.0576 11.8851 69.9776 11.8841 69.8966 11.9631C69.8147 12.1221 69.0937 12.1932 66.6139 12.1626C64.934 12.1419 63.0932 12.1992 62.5332 12.1923C61.3323 12.2575 59.0105 12.3889 57.5697 12.4511C57.0097 12.4442 56.4497 12.4373 56.3717 12.2763C56.2917 12.2753 56.2127 12.1943 56.1327 12.1934C56.0527 12.1924 55.9718 12.2714 55.8108 12.3494C55.4898 12.4254 54.4479 12.5726 53.808 12.5647C53.568 12.5618 53.408 12.5598 53.329 12.4788C53.25 12.3978 53.09 12.3958 52.929 12.4739C52.848 12.5529 52.6871 12.6309 52.6071 12.6299C52.5271 12.6289 52.4481 12.5479 52.3691 12.467C52.2111 12.305 52.2111 12.305 52.1291 12.464C52.1281 12.544 51.3272 12.6141 49.6463 12.6734C48.3664 12.6576 47.2465 12.6438 47.1655 12.7228C47.0045 12.8008 46.8446 12.7988 46.7656 12.7179C46.6865 12.6369 46.4466 12.6339 46.2066 12.631C46.0466 12.629 45.9666 12.628 45.8866 12.627C45.7266 12.625 45.5656 12.7031 45.4856 12.7021C45.2457 12.6991 45.1676 12.5381 45.0106 12.2962C44.9326 12.1352 44.6956 11.8923 44.5366 11.8103C44.3766 11.8083 44.2986 11.6474 44.3005 11.4874C44.3835 11.2484 43.6665 10.9995 43.1865 10.9936C43.0266 10.9916 42.8656 11.0696 42.7846 11.1486C42.6226 11.3067 41.9817 11.3788 41.2618 11.3699C40.4618 11.36 39.5829 11.2692 39.4258 11.0272C39.1898 10.7043 39.1898 10.7043 39.1859 11.0242C39.1819 11.3442 38.86 11.5003 38.22 11.4924C37.98 11.4894 37.7401 11.4864 37.4211 11.4025C37.0211 11.3976 36.6211 11.3926 36.5401 11.4716C36.3792 11.5497 35.9782 11.6247 35.4982 11.6188C34.4583 11.606 33.1814 11.3502 33.1843 11.1102C33.1863 10.9502 33.1883 10.7903 33.1883 10.7903C33.1083 10.7893 32.8673 10.8663 32.6264 10.9433C32.5464 10.9423 32.4664 10.9414 32.3864 10.9404C31.9064 10.9345 31.8314 10.5335 32.1582 9.97748C32.3202 9.81947 32.6451 9.42345 32.8081 9.18544C33.052 8.86842 33.2139 8.71041 33.293 8.79139C33.451 8.95335 34.1749 8.64226 34.1778 8.40227C34.1788 8.32228 34.0998 8.2413 34.0188 8.32031C33.8578 8.39833 33.1379 8.38945 32.337 8.45957C31.537 8.44971 30.7361 8.51983 30.5761 8.51786C30.4951 8.59687 30.4151 8.59588 30.3352 8.59489C30.1752 8.59292 30.0952 8.59193 30.0162 8.51095C29.7782 8.348 29.6982 8.34702 29.6972 8.42701C29.6952 8.587 29.2952 8.58207 28.8153 8.57615C28.3353 8.57023 27.8553 8.5643 27.8553 8.5643C27.6144 8.64134 25.7735 8.69864 24.4936 8.68285C24.0937 8.67792 23.6937 8.67298 23.5337 8.67101C23.3737 8.66903 22.8928 8.74311 22.4128 8.73719C22.1728 8.73423 21.9318 8.81126 21.8519 8.81027C21.5319 8.80633 21.4539 8.64535 21.2168 8.40241C20.9808 8.07948 20.9018 7.99849 20.8988 8.23848C20.8969 8.39846 20.7359 8.47649 20.4159 8.47254C20.1759 8.46958 19.7769 8.38465 19.5399 8.14171C19.3039 7.81877 19.1577 6.69688 19.3197 6.53887C19.5606 6.46184 19.5695 5.74189 19.3305 5.65894C19.2515 5.57796 19.2525 5.49796 19.4145 5.33995C19.4964 5.18095 19.4974 5.10095 19.3384 5.01899ZM65.0693 7.66324C65.0673 7.82323 65.0673 7.82323 65.2273 7.8252C65.3073 7.82619 65.4673 7.82816 65.6292 7.67015C65.8702 7.59311 65.7912 7.51213 65.5512 7.50917C65.3912 7.5072 65.1503 7.58423 65.0693 7.66324ZM64.5093 7.65633C64.2694 7.65337 64.1084 7.73139 64.1874 7.81237C64.2664 7.89336 64.2654 7.97335 64.3454 7.97433C64.5054 7.97631 64.5864 7.8973 64.7473 7.81928C64.9083 7.74126 64.8293 7.66028 64.5093 7.65633ZM63.3865 7.8825C63.3065 7.88151 63.3855 7.96249 63.4655 7.96348C63.6255 7.96545 63.6264 7.88546 63.5464 7.88447C63.5474 7.80448 63.4674 7.80349 63.3865 7.8825ZM62.9075 7.79659L62.8265 7.87559C62.8255 7.95559 62.9055 7.95657 62.9055 7.95657C62.9855 7.95756 62.9855 7.95756 62.9865 7.87757C62.9865 7.87757 62.9875 7.79757 62.9075 7.79659ZM60.5857 7.92796C60.5857 7.92796 60.5857 7.92796 60.5837 8.08795C60.6637 8.08893 60.6637 8.08893 60.6647 8.00894C60.6657 7.92894 60.6657 7.92894 60.5857 7.92796ZM43.6349 7.07882L43.5539 7.15783C43.5529 7.23782 43.6329 7.23881 43.6329 7.23881C43.7129 7.23979 43.7129 7.23979 43.7139 7.1598C43.7139 7.1598 43.7149 7.07981 43.6349 7.07882ZM36.3416 8.10894C36.2596 8.26794 36.4157 8.58989 36.6557 8.59285C36.7357 8.59384 36.7366 8.51384 36.7376 8.43385C36.7396 8.27386 36.5026 8.03092 36.3416 8.10894ZM35.7007 8.18104C35.7026 8.02105 35.4627 8.01809 35.3797 8.25709C35.3787 8.33708 35.4577 8.41806 35.5387 8.33906C35.6187 8.34004 35.6997 8.26103 35.7007 8.18104ZM22.0661 4.41258C21.9851 4.49159 22.0651 4.49258 22.1451 4.49356C22.3051 4.49554 22.3051 4.49554 22.3061 4.41554C22.2271 4.33456 22.1471 4.33358 22.0661 4.41258ZM19.7394 4.94392L19.6584 5.02293C19.6574 5.10293 19.7374 5.10391 19.7374 5.10391C19.8174 5.1049 19.8174 5.1049 19.8184 5.02491C19.8184 5.02491 19.8194 4.94491 19.7394 4.94392Z"
    fill="#0F0404"></path>
</svg>
