<svg fill="none" height="21" viewBox="0 0 104 21" width="104" xmlns="http://www.w3.org/2000/svg">
  <path
    d="M35.4435 9.57434C35.4403 9.49441 35.2772 9.42089 35.1174 9.4273C34.9575 9.43371 34.8008 9.52006 34.7241 9.60321C34.7273 9.68314 34.8904 9.75666 35.1302 9.74704C35.37 9.73742 35.5267 9.65107 35.4435 9.57434ZM63.9961 4.82595C64.5557 4.8035 65.0353 4.78426 65.0321 4.70433C65.0289 4.62439 64.8658 4.55087 64.626 4.56049C64.4661 4.5669 64.2199 4.41665 64.1368 4.33992C63.9641 4.0266 63.9641 4.0266 63.817 4.35275C63.7435 4.51583 63.5868 4.60218 63.427 4.60859C63.2671 4.61501 63.1839 4.53828 63.1008 4.46155C63.0944 4.30168 63.0145 4.30489 62.861 4.47117C62.7843 4.55431 62.3079 4.65349 61.8282 4.67273C61.3486 4.69197 60.8658 4.63128 60.7827 4.55455C60.6963 4.39789 60.6196 4.48103 60.5461 4.64411C60.4725 4.80718 60.3159 4.89354 60.0761 4.90316C59.9162 4.90957 59.7531 4.83605 59.4334 4.84887C58.7107 4.7978 58.1512 4.82025 57.4318 4.84911C57.0321 4.86515 55.5133 4.92608 55.1872 4.77904C55.104 4.70231 54.9442 4.70872 54.8706 4.8718C54.7939 4.95494 54.6372 5.04129 54.4774 5.0477C54.2376 5.05732 53.9913 4.90707 53.8218 4.67368C53.7355 4.51702 53.6556 4.52022 53.5053 4.76644C53.3551 5.01267 52.5589 5.12467 51.8395 5.15353C51.2799 5.17598 50.7172 5.11849 50.5509 4.96504C50.3846 4.81158 50.3015 4.73485 50.2215 4.73806C50.2215 4.73806 50.2247 4.81799 50.1512 4.98107C50.0809 5.22408 50.0042 5.30723 49.6045 5.32326L48.8851 5.35213C48.8051 5.35533 48.2456 5.37778 47.0433 5.34595C46.7236 5.35878 46.3207 5.29488 46.2376 5.21815C46.1544 5.14142 45.9978 5.22777 46.001 5.3077C45.9275 5.47078 45.451 5.56996 44.4119 5.61165C43.6157 5.72365 42.5766 5.76534 42.1801 5.86131C41.7005 5.88055 41.3008 5.89659 41.2177 5.81986C41.0514 5.6664 40.9714 5.66961 40.9779 5.82948C40.9811 5.90942 40.7445 5.99897 40.5047 6.00859C39.9451 6.03104 36.8308 6.23605 34.9955 6.38974C34.7557 6.39936 34.5958 6.40578 34.436 6.41219C34.0363 6.42823 33.7133 6.36112 33.6302 6.28439C33.4639 6.13093 33.4639 6.13093 33.3936 6.37395C33.3233 6.61696 33.0867 6.70652 32.1274 6.745C31.408 6.77386 30.6087 6.80593 30.2921 6.89869C30.2122 6.9019 30.1323 6.90511 29.9724 6.91152C29.7326 6.92114 29.4928 6.93076 29.4096 6.85403C29.2465 6.78051 29.0867 6.78693 29.0931 6.9468C29.0164 7.02994 28.8565 7.03635 28.6966 7.04277C28.6135 6.96604 28.3737 6.97566 28.3001 7.13874C28.2202 7.14195 28.1435 7.22509 28.0635 7.22829C27.9836 7.2315 27.8205 7.15798 27.6575 7.08446C27.3281 6.85748 27.3281 6.85748 27.2578 7.10049C27.181 7.18364 27.0244 7.26998 26.9444 7.27319C26.7814 7.19967 26.6215 7.20608 26.6247 7.28602C26.548 7.36916 26.791 7.43948 27.0308 7.42986C27.8334 7.47772 27.9133 7.47452 27.9996 7.63118C28.0828 7.70791 28.2395 7.62156 28.233 7.46169C28.3865 7.2954 28.7062 7.28258 29.982 7.15133L29.9852 7.23126C33.1794 7.02305 33.739 7.0006 33.7326 6.84073C33.7294 6.7608 33.8093 6.75759 33.8892 6.75438C33.9724 6.83111 34.6119 6.80546 35.3313 6.77659C36.6102 6.72528 38.1258 6.58442 38.2026 6.50127C38.2793 6.41813 38.4424 6.49165 38.6886 6.6419C38.8517 6.71543 38.9348 6.79215 39.0147 6.78895C39.0947 6.78574 39.1714 6.7026 39.2513 6.69939C39.4048 6.53311 40.4408 6.41148 42.1194 6.34413C44.3512 6.09447 46.5894 6.00467 48.8276 5.91488C51.1425 5.74194 54.0202 5.6265 55.296 5.49525C56.7348 5.43753 57.6141 5.40225 57.7772 5.47577C57.8635 5.63243 58.0234 5.62602 58.1769 5.45974C58.3335 5.37339 59.7659 5.15579 60.6452 5.12051C61.0449 5.10448 61.2847 5.09486 61.3679 5.17159C61.451 5.24832 61.6109 5.2419 61.7675 5.15555C61.921 4.98927 62.4773 4.88688 63.9961 4.82595ZM66.3118 10.6578C66.3118 10.6578 66.3885 10.5747 66.3853 10.4947C66.3821 10.4148 66.2989 10.3381 66.1391 10.3445C66.0591 10.3477 66.0623 10.4276 66.1455 10.5044C66.1487 10.5843 66.2318 10.661 66.3118 10.6578ZM66.0712 4.66264C66.4773 4.80647 66.4773 4.80647 66.3111 4.65302C66.3078 4.57308 66.1448 4.49956 65.9849 4.50597C65.7451 4.51559 65.7483 4.59553 66.0712 4.66264ZM68.8601 10.3154C69.4196 10.2929 69.6594 10.2833 69.5731 10.1267C69.49 10.0499 69.2469 9.97961 68.9272 9.99244C68.6075 10.0053 68.211 10.1012 67.9744 10.1908C67.8177 10.2771 67.6578 10.2836 67.4948 10.21C67.3285 10.0566 67.2485 10.0598 67.1718 10.1429C67.0951 10.2261 67.0184 10.3092 66.9352 10.2325C66.8553 10.2357 66.7753 10.2389 66.7786 10.3188C66.7818 10.3988 66.9448 10.4723 67.0248 10.4691C67.1846 10.4627 67.3509 10.6161 67.4373 10.7728C67.5236 10.9295 67.61 11.0861 67.6899 11.0829C67.7699 11.0797 67.8434 10.9166 67.9137 10.6736C67.9808 10.3507 68.1407 10.3442 68.8601 10.3154ZM99.0373 8.14394C98.8774 8.15035 97.9949 8.10569 97.0357 8.14418C96.1532 8.09952 94.7144 8.15724 93.9917 8.10617L92.7927 8.15427C92.8758 8.231 92.9622 8.38767 92.9718 8.62747C92.9782 8.78735 93.0646 8.94401 93.1477 9.02074C93.4707 9.08785 93.1702 9.58029 92.8504 9.59312C92.6106 9.60274 92.5371 9.76582 92.5467 10.0056C92.5531 10.1655 92.5627 10.4053 92.486 10.4884C92.1727 10.6611 88.8282 11.1156 87.4693 11.1701C87.1496 11.1829 86.9066 11.1126 86.8266 11.1158C86.7435 11.0391 86.5005 10.9688 86.3406 10.9752C86.1807 10.9816 86.0241 11.0679 86.1072 11.1447C86.1104 11.2246 85.9537 11.311 85.634 11.3238C85.3942 11.3334 84.7547 11.3591 84.2783 11.4582C83.3223 11.5767 82.6029 11.6055 82.1232 11.6248C81.6436 11.644 81.3239 11.6568 81.0809 11.5865C81.0009 11.5897 80.921 11.5929 80.7611 11.5993C80.5213 11.609 80.2815 11.6186 80.1248 11.7049C79.8115 11.8776 78.7756 11.9993 77.7364 12.041C77.4966 12.0506 77.3367 12.057 77.0969 12.0666C76.937 12.073 76.1409 12.185 75.1817 12.2235C72.3104 12.4988 70.8748 12.6365 69.599 12.7677C68.9595 12.7934 68.3232 12.899 68.2433 12.9022C68.1666 12.9853 66.0115 13.1519 65.7717 13.1615C65.5319 13.1711 65.2121 13.1839 64.9723 13.1935C64.8093 13.12 64.6494 13.1264 64.5695 13.1296C64.4895 13.1329 64.4096 13.1361 64.4128 13.216C64.416 13.2959 63.9396 13.3951 63.3001 13.4208C63.0603 13.4304 62.9004 13.4368 62.7406 13.4432C62.3409 13.4592 62.1011 13.4689 62.0211 13.4721C62.0243 13.552 61.8645 13.5584 61.7014 13.4849C61.5351 13.3314 61.5351 13.3314 61.5415 13.4913C61.5479 13.6512 61.2282 13.664 60.5088 13.6929C60.3489 13.6993 60.189 13.7057 60.0292 13.7121C59.7893 13.7217 59.5495 13.7314 59.5527 13.8113C59.5527 13.8113 59.476 13.8944 59.3161 13.9009C59.1563 13.9073 58.9133 13.8369 58.5935 13.8498C58.4336 13.8562 58.2738 13.8626 58.1139 13.869C57.8741 13.8786 57.7142 13.8851 57.7174 13.965C57.7206 14.0449 57.5608 14.0513 57.241 14.0642C57.0812 14.0706 56.9213 14.077 56.7614 14.0834C56.2818 14.1026 55.8022 14.1219 55.8054 14.2018C55.8086 14.2818 55.4889 14.2946 55.0092 14.3138C54.5296 14.3331 54.1299 14.3491 54.1332 14.429C54.1364 14.509 54.0564 14.5122 53.9765 14.5154C53.7367 14.525 53.2507 14.3844 53.0844 14.2309C52.9117 13.9176 52.9117 13.9176 52.9213 14.1574C52.9309 14.3972 52.5376 14.5731 51.9781 14.5956C51.8182 14.602 51.7383 14.6052 51.5784 14.6116C51.2555 14.5445 51.0956 14.5509 51.0988 14.6308C51.1052 14.7907 50.7855 14.8035 50.3858 14.8196C50.2259 14.826 50.146 14.8292 49.9861 14.8356C49.8262 14.842 49.6664 14.8484 49.5864 14.8516C49.5896 14.9316 49.0333 15.034 48.4738 15.0564C47.9142 15.0789 47.198 15.1877 46.8782 15.2005C45.529 15.4948 42.8975 15.7605 40.6625 15.9302C39.9431 15.9591 39.3867 16.0615 39.3899 16.1414C39.3899 16.1414 39.1533 16.231 38.8336 16.2438L37.9543 16.2791C37.7944 16.2855 37.5514 16.2152 37.3851 16.0617C37.2956 15.8251 37.1357 15.8315 37.059 15.9147C36.9919 16.2376 36.5986 16.4135 36.3588 16.4232C36.1989 16.4296 36.119 16.4328 36.0359 16.3561C35.7896 16.2058 35.7129 16.2889 35.7193 16.4488C35.7257 16.6087 35.4891 16.6982 35.0095 16.7175C34.6098 16.7335 34.2869 16.6664 34.2837 16.5865C34.2805 16.5065 34.1941 16.3499 34.031 16.2764C33.7049 16.1293 33.7081 16.2092 33.7944 16.3659C33.8872 16.6824 33.3373 16.9447 32.2214 17.0695C31.6618 17.092 31.0256 17.1976 30.9488 17.2807C30.789 17.2871 30.4692 17.3 30.3061 17.2264C30.1431 17.1529 30.0631 17.1561 29.9832 17.1593C29.9033 17.1625 29.8233 17.1657 29.7498 17.3288C29.6731 17.412 29.5164 17.4983 29.2766 17.5079C29.1967 17.5111 29.1167 17.5143 28.9569 17.5208C28.6371 17.5336 28.2374 17.5496 28.0808 17.636C27.841 17.6456 27.6811 17.652 27.4413 17.6616C27.1951 17.5114 27.0352 17.5178 26.9617 17.6809C26.8082 17.8472 26.0121 17.9592 25.2926 17.988C24.813 18.0073 24.3302 17.9466 24.1671 17.873C23.9241 17.8027 23.8442 17.8059 23.7739 18.049C23.7035 18.292 23.6268 18.3751 23.387 18.3847C23.2239 18.3112 23.0641 18.3176 23.0673 18.3976C22.9905 18.4807 22.431 18.5031 21.7116 18.532C21.0721 18.5577 20.5157 18.66 20.5189 18.74C20.5221 18.8199 20.3623 18.8263 20.2024 18.8327C19.8827 18.8456 19.4798 18.7817 19.3966 18.7049C19.3103 18.5483 19.2304 18.5515 19.0801 18.7977C18.9299 19.0439 18.1401 19.3158 17.5006 19.3415C17.3408 19.3479 17.1777 19.2744 17.0178 19.2808C16.8579 19.2872 16.7748 19.2105 16.6949 19.2137C16.535 19.2201 16.4583 19.3032 16.3815 19.3864C16.3847 19.4663 16.3048 19.4695 16.065 19.4791C15.4255 19.5048 15.1058 19.5176 14.559 19.8598C14.2457 20.0325 13.8524 20.2084 13.6958 20.2948C13.5359 20.3012 13.2993 20.3907 13.1426 20.4771L12.8229 20.4899C12.7398 20.4132 12.4967 20.3429 12.2569 20.3525C11.9372 20.3653 11.7741 20.2918 11.6878 20.1351C11.6014 19.9785 11.5151 19.8218 11.4351 19.825C11.1953 19.8346 11.2464 19.112 11.4798 18.9425L11.6268 18.6163C11.5405 18.4597 11.8506 18.207 12.1704 18.1942C12.2503 18.191 12.3302 18.1878 12.4134 18.2645C12.5797 18.418 12.5764 18.338 12.5668 18.0982C12.5572 17.8584 12.9473 17.6026 13.8233 17.4874C13.9033 17.4842 14.0632 17.4778 14.1399 17.3946C14.1399 17.3946 14.4596 17.3818 14.7762 17.289C15.1758 17.273 15.4924 17.1802 15.649 17.0939C15.7258 17.0107 16.0455 16.9979 16.3653 16.9851C16.6051 16.9755 16.8417 16.8859 16.8385 16.806C16.8352 16.726 16.9919 16.6397 17.2349 16.71C17.4747 16.7004 17.7145 16.6908 17.7113 16.6108C17.7881 16.5277 17.9479 16.5213 18.111 16.5948C18.2709 16.5884 18.5906 16.5755 18.7473 16.4892C18.824 16.4061 18.9839 16.3996 19.1438 16.3932C19.3036 16.3868 19.4635 16.3804 19.5467 16.4571C19.6266 16.4539 19.7097 16.5306 19.7897 16.5274C19.9495 16.521 20.1062 16.4347 20.3396 16.2652C20.4963 16.1788 20.7329 16.0893 20.8128 16.0861C20.816 16.166 21.0558 16.1564 21.2924 16.0668C21.4491 15.9805 21.5258 15.8973 21.6057 15.8941C21.7656 15.8877 21.8487 15.9644 21.9319 16.0412C22.095 16.1147 22.2548 16.1083 22.3316 16.0251C22.485 15.8589 22.9614 15.7597 23.4411 15.7404C23.6809 15.7308 23.9207 15.7212 24.0837 15.7947C24.2468 15.8682 24.4866 15.8586 24.5634 15.7755C24.7168 15.6092 25.5066 15.3373 26.0661 15.3149C26.226 15.3085 26.3091 15.3852 26.3891 15.382C26.6321 15.4523 26.712 15.4491 26.7088 15.3691C26.7024 15.2093 26.7823 15.2061 26.9422 15.1997C27.182 15.19 27.4218 15.1804 27.6616 15.1708C28.1348 14.9917 29.2507 14.8668 30.0501 14.8348C30.4497 14.8187 30.7695 14.8059 30.7727 14.8859C30.8558 14.9626 31.0157 14.9562 31.1692 14.7899C31.3226 14.6236 31.7958 14.4445 32.1955 14.4284C32.4353 14.4188 32.6783 14.4891 32.8414 14.5627C32.9245 14.6394 33.0844 14.633 33.1611 14.5498C33.2347 14.3868 33.8709 14.2812 34.3506 14.2619C34.6703 14.2491 34.9101 14.2395 34.9932 14.3162C35.0764 14.3929 35.1563 14.3897 35.1531 14.3098C35.1499 14.2299 35.2331 14.3066 35.3961 14.3801C35.5624 14.5336 35.6391 14.4504 35.7127 14.2873C35.8629 14.0411 36.0995 13.9516 36.8189 13.9227C37.2986 13.9035 37.775 13.8043 37.7718 13.7243C37.8485 13.6412 38.0116 13.7147 38.1746 13.7882C38.4209 13.9385 38.5008 13.9353 38.5743 13.7722C38.5679 13.6123 39.0443 13.5132 39.8437 13.4811C40.4832 13.4554 41.2793 13.3434 41.5159 13.2539C41.7557 13.2443 42.0787 13.3114 42.1618 13.3881C42.3249 13.4616 42.4048 13.4584 42.5583 13.2921C42.635 13.209 42.9483 13.0363 43.5079 13.0138C45.7397 12.7642 46.1393 12.7481 46.9355 12.6361C47.1753 12.6265 47.332 12.5402 47.4918 12.5337C47.7316 12.5241 47.8947 12.5976 47.9779 12.6744C48.1409 12.7479 48.2209 12.7447 48.2145 12.5848C48.2113 12.5049 48.3711 12.4985 48.6109 12.4888C48.6909 12.4856 48.8507 12.4792 49.0106 12.4728C49.4103 12.4568 49.73 12.444 49.7268 12.364C50.4398 12.1753 51.3991 12.1368 52.1185 12.1079C52.9914 11.9128 54.8267 11.7591 56.3423 11.6182C56.8219 11.599 57.2983 11.4998 57.2983 11.4998C57.2951 11.4199 57.375 11.4167 57.5349 11.4103C57.8546 11.3974 58.1776 11.4645 58.3406 11.5381C58.4206 11.5348 58.5005 11.5316 58.4973 11.4517C58.4909 11.2918 58.6508 11.2854 58.8906 11.2758C59.2103 11.263 59.61 11.2469 59.9297 11.2341C60.0864 11.1478 60.2463 11.1413 60.3262 11.1381C60.4861 11.1317 60.646 11.1253 60.7291 11.202C60.8954 11.3555 61.0553 11.3491 61.1288 11.186C61.522 11.0101 62.9577 10.8724 63.3574 10.8564C63.7538 10.7604 64.3134 10.738 64.5532 10.7284C64.7962 10.7987 64.9561 10.7923 64.9529 10.7123C64.9497 10.6324 65.1863 10.5428 65.4293 10.6132C65.9089 10.5939 66.0623 10.4276 65.6595 10.3637C65.5763 10.287 64.8569 10.3159 64.1375 10.3447C63.8977 10.3543 63.6579 10.364 63.418 10.3736C62.9384 10.3928 62.6155 10.3257 62.5323 10.249C62.3629 10.0156 62.2861 10.0987 62.2925 10.2586C62.2989 10.4185 62.2222 10.5016 62.0623 10.508C61.9025 10.5145 61.6595 10.4441 61.49 10.2107C61.2373 9.90062 61.2373 9.90062 61.1702 10.2236C61.0999 10.4666 61.0232 10.5497 60.7834 10.5593C60.7034 10.5626 60.5436 10.569 60.3006 10.4987C59.6579 10.4444 59.255 10.3805 59.0152 10.3901C58.8553 10.3965 58.7786 10.4797 58.7018 10.5628C58.6251 10.6459 58.5484 10.7291 57.9089 10.7547C57.4293 10.774 56.6267 10.7261 55.3477 10.7774C55.1079 10.787 54.9481 10.7935 54.7882 10.7999C54.3885 10.8159 54.1487 10.8255 54.1487 10.8255C54.1519 10.9055 53.9121 10.9151 53.6691 10.8448C53.506 10.7712 53.4229 10.6945 53.263 10.7009C53.1831 10.7041 53.0264 10.7905 52.8697 10.8768C52.7131 10.9632 52.1567 11.0656 51.6771 11.0848L50.2383 11.1425C49.6723 11.0051 49.3526 11.0179 49.1927 11.0244C48.9529 11.034 48.873 11.0372 48.7962 11.1203C48.7195 11.2035 48.2431 11.3026 47.5237 11.3315C47.2039 11.3443 46.8842 11.3572 46.4845 11.3732C45.3654 11.4181 44.4893 11.5333 44.4925 11.6132C44.2527 11.6229 42.9738 11.6742 42.8075 11.5207C42.7275 11.5239 42.6476 11.5271 42.4909 11.6135C42.4142 11.6966 41.7779 11.8022 41.0585 11.8311C39.3798 11.8984 39.2999 11.9016 38.5038 12.0136C37.8675 12.1192 34.037 12.433 33.2376 12.4651C32.9179 12.4779 32.2816 12.5835 31.7253 12.6859C30.4527 12.8971 28.141 13.15 26.6254 13.2908C25.9859 13.3165 25.3464 13.3421 25.3496 13.4221C25.3529 13.502 25.0331 13.5148 24.6334 13.5309C24.3137 13.5437 23.994 13.5565 23.9108 13.4798C23.8245 13.3231 23.7445 13.3263 23.6646 13.3295C23.5846 13.3327 23.5047 13.336 23.5111 13.4958C23.5207 13.7356 23.3641 13.822 22.6447 13.8508C22.4848 13.8573 22.245 13.8669 21.9252 13.8797C21.3657 13.9022 20.8861 13.9214 20.8893 14.0013C20.8925 14.0813 20.7326 14.0877 20.4928 14.0973C20.253 14.1069 20.0132 14.1165 19.8501 14.043C19.767 13.9663 19.687 13.9695 19.6902 14.0494C19.6935 14.1294 19.5368 14.2157 19.297 14.2253C19.0572 14.235 18.5808 14.3341 18.3442 14.4237C18.0276 14.5165 17.2315 14.6285 16.5153 14.7373C15.879 14.8429 14.843 14.9645 14.2867 15.0669C13.887 15.0829 13.6504 15.1725 13.4905 15.1789C13.1708 15.1917 13.0077 15.1182 12.8446 15.0447C12.6816 14.9711 12.5185 14.8976 12.5185 14.8976C12.4385 14.9008 12.4418 14.9808 12.3682 15.1438C12.2947 15.3069 12.3011 15.4668 12.3011 15.4668C12.3011 15.4668 12.0581 15.3965 11.7352 15.3294C11.5753 15.3358 11.4921 15.259 11.3323 15.2655C11.1724 15.2719 10.9358 15.3614 10.6992 15.451C9.27319 15.8284 7.6841 16.1324 6.24525 16.1901C6.16852 16.2733 5.77205 16.3692 5.37238 16.3853L4.57943 16.5772C4.25969 16.59 3.93995 16.6029 3.76725 16.2895C3.6809 16.1329 3.67769 16.0529 3.59775 16.0561C3.51782 16.0593 3.44109 16.1425 3.2077 16.312C3.05424 16.4783 2.89437 16.4847 2.7345 16.4911C2.57463 16.4975 2.48828 16.3408 2.47545 16.0211C2.47224 15.9412 2.3891 15.8644 2.22923 15.8709C1.11013 15.9157 2.8781 14.0834 4.15065 13.8722C4.38725 13.7827 4.9436 13.6803 5.34328 13.6642C5.65981 13.5715 6.21615 13.4691 6.45596 13.4595C7.40878 13.2611 8.6014 13.0531 9.56063 13.0147C10.2001 12.989 10.5199 12.9762 10.5934 12.8131C10.6701 12.73 10.7468 12.6468 10.8268 12.6436C10.9067 12.6404 11.0698 12.7139 11.2297 12.7075C11.4727 12.7778 11.6325 12.7714 11.7125 12.7682C11.7924 12.765 11.8723 12.7618 11.8691 12.6819C12.0226 12.5156 13.3751 12.3012 15.6836 11.9684C16.0833 11.9523 16.5597 11.8532 16.6396 11.85C16.9562 11.7572 17.6724 11.6484 18.3119 11.6227C18.6316 11.6099 18.9513 11.5971 19.0345 11.6738C19.1144 11.6706 19.2743 11.6642 19.2711 11.5843C19.4245 11.418 19.901 11.3188 21.8162 11.1619C22.4525 11.0563 23.4085 10.9379 23.8881 10.9186C27.4724 10.4546 29.1446 10.2274 30.8233 10.16C31.8592 10.0384 32.7353 9.92319 32.8153 9.91998C32.8121 9.84004 33.1318 9.82722 33.4515 9.81439C33.8512 9.79835 34.0079 9.712 34.0079 9.712C33.9247 9.63527 33.5219 9.57137 32.8024 9.60024C32.083 9.6291 31.127 9.74752 30.0111 9.87235C29.135 9.98756 27.2198 10.1445 25.7809 10.2022C24.3453 10.3398 22.5899 10.4903 21.9504 10.516C21.2342 10.6248 20.1151 10.6697 19.319 10.7817C18.5196 10.8138 17.8034 10.9226 17.5668 11.0121C17.4069 11.0185 17.0872 11.0314 16.9241 10.9578C16.6011 10.8907 16.4413 10.8971 16.4445 10.9771C16.4477 11.057 16.291 11.1434 15.9713 11.1562C15.1719 11.1883 13.1767 11.3484 13.1799 11.4283C13.1799 11.4283 12.9401 11.4379 12.5437 11.5339C12.2239 11.5467 11.3478 11.6619 10.5517 11.7739C9.35586 11.902 8.63644 11.9308 8.23676 11.9469C7.75714 11.9661 7.59727 11.9725 7.35426 11.9022C7.11445 11.9118 6.87464 11.9215 6.87785 12.0014C6.80433 12.1645 6.56773 12.254 6.32792 12.2636C5.44863 12.2989 4.1408 11.6308 4.19508 10.9881C4.25898 10.5852 4.24936 10.3454 4.08948 10.3518C3.92961 10.3583 3.92961 10.3583 4.07986 10.112C4.15659 10.0289 4.31326 9.94254 4.39319 9.93934C4.47313 9.93613 4.70331 9.6867 4.9335 9.43727C5.24042 9.1047 5.40029 9.09829 5.95984 9.07584C6.19964 9.06622 6.36272 9.13974 6.44266 9.13654C6.60253 9.13012 6.67926 9.04698 6.67605 8.96704C6.66964 8.80717 6.74637 8.72403 6.98938 8.79434C7.14925 8.78793 7.30912 8.78152 7.30592 8.70158C7.30592 8.70158 7.86226 8.5992 8.58168 8.57033C9.21796 8.46474 10.1772 8.42626 10.5769 8.41023C10.6568 8.40702 10.8167 8.4006 10.9765 8.39419C11.2164 8.38457 11.5361 8.37174 11.6192 8.44847C11.7791 8.44206 12.0189 8.43244 12.1788 8.42602C12.4953 8.33326 13.2115 8.22446 13.851 8.19881C14.1708 8.18598 14.4905 8.17315 14.6536 8.24667C15.0597 8.39051 15.6767 7.8053 15.2706 7.66147C15.1043 7.50801 15.1011 7.42807 15.3345 7.25858C15.5711 7.16902 15.7214 6.9228 15.715 6.76293C15.7085 6.60306 15.862 6.43678 16.1018 6.42715C16.2617 6.42074 16.5782 6.32798 16.7349 6.24163C16.9715 6.15207 17.4447 5.97296 17.758 5.80026C18.0746 5.7075 18.4678 5.53159 18.5445 5.44845C18.5445 5.44845 18.6213 5.36531 18.7811 5.35889C18.8611 5.35568 19.0242 5.42921 19.1872 5.50273C19.4303 5.57304 19.5134 5.64977 19.5933 5.64657C19.6733 5.64336 19.6701 5.56342 19.6636 5.40355C19.5677 5.00708 20.2743 4.65848 20.8338 4.63603C20.9937 4.62961 21.1536 4.6232 21.2367 4.69993C21.3198 4.77665 21.3998 4.77345 21.4797 4.77024C21.5597 4.76703 21.6396 4.76383 21.7131 4.60075C21.7898 4.51761 21.8698 4.5144 21.9497 4.51119C22.1895 4.50157 22.4454 4.89163 22.3815 5.29452C22.3143 5.61746 22.3176 5.6974 22.4678 5.45118C22.5413 5.2881 22.7747 5.11861 22.9346 5.1122C23.0945 5.10578 23.2575 5.1793 23.4238 5.33276C23.6733 5.56295 23.6733 5.56295 23.6636 5.32314C23.6604 5.24321 23.734 5.08013 23.8139 5.07692C23.9738 5.07051 26.1256 4.82405 26.6852 4.8016C27.0049 4.78877 27.1616 4.70242 27.1616 4.70242C27.1584 4.62249 27.7179 4.60004 28.3574 4.57438C28.9969 4.54873 29.4733 4.44955 29.4701 4.36961C29.4669 4.28968 30.5028 4.16805 32.4213 4.09109C33.1407 4.06222 33.6171 3.96305 33.6171 3.96305C33.6139 3.88311 33.7738 3.8767 34.0136 3.86708C34.4932 3.84783 35.299 3.97564 35.4621 4.04916C35.6283 4.20262 35.7051 4.11947 35.8585 3.95319C36.0088 3.70697 38.4772 3.36775 40.6354 3.28116C41.195 3.25871 41.7577 3.3162 42.2373 3.29696C42.3972 3.29054 43.1134 3.18175 43.7497 3.07615C44.2293 3.05691 44.7089 3.03767 44.9487 3.02805C45.0287 3.02484 45.1086 3.02164 45.1086 3.02164C45.1118 3.10157 45.5115 3.08554 45.9911 3.0663C47.3468 2.93184 50.8576 2.63087 52.0534 2.50283C52.9327 2.46755 53.0926 2.46114 53.2621 2.69453C53.5147 3.00465 53.5147 3.00465 53.6649 2.75843C53.8184 2.59215 54.5314 2.40341 55.2508 2.37455C55.6505 2.35852 56.1333 2.41921 56.2964 2.49273C56.3795 2.56946 56.4563 2.48632 56.4531 2.40638C56.4499 2.32645 56.6065 2.2401 56.8463 2.23047C57.1661 2.21765 57.6489 2.27834 57.8152 2.4318C57.9783 2.50532 58.0582 2.50211 58.1349 2.41897C58.2084 2.25589 58.6849 2.15672 59.1645 2.13747C59.6441 2.11823 60.2068 2.17572 60.2932 2.33239C60.4563 2.40591 60.4563 2.40591 60.4531 2.32597C60.4466 2.1661 60.6865 2.15648 61.0062 2.14365C61.246 2.13403 61.4858 2.12441 61.6489 2.19793C61.812 2.27145 61.9718 2.26504 62.0518 2.26183C62.2084 2.17548 62.445 2.08593 62.6049 2.07951C62.9247 2.06669 63.2476 2.13379 63.334 2.29046C63.4203 2.44712 63.5002 2.44392 63.6537 2.27763C63.8871 2.10814 64.6832 1.99613 65.5625 1.96086C66.4418 1.92558 67.2444 1.97345 67.4107 2.1269C67.6633 2.43703 67.6633 2.43703 67.7336 2.19401C67.8071 2.03094 67.8839 1.94779 68.2836 1.93176C68.4434 1.92534 68.6033 1.91893 68.7632 1.91252L70.202 1.85479C70.4418 1.84517 70.6848 1.91549 70.688 1.99542C70.7744 2.15209 70.8543 2.14888 71.0078 1.98259C71.0845 1.89945 71.4842 1.88342 71.9638 1.86418C72.923 1.82569 74.2851 1.85111 74.4546 2.0845C74.6241 2.3179 74.7041 2.31469 74.7776 2.15161C74.8511 1.98853 75.3275 1.88936 75.8071 1.87011C76.2867 1.85087 76.8495 1.90836 77.0158 2.06182C77.1789 2.13534 77.262 2.21207 77.2556 2.0522C77.2524 1.97226 77.7288 1.87308 78.2084 1.85384C78.688 1.8346 79.1708 1.89529 79.1741 1.97523C79.2572 2.05196 79.4171 2.04554 79.6537 1.95599C79.7336 1.95278 79.8903 1.86643 80.0501 1.86002C80.6097 1.83757 81.4187 2.04531 81.8248 2.18915C81.9878 2.26267 82.1477 2.25625 82.3044 2.1699C82.3811 2.08676 82.7008 2.07393 83.1005 2.0579C84.0598 2.01941 85.6649 2.11515 86.0742 2.33892C86.3204 2.48917 86.4803 2.48276 86.5538 2.31968C86.6305 2.23654 86.7105 2.23333 86.8735 2.30685C87.1133 2.29723 87.2732 2.29082 87.513 2.2812C87.7528 2.27157 88.0726 2.25875 88.3188 2.409C88.4819 2.48252 88.7249 2.55283 88.808 2.62956C89.6074 2.5975 90.2247 4.01389 89.4253 4.04596C89.2654 4.05237 89.1855 4.05558 89.4317 4.20583C89.6779 4.35608 89.2272 5.09474 88.8275 5.11078C88.7476 5.11398 88.6708 5.19713 88.754 5.27386C88.754 5.27386 90.0362 5.30248 91.475 5.24476C94.8355 5.19 96.6804 5.27611 96.9235 5.34643C97.0066 5.42316 97.4063 5.40712 98.0458 5.38147C98.2856 5.37185 98.5254 5.36223 98.8451 5.3494C99.8843 5.30771 100.847 5.34916 101.173 5.4962L101.819 5.63042C101.899 5.62721 102.062 5.70073 102.225 5.77426C102.388 5.84778 102.631 5.91809 102.711 5.91489C103.034 5.982 102.912 6.94764 102.609 7.36014C102.455 7.52643 102.382 7.68951 102.388 7.84938C102.398 8.08919 101.199 8.13729 101.039 8.1437C100.559 8.16294 100.08 8.18219 99.9965 8.10546C99.8302 7.952 99.6704 7.95841 99.5936 8.04156C99.5169 8.1247 99.357 8.13111 99.1972 8.13753C99.1972 8.13753 99.1172 8.14073 99.0373 8.14394ZM23.7534 7.56134C23.6735 7.56455 23.5936 7.56775 23.6703 7.48461L23.8302 7.4782C23.9133 7.55493 23.8334 7.55813 23.7534 7.56134ZM26.3913 7.45551C26.3913 7.45551 26.3114 7.45872 26.3082 7.37878C26.3082 7.37878 26.3881 7.37558 26.3913 7.45551ZM38.7145 9.28299C38.7145 9.28299 38.6345 9.28619 38.6313 9.20626C38.6313 9.20626 38.7113 9.20305 38.7912 9.19984C38.7944 9.27978 38.7944 9.27978 38.7145 9.28299ZM65.5916 4.68188C65.5117 4.68509 65.5117 4.68509 65.5085 4.60515C65.5085 4.60515 65.5053 4.52521 65.5852 4.52201L65.6684 4.59873C65.6716 4.67867 65.5916 4.68188 65.5916 4.68188ZM60.9146 11.8351C60.8347 11.8383 60.8315 11.7584 60.8315 11.7584C60.8283 11.6784 60.8283 11.6784 60.9082 11.6752C60.9881 11.672 60.9881 11.672 60.9914 11.752C60.9914 11.752 60.9946 11.8319 60.9146 11.8351ZM70.2158 10.1809C70.0559 10.1873 70.0559 10.1873 70.0527 10.1074C70.1294 10.0243 70.2094 10.0211 70.2925 10.0978C70.3757 10.1745 70.2957 10.1777 70.2158 10.1809Z"
    fill="#0F0404"></path>
</svg>
