<svg fill="none" height="33" viewBox="0 0 95 33" width="95" xmlns="http://www.w3.org/2000/svg">
  <path
    d="M92.918 13.2462C92.9153 13.1788 92.9773 13.0414 93.0392 12.9039C93.3006 12.691 93.1577 12.4943 92.7536 12.5106C92.6188 12.516 92.4841 12.5214 92.3494 12.5268C91.9452 12.543 91.7458 12.6185 91.3578 13.0389C91.0345 13.3892 90.7732 13.6021 90.6384 13.6075C90.5711 13.6102 90.3744 13.753 90.1777 13.8959C90.0484 14.036 89.849 14.1115 89.7143 14.1169C89.6442 14.0522 89.5795 14.1223 89.5849 14.257C89.5903 14.3918 89.461 14.5319 89.197 14.6774C88.9302 14.7556 88.6662 14.9011 88.6042 15.0386C88.5422 15.176 88.4102 15.2488 88.3429 15.2515C88.2755 15.2542 88.0788 15.397 87.9495 15.5371C87.8202 15.6773 87.6908 15.8174 87.5561 15.8228C87.4887 15.8255 87.2247 15.9711 87.0307 16.1813C86.5781 16.6717 85.1986 17.6042 84.9291 17.615C84.7944 17.6204 84.7297 17.6905 84.7324 17.7579C84.7432 18.0273 84.0238 18.596 83.6197 18.6122C83.4176 18.6203 83.3502 18.623 83.423 18.755C83.4284 18.8897 83.4311 18.9571 83.3637 18.9598C83.2963 18.9625 83.035 19.1754 82.9057 19.3155C82.7117 19.5257 82.4503 19.7386 82.2482 19.7468C81.9842 19.8923 80.9388 20.7439 80.8149 21.0188C80.7502 21.0888 80.5535 21.2317 80.3514 21.2398C80.0847 21.3179 79.9527 21.3907 79.9554 21.4581C79.9581 21.5254 79.7614 21.6683 79.5674 21.8785C79.3033 22.024 79.042 22.2369 78.8426 22.3124C78.7106 22.3852 78.584 22.5927 78.5193 22.6627C78.4546 22.7328 78.39 22.8029 78.3226 22.8056C78.1879 22.811 78.1232 22.881 77.9912 22.9538C77.9265 23.0239 77.4038 23.4497 76.9485 23.8728C76.4258 24.2986 75.8357 24.7271 75.6391 24.8699C75.5124 25.0774 75.313 25.1529 75.1756 25.0909C75.1082 25.0936 74.9762 25.1664 74.9789 25.2338C74.917 25.3712 74.7849 25.444 74.6475 25.382C74.4454 25.3901 74.378 25.3928 74.3835 25.5276C74.3889 25.6623 74.2568 25.7351 73.9874 25.7459C73.7179 25.7567 73.5158 25.7648 73.3811 25.7702C72.985 25.9885 72.1954 24.8057 72.5187 24.4553C72.7773 24.1751 73.0225 23.558 72.9497 23.426C72.8796 23.3613 72.8769 23.2939 73.0117 23.2885C73.079 23.2858 73.1437 23.2158 73.1383 23.081C73.1302 22.8789 73.8387 22.0408 73.9681 21.9007C74.092 21.6258 74.286 21.4156 74.3533 21.4129C74.5554 21.4048 74.8787 21.0545 74.8679 20.785C74.8598 20.5829 74.9245 20.5129 75.1266 20.5048C75.2613 20.4994 75.326 20.4293 75.3206 20.2946C75.2478 20.1625 75.3097 20.0251 75.4418 19.9523C75.5738 19.8796 75.7031 19.7394 75.7004 19.6721C75.6896 19.4026 77.2953 17.3815 77.4947 17.306C77.6267 17.2333 77.624 17.1659 77.6213 17.0985C77.5486 16.9665 77.6752 16.759 77.8045 16.6189C78.5751 15.6433 78.5751 15.6433 78.4349 15.514C78.2975 15.4521 78.1628 15.4575 78.0981 15.5275C78.0307 15.5302 77.9661 15.6003 77.8987 15.603C77.8313 15.6057 77.6939 15.5437 77.5565 15.4818C77.2816 15.3579 77.2142 15.3606 77.2197 15.4953C77.2251 15.63 77.093 15.7028 76.6889 15.719C76.4221 15.7972 75.9505 15.8161 75.6811 15.8269C75.4116 15.8377 75.1449 15.9159 75.0802 15.986C74.8108 15.9968 74.5467 16.1423 74.4201 16.3498C74.4255 16.4845 74.2962 16.6247 74.2288 16.6274C74.1614 16.6301 73.9001 16.843 73.5714 17.0586C73.3127 17.3389 72.984 17.5545 72.9167 17.5572C72.7819 17.5626 72.7846 17.6299 72.8547 17.6946C72.9302 17.894 72.6688 18.1069 72.332 18.1204C72.0625 18.1312 72.0652 18.1986 72.0734 18.4007C72.1461 18.5327 72.0842 18.6701 71.9521 18.7429C71.8201 18.8157 71.6207 18.8911 71.5588 19.0286C71.4267 19.1013 71.2273 19.1768 71.0253 19.1849C70.8905 19.1903 70.7585 19.2631 70.7639 19.3978C70.7747 19.6673 69.7428 20.8557 69.4734 20.8665C69.3386 20.8719 69.274 20.942 69.2093 21.0121C69.1474 21.1495 69.0827 21.2196 68.948 21.225C68.8806 21.2277 68.6866 21.4379 68.56 21.6454C68.4334 21.8529 68.3068 22.0604 68.2394 22.0631C68.172 22.0658 67.9754 22.2086 67.7814 22.4188C67.2614 22.912 67 23.1249 66.9327 23.1276C66.8653 23.1303 66.736 23.2704 66.6067 23.4105C66.48 23.618 66.2806 23.6935 66.0785 23.7016C65.9438 23.707 65.8091 23.7124 65.6717 23.6505C65.4669 23.5912 65.4669 23.5912 65.6124 23.8553C65.7579 24.1193 65.7606 24.1867 65.6259 24.1921C65.4939 24.2649 65.2972 24.4077 65.1032 24.6179C64.9739 24.758 64.7772 24.9009 64.6425 24.9063C64.5751 24.909 64.4458 25.0491 64.4485 25.1165C64.4566 25.3186 64.1926 25.4641 63.8557 25.4776C63.721 25.483 63.589 25.5558 63.6617 25.6878C63.6699 25.8899 63.5378 25.9627 63.2711 26.0408C63.069 26.049 62.8696 26.1244 62.8049 26.1945C62.8076 26.2619 62.7403 26.2646 62.6729 26.2673C62.5382 26.2727 62.3307 26.146 62.328 26.0787C62.3253 26.0113 62.1878 25.9494 62.1205 25.9521C61.9858 25.9575 61.913 25.8254 61.9076 25.6907C61.8995 25.4886 61.7566 25.2919 61.6839 25.1599C61.4737 24.9659 61.471 24.8986 61.6003 24.7584C61.6649 24.6884 61.7242 24.4836 61.7215 24.4162C61.7161 24.2815 61.8427 24.074 61.9693 23.8665C62.1633 23.6563 62.3546 23.3787 62.4112 23.1065C62.7236 22.4868 63.2382 21.8589 63.4403 21.8508C63.6424 21.8426 63.7071 21.7726 63.6316 21.5732C63.5561 21.3738 63.6208 21.3037 63.8175 21.1609C64.0169 21.0854 64.2109 20.8752 64.2701 20.6704C64.3294 20.4656 64.5234 20.2554 64.6554 20.1827C64.8575 20.1746 64.9194 20.0371 64.8494 19.9725C64.7793 19.9078 64.844 19.8377 64.9113 19.835C64.9787 19.8323 65.0434 19.7623 65.038 19.6275C65.0325 19.4928 65.1592 19.2853 66.253 17.9594C66.8296 17.1941 66.8861 16.922 66.4819 16.9382C65.3367 16.9841 64.5984 17.0812 63.7578 17.9921C62.8445 18.7709 61.9985 19.5471 61.1552 20.3906C60.3765 21.164 59.4604 21.8755 59.2584 21.8836C59.2584 21.8836 59.129 22.0237 59.0024 22.2312C58.8812 22.5734 57.9032 23.4223 57.499 23.4386C57.4343 23.5086 57.3023 23.5814 57.3077 23.7161C57.3805 23.8482 57.1218 24.1284 56.7931 24.344C56.4671 24.627 56.0764 24.98 55.9471 25.1202C55.8178 25.2603 55.4891 25.4759 55.3543 25.4813C55.0849 25.4921 55.0202 25.5622 55.0256 25.6969C55.1685 25.8936 54.7751 26.1793 54.4383 26.1928C54.3709 26.1955 54.3035 26.1982 54.2335 26.1335C54.096 26.0716 53.9613 26.077 53.964 26.1443C53.964 26.1443 53.8347 26.2845 53.7027 26.3572C53.638 26.4273 53.5706 26.43 53.5033 26.4327C53.1664 26.4462 52.6086 25.9963 52.7271 25.5867C52.719 25.3846 52.7109 25.1825 52.6436 25.1852C52.5061 25.1233 52.5007 24.9885 52.6327 24.9158C52.7621 24.7756 52.886 24.5008 52.8806 24.366C52.9371 24.0939 53.0665 23.9538 53.4652 23.8028C54.0661 23.6438 54.1954 23.5036 53.9771 23.1075C53.8343 22.9109 53.8316 22.8435 54.1576 22.5605C54.2842 22.353 54.4782 22.1428 54.4755 22.0755C54.4728 22.0081 54.6048 21.9353 54.7368 21.8626C54.9362 21.7871 55.0683 21.7143 54.9982 21.6497C54.9928 21.5149 55.052 21.3101 55.2487 21.1673C55.3781 21.0272 55.5074 20.887 55.5047 20.8197C55.502 20.7523 55.7014 20.6768 55.9008 20.6014C56.3049 20.5851 56.3696 20.5151 56.3534 20.1109C56.3399 19.7741 56.4018 19.6366 56.6012 19.5612C56.8033 19.5531 56.9326 19.4129 56.9272 19.2782C56.9218 19.1435 57.0512 19.0033 57.1131 18.8659C57.2424 18.7258 57.105 18.6638 56.9703 18.6692C56.8355 18.6746 56.7035 18.7474 56.5715 18.8202C56.5041 18.8229 56.302 18.831 56.0999 18.8391C55.8951 18.7798 55.7604 18.7852 55.7658 18.92C55.7685 18.9873 55.6365 19.0601 55.5018 19.0655C54.626 19.1006 54.2246 19.1842 53.6992 19.5427C53.4378 19.7556 53.1091 19.9712 53.0417 19.9739C52.907 19.9793 52.8423 20.0493 52.9151 20.1814C52.9906 20.3808 52.8586 20.4535 52.5945 20.5991C52.3978 20.7419 52.2011 20.8847 52.2038 20.9521C52.2092 21.0868 52.1446 21.1569 52.0772 21.1596C52.0098 21.1623 51.5545 21.5854 51.0992 22.0085C50.6466 22.499 50.1239 22.9248 49.9891 22.9302C49.8544 22.9356 49.7897 23.0057 49.8625 23.1377C49.938 23.3371 49.6147 23.6874 49.1485 23.841C48.9464 23.8492 48.8171 23.9893 48.8225 24.124C48.8279 24.2587 48.6986 24.3989 48.5666 24.4716C48.4318 24.4771 48.2352 24.6199 48.2406 24.7546C48.122 25.1642 47.338 25.8029 47.0012 25.8164C46.7317 25.8272 46.6644 25.8299 46.6779 26.1668C46.686 26.3689 46.6267 26.5736 46.5594 26.5764C46.492 26.5791 46.36 26.6518 46.298 26.7893C45.778 27.2824 44.87 28.196 44.129 28.2257C43.9943 28.2311 43.7922 28.2392 43.7276 28.3093C43.6602 28.312 43.6629 28.3794 43.5955 28.3821C43.3934 28.3902 43.1805 28.1288 43.3045 27.854C43.3637 27.6492 43.2963 27.6519 43.0269 27.6627C42.7574 27.6735 42.6874 27.6088 42.7466 27.404C42.8086 27.2666 42.8678 27.0618 42.8597 26.8597C42.8516 26.6576 43.0348 26.178 43.4201 25.6902C43.738 25.2051 43.9912 24.7902 43.9885 24.7228C43.9858 24.6554 44.1852 24.5799 44.3172 24.5072C44.5166 24.4317 44.6459 24.2916 44.6405 24.1568C44.6297 23.8874 44.7563 23.6799 45.209 23.1894C45.4057 23.0466 45.5323 22.8391 45.5296 22.7717C45.5242 22.637 45.6535 22.4969 45.7828 22.3567C45.9795 22.2139 46.1088 22.0738 46.1061 22.0064C46.1034 21.939 46.2974 21.7288 46.4941 21.586C46.6908 21.4432 46.8174 21.2357 46.8147 21.1683C46.7446 21.1036 46.5398 21.0444 46.2704 21.0552C46.0009 21.066 45.6668 21.1469 45.5375 21.287C45.4728 21.3571 45.3381 21.3625 45.2034 21.3679C45.136 21.3706 45.0686 21.3733 45.0013 21.376C44.7965 21.3167 44.6645 21.3895 44.5998 21.4596C44.6025 21.5269 44.201 21.6105 43.7322 21.6968C43.2633 21.7831 42.9292 21.864 42.8618 21.8667C42.8618 21.8667 42.6624 21.9421 42.5304 22.0149C42.3957 22.0203 42.1316 22.1659 41.9323 22.2413C41.8002 22.3141 41.4069 22.5998 41.1482 22.88C40.8896 23.1603 40.5635 23.4433 40.4962 23.446C40.4288 23.4487 40.2968 23.5214 40.3022 23.6562C40.313 23.9256 39.9843 24.1412 39.7148 24.152C39.6475 24.1547 39.5801 24.1574 39.51 24.0928C39.3025 23.9662 39.3025 23.9662 39.4481 24.2302C39.5963 24.5616 39.599 24.629 39.4643 24.6344C39.3296 24.6398 39.0063 24.9901 38.683 25.3405C38.295 25.7609 37.7103 26.3241 37.3197 26.6771C36.8616 27.0329 36.277 27.5961 35.889 28.0165C35.501 28.4369 35.175 28.7199 35.1077 28.7226C34.9729 28.728 34.9756 28.7954 34.9783 28.8627C34.981 28.9301 34.849 29.0029 34.717 29.0756C34.5823 29.081 34.2589 29.4314 33.9329 29.7143C33.4803 30.2048 33.0223 30.5605 32.3486 30.5876C32.2112 30.5256 32.1465 30.5957 32.1519 30.7304C32.1573 30.8651 32.0927 30.9352 32.0253 30.9379C31.958 30.9406 31.8232 30.946 31.7586 31.0161C31.5565 31.0242 31.0149 30.9784 31.004 30.709C31.0013 30.6416 30.934 30.6443 30.8666 30.647C30.6699 30.7899 30.368 29.9923 30.5593 29.7147C30.6213 29.5773 30.6751 29.2378 30.6643 28.9683C30.6562 28.7662 30.7101 28.4267 30.9041 28.2165C31.2247 27.7988 31.7284 26.9015 31.7257 26.8341C31.723 26.7667 31.8524 26.6266 31.9844 26.5538C32.1137 26.4137 32.1757 26.2763 32.173 26.2089C32.1056 26.2116 32.2322 26.0041 32.3615 25.864C32.4909 25.7238 32.6175 25.5163 32.6148 25.449C32.6121 25.3816 32.6767 25.3115 32.7441 25.3088C32.8788 25.3034 33.1294 24.8211 32.9865 24.6244C32.9838 24.557 32.8491 24.5624 32.7844 24.6325C32.6524 24.7053 32.5878 24.7753 32.5177 24.7107C32.4476 24.646 31.5126 24.8859 31.0492 25.107C30.9818 25.1097 30.5803 25.1932 30.5857 25.328C30.451 25.3334 29.7154 25.4978 29.6508 25.5679C29.5214 25.708 29.4541 25.7107 29.2466 25.5841C29.1091 25.5221 29.0391 25.4575 28.9717 25.4602C28.837 25.4656 28.8397 25.533 28.8451 25.6677C28.8505 25.8024 28.7185 25.8752 28.5164 25.8833C28.3816 25.8887 27.9802 25.9723 27.6487 26.1205C27.382 26.1987 27.1152 26.2769 27.0479 26.2796C27.0452 26.2122 26.7111 26.2931 26.3796 26.4413C26.0455 26.5222 25.5794 26.6758 25.3773 26.684C24.507 26.8538 24.3103 26.9966 23.1437 28.1905C22.8176 28.4735 22.5563 28.6864 22.4889 28.6891C22.4216 28.6918 22.2922 28.8319 22.2303 28.9693C22.2357 29.1041 22.1064 29.2442 22.039 29.2469C21.9716 29.2496 21.7777 29.4598 21.651 29.6673C21.4571 29.8775 21.1957 30.0904 21.061 30.0958C20.9262 30.1012 20.7942 30.174 20.7323 30.3114C20.6056 30.5189 20.1422 30.7399 19.738 30.7561C19.5359 30.7642 19.3985 30.7023 19.2611 30.6403C19.1209 30.511 18.9835 30.449 18.8488 30.4544C18.714 30.4598 18.6951 29.9883 18.8244 29.8482C18.9565 29.7754 18.9538 29.708 18.8109 29.5113C18.6654 29.2473 18.7192 28.9078 18.9779 28.6275C19.1072 28.4874 19.1665 28.2826 19.0937 28.1505C19.0209 28.0185 18.9509 27.9539 18.8835 27.9566C18.8161 27.9593 18.7515 28.0293 18.7569 28.1641C18.7623 28.2988 18.6303 28.3716 18.4282 28.3797C17.7572 28.4741 17.6899 28.4768 17.5578 28.5495C17.4258 28.6223 17.2911 28.6277 17.1537 28.5657C17.0863 28.5684 16.8842 28.5766 16.7549 28.7167C16.6902 28.7868 16.5555 28.7922 16.3534 28.8003C16.286 28.803 16.1513 28.8084 16.0839 28.8111C15.9465 28.7491 15.8118 28.7545 15.677 28.7599C15.6097 28.7626 15.5423 28.7653 15.4777 28.8354C15.4804 28.9028 15.0789 28.9863 14.7421 28.9999C14.3379 29.0161 13.9984 28.9622 13.9283 28.8976C13.7854 28.7009 12.5299 29.3585 12.3413 29.7034C12.282 29.9082 12.0207 30.1211 11.824 30.264C11.692 30.3367 11.4953 30.4796 11.5007 30.6143C11.5034 30.6817 11.4414 30.8191 11.3067 30.8245C11.1747 30.8973 10.9106 31.0428 10.7813 31.1829C10.264 31.7435 10.0646 31.8189 9.86251 31.827C9.39096 31.846 8.9059 31.5281 8.82502 31.1939C8.75226 31.0619 8.67408 30.7952 8.60131 30.6631C8.38841 30.4018 8.57158 29.9221 8.9057 29.8413C9.17246 29.7631 9.16975 29.6957 9.09158 29.429C9.01611 29.2296 9.21009 29.0194 9.41218 29.0113C9.47955 29.0086 9.61698 29.0705 9.68705 29.1352C9.82718 29.2645 9.82448 29.1971 9.81907 29.0624C9.81367 28.9277 9.7436 28.863 9.67624 28.8657C9.40678 28.8765 9.59266 28.4642 10.0453 27.9738C10.5572 27.2785 11.7103 25.7479 11.7049 25.6131C11.7049 25.6131 11.8961 25.3356 12.0901 25.1254C12.3488 24.8451 12.5401 24.5675 12.5374 24.5002C12.5347 24.4328 12.5966 24.2954 12.7286 24.2226C12.796 24.2199 12.858 24.0825 12.8553 24.0151C12.8472 23.813 13.4318 23.2498 13.6339 23.2417C13.9707 23.2282 14.0327 23.0907 13.8898 22.894C13.7497 22.7647 13.8117 22.6273 14.1404 22.4117C14.5957 21.9886 14.5903 21.8539 14.2535 21.8674C14.1188 21.8728 13.7254 22.1584 13.4667 22.4387C13.1407 22.7217 12.8147 23.0046 12.7474 23.0073C12.68 23.0101 12.6153 23.0801 12.6207 23.2148C12.6234 23.2822 12.4995 23.5571 12.3028 23.6999C11.9849 24.185 11.473 24.8802 11.0851 25.3006C10.9558 25.4408 10.8938 25.5782 10.8965 25.6456C10.9019 25.7803 10.7025 25.8558 10.5732 25.9959C10.3738 26.0714 10.2445 26.2115 10.2472 26.2789C10.2526 26.4136 10.1879 26.4837 10.0559 26.5564C9.92117 26.5618 9.85921 26.6993 9.86461 26.834C9.86732 26.9014 9.67604 27.1789 9.34732 27.3945C8.88658 27.6829 8.82733 27.8877 8.9055 28.1544C8.9055 28.1544 8.71152 28.3647 8.51483 28.5075C8.32084 28.7177 8.12686 28.9279 8.12956 28.9953C8.13226 29.0626 7.94098 29.3402 7.747 29.5504C7.48565 29.7633 7.227 30.0435 7.16775 30.2483C6.85525 30.8681 6.46728 31.2885 6.19782 31.2993C6.06309 31.3047 5.99303 31.2401 5.92026 31.1081C5.84479 30.9087 5.84479 30.9087 5.71817 31.1162C5.65621 31.2536 5.59155 31.3237 5.52418 31.3264C5.38945 31.3318 5.31939 31.2671 5.17655 31.0704C5.10108 30.871 4.96094 30.7417 4.89358 30.7444C4.4894 30.7606 4.65635 29.8768 5.10899 29.3863C5.30297 29.1761 5.62358 28.7584 5.68013 28.4863C5.80675 28.2788 6.00074 28.0686 6.0654 27.9985C6.19742 27.9257 6.32675 27.7856 6.32134 27.6509C6.3806 27.4461 6.57188 27.1685 6.6958 26.8936C6.88978 26.6834 7.0164 26.476 6.94904 26.4787C6.88167 26.4814 6.94634 26.4113 7.00829 26.2739C7.13762 26.1337 7.26694 25.9936 7.3316 25.9235C7.39626 25.8535 7.51748 25.5112 7.6414 25.2364C7.76532 24.9615 8.08862 24.6112 8.28261 24.401C8.40923 24.1935 8.60321 23.9833 8.59781 23.8485C8.59511 23.7812 8.65707 23.6438 8.79179 23.6383C8.85646 23.5683 8.98578 23.4281 8.98308 23.3608C8.97767 23.2261 8.97497 23.1587 9.04233 23.156C9.1097 23.1533 9.23902 23.0132 9.23361 22.8784C9.29557 22.741 9.4249 22.6009 9.55963 22.5955C9.96381 22.5792 9.88834 22.3799 9.54611 22.2586C9.07186 22.2102 8.66497 22.159 8.39552 22.1699C8.19342 22.178 8.0614 22.2507 8.0614 22.2507C8.0641 22.3181 7.59525 22.4044 7.05634 22.426C6.51743 22.4476 5.30758 22.5636 4.36448 22.6015C3.7582 22.6258 3.35672 22.7094 3.08726 22.7202C2.68308 22.7364 2.54565 22.6744 2.40821 22.6125C2.33545 22.4804 2.19801 22.4185 2.06599 22.4913C1.93396 22.564 1.71566 22.1679 1.84498 22.0278C1.84228 21.9605 1.83687 21.8257 1.76951 21.8284C1.28715 21.5779 1.78822 20.6132 2.26518 20.729C2.40261 20.7909 2.46997 20.7882 2.39991 20.7236C2.32444 20.5242 2.79328 20.4379 5.34771 20.2005C6.56027 20.1518 7.83478 19.9658 8.10424 19.9549C8.57038 19.8013 9.10659 19.7123 9.51078 19.6961C9.71287 19.688 9.91767 19.7472 10.0524 19.7418C10.1198 19.7391 10.1898 19.8038 10.2572 19.8011C10.3919 19.7957 10.4566 19.7256 10.5212 19.6556C10.6506 19.5154 10.7853 19.51 10.9227 19.572C11.0602 19.6339 11.1949 19.6285 11.3835 19.2836C11.6987 18.7312 11.9573 18.4509 12.2941 18.4374C12.4962 18.4293 12.7037 18.5559 12.9139 18.7499C13.0541 18.8792 13.3235 18.8684 13.5256 18.8603C13.6603 18.8549 13.7951 18.8495 13.7924 18.7821C13.787 18.6474 14.2369 18.0896 14.439 18.0815C14.5063 18.0788 14.5737 18.0761 14.571 18.0087C14.5629 17.8066 15.6621 16.6155 15.8642 16.6074C15.9316 16.6047 15.9289 16.5373 15.9262 16.4699C15.8561 16.4053 15.9881 16.3325 16.1202 16.2597C16.3223 16.2516 16.4516 16.1115 16.4462 15.9768C16.4354 15.7073 19.4799 12.5489 19.9433 12.3279C20.0753 12.2551 20.2693 12.0449 20.4014 11.9721C20.7247 11.6218 21.5842 11.1825 21.7243 11.3118C21.8617 11.3738 22.0638 11.3657 22.1986 11.3603C22.3306 11.2875 22.468 11.3494 22.4761 11.5515C22.5489 11.6836 22.6217 11.8156 22.689 11.8129C22.7564 11.8102 22.8265 11.8748 22.8319 12.0096C22.8346 12.0769 22.9073 12.209 22.9747 12.2063C23.0421 12.2036 23.0448 12.2709 22.9828 12.4084C22.9209 12.5458 22.9263 12.6805 22.999 12.8125C23.0691 12.8772 23.0071 13.0146 22.8805 13.2221C22.7539 13.4296 22.6273 13.6371 22.6973 13.7018C22.7027 13.8365 22.5142 14.1814 22.1909 14.5318C21.9322 14.812 21.6116 15.2297 21.5496 15.3672C21.4365 15.9115 20.6122 17.2265 20.4128 17.302C20.278 17.3074 20.1514 17.5149 20.1568 17.6496C20.1622 17.7844 20.5017 17.8382 20.7712 17.8274C21.108 17.8139 21.4421 17.733 21.4367 17.5983C21.558 17.2561 21.8193 17.0432 22.0861 16.965C22.2208 16.9596 22.2854 16.8895 22.2827 16.8222C22.21 16.6901 22.342 16.6174 22.4067 16.5473C22.5387 16.4745 22.8674 16.2589 23.056 15.914C23.2473 15.6364 23.4412 15.4262 23.5086 15.4235C23.576 15.4208 23.77 15.2106 23.9639 15.0004C24.0906 14.7929 24.2845 14.5827 24.3519 14.58C24.4866 14.5746 24.6187 14.5019 24.748 14.3617C24.8127 14.2917 25.136 13.9413 25.462 13.6583C25.7179 13.3107 26.0466 13.0951 26.114 13.0924C26.1814 13.0897 26.3753 12.8795 26.5047 12.7394C26.8899 12.2516 27.6686 11.4782 28.194 11.1197C28.3907 10.9769 28.5846 10.7667 28.6493 10.6966C28.7786 10.5565 28.978 10.481 29.1127 10.4756C29.2475 10.4702 29.3148 10.4675 29.3849 10.5322C29.5223 10.5941 29.5223 10.5941 29.5196 10.5268C29.5169 10.4594 29.4442 10.3274 29.3741 10.2627C29.2367 10.2008 29.886 9.56745 30.0881 9.55934C30.1554 9.55664 30.3494 9.34644 30.476 9.13895C30.9933 8.57841 31.7154 8.07713 31.9849 8.06632C32.187 8.05822 32.2516 7.98815 32.1789 7.85612C32.1061 7.7241 32.1681 7.58667 32.3674 7.5112C32.5022 7.50579 32.6342 7.43302 32.6315 7.36566C32.6234 7.16356 33.553 6.78891 33.6904 6.85087C33.7605 6.91553 33.8251 6.84546 33.8224 6.7781C33.8143 6.576 34.2751 6.28763 34.8759 6.12858C35.1454 6.11777 35.9538 6.08534 35.9727 6.55689C35.9781 6.69161 36.1209 6.8883 36.1883 6.8856C36.4631 7.00952 36.4875 7.61579 36.3663 7.95802C36.3043 8.09545 36.1804 8.37031 36.0538 8.57781C35.9945 8.78261 35.8032 9.06017 35.7359 9.06287C35.6712 9.13294 35.6092 9.27037 35.6146 9.4051C35.6173 9.47246 35.5554 9.60989 35.488 9.6126C35.4207 9.6153 35.4234 9.68266 35.4288 9.81739C35.5015 9.94942 35.4396 10.0868 35.3075 10.1596C35.1755 10.2324 35.1109 10.3025 35.1163 10.4372C35.119 10.5045 34.9923 10.712 34.863 10.8522C34.7337 10.9923 34.6044 11.1324 34.6098 11.2672C34.6125 11.3345 34.4212 11.6121 34.2299 11.8897C33.9713 12.1699 33.78 12.4475 33.78 12.4475C33.7827 12.5149 33.4594 12.8652 33.1361 13.2155C32.8128 13.5659 32.5595 13.9809 32.5649 14.1156C32.5703 14.2503 32.3791 14.5279 32.1851 14.7381C31.9884 14.8809 31.7944 15.0911 31.7971 15.1585C31.7998 15.2258 31.6732 15.4333 31.4765 15.5762C31.1505 15.8591 31.0858 15.9292 31.5574 15.9103C31.7595 15.9022 31.8942 15.8968 32.1637 15.886C32.9693 15.7862 33.2361 15.708 33.4301 15.4978C33.8827 15.0073 34.4054 14.5815 34.6075 14.5734C34.6748 14.5707 34.7368 14.4333 34.7988 14.2959C34.7934 14.1611 34.9227 14.021 35.0574 14.0156C35.1921 14.0102 35.5208 13.7946 35.7121 13.517C35.9708 13.2367 36.2348 13.0912 36.4369 13.0831C36.7064 13.0723 36.771 13.0022 36.7602 12.7328C36.7494 12.4633 37.1428 12.1776 37.415 12.2342C37.4823 12.2315 37.5443 12.0941 37.5389 11.9593C37.5308 11.7572 37.5954 11.6872 37.8622 11.609C38.1289 11.5308 38.261 11.4581 38.261 11.4581C38.1855 11.2587 38.7728 10.7628 39.107 10.6819C39.239 10.6091 39.4357 10.4663 39.433 10.3989C39.4949 10.2615 39.627 10.1887 39.7617 10.1833C39.9638 10.1752 40.0257 10.0378 40.0877 9.90037C40.147 9.69558 40.3409 9.48537 40.5403 9.4099C40.737 9.26707 41.063 8.9841 41.3244 8.7712C41.5157 8.49363 41.777 8.28073 41.8444 8.27803C41.9117 8.27532 42.2404 8.05972 42.5638 7.70939C42.9571 7.42371 43.2858 7.20811 43.3532 7.20541C43.4206 7.2027 43.5499 7.06257 43.7439 6.85237C43.8705 6.64487 44.0672 6.50203 44.1992 6.42927C44.3986 6.35379 44.5953 6.21096 44.7219 6.00346C44.8512 5.86333 45.0479 5.72049 45.1826 5.71508C45.3174 5.70968 45.4467 5.56955 45.576 5.42941C45.6972 5.08719 46.5568 4.64787 46.7643 4.77449C46.8343 4.83915 46.8963 4.70172 46.9555 4.49693C47.0121 4.22477 47.4728 3.93639 47.745 3.99295C47.8124 3.99024 47.877 3.92018 47.8743 3.85281C47.8716 3.78545 47.939 3.78275 48.0737 3.77734C48.2084 3.77194 48.3432 3.76653 48.4833 3.89585C48.6234 4.02518 48.6908 4.02247 48.6854 3.88775C48.68 3.75302 48.7446 3.68295 48.8794 3.67754C49.1488 3.66673 49.7067 4.11666 49.7902 4.51815C49.7983 4.72024 49.8738 4.91963 50.0112 4.98159C50.2861 5.10551 49.6046 6.61724 48.7775 7.86493C48.4596 8.34999 48.2063 8.76499 48.209 8.83235C48.2117 8.89972 48.015 9.04256 47.8157 9.11803C47.5489 9.1962 47.4196 9.33633 47.4277 9.53843C47.4439 9.94261 47.1206 10.2929 46.7811 10.2391C46.6463 10.2445 46.579 10.2472 46.5817 10.3146C46.5844 10.3819 46.6544 10.4466 46.7218 10.4439C46.9239 10.4358 46.8701 10.7753 46.544 11.0583C46.4147 11.1984 46.1507 11.3439 46.0159 11.3494C45.8812 11.3548 45.8166 11.4248 45.892 11.6242C45.9675 11.8236 45.9082 12.0284 45.6496 12.3087C44.4237 13.7073 44.3618 13.8447 44.7013 13.8986C44.836 13.8932 44.9061 13.9578 45.0408 13.9524C45.1082 13.9497 45.2402 13.877 45.2402 13.877C45.3049 13.8069 45.3722 13.8042 45.507 13.7988C45.6417 13.7934 45.9138 13.8499 46.0513 13.9119C46.1887 13.9738 46.2534 13.9038 46.3827 13.7637C46.512 13.6235 46.7114 13.548 47.0482 13.5345C47.5871 13.5129 47.7192 13.4401 48.4331 12.7368C48.8885 12.3137 49.4812 11.9525 49.6806 11.8771C49.8773 11.7342 50.0066 11.5941 50.0012 11.4594C49.9904 11.1899 51.2244 9.99336 51.6286 9.97714C51.7633 9.97174 51.8953 9.89897 51.8899 9.76424C51.8764 9.42742 53.1832 8.36291 53.5092 8.07994C53.7032 7.86974 53.8971 7.65954 53.9645 7.65684C54.0319 7.65413 54.1639 7.58136 54.2286 7.5113C54.4144 7.099 55.2686 6.52496 55.5407 6.58151C55.7455 6.64077 55.8129 6.63807 55.7347 6.37131C55.6592 6.17192 55.7885 6.03179 56.1819 5.74612C56.5106 5.53051 56.9013 5.17747 57.0306 5.03734C57.2246 4.82714 57.4213 4.68431 57.4887 4.6816C57.6234 4.6762 57.6881 4.60613 57.6827 4.4714C57.6718 4.20195 58.1972 3.84351 58.5368 3.89736C58.7416 3.95661 58.8062 3.88655 58.8628 3.61439C58.922 3.40959 59.046 3.13473 59.1133 3.13203C59.2453 3.05926 59.6414 2.84095 59.9055 2.69541C60.3015 2.4771 60.633 2.32886 60.8351 2.32076C60.9024 2.31805 60.9725 2.38271 60.9752 2.45008C60.9779 2.51744 60.9806 2.58481 61.0453 2.51474C61.2419 2.3719 61.5923 2.69521 61.5357 2.96737C61.4738 3.1048 61.5438 3.16946 61.6786 3.16406C62.2848 3.13973 62.2069 4.55979 61.5467 4.92363C61.4147 4.9964 61.35 5.06647 61.3527 5.13383C61.4228 5.19849 61.1211 6.08774 60.9298 6.36531C60.7978 6.43808 60.4772 6.85577 60.1539 7.20611C59.8306 7.55644 59.642 7.90137 59.7121 7.96603C59.7148 8.03339 59.5855 8.17353 59.3861 8.249C59.0547 8.39724 58.99 8.46731 59.0655 8.6667C59.1436 8.93345 58.8149 9.14906 58.5428 9.0925C58.338 9.03325 58.3461 9.23534 58.4889 9.43203C58.6264 9.49398 58.5644 9.63142 58.3677 9.77425C58.171 9.91709 58.0417 10.0572 58.0444 10.1246C58.1145 10.1892 57.9824 10.262 57.8504 10.3348C57.6483 10.3429 57.4543 10.5531 57.4624 10.7552C57.4005 10.8926 57.2119 11.2375 57.0206 11.5151C56.3093 12.2858 56.312 12.3532 57.1878 12.3181C58.1282 12.2129 58.3249 12.07 59.3002 11.1538C59.5588 10.8735 59.7528 10.6633 59.8202 10.6606C59.8876 10.6579 60.1489 10.445 60.3429 10.2348C60.6015 9.95452 60.8629 9.74162 60.9302 9.73892C60.9976 9.73622 61.259 9.52331 61.4502 9.24575C61.6442 9.03555 61.9675 8.68522 62.2343 8.60704C62.5657 8.4588 62.7624 8.31596 62.7597 8.2486C62.7516 8.04651 63.2716 7.55334 63.409 7.6153C63.5491 7.74462 63.8724 7.39429 63.8616 7.12483C63.8562 6.9901 63.9856 6.84997 64.0529 6.84727C64.1876 6.84186 64.3197 6.76909 64.317 6.70173C64.3789 6.5643 64.4436 6.49423 64.511 6.49153C64.5783 6.48882 64.775 6.34599 64.9043 6.20586C65.683 5.43242 66.2057 5.00661 66.3377 4.93384C66.4051 4.93114 66.6017 4.78831 66.7311 4.64817C66.9251 4.43797 67.1217 4.29514 67.1891 4.29243C67.3238 4.28703 67.5205 4.14419 67.7145 3.93399C68.4931 3.16056 68.6898 3.01772 69.0267 3.00421C69.1614 2.9988 69.2934 2.92603 69.288 2.7913C69.2826 2.65658 69.4173 2.65117 70.091 2.62414C70.2257 2.61874 70.3604 2.61333 70.4278 2.61063C70.6972 2.59982 70.8993 2.59171 70.964 2.52165C71.096 2.44888 71.096 2.44888 71.0987 2.51624C71.1041 2.65097 71.2416 2.71293 71.3089 2.71023C71.4437 2.70482 71.5137 2.76948 71.5218 2.97158C71.5299 3.17367 71.6027 3.30569 71.6701 3.30299C72.0069 3.28948 71.5328 4.92784 71.1368 5.14615C71.0694 5.14885 70.9401 5.28898 70.9428 5.35635C70.9482 5.49108 70.8243 5.76594 70.6276 5.90877C70.501 6.11627 70.245 6.4639 70.1858 6.6687C69.9972 7.01362 69.4098 7.5095 69.2697 7.38017C69.2023 7.38288 69.1377 7.45294 69.1458 7.65504C69.2239 7.92179 69.1593 7.99186 68.8925 8.07003C68.7605 8.1428 68.6285 8.21557 68.6339 8.3503C68.6393 8.48502 68.386 8.90002 68.0627 9.25035C67.7394 9.60069 67.4835 9.94832 67.4862 10.0157C67.4889 10.083 67.3569 10.1558 67.1575 10.2313C66.8934 10.3768 66.7641 10.517 66.8342 10.5816C66.9069 10.7136 66.845 10.8511 66.7103 10.8565C66.4462 11.002 66.4597 11.3388 66.6618 11.3307C67.3354 11.3037 68.742 11.0449 68.9844 10.3604C69.0464 10.223 69.1083 10.0856 69.1757 10.0828C69.3778 10.0747 69.5071 9.93461 70.1564 9.3013C70.4151 9.02104 70.7438 8.80543 70.8758 8.73266C71.0752 8.65719 71.2072 8.58442 71.2045 8.51706C71.1991 8.38233 71.5224 8.03199 71.7245 8.02389C71.7919 8.02118 71.8538 7.88375 71.9185 7.81369C71.9805 7.67626 72.1799 7.60078 72.3119 7.52801C72.514 7.51991 72.6433 7.37977 72.6379 7.24504C72.6972 7.04025 72.8265 6.90012 72.9585 6.82735C73.0932 6.82194 73.2226 6.68181 73.2199 6.61444C73.2171 6.54708 73.4165 6.47161 73.6159 6.39614C73.818 6.38803 74.0821 6.24249 74.1413 6.0377C74.2033 5.90026 74.4673 5.75473 74.6694 5.74662C74.8715 5.73851 75.009 5.80047 75.0817 5.9325C75.1518 5.99716 75.2192 5.99445 75.3539 5.98905C75.4212 5.98635 75.4886 5.98364 75.556 5.98094C76.2242 5.81919 76.3941 6.68952 75.8876 7.51951C75.7637 7.79437 75.7664 7.86173 75.9065 7.99106C76.0493 8.18774 75.6668 8.74287 75.3973 8.75368C75.33 8.75639 75.3354 8.89111 75.3408 9.02584C75.4135 9.15787 75.4189 9.2926 75.2842 9.298C75.2169 9.3007 75.0902 9.5082 74.9663 9.78306C74.8397 9.99056 74.5865 10.4056 74.3898 10.5484C74.1958 10.7586 74.0665 10.8987 74.1338 10.896C74.2012 10.8933 74.2658 10.8233 74.3332 10.8206C74.4679 10.8151 74.6 10.7424 74.6 10.7424C74.6 10.7424 75.341 10.7126 77.6933 10.4833C77.8954 10.4752 78.2268 10.327 78.4181 10.0494C78.6794 9.83651 78.9435 9.69098 79.0109 9.68827C79.0782 9.68557 79.2749 9.54273 79.4042 9.4026C79.5336 9.26247 79.6629 9.12233 79.7976 9.11693C79.865 9.11423 79.9943 8.97409 79.9889 8.83936C80.0508 8.70193 80.1775 8.49444 80.3769 8.41896C80.5763 8.34349 80.7083 8.27072 80.7029 8.13599C80.7002 8.06863 80.7648 7.99856 80.8996 7.99316C80.9669 7.99046 81.1636 7.84762 81.3603 7.70478C81.7483 7.28438 82.077 7.06878 82.4111 6.9879C82.5431 6.91513 82.6078 6.84506 82.6051 6.7777C82.6024 6.71034 82.667 6.64027 82.8045 6.70223C82.9419 6.76419 83.0793 6.82615 83.2141 6.82074C83.4189 6.88 83.4189 6.88 83.276 6.68331C83.1332 6.48662 83.3245 6.20906 83.5266 6.20095C83.5939 6.19825 83.5966 6.26561 83.664 6.26291C83.7341 6.32757 83.7314 6.26021 83.726 6.12548C83.7206 5.99075 83.8526 5.91798 83.99 5.97994C84.1274 6.0419 84.3268 5.96643 84.3241 5.89907C84.3888 5.829 84.5208 5.75623 84.6555 5.75082C85.0597 5.73461 85.6095 5.98244 85.623 6.31927C85.6284 6.45399 85.7712 6.65068 86.0461 6.7746C86.3883 6.89581 86.4072 7.36736 86.1621 7.98445C86.0974 8.05452 86.0409 8.32668 86.0463 8.46141C86.0517 8.59613 85.9277 8.87099 85.7984 9.01113C85.6691 9.15126 85.6098 9.35606 85.6125 9.42342C85.6826 9.48808 85.6207 9.62551 85.4267 9.83571C85.2327 10.0459 85.2354 10.1133 85.3728 10.1752C85.4429 10.2399 85.5776 10.2345 85.6423 10.1644C85.6396 10.0971 85.7716 10.0243 85.8417 10.089C85.9791 10.1509 86.5881 10.194 87.2617 10.1669C88.0027 10.1372 88.6791 10.1775 88.8165 10.2395C89.0213 10.2988 89.1533 10.226 89.1533 10.226C89.1506 10.1586 89.6841 10.0023 90.4197 9.83782C91.158 9.74072 91.8263 9.57897 91.8909 9.5089C92.0203 9.36877 92.2897 9.35796 92.5592 9.34715C92.7613 9.33904 92.9634 9.33093 93.1008 9.39289C93.2409 9.52222 93.3783 9.58418 93.443 9.51411C93.443 9.51411 93.6451 9.506 93.7825 9.56796C94.0574 9.69188 94.1437 10.1607 93.947 10.3036C93.815 10.3763 93.8177 10.4437 93.9578 10.573C94.0279 10.6377 94.0333 10.7724 93.9686 10.8425C93.8393 10.9826 93.842 11.05 93.9821 11.1793C94.0549 11.3113 94.1304 11.5107 94.0684 11.6481C94.0064 11.7856 94.0819 11.985 94.1547 12.117C94.2975 12.3137 94.3002 12.381 94.1655 12.3864C94.1008 12.4565 94.0362 12.5266 94.0389 12.5939C94.047 12.796 93.0554 13.3081 92.918 13.2462ZM15.1244 26.7579C15.2592 26.7525 15.3265 26.7498 15.3238 26.6824L15.3265 26.7498C15.2564 26.6852 15.1217 26.6906 15.0544 26.6933C14.9223 26.766 14.9897 26.7633 15.1244 26.7579ZM17.1389 18.1081C17.0716 18.1108 17.0743 18.1782 17.0743 18.1782C17.077 18.2455 17.077 18.2455 17.1443 18.2428C17.2117 18.2401 17.2117 18.2401 17.209 18.1727C17.209 18.1727 17.2063 18.1054 17.1389 18.1081ZM16.8749 18.2536L16.8102 18.3237C16.8129 18.3911 16.8803 18.3884 16.8803 18.3884C16.9477 18.3856 16.9477 18.3856 16.945 18.3183C16.945 18.3183 16.9423 18.2509 16.8749 18.2536ZM16.1775 22.7348C16.1102 22.7375 16.1102 22.7375 16.1129 22.8049C16.1129 22.8049 16.1156 22.8722 16.1829 22.8695L16.2476 22.7995C16.2449 22.7321 16.1775 22.7348 16.1775 22.7348ZM21.9792 24.3913C22.2405 24.1784 22.3025 24.0409 22.1596 23.8442C22.0842 23.6449 22.0842 23.6449 22.0249 23.8497C22.0303 23.9844 21.8983 24.0571 21.7635 24.0626C21.6288 24.068 21.4267 24.0761 21.23 24.2189C20.966 24.3644 20.0984 24.6017 18.8993 24.9871C18.6972 24.9952 18.5625 25.0006 18.3604 25.0088C18.3604 25.0088 18.293 25.0115 18.2284 25.0815C18.1664 25.219 16.9755 25.8065 16.3746 25.9656C15.9085 26.1192 15.5852 26.4695 15.5933 26.6716C15.596 26.739 15.6633 26.7363 15.7981 26.7309C15.8654 26.7282 16.0002 26.7228 15.9975 26.6554C16.0621 26.5854 16.1295 26.5827 16.1968 26.58C16.3316 26.5745 16.4663 26.5691 16.6037 26.6311C17.0079 26.6149 17.21 26.6068 17.6088 26.4558C17.9402 26.3076 18.4063 26.1539 20.147 25.8142C20.5458 25.6633 21.0146 25.577 21.0119 25.5096C21.0793 25.5069 21.2086 25.3668 21.3406 25.294C21.5373 25.1512 21.6667 25.0111 21.6612 24.8763C21.6558 24.7416 21.7825 24.5341 21.9792 24.3913ZM23.4042 21.2304C23.4689 21.1603 23.3341 21.1657 23.1321 21.1738C22.7279 21.19 22.2563 21.2089 21.8467 21.0904C21.6419 21.0312 21.5045 20.9692 21.4371 20.9719C21.3698 20.9746 21.3725 21.042 21.3779 21.1767C21.3833 21.3114 21.3186 21.3815 21.0465 21.3249C20.8444 21.3331 20.5776 21.4112 20.4483 21.5514C20.3217 21.7589 19.993 21.9745 19.8609 22.0472C19.5322 22.2628 19.5322 22.2628 20.0738 22.3086C20.1412 22.3059 20.2759 22.3005 20.3433 22.2978C20.478 22.2924 20.5454 22.2897 20.61 22.2196C20.6046 22.0849 20.804 22.0094 20.9388 22.004C21.1409 21.9959 21.2729 21.9231 21.3375 21.8531C21.3348 21.7857 21.6016 21.7075 21.8037 21.6994C22.0058 21.6913 22.2052 21.6158 22.2025 21.5485C22.2671 21.4784 22.5339 21.4002 22.8033 21.3894C23.0728 21.3786 23.3395 21.3004 23.4042 21.2304ZM23.7383 21.1495C23.8057 21.1468 23.803 21.0794 23.803 21.0794C23.8003 21.012 23.8003 21.012 23.7329 21.0148C23.7329 21.0148 23.7329 21.0148 23.7383 21.1495ZM46.0534 8.91884C46.1207 8.91613 46.118 8.84877 46.118 8.84877C46.1153 8.7814 46.1153 8.7814 46.048 8.78411C45.9806 8.78681 45.9806 8.78681 45.9833 8.85418C45.9833 8.85418 45.986 8.92154 46.0534 8.91884ZM27.0036 16.7677C27.874 16.5978 27.9413 16.5951 28.1326 16.3176C28.2592 16.1101 28.4559 15.9672 28.5906 15.9618C28.7927 15.9537 28.8547 15.8163 28.8493 15.6816C28.8439 15.5468 29.0325 15.2019 29.2265 14.9917C29.4851 14.7115 29.6764 14.4339 29.6764 14.4339C29.6737 14.3665 29.8003 14.159 29.9296 14.0189C30.0589 13.8788 30.1883 13.7386 30.1829 13.6039C30.1802 13.5365 30.2421 13.3991 30.3768 13.3937C30.5089 13.3209 30.7056 13.1781 30.7002 13.0434C30.7621 12.9059 30.8241 12.7685 30.9588 12.7631C31.0935 12.7577 31.1582 12.6876 31.0881 12.623C31.0827 12.4882 31.2093 12.2807 31.406 12.1379C31.6 11.9277 31.794 11.7175 31.7913 11.6501C31.7859 11.5154 31.9152 11.3753 32.0445 11.2351C32.1766 11.1624 32.2385 11.0249 32.1685 10.9603C32.1685 10.9603 32.2304 10.8228 32.3597 10.6827C32.4891 10.5426 32.4864 10.4752 32.419 10.4779C32.3516 10.4806 32.1522 10.5561 31.8909 10.769C31.6915 10.8445 31.4975 11.0547 31.4975 11.0547C31.5002 11.122 31.4356 11.1921 31.3008 11.1975C31.1661 11.2029 31.1688 11.2703 31.1715 11.3376C31.2416 11.4023 31.1769 11.4724 31.0449 11.5451C30.9129 11.6179 30.6515 11.8308 30.4575 12.041C30.2635 12.2512 30.0669 12.394 29.9995 12.3967C29.9321 12.3994 29.6088 12.7498 29.2181 13.1028C28.8948 13.4532 28.4395 13.8763 28.1755 14.0218C27.712 14.2428 27.324 14.6632 27.3321 14.8653C27.3349 14.9327 27.2702 15.0027 27.2028 15.0054C27.0681 15.0108 26.6128 15.4339 25.6428 16.4849C25.1875 16.908 25.1228 16.9781 25.3923 16.9673C25.4597 16.9646 25.5944 16.9592 25.7965 16.9511C26.1306 16.8702 26.6668 16.7812 27.0036 16.7677ZM33.6302 22.1696C35.1661 21.7706 35.3655 21.6951 36.0094 20.9271C36.656 20.2264 36.7799 19.9515 36.5105 19.9624C36.4431 19.9651 36.4458 20.0324 36.4485 20.0998C36.4512 20.1671 36.1845 20.2453 35.7803 20.2615C35.7129 20.2642 35.5782 20.2696 35.5108 20.2723C35.3087 20.2805 35.1067 20.2886 35.1094 20.3559C35.1094 20.3559 34.9773 20.4287 34.7725 20.3694C34.6378 20.3748 34.5031 20.3802 34.5058 20.4476C34.5112 20.5823 33.8457 20.8115 33.4415 20.8277C33.3067 20.8331 33.0319 20.7092 33.0238 20.5071C33.0211 20.4397 33.0184 20.3723 32.8863 20.4451C32.819 20.4478 32.8271 20.6499 32.8298 20.7173C32.8379 20.9194 32.6412 21.0622 32.4391 21.0703C32.3044 21.0757 32.237 21.0784 32.0996 21.0165C31.9649 21.0219 31.6954 21.0327 31.5661 21.1728C31.4341 21.2456 31.1673 21.3237 31.0353 21.3965C30.9005 21.4019 30.7012 21.4774 30.7039 21.5448C30.6365 21.5475 30.5691 21.5502 30.4344 21.5556C30.367 21.5583 30.2997 21.561 30.2323 21.5637C29.9602 21.5071 29.7635 21.65 29.3755 22.0704C29.0495 22.3533 28.6561 22.639 28.5214 22.6444C28.3867 22.6498 28.322 22.7199 28.3921 22.7845C28.5322 22.9139 28.2089 23.2642 27.9394 23.275C27.67 23.2858 27.6161 23.6253 27.891 23.7493C27.9583 23.7466 28.0958 23.8085 28.1631 23.8058C28.2979 23.8004 28.4973 23.7249 28.7613 23.5794C28.958 23.4366 29.4268 23.3503 29.6936 23.2721C30.0304 23.2586 30.3645 23.1777 30.4966 23.1049C30.5585 22.9675 30.828 22.9567 31.0974 22.9459C31.1648 22.9432 31.2995 22.9378 31.3669 22.9351C31.5016 22.9297 31.6336 22.8569 31.6983 22.7868C31.7603 22.6494 32.027 22.5712 33.6302 22.1696ZM35.1289 25.8879C35.2636 25.8825 35.3283 25.8124 35.3283 25.8124C35.2582 25.7478 35.1235 25.7532 35.0561 25.7559C34.9241 25.8286 34.9914 25.8259 35.1289 25.8879ZM36.6808 24.2063C37.0687 23.7859 37.392 23.4356 37.3247 23.4383C37.1199 23.379 36.4597 23.7429 36.4678 23.9449C36.4706 24.0123 36.2065 24.1578 35.9452 24.3707C35.6811 24.5163 35.4817 24.5918 35.4844 24.6591C35.3497 24.6645 35.7081 25.1899 35.8429 25.1845C35.9102 25.1818 35.9749 25.1118 35.9048 25.0471C35.9048 25.0471 36.2254 24.6294 36.6808 24.2063ZM36.6234 17.7312C38.6362 17.4481 38.903 17.3699 39.0942 17.0923C39.2236 16.9522 39.2882 16.8821 39.2209 16.8848C39.1535 16.8875 39.0188 16.8929 38.8194 16.9684C38.5499 16.9792 37.879 17.0736 37.3428 17.1626C36.8039 17.1842 36.2677 17.2732 36.1356 17.346C36.0036 17.4187 35.8042 17.4942 34.7938 17.5347C34.1902 17.6264 33.8588 17.7747 33.8669 17.9768C33.8696 18.0441 33.9369 18.0414 34.0717 18.036C34.2064 18.0306 34.4731 17.9524 34.5378 17.8824C34.5378 17.8824 34.7399 17.8743 34.8773 17.9362C35.0148 17.9982 35.2196 18.0574 35.2842 17.9874C35.3489 17.9173 35.9525 17.8256 36.6234 17.7312ZM40.9027 20.1235C41.4335 19.8998 41.6329 19.8243 41.6248 19.6222C41.6167 19.4201 41.5466 19.3555 41.4146 19.4282C41.2825 19.501 40.8784 19.5172 40.5415 19.5307C39.9353 19.5551 39.1485 20.1264 39.1647 20.5306C39.1674 20.598 39.3021 20.5926 39.5042 20.5844C39.7063 20.5763 40.0432 20.5628 40.1078 20.4928C40.1051 20.4254 40.5039 20.2744 40.9027 20.1235ZM42.6483 16.5449C42.713 16.4748 42.7103 16.4075 42.7076 16.3401C42.6375 16.2754 42.3762 16.4883 42.4489 16.6204C42.519 16.685 42.5864 16.6823 42.6483 16.5449ZM43.516 16.3077C43.5133 16.2403 43.5106 16.1729 43.4432 16.1756C43.3758 16.1783 43.3112 16.2484 43.3139 16.3158C43.3166 16.3831 43.3193 16.4505 43.3866 16.4478C43.3866 16.4478 43.4513 16.3777 43.516 16.3077ZM44.3863 16.1378C44.4537 16.1351 44.451 16.0677 44.451 16.0677C44.4483 16.0004 44.4483 16.0004 44.3809 16.0031C44.3809 16.0031 44.3135 16.0058 44.3162 16.0731L44.3863 16.1378ZM44.162 10.5466C44.4233 10.3337 44.5499 10.1262 44.5499 10.1262C44.4826 10.1289 44.5445 9.99146 44.6739 9.85132C44.8679 9.64112 45.0591 9.36356 45.2531 9.15336C45.3797 8.94586 45.5764 8.80303 45.6438 8.80032C45.7785 8.79492 45.9051 8.58742 45.8997 8.45269C45.959 8.2479 46.0829 7.97304 46.1476 7.90297C46.2095 7.76554 46.0775 7.83831 45.8135 7.98385C45.5494 8.12938 45.2853 8.27492 45.1506 8.28033C45.0159 8.28573 44.8866 8.42587 44.8219 8.49593C44.7681 8.83546 44.1834 9.39869 43.9813 9.4068C43.9139 9.4095 43.7819 9.48227 43.7173 9.55234C43.6553 9.68977 43.3912 9.83531 43.1946 9.97814C42.9305 10.1237 42.6045 10.4067 42.4752 10.5468C42.3485 10.7543 42.1519 10.8971 42.0171 10.9025C41.8824 10.9079 41.7504 10.9807 41.7531 11.0481C41.7585 11.1828 41.3059 11.6733 41.1711 11.6787C40.9017 11.6895 40.379 12.1153 40.3871 12.3174C40.3224 12.3874 40.1931 12.5276 40.0611 12.6003C39.8024 12.8806 38.6951 13.8696 38.4256 13.8805C38.2235 13.8886 38.0915 13.9613 38.0996 14.1634C38.105 14.2982 38.043 14.4356 37.9757 14.4383C37.841 14.4437 37.7763 14.5138 37.7116 14.5838C37.7143 14.6512 37.5149 14.7267 37.3156 14.8021C36.5099 14.9019 36.9168 14.9531 38.1293 14.9044C38.8703 14.8747 39.4739 14.783 39.4712 14.7157C39.4685 14.6483 39.6032 14.6429 39.7407 14.7048C39.9428 14.6967 40.2122 14.6859 40.4089 14.5431C40.6056 14.4003 40.875 14.3894 40.9424 14.3867C41.0125 14.4514 42.5024 12.9072 42.4943 12.7051C42.4916 12.6378 42.6209 12.4976 42.7502 12.3575C43.2056 11.9344 43.7821 11.1691 43.7767 11.0344C43.7767 11.0344 43.9006 10.7595 44.162 10.5466ZM45.5803 18.9912C45.7178 19.0532 45.7878 19.1178 45.8552 19.1151C45.8552 19.1151 45.9199 19.0451 45.8444 18.8457C45.7743 18.781 45.6369 18.7191 45.5722 18.7891C45.3728 18.8646 45.3728 18.8646 45.5803 18.9912ZM56.1177 9.1898C56.3116 8.97959 56.441 8.83946 56.4383 8.7721C56.3682 8.70744 56.8828 8.07954 57.0175 8.07413C57.0849 8.07143 57.1495 8.00136 57.1441 7.86663C57.1414 7.79927 57.2681 7.59177 57.4001 7.519C57.6614 7.3061 57.6587 7.23874 57.4593 7.31421C57.3246 7.31961 56.9986 7.60258 56.8073 7.88015C56.6187 8.22508 56.3601 8.50534 56.2927 8.50805C56.2254 8.51075 55.8347 8.86378 55.444 9.21682C55.056 9.63722 54.6654 9.99026 54.5307 9.99566C54.4633 9.99836 54.3986 10.0684 54.404 10.2032C54.4067 10.2705 54.3448 10.408 54.2774 10.4107C54.21 10.4134 54.0107 10.4888 53.8813 10.629C53.752 10.7691 53.4907 10.982 53.2886 10.9901C53.0218 11.0683 52.8925 11.2084 52.9626 11.2731C52.9653 11.3404 52.9033 11.4779 52.7713 11.5506C52.642 11.6908 52.5773 11.7608 52.6447 11.7581C52.9141 11.7473 51.9953 12.3914 51.7286 12.4696C51.5265 12.4777 51.3972 12.6179 51.4026 12.7526C51.4053 12.82 51.5427 12.8819 51.8122 12.8711C52.0816 12.8603 52.4831 12.7767 52.9519 12.6904L52.9546 12.7578C53.2888 12.6769 53.8734 12.1137 53.868 11.979C53.8599 11.7769 54.5146 11.2783 54.7841 11.2675C55.0535 11.2567 55.0535 11.2567 54.9134 11.1273C54.6978 10.7986 55.3336 9.8285 55.8052 9.80958C55.8725 9.80688 55.8698 9.73952 55.8671 9.67216C55.7971 9.60749 55.9237 9.4 56.1177 9.1898ZM63.2428 15.2464C63.2428 15.2464 63.3102 15.2437 63.3075 15.1763C63.3048 15.1089 63.2374 15.1116 63.2374 15.1116C63.1701 15.1143 63.1701 15.1143 63.1728 15.1817C63.1755 15.2491 63.1755 15.2491 63.2428 15.2464ZM65.8719 8.4611C66.1333 8.2482 66.3192 7.83591 66.1171 7.84401C66.0497 7.84672 65.9851 7.91678 65.9905 8.05151C65.9932 8.11888 65.8638 8.25901 65.5971 8.33719C65.3977 8.41266 65.2684 8.55279 65.2738 8.68752C65.2765 8.75488 65.0798 8.89772 64.8804 8.97319C64.681 9.04866 64.4816 9.12413 64.5517 9.1888C64.6245 9.32082 63.6464 10.1697 63.377 10.1805C63.3096 10.1832 63.245 10.2533 63.3177 10.3853C63.3905 10.5174 63.3258 10.5874 63.0564 10.5982C62.8543 10.6063 62.7223 10.6791 62.663 10.8839C62.6711 11.086 62.4744 11.2288 62.3424 11.3016C62.0783 11.4471 61.8197 11.7274 61.8952 11.9268C61.9652 11.9915 62.1 11.9861 62.2293 11.8459C62.3613 11.7732 62.4287 11.7705 62.496 11.7678C62.5634 11.765 62.6308 11.7623 62.7008 11.827C62.841 11.9563 62.9083 11.9536 62.9703 11.8162C62.9649 11.6815 63.1643 11.606 63.3664 11.5979C63.5685 11.5898 63.7005 11.517 63.6304 11.4524C63.6088 10.9134 63.8728 10.7679 64.3444 10.749C64.4118 10.7463 64.4091 10.6789 64.3363 10.5469C64.2608 10.3475 64.3255 10.2774 64.4602 10.272C64.5949 10.2666 64.6569 10.1292 64.6515 9.99446C64.6434 9.79237 64.7727 9.65224 65.0368 9.5067C65.2361 9.43123 65.4301 9.22103 65.5567 9.01353C65.616 8.80873 65.7399 8.53387 65.8719 8.4611ZM67.3473 20.0072C67.4119 19.9371 67.4092 19.8698 67.3391 19.8051C67.2691 19.7404 67.2718 19.8078 67.2745 19.8752C67.2799 20.0099 67.2799 20.0099 67.3473 20.0072ZM67.7352 19.5868C67.7352 19.5868 67.8026 19.5841 67.7999 19.5167C67.7999 19.5167 67.7325 19.5194 67.7352 19.5868ZM70.5965 16.908C71.1219 16.5496 71.1219 16.5496 70.5803 16.5039C70.3109 16.5147 70.0441 16.5928 69.9795 16.6629C69.9148 16.733 69.7154 16.8085 69.5807 16.8139C69.2412 16.76 69.2412 16.76 69.384 16.9567C69.5295 17.2207 69.1443 17.7085 68.8074 17.722C68.7401 17.7247 68.7482 17.9268 68.7536 18.0615C68.7617 18.2636 68.7024 18.4684 68.5677 18.4738C68.4357 18.5466 68.371 18.6167 68.3737 18.684C68.3764 18.7514 68.3791 18.8188 68.4465 18.8161C68.5139 18.8134 68.5785 18.7433 68.7078 18.6032C68.8372 18.463 69.0366 18.3876 69.1713 18.3822C69.306 18.3767 69.3707 18.3067 69.368 18.2393C69.3653 18.1719 69.562 18.0291 69.7586 17.8863C70.0928 17.8054 70.2221 17.6653 70.214 17.4632C70.1412 17.3311 70.3352 17.1209 70.5965 16.908ZM71.2372 11.0122C71.3045 11.0095 71.3045 11.0095 71.3018 10.9422C71.3018 10.9422 71.2991 10.8748 71.2318 10.8775L71.1671 10.9476C71.1698 11.0149 71.2372 11.0122 71.2372 11.0122ZM76.9159 21.3776C77.1126 21.2348 77.0452 21.2375 76.9132 21.3102C76.7784 21.3156 76.7138 21.3857 76.7165 21.4531C76.7246 21.6552 76.7919 21.6525 76.9159 21.3776ZM77.4951 20.6796C77.5625 20.6769 77.5598 20.6096 77.5598 20.6096C77.5571 20.5422 77.5571 20.5422 77.4897 20.5449C77.4897 20.5449 77.4223 20.5476 77.425 20.615L77.4951 20.6796ZM81.7352 10.3212C81.6732 10.4586 81.7406 10.4559 81.94 10.3804C82.0747 10.375 82.2768 10.3669 82.2795 10.4343C82.3495 10.4989 82.4196 10.5636 82.487 10.5609C82.5543 10.5582 82.6864 10.4854 82.751 10.4154C82.813 10.2779 82.8749 10.1405 82.8695 10.0058C82.8641 9.87105 82.9881 9.59618 83.1847 9.45335C83.376 9.17578 83.438 9.03835 83.3033 9.04376C83.1685 9.04917 83.0365 9.12193 82.7751 9.33484C82.5785 9.47767 82.2497 9.69328 82.1824 9.69598C82.0477 9.70139 81.9156 9.77415 81.921 9.90888C81.8591 10.0463 81.7998 10.2511 81.7352 10.3212ZM79.0196 14.9508C78.9495 14.8861 78.8821 14.8888 78.8875 15.0236C78.8903 15.0909 78.9603 15.1556 79.0277 15.1529C79.095 15.1502 79.1597 15.0801 79.1597 15.0801C79.157 15.0127 79.0869 14.9481 79.0196 14.9508ZM87.0627 13.616C87.1975 13.6106 87.8468 12.9773 87.774 12.8453C87.7066 12.848 87.4372 12.8588 87.1731 13.0043C86.9037 13.0151 86.7016 13.0232 86.4321 13.0341C86.3621 12.9694 86.2947 12.9721 86.2273 12.9748C85.9579 12.9856 85.6938 13.1312 85.5699 13.406C85.5052 13.4761 85.3032 13.4842 85.0337 13.495C84.7642 13.5058 84.5621 13.5139 84.5648 13.5813C84.5676 13.6486 84.3008 13.7268 83.964 13.7403C83.8966 13.743 83.7619 13.7484 83.6945 13.7511C83.5598 13.7565 83.4251 13.762 83.4251 13.762C83.4278 13.8293 83.2284 13.9048 82.9616 13.983C82.226 14.1474 82.1614 14.2175 82.2368 14.4169C82.2395 14.4842 82.1129 14.6917 81.9189 14.9019C81.6549 15.0475 81.5283 15.255 81.5337 15.3897C81.5364 15.4571 81.2804 15.8047 81.0218 16.085C80.7631 16.3652 80.5045 16.6455 80.5072 16.7129C80.5099 16.7802 80.3186 17.0578 80.1273 17.3354C79.8687 17.6156 79.6774 17.8932 79.6801 17.9605C79.6828 18.0279 79.5508 18.1007 79.3514 18.1762C79.152 18.2516 79.02 18.3244 79.0927 18.4564C79.0954 18.5238 78.7802 19.0762 78.395 19.564C77.945 20.1218 77.7592 20.5341 77.8912 20.4613C78.0232 20.3886 78.1579 20.3832 78.2253 20.3805C78.2927 20.3778 78.3573 20.3077 78.3519 20.173C78.3465 20.0382 78.3438 19.9709 78.4112 19.9682C78.4786 19.9655 78.6752 19.8226 78.8719 19.6798C79.0013 19.5397 79.3946 19.254 79.656 19.0411C79.9847 18.8255 80.2487 18.6799 80.246 18.6126C80.2433 18.5452 80.308 18.4751 80.3754 18.4724C80.5101 18.467 80.7714 18.2541 80.9654 18.0439C81.1594 17.8337 81.4208 17.6208 81.5555 17.6154C81.6228 17.6127 81.7549 17.5399 81.7522 17.4726C81.7495 17.4052 81.8141 17.3352 81.9489 17.3297C82.0162 17.327 82.1482 17.2543 82.1455 17.1869C82.1428 17.1195 82.3395 16.9767 82.5362 16.8339C82.8003 16.6883 82.997 16.5455 82.9943 16.4781C82.9943 16.4781 83.0589 16.4081 83.1936 16.4027C83.261 16.4 83.393 16.3272 83.455 16.1898C83.4496 16.055 83.5816 15.9823 83.649 15.9796C83.7837 15.9742 83.9804 15.8313 84.107 15.6238C84.3037 15.481 84.4977 15.2708 84.6324 15.2654C84.7671 15.26 84.8992 15.1872 84.9638 15.1171C84.9584 14.9824 85.1578 14.9069 85.2925 14.9015C85.4273 14.8961 85.5593 14.8234 85.5566 14.756C85.5539 14.6886 85.6186 14.6186 85.8206 14.6105C85.9554 14.6051 86.0847 14.4649 86.1467 14.3275C86.1385 14.1254 86.3352 13.9826 86.5373 13.9745C86.7367 13.899 86.9361 13.8235 86.9334 13.7561C86.9307 13.6888 86.9954 13.6187 87.0627 13.616Z"
    fill="#0F0404"></path>
</svg>
