<svg fill="none" height="15" viewBox="0 0 42 15" width="42" xmlns="http://www.w3.org/2000/svg">
  <g clip-path="url(#clip0_1074_3925)">
    <path
      d="M24.5491 14.3322C24.6147 14.5728 24.7459 14.6384 24.9427 14.529C25.1614 14.4197 25.2707 14.1354 25.2707 13.6762C25.3582 13.3482 25.227 13.0749 24.8771 12.8562C24.5272 12.6157 23.8275 12.3424 22.7779 12.0362C21.6846 11.7301 20.9083 11.5442 20.4491 11.4786C19.9899 11.413 19.7494 11.4786 19.7275 11.6754C19.6838 11.8285 19.5198 11.8394 19.2355 11.7082C18.9731 11.5989 18.82 11.6536 18.7763 11.8722C18.7544 12.0253 18.7326 12.1018 18.7107 12.1018C18.7107 12.1018 18.667 12.0144 18.5795 11.8394C18.5358 11.7301 18.503 11.6426 18.4811 11.577C18.4592 11.4896 18.4811 11.424 18.5467 11.3802C18.656 11.249 18.4592 11.085 17.9563 10.8882C17.4752 10.6914 16.6443 10.4181 15.4635 10.0682C13.9328 9.65275 13.1566 9.52155 13.1347 9.67462C13.1347 9.71835 13.1128 9.74022 13.0691 9.74022C13.0472 9.74022 13.0144 9.68555 12.9707 9.57622C12.8832 9.44502 12.8176 9.37942 12.7739 9.37942C12.752 9.37942 12.6864 9.43408 12.5771 9.54342C12.4678 9.78395 12.3803 9.77302 12.3147 9.51062C12.271 9.42315 12.0742 9.30288 11.7243 9.14982C11.3744 8.97488 10.948 8.78902 10.4451 8.59222C9.96405 8.46102 9.54858 8.31888 9.19871 8.16582C8.87071 8.01275 8.70671 7.91435 8.70671 7.87062C8.70671 7.82688 8.83791 7.76128 9.10031 7.67382C9.36271 7.56448 9.78911 7.41142 10.3795 7.21462C10.9699 7.01782 11.7571 6.77728 12.7411 6.49302C13.7251 6.18688 14.9496 5.81515 16.4147 5.37782C17.2456 5.11542 17.7923 4.91862 18.0547 4.78742C18.339 4.63435 18.492 4.49222 18.5139 4.36102C18.5139 4.25168 18.5139 4.18608 18.5139 4.16422C18.5358 4.12048 18.5686 4.15328 18.6123 4.26262C18.6998 4.41568 18.8638 4.51408 19.1043 4.55782C19.3448 4.60155 19.5416 4.55782 19.6947 4.42662C19.804 4.38288 20.0664 4.29542 20.4819 4.16422C20.8974 4.01115 21.3784 3.85808 21.9251 3.70502C22.4499 3.53008 22.931 3.37702 23.3683 3.24582C23.8275 3.09275 24.079 2.99435 24.1227 2.95062C24.2976 2.88502 24.4726 2.83035 24.6475 2.78662C24.8443 2.72102 25.0302 2.66635 25.2051 2.62262C25.6424 2.51329 25.9704 2.38209 26.1891 2.22902C26.4296 2.07595 26.5499 1.87915 26.5499 1.63862C26.5499 1.48555 26.5171 1.33249 26.4515 1.17942C26.3859 1.00448 26.3094 0.884218 26.2219 0.818618C26.1344 0.731151 25.9923 0.687418 25.7955 0.687418C25.5987 0.687418 25.3254 0.742085 24.9755 0.851418C24.6475 0.960751 24.1992 1.11382 23.6307 1.31062C23.1278 1.48555 22.6139 1.64955 22.0891 1.80262C21.5643 1.95568 21.0504 2.11968 20.5475 2.29462C20.1976 2.40395 19.7494 2.54608 19.2027 2.72102C18.6779 2.89595 18.1968 3.03808 17.7595 3.14742C16.7318 3.43168 15.7587 3.71595 14.8403 4.00022C13.9219 4.26262 13.1128 4.51408 12.4131 4.75462C11.7134 4.97328 11.1339 5.15915 10.6747 5.31222C10.2374 5.46528 9.96405 5.57462 9.85471 5.64022C9.74538 5.74955 9.61418 5.80422 9.46111 5.80422L8.31311 6.16502C7.11045 6.62422 6.50911 7.19275 6.50911 7.87062C6.50911 8.22048 6.68405 8.55942 7.03391 8.88742C7.16511 8.99675 7.29631 9.09515 7.42751 9.18262C7.55871 9.27008 7.73365 9.36848 7.95231 9.47782C8.19285 9.56528 8.49898 9.67462 8.87071 9.80582C9.24245 9.91515 9.71258 10.0682 10.2811 10.265C10.4998 10.3962 10.7403 10.5056 11.0027 10.593C11.2651 10.6586 11.451 10.7242 11.5603 10.7898C11.7352 10.8992 11.932 10.7898 12.1507 10.4618C12.3038 10.0245 12.3584 9.95888 12.3147 10.265C12.3147 10.44 12.3584 10.593 12.4459 10.7242C12.5552 10.8336 12.7302 10.9429 12.9707 11.0522C13.2331 11.1616 13.583 11.2818 14.0203 11.413C14.4576 11.5442 15.0371 11.7082 15.7587 11.905C16.524 12.1237 17.2347 12.3205 17.8907 12.4954C18.5467 12.6485 18.9294 12.7578 19.0387 12.8234C19.2355 12.9328 19.5854 13.064 20.0883 13.217C20.5912 13.3701 21.1051 13.5232 21.6299 13.6762C22.1766 13.8074 22.6795 13.9168 23.1387 14.0042C23.5979 14.0917 23.8822 14.1354 23.9915 14.1354C24.1446 14.0917 24.2648 14.0808 24.3523 14.1026C24.4398 14.1245 24.5054 14.201 24.5491 14.3322ZM25.2051 13.5778C25.1832 13.709 25.0411 13.7965 24.7787 13.8402C24.5163 13.884 24.2976 13.8293 24.1227 13.6762C24.0352 13.5013 24.0571 13.3592 24.1883 13.2498C24.3195 13.1405 24.5054 13.1077 24.7459 13.1514C24.8771 13.1514 24.9755 13.1952 25.0411 13.2826C25.1504 13.3482 25.2051 13.4466 25.2051 13.5778ZM21.9907 12.5282C22.1 12.5938 22.1328 12.6376 22.0891 12.6594C22.0454 12.6594 21.947 12.6485 21.7939 12.6266C21.6846 12.6048 21.5971 12.5938 21.5315 12.5938C21.4878 12.572 21.4878 12.5392 21.5315 12.4954C21.6627 12.3861 21.8158 12.397 21.9907 12.5282Z"
      fill="#780000"></path>
    <path
      d="M42.7259 9.12712C42.7259 10.0893 42.7259 10.8218 42.7259 11.3247C42.7259 11.8277 42.7478 12.1885 42.7915 12.4071C42.8353 12.6258 42.9118 12.7461 43.0211 12.7679C43.1305 12.8117 43.2835 12.8445 43.4803 12.8663L44.2347 12.8663L44.3331 11.0951C44.355 9.65192 44.3659 8.43832 44.3659 7.45432C44.3878 6.44845 44.3878 5.63939 44.3659 5.02712C44.3441 4.39299 44.3113 3.92285 44.2675 3.61672C44.2238 3.31059 44.1473 3.12472 44.0379 3.05912C43.8849 2.86232 43.8083 2.74205 43.8083 2.69832C43.8083 2.63272 43.8302 2.55618 43.8739 2.46872C43.9177 2.38125 43.9723 2.27192 44.0379 2.14072C44.2129 1.83458 44.3003 1.59405 44.3003 1.41912C44.3003 1.06925 43.9942 0.894319 43.3819 0.894319L42.6603 0.894318L42.6603 2.04232C42.6603 2.34845 42.6713 2.62179 42.6931 2.86232C42.7369 3.08098 42.8134 3.21218 42.9227 3.25592C43.0321 3.29965 43.0867 3.33245 43.0867 3.35432C43.0867 3.35432 43.0321 3.35432 42.9227 3.35432C42.7478 3.35432 42.6603 3.69325 42.6603 4.37112C42.6603 4.65539 42.6385 4.90685 42.5947 5.12552C42.551 5.32232 42.5073 5.42072 42.4635 5.42072C42.3323 5.42072 42.2667 5.53005 42.2667 5.74872C42.2667 5.94552 42.1902 6.06579 42.0371 6.10952C41.9059 6.13138 41.8075 6.04392 41.7419 5.84712C41.6982 5.78152 41.5889 5.73779 41.4139 5.71592C41.2609 5.67218 40.9766 5.67218 40.5611 5.71592C40.1457 5.73778 39.5553 5.79245 38.7899 5.87992C38.0465 5.96738 37.0625 6.08765 35.8379 6.24072C34.9414 6.32818 34.1323 6.40472 33.4107 6.47032C32.6891 6.53592 31.9347 6.59058 31.1475 6.63432C30.3822 6.67805 29.5294 6.72178 28.5891 6.76552C27.6707 6.80925 26.5555 6.85298 25.2435 6.89672C23.7785 6.94045 22.6742 6.97325 21.9307 6.99512C21.1873 7.01698 20.6625 7.04978 20.3563 7.09352C20.0283 7.13725 19.8534 7.20285 19.8315 7.29032C19.8097 7.35592 19.7878 7.46525 19.7659 7.61832C19.7659 7.92445 19.8315 8.20872 19.9627 8.47112C20.0283 8.58045 20.2689 8.65698 20.6843 8.70072C21.1217 8.72258 21.5809 8.71165 22.0619 8.66792C22.5649 8.62418 23.035 8.55858 23.4723 8.47112C23.9315 8.36178 24.2158 8.24152 24.3251 8.11032C24.4782 7.91352 24.5547 7.81512 24.5547 7.81512C24.5766 7.81512 24.5657 7.91352 24.5219 8.11032C24.4782 8.19778 24.4673 8.27432 24.4891 8.33992C24.511 8.38365 24.6313 8.41645 24.8499 8.43832C25.0905 8.46018 25.4403 8.47112 25.8995 8.47112C26.3806 8.44925 27.0475 8.41645 27.9003 8.37272C28.4033 8.35085 28.9171 8.32898 29.4419 8.30712C29.9886 8.26338 30.5134 8.23058 31.0163 8.20872C31.5193 8.16498 31.9894 8.13218 32.4267 8.11032C32.8859 8.06658 33.2686 8.03378 33.5747 8.01192C33.859 7.99005 34.1761 7.96818 34.5259 7.94632C34.8977 7.90258 35.2694 7.85885 35.6411 7.81512C36.0129 7.77138 36.3627 7.73858 36.6907 7.71672C37.0406 7.67298 37.3467 7.64018 37.6091 7.61832C38.0246 7.57458 38.4291 7.53085 38.8227 7.48712C39.2163 7.44338 39.6209 7.36685 40.0363 7.25752C40.6049 7.12632 41.1406 7.07165 41.6435 7.09352L42.7259 7.09352L42.7259 9.12712Z"
      fill="#780000"></path>
  </g>
  <defs>
    <clipPath id="clip0_1074_3925">
      <rect fill="white" height="41"
        transform="matrix(4.37114e-08 -1 -1 -4.37114e-08 41.0234 14.8242)" width="14.76"></rect>
    </clipPath>
  </defs>
</svg>
