<svg width="74" height="16" viewBox="0 0 74 16" fill="none" xmlns="http://www.w3.org/2000/svg">
<path d="M73.113 5.37436C73.0712 5.3755 73.0259 5.25103 73.0224 5.1254C73.0132 4.79041 72.8411 4.6275 72.591 4.67626C72.4666 4.72158 72.3851 4.80763 72.3863 4.8495C72.3885 4.93325 72.3478 4.97627 72.2641 4.97857C72.2222 4.97972 72.2211 4.93784 72.2188 4.85409C72.2572 4.72732 72.0048 4.69233 71.6279 4.70266C71.1254 4.71644 70.4577 4.81855 70.2122 5.03481C70.1715 5.07784 70.047 5.12315 69.9214 5.1266C69.6283 5.13463 69.1281 5.23216 69.0885 5.31705C69.0896 5.35893 68.9233 5.40539 68.7977 5.40884C68.6302 5.41343 68.5057 5.45875 68.5057 5.45875C68.5103 5.62625 68.0973 5.8471 68.0112 5.76564C67.9682 5.72492 67.8845 5.72721 67.8426 5.72836C67.6751 5.73295 67.5506 5.77827 67.5529 5.86202C67.5529 5.86202 67.4703 5.90619 67.4273 5.86546C67.3424 5.82589 67.2179 5.8712 67.176 5.87235C67.0934 5.91652 66.969 5.96184 66.8445 6.00716C66.7607 6.00945 66.3862 6.10353 66.0116 6.19761C65.6789 6.29054 65.345 6.3416 65.3032 6.34275C65.2601 6.30202 65.1764 6.30432 65.1357 6.34734C65.0531 6.39151 63.171 6.52692 62.0404 6.55791C61.9566 6.5602 61.8322 6.60552 61.7507 6.69157C61.71 6.73459 61.6262 6.73688 61.5844 6.73803C61.5006 6.74033 61.4587 6.74148 61.332 6.70305C61.1633 6.66576 60.9528 6.62963 60.7016 6.63651C60.4922 6.64225 60.3258 6.68872 60.1595 6.73519C59.9513 6.7828 59.8268 6.82812 59.8256 6.78624C59.8245 6.74437 59.6558 6.70709 59.4883 6.71168C59.3208 6.71627 59.1952 6.71971 59.0696 6.72316C58.6927 6.73349 58.4403 6.6985 58.4392 6.65663C58.438 6.61475 58.4788 6.57173 58.6044 6.56828C58.8556 6.5614 58.979 6.4742 58.9732 6.26483C58.9698 6.13921 59.0094 6.05431 59.0931 6.05202C59.1769 6.04972 59.3805 5.83461 59.3759 5.66711C59.3747 5.62523 59.2898 5.58566 59.248 5.5868C59.1223 5.59025 59.0782 5.50765 59.0747 5.38202C59.026 5.13192 58.7283 4.97246 58.477 4.97935C58.3514 4.98279 58.2676 4.98509 58.1862 5.07113C58.1466 5.15603 58.0629 5.15832 57.978 5.11875C57.9361 5.11989 57.8931 5.07917 57.8512 5.08031C57.6418 5.08605 57.4359 5.21742 57.4382 5.30117C57.4382 5.30117 57.3556 5.34534 57.1881 5.34993C56.9787 5.35567 56.6844 5.32183 56.4739 5.28569C56.3053 5.24841 56.2204 5.20883 56.26 5.12393C56.2588 5.08206 56.2565 4.99831 56.1728 5.0006C56.0879 4.96103 56.0437 4.87843 56.0426 4.83655C56.0391 4.71093 55.5286 4.43158 55.3192 4.43732C55.1494 4.35816 54.6446 4.28819 54.4352 4.29393C54.3515 4.29622 54.2677 4.29852 54.2282 4.38341C54.1874 4.42644 54.1037 4.42873 53.9769 4.3903C53.892 4.35072 53.5559 4.31803 53.0953 4.33066C52.5928 4.34443 52.0077 4.40238 51.4226 4.46032C51.0468 4.51253 50.5444 4.5263 50.2931 4.53319C50.0837 4.53893 49.8325 4.54581 49.7918 4.58884C49.751 4.63186 49.4591 4.68177 49.1659 4.6898C48.4552 4.75119 47.6607 4.81488 46.8686 4.96231C46.4929 5.01452 46.1997 5.02255 46.0322 5.02714C45.8229 5.03288 45.7391 5.03518 45.6961 4.99445C45.6949 4.95258 45.61 4.913 45.5682 4.91415C45.4844 4.91644 45.3565 4.83614 45.2693 4.71281C45.1402 4.59063 44.8437 4.47304 44.5924 4.47993C44.4668 4.48337 44.3842 4.52754 44.3435 4.57056C44.2179 4.57401 43.8014 4.66923 43.7188 4.7134C43.6373 4.79945 43.4698 4.80404 43.3861 4.80634C43.3024 4.80863 43.1779 4.85395 43.0964 4.94C43.0557 4.98302 42.8905 5.07136 42.7649 5.0748C42.6392 5.07825 42.3891 5.12701 42.2647 5.17233C42.1413 5.25952 42.0169 5.30484 41.9331 5.30713C41.8912 5.30828 41.8063 5.2687 41.7203 5.18725C41.6343 5.10579 41.5505 5.10809 41.4679 5.15226C41.3865 5.23831 41.3853 5.19643 41.3807 5.02893C41.4168 4.81841 41.4576 4.77539 41.5843 4.81382C41.7949 4.84996 41.9996 4.67672 41.9113 4.51152C41.9102 4.46964 41.9916 4.3836 42.1568 4.29525C42.4465 4.1616 42.5268 4.03368 42.5526 3.44629C42.5853 3.11014 42.5423 3.06941 42.4144 2.98911C42.2887 2.99255 42.1178 2.87152 42.0317 2.79007C41.9027 2.66789 41.6073 2.59217 41.4398 2.59676C41.3141 2.60021 41.2734 2.64323 41.2746 2.6851C41.2757 2.72698 41.0675 2.77459 40.8604 2.86408C40.6103 2.91284 40.3195 3.00463 40.1543 3.09297C40.0321 3.22204 39.8657 3.2685 39.8239 3.26965C39.782 3.2708 39.6587 3.35799 39.5353 3.44518C39.412 3.53238 39.1642 3.66489 38.9571 3.75438C38.7501 3.84386 38.5023 3.97637 38.3789 4.06357C38.2975 4.14961 38.0904 4.2391 37.9659 4.28442C37.8403 4.28786 37.5936 4.46225 37.4715 4.59131C37.3493 4.72038 37.2271 4.84945 37.1841 4.80872C37.0584 4.81217 36.7246 4.86322 36.7303 5.0726C36.7326 5.15635 36.65 5.20052 36.4407 5.20626C36.2732 5.21085 36.1068 5.25731 36.108 5.29919C36.0672 5.34221 36.0265 5.38523 35.9846 5.38638C35.9009 5.38868 35.8194 5.47472 35.738 5.56077C35.6565 5.64681 35.5332 5.734 35.4494 5.7363C35.3238 5.73974 35.2424 5.82579 35.2447 5.90954C35.2051 5.99443 35.1225 6.0386 34.9969 6.04205C34.8724 6.08737 34.7479 6.13268 34.7072 6.17571C34.6665 6.21873 34.499 6.22332 34.3315 6.22791C34.164 6.2325 33.6196 6.24743 33.6276 6.54055C33.6299 6.6243 33.5903 6.70919 33.5485 6.71034C33.5066 6.71149 33.4624 6.62889 33.4183 6.54629C33.3729 6.42181 33.245 6.34151 33.1613 6.3438C33.0775 6.3461 33.0368 6.38912 32.9542 6.43329C32.9135 6.47631 32.7878 6.47976 32.7041 6.48205C32.5785 6.4855 32.4947 6.48779 32.4924 6.40404C32.4913 6.36217 32.6135 6.2331 32.7368 6.14591C32.902 6.05757 33.0242 5.9285 33.023 5.88663C33.0207 5.80288 33.1022 5.71683 33.2267 5.67151C33.3511 5.62619 33.4314 5.49828 33.4303 5.4564C33.428 5.37265 33.5094 5.28661 33.6328 5.19941C33.7154 5.15524 33.798 5.11107 33.7968 5.0692C33.7957 5.02732 33.9586 4.85523 34.1622 4.64012C34.6905 4.03896 34.7697 3.86916 34.8081 3.74239C34.8058 3.65864 34.8442 3.53187 34.8838 3.44697C35.0479 3.31676 35.0725 2.68749 34.9888 2.68979C34.9469 2.69094 34.8609 2.60948 34.8586 2.52573C34.8132 2.40126 34.7284 2.36168 34.6027 2.36512C34.5609 2.36627 34.4771 2.36856 34.3538 2.45576C34.2723 2.5418 34.1897 2.58597 34.1478 2.58712C34.106 2.58827 34.0641 2.58942 34.0211 2.54869C33.9781 2.50796 33.8932 2.46838 33.8094 2.47068C33.5163 2.47872 33.1056 2.78332 32.988 3.07988C32.9903 3.16363 32.9077 3.2078 32.8658 3.20895C32.8239 3.2101 32.8228 3.16822 32.7809 3.16937C32.4878 3.1774 31.9991 3.69367 32.0467 3.9019C32.0943 4.11012 32.0943 4.11012 31.9641 3.94607C31.9199 3.86347 31.8769 3.82274 31.835 3.82389C31.7094 3.82733 31.1312 4.13653 31.1358 4.30402C31.1369 4.3459 31.0555 4.43194 30.9717 4.43424C30.7239 4.56675 30.4761 4.69926 30.4784 4.78301C30.4784 4.78301 30.4377 4.82603 30.3958 4.82718C30.3539 4.82833 30.2317 4.95739 30.0677 5.08761C29.6197 5.56086 29.5778 5.562 29.4522 5.56545C29.3685 5.56774 29.2859 5.61191 29.287 5.65379C29.2881 5.69566 29.2893 5.73754 29.2474 5.73869C29.0799 5.74328 28.5878 6.13392 28.5901 6.21767C28.5923 6.30142 28.5516 6.34444 28.4679 6.34674C28.3841 6.34903 28.2608 6.43623 28.1793 6.52227C28.1398 6.60717 28.0583 6.69321 27.9746 6.69551C27.9327 6.69666 27.8908 6.69781 27.892 6.73968C27.8943 6.82343 27.7698 6.86875 27.6453 6.91407C27.5197 6.91751 27.3964 7.0047 27.3556 7.04772C27.3149 7.09075 27.273 7.09189 27.2312 7.09304C27.0637 7.09763 26.9357 7.01733 26.9311 6.84983C26.9288 6.76608 27.0103 6.68004 27.1755 6.5917C27.3407 6.50336 27.5455 6.33012 27.6654 6.1173C27.7864 5.94636 27.9912 5.77312 28.0738 5.72895C28.2401 5.68249 28.2809 5.63946 28.231 5.34749C28.2287 5.26374 28.2694 5.22072 28.3124 5.26144C28.4392 5.29988 28.7277 5.12434 28.7243 4.99872C28.7231 4.95684 28.8046 4.8708 28.8872 4.82663C29.0105 4.73944 29.0082 4.65569 28.9617 4.48934C28.9594 4.40559 28.9571 4.32184 28.999 4.32069C29.1677 4.35797 29.291 4.27078 29.5354 4.01265C29.6983 3.84056 29.9007 3.58357 29.938 3.41492C30.0183 3.287 30.0986 3.15908 30.1824 3.15679C30.3499 3.1522 30.4675 2.85563 30.3361 2.6497C30.2489 2.52637 30.2478 2.4845 30.3688 2.31356C30.569 1.97282 30.2632 1.52024 29.9305 1.61317C29.8887 1.61432 29.8456 1.57359 29.8026 1.53286C29.7596 1.49214 29.6759 1.49443 29.5514 1.53975C29.4699 1.6258 29.3455 1.67111 29.2617 1.67341C29.2198 1.67456 29.0942 1.678 29.0116 1.72217C28.9279 1.72447 28.8871 1.76749 28.8883 1.80936C28.8917 1.93499 28.6055 2.19427 28.5206 2.15469C28.4357 2.11511 27.8563 2.38243 27.8598 2.50805C27.8598 2.50805 27.6957 2.63827 27.5305 2.72661C27.3653 2.81495 27.2013 2.94517 27.2024 2.98704C27.2036 3.02891 27.0802 3.11611 26.9139 3.16257C26.5812 3.25551 26.4183 3.4276 26.4217 3.55322C26.4229 3.59509 26.3403 3.63926 26.2146 3.64271C26.089 3.64615 26.0064 3.69032 26.0087 3.77407C26.011 3.85782 25.9703 3.90084 25.8447 3.90429C25.6353 3.91003 25.0605 4.34484 25.064 4.47046C25.0674 4.59609 24.9848 4.64026 24.8592 4.6437C24.8173 4.64485 24.7754 4.646 24.7754 4.646C24.6498 4.64944 24.6091 4.69246 24.6125 4.81809C24.5741 4.94486 24.5334 4.98788 24.2833 5.03664C24.1158 5.04123 23.9913 5.08655 23.911 5.21447C23.8318 5.38427 23.4664 5.81334 23.4234 5.77262C23.3374 5.69116 22.9662 5.91087 22.8441 6.03993C22.8045 6.12483 22.7219 6.169 22.6381 6.1713C22.5963 6.17244 22.5137 6.21661 22.5148 6.25849C22.5159 6.30036 22.4752 6.34339 22.3926 6.38756C22.267 6.391 22.2274 6.4759 22.2297 6.55965C22.2309 6.60152 22.1494 6.68757 22.0657 6.68986C21.8982 6.69445 21.6515 6.86884 21.6549 6.99446C21.6561 7.03634 21.5735 7.08051 21.449 7.12583C21.3245 7.17114 21.285 7.25604 21.2896 7.42354C21.2941 7.59104 21.2534 7.63406 21.1697 7.63636C21.1278 7.6375 21.044 7.6398 20.9603 7.64209C20.8765 7.64439 20.8335 7.60366 20.7498 7.60596C20.666 7.60825 20.5846 7.6943 20.5043 7.82222C20.424 7.95014 20.2576 7.9966 20.0901 8.0012C19.9645 8.00464 19.8796 7.96506 19.8773 7.88131C19.875 7.79756 19.789 7.71611 19.7448 7.63351C19.618 7.59508 19.6587 7.55205 19.8681 7.54632C20.1194 7.53943 20.4882 7.23598 20.5674 7.06618C20.5651 6.98243 20.7268 6.76847 20.8897 6.59638C21.0945 6.42314 21.2563 6.20918 21.2563 6.20918C21.2551 6.1673 21.3762 5.99636 21.5391 5.82427C22.1069 5.13821 22.4305 4.71028 22.4259 4.54278C22.4236 4.45903 22.4643 4.41601 22.5062 4.41486C22.5899 4.41257 22.7121 4.2835 22.7924 4.15558C22.9134 3.98464 23.0345 3.81369 23.0752 3.77067C23.1974 3.6416 23.1498 3.43338 22.9823 3.43797C22.9404 3.43912 23.0218 3.35307 23.187 3.26473C23.4756 3.0892 23.5547 2.91941 23.3781 2.589C23.2886 2.38192 23.0746 2.22017 22.9071 2.22476C22.8652 2.22591 22.8233 2.22705 22.7826 2.27008C22.7012 2.35612 22.6593 2.35727 22.6151 2.27467C22.614 2.23279 22.5291 2.19321 22.4453 2.19551C22.1522 2.20354 21.6147 2.46971 21.6205 2.67909C21.6228 2.76284 21.5402 2.80701 21.4157 2.85232C21.2912 2.89764 21.2098 2.98369 21.1294 3.11161C21.091 3.23838 21.0514 3.32327 20.9665 3.2837C20.8398 3.24526 20.1813 3.68238 20.1847 3.808C20.1858 3.84988 20.1044 3.93592 20.0218 3.98009C19.8973 4.02541 19.8159 4.11145 19.817 4.15333C19.8193 4.23708 19.6134 4.36844 19.4086 4.54168C19.2027 4.67304 18.9572 4.8893 18.8769 5.01722C18.7965 5.14514 18.6732 5.23233 18.5895 5.23463C18.5057 5.23692 18.465 5.27995 18.4673 5.3637C18.4696 5.44745 18.387 5.49161 18.3032 5.49391C18.1776 5.49735 17.9717 5.62872 17.8099 5.84268C17.6063 6.05779 17.3608 6.27405 17.1967 6.40427C17.0327 6.53448 16.9512 6.62053 16.9965 6.745C17.0419 6.86948 17.0419 6.86948 16.9151 6.83105C16.6627 6.79606 15.8424 7.44714 15.769 7.82631C15.6898 7.9961 15.648 7.99725 15.0198 8.01446C14.686 8.06552 14.721 7.81313 15.0864 7.38405C15.29 7.16894 15.411 6.998 15.4099 6.95612C15.3669 6.9154 15.4065 6.8305 15.4483 6.82935C15.5717 6.74216 16.2175 5.84443 16.2141 5.7188C16.213 5.67693 16.2944 5.59088 16.3759 5.50484C16.4573 5.41879 16.5388 5.33275 16.5376 5.29087C16.5365 5.249 16.6156 5.0792 16.6948 4.90941C17.0183 4.48148 16.9615 3.93826 16.6185 3.65432C16.4475 3.53329 16.194 3.45643 16.0684 3.45987C15.9427 3.46332 15.902 3.50634 15.8613 3.54936C15.8217 3.63426 15.8217 3.63426 15.7775 3.55166C15.7334 3.46905 15.6915 3.4702 15.5682 3.5574C15.5263 3.55854 15.4856 3.60157 15.4437 3.60271C15.3599 3.60501 15.3169 3.56428 15.2309 3.48283C15.103 3.40252 14.975 3.32222 14.9332 3.32337C14.8913 3.32451 14.8506 3.36754 14.8517 3.40941C14.8529 3.45129 14.8121 3.49431 14.7284 3.4966C14.6028 3.50005 14.2351 3.84537 14.2385 3.971C14.2397 4.01287 14.1163 4.10007 14.0349 4.18611C13.9116 4.2733 13.872 4.3582 13.8743 4.44195C13.9184 4.52455 13.8777 4.56757 13.8358 4.56872C13.7102 4.57216 13.3402 4.83374 13.3425 4.91749C13.3437 4.95937 13.2215 5.08843 13.0586 5.26052C12.8957 5.43261 12.8154 5.56053 12.9003 5.60011C13.0282 5.68042 12.9886 5.76531 12.82 5.72803C12.6943 5.73147 12.4093 6.03263 11.9251 6.7164C11.8844 6.75942 11.64 7.01756 11.3968 7.31757C11.1525 7.5757 10.9511 7.87456 10.9523 7.91644C10.9964 7.99904 10.9976 8.04091 10.9557 8.04206C10.8301 8.0455 10.3821 8.51875 10.4263 8.60135C10.4693 8.64208 10.4286 8.6851 10.3867 8.68625C10.3448 8.6874 10.3041 8.73042 10.3052 8.77229C10.3075 8.85604 10.0236 9.19907 9.93985 9.20137C9.89798 9.20252 9.81652 9.28856 9.73622 9.41648C9.53258 9.63159 8.82301 9.73486 8.52989 9.74289C8.48687 9.70216 8.40312 9.70446 8.36124 9.70561C8.19375 9.7102 7.98437 9.71594 7.775 9.72168C6.89563 9.74578 5.93137 9.73031 5.59408 9.65574C5.55106 9.61502 5.46731 9.61731 5.38356 9.61961C5.34168 9.62076 5.29981 9.6219 5.25908 9.66493C5.17533 9.66722 5.09158 9.66952 5.04856 9.62879C4.96366 9.58921 4.58565 9.55767 4.1669 9.56915C3.74701 9.53875 3.20149 9.5118 2.90722 9.47796C2.78045 9.43953 2.61295 9.44412 2.48733 9.44756C2.3617 9.45101 2.27795 9.4533 2.23723 9.49633C2.1965 9.53935 2.07088 9.54279 1.98598 9.50321C1.94296 9.46249 1.81733 9.46593 1.69171 9.46937C1.48234 9.47511 1.23224 9.52388 1.19151 9.5669C1.19266 9.60877 1.06933 9.69596 0.986729 9.74014C0.863401 9.82733 0.822674 9.87035 0.866845 9.95295C0.909867 9.99368 0.954037 10.0763 0.913311 10.1193C0.915607 10.2031 0.959777 10.2857 1.08655 10.3241C1.21332 10.3625 1.29936 10.444 1.30281 10.5696C1.31199 10.9046 1.85751 10.9315 2.10876 10.9247C2.19251 10.9224 2.23438 10.9212 2.31813 10.9189C2.48563 10.9143 2.56938 10.912 2.57052 10.9539C2.61355 10.9946 2.6973 10.9923 2.73917 10.9912C2.78104 10.99 2.82177 10.947 2.86365 10.9459C2.90552 10.9447 2.99042 10.9843 3.07531 11.0239C3.11719 11.0227 3.16021 11.0635 3.20209 11.0623C3.28584 11.06 3.32656 11.017 3.36729 10.974C3.40802 10.9309 3.44989 10.9298 3.49176 10.9286C3.53364 10.9275 3.57551 10.9264 3.61968 11.009C3.70458 11.0485 3.9151 11.0847 4.08375 11.122C4.29312 11.1162 4.62926 11.1489 4.92239 11.1409C5.04801 11.1374 5.17478 11.1759 5.21666 11.1747C5.34228 11.1713 5.42488 11.1271 5.46446 11.0422C5.58664 10.9131 5.58664 10.9131 5.63196 11.0376C5.67613 11.1202 5.8029 11.1586 5.92852 11.1552C6.01227 11.1529 6.09487 11.1087 6.1356 11.0657C6.17633 11.0227 6.2182 11.0215 6.3031 11.0611C6.43102 11.1414 6.76716 11.1741 6.97654 11.1684C7.10216 11.1649 7.22778 11.1615 7.22664 11.1196C7.26621 11.0347 7.34996 11.0324 7.47788 11.1127C7.64653 11.15 7.73143 11.1896 7.9408 11.1838C8.31767 11.1735 8.40601 11.3387 8.11748 11.5142C7.8301 11.7317 7.802 12.2353 8.01367 12.3133C8.18231 12.3506 8.22648 12.4332 8.23107 12.6007C8.23567 12.7682 8.32171 12.8496 8.40546 12.8473C8.40546 12.8473 8.44733 12.8462 8.48806 12.8032C8.57066 12.759 8.65441 12.7567 8.78003 12.7533C8.90681 12.7917 10.2519 11.4138 10.3288 11.1603C10.3276 11.1184 10.4125 11.158 10.4986 11.2394C10.6265 11.3198 10.6288 11.4035 10.5462 11.4477C10.5043 11.4488 10.467 11.6175 10.4705 11.7431C10.4321 11.8699 10.3936 11.9966 10.3506 11.9559C10.1389 11.8779 9.1311 13.3303 9.30434 13.5351C9.34736 13.5758 9.3508 13.7015 9.35425 13.8271C9.27739 14.0806 9.70302 14.3204 9.99614 14.3124C10.0799 14.3101 10.1636 14.3078 10.2044 14.2647C10.2858 14.1787 10.4091 14.0915 10.4929 14.0892C10.5766 14.0869 10.7418 13.9986 10.8652 13.9114C11.4772 13.3079 11.8856 12.9196 12.0101 12.8743C11.9659 12.7917 12.0485 12.7475 12.1311 12.7033C12.2556 12.658 12.4604 12.4848 12.5826 12.3557C12.9503 12.0104 13.318 11.665 13.4809 11.4929C13.5635 11.4488 13.6461 11.4046 13.7717 11.4012C13.8973 11.3977 13.9822 11.4373 14.1497 11.4327C14.401 11.4258 14.6522 11.4189 14.6522 11.4189C14.6918 11.334 14.9419 11.2853 15.1094 11.2807C15.1931 11.2784 15.235 11.2772 15.2362 11.3191C15.2373 11.361 15.1966 11.404 15.1547 11.4052C15.1128 11.4063 15.114 11.4482 15.1163 11.5319C15.1616 11.6564 15.1209 11.6994 14.9545 11.7459C14.8719 11.7901 14.7474 11.8354 14.7486 11.8773C14.7497 11.9191 14.6694 12.047 14.5891 12.175C14.3448 12.4331 14.1853 12.7308 14.3109 12.7274C14.3528 12.7262 14.3574 12.8937 14.3224 13.1461C14.2932 13.6079 14.4245 13.8138 14.7176 13.8058C14.8014 13.8035 14.8851 13.8012 14.9677 13.757C15.2167 13.6664 15.2993 13.6222 15.2958 13.4966C15.2924 13.371 15.3331 13.3279 15.4599 13.3664C15.6716 13.4444 16.1219 13.0549 16.2383 12.7164C16.3186 12.5885 16.3175 12.5467 16.4431 12.5432C16.4431 12.5432 16.485 12.5421 16.5268 12.5409C16.6525 12.5375 16.82 12.5329 16.8584 12.4061C16.9398 12.3201 17.0213 12.234 17.0632 12.2329C17.1469 12.2306 17.7624 11.7527 17.8834 11.5818C17.9637 11.4539 18.5431 11.1866 18.6699 11.225C18.7966 11.2634 19.0898 11.2554 19.2573 11.2508C19.4248 11.2462 19.5504 11.2428 19.5492 11.2009C19.59 11.1579 19.6737 11.1556 19.8005 11.194C19.9273 11.2324 20.0948 11.2278 20.2204 11.2244C20.3879 11.2198 20.4716 11.2175 20.4705 11.1756C20.4705 11.1756 20.6787 11.128 20.9299 11.1211L21.3475 11.0678L20.9414 11.5399C20.6971 11.798 20.4934 12.0131 20.4946 12.055C20.4957 12.0969 20.455 12.1399 20.3713 12.1422C20.3294 12.1433 20.2887 12.1864 20.2909 12.2701C20.2932 12.3539 20.2525 12.3969 20.2106 12.398C20.085 12.4015 19.4753 13.0887 19.4787 13.2143C19.4799 13.2562 19.4391 13.2992 19.3565 13.3434C19.1902 13.3898 19.0342 13.8132 19.1609 13.8516C19.2458 13.8912 19.2481 13.9749 19.2504 14.0587C19.2527 14.1424 19.2957 14.1832 19.3795 14.1809C19.4621 14.1367 19.504 14.1355 19.5063 14.2193C19.5097 14.3449 19.5957 14.4264 19.7214 14.4229C19.7632 14.4218 19.847 14.4195 19.8877 14.3765C19.9703 14.3323 20.1355 14.2439 20.2193 14.2417C20.3449 14.2382 20.5101 14.1499 20.5916 14.0638C20.673 13.9778 20.8371 13.8476 20.9197 13.8034C21.3338 13.6244 21.456 13.4954 22.068 12.8919C22.1914 12.8047 22.3973 12.6733 22.5218 12.628C22.6451 12.5408 22.7684 12.4536 22.8069 12.3269C22.8464 12.242 22.9698 12.1548 23.0535 12.1525C23.0954 12.1513 23.2606 12.063 23.3013 12.02C23.505 11.8048 24.1193 11.2851 24.2426 11.1979C24.3252 11.1538 24.3648 11.0689 24.3637 11.027C24.3614 10.9433 24.444 10.8991 24.5277 10.8968C24.6115 10.8945 24.7359 10.8492 24.8185 10.805C24.9837 10.7167 25.7748 10.5274 25.9841 10.5216C26.0679 10.5193 26.1505 10.4751 26.1482 10.3914C26.1878 10.3065 26.2297 10.3054 26.3145 10.3449C26.3576 10.3857 26.4843 10.4241 26.5692 10.4637C26.6949 10.4602 25.843 11.4893 25.6755 11.4939C25.508 11.4985 24.982 12.1834 25.0274 12.3079C25.0297 12.3916 24.9889 12.4347 24.9052 12.437C24.1096 12.4588 23.3191 14.1986 23.9157 14.5594L23.9146 14.5175C24.0855 14.6385 24.1704 14.6781 24.21 14.5932C24.2461 14.3827 24.2857 14.2978 24.3276 14.2967C24.3276 14.2967 24.3706 14.3374 24.4136 14.3781C24.4566 14.4188 24.5404 14.4165 24.5823 14.4154C24.7916 14.4097 25.0825 14.3179 25.2872 14.1446C25.4513 14.0144 25.5746 13.9272 25.6584 13.9249C25.7002 13.9238 25.741 13.8808 25.7387 13.797C25.7375 13.7551 25.7771 13.6702 25.819 13.6691C25.9865 13.6645 26.7718 13.2658 26.7695 13.1821C26.7683 13.1402 26.8091 13.0972 26.8928 13.0949C26.9347 13.0937 27.0987 12.9635 27.2628 12.8333C27.3861 12.7461 27.5909 12.5729 27.7154 12.5276C28.0877 12.3497 28.5787 11.9172 28.5333 11.7927C28.4892 11.7101 28.5311 11.709 28.6997 11.7463C28.8253 11.7428 28.9091 11.7405 28.9068 11.6568C28.9056 11.6149 28.9464 11.5719 29.0301 11.5696C29.072 11.5684 29.1546 11.5243 29.1534 11.4824C29.1534 11.4824 29.2349 11.3963 29.4001 11.308C29.5246 11.2627 29.606 11.1766 29.5618 11.094C29.5607 11.0522 29.6014 11.0091 29.727 11.0057C29.9783 10.9988 30.3494 10.7791 30.346 10.6535C30.3448 10.6116 30.3856 10.5686 30.4693 10.5663C30.7624 10.5583 31.0894 10.256 31.0837 10.0466C31.0372 9.88023 31.0791 9.87908 31.4129 9.82802C31.6223 9.82228 31.8305 9.77467 31.912 9.68862C31.9934 9.60258 32.076 9.55841 32.1598 9.55611C32.2016 9.55496 32.2424 9.51194 32.2412 9.47007C32.2401 9.42819 32.4053 9.33985 32.6124 9.25036C32.7776 9.16202 32.9428 9.07368 32.9416 9.03181C32.9405 8.98993 33.0231 8.94576 33.1068 8.94347C33.1906 8.94117 33.4825 8.89126 33.7315 8.80063C33.8967 8.71229 34.0212 8.66697 34.1049 8.66467C34.1887 8.66238 34.2317 8.7031 34.2317 8.7031C34.234 8.78685 34.3596 8.78341 34.5271 8.77882C34.7365 8.77308 35.0273 8.68129 35.025 8.59754C35.0227 8.51379 35.0623 8.4289 35.1042 8.42775C35.146 8.4266 35.1891 8.46733 35.1902 8.5092C35.1937 8.63483 35.3216 8.71513 35.4472 8.71169C35.4891 8.71054 35.4891 8.71054 35.5298 8.66752C35.5705 8.6245 35.6113 8.58147 35.695 8.57918C35.7787 8.57688 35.8636 8.61646 35.9474 8.61417C36.0311 8.61187 36.1149 8.60957 36.1568 8.60843C36.2824 8.60498 36.3231 8.56196 36.3208 8.47821C36.3185 8.39446 36.3604 8.39331 36.4453 8.43289C36.4895 8.51549 36.6162 8.55392 36.7 8.55163C36.9094 8.54589 37.0384 8.66807 36.8721 8.71454C36.7895 8.75871 36.7499 8.8436 36.751 8.88548C36.7533 8.96923 36.6719 9.05527 36.5486 9.14246C36.4252 9.22966 36.3857 9.31455 36.3868 9.35643C36.4298 9.39716 36.2669 9.56925 36.0621 9.74248C35.9004 9.95645 35.7375 10.1285 35.7805 10.1693C35.7816 10.2111 35.7409 10.2542 35.6583 10.2983C35.5338 10.3436 35.535 10.3855 35.5826 10.5937C35.7186 10.9672 35.7186 10.9672 35.5103 11.0148C35.3021 11.0624 35.3159 11.5649 35.5298 11.7267C35.7438 11.8884 35.9985 12.0072 36.2079 12.0014C36.2916 11.9991 36.3323 11.9561 36.3742 11.9549C36.4149 11.9119 36.5406 11.9085 36.6662 11.905C36.793 11.9435 36.8756 11.8993 36.9129 11.7307C36.9524 11.6458 36.9932 11.6027 36.9943 11.6446C36.9966 11.7284 37.0396 11.7691 37.1234 11.7668C37.249 11.7633 37.4153 11.7169 37.5805 11.6285C37.7458 11.5402 37.9551 11.5345 38.1645 11.5287C38.3331 11.566 39.045 11.5465 39.715 11.5281C40.8875 11.496 41.0143 11.5344 40.8932 11.7054C40.7303 11.8774 40.7045 12.4648 40.8313 12.5033C40.915 12.501 40.9592 12.5836 40.9615 12.6673C40.9638 12.7511 41.0068 12.7918 41.0894 12.7476C41.1313 12.7465 41.2162 12.7861 41.2592 12.8268C41.3464 12.9501 41.6826 12.9828 41.9338 12.9759C42.0594 12.9725 42.1851 12.969 42.2258 12.926C42.2665 12.883 42.4747 12.8354 42.726 12.8285C42.9353 12.8227 43.2262 12.731 43.3507 12.6856C43.474 12.5984 43.5985 12.5531 43.6415 12.5939C43.6834 12.5927 43.8509 12.5881 43.9742 12.5009C44.1394 12.4126 44.2639 12.3673 44.265 12.4091C44.2662 12.451 44.7222 12.2709 45.2189 12.0477C45.3434 12.0024 45.6342 11.9106 45.8832 11.82C46.1752 11.7701 46.3404 11.6818 46.3369 11.5561C46.3765 11.4712 46.4172 11.4282 46.544 11.4666C46.5859 11.4655 46.5859 11.4655 46.6277 11.4643C46.8371 11.4586 47.128 11.3668 47.0408 11.2435C46.9966 11.1609 46.9966 11.1609 47.0396 11.2016C47.2513 11.2796 48.8241 10.566 48.7777 10.3997C48.7765 10.3578 48.8591 10.3136 48.9848 10.3102C49.1523 10.3056 49.4012 10.215 49.5664 10.1266C49.7735 10.0371 49.9806 9.94763 50.0643 9.94534C50.1481 9.94304 50.1888 9.90002 50.1876 9.85815C50.1865 9.81627 50.2691 9.7721 50.311 9.77095C50.4785 9.76636 50.9322 9.50249 50.9718 9.41759C50.9706 9.37572 51.0963 9.37227 51.18 9.36998C51.3056 9.36653 51.3882 9.32236 51.3871 9.28049C51.3848 9.19674 51.7989 9.01776 51.9246 9.01432C52.1339 9.00858 52.5877 8.7447 52.7947 8.65522C52.8773 8.61105 53.0856 8.56343 53.21 8.51811C53.3775 8.51352 53.5858 8.46591 53.6265 8.42289C53.7928 8.37642 53.9592 8.32995 54.0429 8.32766C54.2523 8.32192 54.3802 8.40222 54.4256 8.5267C54.5139 8.6919 54.5139 8.6919 54.3034 8.65577C54.2615 8.65692 54.2196 8.65806 54.1778 8.65921C54.0521 8.66265 53.9695 8.70682 53.9288 8.74985C53.8892 8.83474 53.7647 8.88006 53.7229 8.88121C53.681 8.88236 53.6403 8.92538 53.6426 9.00913C53.6437 9.051 53.6041 9.1359 53.5204 9.1382C53.2691 9.14508 53.0655 9.3602 53.112 9.52655C53.1561 9.60915 53.1573 9.65102 53.0712 9.56957C52.9422 9.44739 51.8695 10.0635 51.7508 10.3182C51.7519 10.36 51.6693 10.4042 51.6274 10.4054C51.4599 10.41 51.2598 10.7507 51.3062 10.917C51.3934 11.0404 51.3515 11.0415 51.2678 11.0438C51.1829 11.0042 51.1003 11.0484 51.0177 11.0926C50.9374 11.2205 50.9385 11.2624 51.0223 11.2601C51.0653 11.3008 51.1095 11.3834 51.1118 11.4671C51.1232 11.8859 51.4582 11.8767 51.7932 11.8675C51.9619 11.9048 52.0456 11.9025 52.0445 11.8606C52.0422 11.7769 52.0841 11.7757 52.212 11.856C52.2539 11.8549 52.2969 11.8956 52.3388 11.8945C52.3806 11.8933 52.4214 11.8503 52.504 11.8061C52.5447 11.7631 52.6692 11.7178 52.7529 11.7155C52.8378 11.7551 52.9204 11.7109 52.9193 11.669C52.9181 11.6272 52.9588 11.5841 53.0007 11.583C53.0426 11.5818 53.0856 11.6226 53.1694 11.6203C53.295 11.6168 53.3787 11.6145 53.3776 11.5727C53.3764 11.5308 53.6673 11.439 53.9581 11.3472C54.6654 11.1602 55.247 10.9766 55.4111 10.8464C55.453 10.8453 55.7019 10.7546 55.952 10.7059C56.4115 10.6514 56.6593 10.5189 56.6547 10.3514C56.6524 10.2676 56.6943 10.2665 56.7361 10.2653C56.778 10.2642 56.8618 10.2619 56.9478 10.3433C57.0327 10.3829 57.1165 10.3806 57.1991 10.3364C57.2398 10.2934 57.3224 10.2493 57.4061 10.247C57.4899 10.2447 57.5713 10.1586 57.569 10.0749C57.5667 9.99112 57.6075 9.94809 57.7331 9.94465C57.775 9.9435 57.8168 9.94235 57.9006 9.94006C57.9843 9.93776 58.1111 9.97619 58.1949 9.9739C58.3624 9.96931 58.4868 9.92399 58.6113 9.87867C58.7358 9.83335 58.8614 9.82991 58.9452 9.82761C58.987 9.82647 59.0289 9.82532 59.0708 9.82417C59.1545 9.82187 59.0301 9.86719 58.7392 9.95898C58.4891 10.0077 58.2402 10.0984 58.2006 10.1833C58.1599 10.2263 57.9947 10.3146 57.869 10.3181C57.7434 10.3215 57.6608 10.3657 57.662 10.4076C57.6654 10.5332 57.5828 10.5774 57.1664 10.6726C57.1256 10.7156 57.0419 10.7179 57.0419 10.7179C56.9174 10.7632 56.7637 11.2703 56.8474 11.268C56.8905 11.3087 56.9346 11.3913 56.9369 11.4751C56.9404 11.6007 57.1962 11.7613 57.3218 11.7579C57.3637 11.7567 57.4056 11.7556 57.4044 11.7137C57.4033 11.6718 57.487 11.6695 57.5708 11.6672C57.6545 11.665 57.822 11.6604 58.0756 11.7372C58.1593 11.7349 58.2431 11.7326 58.2408 11.6489C58.2396 11.607 58.2815 11.6059 58.3653 11.6036C58.4502 11.6431 58.5328 11.599 58.6142 11.5129C58.6968 11.4688 58.9039 11.3793 59.154 11.3305C59.3634 11.3248 59.6123 11.2341 59.653 11.1911C59.6926 11.1062 59.8171 11.0609 59.9008 11.0586C60.194 11.0506 60.6104 10.9553 60.65 10.8704C60.6896 10.7855 60.8559 10.7391 61.0234 10.7345C61.1898 10.688 61.398 10.6404 61.5213 10.5532C61.6458 10.5079 61.9366 10.4161 62.1856 10.3255C62.4357 10.2767 62.559 10.1895 62.5579 10.1476C62.5556 10.0639 62.5963 10.0209 62.8057 10.0151C63.0569 10.0082 63.3919 9.99906 63.3896 9.91531C63.4303 9.87229 63.5548 9.82697 63.6386 9.82468C63.7642 9.82123 63.8468 9.77706 63.8456 9.73519C63.8445 9.69331 63.969 9.64799 64.0946 9.64455C64.2202 9.64111 64.3447 9.59579 64.4261 9.50974C64.4669 9.46672 64.5902 9.37953 64.7158 9.37609C64.9252 9.37035 65.8384 9.05197 65.9606 8.9229C66.0013 8.87988 66.1688 8.87529 66.2944 8.87185C66.4619 8.86725 66.5864 8.82194 66.6271 8.77891C66.626 8.73704 66.7923 8.69057 67.0005 8.64296C67.1669 8.59649 67.3751 8.54888 67.4566 8.46283C67.4973 8.41981 67.6229 8.41637 67.7067 8.41407C67.7486 8.41292 67.7486 8.41292 67.7904 8.41178C67.9172 8.45021 68.4128 8.18519 68.4094 8.05956C68.4082 8.01769 68.5338 8.01424 68.7013 8.00965C69.162 7.99703 69.7017 7.81461 69.6983 7.68898C69.696 7.60523 69.7786 7.56106 69.9042 7.55762C70.0298 7.55418 70.1124 7.51 70.1509 7.38323C70.1486 7.29948 70.2719 7.21229 70.4383 7.16583C70.5639 7.16238 70.8117 7.02987 70.9769 6.94153C71.0991 6.81246 71.2643 6.72412 71.3061 6.72297C71.5155 6.71724 72.2612 6.40345 72.2589 6.3197C72.2589 6.3197 72.2997 6.27668 72.3834 6.27438C72.5928 6.26864 72.9197 5.96634 72.8744 5.84186C72.8303 5.75926 72.828 5.67551 72.9117 5.67322C73.0792 5.66863 73.2398 5.41279 73.113 5.37436ZM19.9874 5.78299C20.0293 5.78184 20.0689 5.69695 20.0247 5.61435C19.9805 5.53175 20.0212 5.48872 20.0654 5.57132C20.1503 5.6109 20.1526 5.69465 20.1549 5.7784C20.1142 5.82142 20.0304 5.82372 19.9886 5.82487C19.9048 5.82716 19.9048 5.82716 19.9874 5.78299ZM16.2102 10.1609C16.1683 10.1621 16.0834 10.1225 16.0811 10.0388C16.0788 9.95502 16.1195 9.912 16.1614 9.91085C16.2033 9.9097 16.2474 9.9923 16.2916 10.0749C16.3346 10.1156 16.2939 10.1587 16.2102 10.1609ZM19.1786 6.85281C18.9297 6.94345 18.3979 7.41899 18.2407 7.80046C18.1593 7.8865 17.7033 8.06662 17.4939 8.07236C17.452 8.07351 17.4101 8.07466 17.409 8.03279C17.4078 7.99091 17.7348 7.68861 17.7767 7.68746C17.8186 7.68631 17.9815 7.51422 18.1862 7.34098C18.7994 6.7794 19.0449 6.56314 19.2124 6.55854C19.2543 6.5574 19.2962 6.55625 19.3392 6.59697C19.5102 6.71801 19.4706 6.8029 19.1786 6.85281ZM19.6186 6.08645C19.6197 6.12832 19.5383 6.21436 19.4557 6.25854C19.4149 6.30156 19.3731 6.3027 19.3312 6.30385C19.2893 6.305 19.287 6.22125 19.4103 6.13406C19.4906 6.00614 19.6163 6.0027 19.6186 6.08645ZM22.73 9.52126C22.5648 9.6096 22.4822 9.65377 22.481 9.6119C22.4799 9.57002 22.3973 9.61419 22.3565 9.65722C22.2739 9.70139 22.1913 9.74556 22.1064 9.70598C22.0215 9.6664 21.9389 9.71057 21.8575 9.79661C21.7772 9.92453 21.7364 9.96756 21.6504 9.8861C21.6062 9.8035 21.4795 9.76507 21.3957 9.76737C21.312 9.76966 21.2712 9.81268 21.2317 9.89758C21.1921 9.98248 21.0676 10.0278 20.9839 10.0301C20.9001 10.0324 20.8571 9.99166 20.8141 9.95093C20.771 9.91021 20.6443 9.87178 20.4337 9.83564C20.0976 9.80295 20.2152 9.50638 20.5921 9.49605C20.8852 9.48802 22.2659 9.40826 22.3881 9.2792C22.4695 9.19315 22.5533 9.19086 22.5556 9.27461C22.5986 9.31533 22.6405 9.31418 22.6823 9.31304C22.7231 9.27001 22.808 9.30959 22.851 9.35032C22.9359 9.3899 22.8952 9.43292 22.73 9.52126ZM26.3942 5.60737C26.3965 5.69112 26.03 6.07832 25.9462 6.08062C25.8625 6.08291 25.5785 6.42594 25.255 6.85387C24.8512 7.40972 24.7267 7.45504 23.5554 7.52905C23.3879 7.53364 23.1796 7.58126 23.0982 7.6673C23.0167 7.75335 22.9749 7.7545 22.8888 7.67304C22.8028 7.59159 22.8016 7.54971 22.9691 7.54512C23.0948 7.54168 23.7125 7.14759 23.915 6.8906C23.9965 6.80456 24.2013 6.63132 24.4491 6.49881C24.655 6.36745 24.9016 6.19306 24.9831 6.10702C25.0646 6.02097 25.146 5.93493 25.2298 5.93263C25.2716 5.93148 25.3554 5.92919 25.3542 5.88731C25.3938 5.80242 26.0105 5.36645 26.3409 5.18977C26.4235 5.1456 26.5456 5.01653 26.5445 4.97466C26.5433 4.93278 26.6667 4.84559 26.8319 4.75725C26.9564 4.71193 27.0797 4.62474 27.0774 4.54099C27.0762 4.49912 27.1588 4.45495 27.2007 4.4538C27.3682 4.44921 27.3717 4.57483 27.2064 4.66317C27.1646 4.66432 27.0843 4.79224 27.004 4.92016C26.9667 5.0888 26.8852 5.17485 26.8434 5.176C26.8015 5.17714 26.3931 5.56549 26.3942 5.60737ZM27.7469 9.0904C27.7061 9.13342 27.705 9.09154 27.7027 9.00779C27.6993 8.88217 27.7411 8.88102 27.7423 8.9229C27.7864 9.0055 27.7876 9.04737 27.7469 9.0904ZM28.8259 10.2342C28.7851 10.2772 28.7444 10.3202 28.7025 10.3214C28.6607 10.3225 28.6176 10.2818 28.6584 10.2388C28.6991 10.1958 28.7398 10.1527 28.7817 10.1516C28.8236 10.1504 28.8666 10.1912 28.8259 10.2342ZM29.4029 9.88312C29.3611 9.88427 29.318 9.84354 29.3169 9.80167C29.3157 9.75979 29.3565 9.71677 29.3995 9.7575C29.4425 9.79822 29.4855 9.83895 29.4855 9.83895C29.4855 9.83895 29.4448 9.88197 29.4029 9.88312ZM30.7314 6.3685C30.6511 6.49642 30.487 6.62664 30.3614 6.63008C30.1928 6.5928 30.1928 6.5928 30.3591 6.54633C30.4417 6.50216 30.5639 6.37309 30.6454 6.28705C30.7268 6.20101 30.8083 6.11496 30.8501 6.11381C30.8932 6.15454 30.8536 6.23944 30.7314 6.3685ZM39.4464 4.78861C39.4895 4.82934 39.4906 4.87121 39.4487 4.87236C39.408 4.91538 39.408 4.91538 39.4057 4.83163C39.4046 4.78976 39.4034 4.74789 39.4464 4.78861ZM39.4533 5.03986C39.4952 5.03871 39.4964 5.08059 39.4556 5.12361C39.4149 5.16663 39.4138 5.12476 39.4126 5.08288C39.4103 4.99913 39.4103 4.99913 39.4533 5.03986ZM38.7868 5.18385C38.8275 5.14083 38.8682 5.0978 38.8682 5.0978C38.9101 5.09666 38.9113 5.13853 38.9124 5.18041C38.9136 5.22228 38.8728 5.2653 38.831 5.26645C38.7891 5.2676 38.7461 5.22687 38.7868 5.18385ZM38.6216 5.27219C38.6635 5.27104 38.6635 5.27104 38.6646 5.31292C38.6646 5.31292 38.6658 5.35479 38.6239 5.35594L38.5809 5.31521C38.5797 5.27334 38.6216 5.27219 38.6216 5.27219ZM38.4564 5.36053C38.4983 5.35938 38.4983 5.35938 38.4994 5.40126C38.4994 5.40126 38.5006 5.44313 38.4587 5.44428L38.4157 5.40355C38.4145 5.36168 38.4564 5.36053 38.4564 5.36053ZM39.5985 8.80742C39.6088 9.18429 39.5274 9.27034 39.3599 9.27493C39.2761 9.27723 38.9446 9.41203 38.6549 9.54569C38.3664 9.72122 38.0767 9.85488 38.036 9.89791C37.9568 10.0677 37.9941 9.89905 38.0733 9.72926C38.1128 9.64436 38.2758 9.47227 38.441 9.38393C38.605 9.25372 38.7702 9.16538 38.7691 9.1235C38.8109 9.12235 38.9343 9.03516 39.0169 8.99099C39.1402 8.9038 39.2624 8.77473 39.2601 8.69098C39.2578 8.60723 39.2985 8.56421 39.4241 8.56077C39.5916 8.55618 39.5928 8.59805 39.5985 8.80742ZM41.0997 10.0654C41.0171 10.1095 40.8926 10.1548 40.8508 10.156C40.8089 10.1571 40.6833 10.1606 40.5995 10.1629C40.2203 10.0895 40.4647 9.83133 40.9242 9.77683C41.258 9.72577 41.3905 9.97357 41.0997 10.0654ZM43.1045 11.3514C43.0627 11.3525 43.0208 11.3537 43.0615 11.3107C43.1023 11.2676 43.1441 11.2665 43.1871 11.3072C43.1883 11.3491 43.1883 11.3491 43.1045 11.3514ZM43.7745 11.333C43.7361 11.4598 43.7384 11.5435 43.6965 11.5447C43.6547 11.5458 43.6116 11.5051 43.5675 11.4225C43.521 11.2562 43.5606 11.1713 43.7281 11.1667C43.7699 11.1655 43.8141 11.2481 43.7745 11.333ZM43.4367 9.70796C43.3529 9.71025 43.1866 9.75672 43.0621 9.80204C42.9783 9.80433 42.9365 9.80548 42.9353 9.7636C42.976 9.72058 43.1412 9.63224 43.3506 9.6265C43.517 9.58004 43.7252 9.53242 43.8078 9.48825C43.8904 9.44408 43.973 9.39991 43.9741 9.44179C43.9753 9.48366 43.603 9.66149 43.4367 9.70796ZM44.1004 10.9888C44.0585 10.99 44.0166 10.9911 44.0562 10.9062C44.055 10.8644 44.1388 10.8621 44.1807 10.8609C44.2225 10.8598 44.2225 10.8598 44.2237 10.9017C44.226 10.9854 44.1841 10.9866 44.1004 10.9888ZM44.8088 10.8437C44.7669 10.8449 44.7239 10.8041 44.7646 10.7611C44.7646 10.7611 44.8065 10.76 44.8484 10.7588C44.8914 10.7995 44.8507 10.8426 44.8088 10.8437ZM58.1163 8.63506C57.9918 8.68038 57.8254 8.72684 57.8266 8.76872C57.8277 8.81059 57.787 8.85362 57.6602 8.81518C57.5753 8.77561 57.4509 8.82092 57.4101 8.86395C57.3275 8.90812 57.2868 8.95114 57.2449 8.95229C57.2031 8.95344 57.1193 8.95573 57.0774 8.95688C56.9099 8.96147 56.7436 9.00794 56.7029 9.05096C56.6633 9.13586 56.5807 9.18003 56.5388 9.18117C56.1201 9.19265 55.4965 9.37737 55.4569 9.46227C55.4162 9.50529 55.2929 9.59248 55.2103 9.63665C55.0021 9.68427 55.0021 9.68427 55.1242 9.5552C55.1638 9.4703 55.2464 9.42613 55.3302 9.42383C55.372 9.42269 55.4535 9.33664 55.4942 9.29362C55.4919 9.20987 55.5745 9.1657 55.6164 9.16455C55.6583 9.1634 55.7816 9.07621 55.8212 8.99132C55.9026 8.90527 55.9841 8.81923 56.026 8.81808C56.0678 8.81693 56.2319 8.68671 56.3948 8.51462C56.5996 8.34139 56.7648 8.25305 57.016 8.24616C57.1417 8.24272 57.2684 8.28115 57.4371 8.31843C57.6069 8.39759 57.7744 8.393 57.9419 8.3884C58.0675 8.38496 58.1931 8.38152 58.2338 8.33849C58.3164 8.29432 58.3991 8.25015 58.4421 8.29088C58.5711 8.41306 58.4082 8.58515 58.1163 8.63506ZM59.4861 9.68707C59.4012 9.64749 59.4 9.60561 59.4838 9.60332C59.5675 9.60102 59.6524 9.6406 59.6536 9.68248C59.657 9.8081 59.657 9.8081 59.4861 9.68707ZM59.8188 9.59413C59.735 9.59643 59.735 9.59643 59.7339 9.55456C59.7746 9.51153 59.8165 9.51039 59.8595 9.55111C59.9025 9.59184 59.8607 9.59299 59.8188 9.59413ZM60.6528 9.44555C60.611 9.4467 60.4435 9.45129 60.3178 9.45474C60.276 9.45588 60.2341 9.45703 60.1922 9.45818C60.1085 9.46048 60.0247 9.46277 60.0236 9.4209C60.0224 9.37902 60.0643 9.37787 60.148 9.37558C60.1899 9.37443 60.1876 9.29068 60.1853 9.20693C60.1412 9.12433 60.1412 9.12433 60.2261 9.16391C60.3098 9.16161 60.4784 9.1989 60.5633 9.23848C60.7739 9.27461 60.8611 9.39794 60.6528 9.44555ZM61.9372 8.90747C61.8964 8.9505 61.8557 8.99352 61.8138 8.99467C61.772 8.99582 61.7289 8.95509 61.6859 8.91436C61.6429 8.87364 61.7255 8.82947 61.8093 8.82717C61.893 8.82487 61.936 8.8656 61.9372 8.90747ZM62.2664 8.68892C62.1827 8.69122 62.1408 8.69236 62.1815 8.64934C62.1804 8.60747 62.263 8.5633 62.3049 8.56215C62.3467 8.561 62.3479 8.60287 62.349 8.64475C62.3502 8.68662 62.3083 8.68777 62.2664 8.68892Z" fill="black"/>
</svg>
