<svg width="381" height="59" viewBox="0 0 381 59" fill="none" xmlns="http://www.w3.org/2000/svg">
<path d="M378.807 35.4353C378.052 34.7795 377.867 34.5657 378.693 34.2241C379.748 33.4979 378.951 30.6333 377.755 30.5473C377.555 30.5329 376.985 30.0909 376.43 29.4494C375.874 28.8079 375.091 28.5511 374.891 28.5367C374.478 28.7075 374.293 28.4937 374.108 28.2799C373.923 28.066 373.738 27.8522 373.738 27.8522C373.339 27.8235 373.11 28.2081 372.868 28.7922C372.611 29.5758 372.169 30.1456 371.357 30.2877C370.131 30.6006 369.86 31.5837 370.829 32.0544C372.381 32.7676 368.89 33.9201 365.883 33.9044C365.085 33.847 364.672 34.0178 364.658 34.2173C364.643 34.4168 364.444 34.4024 364.244 34.3881C363.047 34.302 358.844 34.2003 357.803 34.727C357.39 34.8978 356.378 35.0255 355.58 34.9682C354.982 34.9251 352.759 35.1663 350.949 35.2367C349.538 35.3357 348.527 35.4635 347.928 35.4205C347.729 35.4061 347.529 35.3918 347.529 35.3918C347.529 35.3918 347.13 35.3631 346.916 35.5482C346.503 35.719 345.277 36.0319 343.881 35.9315C342.684 35.8454 341.473 35.9588 341.06 36.1296C340.846 36.3148 340.048 36.2574 339.449 36.2143C338.651 36.157 337.839 36.2991 337.426 36.4698C336.813 36.6263 335.402 36.7254 334.205 36.6393C332.41 36.5102 331.997 36.681 331.968 37.0799C331.939 37.4789 331.74 37.4646 331.355 37.2364C331.17 37.0226 330.572 36.9795 329.973 36.9365C328.776 36.8504 327.366 36.9495 327.123 37.5336C326.909 37.7187 326.695 37.9039 326.311 37.6757C325.926 37.4475 325.328 37.4045 324.53 37.3471C323.931 37.3041 323.333 37.261 323.318 37.4605C323.304 37.66 323.105 37.6457 322.905 37.6313C322.706 37.617 322.307 37.5883 321.922 37.3601C321.124 37.3027 320.725 37.274 320.711 37.4735C320.696 37.673 320.084 37.8294 319.5 37.5869C318.716 37.3301 318.303 37.5008 318.288 37.7003C318.274 37.8998 317.875 37.8711 317.476 37.8424C317.091 37.6143 316.678 37.7851 316.464 37.9702C316.236 38.3548 316.037 38.3405 315.666 37.9128C315.481 37.699 314.883 37.6559 314.484 37.6273C314.07 37.798 313.059 37.9258 312.261 37.8684C311.249 37.9962 309.838 38.0952 309.225 38.2517C308.413 38.3938 307.416 38.3221 307.017 38.2934C306.632 38.0652 306.233 38.0365 306.219 38.236C306.204 38.4355 305.592 38.5919 304.794 38.5345C298.994 38.318 297.384 38.4027 297.341 39.0012C297.312 39.4002 297.084 39.7848 296.885 39.7704C296.685 39.7561 296.301 39.5279 296.13 39.1146C295.759 38.6869 295.175 38.4444 294.776 38.4157C294.377 38.387 294.164 38.5722 294.149 38.7717C294.135 38.9712 294.121 39.1706 293.921 39.1563C293.736 38.9425 293.536 38.9281 293.522 39.1276L289.732 38.855C287.523 38.8967 285.913 38.9814 285.699 39.1666C285.272 39.5369 284.873 39.5082 284.502 39.0805C284.118 38.8523 283.719 38.8236 283.704 39.0231C283.69 39.2226 282.479 39.336 280.883 39.2213C277.891 39.0061 277.278 39.1625 276.451 39.5041C276.237 39.6892 275.639 39.6462 275.254 39.418C274.884 38.9904 274.485 38.9617 274.271 39.1468C274.257 39.3463 273.459 39.2889 272.661 39.2315C272.461 39.2172 272.062 39.1885 271.863 39.1742C271.265 39.1311 271.065 39.1168 270.851 39.3019C270.637 39.4871 270.224 39.6579 269.839 39.4297C269.44 39.401 268.842 39.358 268.429 39.5287C268.215 39.7139 268.015 39.6995 267.816 39.6852C267.616 39.6709 267.217 39.6422 266.833 39.414C266.448 39.1858 265.85 39.1428 265.451 39.1141C265.251 39.0997 265.251 39.0997 265.052 39.0854C264.639 39.2562 263.627 39.3839 263.028 39.3409C262.43 39.2979 261.219 39.4113 260.406 39.5534C260.007 39.5247 259.808 39.5103 259.409 39.4817C257.813 39.3669 256.231 39.0526 256.46 38.668C256.673 38.4829 257.671 38.5546 258.668 38.6263C259.865 38.7124 260.877 38.5846 261.091 38.3995C261.319 38.0149 261.718 38.0436 262.103 38.2718C262.302 38.2861 262.901 38.3291 263.314 38.1583C263.713 38.187 264.725 38.0593 265.537 37.9172C269.341 37.9902 273.189 37.4649 273.432 36.8808C273.475 36.2823 273.874 36.311 274.671 36.3684C275.256 36.6109 275.854 36.6539 276.453 36.697C277.45 36.7687 278.462 36.6409 278.676 36.4558C278.889 36.2707 279.702 36.1286 280.314 35.9721C281.127 35.83 281.74 35.6736 281.968 35.2889C281.996 34.89 282.395 34.9187 282.794 34.9474C283.364 35.3894 285.702 33.5523 285.545 32.9395C285.389 32.3267 286.914 30.6318 287.484 31.0738C287.484 31.0738 287.883 31.1025 288.282 31.1312C290.277 31.2746 295.906 31.0778 295.934 30.6789C295.949 30.4794 296.348 30.5081 296.932 30.7506C297.117 30.9644 297.316 30.9788 297.715 31.0075C298.114 31.0361 298.314 31.0505 298.727 30.8797C299.14 30.7089 300.138 30.7806 300.537 30.8093C300.921 31.0375 301.335 30.8667 301.335 30.8667C301.349 30.6672 302.76 30.5682 304.356 30.6829C305.952 30.7977 307.362 30.6986 307.576 30.5135C307.79 30.3283 309.001 30.2149 310.597 30.3297C312.791 30.4875 313.604 30.3454 314.231 29.9894C314.659 29.6192 314.872 29.434 315.072 29.4484C315.271 29.4627 315.457 29.6766 315.656 29.6909C316.226 30.1329 316.824 30.1759 317.223 30.2046C317.822 30.2477 318.221 30.2764 318.449 29.8917C318.876 29.5215 319.475 29.5645 319.874 29.5932C320.857 29.8644 323.152 28.6258 322.582 28.1838C322.397 27.97 322.255 27.1577 322.512 26.3741C322.626 24.7782 322.313 23.5526 321.487 23.8942C321.487 23.8942 320.888 23.8512 320.504 23.623C320.319 23.4091 319.321 23.3374 318.324 23.2657C317.925 23.237 317.326 23.194 316.927 23.1653C315.93 23.0935 308.535 22.7623 308.107 23.1325C307.893 23.3177 307.694 23.3033 307.309 23.0751C306.924 22.847 305.329 22.7322 304.331 22.6605C303.932 22.6318 303.533 22.6031 303.334 22.5888C303.12 22.7739 301.723 22.6735 300.128 22.5587C298.517 22.6434 296.921 22.5287 296.708 22.7138C296.294 22.8846 295.895 22.8559 295.71 22.6421C295.525 22.4283 294.941 22.1857 294.343 22.1427C293.545 22.0853 292.932 22.2418 292.518 22.4126C292.105 22.5833 291.906 22.569 291.721 22.3552C291.735 22.1557 291.336 22.127 290.737 22.084C290.538 22.0696 290.338 22.0553 290.139 22.0409C289.341 21.9835 287.132 22.0252 285.138 21.8818C282.53 21.8948 281.333 21.8087 281.105 22.1933C280.877 22.5779 280.663 22.7631 280.293 22.3354C279.908 22.1072 277.129 21.7069 274.736 21.5348C272.541 21.377 270.732 21.4474 270.518 21.6325C270.318 21.6181 269.919 21.5895 269.52 21.5608C269.321 21.5464 268.922 21.5177 268.722 21.5034C268.523 21.489 268.124 21.4603 267.924 21.446C267.525 21.4173 267.112 21.5881 267.098 21.7876C266.87 22.1722 266.87 22.1722 266.67 22.1579C266.471 22.1435 266.271 22.1292 265.901 21.7015C265.516 21.4733 264.733 21.2165 264.134 21.1734C263.336 21.1161 262.723 21.2725 262.296 21.6428C262.068 22.0274 261.868 22.0131 261.883 21.8136C261.911 21.4146 261.327 21.1721 260.529 21.1147C260.13 21.086 259.517 21.2425 259.304 21.4276C258.876 21.7979 258.676 21.7835 258.292 21.5554C258.107 21.3415 257.508 21.2985 256.91 21.2555C255.713 21.1694 254.502 21.2828 254.273 21.6674C254.045 22.052 253.846 22.0377 253.475 21.61C253.105 21.1824 252.521 20.9399 252.307 21.125C251.894 21.2958 249.685 21.3375 247.092 21.151C242.09 20.9918 241.293 20.9344 240.665 21.2904C240.452 21.4755 240.053 21.4468 240.067 21.2473C239.882 21.0335 239.697 20.8197 239.283 20.9905C235.094 20.6892 229.067 20.8573 224.834 21.1545C224.022 21.2966 222.227 21.1675 221.03 21.0814C219.234 20.9523 218.622 21.1088 218.593 21.5077C218.564 21.9067 218.151 22.0775 217.353 22.0201C216.954 21.9914 216.569 21.7633 215.985 21.5207C215.401 21.2782 214.817 21.0357 214.618 21.0213C214.219 20.9927 213.805 21.1634 213.791 21.3629C213.762 21.7619 213.378 21.5337 212.794 21.2912C212.423 20.8635 211.825 20.8205 211.625 20.8062C211.411 20.9913 209.003 21.0186 206.381 21.2311C203.574 21.2298 200.767 21.2284 200.154 21.3849C199.556 21.3418 198.345 21.4552 197.746 21.4122C197.148 21.3692 196.549 21.3261 196.535 21.5256C196.521 21.7251 194.925 21.6103 193.129 21.4812C190.336 21.2804 189.923 21.4512 189.282 22.0066C189.053 22.3912 188.84 22.5764 188.64 22.562C188.441 22.5477 188.256 22.3338 188.07 22.12C187.501 21.678 187.13 21.2503 186.532 21.2073C185.933 21.1643 185.306 21.5202 184.879 21.8905C184.451 22.2608 184.237 22.4459 184.237 22.4459C184.038 22.4316 183.853 22.2177 183.867 22.0182C183.696 21.6049 182.898 21.5475 181.901 21.4758C181.302 21.4328 180.704 21.3897 180.689 21.5892C180.675 21.7887 179.877 21.7313 178.88 21.6596C178.281 21.6166 177.897 21.3884 177.697 21.3741C177.099 21.331 177.084 21.5305 177.056 21.9295C177.013 22.5279 177.013 22.5279 176.642 22.1003C176.472 21.6869 176.073 21.6583 175.075 21.5865C174.477 21.5435 173.479 21.4718 172.268 21.5852C170.658 21.6699 170.444 21.855 160.242 21.5224C156.651 21.2642 152.647 21.1767 151.236 21.2758C149.84 21.1754 145.237 21.0449 140.834 20.9288C136.446 20.6132 132.826 20.754 132.812 20.9535C132.598 21.1386 132.199 21.1099 131.829 20.6822C127.241 20.3523 122.638 20.2218 118.036 20.0914L109.857 19.5032C109.842 19.7027 107.648 19.5449 104.855 19.3441C102.262 19.1576 99.8537 19.1849 99.8394 19.3844C99.825 19.5839 99.4261 19.5552 99.0414 19.327C98.6568 19.0988 96.0635 18.9123 92.8718 18.6828C86.8872 18.2524 78.8935 17.8781 78.6653 18.2627C78.6509 18.4622 78.0381 18.6187 77.2258 18.7608C76.2141 18.8885 76.1997 19.088 76.0993 20.4844C76.0419 21.2823 75.9989 21.8808 75.7994 21.8665C75.5999 21.8521 75.201 21.8234 74.7876 21.9942C73.3912 21.8938 68.0052 21.5065 67.9191 22.7034C67.8761 23.3018 67.8761 23.3018 67.3206 22.6603C66.7509 22.2183 66.5657 22.0045 65.9673 21.9615C65.5683 21.9328 65.1693 21.9041 64.5565 22.0605C63.3596 21.9745 61.3504 22.0305 60.1535 21.9444C58.9566 21.8583 57.9592 21.7866 57.9448 21.9861C57.9305 22.1856 56.7336 22.0995 55.5367 22.0134C54.9382 21.9704 54.5393 21.9417 54.1403 21.913C53.1429 21.8413 52.929 22.0264 52.9147 22.2259C52.8716 22.8244 52.6722 22.81 52.2875 22.5819C51.7034 22.3393 50.9198 22.0825 50.1219 22.0251C49.5234 21.982 48.7111 22.1242 48.6968 22.3236C48.483 22.5088 48.084 22.4801 47.7137 22.0524C47.5143 22.0381 47.3291 21.8242 47.1296 21.8099C46.1322 21.7382 44.8923 22.2506 44.8636 22.6495C44.8349 23.0485 44.4359 23.0198 44.0656 22.5921C43.6953 22.1645 43.1112 21.922 42.7123 21.8933C42.3133 21.8646 41.9 22.0354 41.4723 22.4057C41.0303 22.9754 40.617 23.1462 40.218 23.1175C40.0185 23.1032 39.6339 22.875 39.4631 22.4617C39.278 22.2479 38.2949 21.9766 37.2975 21.9049C36.1006 21.8188 34.8893 21.9323 34.476 22.103C34.2622 22.2882 33.8632 22.2595 33.8919 21.8605C33.7068 21.6467 33.5073 21.6324 33.1083 21.6037C31.9114 21.5176 30.2868 21.8018 29.8448 22.3716C29.4172 22.7418 29.2177 22.7275 29.0612 22.1147C28.8904 21.7014 28.7053 21.4875 28.1068 21.4445C27.5084 21.4015 26.8956 21.5579 26.0976 21.5005C25.0859 21.6283 23.6895 21.5279 22.4926 21.4418C22.0936 21.4131 21.6946 21.3844 21.2957 21.3557C20.0987 21.2697 19.087 21.3974 18.8732 21.5826C18.645 21.9672 18.4455 21.9528 17.8757 21.5108C17.2916 21.2683 16.4937 21.2109 15.6957 21.1535C14.8978 21.0962 14.2993 21.0531 14.285 21.2526C14.2707 21.4521 14.0568 21.6372 13.8717 21.4234C13.6865 21.2096 12.2902 21.1092 11.0932 21.0231C9.69685 20.9227 7.48816 20.9643 5.69281 20.8352C2.50105 20.6057 1.03293 21.5027 1.30279 23.3268C1.2741 23.7257 1.40184 24.7375 1.3588 25.336C1.44353 26.9462 1.62868 27.16 4.22196 27.3465C5.61838 27.4469 7.00042 27.7468 7.19991 27.7612C7.38504 27.975 7.96915 28.2175 8.56761 28.2606C9.16607 28.3036 11.1609 28.4471 12.9419 28.7757C13.9393 28.8474 14.723 29.1042 15.1219 29.1329C15.9198 29.1903 16.1337 29.0052 16.148 28.8057C16.1767 28.4067 16.1767 28.4067 16.5613 28.6349C16.9316 29.0626 17.9147 29.3338 18.7126 29.3912C19.1116 29.4198 19.7101 29.4629 19.9239 29.2777C20.1377 29.0926 20.5367 29.1213 20.907 29.549C21.2773 29.9766 25.0531 30.4487 31.8069 31.3354C34.0013 31.4932 36.9792 31.9078 38.3612 32.2078C39.7433 32.5077 41.1397 32.6081 42.3366 32.6941C44.7304 32.8663 46.5401 32.7959 46.7683 32.4113C46.9821 32.2262 47.1816 32.2405 47.1816 32.2405C47.5806 32.2692 47.7801 32.2835 48.1503 32.7112C48.9196 33.1675 49.7032 33.4244 50.1021 33.4531C50.5011 33.4818 50.9144 33.311 50.9288 33.1115C50.9575 32.7125 51.1426 32.9264 51.3134 33.3397C51.4842 33.753 54.0631 34.139 56.2575 34.2968C57.8534 34.4116 59.0646 34.2981 59.079 34.0987C59.0933 33.8992 59.2784 34.113 59.6631 34.3412C60.0333 34.7688 60.6175 35.0114 61.2159 35.0544C61.6149 35.0831 62.0282 34.9123 62.0426 34.7128C62.0569 34.5133 62.2564 34.5277 62.8548 34.5707C63.04 34.7845 64.6215 35.0988 66.0036 35.3987C67.5994 35.5135 69.3804 35.842 70.3779 35.9138C70.5774 35.9281 70.9763 35.9568 71.1758 35.9712C71.7743 36.0142 72.1876 35.8434 72.4014 35.6583C72.8434 35.0885 72.8434 35.0885 73.2137 35.5162C73.5553 36.3428 75.9348 36.7144 76.7327 36.7718C77.3311 36.8148 78.1291 36.8722 79.9388 36.8018C81.5347 36.9166 83.1306 37.0314 83.9141 37.2882C84.3131 37.3169 84.4983 37.5307 84.6978 37.5451C85.0967 37.5738 85.1111 37.3743 85.1541 36.7759C85.1828 36.3769 85.411 35.9923 85.6104 36.0066C85.8099 36.0209 85.9807 36.4343 85.9664 36.6337C85.9377 37.0327 86.1228 37.2465 86.5074 37.4747C86.9064 37.5034 88.5023 37.6182 88.5453 37.0197C88.5597 36.8202 88.9587 36.8489 89.1438 37.0628C89.5141 37.4904 90.1125 37.5335 90.5115 37.5621C90.711 37.5765 90.9105 37.5908 91.1099 37.6052C91.5089 37.6339 92.3069 37.6913 93.0904 37.9481C93.6746 38.1906 94.2587 38.4332 94.6576 38.4619C94.8571 38.4762 95.2704 38.3054 95.2704 38.3054C95.2704 38.3054 95.6838 38.1346 95.8832 38.149C96.2822 38.1777 96.6668 38.4058 97.0658 38.4345C97.8637 38.4919 98.4622 38.5349 98.6904 38.1503C98.6904 38.1503 98.9042 37.9652 99.1037 37.9795C99.3032 37.9939 99.6878 38.222 100.087 38.2507C100.657 38.6927 102.452 38.8218 104.247 38.951C105.444 39.037 106.841 39.1374 107.054 38.9523C107.254 38.9667 107.453 38.981 107.439 39.1805C107.624 39.3943 109.42 39.5234 111.614 39.6812C115.803 39.9825 121.602 40.199 122.23 39.8431C122.643 39.6723 122.842 39.6866 123.042 39.701C123.241 39.7153 123.441 39.7297 123.612 40.143C124.181 40.585 125.179 40.6567 128.57 40.9006C130.166 41.0154 131.961 41.1445 133.158 41.2305C134.355 41.3166 145.726 42.1343 146.153 41.764C146.367 41.5789 146.567 41.5932 146.966 41.6219C147.365 41.6506 147.564 41.665 147.949 41.8931L159.718 42.7395C164.307 43.0695 168.695 43.3851 173.283 43.715L174.879 43.8298C175.093 43.6446 178.285 43.8742 182.089 43.9472C184.882 44.1481 187.675 44.3489 190.268 44.5354C190.653 44.7636 190.852 44.7779 190.867 44.5784C190.895 44.1795 191.893 44.2512 193.888 44.3946C194.486 44.4377 195.07 44.6802 195.669 44.7232C196.267 44.7663 196.68 44.5955 196.695 44.396C196.709 44.1965 197.094 44.4247 197.877 44.6816C198.063 44.8954 198.462 44.9241 199.06 44.9671C199.459 44.9958 200.057 45.0388 200.67 44.8824C201.867 44.9685 208.265 45.228 209.092 44.8865C209.092 44.8865 209.305 44.7013 209.704 44.73C209.904 44.7443 210.089 44.9582 210.488 44.9869C210.873 45.215 211.471 45.2581 212.07 45.3011C213.266 45.3872 214.478 45.2738 214.506 44.8748C214.521 44.6753 214.72 44.6897 215.105 44.9178C215.489 45.146 216.273 45.4029 217.071 45.4603C218.068 45.532 219.28 45.4186 219.508 45.034C219.907 45.0627 220.505 45.1057 220.904 45.1344C221.488 45.3769 222.885 45.4773 224.082 45.5634C225.293 45.45 228.698 45.4944 231.491 45.6952C241.11 45.7853 241.309 45.7997 241.751 45.2299C241.979 44.8453 242.193 44.6601 242.563 45.0878C242.748 45.3016 243.931 45.5872 245.128 45.6733C246.125 45.745 247.337 45.6316 247.351 45.4321C247.351 45.4321 247.565 45.247 247.764 45.2613C248.163 45.29 248.548 45.5182 248.947 45.5469L251.939 45.762C252.737 45.8194 254.133 45.9198 254.946 45.7777C255.943 45.8495 256.542 45.8925 256.556 45.693C256.57 45.4935 256.969 45.5222 257.553 45.7648C258.152 45.8078 258.75 45.8508 259.164 45.68C259.577 45.5092 261.572 45.6527 263.382 45.5823C267.785 45.6984 267.571 45.8836 267.4 45.4703C267.215 45.2564 268.611 45.3568 270.207 45.4716C272.8 45.6581 273.598 45.7155 275.038 45.2174C275.864 44.8759 276.477 44.7194 276.677 44.7338C277.076 44.7624 277.261 44.9763 277.446 45.1901C277.631 45.4039 278.215 45.6465 279.013 45.7038C280.21 45.7899 281.635 45.4914 283.06 45.1928C283.673 45.0364 284.67 45.1081 285.269 45.1511C285.853 45.3936 286.466 45.2372 286.466 45.2372C286.48 45.0377 287.477 45.1094 288.874 45.2099C289.472 45.2529 290.056 45.4954 290.455 45.5241C291.054 45.5671 291.467 45.3963 291.695 45.0117C291.924 44.6271 292.337 44.4563 292.522 44.6701C292.508 44.8696 293.306 44.927 294.303 44.9987C295.899 45.1135 297.908 45.0575 298.122 44.8723C298.136 44.6728 298.934 44.7302 299.932 44.802C300.943 44.6742 301.756 44.5321 301.97 44.3469C302.198 43.9623 302.397 43.9767 302.568 44.39C302.753 44.6038 303.337 44.8463 303.936 44.8894C304.534 44.9324 305.147 44.776 305.161 44.5765C305.375 44.3913 305.575 44.4057 305.974 44.4344C306.173 44.4487 306.373 44.4631 306.572 44.4774C307.156 44.7199 307.769 44.5635 307.783 44.364C307.798 44.1645 308.809 44.0368 310.206 44.1372C312.4 44.295 315.207 44.2963 318.627 44.1412C319.439 43.9991 320.437 44.0709 321.05 43.9144C321.848 43.9718 322.446 44.0148 322.46 43.8153C322.874 43.6445 324.284 43.5455 327.69 43.5899C329.699 43.5338 331.324 43.2496 331.338 43.0501C331.552 42.865 331.766 42.6799 331.951 42.8937C332.15 42.908 332.934 43.1649 333.732 43.2223C334.729 43.294 335.941 43.1806 336.354 43.0098C336.568 42.8247 337.366 42.8821 338.178 42.74C339.175 42.8117 340.586 42.7126 341.598 42.5849C342.61 42.4571 344.234 42.1729 345.232 42.2446C346.244 42.1169 347.255 41.9891 347.469 41.804C347.669 41.8183 348.068 41.847 348.666 41.89C349.065 41.9187 349.264 41.9331 349.663 41.9618C350.461 42.0191 351.274 41.877 351.274 41.877C351.288 41.6776 352.3 41.5498 353.696 41.6502C354.907 41.5368 356.318 41.4377 356.532 41.2526C356.746 41.0675 357.145 41.0962 357.743 41.1392C357.943 41.1535 358.142 41.1679 358.342 41.1822C358.926 41.4247 359.339 41.254 359.353 41.0545C359.368 40.855 359.781 40.6842 360.166 40.9124C360.565 40.9411 360.964 40.9697 360.978 40.7703C360.978 40.7703 361.99 40.6425 362.987 40.7142C364.184 40.8003 365.196 40.6726 365.21 40.4731C365.239 40.0741 365.638 40.1028 365.624 40.3023C365.823 40.3166 366.422 40.3597 366.849 39.9894C367.263 39.8186 368.474 39.7052 369.272 39.7626C371.495 39.5214 373.518 39.2659 375.556 38.8109C377.993 38.3846 379.932 36.5188 378.807 35.4353ZM173.675 29.9075C173.475 29.8932 172.862 30.0496 172.264 30.0066C171.666 29.9635 167.248 30.0469 167.205 30.6454C167.191 30.8449 166.792 30.8162 166.193 30.7731C165.41 30.5163 164.711 31.8696 165.266 32.5111C165.252 32.7106 165.024 33.0952 164.611 33.266C163.755 34.0066 163.741 34.2061 164.082 35.0327C164.253 35.446 164.652 35.4747 165.051 35.5034C165.464 35.3326 165.664 35.3469 165.65 35.5464C165.621 35.9454 164.751 36.8854 164.78 36.4865C164.794 36.287 164.58 36.4721 164.367 36.6573C163.953 36.828 163.754 36.8137 163.554 36.7994C163.369 36.5855 162.771 36.5425 162.372 36.5138C161.175 36.4277 159.764 36.5268 159.536 36.9114C159.108 37.2817 159.094 37.4812 158.894 37.4668C158.695 37.4525 158.709 37.253 158.539 36.8397C158.368 36.4264 157.584 36.1695 156.986 36.1265C156.587 36.0978 155.974 36.2542 155.76 36.4394C155.546 36.6245 155.347 36.6102 155.147 36.5958C154.748 36.5671 154.349 36.5384 153.965 36.3103C153.58 36.0821 153.381 36.0677 152.982 36.039C152.782 36.0247 152.568 36.2098 152.355 36.395C152.141 36.5801 151.927 36.7653 151.727 36.7509C151.328 36.7222 150.944 36.494 150.16 36.2372C148.992 35.7521 148.408 35.5096 148.379 35.9086C148.165 36.0937 147.966 36.0794 147.382 35.8369C147.011 35.4092 146.612 35.3805 146.185 35.7508C145.971 35.9359 145.772 35.9216 145.373 35.8929C145.173 35.8785 144.575 35.8355 144.19 35.6073C143.606 35.3648 142.209 35.2644 140.813 35.164C138.818 35.0205 136.823 34.8771 136.41 35.0479C136.196 35.233 135.997 35.2186 135.598 35.19C135.199 35.1613 134.6 35.1182 134.016 34.8757C129.628 34.5601 125.239 34.2445 120.85 33.9289L120.451 33.9002C119.454 33.8285 117.872 33.5142 116.476 33.4138C114.88 33.2991 113.669 33.4125 113.669 33.4125C113.654 33.612 113.441 33.7971 113.042 33.7684C112.842 33.7541 112.657 33.5402 112.258 33.5115C111.075 33.226 109.095 32.883 107.1 32.7396C104.307 32.5387 101.7 32.5517 101.472 32.9364C101.243 33.321 101.044 33.3066 100.688 32.6795C100.318 32.2518 97.7387 31.8659 95.7438 31.7224C94.148 31.6076 92.7372 31.7067 92.7229 31.9062C92.509 32.0913 92.1101 32.0626 91.5116 32.0196C90.5142 31.9479 89.3316 31.6623 88.947 31.4341C87.9783 30.9634 77.4199 30.0037 75.4251 29.8602C72.2333 29.6307 67.0611 29.0582 66.8759 28.8444C66.6908 28.6305 67.1041 28.4598 67.5031 28.4884C68.1015 28.5315 69.2984 28.6175 70.1107 28.4754C70.9087 28.5328 73.1173 28.4911 74.9127 28.6203C76.7224 28.5499 78.7316 28.4938 79.5439 28.3517C80.3418 28.4091 81.5531 28.2957 82.1515 28.3388C82.9351 28.5956 83.3484 28.4248 83.3628 28.2253C83.3915 27.8264 83.7905 27.8551 84.3746 28.0976C84.7592 28.3258 85.3576 28.3688 86.1556 28.4262C87.9509 28.5553 90.174 28.3141 90.4021 27.9295C90.4165 27.73 90.8298 27.5592 91.0293 27.5736C91.4283 27.6022 91.8129 27.8304 92.397 28.0729C92.9668 28.515 93.1662 28.5293 93.3944 28.1447C93.6083 27.9595 93.8221 27.7744 94.2211 27.8031C94.4205 27.8174 94.8051 28.0456 95.2041 28.0743C95.9877 28.3312 96.7713 28.588 97.5693 28.6454C98.7662 28.7315 99.9918 28.4186 100.619 28.0627C101.032 27.8919 101.446 27.7211 101.845 27.7498C102.044 27.7641 102.243 27.7784 102.429 27.9923C102.614 28.2061 103.811 28.2922 105.207 28.3926C106.404 28.4787 107.601 28.5647 107.615 28.3653C107.63 28.1658 110.038 28.1384 113.429 28.3823C116.022 28.5688 117.234 28.4554 118.075 27.9143C118.488 27.7435 118.901 27.5727 119.101 27.5871C119.5 27.6158 119.685 27.8296 120.069 28.0578C120.454 28.2859 120.653 28.3003 120.853 28.3146C121.252 28.3433 121.451 28.3577 121.879 27.9874C122.292 27.8166 122.706 27.6458 123.105 27.6745C123.304 27.6888 123.489 27.9027 123.689 27.917C123.674 28.1165 124.273 28.1595 125.071 28.2169C125.869 28.2743 126.866 28.346 128.077 28.2326C130.286 28.1909 132.495 28.1493 133.093 28.1923C133.492 28.221 134.105 28.0645 134.319 27.8794C134.533 27.6943 135.117 27.9368 135.715 27.9798C136.299 28.2223 136.883 28.4649 136.898 28.2654C137.112 28.0802 150.52 28.4429 160.708 28.9751C162.518 28.9047 164.114 29.0194 164.313 29.0338L164.328 28.8343C165.724 28.9347 167.32 29.0495 168.716 29.1499C168.702 29.3494 169.899 29.4355 171.495 29.5502C171.894 29.5789 172.293 29.6076 172.692 29.6363C173.29 29.6793 173.889 29.7224 173.675 29.9075ZM254.71 32.3262C254.311 32.2975 253.912 32.2688 253.513 32.2401C252.715 32.1827 252.53 31.9689 252.744 31.7838C252.958 31.5986 254.169 31.4852 255.366 31.5713C258.558 31.8008 257.916 32.3562 254.71 32.3262ZM259.298 32.6561C258.7 32.6131 257.93 32.1567 258.159 31.7721C258.372 31.587 258.771 31.6157 259.17 31.6444C259.569 31.6731 259.968 31.7017 260.153 31.9156C260.125 32.3145 259.897 32.6992 259.298 32.6561ZM249.163 39.7475C248.95 39.9326 248.736 40.1177 248.536 40.1034C248.337 40.089 248.152 39.8752 248.166 39.6757C248.18 39.4762 248.394 39.2911 248.793 39.3198C249.192 39.3485 249.178 39.548 249.163 39.7475ZM245.544 39.8882C245.33 40.0734 244.347 39.8021 244.361 39.6027C244.376 39.4032 244.575 39.4175 244.974 39.4462C245.373 39.4749 245.758 39.7031 245.544 39.8882ZM64.6816 28.6866C64.6672 28.8861 64.6529 29.0855 64.4534 29.0712C64.2539 29.0569 64.0688 28.843 63.8837 28.6292C63.6985 28.4154 63.9123 28.2302 64.1118 28.2446C64.3113 28.2589 64.4965 28.4727 64.6816 28.6866ZM57.8991 28.1988C57.6996 28.1845 57.5145 27.9707 57.5288 27.7712C57.5432 27.5717 57.757 27.3865 57.757 27.3865L58.1273 27.8142C58.3124 28.028 58.0986 28.2132 57.8991 28.1988ZM255.22 39.1804C255.006 39.3655 254.607 39.3369 254.422 39.123C254.422 39.123 254.636 38.9379 255.035 38.9666C255.434 38.9953 255.619 39.2091 255.22 39.1804ZM170.95 37.1307C170.921 37.5296 170.921 37.5296 170.736 37.3158C170.536 37.3014 170.551 37.102 170.765 36.9168C170.978 36.7317 170.964 36.9312 170.95 37.1307ZM251.761 31.5126C251.746 31.712 251.746 31.712 251.547 31.6977C251.547 31.6977 251.347 31.6833 251.362 31.4839L251.576 31.2987C251.775 31.3131 251.761 31.5126 251.761 31.5126ZM250.632 38.8505L250.418 39.0356C250.218 39.0212 250.233 38.8218 250.233 38.8218C250.247 38.6223 250.247 38.6223 250.446 38.6366C250.446 38.6366 250.646 38.651 250.632 38.8505ZM251.785 39.535L251.6 39.3211C251.615 39.1217 251.814 39.136 251.814 39.136C252.014 39.1504 252.014 39.1504 251.999 39.3498C251.999 39.3498 251.985 39.5493 251.785 39.535Z" fill="black"/>
</svg>
