<svg width="55" height="13" viewBox="0 0 55 13" fill="none" xmlns="http://www.w3.org/2000/svg">
<path d="M8.89786 5.2511C8.97462 5.28947 8.97463 5.32784 8.93626 5.40461C8.85952 5.48138 8.85953 5.51976 8.89792 5.55813C9.01306 5.59648 9.01313 5.94188 8.898 5.98028C8.82126 6.05706 8.89812 6.59433 9.01329 6.74782C9.12844 6.86293 9.32034 6.90127 9.43547 6.90125C9.58899 6.90122 9.66573 6.86283 9.66572 6.78607C9.6657 6.67093 9.70408 6.70931 9.81925 6.86279C9.9344 6.97791 9.9728 7.05465 10.1263 7.05462C10.1647 7.05462 10.2798 7.01622 10.3949 7.01619C10.6252 7.01615 10.8555 6.97772 10.9322 6.97771C11.009 6.97769 11.2009 6.97765 11.3928 6.97762C12.0068 6.9775 12.8895 6.93894 13.0046 6.90054C13.0046 6.90054 13.2349 6.9005 13.4652 6.90045C13.6954 6.90041 13.8873 6.90037 13.8873 6.82361C13.8873 6.78523 13.9257 6.78523 14.0408 6.86196C14.0792 6.90033 14.1176 6.90032 14.1943 6.90031C14.2327 6.9003 14.2711 6.90029 14.3095 6.86191C14.3862 6.86189 14.77 6.82344 15.1538 6.82336C15.5375 6.78491 15.8829 6.78484 15.9597 6.74645C15.9981 6.70806 16.0365 6.74643 16.0365 6.78481C16.0365 6.89994 15.6911 7.05352 15.6143 6.97678C15.576 6.93841 15.4992 7.01518 15.3841 7.16872C15.3074 7.28387 15.1539 7.47579 15.0772 7.55256C14.9237 7.82123 14.9621 8.01312 15.1924 8.01307C15.2308 8.01306 15.2691 8.01306 15.3075 8.01305C15.4226 7.97465 15.5378 7.93625 15.5762 7.93624C15.5762 7.93624 15.5762 8.01299 15.5762 8.08975C15.5762 8.20488 16.1903 8.3199 16.6892 8.3198C16.9195 8.31975 17.1113 8.28134 17.1881 8.24294C17.2265 8.20456 17.4183 8.20452 17.6102 8.20448C17.7638 8.24283 17.8789 8.24281 17.994 8.24278C18.301 8.24272 18.4545 8.16594 18.4545 8.01243C18.4545 7.85891 18.4545 7.85891 18.5696 8.0124C18.6464 8.12752 19.0686 8.16582 19.4524 8.16574C19.7978 8.16567 20.1048 8.12723 20.1815 8.05046C20.2199 8.01208 20.2966 7.97368 20.3734 7.97367C20.6037 7.97362 20.9491 8.08869 20.9107 8.20383C20.9108 8.28059 20.9491 8.35733 21.0259 8.35732C21.1027 8.39568 21.2178 8.51079 21.2562 8.58754C21.333 8.70266 21.3714 8.77941 21.4865 8.77939C21.5249 8.77938 21.6017 8.74098 21.6784 8.74097C21.7168 8.74096 21.7552 8.74095 21.8319 8.74094C21.9471 8.74092 22.0622 8.74089 22.1006 8.77926C22.139 8.81763 22.2157 8.81762 22.2925 8.77923C22.3308 8.74084 22.8681 8.74073 23.4822 8.74061C24.2881 8.70207 24.6719 8.66362 24.6719 8.62524C24.7102 8.54848 24.7102 8.54848 24.787 8.62522C24.8254 8.66359 24.8638 8.70196 24.9021 8.70195C24.9405 8.70195 25.0173 8.66355 25.0556 8.62517C25.1324 8.58677 25.2091 8.58676 25.2475 8.62513C25.2859 8.6635 25.3627 8.66348 25.4778 8.66346C25.7848 8.6634 26.2837 8.58655 26.4372 8.54814C26.514 8.50975 26.5524 8.47136 26.5907 8.47135C26.6291 8.47134 26.6675 8.50971 26.7059 8.50971C26.7443 8.58646 27.0129 8.5864 27.2816 8.58635C27.9724 8.54783 29.0853 8.47086 29.661 8.43237C29.9296 8.43231 30.8123 8.39376 31.6182 8.3936C32.8079 8.39337 33.1533 8.35492 33.1917 8.27816C33.2301 8.23977 33.2685 8.23976 33.2685 8.23976C33.3068 8.23976 33.3452 8.23975 33.422 8.31649C33.5371 8.39322 33.6523 8.3932 33.8058 8.39317C34.2663 8.39308 35.5328 8.46958 35.6479 8.50794C35.6863 8.54631 35.8014 8.50791 35.8782 8.43114C35.9549 8.35437 35.9933 8.35436 36.0317 8.35435C36.0317 8.35435 36.0701 8.35434 36.1085 8.39271C36.1852 8.46945 36.3771 8.50779 36.5306 8.50776C36.876 8.54607 36.9144 8.62282 36.6074 8.66126C36.4923 8.69966 36.3772 8.73806 36.3772 8.81482C36.3772 8.92995 36.3005 8.96835 36.2237 8.96836C36.2237 8.96836 36.1853 8.96837 36.1469 8.93C36.1085 8.89163 35.9934 8.85327 35.8399 8.8533C35.7248 8.85333 35.5713 8.89173 35.4561 8.96851C35.4178 9.0069 35.341 9.00691 35.2643 9.00693C35.2643 9.00693 35.2259 9.00694 35.1875 9.00694C35.1491 8.96857 35.1107 8.96858 35.034 8.9686C34.9572 8.96861 34.8805 8.96863 34.8037 9.00702C34.6886 9.04542 34.2281 9.12227 33.8443 9.16072C33.4222 9.23756 33 9.3144 32.8849 9.31442C32.8081 9.35282 32.5011 9.39125 32.2325 9.39131C31.9638 9.42974 31.7336 9.46816 31.6952 9.50655C31.6568 9.54493 31.5417 9.54496 31.4266 9.54498C31.3882 9.54499 31.3498 9.54499 31.3114 9.545C31.1963 9.54502 31.1196 9.58342 31.0812 9.6218C31.0044 9.69857 30.9661 9.73696 30.9277 9.73697C30.8893 9.73697 30.8509 9.6986 30.7742 9.66024C30.659 9.58351 30.5823 9.58352 30.5439 9.62191C30.5055 9.66029 30.352 9.6987 30.1217 9.69875C29.9299 9.69879 29.7764 9.73719 29.738 9.77558C29.6996 9.81397 29.5077 9.85238 29.3158 9.85242C28.8169 9.85252 28.4332 9.92935 28.318 9.96775C28.2797 10.0061 28.011 10.0446 27.7424 10.0446C27.4737 10.0831 27.2435 10.1215 27.2051 10.1599C27.1667 10.1982 26.9749 10.1983 26.783 10.1983C26.7446 10.1983 26.7062 10.1983 26.6678 10.1983C26.5527 10.1984 26.4759 10.1984 26.4759 10.2368C26.476 10.2751 26.3224 10.2752 26.1689 10.3136C26.0538 10.3136 25.9003 10.352 25.9003 10.3904C25.7852 10.3904 24.8641 10.429 24.8257 10.4674C24.7874 10.5057 24.5571 10.5825 24.3269 10.621C23.2907 10.7747 22.8302 10.9283 22.4848 11.2354C22.4081 11.3121 22.4082 11.6959 22.5233 11.8494C22.6001 11.9262 22.7536 11.9645 22.8688 11.9645C22.9839 11.9645 23.0606 11.9261 23.099 11.8877C23.099 11.8493 23.2909 11.8493 23.4444 11.8492C23.5595 11.8876 23.6363 11.8876 23.7131 11.8876C23.7898 11.8875 23.8282 11.8875 23.8282 11.8492C23.8282 11.8108 24.0201 11.7724 24.2119 11.7339C25.3633 11.657 25.7087 11.6185 26.7832 11.4264C27.167 11.3112 27.6659 11.2727 28.0496 11.2727C28.088 11.2343 28.3567 11.1958 28.6253 11.1574C29.3161 11.1189 29.7382 11.0421 29.7382 10.9653C29.7382 10.9653 29.8917 10.9269 30.122 10.9268C31.1582 10.8883 31.5036 10.8114 31.5419 10.6579C31.5803 10.5812 31.5803 10.5044 31.6186 10.5044C31.657 10.5044 31.6954 10.5428 31.7722 10.5811C31.8873 10.6578 32.0408 10.6578 32.1943 10.6578C32.3862 10.6577 32.5397 10.6577 32.6165 10.5809C32.7316 10.5425 32.9619 10.5041 33.1921 10.5041C33.4224 10.4657 33.691 10.4656 33.8062 10.4272C33.8829 10.3888 34.3051 10.3503 34.6888 10.2735C35.0726 10.2351 35.4948 10.1582 35.6099 10.1198C35.725 10.0814 35.9169 10.0814 35.9937 10.0814C36.0704 10.0814 36.1472 10.043 36.1471 10.0046C36.1471 9.9662 36.2623 9.9278 36.4158 9.92777C36.8763 9.92768 37.3368 9.85083 37.759 9.69724C38.0276 9.65881 38.2195 9.58201 38.2195 9.54364C38.2195 9.50526 38.2962 9.50524 38.3346 9.54361C38.6416 9.62031 39.4091 9.04449 39.1788 8.89102C39.1404 8.85265 39.1788 8.77589 39.2939 8.58397C39.5241 8.31528 39.524 8.16177 39.4089 8.04666C39.3321 7.96992 39.3321 7.93154 39.4089 7.93153C40.5986 7.89291 41.1358 7.81605 41.2126 7.7009C41.2509 7.62414 41.2509 7.62414 41.251 7.70089C41.251 7.73927 41.3661 7.77763 41.5196 7.7776C41.6731 7.77757 42.6326 7.62386 42.6325 7.47035C42.5941 7.3936 42.6325 7.31684 42.7092 7.27845C42.8244 7.16329 42.8627 6.97139 42.7476 6.97142C42.7476 6.97142 42.6708 6.8563 42.6324 6.74117C42.594 6.58767 42.5172 6.51093 42.4404 6.51094C42.4021 6.54933 42.3253 6.51096 42.3253 6.47259C42.2485 6.35747 41.5193 6.28086 40.6366 6.28103C40.5215 6.28105 40.4064 6.28108 40.2912 6.2811C39.9842 6.28116 39.7539 6.28121 39.6772 6.24284C39.6004 6.20448 39.5237 6.20449 39.4853 6.2045C39.4085 6.20452 39.2934 6.24292 39.2166 6.28131C39.1015 6.35809 39.0248 6.35811 38.948 6.35812C38.9096 6.35813 38.8329 6.35814 38.7561 6.31978C38.5642 6.24306 37.9885 6.2048 37.5664 6.20488C37.3361 6.20493 37.1826 6.20496 37.1442 6.24334C37.1442 6.28172 37.0291 6.28174 36.914 6.28177C36.8372 6.28178 36.7988 6.24341 36.7605 6.24342C36.6837 6.24343 36.6069 6.28183 36.5686 6.32021C36.5302 6.3586 36.4918 6.35861 36.4918 6.35861C36.4535 6.35861 36.4151 6.35862 36.3383 6.28188C36.2999 6.24351 36.2615 6.20514 36.1848 6.20515C36.1464 6.20516 36.0696 6.24356 35.9929 6.24357C35.9161 6.28196 35.8394 6.28198 35.7626 6.28199C35.6859 6.28201 35.6091 6.28202 35.5324 6.24366C35.494 6.24367 35.4172 6.20531 35.4172 6.20531C35.3405 6.20532 35.3021 6.24371 35.2637 6.32047C35.187 6.474 35.187 6.474 35.0718 6.35889C35.0335 6.28214 34.4961 6.20549 33.9972 6.20559C33.6518 6.20566 33.3064 6.2441 33.1146 6.28252C33.0378 6.32091 32.8843 6.32094 32.8459 6.32095C32.7308 6.32097 32.654 6.28261 32.5389 6.28263C32.3854 6.28266 32.2319 6.32107 32.0016 6.35949C31.9249 6.35951 31.8481 6.35952 31.8097 6.35953C31.6562 6.35956 31.5794 6.35958 31.5411 6.32121C31.5027 6.28284 31.4643 6.24447 31.4259 6.28285C31.3876 6.32124 31.3492 6.28287 31.3108 6.2445C31.2724 6.20613 31.3875 6.16773 31.541 6.12932C31.8097 6.09089 32.0015 6.05247 32.7691 6.05232C32.961 6.0139 33.1529 5.97549 33.2296 5.93709C33.268 5.89871 33.3064 5.86032 33.4215 5.8603C33.4599 5.86029 33.5366 5.86028 33.6518 5.89863C33.7669 5.89861 33.8437 5.93697 33.882 5.93696C33.9588 5.93695 33.9972 5.89856 34.0355 5.86018C34.1123 5.78341 34.1507 5.74502 34.189 5.78339C34.2274 5.82176 34.3042 5.82175 34.4577 5.82172C34.7263 5.82166 35.1869 5.74482 35.2252 5.66805C35.302 5.59128 35.3403 5.59127 35.3403 5.62965C35.3404 5.66803 35.4939 5.70638 35.7241 5.70633C35.9928 5.70628 36.3382 5.66783 36.3765 5.59107C36.4149 5.51431 36.4533 5.5143 36.4917 5.55267C36.5301 5.62942 36.6068 5.6294 36.6836 5.59101C36.7219 5.591 36.9906 5.55257 37.2208 5.55252C37.2976 5.55251 37.336 5.5525 37.4127 5.55249C37.5663 5.55246 37.643 5.55244 37.6814 5.51406C37.6814 5.47568 37.8733 5.47564 38.1419 5.47559C38.257 5.47556 38.3722 5.47554 38.4873 5.47552C39.1397 5.47539 39.2932 5.43698 39.3316 5.36022C39.4083 5.28345 39.4083 5.28345 39.5235 5.3218C39.5619 5.36017 39.6386 5.39853 39.7154 5.39852C39.8305 5.3985 39.9456 5.3601 40.0224 5.28333C40.0608 5.20656 40.0991 5.20655 40.1759 5.24492C40.2143 5.28329 40.4829 5.32161 40.8283 5.32154C41.1737 5.32148 41.5575 5.28302 41.8261 5.24459C41.9797 5.20618 42.4402 5.16771 42.8623 5.16763C43.3229 5.12916 43.7066 5.09071 43.745 5.0907C43.8218 5.01393 45.5871 4.93682 48.1584 4.89794C49.0411 4.85938 49.7703 4.82086 49.7703 4.82086C49.8087 4.82085 50.6146 4.78232 52.2265 4.74362C52.5719 4.74355 52.8789 4.70511 52.9173 4.70511C52.9556 4.66672 53.301 4.62827 53.6081 4.62821C54.2989 4.62808 54.4907 4.5129 54.4139 4.2059C54.4139 4.12914 54.4523 4.05238 54.4906 4.01399C54.6441 3.9372 54.5673 3.51506 54.3754 3.5151C54.2986 3.51512 54.2219 3.47675 54.1835 3.43838C54.1835 3.4 53.7229 3.4001 53.2624 3.40019C52.8403 3.40027 52.3797 3.40036 52.3797 3.43874C52.3797 3.43874 52.0343 3.47719 51.6122 3.47727C50.883 3.47741 49.2328 3.51612 47.5825 3.63158C47.122 3.63167 46.6231 3.63177 46.1625 3.63186C46.009 3.63189 45.8171 3.6703 45.6636 3.67034C45.395 3.67039 44.7809 3.67051 44.282 3.67061C43.8215 3.6707 43.3993 3.70916 43.3993 3.74754C43.3994 3.78592 43.361 3.78592 43.2842 3.74756C43.1691 3.70921 42.9772 3.67087 42.8237 3.6709C42.5934 3.67094 42.4399 3.70935 42.4015 3.78611C42.3632 3.86288 42.2864 3.86289 42.1713 3.82454C42.0561 3.82456 41.9026 3.82459 41.8643 3.90135C41.8259 3.93974 41.7875 3.93975 41.7491 3.82462C41.7107 3.74787 41.5188 3.70953 41.4037 3.70956C41.2886 3.70958 41.2118 3.74797 41.2118 3.78635C41.2118 3.82473 41.0967 3.82475 41.0199 3.74801C40.9048 3.67128 40.7896 3.6713 40.7513 3.67131C40.7129 3.70969 40.5977 3.70971 40.4826 3.70974C40.4442 3.70975 40.4059 3.70975 40.3675 3.70976C40.1756 3.7098 40.0988 3.74819 40.0988 3.78657C40.0989 3.86333 40.0221 3.86334 39.9453 3.82498C39.907 3.82499 39.8302 3.825 39.7918 3.86339C39.7535 3.90177 39.6767 3.90179 39.5232 3.82506C39.2161 3.74837 38.9859 3.74841 38.6789 3.74847C38.4486 3.7869 38.1416 3.78696 37.8729 3.78701C37.7962 3.78702 37.681 3.78705 37.6043 3.78706C37.1054 3.78716 37.0286 3.82555 36.9519 3.9407C36.8752 4.05585 36.8752 4.09423 36.8368 4.09424C36.7984 4.09425 36.7216 4.05588 36.6449 3.97914C36.5297 3.86403 35.9157 3.7874 35.3784 3.7875C34.9562 3.78759 34.5341 3.82605 34.5341 3.94118C34.5341 4.01794 34.4957 4.01795 34.4189 3.9412C34.3422 3.86446 33.8816 3.82618 33.4595 3.82626C33.2676 3.8263 33.0373 3.82634 32.9606 3.86474C32.8838 3.90313 32.7687 3.90315 32.6919 3.90317C32.3849 3.90323 32.0011 3.78817 31.9243 3.63467C31.8859 3.51955 31.8475 3.51956 31.7708 3.55795C31.7324 3.63471 31.6557 3.59635 31.6173 3.5196C31.5405 3.40448 30.9264 3.32785 30.5043 3.32793C30.3508 3.32796 30.2356 3.32798 30.1973 3.36637C30.1205 3.40476 30.0437 3.40478 30.0054 3.36641C29.967 3.32804 29.8135 3.28969 29.6599 3.28972C29.5448 3.28974 29.4297 3.32814 29.4297 3.36652C29.4297 3.4049 29.3913 3.44329 29.3146 3.4433C29.2378 3.44332 29.1994 3.40495 29.1994 3.36657C29.1994 3.28981 29.1994 3.28981 28.24 3.25162C27.6259 3.25174 27.5108 3.25177 27.4724 3.32853C27.4341 3.44367 27.3957 3.44368 27.3573 3.36693C27.3189 3.29018 27.127 3.21347 26.9735 3.2135C26.8583 3.21352 26.7432 3.25192 26.7048 3.2903C26.6665 3.32869 26.5897 3.32871 26.5513 3.32871C26.4746 3.29035 26.2827 3.25201 26.1292 3.25204C26.0524 3.25206 26.014 3.25206 26.014 3.29044C26.014 3.32882 25.9757 3.32883 25.8989 3.29046C25.8221 3.2521 25.5151 3.25216 25.2081 3.25222C24.9011 3.29066 24.2487 3.29079 23.7881 3.29088C22.9438 3.29105 22.7519 3.36784 22.7903 3.52135C22.8287 3.63647 22.7904 3.67486 22.752 3.67487C22.7136 3.67487 22.6368 3.63651 22.5985 3.55976C22.5217 3.36789 22.4449 3.32953 22.0611 3.3296C21.946 3.32962 21.7541 3.32966 21.4854 3.32972C21.0249 3.36818 20.526 3.36828 20.4109 3.36831C20.2957 3.36833 20.1806 3.40673 20.1806 3.44511C20.1806 3.48348 20.0271 3.48352 19.8736 3.48355C19.5282 3.44524 19.1444 3.40693 18.799 3.407C18.7606 3.44539 18.3769 3.44546 17.8779 3.44556C17.4174 3.48403 16.9953 3.48411 16.9569 3.5225C16.9185 3.52251 16.7266 3.56092 16.5347 3.56096C16.4964 3.56097 16.4196 3.56098 16.3812 3.56099C16.2661 3.56101 16.1893 3.56103 16.1893 3.59941C16.1893 3.63779 16.1126 3.6378 16.0358 3.59944C15.8823 3.56109 15.6904 3.52275 15.5753 3.52277C15.3834 3.52281 15.2683 3.56121 15.2299 3.63798C15.1915 3.75312 15.1532 3.7915 15.1148 3.79151C15.038 3.79153 14.9997 3.75316 14.9229 3.71479C14.8461 3.63805 14.8077 3.63806 14.731 3.75321C14.6543 3.90674 14.6159 3.90674 14.5775 3.79162C14.5391 3.71487 14.2705 3.63817 13.9634 3.63823C13.8867 3.63824 13.8483 3.63825 13.7715 3.63826C13.618 3.67667 12.697 3.71523 12.2748 3.71532C12.0062 3.75375 11.8143 3.75379 11.8143 3.79216C11.8143 3.83054 11.5457 3.83059 11.2003 3.86904C10.8549 3.86911 10.5478 3.90755 10.5095 3.94593C10.4711 3.98432 10.3943 3.98433 10.2792 3.94598C10.1641 3.90762 10.0873 3.90764 10.0489 3.94602C10.0106 4.02279 9.9722 4.0228 9.93381 3.98443C9.89543 3.94605 9.85705 3.94606 9.81867 3.94607C9.70354 3.94609 9.58841 3.98449 9.58842 4.06125C9.58843 4.09963 9.55005 4.09963 9.51167 4.06126C9.12789 4.06134 8.70573 4.06142 8.32195 4.0615C8.20683 4.0999 7.89981 4.13834 7.59279 4.1384C7.28577 4.17684 7.01713 4.21527 7.01714 4.25365C7.01715 4.29203 6.90201 4.29205 6.78688 4.29207C6.7485 4.29208 6.71012 4.29209 6.63337 4.2921C6.47986 4.29213 6.21121 4.29218 5.98095 4.33061C5.32854 4.40749 5.29016 4.4075 4.44587 4.5228C3.79345 4.56131 3.75508 4.59969 3.60158 4.6381C3.52483 4.6765 3.14106 4.71495 2.75728 4.7534C1.64435 4.90714 1.52922 4.90716 1.52925 5.06067C1.52927 5.13743 1.49089 5.13743 1.41412 5.09907C1.37574 5.0607 1.29898 5.02234 1.22222 5.02235C0.991951 5.0224 0.684958 5.17597 0.684996 5.36786C0.685004 5.40624 0.608255 5.44463 0.493122 5.44465C0.262854 5.4447 0.10938 5.63662 0.301285 5.71334C0.378048 5.7517 0.416441 5.82845 0.378071 5.86683C0.339739 6.09711 0.454895 6.21222 0.685163 6.21218C0.800297 6.21215 0.953816 6.2505 0.953824 6.28888C0.99221 6.32725 1.03059 6.32724 1.06897 6.32723C1.10734 6.32723 1.14571 6.28884 1.1457 6.21208C1.14568 6.13533 1.18405 6.09694 1.2992 6.1353C1.45271 6.17365 1.4911 6.21202 1.52948 6.21201C1.56786 6.212 1.60623 6.17362 1.6446 6.17361C1.83648 6.09681 2.91103 5.94309 3.44832 5.90461C3.71696 5.90455 3.94722 5.86613 3.94721 5.82775C4.02395 5.75098 4.79151 5.71245 4.94502 5.71242C5.06014 5.67402 5.44392 5.63557 5.78931 5.59712C6.17308 5.55867 6.44172 5.52023 6.4417 5.44348C6.48008 5.40509 6.51845 5.36671 6.63359 5.44344C6.71036 5.4818 6.82549 5.48178 6.90225 5.48176C7.01737 5.40499 7.17088 5.40496 7.90005 5.36643C8.05356 5.3664 8.13031 5.32801 8.16867 5.21287C8.20702 5.05935 8.20702 5.05935 8.32218 5.21284C8.39895 5.28958 8.55248 5.3663 8.66761 5.36628C8.70599 5.36627 8.78274 5.32788 8.78273 5.2895C8.82109 5.21274 8.85947 5.21273 8.89786 5.2511ZM30.8502 6.24459C30.8886 6.2062 31.0037 6.1678 31.0805 6.16779C31.1956 6.16776 31.234 6.20613 31.1189 6.24453C31.0422 6.32131 30.9654 6.32132 30.927 6.32133C30.8503 6.32134 30.8503 6.32134 30.8502 6.24459ZM30.5816 6.24464C30.7351 6.24461 30.7735 6.28298 30.6967 6.32137C30.62 6.35977 30.5816 6.39815 30.5049 6.39817C30.4665 6.39818 30.4665 6.3598 30.4281 6.32143C30.3897 6.28306 30.4665 6.24466 30.5816 6.24464ZM30.0443 6.35988C30.0827 6.3215 30.1211 6.32149 30.1211 6.35987C30.1595 6.35986 30.1595 6.39824 30.0827 6.39825C30.0443 6.39826 30.006 6.35989 30.0443 6.35988ZM29.8141 6.32155C29.8524 6.32154 29.8524 6.35992 29.8524 6.35992C29.8525 6.3983 29.8525 6.3983 29.8141 6.3983C29.8141 6.3983 29.7757 6.39831 29.7757 6.35993L29.8141 6.32155ZM28.7011 6.39852C28.7395 6.39852 28.7395 6.39852 28.7395 6.4369C28.7395 6.47527 28.7395 6.47527 28.7011 6.47528C28.7011 6.39852 28.7011 6.39852 28.7011 6.39852ZM20.5649 6.09311C20.6033 6.0931 20.6033 6.13148 20.6033 6.13148C20.6033 6.16986 20.6033 6.16986 20.5649 6.16987C20.5649 6.16987 20.5266 6.16987 20.5266 6.1315L20.5649 6.09311ZM17.0726 6.63109C17.1494 6.5927 17.2645 6.70781 17.2646 6.78457C17.2646 6.82294 17.2646 6.86132 17.2262 6.86133C17.1111 6.86135 17.0343 6.70786 17.0726 6.63109ZM16.7656 6.66953C16.7656 6.70791 16.7273 6.74629 16.6889 6.7463C16.6505 6.78469 16.6121 6.74632 16.6121 6.70794C16.6505 6.5928 16.7656 6.59278 16.7656 6.66953ZM10.2026 4.94382C10.241 4.90544 10.2794 4.90543 10.3178 4.9438C10.3178 4.98218 10.3178 4.98218 10.241 4.98219C10.2027 4.9822 10.1643 4.98221 10.2026 4.94382ZM9.08974 5.21269C9.12812 5.21268 9.12812 5.25106 9.12812 5.25106C9.12813 5.28944 9.12813 5.28944 9.08975 5.28944C9.08975 5.28944 9.05138 5.28945 9.05137 5.25107L9.08974 5.21269Z" fill="black"/>
</svg>
