<svg width="49" height="14" viewBox="0 0 49 14" fill="none" xmlns="http://www.w3.org/2000/svg">
<path d="M46.2947 6.4801C46.5189 6.47544 46.8116 6.17034 46.8077 5.98354C46.8053 5.87146 46.8419 5.83332 46.9166 5.83176C47.0287 5.82943 47.0653 5.7913 47.0645 5.75394C47.0638 5.71658 47.1369 5.6403 47.2482 5.60061C47.3595 5.56092 47.4327 5.48464 47.4312 5.40992C47.4304 5.37256 47.5759 5.18265 47.7588 4.99196C48.1986 4.57167 48.2344 4.49618 48.0819 4.34984C47.9675 4.24009 47.9659 4.16537 48.0399 4.12645C48.1862 3.97391 48.0282 3.56605 47.8788 3.56915C47.8414 3.56993 47.8414 3.56993 47.8048 3.60807C47.7317 3.68434 47.6935 3.64776 47.5807 3.61273C47.5425 3.57615 47.467 3.54034 47.4297 3.54112C47.3923 3.54189 47.3557 3.58003 47.3184 3.58081C47.2818 3.61894 47.0592 3.69833 46.8739 3.77693C46.6521 3.89368 46.5416 3.97073 46.5423 4.00809C46.6186 4.08126 46.4723 4.23381 46.3228 4.23691C46.2107 4.23924 46.1002 4.3163 46.0644 4.39179C45.9912 4.46807 45.8807 4.54512 45.7694 4.58481C45.6947 4.58637 45.4736 4.74047 45.3273 4.89302C45.1444 5.08371 44.9973 5.1989 44.9599 5.19967C44.8852 5.20123 44.8159 5.4643 44.9295 5.53669C44.9677 5.57328 44.9311 5.61142 44.819 5.61375C44.7817 5.61452 44.7069 5.61608 44.6322 5.61763C44.3707 5.62307 44.222 5.66354 44.1489 5.73981C44.0399 5.89159 43.7449 6.0846 43.6328 6.08693C43.5581 6.08849 43.5939 6.01299 43.7402 5.86044C43.8873 5.74525 43.9589 5.59425 43.9582 5.55689C43.9566 5.48217 43.9932 5.44403 44.0306 5.44326C44.18 5.44015 44.7646 4.79259 44.7249 4.68129C44.6867 4.6447 44.7225 4.5692 44.7591 4.53107C44.9451 4.48982 44.9024 4.22907 44.7514 4.15746C44.6385 4.12243 44.6004 4.08585 44.6362 4.01035C44.6704 3.86013 44.4439 3.75271 44.2198 3.75737C44.1077 3.7597 43.959 3.80017 43.9232 3.87567C43.8874 3.95117 43.8135 3.99008 43.7014 3.99241C43.5146 3.9963 43.2203 4.22667 43.2227 4.33876C43.2242 4.41348 43.1503 4.45239 43.0756 4.45395C42.7393 4.46094 41.9672 5.07502 42.0458 5.26027C42.0847 5.33421 42.0847 5.33421 42.0473 5.33499C42.0466 5.29763 42.0092 5.29841 41.9718 5.29918C41.8224 5.30229 41.6013 5.4564 41.6037 5.56848C41.6052 5.6432 41.5686 5.68134 41.4939 5.68289C41.4939 5.68289 41.4566 5.68367 41.4192 5.68444C41.3818 5.68522 41.3445 5.686 41.3445 5.686C41.1577 5.68988 40.9366 5.84399 40.9397 5.99343C40.9405 6.03079 40.8673 6.10706 40.7187 6.14753C40.6074 6.18722 40.4229 6.30319 40.3863 6.34133C40.3131 6.4176 40.2392 6.45652 40.2384 6.41915C40.2369 6.34443 40.7506 5.88523 40.8253 5.88368C40.8627 5.8829 40.8611 5.80818 40.8604 5.77082C40.8214 5.69687 40.858 5.65874 40.8954 5.65796C41.0075 5.65563 41.8504 4.85319 41.8839 4.66561C41.9197 4.59011 41.9563 4.55197 41.9937 4.5512C42.1805 4.54731 42.3611 4.24454 42.3198 4.05852C42.2801 3.94721 42.2793 3.90985 42.3541 3.9083C42.3541 3.9083 42.3914 3.90752 42.4288 3.90674C42.5798 3.97836 43.0227 3.70751 42.983 3.59621C42.9822 3.55884 43.0546 3.44521 43.2009 3.29266C43.3099 3.14089 43.4189 2.98911 43.3807 2.95253C43.38 2.91517 43.415 2.80231 43.4508 2.72681C43.5232 2.61318 43.5216 2.53846 43.4835 2.50187C43.4454 2.46529 43.3683 2.35476 43.3286 2.24346C43.1745 2.0224 43.0601 1.91265 42.9107 1.91576C42.7612 1.91886 42.6125 1.95933 42.3907 2.07608C42.1315 2.19359 41.8723 2.31112 41.835 2.31189C41.7976 2.31267 41.7237 2.35158 41.7244 2.38894C41.7244 2.38894 41.6147 2.50336 41.4676 2.61855C41.3197 2.69637 41.1734 2.84892 41.1749 2.92365C41.1772 3.03573 41.0301 3.15092 40.806 3.15558C40.6573 3.19605 40.1405 3.50581 40.1054 3.61867C40.0696 3.69416 39.9957 3.73308 39.921 3.73463C39.8836 3.73541 39.7723 3.7751 39.7373 3.88796C39.6641 3.96423 39.5528 4.00392 39.4781 4.00548C39.4407 4.00626 39.4041 4.04439 39.4049 4.08175C39.4057 4.11911 39.3691 4.15725 39.2944 4.15881C39.2197 4.16036 39.1831 4.1985 39.1839 4.23586C39.1846 4.27322 39.148 4.31135 39.0733 4.31291C39.036 4.31369 38.962 4.3526 38.9628 4.38996C38.9636 4.42732 38.8904 4.5036 38.7783 4.50593C38.7044 4.54484 38.5565 4.62267 38.4841 4.73631C38.4109 4.81258 38.2638 4.92777 38.1525 4.96746C38.1159 5.0056 37.8957 5.19706 37.8583 5.19784C37.8209 5.19862 37.7104 5.27567 37.6372 5.35194C37.5648 5.46558 37.4177 5.58077 37.2691 5.62124C37.1212 5.69906 37.048 5.77534 37.0862 5.81192C37.0877 5.88664 37.0511 5.92478 36.9756 5.88898C36.8635 5.89131 36.7149 5.93177 36.5685 6.08432C36.2019 6.42834 36.0175 6.5443 35.9427 6.54586C35.868 6.54741 35.8314 6.58555 35.833 6.66027C35.8338 6.69763 35.7606 6.77391 35.6867 6.81282C35.4259 6.85562 34.9106 7.2401 34.913 7.35218C34.9137 7.38954 34.8032 7.4666 34.6919 7.50629C34.5432 7.54675 34.3588 7.66272 34.2864 7.77636C34.1766 7.89077 33.9921 8.00674 33.8816 8.08379C33.733 8.12425 33.6606 8.23789 33.6613 8.27525C33.6629 8.34997 33.5524 8.42702 33.4792 8.5033C33.4053 8.54221 33.3679 8.54299 33.3305 8.54377C33.1811 8.54687 33.1422 8.47293 33.2901 8.3951C33.364 8.35619 33.4372 8.27991 33.4356 8.20519C33.4341 8.13047 33.5065 8.01683 33.5812 8.01528C33.6551 7.97637 33.7291 7.93745 33.7283 7.90009C33.7275 7.86273 33.7641 7.82459 33.8015 7.82382C33.8388 7.82304 33.9859 7.70785 34.0957 7.59344C34.2054 7.47903 34.3152 7.36461 34.3525 7.36384C34.3899 7.36306 34.4265 7.32492 34.4257 7.28756C34.4249 7.2502 34.4973 7.13657 34.6071 7.02215C34.6802 6.94588 34.7526 6.83224 34.7519 6.79488C34.7511 6.75752 34.825 6.71861 34.8997 6.71705C34.9745 6.7155 35.1224 6.63767 35.1947 6.52404C35.2671 6.4104 35.3403 6.33412 35.415 6.33257C35.4524 6.33179 35.489 6.29366 35.4882 6.2563C35.4866 6.18157 35.5598 6.1053 35.6338 6.06639C35.7458 6.06406 35.7816 5.98856 35.7412 5.83989C35.7388 5.72781 35.7373 5.65309 35.812 5.65153C36.0362 5.64687 36.3327 5.52858 36.3304 5.41649C36.3296 5.37913 36.4401 5.30208 36.5507 5.22503C36.6993 5.18456 36.8083 5.03279 36.8441 4.95729C36.8799 4.88179 36.9897 4.76738 37.027 4.7666C37.1749 4.68878 38.0179 3.88633 38.0156 3.77425C38.0148 3.73689 38.0514 3.69876 38.1261 3.6972C38.2008 3.69565 38.5674 3.35163 38.8601 3.04653C38.9341 3.00762 39.0796 2.81771 39.2267 2.70252C39.4462 2.47369 39.4455 2.43633 39.3684 2.32581C39.254 2.21606 39.2913 2.21528 39.3637 2.10164C39.5116 2.02381 39.5443 1.79887 39.4322 1.8012C39.3949 1.80198 39.3178 1.69145 39.2789 1.61751C39.2392 1.5062 39.1629 1.43304 39.1637 1.4704C39.1264 1.47117 39.0516 1.47273 38.9761 1.43692C38.8625 1.36453 38.8259 1.40267 38.7901 1.47817C38.7543 1.55366 38.6804 1.59258 38.4936 1.59646C38.3068 1.60035 38.2328 1.63926 38.2351 1.75134C38.1993 1.82684 38.0888 1.90389 37.9401 1.94436C37.7907 1.94747 37.6062 2.06344 37.5323 2.10235C37.4591 2.17862 37.2747 2.29459 37.1633 2.33428C37.052 2.37397 36.9789 2.45025 37.017 2.48683C37.0551 2.52342 37.0186 2.56155 36.9438 2.56311C36.8318 2.56544 36.5368 2.75846 36.2433 3.0262C36.1701 3.10247 36.0596 3.17952 35.9849 3.18108C35.837 3.2589 35.8386 3.33363 35.8424 3.52043C35.8432 3.55779 35.7693 3.5967 35.6946 3.59826C35.5825 3.60059 35.472 3.67764 35.3988 3.75391C35.363 3.82941 35.2524 3.90646 35.1777 3.90802C34.9909 3.9119 34.5838 4.10725 34.5862 4.21933C34.587 4.25669 34.5122 4.25825 34.4749 4.25902C34.4375 4.2598 34.2538 4.41313 34.0701 4.56645C33.9238 4.719 33.7401 4.87233 33.6661 4.91125C33.5914 4.9128 33.5183 4.98907 33.4824 5.06457C33.4459 5.10271 33.3719 5.14162 33.2972 5.14318C33.2225 5.14473 33.0754 5.25992 33.0022 5.3362C32.8924 5.45061 32.7819 5.52766 32.7446 5.52844C32.7072 5.52921 32.5967 5.60627 32.4869 5.72068C32.3764 5.79773 32.2293 5.91292 32.1553 5.95183C32.0806 5.95339 32.0074 6.02966 32.0082 6.06702C32.009 6.10438 31.8627 6.25693 31.6401 6.33632C31.233 6.53166 30.9403 6.83676 30.9442 7.02357C30.9465 7.13565 30.9465 7.13565 30.7963 7.1014C30.7582 7.06481 30.7208 7.06559 30.6834 7.06637C30.4966 7.07025 30.2756 7.22435 30.204 7.37535C30.0958 7.56448 29.4676 7.91394 29.2435 7.9186C29.2061 7.91937 29.2427 7.88124 29.3166 7.84232C29.3906 7.80341 29.3898 7.76605 29.3128 7.65552C29.1983 7.54577 29.1983 7.54577 29.3112 7.5808C29.5354 7.57614 29.7946 7.45862 29.8646 7.2329C29.937 7.11926 30.0102 7.04299 30.0475 7.04221C30.2343 7.03833 31.0034 6.2748 31.0003 6.12536C30.9987 6.05064 31.0727 6.01172 31.1847 6.00939C31.2968 6.00706 31.37 5.93079 31.4416 5.77979C31.4766 5.66693 31.5856 5.51516 31.6969 5.47547C31.9553 5.32059 32.652 4.6707 32.6131 4.59675C32.5757 4.59753 32.6489 4.52126 32.7594 4.4442C32.9073 4.36637 32.9804 4.2901 32.9789 4.21538C32.9781 4.17802 33.0147 4.13988 33.0894 4.13833C33.1641 4.13677 33.2373 4.0605 33.2731 3.985C33.3081 3.87214 33.3813 3.79587 33.4187 3.79509C33.5308 3.79276 34.2617 2.99265 34.2593 2.88057C34.2585 2.84321 34.3309 2.72957 34.4422 2.68988C34.5528 2.61283 34.5886 2.53733 34.587 2.46261C34.5481 2.38866 34.5839 2.31317 34.6579 2.27425C34.6944 2.23611 34.731 2.19798 34.7295 2.12326C34.7279 2.04854 34.8003 1.9349 34.8361 1.8594C34.9824 1.70685 34.9404 1.48346 34.7147 1.41341C34.6392 1.3776 34.5629 1.30443 34.5248 1.26785C34.4859 1.1939 34.2975 1.12307 34.0734 1.12773C33.7745 1.13394 33.4032 1.25379 33.2942 1.40557C33.2576 1.4437 33.1837 1.48262 33.109 1.48417C32.9977 1.52386 32.9611 1.562 33.0023 1.74803C33.0047 1.86011 33.0062 1.93483 32.9315 1.93638C32.8941 1.93716 32.8186 1.90135 32.7439 1.90291C32.4824 1.90835 32.445 1.90912 32.1493 2.06478C31.9656 2.21811 31.7803 2.29671 31.743 2.29749C31.6682 2.29904 31.6324 2.37454 31.6332 2.4119C31.6348 2.48662 31.5982 2.52476 31.4861 2.52709C31.374 2.52942 31.2627 2.56911 31.2269 2.64461C31.2277 2.68197 31.0058 2.79871 30.8214 2.91468C30.5988 2.99406 30.4516 3.10925 30.4524 3.14661C30.4532 3.18397 30.3785 3.18553 30.3411 3.1863C30.2664 3.18786 30.2306 3.26336 30.2337 3.4128C30.236 3.52488 30.2376 3.5996 30.1629 3.60116C30.1255 3.60193 30.0874 3.56535 30.0126 3.5669C29.7503 3.53498 29.3433 3.73033 29.1611 3.95838C29.1253 4.03387 29.0148 4.11093 28.9774 4.1117C28.9027 4.11326 28.7914 4.15295 28.7182 4.22922C28.6451 4.3055 28.4606 4.42146 28.3485 4.42379C28.2372 4.46349 28.1633 4.5024 28.164 4.53976C28.1648 4.57712 28.0543 4.65417 27.943 4.69386C27.8317 4.73356 27.7212 4.81061 27.7219 4.84797C27.7227 4.88533 27.6488 4.92424 27.5375 4.96393C27.3888 5.0044 26.9825 5.23711 26.8727 5.35152C26.8735 5.38889 26.6517 5.50563 26.4672 5.62159C26.2454 5.73834 26.0243 5.89244 25.9504 5.93136C25.9138 5.96949 25.7659 6.04732 25.692 6.08624C25.5799 6.08857 25.5441 6.16406 25.5448 6.20143C25.5456 6.23879 25.4717 6.2777 25.4343 6.27848C25.3596 6.28003 25.3222 6.28081 25.323 6.31817C25.3246 6.39289 25.1767 6.47072 25.0288 6.54855C24.8801 6.58901 24.7338 6.74156 24.7346 6.77893C24.6995 6.89178 24.6256 6.9307 24.5135 6.93303C24.4388 6.93458 24.2909 7.01241 24.1804 7.08946C24.1072 7.16574 23.9967 7.24279 23.9593 7.24357C23.922 7.24434 23.7741 7.32217 23.627 7.43736C23.4791 7.51519 23.4425 7.55333 23.5156 7.47705C23.5888 7.40078 23.6604 7.24978 23.6955 7.13692C23.6916 6.95012 23.7282 6.91198 23.9523 6.90732C24.1018 6.90421 24.2497 6.82639 24.2855 6.75089C24.3213 6.67539 24.3937 6.56175 24.4676 6.52284C24.5408 6.44656 24.6505 6.33215 24.7603 6.21774C25.0553 6.02472 25.2748 5.7959 25.5309 5.52893C25.8243 5.2612 26.0812 5.03159 26.1185 5.03082C26.1559 5.03004 26.2656 4.91563 26.3754 4.80122C26.4859 4.72416 26.6681 4.49612 26.7778 4.3817C26.9249 4.26651 27.0713 4.11396 27.1444 4.03769C27.2176 3.96141 27.3273 3.847 27.4005 3.77073C27.4737 3.69445 27.4729 3.65709 27.3966 3.58392C27.3196 3.4734 27.3196 3.4734 27.4698 3.50765C27.5072 3.50687 27.5072 3.50687 27.5445 3.5061C27.8434 3.49988 28.1314 2.97062 27.9041 2.82584C27.7524 2.71686 27.7516 2.6795 27.8606 2.52773C27.8956 2.41487 27.9306 2.30201 27.9298 2.26465C27.8147 2.11754 27.4769 2.04981 27.2153 2.05525C27.0659 2.05836 26.9546 2.09805 26.9561 2.17277C26.9569 2.21013 26.9203 2.24827 26.883 2.24904C26.6962 2.25293 25.4773 2.95105 25.257 3.14252C25.1472 3.25693 24.9993 3.33476 24.962 3.33554C24.8491 3.30051 24.8125 3.33864 24.8141 3.41337C24.8156 3.48809 24.7791 3.52623 24.7417 3.527C24.5923 3.53011 24.0381 3.84065 24.0396 3.91537C24.0404 3.95273 24.0038 3.99087 23.9291 3.99242C23.8544 3.99397 23.7431 4.03366 23.6699 4.10994C23.5236 4.26249 22.9336 4.64853 22.8588 4.65008C22.8588 4.65008 22.7109 4.72791 22.6012 4.84232C22.4541 4.95751 22.3436 5.03456 22.3062 5.03534C22.2315 5.03689 21.7894 5.3451 21.7909 5.41982C21.7543 5.45796 21.717 5.45874 21.6423 5.46029C21.6049 5.46107 21.5309 5.49998 21.5317 5.53734C21.5325 5.5747 21.422 5.65175 21.3107 5.69144C21.162 5.73191 21.0515 5.80896 21.0523 5.84632C21.053 5.88369 21.0164 5.92182 20.9417 5.92338C20.9044 5.92415 20.7938 6.00121 20.7207 6.07748C20.6101 6.15453 20.4996 6.23158 20.4249 6.23314C20.3502 6.23469 20.386 6.15919 20.5339 6.08137C20.6444 6.00431 20.7541 5.8899 20.7534 5.85254C20.7526 5.81518 20.8631 5.73813 20.9736 5.66108C21.1215 5.58325 21.3052 5.42992 21.415 5.31551C21.5247 5.2011 21.6353 5.12404 21.6726 5.12327C21.71 5.12249 21.7831 5.04622 21.7824 5.00885C21.8182 4.93336 21.8921 4.89444 21.9661 4.85553C22.04 4.81661 22.114 4.7777 22.1124 4.70298C22.1108 4.62826 22.1474 4.59012 22.2222 4.58857C22.2969 4.58701 22.3335 4.54887 22.2945 4.47493C22.2556 4.40099 22.2922 4.36285 22.3669 4.36129C22.4417 4.35974 22.6261 4.24377 22.7725 4.09123C22.918 3.90131 23.1757 3.70907 23.2862 3.63202C23.5072 3.47792 23.6154 3.28878 23.5384 3.17826C23.5376 3.1409 23.575 3.14012 23.6497 3.13857C23.7244 3.13701 23.8715 3.02182 23.9447 2.94555C24.1268 2.7175 24.1183 2.30653 23.9688 2.30964C23.8941 2.31119 23.856 2.27461 23.8537 2.16253C23.849 1.93837 23.5455 1.72042 23.4349 1.79747C23.3983 1.83561 23.3625 1.9111 23.3649 2.02319C23.3672 2.13527 23.368 2.17263 23.3306 2.17341C23.2933 2.17418 23.2551 2.1376 23.217 2.10102C23.1407 2.02785 23.0652 1.99204 22.9531 1.99437C22.8784 1.99592 22.7679 2.07298 22.7694 2.1477C22.7702 2.18506 22.7336 2.2232 22.6589 2.22475C22.6215 2.22553 22.4736 2.30336 22.3265 2.41854C22.2176 2.57032 22.0697 2.64815 21.995 2.6497C21.9202 2.65125 21.8463 2.69017 21.8471 2.72753C21.8478 2.76489 21.7373 2.84194 21.5894 2.91977C21.4415 2.9976 21.3684 3.07387 21.3707 3.18596C21.3723 3.26068 21.2983 3.29959 21.2236 3.30114C21.1489 3.3027 21.0383 3.37975 21.0018 3.41789C20.9659 3.49339 20.8181 3.57121 20.6686 3.57432C20.4086 3.65448 20.0778 3.923 20.0802 4.03508C20.0809 4.07244 19.9331 4.15027 19.7844 4.19074C19.5984 4.23198 19.4878 4.30903 19.4886 4.34639C19.4894 4.38375 19.4155 4.42267 19.3041 4.46236C19.1928 4.50205 18.971 4.61879 18.8239 4.73398C18.6768 4.84917 18.5297 4.96436 18.455 4.96592C18.4176 4.96669 18.3436 5.00561 18.3452 5.08033C18.3086 5.11847 18.2728 5.19396 18.2354 5.19474C18.0113 5.1994 17.1652 5.8524 17.1683 6.00184C17.1691 6.0392 17.0578 6.07889 16.9457 6.08123C16.8336 6.08356 16.7223 6.12325 16.7231 6.16061C16.7239 6.19797 16.6873 6.23611 16.6126 6.23766C16.5752 6.23844 16.5013 6.27735 16.4654 6.35285C16.4662 6.39021 16.3931 6.46648 16.3183 6.46804C16.2436 6.46959 16.1697 6.50851 16.1339 6.584C16.1362 6.69609 16.0623 6.735 15.9502 6.73733C15.8381 6.73966 15.6536 6.85563 15.5439 6.97004C15.3968 7.08523 15.2123 7.2012 15.1749 7.20197C15.1002 7.20353 15.0263 7.24244 15.027 7.2798C15.0286 7.35452 14.9928 7.43002 14.9181 7.43157C14.8441 7.47049 14.8068 7.47127 14.806 7.43391C14.8044 7.35918 15.0971 7.05408 15.1718 7.05253C15.2092 7.05175 15.245 6.97626 15.2426 6.86417C15.2403 6.75209 15.2761 6.67659 15.3508 6.67504C15.5376 6.67116 15.9416 6.32636 15.9385 6.17692C15.9354 6.02748 16.2631 5.60952 16.3752 5.60719C16.5246 5.60408 16.7457 5.44998 17.2213 4.95419C17.4774 4.68723 17.844 4.34322 18.0284 4.22725C18.2121 4.07392 18.3211 3.92215 18.3203 3.88479C18.2822 3.84821 18.3188 3.81007 18.3927 3.77115C18.504 3.73146 18.5406 3.69333 18.5391 3.6186C18.5383 3.58124 18.648 3.46683 18.722 3.42792C18.8333 3.38823 18.9065 3.31195 18.9049 3.23723C18.9041 3.19987 18.9407 3.16173 18.9781 3.16096C19.0154 3.16018 19.1625 3.04499 19.2715 2.89322C19.4179 2.74067 19.5626 2.5134 19.6732 2.43634C19.7455 2.32271 19.8179 2.20907 19.8172 2.17171C19.8164 2.13435 19.8514 2.02149 19.9246 1.94522C19.9962 1.79422 19.9145 1.45953 19.8024 1.46186C19.8024 1.46186 19.7643 1.42528 19.7619 1.3132C19.758 1.12639 19.5697 1.05556 19.3082 1.06099C18.8972 1.06954 18.3407 1.268 17.9741 1.61201C17.9009 1.68829 17.6059 1.8813 17.3475 2.03618C17.0883 2.1537 16.7559 2.3475 16.6828 2.42377C16.573 2.53819 16.3885 2.65415 16.3146 2.69307C16.2406 2.73198 16.1683 2.84562 16.1698 2.92034C16.1721 3.03242 16.1356 3.07056 16.0227 3.03553C15.8351 3.00205 15.4288 3.23476 15.3588 3.46048C15.3611 3.57256 15.2871 3.61147 15.1011 3.65272C14.877 3.65738 14.7656 3.69707 14.768 3.80915C14.7345 3.99673 14.6629 4.14773 14.5508 4.15006C14.5508 4.15006 14.5134 4.15084 14.4753 4.11425C14.4745 4.07689 14.4372 4.07767 14.3998 4.07845C14.3251 4.08 14.178 4.19519 13.9943 4.34852C13.8845 4.46293 13.7366 4.54076 13.6993 4.54153C13.6619 4.54231 13.5888 4.61859 13.5895 4.65595C13.5537 4.73144 13.4432 4.8085 13.3319 4.84819C13.1466 4.92679 13.1101 4.96493 13.1497 5.07623C13.1894 5.18754 13.1902 5.2249 13.1155 5.22645C13.1155 5.22645 13.0774 5.18987 13.0026 5.19142C12.8532 5.19453 12.8532 5.19453 12.7434 5.30894C12.6345 5.46072 11.8966 5.92458 11.895 5.84986C11.8943 5.8125 11.9674 5.73622 12.0406 5.65995C12.1511 5.5829 12.1496 5.50818 12.1465 5.35874C12.106 5.21007 12.1052 5.17271 12.2181 5.20774C12.3309 5.24277 12.4788 5.16494 12.7341 4.86062C12.917 4.66993 13.2821 4.25119 13.5748 3.9461C13.8301 3.64177 14.0854 3.33745 14.0846 3.30009C14.0838 3.26273 14.2294 3.07282 14.3757 2.92027C14.5586 2.72958 14.7042 2.53967 14.7026 2.46495C14.7019 2.42759 14.7743 2.31395 14.8482 2.27504C14.9587 2.19799 14.9953 2.15985 14.958 2.16063C14.9206 2.1614 14.9564 2.08591 14.993 2.04777C15.0662 1.97149 15.0646 1.89677 14.9891 1.86096C14.951 1.82438 14.9479 1.67494 14.9455 1.56286C14.9798 1.41264 14.9401 1.30133 14.8257 1.19158C14.6731 1.04525 14.4474 0.975188 14.3353 0.977518C14.298 0.978295 14.2606 0.979072 14.2614 1.01643C14.2622 1.05379 14.1509 1.09348 14.0022 1.13395C13.8909 1.17364 13.7438 1.28883 13.708 1.36433C13.6729 1.47719 13.599 1.5161 13.4869 1.51843C13.3375 1.52154 13.3375 1.52154 12.6424 2.24615C12.3863 2.51312 12.1287 2.70536 12.0913 2.70613C12.0539 2.70691 11.9808 2.78319 11.9076 2.85946C11.8718 2.93496 11.7986 3.01123 11.7239 3.01279C11.6492 3.01434 11.4289 3.20581 11.2086 3.39727C10.6591 3.93197 10.6225 3.97011 10.3283 4.20049C10.1812 4.31568 10.0722 4.46745 10.1103 4.50403C10.1103 4.50403 10.0745 4.57953 10.0006 4.61845C9.8885 4.62078 9.70481 4.7741 9.55847 4.92665C9.41292 5.11656 9.2658 5.23175 9.22844 5.23253C9.19108 5.23331 9.11792 5.30958 9.12025 5.42166C9.08444 5.49716 9.04863 5.57266 9.01127 5.57344C8.82447 5.57732 8.71316 5.61701 8.71627 5.76645C8.68124 5.87931 8.60807 5.95559 8.45941 5.99606C8.31152 6.07388 8.16363 6.15171 8.12782 6.22721C8.12938 6.30193 8.05699 6.41557 7.98227 6.41712C7.90832 6.45604 7.87252 6.53153 7.91143 6.60548C7.91298 6.6802 7.87562 6.68098 7.76354 6.68331C7.65146 6.68564 7.46699 6.8016 7.32143 6.99151C7.1751 7.14406 6.9914 7.29739 6.91746 7.33631C6.76957 7.41413 6.77034 7.45149 6.88476 7.56125C6.99917 7.671 6.99917 7.671 6.84817 7.59938C6.81004 7.5628 6.73531 7.56435 6.69795 7.56513C6.51115 7.56901 6.36326 7.64684 6.36559 7.75893C6.36637 7.79629 6.18345 7.98697 5.96317 8.17844C5.74212 8.33254 5.52184 8.524 5.52261 8.56137C5.52339 8.59873 5.48681 8.63686 5.44945 8.63764C5.41209 8.63842 5.33814 8.67733 5.30156 8.71547C5.22761 8.75438 5.11786 8.8688 5.04392 8.90771C4.97075 8.98398 4.861 9.0984 4.78706 9.13731C4.67731 9.25172 4.67731 9.25172 4.71078 9.06414C4.78084 8.83843 4.96376 8.64774 5.1132 8.64463C5.15056 8.64386 5.29767 8.52867 5.40743 8.41425C5.47904 8.26326 5.62537 8.11071 5.73512 7.9963C5.80829 7.92002 5.88068 7.80639 5.87991 7.76902C5.87913 7.73166 5.9523 7.65539 6.02624 7.61647C6.13677 7.53942 6.13521 7.4647 6.13366 7.38998C6.09397 7.27868 6.13055 7.24054 6.27844 7.16271C6.61158 7.00628 6.72055 6.8545 6.67853 6.63112C6.63729 6.44509 6.63729 6.44509 6.75015 6.48012C6.90036 6.51437 7.26698 6.17036 7.1907 6.09719C7.11443 6.02402 7.33315 5.75784 7.4826 5.75473C7.51996 5.75395 7.55654 5.71582 7.55576 5.67846C7.55421 5.60373 7.62738 5.52746 7.7021 5.52591C7.77604 5.48699 7.88579 5.37258 7.95741 5.22158C8.02902 5.07059 8.10141 4.95695 8.13877 4.95617C8.25085 4.95384 8.61436 4.46039 8.57545 4.38644C8.57389 4.31172 8.6097 4.23622 8.79572 4.19498C9.01833 4.1156 9.05259 3.96538 8.93507 3.70618C8.85801 3.59566 8.8946 3.55752 9.00901 3.66727C9.08451 3.70308 9.12187 3.7023 9.15923 3.70152C9.19659 3.70075 9.23395 3.69997 9.27053 3.66183C9.30712 3.62369 9.41687 3.50928 9.5274 3.43223C9.63715 3.31782 9.67296 3.24232 9.63326 3.13101C9.59435 3.05707 9.63093 3.01893 9.70565 3.01738C10.0419 3.01039 10.1158 2.97147 10.368 2.51771C10.6576 2.06317 10.7269 1.80009 10.5401 1.80397C10.5027 1.80475 10.4265 1.73158 10.4249 1.65686C10.4226 1.54478 10.3471 1.50897 10.2723 1.51053C10.1603 1.51286 10.0848 1.47705 10.0093 1.44124C9.97113 1.40466 9.93377 1.40544 9.89641 1.40621C9.78433 1.40854 9.63644 1.48637 9.63877 1.59845C9.63955 1.63581 9.60297 1.67395 9.5656 1.67473C9.45352 1.67706 9.08613 1.98371 9.12505 2.05766C9.12582 2.09502 9.01607 2.20943 8.86974 2.36198C8.72263 2.47717 8.57629 2.62972 8.57707 2.66708C8.57785 2.70444 8.39493 2.89513 8.21279 3.12318C7.99251 3.31464 7.81036 3.54269 7.81114 3.58005C7.81347 3.69213 7.19155 4.34047 7.07947 4.3428C7.04211 4.34358 7.04288 4.38094 7.04444 4.45566C7.08335 4.5296 7.04677 4.56774 6.93624 4.64479C6.82494 4.68448 6.75177 4.76076 6.75488 4.9102C6.72062 5.06042 6.68404 5.09856 6.57273 5.13825C6.42329 5.14135 6.38671 5.17949 6.42795 5.36552C6.43262 5.58968 6.43262 5.58968 6.24659 5.63093C6.09715 5.63403 5.98662 5.71109 5.91423 5.82472C5.73131 6.01541 5.58575 6.20532 5.47833 6.43181C5.44253 6.50731 5.33277 6.62172 5.22147 6.66141C5.1483 6.73769 5.07436 6.7766 5.07591 6.85132C5.07669 6.88869 4.96771 7.04046 4.82138 7.19301C4.67504 7.34556 4.56529 7.45997 4.56607 7.49733C4.56685 7.53469 4.49446 7.64833 4.38548 7.8001C4.23837 7.91529 4.13017 8.10442 4.1325 8.2165C4.09825 8.36672 4.02508 8.443 3.95036 8.44455C3.87564 8.44611 3.69272 8.63679 3.51058 8.86484C3.3658 9.09211 3.18366 9.32016 3.11049 9.39644C3.07391 9.43457 3.03888 9.54743 3.07702 9.58402C3.07779 9.62138 3.04199 9.69687 2.96726 9.69843C2.89332 9.73734 2.82015 9.81362 2.82093 9.85098C2.82248 9.9257 2.74932 10.002 2.63879 10.079C2.56562 10.1553 2.45509 10.2324 2.45665 10.3071C2.45742 10.3444 2.42239 10.4573 2.31187 10.5343C2.2387 10.6106 2.20367 10.7235 2.20522 10.7982C2.24414 10.8721 2.20755 10.9103 2.09547 10.9126C1.98339 10.9149 1.83939 11.1796 1.84327 11.3664C1.84405 11.4037 1.73507 11.5555 1.58874 11.7081C1.33265 11.975 1.26337 12.2381 1.45017 12.2342C1.59961 12.2311 1.60195 12.3432 1.49064 12.3829C1.19409 12.5012 1.79885 12.825 2.17168 12.7799C2.54451 12.7347 2.58031 12.6592 2.57565 12.4351C2.57254 12.2856 2.60835 12.2101 2.68307 12.2086C2.68307 12.2086 2.72121 12.2452 2.75935 12.2817C2.79748 12.3183 2.83562 12.3549 2.87298 12.3541C2.9477 12.3526 3.09481 12.2374 3.35168 12.0078C3.5346 11.8171 3.79224 11.6249 3.90276 11.5478C3.97671 11.5089 4.08724 11.4318 4.08568 11.3571C4.08413 11.2824 4.12071 11.2443 4.15807 11.2435C4.23279 11.2419 4.3799 11.1267 4.52624 10.9742C4.67335 10.859 4.85782 10.743 4.89518 10.7423C4.96991 10.7407 5.00571 10.6652 5.00494 10.6279C5.00338 10.5531 5.03996 10.515 5.07733 10.5142C5.15205 10.5127 5.37233 10.3212 5.62841 10.0542C5.88527 9.82463 6.10555 9.63317 6.14291 9.63239C6.18027 9.63161 6.32661 9.47907 6.43558 9.32729C6.58114 9.13738 6.76484 8.98405 6.80142 8.94592C7.06139 8.86576 7.97754 7.98704 7.90126 7.91388C7.74871 7.76754 7.82266 7.72863 8.08418 7.72319C8.30834 7.71853 8.3457 7.71775 8.34337 7.60567C8.34182 7.53095 8.6734 7.29979 8.78548 7.29746C8.86021 7.29591 8.78859 7.4469 8.56909 7.67573C8.45934 7.79014 8.35037 7.94191 8.35114 7.97927C8.35192 8.01663 8.31534 8.05477 8.24061 8.05633C8.12853 8.05866 7.54475 8.74358 7.58444 8.85488C7.62258 8.89147 7.58599 8.9296 7.51127 8.93116C7.39919 8.93349 7.06916 9.23936 7.07071 9.31408C7.07149 9.35145 6.96174 9.46586 6.85199 9.58027C6.74224 9.69468 6.63249 9.8091 6.6714 9.88304C6.70954 9.91962 6.67295 9.95776 6.59823 9.95931C6.48615 9.96165 5.9374 10.5337 5.9405 10.6831C5.94128 10.7205 5.90547 10.796 5.83075 10.7976C5.41979 10.8061 4.76905 11.8662 4.96362 12.2359C5.04145 12.3838 5.11772 12.457 5.11695 12.4196C5.11617 12.3822 5.15353 12.3815 5.19167 12.4181C5.26794 12.4912 5.38002 12.4889 5.52947 12.4858C5.71627 12.4819 5.9023 12.4407 6.01205 12.3262C6.08444 12.2126 6.19497 12.1356 6.23233 12.1348C6.26969 12.134 6.34285 12.0577 6.3413 11.983C6.37711 11.9075 6.48686 11.7931 6.59816 11.7534C6.74683 11.7129 6.85658 11.5985 6.85425 11.4864C6.88928 11.3736 6.96322 11.3347 7.0753 11.3323C7.18739 11.33 7.26133 11.2911 7.26055 11.2537C7.26055 11.2537 7.33372 11.1775 7.40689 11.1012C7.51819 11.0615 7.59058 10.9479 7.58981 10.9105C7.58903 10.8731 7.66297 10.8342 7.70033 10.8334C7.77506 10.8319 7.84822 10.7556 7.84667 10.6809C7.88248 10.6054 7.95487 10.4918 8.06617 10.4521C8.17748 10.4124 8.25064 10.3361 8.24987 10.2987C8.24909 10.2614 8.28567 10.2232 8.36039 10.2217C8.58456 10.217 8.84064 9.95006 8.76359 9.83953C8.7239 9.72823 8.76048 9.69009 8.83598 9.7259C8.98698 9.79751 9.42909 9.4893 9.42598 9.33986C9.42521 9.3025 9.49915 9.26359 9.57387 9.26203C9.64859 9.26048 9.72176 9.1842 9.79493 9.10793C9.83073 9.03243 9.9039 8.95616 9.97862 8.9546C10.016 8.95383 10.0899 8.91491 10.1257 8.83941C10.125 8.80205 10.1989 8.76314 10.2363 8.76236C10.3483 8.76003 10.936 8.26191 10.8971 8.18797C10.8597 8.18875 10.8963 8.15061 10.971 8.14905C11.1578 8.14517 11.4147 7.91557 11.5221 7.68907C11.5579 7.61358 11.8156 7.42134 12.074 7.26645C12.3324 7.11157 12.7006 6.84228 12.8843 6.68895C13.1046 6.49749 13.3256 6.34339 13.4003 6.34183C13.4743 6.30292 13.5474 6.22664 13.5467 6.18928C13.5459 6.15192 13.6564 6.07487 13.7677 6.03518C13.8782 5.95813 13.988 5.84372 13.9864 5.76899C14.0223 5.6935 14.0954 5.61722 14.2075 5.61489C14.3196 5.61256 14.4675 5.53473 14.5772 5.42032C14.687 5.30591 14.8341 5.19072 14.8714 5.18994C14.9088 5.18916 15.0567 5.11133 15.1291 4.9977C15.2388 4.88329 15.3494 4.80623 15.3867 4.80546C15.4241 4.80468 15.4614 4.8039 15.4607 4.76654C15.4599 4.72918 15.5331 4.65291 15.6078 4.65135C15.7191 4.61166 15.7557 4.57353 15.7175 4.53694C15.716 4.46222 15.7533 4.46144 15.8281 4.45989C15.9028 4.45834 15.9767 4.41942 15.9759 4.38206C15.9752 4.3447 16.0118 4.30656 16.0865 4.30501C16.1986 4.30268 16.1986 4.30268 16.0888 4.41709C16.0156 4.49337 15.7961 4.72219 15.6132 4.91288C15.4311 5.14093 15.2116 5.36975 15.101 5.4468C14.9905 5.52385 14.6239 5.86787 14.2573 6.21188C13.928 6.55512 13.5614 6.89913 13.4883 6.97541C13.3777 7.05246 13.3053 7.1661 13.3061 7.20346C13.3077 7.27818 13.2711 7.31632 13.2337 7.31709C13.1216 7.31942 12.4258 8.00667 12.4289 8.15612C12.4304 8.23084 12.3939 8.26897 12.3191 8.27053C12.1323 8.27441 10.4098 9.91743 10.4137 10.1042C10.4144 10.1416 10.3413 10.2179 10.2681 10.2941C9.97545 10.5992 9.87113 10.9752 10.0953 10.9705C10.1327 10.9697 10.2089 11.0429 10.2486 11.1542C10.3257 11.2647 10.4019 11.3379 10.4767 11.3364C10.514 11.3356 10.5506 11.2974 10.5872 11.2593C10.6238 11.2212 10.6985 11.2196 10.8106 11.2173C10.8479 11.2165 10.8853 11.2157 10.9227 11.215C10.96 11.2142 11.0347 11.2126 11.0721 11.2118C11.1842 11.2095 11.2589 11.208 11.2955 11.1698C11.3687 11.0935 11.4418 11.0173 11.5539 11.0149C11.6279 10.976 11.775 10.8608 11.8847 10.7464C12.0311 10.5939 12.2155 10.4779 12.2902 10.4764C12.4016 10.4367 12.4755 10.3978 12.4747 10.3604C12.4739 10.323 12.5845 10.246 12.6958 10.2063C12.8071 10.1666 12.9176 10.0895 12.9168 10.0522C12.9161 10.0148 12.9526 9.97669 12.99 9.97591C13.0274 9.97513 13.1752 9.8973 13.2858 9.82025C13.4337 9.74242 13.5808 9.62723 13.6181 9.62646C13.6929 9.6249 13.766 9.54863 13.8026 9.51049C13.8758 9.43421 13.9124 9.39608 13.9497 9.3953C13.9871 9.39452 14.0976 9.31747 14.2081 9.24042C14.2813 9.16414 14.4292 9.08632 14.5039 9.08476C14.5413 9.08399 14.6518 9.00693 14.7242 8.8933C14.7974 8.81702 14.9071 8.70261 14.9818 8.70106C15.0939 8.69873 15.1313 8.69795 15.0916 8.58664C15.0519 8.47534 15.0885 8.4372 15.1258 8.43643C15.1632 8.43565 15.2013 8.47223 15.2761 8.47068C15.3881 8.46835 15.4629 8.46679 15.536 8.39052C15.6092 8.31424 15.6831 8.27533 15.7579 8.27378C15.7952 8.273 15.905 8.15859 15.9392 8.00837C16.0108 7.85737 16.0474 7.81923 16.1595 7.8169C16.1595 7.8169 16.2342 7.81535 16.2716 7.81457C16.3837 7.81224 16.4584 7.81069 16.4576 7.77333C16.4568 7.73597 16.53 7.65969 16.6421 7.65736C16.716 7.61845 16.7526 7.58031 16.7511 7.50559C16.7114 7.39428 16.7487 7.39351 16.9355 7.38962C17.1223 7.38574 17.1963 7.34682 17.1947 7.2721C17.1932 7.19738 17.2671 7.15847 17.3418 7.15691C17.4539 7.15458 17.4539 7.15458 17.3823 7.30558C17.3465 7.38108 17.2733 7.45735 17.236 7.45813C17.1986 7.45891 17.0881 7.53596 17.0149 7.61223C16.7222 7.91733 16.5385 8.07066 16.3907 8.14849C16.3159 8.15004 16.2435 8.26368 16.2085 8.37654C16.1727 8.45203 16.1003 8.56567 16.0256 8.56722C15.8762 8.57033 15.6925 8.72366 15.6948 8.83574C15.6956 8.8731 15.659 8.91124 15.5843 8.91279C15.5469 8.91357 15.4737 8.98984 15.4379 9.06534C15.4021 9.14084 15.255 9.25603 15.1071 9.33386C14.9592 9.41168 14.8121 9.52687 14.7771 9.63973C14.7413 9.71523 14.6308 9.79228 14.556 9.79384C14.4813 9.79539 14.4447 9.83353 14.4455 9.87089C14.4463 9.90825 14.3739 10.0219 14.2634 10.0989C14.191 10.2126 14.1178 10.2888 14.1186 10.3262C14.1194 10.3636 14.0462 10.4398 13.973 10.5161C13.8617 10.5558 13.8267 10.6687 13.8275 10.706C13.8656 10.7426 13.8306 10.8555 13.7948 10.931C13.7239 11.1193 13.8415 11.3785 14.029 11.412C14.3287 11.4431 14.5155 11.4393 14.6276 11.4369C14.777 11.4338 14.8144 11.433 14.8875 11.3568C14.9615 11.3179 15.072 11.2408 15.146 11.2019C15.2207 11.2003 15.367 11.0478 15.4768 10.9334C15.5865 10.819 15.7336 10.7038 15.8084 10.7022C15.8831 10.7007 15.9936 10.6236 16.0668 10.5473C16.1392 10.4337 16.2871 10.3559 16.3984 10.3162C16.547 10.2757 16.6949 10.1979 16.7681 10.1216C16.8412 10.0453 16.9518 9.96828 16.9891 9.9675C17.1012 9.96517 17.3947 9.69743 17.3931 9.62271C17.3923 9.58535 17.4663 9.54644 17.541 9.54488C17.6531 9.54255 17.8002 9.42736 17.8734 9.35109C17.9831 9.23668 18.0936 9.15962 18.131 9.15885C18.1684 9.15807 18.2797 9.11838 18.3155 9.04288C18.3894 9.00397 18.6105 8.84986 18.8689 8.69498C19.0907 8.57824 19.3118 8.42413 19.311 8.38677C19.3102 8.34941 19.3476 8.34864 19.4223 8.34708C19.4597 8.34631 19.5328 8.27003 19.5313 8.19531C19.5289 8.08323 19.5663 8.08245 19.6784 8.08012C19.7157 8.07934 19.7531 8.07857 19.7905 8.07779C19.8652 8.07624 19.9018 8.0381 19.9376 7.9626C20.0092 7.8116 20.0466 7.81083 20.196 7.80772C20.2707 7.80617 20.4186 7.72834 20.5657 7.61315C20.7121 7.4606 20.8599 7.38277 20.8973 7.38199C20.972 7.38044 21.0452 7.30416 21.0444 7.2668C21.0802 7.19131 21.1542 7.15239 21.2289 7.15084C21.3036 7.14928 21.4515 7.07146 21.5612 6.95704C21.671 6.84263 21.8928 6.72589 22.0407 6.64806C22.226 6.56945 22.3731 6.45426 22.3715 6.37954C22.37 6.30482 22.4066 6.26668 22.4821 6.30249C22.5949 6.33752 22.7054 6.26047 22.8152 6.14606C22.9249 6.03164 23.0728 5.95382 23.1476 5.95226C23.1849 5.95148 23.2231 5.98807 23.2238 6.02543C23.2246 6.06279 22.5287 6.75004 22.0882 7.13297C21.8671 7.28707 21.8313 7.36257 21.9068 7.39838C21.9457 7.47232 21.9465 7.50968 21.8344 7.51201C21.7223 7.51434 21.611 7.55403 21.5379 7.63031C21.4647 7.70659 21.2444 7.89805 21.0973 8.01324C20.9136 8.16657 20.6568 8.39617 20.547 8.51058C20.4754 8.66158 20.3275 8.7394 20.2901 8.74018C20.2154 8.74173 20.1796 8.81723 20.1804 8.85459C20.1819 8.92931 20.1088 9.00559 19.9975 9.04528C19.9235 9.0842 19.7398 9.23752 19.6309 9.38929C19.5211 9.50371 19.4114 9.61812 19.3366 9.61967C19.2993 9.62045 19.2635 9.69595 19.2642 9.73331C19.2658 9.80803 19.2292 9.84617 19.1545 9.84772C19.0798 9.84928 19.0066 9.92555 18.9708 10.001C18.935 10.0765 18.8618 10.1528 18.8245 10.1536C18.5256 10.1598 17.9457 11.0315 18.1729 11.1763C18.2858 11.2113 18.2866 11.2487 18.2134 11.325C18.1044 11.4768 18.1823 11.6246 18.2944 11.6223C18.3317 11.6215 18.3317 11.6215 18.3691 11.6208C18.443 11.5818 18.517 11.5429 18.517 11.5429C18.5543 11.5422 18.5551 11.5795 18.594 11.6535C18.6337 11.7648 18.7092 11.8006 18.8586 11.7975C18.9334 11.7959 19.0454 11.7936 19.156 11.7165C19.2665 11.6395 19.451 11.5235 19.5623 11.4838C19.7102 11.406 19.8207 11.3289 19.8191 11.2542C19.855 11.1787 19.9297 11.1772 19.967 11.1764C20.0052 11.213 20.1157 11.1359 20.1889 11.0596C20.262 10.9834 20.3352 10.9071 20.3726 10.9063C20.4099 10.9055 20.5578 10.8277 20.7049 10.7125C20.8154 10.6355 20.9633 10.5576 21.0007 10.5569C21.0381 10.5561 21.1112 10.4798 21.147 10.4043C21.2202 10.328 21.2934 10.2518 21.3307 10.251C21.4428 10.2487 21.9231 9.97703 21.9223 9.93967C21.9215 9.90231 21.9581 9.86418 22.0328 9.86262C22.1075 9.86107 22.2181 9.78402 22.3278 9.6696C22.401 9.59333 22.5489 9.5155 22.5862 9.51472C22.6609 9.51317 22.6968 9.43767 22.6952 9.36295C22.6929 9.25087 22.7668 9.21195 22.8415 9.2104C22.9163 9.20885 23.0649 9.16838 23.1389 9.12946C23.1755 9.09133 23.3973 8.97458 23.5825 8.89598C23.767 8.78001 23.9515 8.66405 23.9881 8.62591C23.9873 8.58855 24.0605 8.51227 24.0978 8.5115C24.1725 8.50994 24.2099 8.50917 24.2091 8.4718C24.2076 8.39708 24.2449 8.39631 24.3196 8.39475C24.5438 8.39009 24.9112 8.08344 24.8715 7.97213C24.8326 7.89819 24.8318 7.86083 24.9073 7.89664C25.0194 7.8943 25.4288 7.81104 25.4257 7.6616C25.4241 7.58687 25.4981 7.54796 25.6102 7.54563C25.6849 7.54408 25.7596 7.54252 25.7588 7.50516C25.7581 7.4678 25.8686 7.39075 26.0173 7.35028C26.1286 7.31059 26.313 7.19462 26.3862 7.11835C26.4594 7.04207 26.5699 6.96502 26.6446 6.96347C26.7193 6.96191 26.7559 6.92378 26.7551 6.88642C26.7544 6.84905 26.9023 6.77123 27.0501 6.6934C27.198 6.61557 27.3459 6.53774 27.3451 6.50038C27.3451 6.50038 27.381 6.42488 27.4557 6.42333C27.6783 6.34395 28.3049 5.91977 28.3033 5.84505C28.3399 5.80691 28.3765 5.76878 28.4512 5.76722C28.5259 5.76567 28.6364 5.68862 28.747 5.61156C28.8575 5.53451 28.968 5.45746 29.0054 5.45668C29.0801 5.45513 29.1167 5.41699 29.1151 5.34227C29.1128 5.23019 29.1868 5.19128 29.2981 5.15158C29.6328 5.06987 30.2609 4.72042 30.2959 4.60756C30.3325 4.56942 30.443 4.49237 30.5543 4.45268C30.6664 4.45035 30.7762 4.33594 30.8112 4.22308C30.8447 4.0355 30.9186 3.99658 31.0315 4.03161C31.1817 4.06587 31.6635 3.86896 31.6612 3.75688C31.6604 3.71952 31.9928 3.52573 32.0675 3.52417C32.1048 3.5234 31.9219 3.71408 31.6643 3.90632C31.4074 4.13593 31.1879 4.36475 31.1521 4.44025C31.1171 4.55311 31.0073 4.66752 30.8602 4.78271C30.7131 4.8979 30.6407 5.01153 30.6415 5.04889C30.6804 5.12284 30.6438 5.16098 30.5317 5.16331C30.3823 5.16641 30.1247 5.35866 30.127 5.47074C30.1278 5.5081 30.0172 5.58515 29.9067 5.6622C29.7954 5.70189 29.6857 5.81631 29.6498 5.8918C29.6514 5.96652 29.5782 6.0428 29.5409 6.04358C29.4662 6.04513 29.393 6.12141 29.2832 6.23582C29.2101 6.31209 29.0995 6.38914 29.0622 6.38992C29.0248 6.3907 29.0264 6.46542 29.0661 6.57672C29.1447 6.76197 29.1447 6.76197 28.9944 6.72772C28.8442 6.69347 28.1437 7.15655 28.1476 7.34336C28.1484 7.38072 28.0378 7.45777 27.9265 7.49746C27.7786 7.57529 27.6681 7.65234 27.7062 7.68893C27.7078 7.76365 27.3054 8.18316 27.2307 8.18471C27.0812 8.18782 26.3869 8.94979 26.4258 9.02374C26.4647 9.09768 26.4282 9.13582 26.2787 9.13893C26.1666 9.14126 26.0561 9.21831 25.9837 9.33194C25.8732 9.409 25.8 9.48527 25.7627 9.48605C25.6879 9.4876 25.6521 9.5631 25.6529 9.60046C25.6545 9.67518 25.6186 9.75068 25.5447 9.78959C25.47 9.79115 25.2505 10.02 24.9936 10.2496C24.7741 10.4784 24.5538 10.6699 24.5165 10.6706C24.4791 10.6714 24.4799 10.7088 24.518 10.7454C24.5188 10.7827 24.5196 10.8201 24.4449 10.8216C24.3701 10.8232 24.0401 11.1291 24.0424 11.2411C24.0432 11.2785 23.9701 11.3548 23.8595 11.4318C23.5287 11.7004 23.4711 12.5238 23.77 12.5176C23.8447 12.5161 23.9568 12.5137 23.9583 12.5885L23.9576 12.5511C23.9965 12.625 24.0712 12.6235 24.1451 12.5846C24.1817 12.5464 24.3312 12.5433 24.4432 12.541C24.5553 12.5387 24.6666 12.499 24.7406 12.4601C24.8869 12.3075 25.1461 12.19 25.2955 12.1869C25.3703 12.1853 25.4808 12.1083 25.4792 12.0336C25.515 11.9581 25.5508 11.8826 25.5882 11.8818C25.7384 11.916 26.2911 11.5308 26.2887 11.4187C26.2872 11.344 26.3238 11.3058 26.3985 11.3043C26.4732 11.3027 26.5845 11.263 26.6211 11.2249C26.6577 11.1868 26.8056 11.1089 26.9535 11.0311C27.1021 10.9906 27.25 10.9128 27.2492 10.8755C27.2485 10.8381 27.3956 10.7229 27.5808 10.6443C27.7653 10.5283 27.9863 10.3742 28.0961 10.2598C28.2059 10.1454 28.3895 9.99207 28.5016 9.98974C28.6129 9.95005 28.6869 9.91114 28.6861 9.87378C28.6853 9.83642 28.7219 9.79828 28.7593 9.7975C28.8713 9.79517 29.2395 9.52588 29.4956 9.25892C29.6054 9.1445 29.7532 9.06668 29.828 9.06512C29.9027 9.06357 30.0132 8.98652 30.0856 8.87288C30.158 8.75925 30.2685 8.68219 30.3059 8.68142C30.3432 8.68064 30.4538 8.60359 30.4896 8.52809C30.5254 8.45259 30.5993 8.41368 30.6367 8.4129C30.6375 8.45026 30.7114 8.41135 30.7106 8.37399C30.7472 8.33585 30.8212 8.29693 30.8959 8.29538C30.9706 8.29383 31.0819 8.25414 31.0811 8.21677C31.1535 8.10314 31.4851 7.87198 31.7809 7.71633C31.8914 7.63927 32.0012 7.52486 32.037 7.44936C32.072 7.33651 32.1459 7.29759 32.1833 7.29681C32.2969 7.3692 32.7398 7.09836 32.7375 6.98628C32.7359 6.91156 32.8107 6.91 32.9227 6.90767C33.1103 6.94115 33.1142 7.12795 32.9282 7.16919C32.8535 7.17075 32.7429 7.2478 32.7445 7.32252C32.7095 7.43538 32.6355 7.47429 32.5982 7.47507C32.3366 7.48051 31.6805 8.27907 31.942 8.27363C32.0922 8.30788 31.7598 8.50168 31.6104 8.50478C31.4236 8.50867 31.2773 8.66122 31.3169 8.77252C31.3559 8.84647 31.3193 8.8846 31.2072 8.88693C31.0204 8.89082 30.3985 9.53916 30.4763 9.68704C30.4771 9.7244 30.4405 9.76254 30.3284 9.76487C30.1042 9.76953 29.666 10.2645 29.7088 10.5253C29.7088 10.5253 29.6357 10.6016 29.5243 10.6413C29.3765 10.7191 29.3033 10.7954 29.3056 10.9074C29.3072 10.9822 29.2729 11.1324 29.1998 11.2087C29.055 11.4359 29.139 11.8827 29.3624 11.8407C29.4737 11.801 29.5492 11.8368 29.5508 11.9115C29.5523 11.9862 29.6286 12.0594 29.7041 12.0952C29.8909 12.0913 30.6358 11.9637 30.6311 11.7395C30.6296 11.6648 30.7035 11.6259 30.7782 11.6244C30.8903 11.622 30.9642 11.5831 30.9635 11.5458C30.9627 11.5084 31.0366 11.4695 31.1114 11.4679C31.1861 11.4664 31.2974 11.4267 31.3706 11.3504C31.4071 11.3123 31.4803 11.236 31.555 11.2344C31.5924 11.2337 31.6297 11.2329 31.629 11.1955C31.6282 11.1582 31.664 11.0827 31.7387 11.0811C31.8127 11.0422 31.9606 10.9644 32.0703 10.85C32.1801 10.7355 32.3645 10.6196 32.4758 10.5799C32.549 10.5036 32.6969 10.4258 32.7335 10.3876C32.7701 10.3495 32.8806 10.2725 32.9911 10.1954C33.4324 9.84983 33.543 9.77278 33.5041 9.69884C33.4659 9.66225 33.5406 9.6607 33.6527 9.65837C33.7274 9.65682 33.9119 9.54085 34.0217 9.42644C34.1322 9.34938 34.2419 9.23497 34.3167 9.23342C34.354 9.23264 34.3906 9.1945 34.3517 9.12056C34.3501 9.04584 34.3867 9.0077 34.498 8.96801C34.6101 8.96568 34.7214 8.92599 34.7946 8.84971C34.8304 8.77422 35.0515 8.62011 35.2367 8.54151C35.4212 8.42554 35.6064 8.34693 35.6056 8.30957C35.6049 8.27221 35.678 8.19594 35.8259 8.11811C36.1591 7.96168 36.3778 7.69549 36.3739 7.50869C36.3708 7.35924 36.4074 7.32111 36.5568 7.318C36.6315 7.31645 36.6689 7.31567 36.7436 7.31412C36.781 7.31334 36.8183 7.31256 36.8557 7.31178C37.0051 7.30868 37.1157 7.23162 37.5197 6.88683C37.6302 6.80978 37.7407 6.73273 37.7781 6.73195C37.9649 6.72807 38.256 6.34825 38.1416 6.2385C38.0653 6.16533 38.0637 6.09061 38.1385 6.08905C38.1758 6.08828 38.214 6.12486 38.2895 6.16067C38.3276 6.19725 38.4023 6.1957 38.4397 6.19492C38.5891 6.19181 38.7736 6.07585 38.8071 5.88827C38.8429 5.81277 38.8795 5.77463 38.9176 5.81122C39.0312 5.88361 38.8499 6.14902 38.4825 6.45567C38.2614 6.60977 38.0419 6.8386 37.9695 6.95223C37.9345 7.06509 37.824 7.14214 37.7493 7.1437C37.7119 7.14447 37.6387 7.22075 37.6021 7.25889C37.5656 7.29702 37.4558 7.41144 37.3087 7.52663C37.1982 7.60368 37.0884 7.71809 37.09 7.79281C37.0907 7.83017 37.0176 7.90645 36.9063 7.94614C36.8331 8.02241 36.7226 8.09946 36.686 8.1376C36.6875 8.21232 36.5404 8.32751 36.4299 8.40456C36.2828 8.51975 36.173 8.63417 36.1738 8.67153C36.1754 8.74625 36.1388 8.78438 36.0641 8.78594C36.0267 8.78672 35.9162 8.86377 35.8438 8.9774C35.4795 9.4335 35.4437 9.509 35.369 9.51055C35.2943 9.5121 35.1845 9.62652 35.1129 9.77751C35.0413 9.92851 34.9315 10.0429 34.8942 10.0437C34.8568 10.0445 34.8202 10.0826 34.8591 10.1566C34.8981 10.2305 34.8622 10.306 34.8257 10.3441C34.677 10.3846 34.7252 10.9069 34.8747 10.9038C34.912 10.903 35.0257 10.9754 35.1401 11.0851C35.2545 11.1949 35.2926 11.2315 35.3674 11.2299C35.4421 11.2284 35.516 11.1894 35.6258 11.075C35.7355 10.9606 35.8468 10.9209 35.9963 10.9178C36.071 10.9163 36.1831 10.9139 36.2562 10.8377C36.2921 10.7622 36.366 10.7233 36.4034 10.7225C36.4781 10.7209 37.1771 10.1831 37.2868 10.0687C37.3592 9.95506 37.4705 9.91537 37.5826 9.91304C37.6573 9.91149 37.7671 9.79707 37.8387 9.64608C37.9484 9.53167 38.0582 9.41725 38.2068 9.37679C38.3189 9.37445 38.3921 9.29818 38.4271 9.18532C38.4256 9.1106 38.4987 9.03433 38.5361 9.03355C38.6108 9.03199 38.6855 9.03044 38.7229 9.02966C38.7976 9.02811 38.9813 8.87478 39.2016 8.68332C39.3845 8.49263 39.6056 8.33853 39.6429 8.33775C39.6803 8.33697 39.7908 8.25992 39.864 8.18365C39.9371 8.10737 39.9737 8.06924 40.0111 8.06846C40.0484 8.06768 40.0492 8.10504 40.0142 8.2179C39.9784 8.2934 39.9052 8.36967 39.7931 8.372C39.7192 8.41092 39.646 8.48719 39.6468 8.52455C39.6476 8.56191 39.576 8.71291 39.4662 8.82732C39.1393 9.28264 39.2646 9.91544 39.7549 10.1295C39.7931 10.1661 39.8678 10.1645 39.9425 10.163C40.204 10.1575 40.6119 9.99955 40.6461 9.84934C40.682 9.77384 40.7185 9.7357 40.8306 9.73337C40.9061 9.76918 40.9427 9.73104 40.9419 9.69368C40.9411 9.65632 41.0517 9.57927 41.2003 9.5388C41.3116 9.49911 41.5701 9.34423 41.753 9.15354C41.9367 9.00021 42.1211 8.88425 42.1585 8.88347C42.1959 8.88269 42.269 8.80642 42.3422 8.73014C42.4154 8.65387 42.5259 8.57682 42.5998 8.5379C42.8583 8.38302 43.2249 8.03901 43.2233 7.96428C43.2225 7.92692 43.3323 7.81251 43.4436 7.77282C43.5549 7.73313 43.776 7.57903 43.9238 7.5012C44.071 7.38601 44.1449 7.34709 44.1823 7.34632C44.2196 7.34554 44.1838 7.42104 44.0741 7.53545C43.9293 7.76272 43.8935 7.83822 44.0453 7.94719C44.1597 8.05694 44.1597 8.05694 44.0126 8.17213C43.8662 8.32468 43.8662 8.32468 44.0188 8.47102C44.095 8.54419 44.1721 8.65471 44.1736 8.72943C44.176 8.84152 44.3643 8.91235 44.5885 8.90769C44.85 8.90225 45.0726 8.82287 45.1442 8.67188C45.1801 8.59638 45.2898 8.48196 45.4011 8.44227C45.5864 8.36367 46.0238 7.8313 46.0946 7.64294C46.1312 7.6048 46.167 7.52931 46.167 7.52931C46.167 7.52931 46.1289 7.49272 46.0915 7.4935C45.8674 7.49816 45.6074 7.57832 45.4611 7.73087C45.4237 7.73165 45.5319 7.54251 45.7148 7.35182C45.8238 7.20005 45.9328 7.04828 45.932 7.01092C45.9312 6.97356 46.0044 6.89728 46.0783 6.85837C46.1896 6.81868 46.1873 6.7066 46.1858 6.63187C46.1461 6.52057 46.1826 6.48243 46.2947 6.4801ZM46.7641 5.68543C46.7641 5.68543 46.8015 5.68465 46.8022 5.72201L46.7657 5.76015C46.7283 5.76093 46.7275 5.72357 46.7275 5.72357C46.7267 5.68621 46.7267 5.68621 46.7641 5.68543ZM34.3549 5.68183C34.3931 5.71842 34.3939 5.75578 34.3565 5.75655C34.3199 5.79469 34.3199 5.79469 34.3184 5.71997C34.3176 5.68261 34.3168 5.64525 34.3549 5.68183ZM33.5844 6.37064C33.6957 6.33095 33.7696 6.29203 33.7696 6.29203C33.807 6.29126 33.8077 6.32862 33.7338 6.36753C33.6972 6.40567 33.5859 6.44536 33.5486 6.44614C33.4738 6.44769 33.4731 6.41033 33.5844 6.37064ZM32.4341 3.18016C32.4341 3.18016 32.4715 3.17938 32.4722 3.21674L32.4356 3.25488C32.3983 3.25566 32.3975 3.2183 32.3975 3.2183C32.3967 3.18094 32.3967 3.18094 32.4341 3.18016ZM16.7458 3.6559C16.7465 3.69326 16.7473 3.73062 16.7481 3.76798C16.7107 3.76875 16.6734 3.76953 16.6718 3.69481C16.671 3.65745 16.7076 3.61931 16.7458 3.6559ZM16.3784 3.96255C16.4523 3.92363 16.4897 3.92286 16.5278 3.95944C16.5286 3.9968 16.4912 3.99758 16.4165 3.99913C16.3418 4.00069 16.341 3.96333 16.3784 3.96255ZM9.15365 7.02817C9.04312 7.10522 8.96996 7.18149 8.9684 7.10677C8.96685 7.03205 9.29766 6.76354 9.33657 6.83748C9.37393 6.8367 9.2634 6.91376 9.15365 7.02817ZM9.55452 6.53393L9.51638 6.49735C9.5156 6.45999 9.55296 6.45921 9.55296 6.45921C9.59033 6.45844 9.59033 6.45844 9.5911 6.4958C9.5911 6.4958 9.59188 6.53316 9.55452 6.53393ZM9.8503 6.37828C9.77558 6.37983 9.73744 6.34325 9.81216 6.34169C9.84874 6.30356 9.92346 6.302 9.92424 6.33936C9.9616 6.33859 9.92502 6.37672 9.8503 6.37828ZM11.4926 6.26937C11.4568 6.34487 11.4584 6.41959 11.4599 6.49431C11.4615 6.56903 11.463 6.64376 11.4257 6.64453C11.3509 6.64609 11.3128 6.6095 11.312 6.57214C11.3081 6.38534 11.3066 6.31062 11.3805 6.2717C11.4903 6.15729 11.5658 6.1931 11.4926 6.26937ZM11.8242 6.03822C11.7502 6.07713 11.6763 6.11605 11.6389 6.11682C11.6016 6.1176 11.6382 6.07946 11.6747 6.04132C11.7487 6.00241 11.8226 5.9635 11.86 5.96272C11.8974 5.96194 11.8981 5.9993 11.8242 6.03822ZM17.6034 7.15147C17.566 7.15225 17.5279 7.11567 17.5271 7.07831C17.5263 7.04095 17.5629 7.00281 17.6002 7.00203C17.6376 7.00126 17.6757 7.03784 17.6765 7.0752C17.6773 7.11256 17.6407 7.1507 17.6034 7.15147ZM20.2786 6.38569C20.2038 6.38724 20.2031 6.34988 20.2023 6.31252C20.2396 6.31174 20.277 6.31097 20.3144 6.31019C20.3525 6.34677 20.3159 6.38491 20.2786 6.38569ZM23.2222 7.74479C23.1848 7.74557 23.1848 7.74557 23.1841 7.70821C23.1841 7.70821 23.1833 7.67085 23.2206 7.67007L23.2588 7.70665C23.2596 7.74401 23.2222 7.74479 23.2222 7.74479ZM23.4418 5.72188C23.5523 5.64483 23.6644 5.6425 23.7017 5.64172C23.7765 5.64017 23.8138 5.63939 23.7407 5.71567C23.7041 5.7538 23.5928 5.7935 23.4815 5.83319C23.4067 5.83474 23.3702 5.87288 23.3328 5.87366C23.2954 5.87443 23.332 5.8363 23.4418 5.72188ZM28.9524 8.29842C28.915 8.29919 28.8769 8.26261 28.9134 8.22447C28.9508 8.2237 28.9882 8.22292 28.9882 8.22292C29.0263 8.2595 29.0271 8.29686 28.9524 8.29842ZM32.114 9.35398C32.0392 9.35553 32.0019 9.35631 32.0758 9.31739C32.1132 9.31662 32.1879 9.31506 32.1879 9.31506C32.226 9.35165 32.1887 9.35242 32.114 9.35398ZM32.704 8.96794C32.6674 9.00608 32.6666 8.96872 32.6658 8.93136C32.6643 8.85664 32.6643 8.85664 32.7024 8.89322C32.7398 8.89244 32.7405 8.9298 32.704 8.96794ZM33.1064 6.75434C33.1049 6.67962 33.252 6.56443 33.2909 6.63838C33.3283 6.6376 33.2925 6.7131 33.2185 6.75201C33.1454 6.82829 33.108 6.82907 33.1064 6.75434ZM36.5374 6.38399C36.5 6.38476 36.5 6.38476 36.4993 6.3474C36.4993 6.3474 36.4985 6.31004 36.5358 6.30926L36.574 6.34585C36.5748 6.38321 36.5374 6.38399 36.5374 6.38399ZM38.8078 7.71971C38.7704 7.72049 38.7704 7.72049 38.7696 7.68313C38.7689 7.64577 38.7689 7.64577 38.8062 7.64499C38.8078 7.71971 38.8078 7.71971 38.8078 7.71971ZM39.5473 5.53649C39.5099 5.53726 39.5099 5.53726 39.5092 5.4999C39.5092 5.4999 39.5084 5.46254 39.5457 5.46176L39.5839 5.49835C39.5847 5.53571 39.5473 5.53649 39.5473 5.53649ZM39.7986 6.83944C39.7613 6.84022 39.7605 6.80286 39.7605 6.80286C39.7597 6.7655 39.7597 6.7655 39.7971 6.76472C39.7979 6.80208 39.7986 6.83944 39.7986 6.83944ZM41.0378 7.11269C41.0004 7.11347 40.9623 7.07688 40.9988 7.03875C41.0362 7.03797 41.0736 7.03719 41.1109 7.03642C41.1117 7.07378 41.1125 7.11114 41.0378 7.11269ZM42.8272 6.8886C42.7159 6.92829 42.6419 6.9672 42.6046 6.96798C42.6046 6.96798 42.6038 6.93062 42.603 6.89326C42.6388 6.81776 42.7128 6.77885 42.8249 6.77652C43.0117 6.77263 43.0117 6.77263 42.8272 6.8886ZM43.5238 6.23871C43.4507 6.31498 43.4149 6.39048 43.4156 6.42784C43.4172 6.50256 43.3432 6.54148 43.3059 6.54225C43.1938 6.54458 43.193 6.50722 43.3394 6.35467C43.4125 6.2784 43.5223 6.16399 43.597 6.16243C43.6351 6.19902 43.5978 6.19979 43.5238 6.23871Z" fill="black"/>
</svg>
