<svg width="40" height="332" viewBox="0 0 40 332" fill="none" xmlns="http://www.w3.org/2000/svg">
<g clip-path="url(#clip0_1070_3460)">
<path d="M16.9189 332.623C16.9309 332.394 17.6306 332.201 18.0891 332.225C19.9228 332.321 21.6477 330.114 21.7681 327.821C21.7922 327.363 21.5991 326.663 21.3939 326.193C21.2008 325.493 21.2129 325.264 21.4541 325.047C21.6954 324.83 21.7074 324.6 21.5023 324.13C21.5264 323.672 21.5625 322.984 21.5866 322.525C21.864 321.621 22.1534 320.487 22.2136 319.341C22.3942 315.902 21.4528 311.946 20.0775 311.873C19.8483 311.861 19.4019 311.608 19.426 311.15C19.2088 310.908 18.7745 310.426 18.0868 310.39C17.3992 310.354 17.3992 310.354 17.8937 309.69C18.135 309.473 18.1591 309.014 18.1952 308.327C18.2072 308.097 18.2193 307.868 18.2313 307.639C18.0382 306.939 18.0864 306.023 17.8692 305.781C17.8933 305.323 17.6761 305.082 17.2297 304.828C16.7713 304.804 16.7954 304.346 17.2779 303.911C17.2899 303.682 17.5553 303.007 17.6034 302.09C17.6636 300.944 17.5187 299.327 17.0844 298.845C17.0964 298.615 17.1205 298.157 17.1446 297.699C17.1566 297.469 17.1566 297.469 17.1687 297.24C17.2048 296.553 16.9876 296.311 16.5292 296.287C16.0707 296.263 16.0707 296.263 16.0948 295.805C16.1069 295.575 16.1189 295.346 16.3842 294.671C16.6375 294.224 16.6616 293.766 16.6857 293.307C16.7218 292.62 16.7579 291.932 16.5648 291.232C16.4079 289.845 16.2629 288.229 16.0699 287.529C16.106 286.841 15.9129 286.142 15.6957 285.9C15.4665 285.888 15.2975 284.73 15.3577 283.584C15.4661 281.521 15.3572 279.217 14.9706 273.45C14.9947 272.992 15.0308 272.304 14.8016 272.292C14.8016 272.292 14.6085 271.593 14.584 267.684C14.4391 266.067 14.1372 263.064 14.0283 260.759C13.8834 259.143 13.7264 257.756 13.7746 256.839C13.7866 256.61 13.7987 256.38 13.7987 256.38C13.8228 255.922 13.6056 255.681 13.3764 255.669C13.1472 255.657 12.93 255.415 12.9661 254.728C12.9902 254.269 13.0022 254.04 13.0263 253.582C13.0504 253.123 13.0624 252.894 13.0865 252.435C13.1226 251.748 12.9175 251.277 12.7003 251.036C12.2539 250.783 12.266 250.554 12.278 250.324C12.2901 250.095 12.3021 249.866 12.5434 249.649C12.7846 249.432 13.0379 248.985 13.074 248.298C13.0981 247.839 12.905 247.139 12.9411 246.452C13.0134 245.077 12.9046 242.772 12.9768 241.397C13.0491 240.022 12.8801 238.864 12.6508 238.852C12.4216 238.84 12.4818 237.694 12.5541 236.318C12.5657 231.722 12.167 226.185 11.2742 225.678C10.6107 225.184 10.6227 224.954 11.3344 224.532C11.8169 224.098 12.0823 223.422 12.1184 222.734C12.1425 222.276 11.9373 221.806 11.7081 221.794C11.7081 221.794 11.491 221.552 11.503 221.323C11.5271 220.865 11.7804 220.418 11.8045 219.96C11.8647 218.814 11.9128 217.897 11.6836 217.885C11.4664 217.644 11.5748 215.581 11.7072 213.059C11.8397 210.538 11.7068 208.692 11.7068 208.692C11.4776 208.68 11.3567 206.605 11.4771 204.313C11.6457 201.104 11.4887 199.717 11.0544 199.234C10.62 198.752 10.4149 198.281 10.8854 198.076C11.1266 197.859 11.3679 197.642 11.392 197.183C11.416 196.725 11.2109 196.254 10.7525 196.23C10.2941 196.206 10.0769 195.965 10.0889 195.736C10.101 195.507 10.3543 195.06 10.8247 194.855C11.3072 194.421 11.5846 193.516 11.6328 192.599C11.6689 191.911 11.4758 191.212 11.2586 190.97C11.0415 190.729 10.8484 190.03 10.8845 189.342L11.2818 181.778C11.0526 181.766 11.0883 176.711 11.1726 175.107L11.5699 167.542C11.606 166.855 11.4009 166.384 11.4009 166.384C11.1837 166.143 11.0629 164.068 11.1953 161.547C11.2435 160.63 11.2796 159.942 11.3037 159.484C11.388 157.879 11.4241 157.192 11.1949 157.18C10.7364 157.156 10.7485 156.926 11.231 156.492C11.4722 156.275 11.5927 153.983 11.7251 151.461C11.8089 145.49 11.7969 145.719 11.3385 145.695C11.1093 145.683 11.1333 145.224 11.3866 144.778C11.6399 144.332 11.9053 143.656 11.9534 142.739C11.9895 142.052 11.8085 141.123 11.5913 140.881C11.3741 140.64 11.3862 140.411 11.3982 140.182C11.4464 139.265 11.965 138.143 12.1942 138.155C12.4234 138.167 12.8578 138.649 13.0629 139.12C14.3419 141.026 16.9716 139.095 17.1161 136.345C17.1763 135.199 17.4296 134.752 17.6347 135.223C17.8399 135.693 18.045 136.164 17.8037 136.381L17.7676 137.069C17.9848 137.31 18.0816 139.843 17.9371 142.594C18.0098 145.586 18.1065 148.119 18.3237 148.36C18.5409 148.602 18.734 149.301 18.6978 149.989C18.6136 151.593 20.1579 152.824 22.45 152.944C23.5961 153.004 23.8253 153.016 23.8855 151.87C23.8975 151.641 23.6803 151.4 23.6924 151.171C23.7044 150.941 23.9577 150.495 24.6574 150.302C25.3571 150.109 25.6224 149.433 25.7308 147.37C25.8151 145.766 25.9355 143.474 25.6577 140.011C25.7179 138.865 25.6572 135.644 25.5845 132.652C25.7411 129.673 25.4271 126.898 25.2099 126.657C24.9928 126.416 25.0168 125.957 25.2701 125.511C25.5114 125.294 25.5234 125.064 25.5355 124.835C25.5475 124.606 25.5716 124.147 25.3544 123.906C25.4146 122.76 25.4748 121.614 25.535 120.468C25.5832 119.551 25.8365 119.105 25.8606 118.646C25.8847 118.188 25.6675 117.947 25.4503 117.705C25.2331 117.464 25.016 117.223 25.2572 117.006C25.5105 116.559 25.7999 115.425 25.8481 114.508C25.9083 113.362 25.7272 112.433 25.5221 111.963C25.5582 111.275 25.5823 110.817 25.6184 110.129C25.8597 109.912 26.113 109.466 26.1371 109.007C26.1491 108.778 25.9319 108.537 25.944 108.308C25.7509 107.608 25.5819 106.45 25.618 105.762C25.6541 105.075 25.9074 104.628 25.9194 104.399C26.1487 104.411 26.414 103.735 26.2209 103.036C26.2329 102.806 26.245 102.577 26.257 102.348C26.2811 101.89 26.2931 101.66 26.5344 101.443C27.0049 101.238 27.6809 105.871 27.5485 108.392C27.5123 109.08 27.7054 109.779 28.1518 110.033C28.381 110.045 28.5741 110.744 28.538 111.432C28.6829 113.048 28.6352 118.332 28.9612 120.878C28.913 121.795 29.2992 123.194 29.7215 123.906C29.9387 124.147 30.1438 124.617 30.1318 124.847C30.1198 125.076 29.8785 125.293 29.6372 125.51C29.6252 125.739 29.384 125.957 29.3599 126.415C29.2756 128.02 29.7947 131.265 30.4582 131.759C30.9046 132.013 31.0977 132.712 31.0736 133.171C31.1222 136.621 33.9816 139.07 36.5511 138.285C36.7924 138.068 37.0336 137.851 37.0457 137.622C37.0698 137.163 36.8646 136.693 36.8887 136.234C37.0813 132.567 37.1897 130.504 36.8999 127.271C36.9841 125.666 36.61 124.038 36.622 123.809C36.4049 123.567 36.2358 122.409 36.2961 121.263C36.3563 120.117 36.1993 118.73 36.0182 117.801C36.0784 116.655 35.6196 112.264 34.9319 112.227C34.7027 112.215 34.7268 111.757 34.9921 111.081C35.2575 110.406 35.2815 109.947 35.3056 109.489C35.3297 109.03 35.1366 108.331 34.473 107.836C34.0387 107.354 34.0507 107.125 34.0628 106.895C34.0748 106.666 34.0869 106.437 34.3281 106.22C34.5814 105.773 34.8347 105.327 34.8588 104.869C34.8949 104.181 34.7139 103.252 34.5448 102.094C34.3999 100.477 34.0378 98.6195 34.0619 98.1611C34.086 97.7027 33.8808 97.2322 33.6516 97.2202C33.6516 97.2202 33.4706 96.2913 33.5067 95.6036C33.6151 93.5407 32.9631 88.4498 32.5167 88.1965C32.2875 88.1845 32.1185 87.0264 31.7323 85.627C31.5874 84.0105 31.1651 83.2987 30.7066 83.2747C30.2482 83.2506 29.3554 82.744 28.7039 82.0202C27.618 80.814 24.8916 80.2111 24.385 81.1038C23.6492 81.9846 23.0097 81.0316 23.094 79.4271C23.1421 78.5102 23.0213 76.4353 22.8643 75.048C22.7073 73.6606 22.5985 71.3564 22.6708 69.9811C22.5138 68.5938 22.4411 65.602 22.3203 63.527C22.2115 61.2229 22.1026 58.9187 21.9096 58.219C21.7887 56.144 21.4025 54.7447 20.9441 54.7206C20.4857 54.6965 20.2805 54.226 20.3287 53.3092C20.1838 51.6926 19.1099 50.2572 17.9518 50.4262C17.2521 50.6193 17.2521 50.6193 17.5416 49.4852C17.7949 49.0389 17.6018 48.3392 17.6018 48.3392C17.3725 48.3271 17.2878 45.5645 17.4564 42.3555C17.5402 36.3839 17.6125 35.0086 17.1902 34.2969C17.1902 34.2969 16.973 34.0556 16.985 33.8264C16.9971 33.5972 17.2504 33.1508 17.2744 32.6924C17.5398 32.0168 17.7926 27.2033 18.0575 22.1606C18.021 18.4811 18.2136 14.8137 18.334 12.5216C18.3822 11.6047 18.4183 10.9171 18.4424 10.4586C18.5507 8.39573 18.5628 8.1665 17.0064 7.16537C16.3429 6.67083 15.7034 5.71784 15.4983 5.24738C15.3413 3.86004 13.7368 3.77576 13.4353 5.13901C13.3992 5.82666 13.158 6.04381 12.4824 5.7785C11.3483 5.48907 10.8417 6.38186 10.7334 8.44477C10.2272 13.7047 9.96234 18.7474 9.91418 19.6642C9.87806 20.3519 9.66133 24.4777 9.20335 28.8207C9.0107 32.4882 8.64904 34.9975 8.55272 36.8312C8.39619 39.811 8.60132 40.2814 9.04771 40.5347C9.4941 40.788 9.48206 41.0173 8.99955 41.4516C8.74625 41.898 8.49296 42.3444 8.39663 44.1781C8.36051 44.8657 8.31235 45.7826 8.25215 46.9286C8.07154 50.3668 8.04746 50.8253 7.77008 51.7301C7.50475 52.4057 7.49271 52.6349 8.16831 52.9002C8.62674 52.9243 8.81983 53.624 8.78371 54.3117C8.75963 54.7701 8.49429 55.4457 8.03586 55.4216C7.80665 55.4096 7.55335 55.8559 7.52927 56.3144C7.50519 56.7728 7.71032 57.2433 8.16875 57.2674C8.39797 57.2794 8.38593 57.5086 8.14467 57.7258C7.66216 58.1601 7.21622 62.2739 6.96337 67.0874C6.60215 73.9639 6.61508 82.4689 7.29068 82.7342C8.1955 83.0116 8.1955 83.0116 7.24252 83.6511C6.5308 84.0734 6.24138 85.2074 6.20526 85.895C6.18118 86.3535 6.1571 86.8119 6.61553 86.836C7.30317 86.8721 7.30317 86.8721 6.5794 87.5236C6.33815 87.7408 6.03669 89.104 5.96445 90.4793C5.90425 91.6254 6.06122 93.0127 6.27839 93.2539C6.49556 93.4952 6.24227 93.9416 5.97693 94.6172C5.73568 94.8344 5.7116 95.2928 5.69956 95.522C5.68752 95.7512 5.67548 95.9805 5.89265 96.2217C6.12187 96.2337 6.10982 96.463 6.08574 96.9214C6.0737 97.1506 6.04962 97.609 5.79633 98.0554C5.54303 98.5018 5.53099 98.731 5.51895 98.9602C5.50691 99.1894 5.49487 99.4187 5.72408 99.4307C5.94126 99.6719 6.15843 99.9132 5.91718 100.13C5.66388 100.577 5.5796 102.181 5.47123 104.244C5.2545 108.37 5.18271 114.112 5.84627 114.607C6.50983 115.102 6.49779 115.331 5.78606 115.753C5.31559 115.958 4.78492 117.309 4.72472 118.455C4.6886 119.143 4.89373 119.614 5.11091 119.855C5.34012 119.867 5.304 120.554 5.03866 121.23C4.9905 122.147 4.95438 122.835 4.90622 123.751C5.09931 124.451 5.06319 125.139 5.03911 125.597C4.79785 125.814 4.74969 126.731 4.68949 127.877C4.66541 128.336 4.62929 129.023 4.6052 129.482L4.31623 134.983C4.24399 136.358 4.42504 137.287 5.10064 137.552C5.75216 138.276 5.75216 138.276 5.04044 138.699C4.56997 138.904 4.05134 140.026 4.00318 140.943C3.96706 141.63 4.17219 142.101 4.63062 142.125C4.85983 142.137 4.60654 142.583 4.35324 143.03C4.09995 143.476 3.83461 144.152 3.81053 144.61C3.76237 145.527 3.95546 146.226 4.38981 146.709C4.82415 147.191 4.80007 147.65 4.54678 148.096C4.30552 148.313 4.22124 149.918 4.12492 151.752C3.95635 154.961 3.96883 159.099 4.41522 159.352C4.64444 159.364 4.62036 159.822 4.1258 160.486C4.08968 161.174 4.05356 161.861 4.01744 162.549C4.45179 163.031 4.42771 163.49 4.18645 163.707C4.17441 163.936 3.88499 165.07 3.80071 166.675C3.69235 168.738 3.75299 171.959 3.83772 174.721C3.7414 176.555 3.82612 179.318 3.76592 180.464C3.92289 181.851 3.86269 182.997 4.0919 183.009C4.32112 183.021 4.27296 183.938 4.20071 185.313C4.15255 186.23 4.09235 187.376 4.04419 188.293C4.26136 188.534 4.38221 190.609 4.27385 192.672C4.1414 195.194 4.31041 196.352 4.52759 196.593C4.97397 196.846 4.96193 197.075 4.47942 197.51C3.99691 197.944 3.74362 198.39 3.96079 198.632C4.17797 198.873 4.29882 200.948 4.17841 203.24C4.058 205.532 4.11865 208.753 4.26358 210.37C4.1793 211.974 4.28811 214.278 4.23994 215.195C4.40895 216.353 4.56593 217.741 4.77106 218.211C4.96415 218.911 5.16928 219.381 4.92803 219.599C4.69882 219.587 4.6627 220.274 4.63861 220.733C4.60249 221.42 4.57841 221.879 4.78354 222.349C5.00072 222.59 4.97664 223.049 4.72334 223.495C4.47005 223.942 4.67518 224.412 5.10953 224.895C5.55591 225.148 5.77309 225.389 5.76105 225.618C5.74901 225.848 5.50775 226.065 5.2665 226.282C5.02524 226.499 4.96504 227.645 4.8928 229.02C4.76035 231.542 4.80896 234.992 5.46048 235.716C5.89483 236.198 6.112 236.44 5.62949 236.874C5.38824 237.091 5.11086 237.996 5.0627 238.913C4.99045 240.288 5.12334 242.134 5.54565 242.846C5.75078 243.316 5.95592 243.786 5.94388 244.016C5.93184 244.245 5.69058 244.462 5.67854 244.691C5.41321 245.367 5.40117 245.596 5.63038 245.608C5.85959 245.62 6.06473 246.091 5.81143 246.537C5.53405 247.442 5.52201 247.671 6.20966 247.707C6.66808 247.731 6.88526 247.973 6.63196 248.419C6.39071 248.636 6.10129 249.77 6.04109 250.916C5.98089 252.062 6.16194 252.991 6.39115 253.003C6.39115 253.003 6.58424 253.703 6.54812 254.39L6.47588 255.766C6.46384 255.995 6.42772 256.683 6.60877 257.612C6.56061 258.528 6.74166 259.457 7.18805 259.711C7.63443 259.964 7.38114 260.41 6.88659 261.074C6.63329 261.52 6.36796 262.196 6.33184 262.883C6.29572 263.571 6.48881 264.271 6.71802 264.283C6.94724 264.295 6.91112 264.983 6.86295 265.899C6.80275 267.045 6.74255 268.192 7.16485 268.903C7.5992 269.386 7.56308 270.073 7.52696 270.761C7.51492 270.99 7.50288 271.219 7.49084 271.449C7.43064 272.595 7.5274 275.128 8.1312 281.136C8.09508 281.823 8.50535 282.764 8.9397 283.247C9.38608 283.5 9.362 283.959 9.09667 284.634C8.83133 285.31 8.57804 285.756 8.55396 286.215C8.54191 286.444 8.75909 286.685 8.75909 286.685C9.20548 286.938 9.1814 287.397 8.69889 287.831C8.44559 288.278 8.42151 288.736 8.65072 288.748C8.63868 288.977 8.84382 289.448 8.8077 290.135C9.23 290.847 9.88241 300.305 10.0394 301.692C10.1361 304.226 10.3413 304.696 11.2581 304.744C11.9458 304.781 11.9337 305.01 11.21 305.661C10.7154 306.325 10.4621 306.771 10.4381 307.23C10.414 307.688 10.6311 307.929 11.3067 308.195C11.9823 308.46 11.9823 308.46 11.717 309.136C11.4758 309.353 11.1984 310.258 11.1382 311.404C11.0539 313.008 11.1988 314.625 11.6452 314.878C11.8624 315.119 12.0675 315.59 12.0555 315.819C11.9832 317.194 12.2124 317.206 13.1293 317.254C14.0462 317.303 14.0462 317.303 13.0932 317.942C12.3815 318.364 12.1402 318.582 12.1161 319.04C12.1041 319.269 12.3213 319.51 12.3092 319.74C12.2731 320.427 12.4541 321.356 12.4421 321.585C12.6593 321.827 13.0334 323.455 13.0093 323.914C12.7801 323.902 12.9732 324.601 13.1784 325.072C13.5886 326.013 13.5645 326.471 13.5164 327.388C13.2149 328.751 14.4698 331.116 15.4107 330.705C15.8692 330.729 15.8692 330.729 15.6159 331.176C15.3385 332.081 16.4244 333.287 16.9189 332.623ZM17.5741 132.002C17.1518 131.29 17.1879 130.602 17.1999 130.373C17.224 129.915 17.2481 129.456 17.4653 129.698C17.8876 130.409 17.8755 130.639 17.8515 131.097C17.8153 131.785 17.8033 132.014 17.5741 132.002ZM17.4528 125.56C17.2236 125.548 17.2356 125.318 17.2477 125.089C17.2717 124.631 17.5491 123.726 18.0196 123.521C18.2488 123.533 18.2608 123.304 18.2488 123.533C18.2488 123.533 18.2247 123.991 17.9594 124.667C17.9353 125.125 17.682 125.572 17.4528 125.56ZM16.7036 113.568C16.7156 113.339 16.9569 113.122 17.1741 113.363C17.3912 113.605 17.6205 113.617 17.6084 113.846C17.6084 113.846 17.3672 114.063 17.138 114.051C16.9087 114.039 16.6916 113.798 16.7036 113.568ZM17.3083 128.31L17.4046 126.477C17.6579 126.03 17.6338 126.489 17.5736 127.635C17.5255 128.552 17.5134 128.781 17.3083 128.31ZM26.0394 97.7397C26.2807 97.5225 26.5099 97.5346 26.727 97.7758C26.715 98.005 26.715 98.005 26.2566 97.9809C26.0274 97.9689 25.7981 97.9569 26.0394 97.7397ZM16.9079 105.305C16.6786 105.293 16.6907 105.063 16.9319 104.846C16.944 104.617 17.1611 104.858 17.1491 105.087C17.125 105.546 16.8958 105.534 16.9079 105.305ZM17.2227 116.813L16.9935 116.801C17.2347 116.584 17.4639 116.596 17.6811 116.838C17.8983 117.079 17.6691 117.067 17.4399 117.055C16.9814 117.031 16.9814 117.031 17.2227 116.813ZM17.1268 123.014C17.1509 122.556 17.1629 122.327 17.4042 122.109C17.3921 122.339 17.3801 122.568 17.3681 122.797C17.344 123.256 17.344 123.256 17.1268 123.014ZM16.775 103.459C16.775 103.459 16.787 103.23 17.0162 103.242L17.2334 103.483C17.2213 103.712 16.9921 103.7 16.9921 103.7C16.7629 103.688 16.7629 103.688 16.775 103.459ZM17.538 132.689C17.7672 132.702 17.7672 132.702 17.7551 132.931C17.7551 132.931 17.7431 133.16 17.5139 133.148L17.538 132.689ZM17.0537 115.655C17.0657 115.426 17.0657 115.426 17.2949 115.438C17.2949 115.438 17.5241 115.45 17.5121 115.679L17.0537 115.655ZM17.4042 122.109L17.175 122.097L17.4042 122.109Z" fill="black"/>
</g>
<defs>
<clipPath id="clip0_1070_3460">
<rect width="40" height="332" fill="white"/>
</clipPath>
</defs>
</svg>
