<svg fill="none" height="28" viewBox="0 0 28 28" width="28" xmlns="http://www.w3.org/2000/svg">
  <path
    d="M27.6278 13.8492C27.5053 6.52007 21.4045 0.524657 14.1839 0.641323C6.69629 0.629042 0.683654 6.81112 0.806161 14.2642C0.929893 21.7874 6.99643 27.628 14.5698 27.4942C21.8553 27.3652 27.7491 21.2065 27.6278 13.8492ZM21.6629 15.9074C21.6629 16.3028 21.6617 16.6983 21.6568 17.0937C21.6274 19.6063 19.7469 21.5196 17.238 21.554C15.2387 21.5823 13.2369 21.5786 11.2376 21.5565C8.6858 21.5282 6.78327 19.6493 6.74039 17.0962C6.70609 15.0711 6.70609 13.0448 6.74039 11.0197C6.78449 8.50585 8.6956 6.62077 11.2045 6.59498C13.2259 6.5741 15.246 6.57287 17.2674 6.59744C19.7359 6.62691 21.6262 8.54269 21.658 11.0172C21.6629 11.4053 21.6642 11.7934 21.6642 12.1814C21.6642 12.8164 21.6605 13.4513 21.6605 14.0862C21.6593 14.6928 21.6629 15.3007 21.6629 15.9074Z"
    fill="#780000"></path>
  <rect fill="#780000" height="19" rx="4" width="19" x="4.80432" y="4.63965"></rect>
  <path
    d="M20.8156 10.3455L20.858 10.3218L20.8355 10.2787C20.5485 9.72882 19.9743 9.3451 19.3264 9.3451H9.28228C8.61085 9.3451 8.05999 9.72902 7.7733 10.2787L7.75085 10.3218L7.79324 10.3455L13.4891 13.5305C13.4892 13.5306 13.4893 13.5306 13.4894 13.5306C13.9928 13.8182 14.6159 13.8182 15.1195 13.5306C15.1196 13.5306 15.1196 13.5306 15.1197 13.5305L20.8156 10.3455ZM7.67925 11.7694L7.6048 11.7277L7.6048 11.813L7.60493 17.1141C7.60493 18.0485 8.34803 18.7916 9.2824 18.7916H19.3498C20.2841 18.7916 21.0272 18.0485 21.0272 17.1141V11.813V11.7277L20.9528 11.7694L15.768 14.6757L15.7679 14.6758C14.8764 15.1787 13.7557 15.1787 12.8642 14.6758L12.8641 14.6757L7.67925 11.7694ZM19.3264 20.0867H9.28228C7.63583 20.0867 6.3097 18.7605 6.3097 17.1141V11.0226C6.3097 9.37613 7.63587 8.05 9.28228 8.05H19.3264C20.9728 8.05 22.299 9.37617 22.299 11.0226V17.1141C22.299 18.7606 20.9728 20.0867 19.3264 20.0867Z"
    fill="#FFF7E7" stroke="#780000" stroke-width="0.1"></path>
</svg>
