<?xml version="1.0" encoding="utf-8"?>
<svg data-name="calque 2" id="calque_2" viewbox="0 0 40.8 40.8" xmlns="http://www.w3.org/2000/svg">
  <defs>
    <style>.cls-1 { fill: #f8f8f8; } .cls-1, .cls-2 { stroke-width: 0px; } .cls-2 { fill: #77160e; }</style>
  </defs>
  <g data-name="calque 1" id="calque_1-2">
    <circle class="cls-2" cx="20.4" cy="20.4" r="20.4"></circle>
    <g data-name="2jgwpt" id="_2jgwpt">
      <path class="cls-1" d="m20.52,28.94c-.29-.01-.58-.03-.87-.04-.93-.03-1.86-.04-2.8-.07-1.03-.03-2.07-.06-3.1-.11-.8-.04-1.6-.12-2.39-.25-.6-.1-1.17-.31-1.64-.72-.42-.36-.7-.81-.84-1.34-.12-.46-.21-.94-.29-1.41-.14-.84-.22-1.69-.25-2.54-.03-.86-.03-1.73-.02-2.59,0-.77.04-1.54.08-2.3.05-.91.15-1.82.36-2.72.11-.48.28-.95.55-1.37.33-.5.79-.82,1.34-1.02.54-.19,1.09-.27,1.66-.31.62-.05,1.24-.09,1.86-.13.53-.03,1.06-.06,1.6-.07,1.56-.03,3.13-.07,4.69-.07,1.31,0,2.62.03,3.93.06,1,.02,2,.05,2.99.1.53.03,1.06.11,1.58.18.35.05.7.11,1.04.21,1.02.3,1.66.98,1.95,1.99.19.67.3,1.35.36,2.04.16,1.8.19,3.6.15,5.41-.02.9-.08,1.79-.2,2.68-.08.59-.16,1.19-.33,1.76-.13.43-.32.83-.61,1.18-.31.38-.71.63-1.17.8-.56.21-1.14.3-1.73.34-.69.05-1.38.1-2.08.13-.95.04-1.9.06-2.85.08-1,.03-1.99.06-2.99.08v.02zm-2.6-4.92c2.14-1.22,4.26-2.43,6.4-3.64-2.14-1.22-4.26-2.42-6.4-3.63v7.28z"></path>
    </g>
  </g>
</svg>
