<svg fill="none" height="40" viewBox="0 0 40 40" width="40" xmlns="http://www.w3.org/2000/svg">
  <path
    d="M19.8291 0.1216C8.97555 0.107334 0.26851 8.77539 0.257822 19.6064C0.247135 30.4107 8.91321 39.1109 19.6973 39.1216C30.5205 39.1323 39.2471 30.4268 39.2578 19.6082C39.2685 8.91448 30.5169 0.135865 19.8291 0.1216ZM24.0561 19.6546H21.1419V29.6154H17.0734V19.6867H15.1335V15.6353C15.7107 15.6032 16.3146 15.5711 17.0413 15.5319C17.0413 14.9256 17.0306 14.3425 17.0449 13.7594C17.1001 11.1934 18.6142 9.67233 21.1633 9.63132C22.1947 9.61348 23.226 9.62775 24.3198 9.62775V13.096C23.7444 13.096 23.1655 13.0925 22.5848 13.0978C21.4679 13.1067 21.2915 13.2797 21.2666 14.3871C21.2577 14.7384 21.2666 15.0914 21.2666 15.5622H24.4195C24.2948 16.9709 24.1808 18.2566 24.0579 19.6546H24.0561Z"
    fill="#780000"></path>
</svg>
