<svg fill="none" height="40" viewBox="0 0 40 40" width="40" xmlns="http://www.w3.org/2000/svg">
  <path clip-rule="evenodd"
    d="M15.5046 19.6267C15.5046 17.2798 17.3943 15.4037 19.7649 15.4019C20.1543 15.4016 20.5319 15.4551 20.8907 15.5553C22.6542 16.0462 23.9641 17.6658 23.9803 19.5812C23.9999 21.9245 22.1209 23.8381 19.7681 23.8666C19.3725 23.8715 18.9875 23.8188 18.6211 23.7164C16.8453 23.2218 15.5061 21.5598 15.5046 19.6267ZM19.7097 0.124013C30.2073 -0.0454044 39.077 8.66089 39.2551 19.3039C39.4315 29.9879 30.8628 38.9314 20.2708 39.1187C9.26021 39.313 0.440374 30.8315 0.260487 19.9067C0.08238 9.08355 8.82385 0.10618 19.7097 0.124013ZM30.5805 20.9704C30.5791 20.5295 30.5778 20.0886 30.5778 19.6481C30.5785 19.2793 30.5798 18.9106 30.5811 18.5418L30.5811 18.5402C30.583 17.9875 30.5849 17.4348 30.5849 16.8821C30.5849 16.3186 30.5831 15.755 30.576 15.1915C30.5297 11.5981 27.7815 8.81604 24.1927 8.77324C21.2539 8.73758 18.3169 8.73936 15.3782 8.76968C11.7305 8.80713 8.95209 11.5446 8.88797 15.1951C8.8381 18.1358 8.8381 21.0783 8.88797 24.0191C8.95031 27.7266 11.7163 30.4552 15.4263 30.4962C18.333 30.5283 21.2432 30.5336 24.1499 30.4926C27.7975 30.4427 30.5315 27.6642 30.5742 24.0155C30.5814 23.4413 30.5831 22.867 30.5831 22.2928C30.5831 21.8523 30.5818 21.4114 30.5805 20.9704ZM15.7718 10.5833C18.4113 10.5263 21.0544 10.5227 23.694 10.5851C23.749 10.5864 23.8037 10.5886 23.8583 10.5916C26.5657 10.7409 28.7427 13.0455 28.7759 15.7873C28.808 18.341 28.8097 20.8983 28.7777 23.4521C28.7403 26.3019 26.4712 28.5899 23.6286 28.6648C22.726 28.6895 21.8217 28.6834 20.9175 28.6774H20.9174C20.5156 28.6747 20.1137 28.6719 19.712 28.6719V28.6755C19.3309 28.6755 18.9495 28.6772 18.5681 28.6788H18.5679C17.7624 28.6823 16.9567 28.6858 16.1517 28.6737C16.0608 28.6722 15.9707 28.669 15.8813 28.664C13.0249 28.5074 10.9241 26.6188 10.7634 23.732C10.6085 20.9214 10.6388 18.0859 10.7991 15.2735C10.9469 12.6681 13.1892 10.6386 15.7718 10.5833ZM19.7477 13.4689C19.8599 13.4689 19.9715 13.472 20.0824 13.4782C23.2728 13.6559 25.8624 16.3393 25.8882 19.5821C25.915 22.9883 23.1757 25.7347 19.7436 25.7471C19.6209 25.7475 19.4992 25.7444 19.3784 25.7379C16.1533 25.5622 13.645 22.9521 13.6261 19.6696C13.6066 16.2509 16.353 13.4707 19.7477 13.4689ZM25.2725 12.1617C25.3019 12.1612 25.3312 12.1617 25.3602 12.1633C26.0473 12.2006 26.6171 12.7971 26.6274 13.5098C26.6381 14.257 26.0485 14.8616 25.2969 14.8759C25.2633 14.8764 25.2301 14.8758 25.1972 14.8741C24.4906 14.8355 23.9596 14.2755 23.9528 13.5367C23.9456 12.7645 24.5138 12.1724 25.2725 12.1617Z"
    fill="#780000" fill-rule="evenodd"></path>
</svg>
